<svg xmlns="http://www.w3.org/2000/svg" xmlns:xlink="http://www.w3.org/1999/xlink" width="600" zoomAndPan="magnify" viewBox="0 0 450 74.999997" height="100" preserveAspectRatio="xMidYMid meet" version="1.0"><defs><g/><clipPath id="a8f22cd512"><path d="M 2.644531 2.871094 L 447.589844 2.871094 L 447.589844 72.789062 L 2.644531 72.789062 Z M 2.644531 2.871094 " clip-rule="nonzero"/></clipPath><clipPath id="0881bcf93d"><path d="M 11.644531 2.871094 L 438.589844 2.871094 C 443.5625 2.871094 447.589844 6.902344 447.589844 11.871094 L 447.589844 63.789062 C 447.589844 68.761719 443.5625 72.789062 438.589844 72.789062 L 11.644531 72.789062 C 6.671875 72.789062 2.644531 68.761719 2.644531 63.789062 L 2.644531 11.871094 C 2.644531 6.902344 6.671875 2.871094 11.644531 2.871094 Z M 11.644531 2.871094 " clip-rule="nonzero"/></clipPath><clipPath id="2cd07e31df"><path d="M 13.503906 10.792969 L 76.902344 10.792969 L 76.902344 60.820312 L 13.503906 60.820312 Z M 13.503906 10.792969 " clip-rule="nonzero"/></clipPath><clipPath id="aecfd1c8bf"><path d="M 11.816406 10.96875 L 78.566406 10.96875 L 78.566406 59.71875 L 11.816406 59.71875 Z M 11.816406 10.96875 " clip-rule="nonzero"/></clipPath></defs><g clip-path="url(#a8f22cd512)"><g clip-path="url(#0881bcf93d)"><path fill="#5ce1e6" d="M 2.644531 2.871094 L 447.589844 2.871094 L 447.589844 72.789062 L 2.644531 72.789062 Z M 2.644531 2.871094 " fill-opacity="1" fill-rule="nonzero"/></g></g><g clip-path="url(#2cd07e31df)"><path fill="#40bfbc" d="M 13.503906 10.792969 L 76.902344 10.792969 L 76.902344 60.820312 L 13.503906 60.820312 Z M 13.503906 10.792969 " fill-opacity="1" fill-rule="nonzero"/></g><g clip-path="url(#aecfd1c8bf)"><path fill="#287777" d="M 76.738281 10.96875 L 13.695312 10.96875 C 12.730469 10.96875 11.941406 11.753906 11.941406 12.710938 L 11.941406 57.976562 C 11.941406 58.933594 12.730469 59.71875 13.695312 59.71875 L 76.738281 59.71875 C 77.699219 59.71875 78.488281 58.933594 78.488281 57.976562 L 78.488281 12.710938 C 78.488281 11.753906 77.703125 10.96875 76.738281 10.96875 M 15.445312 14.453125 L 74.984375 14.453125 L 74.984375 21.414062 L 15.445312 21.414062 Z M 74.984375 56.234375 L 15.445312 56.234375 L 15.445312 24.898438 L 74.984375 24.898438 Z M 74.984375 56.234375 " fill-opacity="1" fill-rule="evenodd"/></g><path fill="#287777" d="M 18.984375 19.675781 C 18.015625 19.675781 17.222656 18.894531 17.222656 17.933594 C 17.222656 16.96875 17.996094 16.191406 18.964844 16.191406 L 18.984375 16.191406 C 19.949219 16.191406 20.734375 16.96875 20.734375 17.933594 C 20.734375 18.894531 19.949219 19.675781 18.984375 19.675781 " fill-opacity="1" fill-rule="evenodd"/><path fill="#287777" d="M 24.234375 19.675781 C 23.269531 19.675781 22.476562 18.894531 22.476562 17.933594 C 22.476562 16.96875 23.25 16.191406 24.21875 16.191406 L 24.234375 16.191406 C 25.203125 16.191406 25.988281 16.96875 25.988281 17.933594 C 25.988281 18.894531 25.203125 19.675781 24.234375 19.675781 " fill-opacity="1" fill-rule="evenodd"/><path fill="#287777" d="M 29.488281 19.675781 C 28.523438 19.675781 27.730469 18.894531 27.730469 17.933594 C 27.730469 16.96875 28.503906 16.191406 29.472656 16.191406 L 29.488281 16.191406 C 30.457031 16.191406 31.242188 16.96875 31.242188 17.933594 C 31.242188 18.894531 30.457031 19.675781 29.488281 19.675781 " fill-opacity="1" fill-rule="evenodd"/><path fill="#287777" d="M 29.457031 47.53125 C 28.925781 47.53125 28.398438 47.292969 28.054688 46.835938 C 27.472656 46.066406 27.628906 44.972656 28.402344 44.398438 L 33.539062 40.566406 L 28.402344 36.738281 C 27.628906 36.160156 27.472656 35.070312 28.054688 34.300781 C 28.636719 33.53125 29.730469 33.378906 30.503906 33.953125 L 37.511719 39.175781 C 37.953125 39.503906 38.210938 40.019531 38.210938 40.566406 C 38.210938 41.113281 37.953125 41.632812 37.511719 41.960938 L 30.503906 47.183594 C 30.191406 47.417969 29.820312 47.53125 29.457031 47.53125 " fill-opacity="1" fill-rule="evenodd"/><path fill="#287777" d="M 43.464844 47.53125 L 39.960938 47.53125 C 38.996094 47.53125 38.210938 46.753906 38.210938 45.789062 C 38.210938 44.828125 38.996094 44.050781 39.960938 44.050781 L 43.464844 44.050781 C 44.429688 44.050781 45.214844 44.828125 45.214844 45.789062 C 45.214844 46.753906 44.429688 47.53125 43.464844 47.53125 " fill-opacity="1" fill-rule="evenodd"/><path fill="#287777" d="M 60.976562 47.53125 L 57.472656 47.53125 C 56.507812 47.53125 55.722656 46.753906 55.722656 45.789062 C 55.722656 44.828125 56.507812 44.050781 57.472656 44.050781 L 60.976562 44.050781 C 61.945312 44.050781 62.726562 44.828125 62.726562 45.789062 C 62.726562 46.753906 61.945312 47.53125 60.976562 47.53125 " fill-opacity="1" fill-rule="evenodd"/><path fill="#287777" d="M 52.222656 47.53125 L 48.71875 47.53125 C 47.75 47.53125 46.96875 46.753906 46.96875 45.789062 C 46.96875 44.828125 47.753906 44.050781 48.71875 44.050781 L 52.222656 44.050781 C 53.1875 44.050781 53.972656 44.828125 53.972656 45.789062 C 53.972656 46.753906 53.1875 47.53125 52.222656 47.53125 " fill-opacity="1" fill-rule="evenodd"/><g fill="#0d4244" fill-opacity="0.302"><g transform="translate(93.446389, 53.507891)"><g><path d="M 19.953125 0 L 11.078125 0 C 8.035156 0 5.78125 -0.601562 4.3125 -1.8125 C 2.84375 -3.03125 2.109375 -4.90625 2.109375 -7.4375 L 2.109375 -18.75 C 2.109375 -21.28125 2.84375 -23.15625 4.3125 -24.375 C 5.78125 -25.601562 8.035156 -26.21875 11.078125 -26.21875 L 19.953125 -26.21875 C 20.421875 -26.21875 20.753906 -26.113281 20.953125 -25.90625 C 21.160156 -25.707031 21.265625 -25.375 21.265625 -24.90625 L 21.265625 -20.5 C 21.265625 -20.039062 21.160156 -19.707031 20.953125 -19.5 C 20.753906 -19.289062 20.421875 -19.1875 19.953125 -19.1875 L 12.640625 -19.1875 C 11.890625 -19.1875 11.332031 -19.035156 10.96875 -18.734375 C 10.601562 -18.429688 10.421875 -17.976562 10.421875 -17.375 L 10.421875 -8.703125 C 10.421875 -8.097656 10.601562 -7.65625 10.96875 -7.375 C 11.332031 -7.09375 11.890625 -6.953125 12.640625 -6.953125 L 19.953125 -6.953125 C 20.421875 -6.953125 20.753906 -6.847656 20.953125 -6.640625 C 21.160156 -6.441406 21.265625 -6.109375 21.265625 -5.640625 L 21.265625 -1.3125 C 21.265625 -0.851562 21.160156 -0.519531 20.953125 -0.3125 C 20.753906 -0.101562 20.421875 0 19.953125 0 Z M 19.953125 0 "/></g></g></g><g fill="#0d4244" fill-opacity="0.302"><g transform="translate(118.651158, 53.507891)"><g><path d="M 24.734375 -6.890625 C 24.734375 -5.765625 24.566406 -4.75 24.234375 -3.84375 C 23.910156 -2.9375 23.328125 -2.160156 22.484375 -1.515625 C 21.648438 -0.867188 20.5 -0.363281 19.03125 0 C 17.5625 0.363281 15.695312 0.546875 13.4375 0.546875 C 11.175781 0.546875 9.304688 0.363281 7.828125 0 C 6.347656 -0.363281 5.1875 -0.867188 4.34375 -1.515625 C 3.507812 -2.160156 2.925781 -2.9375 2.59375 -3.84375 C 2.269531 -4.75 2.109375 -5.765625 2.109375 -6.890625 L 2.109375 -19.296875 C 2.109375 -20.421875 2.269531 -21.4375 2.59375 -22.34375 C 2.925781 -23.25 3.507812 -24.03125 4.34375 -24.6875 C 5.1875 -25.34375 6.347656 -25.851562 7.828125 -26.21875 C 9.304688 -26.582031 11.175781 -26.765625 13.4375 -26.765625 C 15.695312 -26.765625 17.5625 -26.582031 19.03125 -26.21875 C 20.5 -25.851562 21.648438 -25.34375 22.484375 -24.6875 C 23.328125 -24.03125 23.910156 -23.25 24.234375 -22.34375 C 24.566406 -21.4375 24.734375 -20.421875 24.734375 -19.296875 Z M 10.375 -8.1875 C 10.375 -7.707031 10.554688 -7.300781 10.921875 -6.96875 C 11.285156 -6.644531 12.125 -6.484375 13.4375 -6.484375 C 14.75 -6.484375 15.585938 -6.644531 15.953125 -6.96875 C 16.316406 -7.300781 16.5 -7.707031 16.5 -8.1875 L 16.5 -18 C 16.5 -18.457031 16.316406 -18.847656 15.953125 -19.171875 C 15.585938 -19.503906 14.75 -19.671875 13.4375 -19.671875 C 12.125 -19.671875 11.285156 -19.503906 10.921875 -19.171875 C 10.554688 -18.847656 10.375 -18.457031 10.375 -18 Z M 10.375 -8.1875 "/></g></g></g><g fill="#0d4244" fill-opacity="0.302"><g transform="translate(147.825916, 53.507891)"><g><path d="M 9.25 0 L 3.828125 0 C 3.359375 0 3.019531 -0.101562 2.8125 -0.3125 C 2.613281 -0.519531 2.515625 -0.851562 2.515625 -1.3125 L 2.515625 -24.90625 C 2.515625 -25.375 2.613281 -25.707031 2.8125 -25.90625 C 3.019531 -26.113281 3.359375 -26.21875 3.828125 -26.21875 L 9.6875 -26.21875 C 10.070312 -26.21875 10.390625 -26.132812 10.640625 -25.96875 C 10.898438 -25.800781 11.140625 -25.519531 11.359375 -25.125 L 14.640625 -19.1875 C 14.765625 -18.96875 14.867188 -18.8125 14.953125 -18.71875 C 15.035156 -18.625 15.148438 -18.578125 15.296875 -18.578125 L 15.625 -18.578125 C 15.769531 -18.578125 15.882812 -18.625 15.96875 -18.71875 C 16.050781 -18.8125 16.15625 -18.96875 16.28125 -19.1875 L 19.515625 -25.125 C 19.734375 -25.519531 19.96875 -25.800781 20.21875 -25.96875 C 20.476562 -26.132812 20.804688 -26.21875 21.203125 -26.21875 L 27.09375 -26.21875 C 27.5625 -26.21875 27.894531 -26.113281 28.09375 -25.90625 C 28.300781 -25.707031 28.40625 -25.375 28.40625 -24.90625 L 28.40625 -1.3125 C 28.40625 -0.851562 28.300781 -0.519531 28.09375 -0.3125 C 27.894531 -0.101562 27.5625 0 27.09375 0 L 21.484375 0 C 21.023438 0 20.691406 -0.101562 20.484375 -0.3125 C 20.273438 -0.519531 20.171875 -0.851562 20.171875 -1.3125 L 20.171875 -14.125 L 18.03125 -10.15625 C 17.8125 -9.75 17.550781 -9.453125 17.25 -9.265625 C 16.945312 -9.085938 16.5625 -9 16.09375 -9 L 14.640625 -9 C 14.179688 -9 13.796875 -9.085938 13.484375 -9.265625 C 13.179688 -9.453125 12.925781 -9.75 12.71875 -10.15625 L 10.5625 -14.125 L 10.5625 -1.3125 C 10.5625 -0.851562 10.457031 -0.519531 10.25 -0.3125 C 10.039062 -0.101562 9.707031 0 9.25 0 Z M 9.25 0 "/></g></g></g><g fill="#0d4244" fill-opacity="0.302"><g transform="translate(181.079921, 53.507891)"><g><path d="M 9.25 0 L 3.828125 0 C 3.359375 0 3.019531 -0.101562 2.8125 -0.3125 C 2.613281 -0.519531 2.515625 -0.851562 2.515625 -1.3125 L 2.515625 -24.90625 C 2.515625 -25.375 2.613281 -25.707031 2.8125 -25.90625 C 3.019531 -26.113281 3.359375 -26.21875 3.828125 -26.21875 L 9.6875 -26.21875 C 10.070312 -26.21875 10.390625 -26.132812 10.640625 -25.96875 C 10.898438 -25.800781 11.140625 -25.519531 11.359375 -25.125 L 14.640625 -19.1875 C 14.765625 -18.96875 14.867188 -18.8125 14.953125 -18.71875 C 15.035156 -18.625 15.148438 -18.578125 15.296875 -18.578125 L 15.625 -18.578125 C 15.769531 -18.578125 15.882812 -18.625 15.96875 -18.71875 C 16.050781 -18.8125 16.15625 -18.96875 16.28125 -19.1875 L 19.515625 -25.125 C 19.734375 -25.519531 19.96875 -25.800781 20.21875 -25.96875 C 20.476562 -26.132812 20.804688 -26.21875 21.203125 -26.21875 L 27.09375 -26.21875 C 27.5625 -26.21875 27.894531 -26.113281 28.09375 -25.90625 C 28.300781 -25.707031 28.40625 -25.375 28.40625 -24.90625 L 28.40625 -1.3125 C 28.40625 -0.851562 28.300781 -0.519531 28.09375 -0.3125 C 27.894531 -0.101562 27.5625 0 27.09375 0 L 21.484375 0 C 21.023438 0 20.691406 -0.101562 20.484375 -0.3125 C 20.273438 -0.519531 20.171875 -0.851562 20.171875 -1.3125 L 20.171875 -14.125 L 18.03125 -10.15625 C 17.8125 -9.75 17.550781 -9.453125 17.25 -9.265625 C 16.945312 -9.085938 16.5625 -9 16.09375 -9 L 14.640625 -9 C 14.179688 -9 13.796875 -9.085938 13.484375 -9.265625 C 13.179688 -9.453125 12.925781 -9.75 12.71875 -10.15625 L 10.5625 -14.125 L 10.5625 -1.3125 C 10.5625 -0.851562 10.457031 -0.519531 10.25 -0.3125 C 10.039062 -0.101562 9.707031 0 9.25 0 Z M 9.25 0 "/></g></g></g><g fill="#0d4244" fill-opacity="0.302"><g transform="translate(214.333925, 53.507891)"><g><path d="M 12.015625 -18.578125 L 10.3125 -13.03125 L 16.03125 -13.03125 L 14.3125 -18.578125 C 14.21875 -18.796875 14.113281 -18.953125 14 -19.046875 C 13.894531 -19.140625 13.769531 -19.1875 13.625 -19.1875 L 12.71875 -19.1875 C 12.570312 -19.1875 12.441406 -19.140625 12.328125 -19.046875 C 12.222656 -18.953125 12.117188 -18.796875 12.015625 -18.578125 Z M 9.9375 -1.3125 C 9.9375 -0.851562 9.832031 -0.519531 9.625 -0.3125 C 9.425781 -0.101562 9.09375 0 8.625 0 L 3.28125 0 C 2.820312 0 2.488281 -0.101562 2.28125 -0.3125 C 2.070312 -0.519531 1.96875 -0.851562 1.96875 -1.3125 L 1.96875 -10.921875 C 1.96875 -11.648438 2.082031 -12.488281 2.3125 -13.4375 C 2.539062 -14.382812 2.898438 -15.488281 3.390625 -16.75 L 6.5625 -25.015625 C 6.707031 -25.429688 6.929688 -25.734375 7.234375 -25.921875 C 7.535156 -26.117188 7.925781 -26.21875 8.40625 -26.21875 L 18.203125 -26.21875 C 18.671875 -26.21875 19.054688 -26.117188 19.359375 -25.921875 C 19.660156 -25.734375 19.882812 -25.429688 20.03125 -25.015625 L 23.203125 -16.75 C 23.679688 -15.488281 24.035156 -14.382812 24.265625 -13.4375 C 24.503906 -12.488281 24.625 -11.648438 24.625 -10.921875 L 24.625 -1.3125 C 24.625 -0.851562 24.519531 -0.519531 24.3125 -0.3125 C 24.101562 -0.101562 23.769531 0 23.3125 0 L 17.8125 0 C 17.320312 0 16.960938 -0.101562 16.734375 -0.3125 C 16.503906 -0.519531 16.390625 -0.851562 16.390625 -1.3125 L 16.390625 -6.40625 L 9.9375 -6.40625 Z M 9.9375 -1.3125 "/></g></g></g><g fill="#0d4244" fill-opacity="0.302"><g transform="translate(243.253726, 53.507891)"><g><path d="M 9.28125 0 L 3.828125 0 C 3.359375 0 3.019531 -0.101562 2.8125 -0.3125 C 2.613281 -0.519531 2.515625 -0.851562 2.515625 -1.3125 L 2.515625 -24.90625 C 2.515625 -25.375 2.613281 -25.707031 2.8125 -25.90625 C 3.019531 -26.113281 3.359375 -26.21875 3.828125 -26.21875 L 7.609375 -26.21875 C 8.066406 -26.21875 8.457031 -26.144531 8.78125 -26 C 9.113281 -25.851562 9.441406 -25.597656 9.765625 -25.234375 L 16.828125 -17.15625 L 16.828125 -24.90625 C 16.828125 -25.375 16.929688 -25.707031 17.140625 -25.90625 C 17.347656 -26.113281 17.679688 -26.21875 18.140625 -26.21875 L 23.59375 -26.21875 C 24.0625 -26.21875 24.394531 -26.113281 24.59375 -25.90625 C 24.800781 -25.707031 24.90625 -25.375 24.90625 -24.90625 L 24.90625 -1.3125 C 24.90625 -0.851562 24.800781 -0.519531 24.59375 -0.3125 C 24.394531 -0.101562 24.0625 0 23.59375 0 L 18.140625 0 C 17.679688 0 17.347656 -0.101562 17.140625 -0.3125 C 16.929688 -0.519531 16.828125 -0.851562 16.828125 -1.3125 L 16.828125 -5.796875 L 10.59375 -13.328125 L 10.59375 -1.3125 C 10.59375 -0.851562 10.488281 -0.519531 10.28125 -0.3125 C 10.082031 -0.101562 9.75 0 9.28125 0 Z M 9.28125 0 "/></g></g></g><g fill="#0d4244" fill-opacity="0.302"><g transform="translate(273.011223, 53.507891)"><g><path d="M 16.09375 0 L 3.828125 0 C 3.359375 0 3.019531 -0.101562 2.8125 -0.3125 C 2.613281 -0.519531 2.515625 -0.851562 2.515625 -1.3125 L 2.515625 -24.90625 C 2.515625 -25.375 2.613281 -25.707031 2.8125 -25.90625 C 3.019531 -26.113281 3.359375 -26.21875 3.828125 -26.21875 L 16.09375 -26.21875 C 19.132812 -26.21875 21.390625 -25.609375 22.859375 -24.390625 C 24.328125 -23.179688 25.0625 -21.316406 25.0625 -18.796875 L 25.0625 -7.4375 C 25.0625 -4.90625 24.328125 -3.03125 22.859375 -1.8125 C 21.390625 -0.601562 19.132812 0 16.09375 0 Z M 10.78125 -19.265625 L 10.78125 -6.890625 L 15.109375 -6.890625 C 15.691406 -6.890625 16.125 -7.035156 16.40625 -7.328125 C 16.6875 -7.617188 16.828125 -8.066406 16.828125 -8.671875 L 16.828125 -17.515625 C 16.828125 -18.117188 16.6875 -18.5625 16.40625 -18.84375 C 16.125 -19.125 15.691406 -19.265625 15.109375 -19.265625 Z M 10.78125 -19.265625 "/></g></g></g><g fill="#0d4244" fill-opacity="0.302"><g transform="translate(302.513769, 53.507891)"><g><path d="M 14.671875 0 L 3.171875 0 C 2.710938 0 2.378906 -0.101562 2.171875 -0.3125 C 1.960938 -0.519531 1.859375 -0.851562 1.859375 -1.3125 L 1.859375 -5.578125 C 1.859375 -6.035156 1.960938 -6.367188 2.171875 -6.578125 C 2.378906 -6.785156 2.710938 -6.890625 3.171875 -6.890625 L 12.96875 -6.890625 C 13.28125 -6.890625 13.515625 -6.988281 13.671875 -7.1875 C 13.828125 -7.394531 13.90625 -7.644531 13.90625 -7.9375 C 13.90625 -8.351562 13.828125 -8.65625 13.671875 -8.84375 C 13.515625 -9.039062 13.28125 -9.148438 12.96875 -9.171875 L 7.5 -9.9375 C 5.800781 -10.1875 4.4375 -10.75 3.40625 -11.625 C 2.375 -12.5 1.859375 -13.953125 1.859375 -15.984375 L 1.859375 -19.8125 C 1.859375 -21.875 2.523438 -23.457031 3.859375 -24.5625 C 5.191406 -25.664062 7.035156 -26.21875 9.390625 -26.21875 L 19.59375 -26.21875 C 20.050781 -26.21875 20.382812 -26.113281 20.59375 -25.90625 C 20.800781 -25.707031 20.90625 -25.375 20.90625 -24.90625 L 20.90625 -20.578125 C 20.90625 -20.117188 20.800781 -19.785156 20.59375 -19.578125 C 20.382812 -19.367188 20.050781 -19.265625 19.59375 -19.265625 L 11.109375 -19.265625 C 10.796875 -19.265625 10.550781 -19.160156 10.375 -18.953125 C 10.207031 -18.742188 10.125 -18.484375 10.125 -18.171875 C 10.125 -17.859375 10.207031 -17.59375 10.375 -17.375 C 10.550781 -17.15625 10.796875 -17.035156 11.109375 -17.015625 L 16.53125 -16.28125 C 18.226562 -16.039062 19.597656 -15.484375 20.640625 -14.609375 C 21.691406 -13.734375 22.21875 -12.273438 22.21875 -10.234375 L 22.21875 -6.40625 C 22.21875 -4.34375 21.539062 -2.757812 20.1875 -1.65625 C 18.84375 -0.550781 17.003906 0 14.671875 0 Z M 14.671875 0 "/></g></g></g><g fill="#0d4244" fill-opacity="0.502"><g transform="translate(91.836191, 51.897691)"><g><path d="M 19.953125 0 L 11.078125 0 C 8.035156 0 5.78125 -0.601562 4.3125 -1.8125 C 2.84375 -3.03125 2.109375 -4.90625 2.109375 -7.4375 L 2.109375 -18.75 C 2.109375 -21.28125 2.84375 -23.15625 4.3125 -24.375 C 5.78125 -25.601562 8.035156 -26.21875 11.078125 -26.21875 L 19.953125 -26.21875 C 20.421875 -26.21875 20.753906 -26.113281 20.953125 -25.90625 C 21.160156 -25.707031 21.265625 -25.375 21.265625 -24.90625 L 21.265625 -20.5 C 21.265625 -20.039062 21.160156 -19.707031 20.953125 -19.5 C 20.753906 -19.289062 20.421875 -19.1875 19.953125 -19.1875 L 12.640625 -19.1875 C 11.890625 -19.1875 11.332031 -19.035156 10.96875 -18.734375 C 10.601562 -18.429688 10.421875 -17.976562 10.421875 -17.375 L 10.421875 -8.703125 C 10.421875 -8.097656 10.601562 -7.65625 10.96875 -7.375 C 11.332031 -7.09375 11.890625 -6.953125 12.640625 -6.953125 L 19.953125 -6.953125 C 20.421875 -6.953125 20.753906 -6.847656 20.953125 -6.640625 C 21.160156 -6.441406 21.265625 -6.109375 21.265625 -5.640625 L 21.265625 -1.3125 C 21.265625 -0.851562 21.160156 -0.519531 20.953125 -0.3125 C 20.753906 -0.101562 20.421875 0 19.953125 0 Z M 19.953125 0 "/></g></g></g><g fill="#0d4244" fill-opacity="0.502"><g transform="translate(117.04096, 51.897691)"><g><path d="M 24.734375 -6.890625 C 24.734375 -5.765625 24.566406 -4.75 24.234375 -3.84375 C 23.910156 -2.9375 23.328125 -2.160156 22.484375 -1.515625 C 21.648438 -0.867188 20.5 -0.363281 19.03125 0 C 17.5625 0.363281 15.695312 0.546875 13.4375 0.546875 C 11.175781 0.546875 9.304688 0.363281 7.828125 0 C 6.347656 -0.363281 5.1875 -0.867188 4.34375 -1.515625 C 3.507812 -2.160156 2.925781 -2.9375 2.59375 -3.84375 C 2.269531 -4.75 2.109375 -5.765625 2.109375 -6.890625 L 2.109375 -19.296875 C 2.109375 -20.421875 2.269531 -21.4375 2.59375 -22.34375 C 2.925781 -23.25 3.507812 -24.03125 4.34375 -24.6875 C 5.1875 -25.34375 6.347656 -25.851562 7.828125 -26.21875 C 9.304688 -26.582031 11.175781 -26.765625 13.4375 -26.765625 C 15.695312 -26.765625 17.5625 -26.582031 19.03125 -26.21875 C 20.5 -25.851562 21.648438 -25.34375 22.484375 -24.6875 C 23.328125 -24.03125 23.910156 -23.25 24.234375 -22.34375 C 24.566406 -21.4375 24.734375 -20.421875 24.734375 -19.296875 Z M 10.375 -8.1875 C 10.375 -7.707031 10.554688 -7.300781 10.921875 -6.96875 C 11.285156 -6.644531 12.125 -6.484375 13.4375 -6.484375 C 14.75 -6.484375 15.585938 -6.644531 15.953125 -6.96875 C 16.316406 -7.300781 16.5 -7.707031 16.5 -8.1875 L 16.5 -18 C 16.5 -18.457031 16.316406 -18.847656 15.953125 -19.171875 C 15.585938 -19.503906 14.75 -19.671875 13.4375 -19.671875 C 12.125 -19.671875 11.285156 -19.503906 10.921875 -19.171875 C 10.554688 -18.847656 10.375 -18.457031 10.375 -18 Z M 10.375 -8.1875 "/></g></g></g><g fill="#0d4244" fill-opacity="0.502"><g transform="translate(146.215718, 51.897691)"><g><path d="M 9.25 0 L 3.828125 0 C 3.359375 0 3.019531 -0.101562 2.8125 -0.3125 C 2.613281 -0.519531 2.515625 -0.851562 2.515625 -1.3125 L 2.515625 -24.90625 C 2.515625 -25.375 2.613281 -25.707031 2.8125 -25.90625 C 3.019531 -26.113281 3.359375 -26.21875 3.828125 -26.21875 L 9.6875 -26.21875 C 10.070312 -26.21875 10.390625 -26.132812 10.640625 -25.96875 C 10.898438 -25.800781 11.140625 -25.519531 11.359375 -25.125 L 14.640625 -19.1875 C 14.765625 -18.96875 14.867188 -18.8125 14.953125 -18.71875 C 15.035156 -18.625 15.148438 -18.578125 15.296875 -18.578125 L 15.625 -18.578125 C 15.769531 -18.578125 15.882812 -18.625 15.96875 -18.71875 C 16.050781 -18.8125 16.15625 -18.96875 16.28125 -19.1875 L 19.515625 -25.125 C 19.734375 -25.519531 19.96875 -25.800781 20.21875 -25.96875 C 20.476562 -26.132812 20.804688 -26.21875 21.203125 -26.21875 L 27.09375 -26.21875 C 27.5625 -26.21875 27.894531 -26.113281 28.09375 -25.90625 C 28.300781 -25.707031 28.40625 -25.375 28.40625 -24.90625 L 28.40625 -1.3125 C 28.40625 -0.851562 28.300781 -0.519531 28.09375 -0.3125 C 27.894531 -0.101562 27.5625 0 27.09375 0 L 21.484375 0 C 21.023438 0 20.691406 -0.101562 20.484375 -0.3125 C 20.273438 -0.519531 20.171875 -0.851562 20.171875 -1.3125 L 20.171875 -14.125 L 18.03125 -10.15625 C 17.8125 -9.75 17.550781 -9.453125 17.25 -9.265625 C 16.945312 -9.085938 16.5625 -9 16.09375 -9 L 14.640625 -9 C 14.179688 -9 13.796875 -9.085938 13.484375 -9.265625 C 13.179688 -9.453125 12.925781 -9.75 12.71875 -10.15625 L 10.5625 -14.125 L 10.5625 -1.3125 C 10.5625 -0.851562 10.457031 -0.519531 10.25 -0.3125 C 10.039062 -0.101562 9.707031 0 9.25 0 Z M 9.25 0 "/></g></g></g><g fill="#0d4244" fill-opacity="0.502"><g transform="translate(179.469722, 51.897691)"><g><path d="M 9.25 0 L 3.828125 0 C 3.359375 0 3.019531 -0.101562 2.8125 -0.3125 C 2.613281 -0.519531 2.515625 -0.851562 2.515625 -1.3125 L 2.515625 -24.90625 C 2.515625 -25.375 2.613281 -25.707031 2.8125 -25.90625 C 3.019531 -26.113281 3.359375 -26.21875 3.828125 -26.21875 L 9.6875 -26.21875 C 10.070312 -26.21875 10.390625 -26.132812 10.640625 -25.96875 C 10.898438 -25.800781 11.140625 -25.519531 11.359375 -25.125 L 14.640625 -19.1875 C 14.765625 -18.96875 14.867188 -18.8125 14.953125 -18.71875 C 15.035156 -18.625 15.148438 -18.578125 15.296875 -18.578125 L 15.625 -18.578125 C 15.769531 -18.578125 15.882812 -18.625 15.96875 -18.71875 C 16.050781 -18.8125 16.15625 -18.96875 16.28125 -19.1875 L 19.515625 -25.125 C 19.734375 -25.519531 19.96875 -25.800781 20.21875 -25.96875 C 20.476562 -26.132812 20.804688 -26.21875 21.203125 -26.21875 L 27.09375 -26.21875 C 27.5625 -26.21875 27.894531 -26.113281 28.09375 -25.90625 C 28.300781 -25.707031 28.40625 -25.375 28.40625 -24.90625 L 28.40625 -1.3125 C 28.40625 -0.851562 28.300781 -0.519531 28.09375 -0.3125 C 27.894531 -0.101562 27.5625 0 27.09375 0 L 21.484375 0 C 21.023438 0 20.691406 -0.101562 20.484375 -0.3125 C 20.273438 -0.519531 20.171875 -0.851562 20.171875 -1.3125 L 20.171875 -14.125 L 18.03125 -10.15625 C 17.8125 -9.75 17.550781 -9.453125 17.25 -9.265625 C 16.945312 -9.085938 16.5625 -9 16.09375 -9 L 14.640625 -9 C 14.179688 -9 13.796875 -9.085938 13.484375 -9.265625 C 13.179688 -9.453125 12.925781 -9.75 12.71875 -10.15625 L 10.5625 -14.125 L 10.5625 -1.3125 C 10.5625 -0.851562 10.457031 -0.519531 10.25 -0.3125 C 10.039062 -0.101562 9.707031 0 9.25 0 Z M 9.25 0 "/></g></g></g><g fill="#0d4244" fill-opacity="0.502"><g transform="translate(212.723727, 51.897691)"><g><path d="M 12.015625 -18.578125 L 10.3125 -13.03125 L 16.03125 -13.03125 L 14.3125 -18.578125 C 14.21875 -18.796875 14.113281 -18.953125 14 -19.046875 C 13.894531 -19.140625 13.769531 -19.1875 13.625 -19.1875 L 12.71875 -19.1875 C 12.570312 -19.1875 12.441406 -19.140625 12.328125 -19.046875 C 12.222656 -18.953125 12.117188 -18.796875 12.015625 -18.578125 Z M 9.9375 -1.3125 C 9.9375 -0.851562 9.832031 -0.519531 9.625 -0.3125 C 9.425781 -0.101562 9.09375 0 8.625 0 L 3.28125 0 C 2.820312 0 2.488281 -0.101562 2.28125 -0.3125 C 2.070312 -0.519531 1.96875 -0.851562 1.96875 -1.3125 L 1.96875 -10.921875 C 1.96875 -11.648438 2.082031 -12.488281 2.3125 -13.4375 C 2.539062 -14.382812 2.898438 -15.488281 3.390625 -16.75 L 6.5625 -25.015625 C 6.707031 -25.429688 6.929688 -25.734375 7.234375 -25.921875 C 7.535156 -26.117188 7.925781 -26.21875 8.40625 -26.21875 L 18.203125 -26.21875 C 18.671875 -26.21875 19.054688 -26.117188 19.359375 -25.921875 C 19.660156 -25.734375 19.882812 -25.429688 20.03125 -25.015625 L 23.203125 -16.75 C 23.679688 -15.488281 24.035156 -14.382812 24.265625 -13.4375 C 24.503906 -12.488281 24.625 -11.648438 24.625 -10.921875 L 24.625 -1.3125 C 24.625 -0.851562 24.519531 -0.519531 24.3125 -0.3125 C 24.101562 -0.101562 23.769531 0 23.3125 0 L 17.8125 0 C 17.320312 0 16.960938 -0.101562 16.734375 -0.3125 C 16.503906 -0.519531 16.390625 -0.851562 16.390625 -1.3125 L 16.390625 -6.40625 L 9.9375 -6.40625 Z M 9.9375 -1.3125 "/></g></g></g><g fill="#0d4244" fill-opacity="0.502"><g transform="translate(241.643528, 51.897691)"><g><path d="M 9.28125 0 L 3.828125 0 C 3.359375 0 3.019531 -0.101562 2.8125 -0.3125 C 2.613281 -0.519531 2.515625 -0.851562 2.515625 -1.3125 L 2.515625 -24.90625 C 2.515625 -25.375 2.613281 -25.707031 2.8125 -25.90625 C 3.019531 -26.113281 3.359375 -26.21875 3.828125 -26.21875 L 7.609375 -26.21875 C 8.066406 -26.21875 8.457031 -26.144531 8.78125 -26 C 9.113281 -25.851562 9.441406 -25.597656 9.765625 -25.234375 L 16.828125 -17.15625 L 16.828125 -24.90625 C 16.828125 -25.375 16.929688 -25.707031 17.140625 -25.90625 C 17.347656 -26.113281 17.679688 -26.21875 18.140625 -26.21875 L 23.59375 -26.21875 C 24.0625 -26.21875 24.394531 -26.113281 24.59375 -25.90625 C 24.800781 -25.707031 24.90625 -25.375 24.90625 -24.90625 L 24.90625 -1.3125 C 24.90625 -0.851562 24.800781 -0.519531 24.59375 -0.3125 C 24.394531 -0.101562 24.0625 0 23.59375 0 L 18.140625 0 C 17.679688 0 17.347656 -0.101562 17.140625 -0.3125 C 16.929688 -0.519531 16.828125 -0.851562 16.828125 -1.3125 L 16.828125 -5.796875 L 10.59375 -13.328125 L 10.59375 -1.3125 C 10.59375 -0.851562 10.488281 -0.519531 10.28125 -0.3125 C 10.082031 -0.101562 9.75 0 9.28125 0 Z M 9.28125 0 "/></g></g></g><g fill="#0d4244" fill-opacity="0.502"><g transform="translate(271.401025, 51.897691)"><g><path d="M 16.09375 0 L 3.828125 0 C 3.359375 0 3.019531 -0.101562 2.8125 -0.3125 C 2.613281 -0.519531 2.515625 -0.851562 2.515625 -1.3125 L 2.515625 -24.90625 C 2.515625 -25.375 2.613281 -25.707031 2.8125 -25.90625 C 3.019531 -26.113281 3.359375 -26.21875 3.828125 -26.21875 L 16.09375 -26.21875 C 19.132812 -26.21875 21.390625 -25.609375 22.859375 -24.390625 C 24.328125 -23.179688 25.0625 -21.316406 25.0625 -18.796875 L 25.0625 -7.4375 C 25.0625 -4.90625 24.328125 -3.03125 22.859375 -1.8125 C 21.390625 -0.601562 19.132812 0 16.09375 0 Z M 10.78125 -19.265625 L 10.78125 -6.890625 L 15.109375 -6.890625 C 15.691406 -6.890625 16.125 -7.035156 16.40625 -7.328125 C 16.6875 -7.617188 16.828125 -8.066406 16.828125 -8.671875 L 16.828125 -17.515625 C 16.828125 -18.117188 16.6875 -18.5625 16.40625 -18.84375 C 16.125 -19.125 15.691406 -19.265625 15.109375 -19.265625 Z M 10.78125 -19.265625 "/></g></g></g><g fill="#0d4244" fill-opacity="0.502"><g transform="translate(300.903571, 51.897691)"><g><path d="M 14.671875 0 L 3.171875 0 C 2.710938 0 2.378906 -0.101562 2.171875 -0.3125 C 1.960938 -0.519531 1.859375 -0.851562 1.859375 -1.3125 L 1.859375 -5.578125 C 1.859375 -6.035156 1.960938 -6.367188 2.171875 -6.578125 C 2.378906 -6.785156 2.710938 -6.890625 3.171875 -6.890625 L 12.96875 -6.890625 C 13.28125 -6.890625 13.515625 -6.988281 13.671875 -7.1875 C 13.828125 -7.394531 13.90625 -7.644531 13.90625 -7.9375 C 13.90625 -8.351562 13.828125 -8.65625 13.671875 -8.84375 C 13.515625 -9.039062 13.28125 -9.148438 12.96875 -9.171875 L 7.5 -9.9375 C 5.800781 -10.1875 4.4375 -10.75 3.40625 -11.625 C 2.375 -12.5 1.859375 -13.953125 1.859375 -15.984375 L 1.859375 -19.8125 C 1.859375 -21.875 2.523438 -23.457031 3.859375 -24.5625 C 5.191406 -25.664062 7.035156 -26.21875 9.390625 -26.21875 L 19.59375 -26.21875 C 20.050781 -26.21875 20.382812 -26.113281 20.59375 -25.90625 C 20.800781 -25.707031 20.90625 -25.375 20.90625 -24.90625 L 20.90625 -20.578125 C 20.90625 -20.117188 20.800781 -19.785156 20.59375 -19.578125 C 20.382812 -19.367188 20.050781 -19.265625 19.59375 -19.265625 L 11.109375 -19.265625 C 10.796875 -19.265625 10.550781 -19.160156 10.375 -18.953125 C 10.207031 -18.742188 10.125 -18.484375 10.125 -18.171875 C 10.125 -17.859375 10.207031 -17.59375 10.375 -17.375 C 10.550781 -17.15625 10.796875 -17.035156 11.109375 -17.015625 L 16.53125 -16.28125 C 18.226562 -16.039062 19.597656 -15.484375 20.640625 -14.609375 C 21.691406 -13.734375 22.21875 -12.273438 22.21875 -10.234375 L 22.21875 -6.40625 C 22.21875 -4.34375 21.539062 -2.757812 20.1875 -1.65625 C 18.84375 -0.550781 17.003906 0 14.671875 0 Z M 14.671875 0 "/></g></g></g><g fill="#ffffff" fill-opacity="1"><g transform="translate(90.22599, 50.287489)"><g><path d="M 19.953125 0 L 11.078125 0 C 8.035156 0 5.78125 -0.601562 4.3125 -1.8125 C 2.84375 -3.03125 2.109375 -4.90625 2.109375 -7.4375 L 2.109375 -18.75 C 2.109375 -21.28125 2.84375 -23.15625 4.3125 -24.375 C 5.78125 -25.601562 8.035156 -26.21875 11.078125 -26.21875 L 19.953125 -26.21875 C 20.421875 -26.21875 20.753906 -26.113281 20.953125 -25.90625 C 21.160156 -25.707031 21.265625 -25.375 21.265625 -24.90625 L 21.265625 -20.5 C 21.265625 -20.039062 21.160156 -19.707031 20.953125 -19.5 C 20.753906 -19.289062 20.421875 -19.1875 19.953125 -19.1875 L 12.640625 -19.1875 C 11.890625 -19.1875 11.332031 -19.035156 10.96875 -18.734375 C 10.601562 -18.429688 10.421875 -17.976562 10.421875 -17.375 L 10.421875 -8.703125 C 10.421875 -8.097656 10.601562 -7.65625 10.96875 -7.375 C 11.332031 -7.09375 11.890625 -6.953125 12.640625 -6.953125 L 19.953125 -6.953125 C 20.421875 -6.953125 20.753906 -6.847656 20.953125 -6.640625 C 21.160156 -6.441406 21.265625 -6.109375 21.265625 -5.640625 L 21.265625 -1.3125 C 21.265625 -0.851562 21.160156 -0.519531 20.953125 -0.3125 C 20.753906 -0.101562 20.421875 0 19.953125 0 Z M 19.953125 0 "/></g></g></g><g fill="#ffffff" fill-opacity="1"><g transform="translate(115.430759, 50.287489)"><g><path d="M 24.734375 -6.890625 C 24.734375 -5.765625 24.566406 -4.75 24.234375 -3.84375 C 23.910156 -2.9375 23.328125 -2.160156 22.484375 -1.515625 C 21.648438 -0.867188 20.5 -0.363281 19.03125 0 C 17.5625 0.363281 15.695312 0.546875 13.4375 0.546875 C 11.175781 0.546875 9.304688 0.363281 7.828125 0 C 6.347656 -0.363281 5.1875 -0.867188 4.34375 -1.515625 C 3.507812 -2.160156 2.925781 -2.9375 2.59375 -3.84375 C 2.269531 -4.75 2.109375 -5.765625 2.109375 -6.890625 L 2.109375 -19.296875 C 2.109375 -20.421875 2.269531 -21.4375 2.59375 -22.34375 C 2.925781 -23.25 3.507812 -24.03125 4.34375 -24.6875 C 5.1875 -25.34375 6.347656 -25.851562 7.828125 -26.21875 C 9.304688 -26.582031 11.175781 -26.765625 13.4375 -26.765625 C 15.695312 -26.765625 17.5625 -26.582031 19.03125 -26.21875 C 20.5 -25.851562 21.648438 -25.34375 22.484375 -24.6875 C 23.328125 -24.03125 23.910156 -23.25 24.234375 -22.34375 C 24.566406 -21.4375 24.734375 -20.421875 24.734375 -19.296875 Z M 10.375 -8.1875 C 10.375 -7.707031 10.554688 -7.300781 10.921875 -6.96875 C 11.285156 -6.644531 12.125 -6.484375 13.4375 -6.484375 C 14.75 -6.484375 15.585938 -6.644531 15.953125 -6.96875 C 16.316406 -7.300781 16.5 -7.707031 16.5 -8.1875 L 16.5 -18 C 16.5 -18.457031 16.316406 -18.847656 15.953125 -19.171875 C 15.585938 -19.503906 14.75 -19.671875 13.4375 -19.671875 C 12.125 -19.671875 11.285156 -19.503906 10.921875 -19.171875 C 10.554688 -18.847656 10.375 -18.457031 10.375 -18 Z M 10.375 -8.1875 "/></g></g></g><g fill="#ffffff" fill-opacity="1"><g transform="translate(144.605517, 50.287489)"><g><path d="M 9.25 0 L 3.828125 0 C 3.359375 0 3.019531 -0.101562 2.8125 -0.3125 C 2.613281 -0.519531 2.515625 -0.851562 2.515625 -1.3125 L 2.515625 -24.90625 C 2.515625 -25.375 2.613281 -25.707031 2.8125 -25.90625 C 3.019531 -26.113281 3.359375 -26.21875 3.828125 -26.21875 L 9.6875 -26.21875 C 10.070312 -26.21875 10.390625 -26.132812 10.640625 -25.96875 C 10.898438 -25.800781 11.140625 -25.519531 11.359375 -25.125 L 14.640625 -19.1875 C 14.765625 -18.96875 14.867188 -18.8125 14.953125 -18.71875 C 15.035156 -18.625 15.148438 -18.578125 15.296875 -18.578125 L 15.625 -18.578125 C 15.769531 -18.578125 15.882812 -18.625 15.96875 -18.71875 C 16.050781 -18.8125 16.15625 -18.96875 16.28125 -19.1875 L 19.515625 -25.125 C 19.734375 -25.519531 19.96875 -25.800781 20.21875 -25.96875 C 20.476562 -26.132812 20.804688 -26.21875 21.203125 -26.21875 L 27.09375 -26.21875 C 27.5625 -26.21875 27.894531 -26.113281 28.09375 -25.90625 C 28.300781 -25.707031 28.40625 -25.375 28.40625 -24.90625 L 28.40625 -1.3125 C 28.40625 -0.851562 28.300781 -0.519531 28.09375 -0.3125 C 27.894531 -0.101562 27.5625 0 27.09375 0 L 21.484375 0 C 21.023438 0 20.691406 -0.101562 20.484375 -0.3125 C 20.273438 -0.519531 20.171875 -0.851562 20.171875 -1.3125 L 20.171875 -14.125 L 18.03125 -10.15625 C 17.8125 -9.75 17.550781 -9.453125 17.25 -9.265625 C 16.945312 -9.085938 16.5625 -9 16.09375 -9 L 14.640625 -9 C 14.179688 -9 13.796875 -9.085938 13.484375 -9.265625 C 13.179688 -9.453125 12.925781 -9.75 12.71875 -10.15625 L 10.5625 -14.125 L 10.5625 -1.3125 C 10.5625 -0.851562 10.457031 -0.519531 10.25 -0.3125 C 10.039062 -0.101562 9.707031 0 9.25 0 Z M 9.25 0 "/></g></g></g><g fill="#ffffff" fill-opacity="1"><g transform="translate(177.859522, 50.287489)"><g><path d="M 9.25 0 L 3.828125 0 C 3.359375 0 3.019531 -0.101562 2.8125 -0.3125 C 2.613281 -0.519531 2.515625 -0.851562 2.515625 -1.3125 L 2.515625 -24.90625 C 2.515625 -25.375 2.613281 -25.707031 2.8125 -25.90625 C 3.019531 -26.113281 3.359375 -26.21875 3.828125 -26.21875 L 9.6875 -26.21875 C 10.070312 -26.21875 10.390625 -26.132812 10.640625 -25.96875 C 10.898438 -25.800781 11.140625 -25.519531 11.359375 -25.125 L 14.640625 -19.1875 C 14.765625 -18.96875 14.867188 -18.8125 14.953125 -18.71875 C 15.035156 -18.625 15.148438 -18.578125 15.296875 -18.578125 L 15.625 -18.578125 C 15.769531 -18.578125 15.882812 -18.625 15.96875 -18.71875 C 16.050781 -18.8125 16.15625 -18.96875 16.28125 -19.1875 L 19.515625 -25.125 C 19.734375 -25.519531 19.96875 -25.800781 20.21875 -25.96875 C 20.476562 -26.132812 20.804688 -26.21875 21.203125 -26.21875 L 27.09375 -26.21875 C 27.5625 -26.21875 27.894531 -26.113281 28.09375 -25.90625 C 28.300781 -25.707031 28.40625 -25.375 28.40625 -24.90625 L 28.40625 -1.3125 C 28.40625 -0.851562 28.300781 -0.519531 28.09375 -0.3125 C 27.894531 -0.101562 27.5625 0 27.09375 0 L 21.484375 0 C 21.023438 0 20.691406 -0.101562 20.484375 -0.3125 C 20.273438 -0.519531 20.171875 -0.851562 20.171875 -1.3125 L 20.171875 -14.125 L 18.03125 -10.15625 C 17.8125 -9.75 17.550781 -9.453125 17.25 -9.265625 C 16.945312 -9.085938 16.5625 -9 16.09375 -9 L 14.640625 -9 C 14.179688 -9 13.796875 -9.085938 13.484375 -9.265625 C 13.179688 -9.453125 12.925781 -9.75 12.71875 -10.15625 L 10.5625 -14.125 L 10.5625 -1.3125 C 10.5625 -0.851562 10.457031 -0.519531 10.25 -0.3125 C 10.039062 -0.101562 9.707031 0 9.25 0 Z M 9.25 0 "/></g></g></g><g fill="#ffffff" fill-opacity="1"><g transform="translate(211.113526, 50.287489)"><g><path d="M 12.015625 -18.578125 L 10.3125 -13.03125 L 16.03125 -13.03125 L 14.3125 -18.578125 C 14.21875 -18.796875 14.113281 -18.953125 14 -19.046875 C 13.894531 -19.140625 13.769531 -19.1875 13.625 -19.1875 L 12.71875 -19.1875 C 12.570312 -19.1875 12.441406 -19.140625 12.328125 -19.046875 C 12.222656 -18.953125 12.117188 -18.796875 12.015625 -18.578125 Z M 9.9375 -1.3125 C 9.9375 -0.851562 9.832031 -0.519531 9.625 -0.3125 C 9.425781 -0.101562 9.09375 0 8.625 0 L 3.28125 0 C 2.820312 0 2.488281 -0.101562 2.28125 -0.3125 C 2.070312 -0.519531 1.96875 -0.851562 1.96875 -1.3125 L 1.96875 -10.921875 C 1.96875 -11.648438 2.082031 -12.488281 2.3125 -13.4375 C 2.539062 -14.382812 2.898438 -15.488281 3.390625 -16.75 L 6.5625 -25.015625 C 6.707031 -25.429688 6.929688 -25.734375 7.234375 -25.921875 C 7.535156 -26.117188 7.925781 -26.21875 8.40625 -26.21875 L 18.203125 -26.21875 C 18.671875 -26.21875 19.054688 -26.117188 19.359375 -25.921875 C 19.660156 -25.734375 19.882812 -25.429688 20.03125 -25.015625 L 23.203125 -16.75 C 23.679688 -15.488281 24.035156 -14.382812 24.265625 -13.4375 C 24.503906 -12.488281 24.625 -11.648438 24.625 -10.921875 L 24.625 -1.3125 C 24.625 -0.851562 24.519531 -0.519531 24.3125 -0.3125 C 24.101562 -0.101562 23.769531 0 23.3125 0 L 17.8125 0 C 17.320312 0 16.960938 -0.101562 16.734375 -0.3125 C 16.503906 -0.519531 16.390625 -0.851562 16.390625 -1.3125 L 16.390625 -6.40625 L 9.9375 -6.40625 Z M 9.9375 -1.3125 "/></g></g></g><g fill="#ffffff" fill-opacity="1"><g transform="translate(240.033327, 50.287489)"><g><path d="M 9.28125 0 L 3.828125 0 C 3.359375 0 3.019531 -0.101562 2.8125 -0.3125 C 2.613281 -0.519531 2.515625 -0.851562 2.515625 -1.3125 L 2.515625 -24.90625 C 2.515625 -25.375 2.613281 -25.707031 2.8125 -25.90625 C 3.019531 -26.113281 3.359375 -26.21875 3.828125 -26.21875 L 7.609375 -26.21875 C 8.066406 -26.21875 8.457031 -26.144531 8.78125 -26 C 9.113281 -25.851562 9.441406 -25.597656 9.765625 -25.234375 L 16.828125 -17.15625 L 16.828125 -24.90625 C 16.828125 -25.375 16.929688 -25.707031 17.140625 -25.90625 C 17.347656 -26.113281 17.679688 -26.21875 18.140625 -26.21875 L 23.59375 -26.21875 C 24.0625 -26.21875 24.394531 -26.113281 24.59375 -25.90625 C 24.800781 -25.707031 24.90625 -25.375 24.90625 -24.90625 L 24.90625 -1.3125 C 24.90625 -0.851562 24.800781 -0.519531 24.59375 -0.3125 C 24.394531 -0.101562 24.0625 0 23.59375 0 L 18.140625 0 C 17.679688 0 17.347656 -0.101562 17.140625 -0.3125 C 16.929688 -0.519531 16.828125 -0.851562 16.828125 -1.3125 L 16.828125 -5.796875 L 10.59375 -13.328125 L 10.59375 -1.3125 C 10.59375 -0.851562 10.488281 -0.519531 10.28125 -0.3125 C 10.082031 -0.101562 9.75 0 9.28125 0 Z M 9.28125 0 "/></g></g></g><g fill="#ffffff" fill-opacity="1"><g transform="translate(269.790824, 50.287489)"><g><path d="M 16.09375 0 L 3.828125 0 C 3.359375 0 3.019531 -0.101562 2.8125 -0.3125 C 2.613281 -0.519531 2.515625 -0.851562 2.515625 -1.3125 L 2.515625 -24.90625 C 2.515625 -25.375 2.613281 -25.707031 2.8125 -25.90625 C 3.019531 -26.113281 3.359375 -26.21875 3.828125 -26.21875 L 16.09375 -26.21875 C 19.132812 -26.21875 21.390625 -25.609375 22.859375 -24.390625 C 24.328125 -23.179688 25.0625 -21.316406 25.0625 -18.796875 L 25.0625 -7.4375 C 25.0625 -4.90625 24.328125 -3.03125 22.859375 -1.8125 C 21.390625 -0.601562 19.132812 0 16.09375 0 Z M 10.78125 -19.265625 L 10.78125 -6.890625 L 15.109375 -6.890625 C 15.691406 -6.890625 16.125 -7.035156 16.40625 -7.328125 C 16.6875 -7.617188 16.828125 -8.066406 16.828125 -8.671875 L 16.828125 -17.515625 C 16.828125 -18.117188 16.6875 -18.5625 16.40625 -18.84375 C 16.125 -19.125 15.691406 -19.265625 15.109375 -19.265625 Z M 10.78125 -19.265625 "/></g></g></g><g fill="#ffffff" fill-opacity="1"><g transform="translate(299.29337, 50.287489)"><g><path d="M 14.671875 0 L 3.171875 0 C 2.710938 0 2.378906 -0.101562 2.171875 -0.3125 C 1.960938 -0.519531 1.859375 -0.851562 1.859375 -1.3125 L 1.859375 -5.578125 C 1.859375 -6.035156 1.960938 -6.367188 2.171875 -6.578125 C 2.378906 -6.785156 2.710938 -6.890625 3.171875 -6.890625 L 12.96875 -6.890625 C 13.28125 -6.890625 13.515625 -6.988281 13.671875 -7.1875 C 13.828125 -7.394531 13.90625 -7.644531 13.90625 -7.9375 C 13.90625 -8.351562 13.828125 -8.65625 13.671875 -8.84375 C 13.515625 -9.039062 13.28125 -9.148438 12.96875 -9.171875 L 7.5 -9.9375 C 5.800781 -10.1875 4.4375 -10.75 3.40625 -11.625 C 2.375 -12.5 1.859375 -13.953125 1.859375 -15.984375 L 1.859375 -19.8125 C 1.859375 -21.875 2.523438 -23.457031 3.859375 -24.5625 C 5.191406 -25.664062 7.035156 -26.21875 9.390625 -26.21875 L 19.59375 -26.21875 C 20.050781 -26.21875 20.382812 -26.113281 20.59375 -25.90625 C 20.800781 -25.707031 20.90625 -25.375 20.90625 -24.90625 L 20.90625 -20.578125 C 20.90625 -20.117188 20.800781 -19.785156 20.59375 -19.578125 C 20.382812 -19.367188 20.050781 -19.265625 19.59375 -19.265625 L 11.109375 -19.265625 C 10.796875 -19.265625 10.550781 -19.160156 10.375 -18.953125 C 10.207031 -18.742188 10.125 -18.484375 10.125 -18.171875 C 10.125 -17.859375 10.207031 -17.59375 10.375 -17.375 C 10.550781 -17.15625 10.796875 -17.035156 11.109375 -17.015625 L 16.53125 -16.28125 C 18.226562 -16.039062 19.597656 -15.484375 20.640625 -14.609375 C 21.691406 -13.734375 22.21875 -12.273438 22.21875 -10.234375 L 22.21875 -6.40625 C 22.21875 -4.34375 21.539062 -2.757812 20.1875 -1.65625 C 18.84375 -0.550781 17.003906 0 14.671875 0 Z M 14.671875 0 "/></g></g></g></svg>