<svg xmlns="http://www.w3.org/2000/svg" xmlns:xlink="http://www.w3.org/1999/xlink" width="260" zoomAndPan="magnify" viewBox="0 0 194.87999 65.249999" height="87" preserveAspectRatio="xMidYMid meet" version="1.0"><defs><g/><clipPath id="94c05a2d14"><path d="M 2.453125 12.4375 L 192.628906 12.4375 L 192.628906 52.070312 L 2.453125 52.070312 Z M 2.453125 12.4375 " clip-rule="nonzero"/></clipPath><clipPath id="efa141a63c"><path d="M 9.867188 12.4375 L 185.214844 12.4375 C 187.179688 12.4375 189.066406 13.21875 190.457031 14.609375 C 191.847656 16 192.628906 17.886719 192.628906 19.855469 L 192.628906 44.65625 C 192.628906 46.621094 191.847656 48.507812 190.457031 49.898438 C 189.066406 51.289062 187.179688 52.070312 185.214844 52.070312 L 9.867188 52.070312 C 7.902344 52.070312 6.015625 51.289062 4.625 49.898438 C 3.234375 48.507812 2.453125 46.621094 2.453125 44.65625 L 2.453125 19.855469 C 2.453125 17.886719 3.234375 16 4.625 14.609375 C 6.015625 13.21875 7.902344 12.4375 9.867188 12.4375 Z M 9.867188 12.4375 " clip-rule="nonzero"/></clipPath><clipPath id="fe945498e3"><path d="M 10.875 22.242188 L 36.566406 22.242188 L 36.566406 42.519531 L 10.875 42.519531 Z M 10.875 22.242188 " clip-rule="nonzero"/></clipPath><clipPath id="997f93b6c5"><path d="M 10.191406 22.316406 L 36.882812 22.316406 L 36.882812 42.335938 L 10.191406 42.335938 Z M 10.191406 22.316406 " clip-rule="nonzero"/></clipPath></defs><g clip-path="url(#94c05a2d14)"><g clip-path="url(#efa141a63c)"><path fill="#5ce1e6" d="M 2.453125 12.4375 L 192.628906 12.4375 L 192.628906 52.070312 L 2.453125 52.070312 Z M 2.453125 12.4375 " fill-opacity="1" fill-rule="nonzero"/></g></g><g clip-path="url(#fe945498e3)"><path fill="#40bfbc" d="M 10.875 22.242188 L 36.566406 22.242188 L 36.566406 42.519531 L 10.875 42.519531 Z M 10.875 22.242188 " fill-opacity="1" fill-rule="nonzero"/></g><g clip-path="url(#997f93b6c5)"><path fill="#287777" d="M 36.152344 22.316406 L 10.945312 22.316406 C 10.558594 22.316406 10.242188 22.636719 10.242188 23.03125 L 10.242188 41.621094 C 10.242188 42.015625 10.558594 42.335938 10.945312 42.335938 L 36.152344 42.335938 C 36.535156 42.335938 36.851562 42.015625 36.851562 41.621094 L 36.851562 23.03125 C 36.851562 22.636719 36.535156 22.316406 36.152344 22.316406 M 11.644531 23.746094 L 35.449219 23.746094 L 35.449219 26.605469 L 11.644531 26.605469 Z M 35.449219 40.90625 L 11.644531 40.90625 L 11.644531 28.035156 L 35.449219 28.035156 Z M 35.449219 40.90625 " fill-opacity="1" fill-rule="evenodd"/></g><path fill="#287777" d="M 13.058594 25.890625 C 12.671875 25.890625 12.355469 25.570312 12.355469 25.175781 C 12.355469 24.78125 12.664062 24.460938 13.050781 24.460938 L 13.058594 24.460938 C 13.445312 24.460938 13.757812 24.78125 13.757812 25.175781 C 13.757812 25.570312 13.445312 25.890625 13.058594 25.890625 " fill-opacity="1" fill-rule="evenodd"/><path fill="#287777" d="M 15.160156 25.890625 C 14.773438 25.890625 14.457031 25.570312 14.457031 25.175781 C 14.457031 24.78125 14.765625 24.460938 15.152344 24.460938 L 15.160156 24.460938 C 15.546875 24.460938 15.859375 24.78125 15.859375 25.175781 C 15.859375 25.570312 15.546875 25.890625 15.160156 25.890625 " fill-opacity="1" fill-rule="evenodd"/><path fill="#287777" d="M 17.257812 25.890625 C 16.875 25.890625 16.554688 25.570312 16.554688 25.175781 C 16.554688 24.78125 16.867188 24.460938 17.253906 24.460938 L 17.257812 24.460938 C 17.644531 24.460938 17.960938 24.78125 17.960938 25.175781 C 17.960938 25.570312 17.644531 25.890625 17.257812 25.890625 " fill-opacity="1" fill-rule="evenodd"/><path fill="#287777" d="M 17.246094 37.332031 C 17.035156 37.332031 16.824219 37.230469 16.683594 37.042969 C 16.453125 36.730469 16.515625 36.28125 16.824219 36.042969 L 18.878906 34.472656 L 16.824219 32.898438 C 16.515625 32.660156 16.453125 32.214844 16.683594 31.898438 C 16.917969 31.582031 17.355469 31.519531 17.664062 31.753906 L 20.464844 33.898438 C 20.644531 34.035156 20.746094 34.246094 20.746094 34.472656 C 20.746094 34.695312 20.644531 34.90625 20.464844 35.042969 L 17.664062 37.1875 C 17.539062 37.285156 17.390625 37.332031 17.246094 37.332031 " fill-opacity="1" fill-rule="evenodd"/><path fill="#287777" d="M 22.847656 37.332031 L 21.445312 37.332031 C 21.058594 37.332031 20.746094 37.011719 20.746094 36.617188 C 20.746094 36.21875 21.058594 35.902344 21.445312 35.902344 L 22.847656 35.902344 C 23.234375 35.902344 23.546875 36.21875 23.546875 36.617188 C 23.546875 37.011719 23.234375 37.332031 22.847656 37.332031 " fill-opacity="1" fill-rule="evenodd"/><path fill="#287777" d="M 29.847656 37.332031 L 28.449219 37.332031 C 28.0625 37.332031 27.75 37.011719 27.75 36.617188 C 27.75 36.21875 28.0625 35.902344 28.449219 35.902344 L 29.847656 35.902344 C 30.234375 35.902344 30.550781 36.21875 30.550781 36.617188 C 30.550781 37.011719 30.234375 37.332031 29.847656 37.332031 " fill-opacity="1" fill-rule="evenodd"/><path fill="#287777" d="M 26.347656 37.332031 L 24.949219 37.332031 C 24.5625 37.332031 24.246094 37.011719 24.246094 36.617188 C 24.246094 36.21875 24.5625 35.902344 24.949219 35.902344 L 26.347656 35.902344 C 26.734375 35.902344 27.046875 36.21875 27.046875 36.617188 C 27.046875 37.011719 26.734375 37.332031 26.347656 37.332031 " fill-opacity="1" fill-rule="evenodd"/><g fill="#0d4244" fill-opacity="0.302"><g transform="translate(60.324044, 36.946749)"><g><path d="M 6.34375 0 L 3.515625 0 C 2.546875 0 1.828125 -0.191406 1.359375 -0.578125 C 0.898438 -0.960938 0.671875 -1.554688 0.671875 -2.359375 L 0.671875 -5.953125 C 0.671875 -6.753906 0.898438 -7.347656 1.359375 -7.734375 C 1.828125 -8.128906 2.546875 -8.328125 3.515625 -8.328125 L 6.34375 -8.328125 C 6.488281 -8.328125 6.59375 -8.289062 6.65625 -8.21875 C 6.71875 -8.15625 6.75 -8.050781 6.75 -7.90625 L 6.75 -6.515625 C 6.75 -6.367188 6.71875 -6.257812 6.65625 -6.1875 C 6.59375 -6.125 6.488281 -6.09375 6.34375 -6.09375 L 4.015625 -6.09375 C 3.773438 -6.09375 3.597656 -6.039062 3.484375 -5.9375 C 3.367188 -5.84375 3.3125 -5.703125 3.3125 -5.515625 L 3.3125 -2.765625 C 3.3125 -2.566406 3.367188 -2.421875 3.484375 -2.328125 C 3.597656 -2.242188 3.773438 -2.203125 4.015625 -2.203125 L 6.34375 -2.203125 C 6.488281 -2.203125 6.59375 -2.171875 6.65625 -2.109375 C 6.71875 -2.046875 6.75 -1.941406 6.75 -1.796875 L 6.75 -0.421875 C 6.75 -0.273438 6.71875 -0.164062 6.65625 -0.09375 C 6.59375 -0.03125 6.488281 0 6.34375 0 Z M 6.34375 0 "/></g></g></g><g fill="#0d4244" fill-opacity="0.302"><g transform="translate(68.329774, 36.946749)"><g><path d="M 7.84375 -2.1875 C 7.84375 -1.832031 7.789062 -1.507812 7.6875 -1.21875 C 7.582031 -0.925781 7.394531 -0.675781 7.125 -0.46875 C 6.863281 -0.269531 6.5 -0.113281 6.03125 0 C 5.570312 0.113281 4.984375 0.171875 4.265625 0.171875 C 3.546875 0.171875 2.953125 0.113281 2.484375 0 C 2.015625 -0.113281 1.644531 -0.269531 1.375 -0.46875 C 1.113281 -0.675781 0.929688 -0.925781 0.828125 -1.21875 C 0.722656 -1.507812 0.671875 -1.832031 0.671875 -2.1875 L 0.671875 -6.125 C 0.671875 -6.476562 0.722656 -6.800781 0.828125 -7.09375 C 0.929688 -7.382812 1.113281 -7.632812 1.375 -7.84375 C 1.644531 -8.050781 2.015625 -8.210938 2.484375 -8.328125 C 2.953125 -8.441406 3.546875 -8.5 4.265625 -8.5 C 4.984375 -8.5 5.570312 -8.441406 6.03125 -8.328125 C 6.5 -8.210938 6.863281 -8.050781 7.125 -7.84375 C 7.394531 -7.632812 7.582031 -7.382812 7.6875 -7.09375 C 7.789062 -6.800781 7.84375 -6.476562 7.84375 -6.125 Z M 3.296875 -2.609375 C 3.296875 -2.453125 3.351562 -2.320312 3.46875 -2.21875 C 3.582031 -2.113281 3.847656 -2.0625 4.265625 -2.0625 C 4.679688 -2.0625 4.945312 -2.113281 5.0625 -2.21875 C 5.175781 -2.320312 5.234375 -2.453125 5.234375 -2.609375 L 5.234375 -5.71875 C 5.234375 -5.863281 5.175781 -5.988281 5.0625 -6.09375 C 4.945312 -6.195312 4.679688 -6.25 4.265625 -6.25 C 3.847656 -6.25 3.582031 -6.195312 3.46875 -6.09375 C 3.351562 -5.988281 3.296875 -5.863281 3.296875 -5.71875 Z M 3.296875 -2.609375 "/></g></g></g><g fill="#0d4244" fill-opacity="0.302"><g transform="translate(77.596517, 36.946749)"><g><path d="M 2.9375 0 L 1.21875 0 C 1.070312 0 0.960938 -0.03125 0.890625 -0.09375 C 0.828125 -0.164062 0.796875 -0.273438 0.796875 -0.421875 L 0.796875 -7.90625 C 0.796875 -8.050781 0.828125 -8.15625 0.890625 -8.21875 C 0.960938 -8.289062 1.070312 -8.328125 1.21875 -8.328125 L 3.078125 -8.328125 C 3.203125 -8.328125 3.300781 -8.296875 3.375 -8.234375 C 3.457031 -8.179688 3.535156 -8.097656 3.609375 -7.984375 L 4.640625 -6.09375 C 4.679688 -6.019531 4.710938 -5.96875 4.734375 -5.9375 C 4.765625 -5.90625 4.804688 -5.890625 4.859375 -5.890625 L 4.953125 -5.890625 C 5.003906 -5.890625 5.039062 -5.90625 5.0625 -5.9375 C 5.09375 -5.96875 5.128906 -6.019531 5.171875 -6.09375 L 6.203125 -7.984375 C 6.265625 -8.097656 6.335938 -8.179688 6.421875 -8.234375 C 6.503906 -8.296875 6.609375 -8.328125 6.734375 -8.328125 L 8.609375 -8.328125 C 8.753906 -8.328125 8.859375 -8.289062 8.921875 -8.21875 C 8.984375 -8.15625 9.015625 -8.050781 9.015625 -7.90625 L 9.015625 -0.421875 C 9.015625 -0.273438 8.984375 -0.164062 8.921875 -0.09375 C 8.859375 -0.03125 8.753906 0 8.609375 0 L 6.828125 0 C 6.679688 0 6.570312 -0.03125 6.5 -0.09375 C 6.4375 -0.164062 6.40625 -0.273438 6.40625 -0.421875 L 6.40625 -4.484375 L 5.71875 -3.21875 C 5.65625 -3.09375 5.570312 -3 5.46875 -2.9375 C 5.375 -2.882812 5.253906 -2.859375 5.109375 -2.859375 L 4.640625 -2.859375 C 4.492188 -2.859375 4.375 -2.882812 4.28125 -2.9375 C 4.1875 -3 4.101562 -3.09375 4.03125 -3.21875 L 3.359375 -4.484375 L 3.359375 -0.421875 C 3.359375 -0.273438 3.320312 -0.164062 3.25 -0.09375 C 3.1875 -0.03125 3.082031 0 2.9375 0 Z M 2.9375 0 "/></g></g></g><g fill="#0d4244" fill-opacity="0.302"><g transform="translate(88.158983, 36.946749)"><g><path d="M 2.9375 0 L 1.21875 0 C 1.070312 0 0.960938 -0.03125 0.890625 -0.09375 C 0.828125 -0.164062 0.796875 -0.273438 0.796875 -0.421875 L 0.796875 -7.90625 C 0.796875 -8.050781 0.828125 -8.15625 0.890625 -8.21875 C 0.960938 -8.289062 1.070312 -8.328125 1.21875 -8.328125 L 3.078125 -8.328125 C 3.203125 -8.328125 3.300781 -8.296875 3.375 -8.234375 C 3.457031 -8.179688 3.535156 -8.097656 3.609375 -7.984375 L 4.640625 -6.09375 C 4.679688 -6.019531 4.710938 -5.96875 4.734375 -5.9375 C 4.765625 -5.90625 4.804688 -5.890625 4.859375 -5.890625 L 4.953125 -5.890625 C 5.003906 -5.890625 5.039062 -5.90625 5.0625 -5.9375 C 5.09375 -5.96875 5.128906 -6.019531 5.171875 -6.09375 L 6.203125 -7.984375 C 6.265625 -8.097656 6.335938 -8.179688 6.421875 -8.234375 C 6.503906 -8.296875 6.609375 -8.328125 6.734375 -8.328125 L 8.609375 -8.328125 C 8.753906 -8.328125 8.859375 -8.289062 8.921875 -8.21875 C 8.984375 -8.15625 9.015625 -8.050781 9.015625 -7.90625 L 9.015625 -0.421875 C 9.015625 -0.273438 8.984375 -0.164062 8.921875 -0.09375 C 8.859375 -0.03125 8.753906 0 8.609375 0 L 6.828125 0 C 6.679688 0 6.570312 -0.03125 6.5 -0.09375 C 6.4375 -0.164062 6.40625 -0.273438 6.40625 -0.421875 L 6.40625 -4.484375 L 5.71875 -3.21875 C 5.65625 -3.09375 5.570312 -3 5.46875 -2.9375 C 5.375 -2.882812 5.253906 -2.859375 5.109375 -2.859375 L 4.640625 -2.859375 C 4.492188 -2.859375 4.375 -2.882812 4.28125 -2.9375 C 4.1875 -3 4.101562 -3.09375 4.03125 -3.21875 L 3.359375 -4.484375 L 3.359375 -0.421875 C 3.359375 -0.273438 3.320312 -0.164062 3.25 -0.09375 C 3.1875 -0.03125 3.082031 0 2.9375 0 Z M 2.9375 0 "/></g></g></g><g fill="#0d4244" fill-opacity="0.302"><g transform="translate(98.721447, 36.946749)"><g><path d="M 3.8125 -5.890625 L 3.265625 -4.140625 L 5.09375 -4.140625 L 4.546875 -5.890625 C 4.515625 -5.960938 4.476562 -6.015625 4.4375 -6.046875 C 4.40625 -6.078125 4.367188 -6.09375 4.328125 -6.09375 L 4.03125 -6.09375 C 3.988281 -6.09375 3.945312 -6.078125 3.90625 -6.046875 C 3.875 -6.015625 3.84375 -5.960938 3.8125 -5.890625 Z M 3.15625 -0.421875 C 3.15625 -0.273438 3.117188 -0.164062 3.046875 -0.09375 C 2.984375 -0.03125 2.878906 0 2.734375 0 L 1.046875 0 C 0.898438 0 0.789062 -0.03125 0.71875 -0.09375 C 0.65625 -0.164062 0.625 -0.273438 0.625 -0.421875 L 0.625 -3.46875 C 0.625 -3.695312 0.660156 -3.960938 0.734375 -4.265625 C 0.804688 -4.566406 0.921875 -4.914062 1.078125 -5.3125 L 2.078125 -7.9375 C 2.128906 -8.070312 2.203125 -8.171875 2.296875 -8.234375 C 2.390625 -8.296875 2.515625 -8.328125 2.671875 -8.328125 L 5.78125 -8.328125 C 5.925781 -8.328125 6.046875 -8.296875 6.140625 -8.234375 C 6.242188 -8.171875 6.316406 -8.070312 6.359375 -7.9375 L 7.359375 -5.3125 C 7.515625 -4.914062 7.628906 -4.566406 7.703125 -4.265625 C 7.773438 -3.960938 7.8125 -3.695312 7.8125 -3.46875 L 7.8125 -0.421875 C 7.8125 -0.273438 7.78125 -0.164062 7.71875 -0.09375 C 7.65625 -0.03125 7.550781 0 7.40625 0 L 5.65625 0 C 5.5 0 5.382812 -0.03125 5.3125 -0.09375 C 5.238281 -0.164062 5.203125 -0.273438 5.203125 -0.421875 L 5.203125 -2.03125 L 3.15625 -2.03125 Z M 3.15625 -0.421875 "/></g></g></g><g fill="#0d4244" fill-opacity="0.302"><g transform="translate(107.90721, 36.946749)"><g><path d="M 2.953125 0 L 1.21875 0 C 1.070312 0 0.960938 -0.03125 0.890625 -0.09375 C 0.828125 -0.164062 0.796875 -0.273438 0.796875 -0.421875 L 0.796875 -7.90625 C 0.796875 -8.050781 0.828125 -8.15625 0.890625 -8.21875 C 0.960938 -8.289062 1.070312 -8.328125 1.21875 -8.328125 L 2.421875 -8.328125 C 2.566406 -8.328125 2.691406 -8.300781 2.796875 -8.25 C 2.898438 -8.207031 3 -8.128906 3.09375 -8.015625 L 5.34375 -5.453125 L 5.34375 -7.90625 C 5.34375 -8.050781 5.375 -8.15625 5.4375 -8.21875 C 5.5 -8.289062 5.609375 -8.328125 5.765625 -8.328125 L 7.5 -8.328125 C 7.644531 -8.328125 7.75 -8.289062 7.8125 -8.21875 C 7.875 -8.15625 7.90625 -8.050781 7.90625 -7.90625 L 7.90625 -0.421875 C 7.90625 -0.273438 7.875 -0.164062 7.8125 -0.09375 C 7.75 -0.03125 7.644531 0 7.5 0 L 5.765625 0 C 5.609375 0 5.5 -0.03125 5.4375 -0.09375 C 5.375 -0.164062 5.34375 -0.273438 5.34375 -0.421875 L 5.34375 -1.84375 L 3.359375 -4.234375 L 3.359375 -0.421875 C 3.359375 -0.273438 3.328125 -0.164062 3.265625 -0.09375 C 3.203125 -0.03125 3.097656 0 2.953125 0 Z M 2.953125 0 "/></g></g></g><g fill="#0d4244" fill-opacity="0.302"><g transform="translate(117.359056, 36.946749)"><g><path d="M 5.109375 0 L 1.21875 0 C 1.070312 0 0.960938 -0.03125 0.890625 -0.09375 C 0.828125 -0.164062 0.796875 -0.273438 0.796875 -0.421875 L 0.796875 -7.90625 C 0.796875 -8.050781 0.828125 -8.15625 0.890625 -8.21875 C 0.960938 -8.289062 1.070312 -8.328125 1.21875 -8.328125 L 5.109375 -8.328125 C 6.078125 -8.328125 6.789062 -8.132812 7.25 -7.75 C 7.71875 -7.363281 7.953125 -6.769531 7.953125 -5.96875 L 7.953125 -2.359375 C 7.953125 -1.554688 7.71875 -0.960938 7.25 -0.578125 C 6.789062 -0.191406 6.078125 0 5.109375 0 Z M 3.421875 -6.109375 L 3.421875 -2.1875 L 4.796875 -2.1875 C 4.984375 -2.1875 5.117188 -2.234375 5.203125 -2.328125 C 5.296875 -2.421875 5.34375 -2.5625 5.34375 -2.75 L 5.34375 -5.5625 C 5.34375 -5.75 5.296875 -5.882812 5.203125 -5.96875 C 5.117188 -6.0625 4.984375 -6.109375 4.796875 -6.109375 Z M 3.421875 -6.109375 "/></g></g></g><g fill="#0d4244" fill-opacity="0.302"><g transform="translate(126.729921, 36.946749)"><g><path d="M 4.65625 0 L 1 0 C 0.851562 0 0.75 -0.03125 0.6875 -0.09375 C 0.625 -0.164062 0.59375 -0.273438 0.59375 -0.421875 L 0.59375 -1.765625 C 0.59375 -1.910156 0.625 -2.015625 0.6875 -2.078125 C 0.75 -2.148438 0.851562 -2.1875 1 -2.1875 L 4.109375 -2.1875 C 4.210938 -2.1875 4.289062 -2.21875 4.34375 -2.28125 C 4.394531 -2.34375 4.421875 -2.421875 4.421875 -2.515625 C 4.421875 -2.648438 4.394531 -2.75 4.34375 -2.8125 C 4.289062 -2.875 4.210938 -2.90625 4.109375 -2.90625 L 2.375 -3.15625 C 1.84375 -3.226562 1.410156 -3.40625 1.078125 -3.6875 C 0.753906 -3.96875 0.59375 -4.429688 0.59375 -5.078125 L 0.59375 -6.296875 C 0.59375 -6.941406 0.800781 -7.441406 1.21875 -7.796875 C 1.644531 -8.148438 2.234375 -8.328125 2.984375 -8.328125 L 6.21875 -8.328125 C 6.363281 -8.328125 6.46875 -8.289062 6.53125 -8.21875 C 6.601562 -8.15625 6.640625 -8.050781 6.640625 -7.90625 L 6.640625 -6.53125 C 6.640625 -6.382812 6.601562 -6.273438 6.53125 -6.203125 C 6.46875 -6.140625 6.363281 -6.109375 6.21875 -6.109375 L 3.53125 -6.109375 C 3.425781 -6.109375 3.347656 -6.078125 3.296875 -6.015625 C 3.242188 -5.953125 3.21875 -5.867188 3.21875 -5.765625 C 3.21875 -5.671875 3.242188 -5.585938 3.296875 -5.515625 C 3.347656 -5.441406 3.425781 -5.40625 3.53125 -5.40625 L 5.25 -5.171875 C 5.789062 -5.085938 6.222656 -4.90625 6.546875 -4.625 C 6.878906 -4.351562 7.046875 -3.894531 7.046875 -3.25 L 7.046875 -2.03125 C 7.046875 -1.375 6.832031 -0.867188 6.40625 -0.515625 C 5.976562 -0.171875 5.394531 0 4.65625 0 Z M 4.65625 0 "/></g></g></g><g fill="#0d4244" fill-opacity="0.502"><g transform="translate(59.812748, 36.43545)"><g><path d="M 6.34375 0 L 3.515625 0 C 2.546875 0 1.828125 -0.191406 1.359375 -0.578125 C 0.898438 -0.960938 0.671875 -1.554688 0.671875 -2.359375 L 0.671875 -5.953125 C 0.671875 -6.753906 0.898438 -7.347656 1.359375 -7.734375 C 1.828125 -8.128906 2.546875 -8.328125 3.515625 -8.328125 L 6.34375 -8.328125 C 6.488281 -8.328125 6.59375 -8.289062 6.65625 -8.21875 C 6.71875 -8.15625 6.75 -8.050781 6.75 -7.90625 L 6.75 -6.515625 C 6.75 -6.367188 6.71875 -6.257812 6.65625 -6.1875 C 6.59375 -6.125 6.488281 -6.09375 6.34375 -6.09375 L 4.015625 -6.09375 C 3.773438 -6.09375 3.597656 -6.039062 3.484375 -5.9375 C 3.367188 -5.84375 3.3125 -5.703125 3.3125 -5.515625 L 3.3125 -2.765625 C 3.3125 -2.566406 3.367188 -2.421875 3.484375 -2.328125 C 3.597656 -2.242188 3.773438 -2.203125 4.015625 -2.203125 L 6.34375 -2.203125 C 6.488281 -2.203125 6.59375 -2.171875 6.65625 -2.109375 C 6.71875 -2.046875 6.75 -1.941406 6.75 -1.796875 L 6.75 -0.421875 C 6.75 -0.273438 6.71875 -0.164062 6.65625 -0.09375 C 6.59375 -0.03125 6.488281 0 6.34375 0 Z M 6.34375 0 "/></g></g></g><g fill="#0d4244" fill-opacity="0.502"><g transform="translate(67.818477, 36.43545)"><g><path d="M 7.84375 -2.1875 C 7.84375 -1.832031 7.789062 -1.507812 7.6875 -1.21875 C 7.582031 -0.925781 7.394531 -0.675781 7.125 -0.46875 C 6.863281 -0.269531 6.5 -0.113281 6.03125 0 C 5.570312 0.113281 4.984375 0.171875 4.265625 0.171875 C 3.546875 0.171875 2.953125 0.113281 2.484375 0 C 2.015625 -0.113281 1.644531 -0.269531 1.375 -0.46875 C 1.113281 -0.675781 0.929688 -0.925781 0.828125 -1.21875 C 0.722656 -1.507812 0.671875 -1.832031 0.671875 -2.1875 L 0.671875 -6.125 C 0.671875 -6.476562 0.722656 -6.800781 0.828125 -7.09375 C 0.929688 -7.382812 1.113281 -7.632812 1.375 -7.84375 C 1.644531 -8.050781 2.015625 -8.210938 2.484375 -8.328125 C 2.953125 -8.441406 3.546875 -8.5 4.265625 -8.5 C 4.984375 -8.5 5.570312 -8.441406 6.03125 -8.328125 C 6.5 -8.210938 6.863281 -8.050781 7.125 -7.84375 C 7.394531 -7.632812 7.582031 -7.382812 7.6875 -7.09375 C 7.789062 -6.800781 7.84375 -6.476562 7.84375 -6.125 Z M 3.296875 -2.609375 C 3.296875 -2.453125 3.351562 -2.320312 3.46875 -2.21875 C 3.582031 -2.113281 3.847656 -2.0625 4.265625 -2.0625 C 4.679688 -2.0625 4.945312 -2.113281 5.0625 -2.21875 C 5.175781 -2.320312 5.234375 -2.453125 5.234375 -2.609375 L 5.234375 -5.71875 C 5.234375 -5.863281 5.175781 -5.988281 5.0625 -6.09375 C 4.945312 -6.195312 4.679688 -6.25 4.265625 -6.25 C 3.847656 -6.25 3.582031 -6.195312 3.46875 -6.09375 C 3.351562 -5.988281 3.296875 -5.863281 3.296875 -5.71875 Z M 3.296875 -2.609375 "/></g></g></g><g fill="#0d4244" fill-opacity="0.502"><g transform="translate(77.08522, 36.43545)"><g><path d="M 2.9375 0 L 1.21875 0 C 1.070312 0 0.960938 -0.03125 0.890625 -0.09375 C 0.828125 -0.164062 0.796875 -0.273438 0.796875 -0.421875 L 0.796875 -7.90625 C 0.796875 -8.050781 0.828125 -8.15625 0.890625 -8.21875 C 0.960938 -8.289062 1.070312 -8.328125 1.21875 -8.328125 L 3.078125 -8.328125 C 3.203125 -8.328125 3.300781 -8.296875 3.375 -8.234375 C 3.457031 -8.179688 3.535156 -8.097656 3.609375 -7.984375 L 4.640625 -6.09375 C 4.679688 -6.019531 4.710938 -5.96875 4.734375 -5.9375 C 4.765625 -5.90625 4.804688 -5.890625 4.859375 -5.890625 L 4.953125 -5.890625 C 5.003906 -5.890625 5.039062 -5.90625 5.0625 -5.9375 C 5.09375 -5.96875 5.128906 -6.019531 5.171875 -6.09375 L 6.203125 -7.984375 C 6.265625 -8.097656 6.335938 -8.179688 6.421875 -8.234375 C 6.503906 -8.296875 6.609375 -8.328125 6.734375 -8.328125 L 8.609375 -8.328125 C 8.753906 -8.328125 8.859375 -8.289062 8.921875 -8.21875 C 8.984375 -8.15625 9.015625 -8.050781 9.015625 -7.90625 L 9.015625 -0.421875 C 9.015625 -0.273438 8.984375 -0.164062 8.921875 -0.09375 C 8.859375 -0.03125 8.753906 0 8.609375 0 L 6.828125 0 C 6.679688 0 6.570312 -0.03125 6.5 -0.09375 C 6.4375 -0.164062 6.40625 -0.273438 6.40625 -0.421875 L 6.40625 -4.484375 L 5.71875 -3.21875 C 5.65625 -3.09375 5.570312 -3 5.46875 -2.9375 C 5.375 -2.882812 5.253906 -2.859375 5.109375 -2.859375 L 4.640625 -2.859375 C 4.492188 -2.859375 4.375 -2.882812 4.28125 -2.9375 C 4.1875 -3 4.101562 -3.09375 4.03125 -3.21875 L 3.359375 -4.484375 L 3.359375 -0.421875 C 3.359375 -0.273438 3.320312 -0.164062 3.25 -0.09375 C 3.1875 -0.03125 3.082031 0 2.9375 0 Z M 2.9375 0 "/></g></g></g><g fill="#0d4244" fill-opacity="0.502"><g transform="translate(87.647687, 36.43545)"><g><path d="M 2.9375 0 L 1.21875 0 C 1.070312 0 0.960938 -0.03125 0.890625 -0.09375 C 0.828125 -0.164062 0.796875 -0.273438 0.796875 -0.421875 L 0.796875 -7.90625 C 0.796875 -8.050781 0.828125 -8.15625 0.890625 -8.21875 C 0.960938 -8.289062 1.070312 -8.328125 1.21875 -8.328125 L 3.078125 -8.328125 C 3.203125 -8.328125 3.300781 -8.296875 3.375 -8.234375 C 3.457031 -8.179688 3.535156 -8.097656 3.609375 -7.984375 L 4.640625 -6.09375 C 4.679688 -6.019531 4.710938 -5.96875 4.734375 -5.9375 C 4.765625 -5.90625 4.804688 -5.890625 4.859375 -5.890625 L 4.953125 -5.890625 C 5.003906 -5.890625 5.039062 -5.90625 5.0625 -5.9375 C 5.09375 -5.96875 5.128906 -6.019531 5.171875 -6.09375 L 6.203125 -7.984375 C 6.265625 -8.097656 6.335938 -8.179688 6.421875 -8.234375 C 6.503906 -8.296875 6.609375 -8.328125 6.734375 -8.328125 L 8.609375 -8.328125 C 8.753906 -8.328125 8.859375 -8.289062 8.921875 -8.21875 C 8.984375 -8.15625 9.015625 -8.050781 9.015625 -7.90625 L 9.015625 -0.421875 C 9.015625 -0.273438 8.984375 -0.164062 8.921875 -0.09375 C 8.859375 -0.03125 8.753906 0 8.609375 0 L 6.828125 0 C 6.679688 0 6.570312 -0.03125 6.5 -0.09375 C 6.4375 -0.164062 6.40625 -0.273438 6.40625 -0.421875 L 6.40625 -4.484375 L 5.71875 -3.21875 C 5.65625 -3.09375 5.570312 -3 5.46875 -2.9375 C 5.375 -2.882812 5.253906 -2.859375 5.109375 -2.859375 L 4.640625 -2.859375 C 4.492188 -2.859375 4.375 -2.882812 4.28125 -2.9375 C 4.1875 -3 4.101562 -3.09375 4.03125 -3.21875 L 3.359375 -4.484375 L 3.359375 -0.421875 C 3.359375 -0.273438 3.320312 -0.164062 3.25 -0.09375 C 3.1875 -0.03125 3.082031 0 2.9375 0 Z M 2.9375 0 "/></g></g></g><g fill="#0d4244" fill-opacity="0.502"><g transform="translate(98.21015, 36.43545)"><g><path d="M 3.8125 -5.890625 L 3.265625 -4.140625 L 5.09375 -4.140625 L 4.546875 -5.890625 C 4.515625 -5.960938 4.476562 -6.015625 4.4375 -6.046875 C 4.40625 -6.078125 4.367188 -6.09375 4.328125 -6.09375 L 4.03125 -6.09375 C 3.988281 -6.09375 3.945312 -6.078125 3.90625 -6.046875 C 3.875 -6.015625 3.84375 -5.960938 3.8125 -5.890625 Z M 3.15625 -0.421875 C 3.15625 -0.273438 3.117188 -0.164062 3.046875 -0.09375 C 2.984375 -0.03125 2.878906 0 2.734375 0 L 1.046875 0 C 0.898438 0 0.789062 -0.03125 0.71875 -0.09375 C 0.65625 -0.164062 0.625 -0.273438 0.625 -0.421875 L 0.625 -3.46875 C 0.625 -3.695312 0.660156 -3.960938 0.734375 -4.265625 C 0.804688 -4.566406 0.921875 -4.914062 1.078125 -5.3125 L 2.078125 -7.9375 C 2.128906 -8.070312 2.203125 -8.171875 2.296875 -8.234375 C 2.390625 -8.296875 2.515625 -8.328125 2.671875 -8.328125 L 5.78125 -8.328125 C 5.925781 -8.328125 6.046875 -8.296875 6.140625 -8.234375 C 6.242188 -8.171875 6.316406 -8.070312 6.359375 -7.9375 L 7.359375 -5.3125 C 7.515625 -4.914062 7.628906 -4.566406 7.703125 -4.265625 C 7.773438 -3.960938 7.8125 -3.695312 7.8125 -3.46875 L 7.8125 -0.421875 C 7.8125 -0.273438 7.78125 -0.164062 7.71875 -0.09375 C 7.65625 -0.03125 7.550781 0 7.40625 0 L 5.65625 0 C 5.5 0 5.382812 -0.03125 5.3125 -0.09375 C 5.238281 -0.164062 5.203125 -0.273438 5.203125 -0.421875 L 5.203125 -2.03125 L 3.15625 -2.03125 Z M 3.15625 -0.421875 "/></g></g></g><g fill="#0d4244" fill-opacity="0.502"><g transform="translate(107.395913, 36.43545)"><g><path d="M 2.953125 0 L 1.21875 0 C 1.070312 0 0.960938 -0.03125 0.890625 -0.09375 C 0.828125 -0.164062 0.796875 -0.273438 0.796875 -0.421875 L 0.796875 -7.90625 C 0.796875 -8.050781 0.828125 -8.15625 0.890625 -8.21875 C 0.960938 -8.289062 1.070312 -8.328125 1.21875 -8.328125 L 2.421875 -8.328125 C 2.566406 -8.328125 2.691406 -8.300781 2.796875 -8.25 C 2.898438 -8.207031 3 -8.128906 3.09375 -8.015625 L 5.34375 -5.453125 L 5.34375 -7.90625 C 5.34375 -8.050781 5.375 -8.15625 5.4375 -8.21875 C 5.5 -8.289062 5.609375 -8.328125 5.765625 -8.328125 L 7.5 -8.328125 C 7.644531 -8.328125 7.75 -8.289062 7.8125 -8.21875 C 7.875 -8.15625 7.90625 -8.050781 7.90625 -7.90625 L 7.90625 -0.421875 C 7.90625 -0.273438 7.875 -0.164062 7.8125 -0.09375 C 7.75 -0.03125 7.644531 0 7.5 0 L 5.765625 0 C 5.609375 0 5.5 -0.03125 5.4375 -0.09375 C 5.375 -0.164062 5.34375 -0.273438 5.34375 -0.421875 L 5.34375 -1.84375 L 3.359375 -4.234375 L 3.359375 -0.421875 C 3.359375 -0.273438 3.328125 -0.164062 3.265625 -0.09375 C 3.203125 -0.03125 3.097656 0 2.953125 0 Z M 2.953125 0 "/></g></g></g><g fill="#0d4244" fill-opacity="0.502"><g transform="translate(116.84776, 36.43545)"><g><path d="M 5.109375 0 L 1.21875 0 C 1.070312 0 0.960938 -0.03125 0.890625 -0.09375 C 0.828125 -0.164062 0.796875 -0.273438 0.796875 -0.421875 L 0.796875 -7.90625 C 0.796875 -8.050781 0.828125 -8.15625 0.890625 -8.21875 C 0.960938 -8.289062 1.070312 -8.328125 1.21875 -8.328125 L 5.109375 -8.328125 C 6.078125 -8.328125 6.789062 -8.132812 7.25 -7.75 C 7.71875 -7.363281 7.953125 -6.769531 7.953125 -5.96875 L 7.953125 -2.359375 C 7.953125 -1.554688 7.71875 -0.960938 7.25 -0.578125 C 6.789062 -0.191406 6.078125 0 5.109375 0 Z M 3.421875 -6.109375 L 3.421875 -2.1875 L 4.796875 -2.1875 C 4.984375 -2.1875 5.117188 -2.234375 5.203125 -2.328125 C 5.296875 -2.421875 5.34375 -2.5625 5.34375 -2.75 L 5.34375 -5.5625 C 5.34375 -5.75 5.296875 -5.882812 5.203125 -5.96875 C 5.117188 -6.0625 4.984375 -6.109375 4.796875 -6.109375 Z M 3.421875 -6.109375 "/></g></g></g><g fill="#0d4244" fill-opacity="0.502"><g transform="translate(126.218625, 36.43545)"><g><path d="M 4.65625 0 L 1 0 C 0.851562 0 0.75 -0.03125 0.6875 -0.09375 C 0.625 -0.164062 0.59375 -0.273438 0.59375 -0.421875 L 0.59375 -1.765625 C 0.59375 -1.910156 0.625 -2.015625 0.6875 -2.078125 C 0.75 -2.148438 0.851562 -2.1875 1 -2.1875 L 4.109375 -2.1875 C 4.210938 -2.1875 4.289062 -2.21875 4.34375 -2.28125 C 4.394531 -2.34375 4.421875 -2.421875 4.421875 -2.515625 C 4.421875 -2.648438 4.394531 -2.75 4.34375 -2.8125 C 4.289062 -2.875 4.210938 -2.90625 4.109375 -2.90625 L 2.375 -3.15625 C 1.84375 -3.226562 1.410156 -3.40625 1.078125 -3.6875 C 0.753906 -3.96875 0.59375 -4.429688 0.59375 -5.078125 L 0.59375 -6.296875 C 0.59375 -6.941406 0.800781 -7.441406 1.21875 -7.796875 C 1.644531 -8.148438 2.234375 -8.328125 2.984375 -8.328125 L 6.21875 -8.328125 C 6.363281 -8.328125 6.46875 -8.289062 6.53125 -8.21875 C 6.601562 -8.15625 6.640625 -8.050781 6.640625 -7.90625 L 6.640625 -6.53125 C 6.640625 -6.382812 6.601562 -6.273438 6.53125 -6.203125 C 6.46875 -6.140625 6.363281 -6.109375 6.21875 -6.109375 L 3.53125 -6.109375 C 3.425781 -6.109375 3.347656 -6.078125 3.296875 -6.015625 C 3.242188 -5.953125 3.21875 -5.867188 3.21875 -5.765625 C 3.21875 -5.671875 3.242188 -5.585938 3.296875 -5.515625 C 3.347656 -5.441406 3.425781 -5.40625 3.53125 -5.40625 L 5.25 -5.171875 C 5.789062 -5.085938 6.222656 -4.90625 6.546875 -4.625 C 6.878906 -4.351562 7.046875 -3.894531 7.046875 -3.25 L 7.046875 -2.03125 C 7.046875 -1.375 6.832031 -0.867188 6.40625 -0.515625 C 5.976562 -0.171875 5.394531 0 4.65625 0 Z M 4.65625 0 "/></g></g></g><g fill="#ffffff" fill-opacity="1"><g transform="translate(59.301451, 35.924153)"><g><path d="M 6.34375 0 L 3.515625 0 C 2.546875 0 1.828125 -0.191406 1.359375 -0.578125 C 0.898438 -0.960938 0.671875 -1.554688 0.671875 -2.359375 L 0.671875 -5.953125 C 0.671875 -6.753906 0.898438 -7.347656 1.359375 -7.734375 C 1.828125 -8.128906 2.546875 -8.328125 3.515625 -8.328125 L 6.34375 -8.328125 C 6.488281 -8.328125 6.59375 -8.289062 6.65625 -8.21875 C 6.71875 -8.15625 6.75 -8.050781 6.75 -7.90625 L 6.75 -6.515625 C 6.75 -6.367188 6.71875 -6.257812 6.65625 -6.1875 C 6.59375 -6.125 6.488281 -6.09375 6.34375 -6.09375 L 4.015625 -6.09375 C 3.773438 -6.09375 3.597656 -6.039062 3.484375 -5.9375 C 3.367188 -5.84375 3.3125 -5.703125 3.3125 -5.515625 L 3.3125 -2.765625 C 3.3125 -2.566406 3.367188 -2.421875 3.484375 -2.328125 C 3.597656 -2.242188 3.773438 -2.203125 4.015625 -2.203125 L 6.34375 -2.203125 C 6.488281 -2.203125 6.59375 -2.171875 6.65625 -2.109375 C 6.71875 -2.046875 6.75 -1.941406 6.75 -1.796875 L 6.75 -0.421875 C 6.75 -0.273438 6.71875 -0.164062 6.65625 -0.09375 C 6.59375 -0.03125 6.488281 0 6.34375 0 Z M 6.34375 0 "/></g></g></g><g fill="#ffffff" fill-opacity="1"><g transform="translate(67.30718, 35.924153)"><g><path d="M 7.84375 -2.1875 C 7.84375 -1.832031 7.789062 -1.507812 7.6875 -1.21875 C 7.582031 -0.925781 7.394531 -0.675781 7.125 -0.46875 C 6.863281 -0.269531 6.5 -0.113281 6.03125 0 C 5.570312 0.113281 4.984375 0.171875 4.265625 0.171875 C 3.546875 0.171875 2.953125 0.113281 2.484375 0 C 2.015625 -0.113281 1.644531 -0.269531 1.375 -0.46875 C 1.113281 -0.675781 0.929688 -0.925781 0.828125 -1.21875 C 0.722656 -1.507812 0.671875 -1.832031 0.671875 -2.1875 L 0.671875 -6.125 C 0.671875 -6.476562 0.722656 -6.800781 0.828125 -7.09375 C 0.929688 -7.382812 1.113281 -7.632812 1.375 -7.84375 C 1.644531 -8.050781 2.015625 -8.210938 2.484375 -8.328125 C 2.953125 -8.441406 3.546875 -8.5 4.265625 -8.5 C 4.984375 -8.5 5.570312 -8.441406 6.03125 -8.328125 C 6.5 -8.210938 6.863281 -8.050781 7.125 -7.84375 C 7.394531 -7.632812 7.582031 -7.382812 7.6875 -7.09375 C 7.789062 -6.800781 7.84375 -6.476562 7.84375 -6.125 Z M 3.296875 -2.609375 C 3.296875 -2.453125 3.351562 -2.320312 3.46875 -2.21875 C 3.582031 -2.113281 3.847656 -2.0625 4.265625 -2.0625 C 4.679688 -2.0625 4.945312 -2.113281 5.0625 -2.21875 C 5.175781 -2.320312 5.234375 -2.453125 5.234375 -2.609375 L 5.234375 -5.71875 C 5.234375 -5.863281 5.175781 -5.988281 5.0625 -6.09375 C 4.945312 -6.195312 4.679688 -6.25 4.265625 -6.25 C 3.847656 -6.25 3.582031 -6.195312 3.46875 -6.09375 C 3.351562 -5.988281 3.296875 -5.863281 3.296875 -5.71875 Z M 3.296875 -2.609375 "/></g></g></g><g fill="#ffffff" fill-opacity="1"><g transform="translate(76.573924, 35.924153)"><g><path d="M 2.9375 0 L 1.21875 0 C 1.070312 0 0.960938 -0.03125 0.890625 -0.09375 C 0.828125 -0.164062 0.796875 -0.273438 0.796875 -0.421875 L 0.796875 -7.90625 C 0.796875 -8.050781 0.828125 -8.15625 0.890625 -8.21875 C 0.960938 -8.289062 1.070312 -8.328125 1.21875 -8.328125 L 3.078125 -8.328125 C 3.203125 -8.328125 3.300781 -8.296875 3.375 -8.234375 C 3.457031 -8.179688 3.535156 -8.097656 3.609375 -7.984375 L 4.640625 -6.09375 C 4.679688 -6.019531 4.710938 -5.96875 4.734375 -5.9375 C 4.765625 -5.90625 4.804688 -5.890625 4.859375 -5.890625 L 4.953125 -5.890625 C 5.003906 -5.890625 5.039062 -5.90625 5.0625 -5.9375 C 5.09375 -5.96875 5.128906 -6.019531 5.171875 -6.09375 L 6.203125 -7.984375 C 6.265625 -8.097656 6.335938 -8.179688 6.421875 -8.234375 C 6.503906 -8.296875 6.609375 -8.328125 6.734375 -8.328125 L 8.609375 -8.328125 C 8.753906 -8.328125 8.859375 -8.289062 8.921875 -8.21875 C 8.984375 -8.15625 9.015625 -8.050781 9.015625 -7.90625 L 9.015625 -0.421875 C 9.015625 -0.273438 8.984375 -0.164062 8.921875 -0.09375 C 8.859375 -0.03125 8.753906 0 8.609375 0 L 6.828125 0 C 6.679688 0 6.570312 -0.03125 6.5 -0.09375 C 6.4375 -0.164062 6.40625 -0.273438 6.40625 -0.421875 L 6.40625 -4.484375 L 5.71875 -3.21875 C 5.65625 -3.09375 5.570312 -3 5.46875 -2.9375 C 5.375 -2.882812 5.253906 -2.859375 5.109375 -2.859375 L 4.640625 -2.859375 C 4.492188 -2.859375 4.375 -2.882812 4.28125 -2.9375 C 4.1875 -3 4.101562 -3.09375 4.03125 -3.21875 L 3.359375 -4.484375 L 3.359375 -0.421875 C 3.359375 -0.273438 3.320312 -0.164062 3.25 -0.09375 C 3.1875 -0.03125 3.082031 0 2.9375 0 Z M 2.9375 0 "/></g></g></g><g fill="#ffffff" fill-opacity="1"><g transform="translate(87.13639, 35.924153)"><g><path d="M 2.9375 0 L 1.21875 0 C 1.070312 0 0.960938 -0.03125 0.890625 -0.09375 C 0.828125 -0.164062 0.796875 -0.273438 0.796875 -0.421875 L 0.796875 -7.90625 C 0.796875 -8.050781 0.828125 -8.15625 0.890625 -8.21875 C 0.960938 -8.289062 1.070312 -8.328125 1.21875 -8.328125 L 3.078125 -8.328125 C 3.203125 -8.328125 3.300781 -8.296875 3.375 -8.234375 C 3.457031 -8.179688 3.535156 -8.097656 3.609375 -7.984375 L 4.640625 -6.09375 C 4.679688 -6.019531 4.710938 -5.96875 4.734375 -5.9375 C 4.765625 -5.90625 4.804688 -5.890625 4.859375 -5.890625 L 4.953125 -5.890625 C 5.003906 -5.890625 5.039062 -5.90625 5.0625 -5.9375 C 5.09375 -5.96875 5.128906 -6.019531 5.171875 -6.09375 L 6.203125 -7.984375 C 6.265625 -8.097656 6.335938 -8.179688 6.421875 -8.234375 C 6.503906 -8.296875 6.609375 -8.328125 6.734375 -8.328125 L 8.609375 -8.328125 C 8.753906 -8.328125 8.859375 -8.289062 8.921875 -8.21875 C 8.984375 -8.15625 9.015625 -8.050781 9.015625 -7.90625 L 9.015625 -0.421875 C 9.015625 -0.273438 8.984375 -0.164062 8.921875 -0.09375 C 8.859375 -0.03125 8.753906 0 8.609375 0 L 6.828125 0 C 6.679688 0 6.570312 -0.03125 6.5 -0.09375 C 6.4375 -0.164062 6.40625 -0.273438 6.40625 -0.421875 L 6.40625 -4.484375 L 5.71875 -3.21875 C 5.65625 -3.09375 5.570312 -3 5.46875 -2.9375 C 5.375 -2.882812 5.253906 -2.859375 5.109375 -2.859375 L 4.640625 -2.859375 C 4.492188 -2.859375 4.375 -2.882812 4.28125 -2.9375 C 4.1875 -3 4.101562 -3.09375 4.03125 -3.21875 L 3.359375 -4.484375 L 3.359375 -0.421875 C 3.359375 -0.273438 3.320312 -0.164062 3.25 -0.09375 C 3.1875 -0.03125 3.082031 0 2.9375 0 Z M 2.9375 0 "/></g></g></g><g fill="#ffffff" fill-opacity="1"><g transform="translate(97.698854, 35.924153)"><g><path d="M 3.8125 -5.890625 L 3.265625 -4.140625 L 5.09375 -4.140625 L 4.546875 -5.890625 C 4.515625 -5.960938 4.476562 -6.015625 4.4375 -6.046875 C 4.40625 -6.078125 4.367188 -6.09375 4.328125 -6.09375 L 4.03125 -6.09375 C 3.988281 -6.09375 3.945312 -6.078125 3.90625 -6.046875 C 3.875 -6.015625 3.84375 -5.960938 3.8125 -5.890625 Z M 3.15625 -0.421875 C 3.15625 -0.273438 3.117188 -0.164062 3.046875 -0.09375 C 2.984375 -0.03125 2.878906 0 2.734375 0 L 1.046875 0 C 0.898438 0 0.789062 -0.03125 0.71875 -0.09375 C 0.65625 -0.164062 0.625 -0.273438 0.625 -0.421875 L 0.625 -3.46875 C 0.625 -3.695312 0.660156 -3.960938 0.734375 -4.265625 C 0.804688 -4.566406 0.921875 -4.914062 1.078125 -5.3125 L 2.078125 -7.9375 C 2.128906 -8.070312 2.203125 -8.171875 2.296875 -8.234375 C 2.390625 -8.296875 2.515625 -8.328125 2.671875 -8.328125 L 5.78125 -8.328125 C 5.925781 -8.328125 6.046875 -8.296875 6.140625 -8.234375 C 6.242188 -8.171875 6.316406 -8.070312 6.359375 -7.9375 L 7.359375 -5.3125 C 7.515625 -4.914062 7.628906 -4.566406 7.703125 -4.265625 C 7.773438 -3.960938 7.8125 -3.695312 7.8125 -3.46875 L 7.8125 -0.421875 C 7.8125 -0.273438 7.78125 -0.164062 7.71875 -0.09375 C 7.65625 -0.03125 7.550781 0 7.40625 0 L 5.65625 0 C 5.5 0 5.382812 -0.03125 5.3125 -0.09375 C 5.238281 -0.164062 5.203125 -0.273438 5.203125 -0.421875 L 5.203125 -2.03125 L 3.15625 -2.03125 Z M 3.15625 -0.421875 "/></g></g></g><g fill="#ffffff" fill-opacity="1"><g transform="translate(106.884617, 35.924153)"><g><path d="M 2.953125 0 L 1.21875 0 C 1.070312 0 0.960938 -0.03125 0.890625 -0.09375 C 0.828125 -0.164062 0.796875 -0.273438 0.796875 -0.421875 L 0.796875 -7.90625 C 0.796875 -8.050781 0.828125 -8.15625 0.890625 -8.21875 C 0.960938 -8.289062 1.070312 -8.328125 1.21875 -8.328125 L 2.421875 -8.328125 C 2.566406 -8.328125 2.691406 -8.300781 2.796875 -8.25 C 2.898438 -8.207031 3 -8.128906 3.09375 -8.015625 L 5.34375 -5.453125 L 5.34375 -7.90625 C 5.34375 -8.050781 5.375 -8.15625 5.4375 -8.21875 C 5.5 -8.289062 5.609375 -8.328125 5.765625 -8.328125 L 7.5 -8.328125 C 7.644531 -8.328125 7.75 -8.289062 7.8125 -8.21875 C 7.875 -8.15625 7.90625 -8.050781 7.90625 -7.90625 L 7.90625 -0.421875 C 7.90625 -0.273438 7.875 -0.164062 7.8125 -0.09375 C 7.75 -0.03125 7.644531 0 7.5 0 L 5.765625 0 C 5.609375 0 5.5 -0.03125 5.4375 -0.09375 C 5.375 -0.164062 5.34375 -0.273438 5.34375 -0.421875 L 5.34375 -1.84375 L 3.359375 -4.234375 L 3.359375 -0.421875 C 3.359375 -0.273438 3.328125 -0.164062 3.265625 -0.09375 C 3.203125 -0.03125 3.097656 0 2.953125 0 Z M 2.953125 0 "/></g></g></g><g fill="#ffffff" fill-opacity="1"><g transform="translate(116.336463, 35.924153)"><g><path d="M 5.109375 0 L 1.21875 0 C 1.070312 0 0.960938 -0.03125 0.890625 -0.09375 C 0.828125 -0.164062 0.796875 -0.273438 0.796875 -0.421875 L 0.796875 -7.90625 C 0.796875 -8.050781 0.828125 -8.15625 0.890625 -8.21875 C 0.960938 -8.289062 1.070312 -8.328125 1.21875 -8.328125 L 5.109375 -8.328125 C 6.078125 -8.328125 6.789062 -8.132812 7.25 -7.75 C 7.71875 -7.363281 7.953125 -6.769531 7.953125 -5.96875 L 7.953125 -2.359375 C 7.953125 -1.554688 7.71875 -0.960938 7.25 -0.578125 C 6.789062 -0.191406 6.078125 0 5.109375 0 Z M 3.421875 -6.109375 L 3.421875 -2.1875 L 4.796875 -2.1875 C 4.984375 -2.1875 5.117188 -2.234375 5.203125 -2.328125 C 5.296875 -2.421875 5.34375 -2.5625 5.34375 -2.75 L 5.34375 -5.5625 C 5.34375 -5.75 5.296875 -5.882812 5.203125 -5.96875 C 5.117188 -6.0625 4.984375 -6.109375 4.796875 -6.109375 Z M 3.421875 -6.109375 "/></g></g></g><g fill="#ffffff" fill-opacity="1"><g transform="translate(125.707328, 35.924153)"><g><path d="M 4.65625 0 L 1 0 C 0.851562 0 0.75 -0.03125 0.6875 -0.09375 C 0.625 -0.164062 0.59375 -0.273438 0.59375 -0.421875 L 0.59375 -1.765625 C 0.59375 -1.910156 0.625 -2.015625 0.6875 -2.078125 C 0.75 -2.148438 0.851562 -2.1875 1 -2.1875 L 4.109375 -2.1875 C 4.210938 -2.1875 4.289062 -2.21875 4.34375 -2.28125 C 4.394531 -2.34375 4.421875 -2.421875 4.421875 -2.515625 C 4.421875 -2.648438 4.394531 -2.75 4.34375 -2.8125 C 4.289062 -2.875 4.210938 -2.90625 4.109375 -2.90625 L 2.375 -3.15625 C 1.84375 -3.226562 1.410156 -3.40625 1.078125 -3.6875 C 0.753906 -3.96875 0.59375 -4.429688 0.59375 -5.078125 L 0.59375 -6.296875 C 0.59375 -6.941406 0.800781 -7.441406 1.21875 -7.796875 C 1.644531 -8.148438 2.234375 -8.328125 2.984375 -8.328125 L 6.21875 -8.328125 C 6.363281 -8.328125 6.46875 -8.289062 6.53125 -8.21875 C 6.601562 -8.15625 6.640625 -8.050781 6.640625 -7.90625 L 6.640625 -6.53125 C 6.640625 -6.382812 6.601562 -6.273438 6.53125 -6.203125 C 6.46875 -6.140625 6.363281 -6.109375 6.21875 -6.109375 L 3.53125 -6.109375 C 3.425781 -6.109375 3.347656 -6.078125 3.296875 -6.015625 C 3.242188 -5.953125 3.21875 -5.867188 3.21875 -5.765625 C 3.21875 -5.671875 3.242188 -5.585938 3.296875 -5.515625 C 3.347656 -5.441406 3.425781 -5.40625 3.53125 -5.40625 L 5.25 -5.171875 C 5.789062 -5.085938 6.222656 -4.90625 6.546875 -4.625 C 6.878906 -4.351562 7.046875 -3.894531 7.046875 -3.25 L 7.046875 -2.03125 C 7.046875 -1.375 6.832031 -0.867188 6.40625 -0.515625 C 5.976562 -0.171875 5.394531 0 4.65625 0 Z M 4.65625 0 "/></g></g></g></svg>