<svg xmlns="http://www.w3.org/2000/svg" xmlns:xlink="http://www.w3.org/1999/xlink" width="800" zoomAndPan="magnify" viewBox="0 0 600 74.999997" height="100" preserveAspectRatio="xMidYMid meet" version="1.0"><defs><g/><clipPath id="42a7667647"><path d="M 3.285156 2.871094 L 596.578125 2.871094 L 596.578125 72.789062 L 3.285156 72.789062 Z M 3.285156 2.871094 " clip-rule="nonzero"/></clipPath><clipPath id="89213563f9"><path d="M 12.285156 2.871094 L 587.578125 2.871094 C 592.550781 2.871094 596.578125 6.902344 596.578125 11.871094 L 596.578125 63.789062 C 596.578125 68.761719 592.550781 72.789062 587.578125 72.789062 L 12.285156 72.789062 C 7.316406 72.789062 3.285156 68.761719 3.285156 63.789062 L 3.285156 11.871094 C 3.285156 6.902344 7.316406 2.871094 12.285156 2.871094 Z M 12.285156 2.871094 " clip-rule="nonzero"/></clipPath><clipPath id="1441cbeea9"><path d="M 14.046875 9.269531 L 77.441406 9.269531 L 77.441406 59.300781 L 14.046875 59.300781 Z M 14.046875 9.269531 " clip-rule="nonzero"/></clipPath><clipPath id="b07597e1dd"><path d="M 12.359375 9.445312 L 79.109375 9.445312 L 79.109375 58.195312 L 12.359375 58.195312 Z M 12.359375 9.445312 " clip-rule="nonzero"/></clipPath></defs><g clip-path="url(#42a7667647)"><g clip-path="url(#89213563f9)"><path fill="#5ce1e6" d="M 3.285156 2.871094 L 596.578125 2.871094 L 596.578125 72.789062 L 3.285156 72.789062 Z M 3.285156 2.871094 " fill-opacity="1" fill-rule="nonzero"/></g></g><g clip-path="url(#1441cbeea9)"><path fill="#40bfbc" d="M 14.046875 9.269531 L 77.445312 9.269531 L 77.445312 59.300781 L 14.046875 59.300781 Z M 14.046875 9.269531 " fill-opacity="1" fill-rule="nonzero"/></g><g clip-path="url(#b07597e1dd)"><path fill="#287777" d="M 77.28125 9.445312 L 14.234375 9.445312 C 13.273438 9.445312 12.484375 10.230469 12.484375 11.1875 L 12.484375 56.453125 C 12.484375 57.414062 13.273438 58.195312 14.234375 58.195312 L 77.28125 58.195312 C 78.242188 58.195312 79.03125 57.414062 79.03125 56.453125 L 79.03125 11.1875 C 79.03125 10.230469 78.242188 9.445312 77.28125 9.445312 M 15.988281 12.929688 L 75.527344 12.929688 L 75.527344 19.894531 L 15.988281 19.894531 Z M 75.527344 54.714844 L 15.988281 54.714844 L 15.988281 23.375 L 75.527344 23.375 Z M 75.527344 54.714844 " fill-opacity="1" fill-rule="evenodd"/></g><path fill="#287777" d="M 19.523438 18.152344 C 18.558594 18.152344 17.765625 17.371094 17.765625 16.410156 C 17.765625 15.449219 18.539062 14.667969 19.507812 14.667969 L 19.523438 14.667969 C 20.492188 14.667969 21.277344 15.449219 21.277344 16.410156 C 21.277344 17.375 20.492188 18.152344 19.523438 18.152344 " fill-opacity="1" fill-rule="evenodd"/><path fill="#287777" d="M 24.777344 18.152344 C 23.8125 18.152344 23.019531 17.371094 23.019531 16.410156 C 23.019531 15.449219 23.792969 14.667969 24.761719 14.667969 L 24.777344 14.667969 C 25.746094 14.667969 26.53125 15.449219 26.53125 16.410156 C 26.53125 17.375 25.746094 18.152344 24.777344 18.152344 " fill-opacity="1" fill-rule="evenodd"/><path fill="#287777" d="M 30.03125 18.152344 C 29.066406 18.152344 28.273438 17.371094 28.273438 16.410156 C 28.273438 15.449219 29.046875 14.667969 30.015625 14.667969 L 30.03125 14.667969 C 31 14.667969 31.78125 15.449219 31.78125 16.410156 C 31.785156 17.375 31 18.152344 30.03125 18.152344 " fill-opacity="1" fill-rule="evenodd"/><path fill="#287777" d="M 30 46.007812 C 29.464844 46.007812 28.9375 45.769531 28.597656 45.3125 C 28.015625 44.542969 28.171875 43.449219 28.945312 42.875 L 34.082031 39.042969 L 28.945312 35.214844 C 28.171875 34.636719 28.015625 33.546875 28.597656 32.777344 C 29.179688 32.007812 30.273438 31.855469 31.046875 32.429688 L 38.050781 37.652344 C 38.492188 37.980469 38.753906 38.5 38.753906 39.042969 C 38.753906 39.589844 38.492188 40.109375 38.050781 40.4375 L 31.046875 45.660156 C 30.734375 45.894531 30.363281 46.007812 30 46.007812 " fill-opacity="1" fill-rule="evenodd"/><path fill="#287777" d="M 44.007812 46.007812 L 40.503906 46.007812 C 39.539062 46.007812 38.753906 45.230469 38.753906 44.269531 C 38.753906 43.304688 39.539062 42.527344 40.503906 42.527344 L 44.007812 42.527344 C 44.972656 42.527344 45.757812 43.304688 45.757812 44.269531 C 45.757812 45.230469 44.972656 46.007812 44.007812 46.007812 " fill-opacity="1" fill-rule="evenodd"/><path fill="#287777" d="M 61.519531 46.007812 L 58.015625 46.007812 C 57.050781 46.007812 56.265625 45.230469 56.265625 44.269531 C 56.265625 43.304688 57.050781 42.527344 58.015625 42.527344 L 61.519531 42.527344 C 62.488281 42.527344 63.269531 43.304688 63.269531 44.269531 C 63.269531 45.230469 62.484375 46.007812 61.519531 46.007812 " fill-opacity="1" fill-rule="evenodd"/><path fill="#287777" d="M 52.761719 46.007812 L 49.261719 46.007812 C 48.292969 46.007812 47.507812 45.230469 47.507812 44.269531 C 47.511719 43.304688 48.292969 42.527344 49.261719 42.527344 L 52.761719 42.527344 C 53.730469 42.527344 54.515625 43.304688 54.515625 44.269531 C 54.515625 45.230469 53.730469 46.007812 52.761719 46.007812 " fill-opacity="1" fill-rule="evenodd"/><g fill="#0d4244" fill-opacity="0.302"><g transform="translate(184.730324, 53.507891)"><g><path d="M 19.953125 0 L 11.078125 0 C 8.035156 0 5.78125 -0.601562 4.3125 -1.8125 C 2.84375 -3.03125 2.109375 -4.90625 2.109375 -7.4375 L 2.109375 -18.75 C 2.109375 -21.28125 2.84375 -23.15625 4.3125 -24.375 C 5.78125 -25.601562 8.035156 -26.21875 11.078125 -26.21875 L 19.953125 -26.21875 C 20.421875 -26.21875 20.753906 -26.113281 20.953125 -25.90625 C 21.160156 -25.707031 21.265625 -25.375 21.265625 -24.90625 L 21.265625 -20.5 C 21.265625 -20.039062 21.160156 -19.707031 20.953125 -19.5 C 20.753906 -19.289062 20.421875 -19.1875 19.953125 -19.1875 L 12.640625 -19.1875 C 11.890625 -19.1875 11.332031 -19.035156 10.96875 -18.734375 C 10.601562 -18.429688 10.421875 -17.976562 10.421875 -17.375 L 10.421875 -8.703125 C 10.421875 -8.097656 10.601562 -7.65625 10.96875 -7.375 C 11.332031 -7.09375 11.890625 -6.953125 12.640625 -6.953125 L 19.953125 -6.953125 C 20.421875 -6.953125 20.753906 -6.847656 20.953125 -6.640625 C 21.160156 -6.441406 21.265625 -6.109375 21.265625 -5.640625 L 21.265625 -1.3125 C 21.265625 -0.851562 21.160156 -0.519531 20.953125 -0.3125 C 20.753906 -0.101562 20.421875 0 19.953125 0 Z M 19.953125 0 "/></g></g></g><g fill="#0d4244" fill-opacity="0.302"><g transform="translate(209.935093, 53.507891)"><g><path d="M 24.734375 -6.890625 C 24.734375 -5.765625 24.566406 -4.75 24.234375 -3.84375 C 23.910156 -2.9375 23.328125 -2.160156 22.484375 -1.515625 C 21.648438 -0.867188 20.5 -0.363281 19.03125 0 C 17.5625 0.363281 15.695312 0.546875 13.4375 0.546875 C 11.175781 0.546875 9.304688 0.363281 7.828125 0 C 6.347656 -0.363281 5.1875 -0.867188 4.34375 -1.515625 C 3.507812 -2.160156 2.925781 -2.9375 2.59375 -3.84375 C 2.269531 -4.75 2.109375 -5.765625 2.109375 -6.890625 L 2.109375 -19.296875 C 2.109375 -20.421875 2.269531 -21.4375 2.59375 -22.34375 C 2.925781 -23.25 3.507812 -24.03125 4.34375 -24.6875 C 5.1875 -25.34375 6.347656 -25.851562 7.828125 -26.21875 C 9.304688 -26.582031 11.175781 -26.765625 13.4375 -26.765625 C 15.695312 -26.765625 17.5625 -26.582031 19.03125 -26.21875 C 20.5 -25.851562 21.648438 -25.34375 22.484375 -24.6875 C 23.328125 -24.03125 23.910156 -23.25 24.234375 -22.34375 C 24.566406 -21.4375 24.734375 -20.421875 24.734375 -19.296875 Z M 10.375 -8.1875 C 10.375 -7.707031 10.554688 -7.300781 10.921875 -6.96875 C 11.285156 -6.644531 12.125 -6.484375 13.4375 -6.484375 C 14.75 -6.484375 15.585938 -6.644531 15.953125 -6.96875 C 16.316406 -7.300781 16.5 -7.707031 16.5 -8.1875 L 16.5 -18 C 16.5 -18.457031 16.316406 -18.847656 15.953125 -19.171875 C 15.585938 -19.503906 14.75 -19.671875 13.4375 -19.671875 C 12.125 -19.671875 11.285156 -19.503906 10.921875 -19.171875 C 10.554688 -18.847656 10.375 -18.457031 10.375 -18 Z M 10.375 -8.1875 "/></g></g></g><g fill="#0d4244" fill-opacity="0.302"><g transform="translate(239.109852, 53.507891)"><g><path d="M 9.25 0 L 3.828125 0 C 3.359375 0 3.019531 -0.101562 2.8125 -0.3125 C 2.613281 -0.519531 2.515625 -0.851562 2.515625 -1.3125 L 2.515625 -24.90625 C 2.515625 -25.375 2.613281 -25.707031 2.8125 -25.90625 C 3.019531 -26.113281 3.359375 -26.21875 3.828125 -26.21875 L 9.6875 -26.21875 C 10.070312 -26.21875 10.390625 -26.132812 10.640625 -25.96875 C 10.898438 -25.800781 11.140625 -25.519531 11.359375 -25.125 L 14.640625 -19.1875 C 14.765625 -18.96875 14.867188 -18.8125 14.953125 -18.71875 C 15.035156 -18.625 15.148438 -18.578125 15.296875 -18.578125 L 15.625 -18.578125 C 15.769531 -18.578125 15.882812 -18.625 15.96875 -18.71875 C 16.050781 -18.8125 16.15625 -18.96875 16.28125 -19.1875 L 19.515625 -25.125 C 19.734375 -25.519531 19.96875 -25.800781 20.21875 -25.96875 C 20.476562 -26.132812 20.804688 -26.21875 21.203125 -26.21875 L 27.09375 -26.21875 C 27.5625 -26.21875 27.894531 -26.113281 28.09375 -25.90625 C 28.300781 -25.707031 28.40625 -25.375 28.40625 -24.90625 L 28.40625 -1.3125 C 28.40625 -0.851562 28.300781 -0.519531 28.09375 -0.3125 C 27.894531 -0.101562 27.5625 0 27.09375 0 L 21.484375 0 C 21.023438 0 20.691406 -0.101562 20.484375 -0.3125 C 20.273438 -0.519531 20.171875 -0.851562 20.171875 -1.3125 L 20.171875 -14.125 L 18.03125 -10.15625 C 17.8125 -9.75 17.550781 -9.453125 17.25 -9.265625 C 16.945312 -9.085938 16.5625 -9 16.09375 -9 L 14.640625 -9 C 14.179688 -9 13.796875 -9.085938 13.484375 -9.265625 C 13.179688 -9.453125 12.925781 -9.75 12.71875 -10.15625 L 10.5625 -14.125 L 10.5625 -1.3125 C 10.5625 -0.851562 10.457031 -0.519531 10.25 -0.3125 C 10.039062 -0.101562 9.707031 0 9.25 0 Z M 9.25 0 "/></g></g></g><g fill="#0d4244" fill-opacity="0.302"><g transform="translate(272.363856, 53.507891)"><g><path d="M 9.25 0 L 3.828125 0 C 3.359375 0 3.019531 -0.101562 2.8125 -0.3125 C 2.613281 -0.519531 2.515625 -0.851562 2.515625 -1.3125 L 2.515625 -24.90625 C 2.515625 -25.375 2.613281 -25.707031 2.8125 -25.90625 C 3.019531 -26.113281 3.359375 -26.21875 3.828125 -26.21875 L 9.6875 -26.21875 C 10.070312 -26.21875 10.390625 -26.132812 10.640625 -25.96875 C 10.898438 -25.800781 11.140625 -25.519531 11.359375 -25.125 L 14.640625 -19.1875 C 14.765625 -18.96875 14.867188 -18.8125 14.953125 -18.71875 C 15.035156 -18.625 15.148438 -18.578125 15.296875 -18.578125 L 15.625 -18.578125 C 15.769531 -18.578125 15.882812 -18.625 15.96875 -18.71875 C 16.050781 -18.8125 16.15625 -18.96875 16.28125 -19.1875 L 19.515625 -25.125 C 19.734375 -25.519531 19.96875 -25.800781 20.21875 -25.96875 C 20.476562 -26.132812 20.804688 -26.21875 21.203125 -26.21875 L 27.09375 -26.21875 C 27.5625 -26.21875 27.894531 -26.113281 28.09375 -25.90625 C 28.300781 -25.707031 28.40625 -25.375 28.40625 -24.90625 L 28.40625 -1.3125 C 28.40625 -0.851562 28.300781 -0.519531 28.09375 -0.3125 C 27.894531 -0.101562 27.5625 0 27.09375 0 L 21.484375 0 C 21.023438 0 20.691406 -0.101562 20.484375 -0.3125 C 20.273438 -0.519531 20.171875 -0.851562 20.171875 -1.3125 L 20.171875 -14.125 L 18.03125 -10.15625 C 17.8125 -9.75 17.550781 -9.453125 17.25 -9.265625 C 16.945312 -9.085938 16.5625 -9 16.09375 -9 L 14.640625 -9 C 14.179688 -9 13.796875 -9.085938 13.484375 -9.265625 C 13.179688 -9.453125 12.925781 -9.75 12.71875 -10.15625 L 10.5625 -14.125 L 10.5625 -1.3125 C 10.5625 -0.851562 10.457031 -0.519531 10.25 -0.3125 C 10.039062 -0.101562 9.707031 0 9.25 0 Z M 9.25 0 "/></g></g></g><g fill="#0d4244" fill-opacity="0.302"><g transform="translate(305.61786, 53.507891)"><g><path d="M 12.015625 -18.578125 L 10.3125 -13.03125 L 16.03125 -13.03125 L 14.3125 -18.578125 C 14.21875 -18.796875 14.113281 -18.953125 14 -19.046875 C 13.894531 -19.140625 13.769531 -19.1875 13.625 -19.1875 L 12.71875 -19.1875 C 12.570312 -19.1875 12.441406 -19.140625 12.328125 -19.046875 C 12.222656 -18.953125 12.117188 -18.796875 12.015625 -18.578125 Z M 9.9375 -1.3125 C 9.9375 -0.851562 9.832031 -0.519531 9.625 -0.3125 C 9.425781 -0.101562 9.09375 0 8.625 0 L 3.28125 0 C 2.820312 0 2.488281 -0.101562 2.28125 -0.3125 C 2.070312 -0.519531 1.96875 -0.851562 1.96875 -1.3125 L 1.96875 -10.921875 C 1.96875 -11.648438 2.082031 -12.488281 2.3125 -13.4375 C 2.539062 -14.382812 2.898438 -15.488281 3.390625 -16.75 L 6.5625 -25.015625 C 6.707031 -25.429688 6.929688 -25.734375 7.234375 -25.921875 C 7.535156 -26.117188 7.925781 -26.21875 8.40625 -26.21875 L 18.203125 -26.21875 C 18.671875 -26.21875 19.054688 -26.117188 19.359375 -25.921875 C 19.660156 -25.734375 19.882812 -25.429688 20.03125 -25.015625 L 23.203125 -16.75 C 23.679688 -15.488281 24.035156 -14.382812 24.265625 -13.4375 C 24.503906 -12.488281 24.625 -11.648438 24.625 -10.921875 L 24.625 -1.3125 C 24.625 -0.851562 24.519531 -0.519531 24.3125 -0.3125 C 24.101562 -0.101562 23.769531 0 23.3125 0 L 17.8125 0 C 17.320312 0 16.960938 -0.101562 16.734375 -0.3125 C 16.503906 -0.519531 16.390625 -0.851562 16.390625 -1.3125 L 16.390625 -6.40625 L 9.9375 -6.40625 Z M 9.9375 -1.3125 "/></g></g></g><g fill="#0d4244" fill-opacity="0.302"><g transform="translate(334.537661, 53.507891)"><g><path d="M 9.28125 0 L 3.828125 0 C 3.359375 0 3.019531 -0.101562 2.8125 -0.3125 C 2.613281 -0.519531 2.515625 -0.851562 2.515625 -1.3125 L 2.515625 -24.90625 C 2.515625 -25.375 2.613281 -25.707031 2.8125 -25.90625 C 3.019531 -26.113281 3.359375 -26.21875 3.828125 -26.21875 L 7.609375 -26.21875 C 8.066406 -26.21875 8.457031 -26.144531 8.78125 -26 C 9.113281 -25.851562 9.441406 -25.597656 9.765625 -25.234375 L 16.828125 -17.15625 L 16.828125 -24.90625 C 16.828125 -25.375 16.929688 -25.707031 17.140625 -25.90625 C 17.347656 -26.113281 17.679688 -26.21875 18.140625 -26.21875 L 23.59375 -26.21875 C 24.0625 -26.21875 24.394531 -26.113281 24.59375 -25.90625 C 24.800781 -25.707031 24.90625 -25.375 24.90625 -24.90625 L 24.90625 -1.3125 C 24.90625 -0.851562 24.800781 -0.519531 24.59375 -0.3125 C 24.394531 -0.101562 24.0625 0 23.59375 0 L 18.140625 0 C 17.679688 0 17.347656 -0.101562 17.140625 -0.3125 C 16.929688 -0.519531 16.828125 -0.851562 16.828125 -1.3125 L 16.828125 -5.796875 L 10.59375 -13.328125 L 10.59375 -1.3125 C 10.59375 -0.851562 10.488281 -0.519531 10.28125 -0.3125 C 10.082031 -0.101562 9.75 0 9.28125 0 Z M 9.28125 0 "/></g></g></g><g fill="#0d4244" fill-opacity="0.302"><g transform="translate(364.295158, 53.507891)"><g><path d="M 16.09375 0 L 3.828125 0 C 3.359375 0 3.019531 -0.101562 2.8125 -0.3125 C 2.613281 -0.519531 2.515625 -0.851562 2.515625 -1.3125 L 2.515625 -24.90625 C 2.515625 -25.375 2.613281 -25.707031 2.8125 -25.90625 C 3.019531 -26.113281 3.359375 -26.21875 3.828125 -26.21875 L 16.09375 -26.21875 C 19.132812 -26.21875 21.390625 -25.609375 22.859375 -24.390625 C 24.328125 -23.179688 25.0625 -21.316406 25.0625 -18.796875 L 25.0625 -7.4375 C 25.0625 -4.90625 24.328125 -3.03125 22.859375 -1.8125 C 21.390625 -0.601562 19.132812 0 16.09375 0 Z M 10.78125 -19.265625 L 10.78125 -6.890625 L 15.109375 -6.890625 C 15.691406 -6.890625 16.125 -7.035156 16.40625 -7.328125 C 16.6875 -7.617188 16.828125 -8.066406 16.828125 -8.671875 L 16.828125 -17.515625 C 16.828125 -18.117188 16.6875 -18.5625 16.40625 -18.84375 C 16.125 -19.125 15.691406 -19.265625 15.109375 -19.265625 Z M 10.78125 -19.265625 "/></g></g></g><g fill="#0d4244" fill-opacity="0.302"><g transform="translate(393.797704, 53.507891)"><g><path d="M 14.671875 0 L 3.171875 0 C 2.710938 0 2.378906 -0.101562 2.171875 -0.3125 C 1.960938 -0.519531 1.859375 -0.851562 1.859375 -1.3125 L 1.859375 -5.578125 C 1.859375 -6.035156 1.960938 -6.367188 2.171875 -6.578125 C 2.378906 -6.785156 2.710938 -6.890625 3.171875 -6.890625 L 12.96875 -6.890625 C 13.28125 -6.890625 13.515625 -6.988281 13.671875 -7.1875 C 13.828125 -7.394531 13.90625 -7.644531 13.90625 -7.9375 C 13.90625 -8.351562 13.828125 -8.65625 13.671875 -8.84375 C 13.515625 -9.039062 13.28125 -9.148438 12.96875 -9.171875 L 7.5 -9.9375 C 5.800781 -10.1875 4.4375 -10.75 3.40625 -11.625 C 2.375 -12.5 1.859375 -13.953125 1.859375 -15.984375 L 1.859375 -19.8125 C 1.859375 -21.875 2.523438 -23.457031 3.859375 -24.5625 C 5.191406 -25.664062 7.035156 -26.21875 9.390625 -26.21875 L 19.59375 -26.21875 C 20.050781 -26.21875 20.382812 -26.113281 20.59375 -25.90625 C 20.800781 -25.707031 20.90625 -25.375 20.90625 -24.90625 L 20.90625 -20.578125 C 20.90625 -20.117188 20.800781 -19.785156 20.59375 -19.578125 C 20.382812 -19.367188 20.050781 -19.265625 19.59375 -19.265625 L 11.109375 -19.265625 C 10.796875 -19.265625 10.550781 -19.160156 10.375 -18.953125 C 10.207031 -18.742188 10.125 -18.484375 10.125 -18.171875 C 10.125 -17.859375 10.207031 -17.59375 10.375 -17.375 C 10.550781 -17.15625 10.796875 -17.035156 11.109375 -17.015625 L 16.53125 -16.28125 C 18.226562 -16.039062 19.597656 -15.484375 20.640625 -14.609375 C 21.691406 -13.734375 22.21875 -12.273438 22.21875 -10.234375 L 22.21875 -6.40625 C 22.21875 -4.34375 21.539062 -2.757812 20.1875 -1.65625 C 18.84375 -0.550781 17.003906 0 14.671875 0 Z M 14.671875 0 "/></g></g></g><g fill="#0d4244" fill-opacity="0.502"><g transform="translate(183.120124, 51.897691)"><g><path d="M 19.953125 0 L 11.078125 0 C 8.035156 0 5.78125 -0.601562 4.3125 -1.8125 C 2.84375 -3.03125 2.109375 -4.90625 2.109375 -7.4375 L 2.109375 -18.75 C 2.109375 -21.28125 2.84375 -23.15625 4.3125 -24.375 C 5.78125 -25.601562 8.035156 -26.21875 11.078125 -26.21875 L 19.953125 -26.21875 C 20.421875 -26.21875 20.753906 -26.113281 20.953125 -25.90625 C 21.160156 -25.707031 21.265625 -25.375 21.265625 -24.90625 L 21.265625 -20.5 C 21.265625 -20.039062 21.160156 -19.707031 20.953125 -19.5 C 20.753906 -19.289062 20.421875 -19.1875 19.953125 -19.1875 L 12.640625 -19.1875 C 11.890625 -19.1875 11.332031 -19.035156 10.96875 -18.734375 C 10.601562 -18.429688 10.421875 -17.976562 10.421875 -17.375 L 10.421875 -8.703125 C 10.421875 -8.097656 10.601562 -7.65625 10.96875 -7.375 C 11.332031 -7.09375 11.890625 -6.953125 12.640625 -6.953125 L 19.953125 -6.953125 C 20.421875 -6.953125 20.753906 -6.847656 20.953125 -6.640625 C 21.160156 -6.441406 21.265625 -6.109375 21.265625 -5.640625 L 21.265625 -1.3125 C 21.265625 -0.851562 21.160156 -0.519531 20.953125 -0.3125 C 20.753906 -0.101562 20.421875 0 19.953125 0 Z M 19.953125 0 "/></g></g></g><g fill="#0d4244" fill-opacity="0.502"><g transform="translate(208.324892, 51.897691)"><g><path d="M 24.734375 -6.890625 C 24.734375 -5.765625 24.566406 -4.75 24.234375 -3.84375 C 23.910156 -2.9375 23.328125 -2.160156 22.484375 -1.515625 C 21.648438 -0.867188 20.5 -0.363281 19.03125 0 C 17.5625 0.363281 15.695312 0.546875 13.4375 0.546875 C 11.175781 0.546875 9.304688 0.363281 7.828125 0 C 6.347656 -0.363281 5.1875 -0.867188 4.34375 -1.515625 C 3.507812 -2.160156 2.925781 -2.9375 2.59375 -3.84375 C 2.269531 -4.75 2.109375 -5.765625 2.109375 -6.890625 L 2.109375 -19.296875 C 2.109375 -20.421875 2.269531 -21.4375 2.59375 -22.34375 C 2.925781 -23.25 3.507812 -24.03125 4.34375 -24.6875 C 5.1875 -25.34375 6.347656 -25.851562 7.828125 -26.21875 C 9.304688 -26.582031 11.175781 -26.765625 13.4375 -26.765625 C 15.695312 -26.765625 17.5625 -26.582031 19.03125 -26.21875 C 20.5 -25.851562 21.648438 -25.34375 22.484375 -24.6875 C 23.328125 -24.03125 23.910156 -23.25 24.234375 -22.34375 C 24.566406 -21.4375 24.734375 -20.421875 24.734375 -19.296875 Z M 10.375 -8.1875 C 10.375 -7.707031 10.554688 -7.300781 10.921875 -6.96875 C 11.285156 -6.644531 12.125 -6.484375 13.4375 -6.484375 C 14.75 -6.484375 15.585938 -6.644531 15.953125 -6.96875 C 16.316406 -7.300781 16.5 -7.707031 16.5 -8.1875 L 16.5 -18 C 16.5 -18.457031 16.316406 -18.847656 15.953125 -19.171875 C 15.585938 -19.503906 14.75 -19.671875 13.4375 -19.671875 C 12.125 -19.671875 11.285156 -19.503906 10.921875 -19.171875 C 10.554688 -18.847656 10.375 -18.457031 10.375 -18 Z M 10.375 -8.1875 "/></g></g></g><g fill="#0d4244" fill-opacity="0.502"><g transform="translate(237.499651, 51.897691)"><g><path d="M 9.25 0 L 3.828125 0 C 3.359375 0 3.019531 -0.101562 2.8125 -0.3125 C 2.613281 -0.519531 2.515625 -0.851562 2.515625 -1.3125 L 2.515625 -24.90625 C 2.515625 -25.375 2.613281 -25.707031 2.8125 -25.90625 C 3.019531 -26.113281 3.359375 -26.21875 3.828125 -26.21875 L 9.6875 -26.21875 C 10.070312 -26.21875 10.390625 -26.132812 10.640625 -25.96875 C 10.898438 -25.800781 11.140625 -25.519531 11.359375 -25.125 L 14.640625 -19.1875 C 14.765625 -18.96875 14.867188 -18.8125 14.953125 -18.71875 C 15.035156 -18.625 15.148438 -18.578125 15.296875 -18.578125 L 15.625 -18.578125 C 15.769531 -18.578125 15.882812 -18.625 15.96875 -18.71875 C 16.050781 -18.8125 16.15625 -18.96875 16.28125 -19.1875 L 19.515625 -25.125 C 19.734375 -25.519531 19.96875 -25.800781 20.21875 -25.96875 C 20.476562 -26.132812 20.804688 -26.21875 21.203125 -26.21875 L 27.09375 -26.21875 C 27.5625 -26.21875 27.894531 -26.113281 28.09375 -25.90625 C 28.300781 -25.707031 28.40625 -25.375 28.40625 -24.90625 L 28.40625 -1.3125 C 28.40625 -0.851562 28.300781 -0.519531 28.09375 -0.3125 C 27.894531 -0.101562 27.5625 0 27.09375 0 L 21.484375 0 C 21.023438 0 20.691406 -0.101562 20.484375 -0.3125 C 20.273438 -0.519531 20.171875 -0.851562 20.171875 -1.3125 L 20.171875 -14.125 L 18.03125 -10.15625 C 17.8125 -9.75 17.550781 -9.453125 17.25 -9.265625 C 16.945312 -9.085938 16.5625 -9 16.09375 -9 L 14.640625 -9 C 14.179688 -9 13.796875 -9.085938 13.484375 -9.265625 C 13.179688 -9.453125 12.925781 -9.75 12.71875 -10.15625 L 10.5625 -14.125 L 10.5625 -1.3125 C 10.5625 -0.851562 10.457031 -0.519531 10.25 -0.3125 C 10.039062 -0.101562 9.707031 0 9.25 0 Z M 9.25 0 "/></g></g></g><g fill="#0d4244" fill-opacity="0.502"><g transform="translate(270.753655, 51.897691)"><g><path d="M 9.25 0 L 3.828125 0 C 3.359375 0 3.019531 -0.101562 2.8125 -0.3125 C 2.613281 -0.519531 2.515625 -0.851562 2.515625 -1.3125 L 2.515625 -24.90625 C 2.515625 -25.375 2.613281 -25.707031 2.8125 -25.90625 C 3.019531 -26.113281 3.359375 -26.21875 3.828125 -26.21875 L 9.6875 -26.21875 C 10.070312 -26.21875 10.390625 -26.132812 10.640625 -25.96875 C 10.898438 -25.800781 11.140625 -25.519531 11.359375 -25.125 L 14.640625 -19.1875 C 14.765625 -18.96875 14.867188 -18.8125 14.953125 -18.71875 C 15.035156 -18.625 15.148438 -18.578125 15.296875 -18.578125 L 15.625 -18.578125 C 15.769531 -18.578125 15.882812 -18.625 15.96875 -18.71875 C 16.050781 -18.8125 16.15625 -18.96875 16.28125 -19.1875 L 19.515625 -25.125 C 19.734375 -25.519531 19.96875 -25.800781 20.21875 -25.96875 C 20.476562 -26.132812 20.804688 -26.21875 21.203125 -26.21875 L 27.09375 -26.21875 C 27.5625 -26.21875 27.894531 -26.113281 28.09375 -25.90625 C 28.300781 -25.707031 28.40625 -25.375 28.40625 -24.90625 L 28.40625 -1.3125 C 28.40625 -0.851562 28.300781 -0.519531 28.09375 -0.3125 C 27.894531 -0.101562 27.5625 0 27.09375 0 L 21.484375 0 C 21.023438 0 20.691406 -0.101562 20.484375 -0.3125 C 20.273438 -0.519531 20.171875 -0.851562 20.171875 -1.3125 L 20.171875 -14.125 L 18.03125 -10.15625 C 17.8125 -9.75 17.550781 -9.453125 17.25 -9.265625 C 16.945312 -9.085938 16.5625 -9 16.09375 -9 L 14.640625 -9 C 14.179688 -9 13.796875 -9.085938 13.484375 -9.265625 C 13.179688 -9.453125 12.925781 -9.75 12.71875 -10.15625 L 10.5625 -14.125 L 10.5625 -1.3125 C 10.5625 -0.851562 10.457031 -0.519531 10.25 -0.3125 C 10.039062 -0.101562 9.707031 0 9.25 0 Z M 9.25 0 "/></g></g></g><g fill="#0d4244" fill-opacity="0.502"><g transform="translate(304.007659, 51.897691)"><g><path d="M 12.015625 -18.578125 L 10.3125 -13.03125 L 16.03125 -13.03125 L 14.3125 -18.578125 C 14.21875 -18.796875 14.113281 -18.953125 14 -19.046875 C 13.894531 -19.140625 13.769531 -19.1875 13.625 -19.1875 L 12.71875 -19.1875 C 12.570312 -19.1875 12.441406 -19.140625 12.328125 -19.046875 C 12.222656 -18.953125 12.117188 -18.796875 12.015625 -18.578125 Z M 9.9375 -1.3125 C 9.9375 -0.851562 9.832031 -0.519531 9.625 -0.3125 C 9.425781 -0.101562 9.09375 0 8.625 0 L 3.28125 0 C 2.820312 0 2.488281 -0.101562 2.28125 -0.3125 C 2.070312 -0.519531 1.96875 -0.851562 1.96875 -1.3125 L 1.96875 -10.921875 C 1.96875 -11.648438 2.082031 -12.488281 2.3125 -13.4375 C 2.539062 -14.382812 2.898438 -15.488281 3.390625 -16.75 L 6.5625 -25.015625 C 6.707031 -25.429688 6.929688 -25.734375 7.234375 -25.921875 C 7.535156 -26.117188 7.925781 -26.21875 8.40625 -26.21875 L 18.203125 -26.21875 C 18.671875 -26.21875 19.054688 -26.117188 19.359375 -25.921875 C 19.660156 -25.734375 19.882812 -25.429688 20.03125 -25.015625 L 23.203125 -16.75 C 23.679688 -15.488281 24.035156 -14.382812 24.265625 -13.4375 C 24.503906 -12.488281 24.625 -11.648438 24.625 -10.921875 L 24.625 -1.3125 C 24.625 -0.851562 24.519531 -0.519531 24.3125 -0.3125 C 24.101562 -0.101562 23.769531 0 23.3125 0 L 17.8125 0 C 17.320312 0 16.960938 -0.101562 16.734375 -0.3125 C 16.503906 -0.519531 16.390625 -0.851562 16.390625 -1.3125 L 16.390625 -6.40625 L 9.9375 -6.40625 Z M 9.9375 -1.3125 "/></g></g></g><g fill="#0d4244" fill-opacity="0.502"><g transform="translate(332.92746, 51.897691)"><g><path d="M 9.28125 0 L 3.828125 0 C 3.359375 0 3.019531 -0.101562 2.8125 -0.3125 C 2.613281 -0.519531 2.515625 -0.851562 2.515625 -1.3125 L 2.515625 -24.90625 C 2.515625 -25.375 2.613281 -25.707031 2.8125 -25.90625 C 3.019531 -26.113281 3.359375 -26.21875 3.828125 -26.21875 L 7.609375 -26.21875 C 8.066406 -26.21875 8.457031 -26.144531 8.78125 -26 C 9.113281 -25.851562 9.441406 -25.597656 9.765625 -25.234375 L 16.828125 -17.15625 L 16.828125 -24.90625 C 16.828125 -25.375 16.929688 -25.707031 17.140625 -25.90625 C 17.347656 -26.113281 17.679688 -26.21875 18.140625 -26.21875 L 23.59375 -26.21875 C 24.0625 -26.21875 24.394531 -26.113281 24.59375 -25.90625 C 24.800781 -25.707031 24.90625 -25.375 24.90625 -24.90625 L 24.90625 -1.3125 C 24.90625 -0.851562 24.800781 -0.519531 24.59375 -0.3125 C 24.394531 -0.101562 24.0625 0 23.59375 0 L 18.140625 0 C 17.679688 0 17.347656 -0.101562 17.140625 -0.3125 C 16.929688 -0.519531 16.828125 -0.851562 16.828125 -1.3125 L 16.828125 -5.796875 L 10.59375 -13.328125 L 10.59375 -1.3125 C 10.59375 -0.851562 10.488281 -0.519531 10.28125 -0.3125 C 10.082031 -0.101562 9.75 0 9.28125 0 Z M 9.28125 0 "/></g></g></g><g fill="#0d4244" fill-opacity="0.502"><g transform="translate(362.684957, 51.897691)"><g><path d="M 16.09375 0 L 3.828125 0 C 3.359375 0 3.019531 -0.101562 2.8125 -0.3125 C 2.613281 -0.519531 2.515625 -0.851562 2.515625 -1.3125 L 2.515625 -24.90625 C 2.515625 -25.375 2.613281 -25.707031 2.8125 -25.90625 C 3.019531 -26.113281 3.359375 -26.21875 3.828125 -26.21875 L 16.09375 -26.21875 C 19.132812 -26.21875 21.390625 -25.609375 22.859375 -24.390625 C 24.328125 -23.179688 25.0625 -21.316406 25.0625 -18.796875 L 25.0625 -7.4375 C 25.0625 -4.90625 24.328125 -3.03125 22.859375 -1.8125 C 21.390625 -0.601562 19.132812 0 16.09375 0 Z M 10.78125 -19.265625 L 10.78125 -6.890625 L 15.109375 -6.890625 C 15.691406 -6.890625 16.125 -7.035156 16.40625 -7.328125 C 16.6875 -7.617188 16.828125 -8.066406 16.828125 -8.671875 L 16.828125 -17.515625 C 16.828125 -18.117188 16.6875 -18.5625 16.40625 -18.84375 C 16.125 -19.125 15.691406 -19.265625 15.109375 -19.265625 Z M 10.78125 -19.265625 "/></g></g></g><g fill="#0d4244" fill-opacity="0.502"><g transform="translate(392.187503, 51.897691)"><g><path d="M 14.671875 0 L 3.171875 0 C 2.710938 0 2.378906 -0.101562 2.171875 -0.3125 C 1.960938 -0.519531 1.859375 -0.851562 1.859375 -1.3125 L 1.859375 -5.578125 C 1.859375 -6.035156 1.960938 -6.367188 2.171875 -6.578125 C 2.378906 -6.785156 2.710938 -6.890625 3.171875 -6.890625 L 12.96875 -6.890625 C 13.28125 -6.890625 13.515625 -6.988281 13.671875 -7.1875 C 13.828125 -7.394531 13.90625 -7.644531 13.90625 -7.9375 C 13.90625 -8.351562 13.828125 -8.65625 13.671875 -8.84375 C 13.515625 -9.039062 13.28125 -9.148438 12.96875 -9.171875 L 7.5 -9.9375 C 5.800781 -10.1875 4.4375 -10.75 3.40625 -11.625 C 2.375 -12.5 1.859375 -13.953125 1.859375 -15.984375 L 1.859375 -19.8125 C 1.859375 -21.875 2.523438 -23.457031 3.859375 -24.5625 C 5.191406 -25.664062 7.035156 -26.21875 9.390625 -26.21875 L 19.59375 -26.21875 C 20.050781 -26.21875 20.382812 -26.113281 20.59375 -25.90625 C 20.800781 -25.707031 20.90625 -25.375 20.90625 -24.90625 L 20.90625 -20.578125 C 20.90625 -20.117188 20.800781 -19.785156 20.59375 -19.578125 C 20.382812 -19.367188 20.050781 -19.265625 19.59375 -19.265625 L 11.109375 -19.265625 C 10.796875 -19.265625 10.550781 -19.160156 10.375 -18.953125 C 10.207031 -18.742188 10.125 -18.484375 10.125 -18.171875 C 10.125 -17.859375 10.207031 -17.59375 10.375 -17.375 C 10.550781 -17.15625 10.796875 -17.035156 11.109375 -17.015625 L 16.53125 -16.28125 C 18.226562 -16.039062 19.597656 -15.484375 20.640625 -14.609375 C 21.691406 -13.734375 22.21875 -12.273438 22.21875 -10.234375 L 22.21875 -6.40625 C 22.21875 -4.34375 21.539062 -2.757812 20.1875 -1.65625 C 18.84375 -0.550781 17.003906 0 14.671875 0 Z M 14.671875 0 "/></g></g></g><g fill="#ffffff" fill-opacity="1"><g transform="translate(181.509922, 50.287489)"><g><path d="M 19.953125 0 L 11.078125 0 C 8.035156 0 5.78125 -0.601562 4.3125 -1.8125 C 2.84375 -3.03125 2.109375 -4.90625 2.109375 -7.4375 L 2.109375 -18.75 C 2.109375 -21.28125 2.84375 -23.15625 4.3125 -24.375 C 5.78125 -25.601562 8.035156 -26.21875 11.078125 -26.21875 L 19.953125 -26.21875 C 20.421875 -26.21875 20.753906 -26.113281 20.953125 -25.90625 C 21.160156 -25.707031 21.265625 -25.375 21.265625 -24.90625 L 21.265625 -20.5 C 21.265625 -20.039062 21.160156 -19.707031 20.953125 -19.5 C 20.753906 -19.289062 20.421875 -19.1875 19.953125 -19.1875 L 12.640625 -19.1875 C 11.890625 -19.1875 11.332031 -19.035156 10.96875 -18.734375 C 10.601562 -18.429688 10.421875 -17.976562 10.421875 -17.375 L 10.421875 -8.703125 C 10.421875 -8.097656 10.601562 -7.65625 10.96875 -7.375 C 11.332031 -7.09375 11.890625 -6.953125 12.640625 -6.953125 L 19.953125 -6.953125 C 20.421875 -6.953125 20.753906 -6.847656 20.953125 -6.640625 C 21.160156 -6.441406 21.265625 -6.109375 21.265625 -5.640625 L 21.265625 -1.3125 C 21.265625 -0.851562 21.160156 -0.519531 20.953125 -0.3125 C 20.753906 -0.101562 20.421875 0 19.953125 0 Z M 19.953125 0 "/></g></g></g><g fill="#ffffff" fill-opacity="1"><g transform="translate(206.714691, 50.287489)"><g><path d="M 24.734375 -6.890625 C 24.734375 -5.765625 24.566406 -4.75 24.234375 -3.84375 C 23.910156 -2.9375 23.328125 -2.160156 22.484375 -1.515625 C 21.648438 -0.867188 20.5 -0.363281 19.03125 0 C 17.5625 0.363281 15.695312 0.546875 13.4375 0.546875 C 11.175781 0.546875 9.304688 0.363281 7.828125 0 C 6.347656 -0.363281 5.1875 -0.867188 4.34375 -1.515625 C 3.507812 -2.160156 2.925781 -2.9375 2.59375 -3.84375 C 2.269531 -4.75 2.109375 -5.765625 2.109375 -6.890625 L 2.109375 -19.296875 C 2.109375 -20.421875 2.269531 -21.4375 2.59375 -22.34375 C 2.925781 -23.25 3.507812 -24.03125 4.34375 -24.6875 C 5.1875 -25.34375 6.347656 -25.851562 7.828125 -26.21875 C 9.304688 -26.582031 11.175781 -26.765625 13.4375 -26.765625 C 15.695312 -26.765625 17.5625 -26.582031 19.03125 -26.21875 C 20.5 -25.851562 21.648438 -25.34375 22.484375 -24.6875 C 23.328125 -24.03125 23.910156 -23.25 24.234375 -22.34375 C 24.566406 -21.4375 24.734375 -20.421875 24.734375 -19.296875 Z M 10.375 -8.1875 C 10.375 -7.707031 10.554688 -7.300781 10.921875 -6.96875 C 11.285156 -6.644531 12.125 -6.484375 13.4375 -6.484375 C 14.75 -6.484375 15.585938 -6.644531 15.953125 -6.96875 C 16.316406 -7.300781 16.5 -7.707031 16.5 -8.1875 L 16.5 -18 C 16.5 -18.457031 16.316406 -18.847656 15.953125 -19.171875 C 15.585938 -19.503906 14.75 -19.671875 13.4375 -19.671875 C 12.125 -19.671875 11.285156 -19.503906 10.921875 -19.171875 C 10.554688 -18.847656 10.375 -18.457031 10.375 -18 Z M 10.375 -8.1875 "/></g></g></g><g fill="#ffffff" fill-opacity="1"><g transform="translate(235.889449, 50.287489)"><g><path d="M 9.25 0 L 3.828125 0 C 3.359375 0 3.019531 -0.101562 2.8125 -0.3125 C 2.613281 -0.519531 2.515625 -0.851562 2.515625 -1.3125 L 2.515625 -24.90625 C 2.515625 -25.375 2.613281 -25.707031 2.8125 -25.90625 C 3.019531 -26.113281 3.359375 -26.21875 3.828125 -26.21875 L 9.6875 -26.21875 C 10.070312 -26.21875 10.390625 -26.132812 10.640625 -25.96875 C 10.898438 -25.800781 11.140625 -25.519531 11.359375 -25.125 L 14.640625 -19.1875 C 14.765625 -18.96875 14.867188 -18.8125 14.953125 -18.71875 C 15.035156 -18.625 15.148438 -18.578125 15.296875 -18.578125 L 15.625 -18.578125 C 15.769531 -18.578125 15.882812 -18.625 15.96875 -18.71875 C 16.050781 -18.8125 16.15625 -18.96875 16.28125 -19.1875 L 19.515625 -25.125 C 19.734375 -25.519531 19.96875 -25.800781 20.21875 -25.96875 C 20.476562 -26.132812 20.804688 -26.21875 21.203125 -26.21875 L 27.09375 -26.21875 C 27.5625 -26.21875 27.894531 -26.113281 28.09375 -25.90625 C 28.300781 -25.707031 28.40625 -25.375 28.40625 -24.90625 L 28.40625 -1.3125 C 28.40625 -0.851562 28.300781 -0.519531 28.09375 -0.3125 C 27.894531 -0.101562 27.5625 0 27.09375 0 L 21.484375 0 C 21.023438 0 20.691406 -0.101562 20.484375 -0.3125 C 20.273438 -0.519531 20.171875 -0.851562 20.171875 -1.3125 L 20.171875 -14.125 L 18.03125 -10.15625 C 17.8125 -9.75 17.550781 -9.453125 17.25 -9.265625 C 16.945312 -9.085938 16.5625 -9 16.09375 -9 L 14.640625 -9 C 14.179688 -9 13.796875 -9.085938 13.484375 -9.265625 C 13.179688 -9.453125 12.925781 -9.75 12.71875 -10.15625 L 10.5625 -14.125 L 10.5625 -1.3125 C 10.5625 -0.851562 10.457031 -0.519531 10.25 -0.3125 C 10.039062 -0.101562 9.707031 0 9.25 0 Z M 9.25 0 "/></g></g></g><g fill="#ffffff" fill-opacity="1"><g transform="translate(269.143453, 50.287489)"><g><path d="M 9.25 0 L 3.828125 0 C 3.359375 0 3.019531 -0.101562 2.8125 -0.3125 C 2.613281 -0.519531 2.515625 -0.851562 2.515625 -1.3125 L 2.515625 -24.90625 C 2.515625 -25.375 2.613281 -25.707031 2.8125 -25.90625 C 3.019531 -26.113281 3.359375 -26.21875 3.828125 -26.21875 L 9.6875 -26.21875 C 10.070312 -26.21875 10.390625 -26.132812 10.640625 -25.96875 C 10.898438 -25.800781 11.140625 -25.519531 11.359375 -25.125 L 14.640625 -19.1875 C 14.765625 -18.96875 14.867188 -18.8125 14.953125 -18.71875 C 15.035156 -18.625 15.148438 -18.578125 15.296875 -18.578125 L 15.625 -18.578125 C 15.769531 -18.578125 15.882812 -18.625 15.96875 -18.71875 C 16.050781 -18.8125 16.15625 -18.96875 16.28125 -19.1875 L 19.515625 -25.125 C 19.734375 -25.519531 19.96875 -25.800781 20.21875 -25.96875 C 20.476562 -26.132812 20.804688 -26.21875 21.203125 -26.21875 L 27.09375 -26.21875 C 27.5625 -26.21875 27.894531 -26.113281 28.09375 -25.90625 C 28.300781 -25.707031 28.40625 -25.375 28.40625 -24.90625 L 28.40625 -1.3125 C 28.40625 -0.851562 28.300781 -0.519531 28.09375 -0.3125 C 27.894531 -0.101562 27.5625 0 27.09375 0 L 21.484375 0 C 21.023438 0 20.691406 -0.101562 20.484375 -0.3125 C 20.273438 -0.519531 20.171875 -0.851562 20.171875 -1.3125 L 20.171875 -14.125 L 18.03125 -10.15625 C 17.8125 -9.75 17.550781 -9.453125 17.25 -9.265625 C 16.945312 -9.085938 16.5625 -9 16.09375 -9 L 14.640625 -9 C 14.179688 -9 13.796875 -9.085938 13.484375 -9.265625 C 13.179688 -9.453125 12.925781 -9.75 12.71875 -10.15625 L 10.5625 -14.125 L 10.5625 -1.3125 C 10.5625 -0.851562 10.457031 -0.519531 10.25 -0.3125 C 10.039062 -0.101562 9.707031 0 9.25 0 Z M 9.25 0 "/></g></g></g><g fill="#ffffff" fill-opacity="1"><g transform="translate(302.397458, 50.287489)"><g><path d="M 12.015625 -18.578125 L 10.3125 -13.03125 L 16.03125 -13.03125 L 14.3125 -18.578125 C 14.21875 -18.796875 14.113281 -18.953125 14 -19.046875 C 13.894531 -19.140625 13.769531 -19.1875 13.625 -19.1875 L 12.71875 -19.1875 C 12.570312 -19.1875 12.441406 -19.140625 12.328125 -19.046875 C 12.222656 -18.953125 12.117188 -18.796875 12.015625 -18.578125 Z M 9.9375 -1.3125 C 9.9375 -0.851562 9.832031 -0.519531 9.625 -0.3125 C 9.425781 -0.101562 9.09375 0 8.625 0 L 3.28125 0 C 2.820312 0 2.488281 -0.101562 2.28125 -0.3125 C 2.070312 -0.519531 1.96875 -0.851562 1.96875 -1.3125 L 1.96875 -10.921875 C 1.96875 -11.648438 2.082031 -12.488281 2.3125 -13.4375 C 2.539062 -14.382812 2.898438 -15.488281 3.390625 -16.75 L 6.5625 -25.015625 C 6.707031 -25.429688 6.929688 -25.734375 7.234375 -25.921875 C 7.535156 -26.117188 7.925781 -26.21875 8.40625 -26.21875 L 18.203125 -26.21875 C 18.671875 -26.21875 19.054688 -26.117188 19.359375 -25.921875 C 19.660156 -25.734375 19.882812 -25.429688 20.03125 -25.015625 L 23.203125 -16.75 C 23.679688 -15.488281 24.035156 -14.382812 24.265625 -13.4375 C 24.503906 -12.488281 24.625 -11.648438 24.625 -10.921875 L 24.625 -1.3125 C 24.625 -0.851562 24.519531 -0.519531 24.3125 -0.3125 C 24.101562 -0.101562 23.769531 0 23.3125 0 L 17.8125 0 C 17.320312 0 16.960938 -0.101562 16.734375 -0.3125 C 16.503906 -0.519531 16.390625 -0.851562 16.390625 -1.3125 L 16.390625 -6.40625 L 9.9375 -6.40625 Z M 9.9375 -1.3125 "/></g></g></g><g fill="#ffffff" fill-opacity="1"><g transform="translate(331.317259, 50.287489)"><g><path d="M 9.28125 0 L 3.828125 0 C 3.359375 0 3.019531 -0.101562 2.8125 -0.3125 C 2.613281 -0.519531 2.515625 -0.851562 2.515625 -1.3125 L 2.515625 -24.90625 C 2.515625 -25.375 2.613281 -25.707031 2.8125 -25.90625 C 3.019531 -26.113281 3.359375 -26.21875 3.828125 -26.21875 L 7.609375 -26.21875 C 8.066406 -26.21875 8.457031 -26.144531 8.78125 -26 C 9.113281 -25.851562 9.441406 -25.597656 9.765625 -25.234375 L 16.828125 -17.15625 L 16.828125 -24.90625 C 16.828125 -25.375 16.929688 -25.707031 17.140625 -25.90625 C 17.347656 -26.113281 17.679688 -26.21875 18.140625 -26.21875 L 23.59375 -26.21875 C 24.0625 -26.21875 24.394531 -26.113281 24.59375 -25.90625 C 24.800781 -25.707031 24.90625 -25.375 24.90625 -24.90625 L 24.90625 -1.3125 C 24.90625 -0.851562 24.800781 -0.519531 24.59375 -0.3125 C 24.394531 -0.101562 24.0625 0 23.59375 0 L 18.140625 0 C 17.679688 0 17.347656 -0.101562 17.140625 -0.3125 C 16.929688 -0.519531 16.828125 -0.851562 16.828125 -1.3125 L 16.828125 -5.796875 L 10.59375 -13.328125 L 10.59375 -1.3125 C 10.59375 -0.851562 10.488281 -0.519531 10.28125 -0.3125 C 10.082031 -0.101562 9.75 0 9.28125 0 Z M 9.28125 0 "/></g></g></g><g fill="#ffffff" fill-opacity="1"><g transform="translate(361.074756, 50.287489)"><g><path d="M 16.09375 0 L 3.828125 0 C 3.359375 0 3.019531 -0.101562 2.8125 -0.3125 C 2.613281 -0.519531 2.515625 -0.851562 2.515625 -1.3125 L 2.515625 -24.90625 C 2.515625 -25.375 2.613281 -25.707031 2.8125 -25.90625 C 3.019531 -26.113281 3.359375 -26.21875 3.828125 -26.21875 L 16.09375 -26.21875 C 19.132812 -26.21875 21.390625 -25.609375 22.859375 -24.390625 C 24.328125 -23.179688 25.0625 -21.316406 25.0625 -18.796875 L 25.0625 -7.4375 C 25.0625 -4.90625 24.328125 -3.03125 22.859375 -1.8125 C 21.390625 -0.601562 19.132812 0 16.09375 0 Z M 10.78125 -19.265625 L 10.78125 -6.890625 L 15.109375 -6.890625 C 15.691406 -6.890625 16.125 -7.035156 16.40625 -7.328125 C 16.6875 -7.617188 16.828125 -8.066406 16.828125 -8.671875 L 16.828125 -17.515625 C 16.828125 -18.117188 16.6875 -18.5625 16.40625 -18.84375 C 16.125 -19.125 15.691406 -19.265625 15.109375 -19.265625 Z M 10.78125 -19.265625 "/></g></g></g><g fill="#ffffff" fill-opacity="1"><g transform="translate(390.577302, 50.287489)"><g><path d="M 14.671875 0 L 3.171875 0 C 2.710938 0 2.378906 -0.101562 2.171875 -0.3125 C 1.960938 -0.519531 1.859375 -0.851562 1.859375 -1.3125 L 1.859375 -5.578125 C 1.859375 -6.035156 1.960938 -6.367188 2.171875 -6.578125 C 2.378906 -6.785156 2.710938 -6.890625 3.171875 -6.890625 L 12.96875 -6.890625 C 13.28125 -6.890625 13.515625 -6.988281 13.671875 -7.1875 C 13.828125 -7.394531 13.90625 -7.644531 13.90625 -7.9375 C 13.90625 -8.351562 13.828125 -8.65625 13.671875 -8.84375 C 13.515625 -9.039062 13.28125 -9.148438 12.96875 -9.171875 L 7.5 -9.9375 C 5.800781 -10.1875 4.4375 -10.75 3.40625 -11.625 C 2.375 -12.5 1.859375 -13.953125 1.859375 -15.984375 L 1.859375 -19.8125 C 1.859375 -21.875 2.523438 -23.457031 3.859375 -24.5625 C 5.191406 -25.664062 7.035156 -26.21875 9.390625 -26.21875 L 19.59375 -26.21875 C 20.050781 -26.21875 20.382812 -26.113281 20.59375 -25.90625 C 20.800781 -25.707031 20.90625 -25.375 20.90625 -24.90625 L 20.90625 -20.578125 C 20.90625 -20.117188 20.800781 -19.785156 20.59375 -19.578125 C 20.382812 -19.367188 20.050781 -19.265625 19.59375 -19.265625 L 11.109375 -19.265625 C 10.796875 -19.265625 10.550781 -19.160156 10.375 -18.953125 C 10.207031 -18.742188 10.125 -18.484375 10.125 -18.171875 C 10.125 -17.859375 10.207031 -17.59375 10.375 -17.375 C 10.550781 -17.15625 10.796875 -17.035156 11.109375 -17.015625 L 16.53125 -16.28125 C 18.226562 -16.039062 19.597656 -15.484375 20.640625 -14.609375 C 21.691406 -13.734375 22.21875 -12.273438 22.21875 -10.234375 L 22.21875 -6.40625 C 22.21875 -4.34375 21.539062 -2.757812 20.1875 -1.65625 C 18.84375 -0.550781 17.003906 0 14.671875 0 Z M 14.671875 0 "/></g></g></g></svg>