<svg xmlns="http://www.w3.org/2000/svg" xmlns:xlink="http://www.w3.org/1999/xlink" width="600" zoomAndPan="magnify" viewBox="0 0 450 74.999997" height="100" preserveAspectRatio="xMidYMid meet" version="1.0"><defs><g/><clipPath id="8f97af77fc"><path d="M 2.644531 2.871094 L 447.589844 2.871094 L 447.589844 72.789062 L 2.644531 72.789062 Z M 2.644531 2.871094 " clip-rule="nonzero"/></clipPath><clipPath id="2a2cd895cb"><path d="M 11.644531 2.871094 L 438.589844 2.871094 C 443.5625 2.871094 447.589844 6.902344 447.589844 11.871094 L 447.589844 63.789062 C 447.589844 68.761719 443.5625 72.789062 438.589844 72.789062 L 11.644531 72.789062 C 6.671875 72.789062 2.644531 68.761719 2.644531 63.789062 L 2.644531 11.871094 C 2.644531 6.902344 6.671875 2.871094 11.644531 2.871094 Z M 11.644531 2.871094 " clip-rule="nonzero"/></clipPath><clipPath id="f4be77d789"><path d="M 13.792969 7.5 L 76.042969 7.5 L 76.042969 67.5 L 13.792969 67.5 Z M 13.792969 7.5 " clip-rule="nonzero"/></clipPath><clipPath id="2f72ca4a34"><path d="M 13.792969 16.1875 L 48.292969 16.1875 L 48.292969 50.6875 L 13.792969 50.6875 Z M 13.792969 16.1875 " clip-rule="nonzero"/></clipPath></defs><g clip-path="url(#8f97af77fc)"><g clip-path="url(#2a2cd895cb)"><path fill="#5ce1e6" d="M 2.644531 2.871094 L 447.589844 2.871094 L 447.589844 72.789062 L 2.644531 72.789062 Z M 2.644531 2.871094 " fill-opacity="1" fill-rule="nonzero"/></g></g><g fill="#0d4244" fill-opacity="0.302"><g transform="translate(95.810948, 52.076702)"><g><path d="M 19.21875 0 L 10.65625 0 C 7.738281 0 5.570312 -0.582031 4.15625 -1.75 C 2.738281 -2.914062 2.03125 -4.71875 2.03125 -7.15625 L 2.03125 -18.0625 C 2.03125 -20.5 2.738281 -22.304688 4.15625 -23.484375 C 5.570312 -24.660156 7.738281 -25.25 10.65625 -25.25 L 19.21875 -25.25 C 19.664062 -25.25 19.988281 -25.148438 20.1875 -24.953125 C 20.382812 -24.753906 20.484375 -24.4375 20.484375 -24 L 20.484375 -19.75 C 20.484375 -19.300781 20.382812 -18.976562 20.1875 -18.78125 C 19.988281 -18.582031 19.664062 -18.484375 19.21875 -18.484375 L 12.171875 -18.484375 C 11.441406 -18.484375 10.898438 -18.335938 10.546875 -18.046875 C 10.203125 -17.753906 10.03125 -17.316406 10.03125 -16.734375 L 10.03125 -8.390625 C 10.03125 -7.796875 10.203125 -7.363281 10.546875 -7.09375 C 10.898438 -6.832031 11.441406 -6.703125 12.171875 -6.703125 L 19.21875 -6.703125 C 19.664062 -6.703125 19.988281 -6.601562 20.1875 -6.40625 C 20.382812 -6.207031 20.484375 -5.882812 20.484375 -5.4375 L 20.484375 -1.265625 C 20.484375 -0.816406 20.382812 -0.492188 20.1875 -0.296875 C 19.988281 -0.0976562 19.664062 0 19.21875 0 Z M 19.21875 0 "/></g></g></g><g fill="#0d4244" fill-opacity="0.302"><g transform="translate(120.082746, 52.076702)"><g><path d="M 23.8125 -6.625 C 23.8125 -5.550781 23.65625 -4.578125 23.34375 -3.703125 C 23.03125 -2.828125 22.46875 -2.078125 21.65625 -1.453125 C 20.851562 -0.835938 19.742188 -0.351562 18.328125 0 C 16.910156 0.351562 15.113281 0.53125 12.9375 0.53125 C 10.769531 0.53125 8.972656 0.351562 7.546875 0 C 6.117188 -0.351562 5 -0.835938 4.1875 -1.453125 C 3.382812 -2.078125 2.820312 -2.828125 2.5 -3.703125 C 2.1875 -4.578125 2.03125 -5.550781 2.03125 -6.625 L 2.03125 -18.59375 C 2.03125 -19.664062 2.1875 -20.640625 2.5 -21.515625 C 2.820312 -22.390625 3.382812 -23.144531 4.1875 -23.78125 C 5 -24.414062 6.117188 -24.90625 7.546875 -25.25 C 8.972656 -25.601562 10.769531 -25.78125 12.9375 -25.78125 C 15.113281 -25.78125 16.910156 -25.601562 18.328125 -25.25 C 19.742188 -24.90625 20.851562 -24.414062 21.65625 -23.78125 C 22.46875 -23.144531 23.03125 -22.390625 23.34375 -21.515625 C 23.65625 -20.640625 23.8125 -19.664062 23.8125 -18.59375 Z M 10 -7.890625 C 10 -7.421875 10.171875 -7.03125 10.515625 -6.71875 C 10.867188 -6.40625 11.675781 -6.25 12.9375 -6.25 C 14.207031 -6.25 15.015625 -6.40625 15.359375 -6.71875 C 15.710938 -7.03125 15.890625 -7.421875 15.890625 -7.890625 L 15.890625 -17.328125 C 15.890625 -17.773438 15.710938 -18.15625 15.359375 -18.46875 C 15.015625 -18.78125 14.207031 -18.9375 12.9375 -18.9375 C 11.675781 -18.9375 10.867188 -18.78125 10.515625 -18.46875 C 10.171875 -18.15625 10 -17.773438 10 -17.328125 Z M 10 -7.890625 "/></g></g></g><g fill="#0d4244" fill-opacity="0.302"><g transform="translate(148.177626, 52.076702)"><g><path d="M 8.9375 0 L 3.6875 0 C 3.238281 0 2.914062 -0.0976562 2.71875 -0.296875 C 2.519531 -0.492188 2.421875 -0.816406 2.421875 -1.265625 L 2.421875 -24 C 2.421875 -24.4375 2.519531 -24.753906 2.71875 -24.953125 C 2.914062 -25.148438 3.238281 -25.25 3.6875 -25.25 L 7.328125 -25.25 C 7.773438 -25.25 8.15625 -25.175781 8.46875 -25.03125 C 8.78125 -24.894531 9.09375 -24.65625 9.40625 -24.3125 L 16.203125 -16.515625 L 16.203125 -24 C 16.203125 -24.4375 16.300781 -24.753906 16.5 -24.953125 C 16.695312 -25.148438 17.019531 -25.25 17.46875 -25.25 L 22.734375 -25.25 C 23.171875 -25.25 23.488281 -25.148438 23.6875 -24.953125 C 23.894531 -24.753906 24 -24.4375 24 -24 L 24 -1.265625 C 24 -0.816406 23.894531 -0.492188 23.6875 -0.296875 C 23.488281 -0.0976562 23.171875 0 22.734375 0 L 17.46875 0 C 17.019531 0 16.695312 -0.0976562 16.5 -0.296875 C 16.300781 -0.492188 16.203125 -0.816406 16.203125 -1.265625 L 16.203125 -5.578125 L 10.203125 -12.84375 L 10.203125 -1.265625 C 10.203125 -0.816406 10.101562 -0.492188 9.90625 -0.296875 C 9.707031 -0.0976562 9.382812 0 8.9375 0 Z M 8.9375 0 "/></g></g></g><g fill="#0d4244" fill-opacity="0.302"><g transform="translate(176.833704, 52.076702)"><g><path d="M 9.125 0 L 3.6875 0 C 3.238281 0 2.914062 -0.0976562 2.71875 -0.296875 C 2.519531 -0.492188 2.421875 -0.816406 2.421875 -1.265625 L 2.421875 -24 C 2.421875 -24.4375 2.519531 -24.753906 2.71875 -24.953125 C 2.914062 -25.148438 3.238281 -25.25 3.6875 -25.25 L 19.328125 -25.25 C 19.773438 -25.25 20.097656 -25.148438 20.296875 -24.953125 C 20.492188 -24.753906 20.59375 -24.4375 20.59375 -24 L 20.59375 -19.8125 C 20.59375 -19.375 20.492188 -19.054688 20.296875 -18.859375 C 20.097656 -18.660156 19.773438 -18.5625 19.328125 -18.5625 L 10.390625 -18.5625 L 10.390625 -14.90625 L 16.484375 -14.90625 C 16.929688 -14.90625 17.253906 -14.804688 17.453125 -14.609375 C 17.648438 -14.410156 17.75 -14.085938 17.75 -13.640625 L 17.75 -9.4375 C 17.75 -8.988281 17.648438 -8.664062 17.453125 -8.46875 C 17.253906 -8.269531 16.929688 -8.171875 16.484375 -8.171875 L 10.390625 -8.171875 L 10.390625 -1.265625 C 10.390625 -0.816406 10.285156 -0.492188 10.078125 -0.296875 C 9.878906 -0.0976562 9.5625 0 9.125 0 Z M 9.125 0 "/></g></g></g><g fill="#0d4244" fill-opacity="0.302"><g transform="translate(200.754761, 52.076702)"><g><path d="M 3.125 0 C 2.675781 0 2.351562 -0.0976562 2.15625 -0.296875 C 1.957031 -0.492188 1.859375 -0.816406 1.859375 -1.265625 L 1.859375 -5.4375 C 1.859375 -5.882812 1.957031 -6.207031 2.15625 -6.40625 C 2.351562 -6.601562 2.675781 -6.703125 3.125 -6.703125 L 6.59375 -6.703125 L 6.59375 -18.484375 L 3.125 -18.484375 C 2.675781 -18.484375 2.351562 -18.582031 2.15625 -18.78125 C 1.957031 -18.976562 1.859375 -19.300781 1.859375 -19.75 L 1.859375 -24 C 1.859375 -24.4375 1.957031 -24.753906 2.15625 -24.953125 C 2.351562 -25.148438 2.675781 -25.25 3.125 -25.25 L 18.0625 -25.25 C 18.507812 -25.25 18.832031 -25.148438 19.03125 -24.953125 C 19.226562 -24.753906 19.328125 -24.4375 19.328125 -24 L 19.328125 -19.75 C 19.328125 -19.300781 19.226562 -18.976562 19.03125 -18.78125 C 18.832031 -18.582031 18.507812 -18.484375 18.0625 -18.484375 L 14.65625 -18.484375 L 14.65625 -6.703125 L 18.0625 -6.703125 C 18.507812 -6.703125 18.832031 -6.601562 19.03125 -6.40625 C 19.226562 -6.207031 19.328125 -5.882812 19.328125 -5.4375 L 19.328125 -1.265625 C 19.328125 -0.816406 19.226562 -0.492188 19.03125 -0.296875 C 18.832031 -0.0976562 18.507812 0 18.0625 0 Z M 3.125 0 "/></g></g></g><g fill="#0d4244" fill-opacity="0.302"><g transform="translate(224.219851, 52.076702)"><g><path d="M 21.71875 0 L 10.65625 0 C 7.738281 0 5.570312 -0.582031 4.15625 -1.75 C 2.738281 -2.914062 2.03125 -4.71875 2.03125 -7.15625 L 2.03125 -18.09375 C 2.03125 -20.53125 2.738281 -22.332031 4.15625 -23.5 C 5.570312 -24.664062 7.738281 -25.25 10.65625 -25.25 L 19.4375 -25.25 C 19.875 -25.25 20.191406 -25.148438 20.390625 -24.953125 C 20.597656 -24.753906 20.703125 -24.4375 20.703125 -24 L 20.703125 -19.75 C 20.703125 -19.300781 20.597656 -18.976562 20.390625 -18.78125 C 20.191406 -18.582031 19.875 -18.484375 19.4375 -18.484375 L 12.140625 -18.484375 C 11.410156 -18.484375 10.867188 -18.335938 10.515625 -18.046875 C 10.171875 -17.753906 10 -17.316406 10 -16.734375 L 10 -8.34375 C 10 -7.757812 10.128906 -7.328125 10.390625 -7.046875 C 10.660156 -6.765625 11.066406 -6.625 11.609375 -6.625 L 15.015625 -6.625 L 15.015625 -12.109375 C 15.015625 -12.546875 15.113281 -12.863281 15.3125 -13.0625 C 15.507812 -13.257812 15.832031 -13.359375 16.28125 -13.359375 L 21.71875 -13.359375 C 22.15625 -13.359375 22.472656 -13.257812 22.671875 -13.0625 C 22.867188 -12.863281 22.96875 -12.546875 22.96875 -12.109375 L 22.96875 -1.265625 C 22.96875 -0.816406 22.867188 -0.492188 22.671875 -0.296875 C 22.472656 -0.0976562 22.15625 0 21.71875 0 Z M 21.71875 0 "/></g></g></g><g fill="#0d4244" fill-opacity="0.302"><g transform="translate(251.297577, 52.076702)"><g><path d="M 23.921875 -6.625 C 23.921875 -5.550781 23.757812 -4.578125 23.4375 -3.703125 C 23.125 -2.828125 22.566406 -2.078125 21.765625 -1.453125 C 20.960938 -0.835938 19.859375 -0.351562 18.453125 0 C 17.046875 0.351562 15.253906 0.53125 13.078125 0.53125 C 10.910156 0.53125 9.125 0.351562 7.71875 0 C 6.3125 -0.351562 5.203125 -0.835938 4.390625 -1.453125 C 3.585938 -2.078125 3.03125 -2.828125 2.71875 -3.703125 C 2.40625 -4.578125 2.25 -5.550781 2.25 -6.625 L 2.25 -24 C 2.25 -24.4375 2.347656 -24.753906 2.546875 -24.953125 C 2.742188 -25.148438 3.0625 -25.25 3.5 -25.25 L 9.015625 -25.25 C 9.460938 -25.25 9.785156 -25.148438 9.984375 -24.953125 C 10.179688 -24.753906 10.28125 -24.4375 10.28125 -24 L 10.28125 -8 C 10.28125 -7.53125 10.453125 -7.132812 10.796875 -6.8125 C 11.148438 -6.5 11.9375 -6.34375 13.15625 -6.34375 C 14.394531 -6.34375 15.1875 -6.5 15.53125 -6.8125 C 15.882812 -7.132812 16.0625 -7.53125 16.0625 -8 L 16.0625 -24 C 16.0625 -24.4375 16.160156 -24.753906 16.359375 -24.953125 C 16.554688 -25.148438 16.878906 -25.25 17.328125 -25.25 L 22.65625 -25.25 C 23.101562 -25.25 23.425781 -25.148438 23.625 -24.953125 C 23.820312 -24.753906 23.921875 -24.4375 23.921875 -24 Z M 23.921875 -6.625 "/></g></g></g><g fill="#0d4244" fill-opacity="0.302"><g transform="translate(279.708128, 52.076702)"><g><path d="M 10.34375 -18.9375 L 10.34375 -14.453125 L 12.984375 -14.453125 C 13.585938 -14.453125 13.992188 -14.609375 14.203125 -14.921875 C 14.410156 -15.242188 14.515625 -15.632812 14.515625 -16.09375 L 14.515625 -17.296875 C 14.515625 -17.765625 14.410156 -18.15625 14.203125 -18.46875 C 13.992188 -18.78125 13.585938 -18.9375 12.984375 -18.9375 Z M 9.078125 0 L 3.6875 0 C 3.238281 0 2.914062 -0.0976562 2.71875 -0.296875 C 2.519531 -0.492188 2.421875 -0.816406 2.421875 -1.265625 L 2.421875 -24 C 2.421875 -24.4375 2.519531 -24.753906 2.71875 -24.953125 C 2.914062 -25.148438 3.238281 -25.25 3.6875 -25.25 L 15.359375 -25.25 C 17.984375 -25.25 19.789062 -24.707031 20.78125 -23.625 C 21.78125 -22.539062 22.28125 -21.128906 22.28125 -19.390625 L 22.28125 -17.78125 C 22.28125 -16.800781 22.128906 -15.960938 21.828125 -15.265625 C 21.535156 -14.578125 21.03125 -14.082031 20.3125 -13.78125 C 21.570312 -13.644531 22.59375 -13.128906 23.375 -12.234375 C 24.15625 -11.347656 24.546875 -10.171875 24.546875 -8.703125 L 24.546875 -1.265625 C 24.546875 -0.816406 24.445312 -0.492188 24.25 -0.296875 C 24.050781 -0.0976562 23.734375 0 23.296875 0 L 17.859375 0 C 17.410156 0 17.085938 -0.0976562 16.890625 -0.296875 C 16.691406 -0.492188 16.59375 -0.816406 16.59375 -1.265625 L 16.59375 -6.625 C 16.59375 -7.144531 16.492188 -7.523438 16.296875 -7.765625 C 16.097656 -8.015625 15.753906 -8.140625 15.265625 -8.140625 L 10.34375 -8.140625 L 10.34375 -1.265625 C 10.34375 -0.816406 10.242188 -0.492188 10.046875 -0.296875 C 9.847656 -0.0976562 9.523438 0 9.078125 0 Z M 9.078125 0 "/></g></g></g><g fill="#0d4244" fill-opacity="0.302"><g transform="translate(308.013461, 52.076702)"><g><path d="M 11.578125 -17.890625 L 9.921875 -12.5625 L 15.4375 -12.5625 L 13.78125 -17.890625 C 13.6875 -18.097656 13.585938 -18.25 13.484375 -18.34375 C 13.378906 -18.4375 13.257812 -18.484375 13.125 -18.484375 L 12.25 -18.484375 C 12.101562 -18.484375 11.976562 -18.4375 11.875 -18.34375 C 11.769531 -18.25 11.671875 -18.097656 11.578125 -17.890625 Z M 9.578125 -1.265625 C 9.578125 -0.816406 9.476562 -0.492188 9.28125 -0.296875 C 9.082031 -0.0976562 8.757812 0 8.3125 0 L 3.15625 0 C 2.707031 0 2.382812 -0.0976562 2.1875 -0.296875 C 1.988281 -0.492188 1.890625 -0.816406 1.890625 -1.265625 L 1.890625 -10.515625 C 1.890625 -11.222656 2 -12.03125 2.21875 -12.9375 C 2.445312 -13.851562 2.796875 -14.921875 3.265625 -16.140625 L 6.3125 -24.09375 C 6.457031 -24.488281 6.675781 -24.78125 6.96875 -24.96875 C 7.257812 -25.15625 7.640625 -25.25 8.109375 -25.25 L 17.53125 -25.25 C 17.976562 -25.25 18.347656 -25.15625 18.640625 -24.96875 C 18.929688 -24.78125 19.148438 -24.488281 19.296875 -24.09375 L 22.34375 -16.140625 C 22.8125 -14.921875 23.15625 -13.851562 23.375 -12.9375 C 23.601562 -12.03125 23.71875 -11.222656 23.71875 -10.515625 L 23.71875 -1.265625 C 23.71875 -0.816406 23.613281 -0.492188 23.40625 -0.296875 C 23.207031 -0.0976562 22.890625 0 22.453125 0 L 17.15625 0 C 16.6875 0 16.335938 -0.0976562 16.109375 -0.296875 C 15.890625 -0.492188 15.78125 -0.816406 15.78125 -1.265625 L 15.78125 -6.171875 L 9.578125 -6.171875 Z M 9.578125 -1.265625 "/></g></g></g><g fill="#0d4244" fill-opacity="0.302"><g transform="translate(335.862839, 52.076702)"><g><path d="M 14.34375 0 L 8.671875 0 C 8.222656 0 7.898438 -0.0976562 7.703125 -0.296875 C 7.503906 -0.492188 7.40625 -0.816406 7.40625 -1.265625 L 7.40625 -18.484375 L 2.25 -18.484375 C 1.800781 -18.484375 1.476562 -18.582031 1.28125 -18.78125 C 1.082031 -18.976562 0.984375 -19.300781 0.984375 -19.75 L 0.984375 -24 C 0.984375 -24.4375 1.082031 -24.753906 1.28125 -24.953125 C 1.476562 -25.148438 1.800781 -25.25 2.25 -25.25 L 20.765625 -25.25 C 21.210938 -25.25 21.535156 -25.148438 21.734375 -24.953125 C 21.929688 -24.753906 22.03125 -24.4375 22.03125 -24 L 22.03125 -19.75 C 22.03125 -19.300781 21.929688 -18.976562 21.734375 -18.78125 C 21.535156 -18.582031 21.210938 -18.484375 20.765625 -18.484375 L 15.609375 -18.484375 L 15.609375 -1.265625 C 15.609375 -0.816406 15.507812 -0.492188 15.3125 -0.296875 C 15.113281 -0.0976562 14.789062 0 14.34375 0 Z M 14.34375 0 "/></g></g></g><g fill="#0d4244" fill-opacity="0.302"><g transform="translate(361.11672, 52.076702)"><g><path d="M 3.125 0 C 2.675781 0 2.351562 -0.0976562 2.15625 -0.296875 C 1.957031 -0.492188 1.859375 -0.816406 1.859375 -1.265625 L 1.859375 -5.4375 C 1.859375 -5.882812 1.957031 -6.207031 2.15625 -6.40625 C 2.351562 -6.601562 2.675781 -6.703125 3.125 -6.703125 L 6.59375 -6.703125 L 6.59375 -18.484375 L 3.125 -18.484375 C 2.675781 -18.484375 2.351562 -18.582031 2.15625 -18.78125 C 1.957031 -18.976562 1.859375 -19.300781 1.859375 -19.75 L 1.859375 -24 C 1.859375 -24.4375 1.957031 -24.753906 2.15625 -24.953125 C 2.351562 -25.148438 2.675781 -25.25 3.125 -25.25 L 18.0625 -25.25 C 18.507812 -25.25 18.832031 -25.148438 19.03125 -24.953125 C 19.226562 -24.753906 19.328125 -24.4375 19.328125 -24 L 19.328125 -19.75 C 19.328125 -19.300781 19.226562 -18.976562 19.03125 -18.78125 C 18.832031 -18.582031 18.507812 -18.484375 18.0625 -18.484375 L 14.65625 -18.484375 L 14.65625 -6.703125 L 18.0625 -6.703125 C 18.507812 -6.703125 18.832031 -6.601562 19.03125 -6.40625 C 19.226562 -6.207031 19.328125 -5.882812 19.328125 -5.4375 L 19.328125 -1.265625 C 19.328125 -0.816406 19.226562 -0.492188 19.03125 -0.296875 C 18.832031 -0.0976562 18.507812 0 18.0625 0 Z M 3.125 0 "/></g></g></g><g fill="#0d4244" fill-opacity="0.302"><g transform="translate(384.581821, 52.076702)"><g><path d="M 23.8125 -6.625 C 23.8125 -5.550781 23.65625 -4.578125 23.34375 -3.703125 C 23.03125 -2.828125 22.46875 -2.078125 21.65625 -1.453125 C 20.851562 -0.835938 19.742188 -0.351562 18.328125 0 C 16.910156 0.351562 15.113281 0.53125 12.9375 0.53125 C 10.769531 0.53125 8.972656 0.351562 7.546875 0 C 6.117188 -0.351562 5 -0.835938 4.1875 -1.453125 C 3.382812 -2.078125 2.820312 -2.828125 2.5 -3.703125 C 2.1875 -4.578125 2.03125 -5.550781 2.03125 -6.625 L 2.03125 -18.59375 C 2.03125 -19.664062 2.1875 -20.640625 2.5 -21.515625 C 2.820312 -22.390625 3.382812 -23.144531 4.1875 -23.78125 C 5 -24.414062 6.117188 -24.90625 7.546875 -25.25 C 8.972656 -25.601562 10.769531 -25.78125 12.9375 -25.78125 C 15.113281 -25.78125 16.910156 -25.601562 18.328125 -25.25 C 19.742188 -24.90625 20.851562 -24.414062 21.65625 -23.78125 C 22.46875 -23.144531 23.03125 -22.390625 23.34375 -21.515625 C 23.65625 -20.640625 23.8125 -19.664062 23.8125 -18.59375 Z M 10 -7.890625 C 10 -7.421875 10.171875 -7.03125 10.515625 -6.71875 C 10.867188 -6.40625 11.675781 -6.25 12.9375 -6.25 C 14.207031 -6.25 15.015625 -6.40625 15.359375 -6.71875 C 15.710938 -7.03125 15.890625 -7.421875 15.890625 -7.890625 L 15.890625 -17.328125 C 15.890625 -17.773438 15.710938 -18.15625 15.359375 -18.46875 C 15.015625 -18.78125 14.207031 -18.9375 12.9375 -18.9375 C 11.675781 -18.9375 10.867188 -18.78125 10.515625 -18.46875 C 10.171875 -18.15625 10 -17.773438 10 -17.328125 Z M 10 -7.890625 "/></g></g></g><g fill="#0d4244" fill-opacity="0.302"><g transform="translate(412.676698, 52.076702)"><g><path d="M 8.9375 0 L 3.6875 0 C 3.238281 0 2.914062 -0.0976562 2.71875 -0.296875 C 2.519531 -0.492188 2.421875 -0.816406 2.421875 -1.265625 L 2.421875 -24 C 2.421875 -24.4375 2.519531 -24.753906 2.71875 -24.953125 C 2.914062 -25.148438 3.238281 -25.25 3.6875 -25.25 L 7.328125 -25.25 C 7.773438 -25.25 8.15625 -25.175781 8.46875 -25.03125 C 8.78125 -24.894531 9.09375 -24.65625 9.40625 -24.3125 L 16.203125 -16.515625 L 16.203125 -24 C 16.203125 -24.4375 16.300781 -24.753906 16.5 -24.953125 C 16.695312 -25.148438 17.019531 -25.25 17.46875 -25.25 L 22.734375 -25.25 C 23.171875 -25.25 23.488281 -25.148438 23.6875 -24.953125 C 23.894531 -24.753906 24 -24.4375 24 -24 L 24 -1.265625 C 24 -0.816406 23.894531 -0.492188 23.6875 -0.296875 C 23.488281 -0.0976562 23.171875 0 22.734375 0 L 17.46875 0 C 17.019531 0 16.695312 -0.0976562 16.5 -0.296875 C 16.300781 -0.492188 16.203125 -0.816406 16.203125 -1.265625 L 16.203125 -5.578125 L 10.203125 -12.84375 L 10.203125 -1.265625 C 10.203125 -0.816406 10.101562 -0.492188 9.90625 -0.296875 C 9.707031 -0.0976562 9.382812 0 8.9375 0 Z M 8.9375 0 "/></g></g></g><g fill="#0d4244" fill-opacity="0.502"><g transform="translate(94.260544, 50.526303)"><g><path d="M 19.21875 0 L 10.65625 0 C 7.738281 0 5.570312 -0.582031 4.15625 -1.75 C 2.738281 -2.914062 2.03125 -4.71875 2.03125 -7.15625 L 2.03125 -18.0625 C 2.03125 -20.5 2.738281 -22.304688 4.15625 -23.484375 C 5.570312 -24.660156 7.738281 -25.25 10.65625 -25.25 L 19.21875 -25.25 C 19.664062 -25.25 19.988281 -25.148438 20.1875 -24.953125 C 20.382812 -24.753906 20.484375 -24.4375 20.484375 -24 L 20.484375 -19.75 C 20.484375 -19.300781 20.382812 -18.976562 20.1875 -18.78125 C 19.988281 -18.582031 19.664062 -18.484375 19.21875 -18.484375 L 12.171875 -18.484375 C 11.441406 -18.484375 10.898438 -18.335938 10.546875 -18.046875 C 10.203125 -17.753906 10.03125 -17.316406 10.03125 -16.734375 L 10.03125 -8.390625 C 10.03125 -7.796875 10.203125 -7.363281 10.546875 -7.09375 C 10.898438 -6.832031 11.441406 -6.703125 12.171875 -6.703125 L 19.21875 -6.703125 C 19.664062 -6.703125 19.988281 -6.601562 20.1875 -6.40625 C 20.382812 -6.207031 20.484375 -5.882812 20.484375 -5.4375 L 20.484375 -1.265625 C 20.484375 -0.816406 20.382812 -0.492188 20.1875 -0.296875 C 19.988281 -0.0976562 19.664062 0 19.21875 0 Z M 19.21875 0 "/></g></g></g><g fill="#0d4244" fill-opacity="0.502"><g transform="translate(118.532342, 50.526303)"><g><path d="M 23.8125 -6.625 C 23.8125 -5.550781 23.65625 -4.578125 23.34375 -3.703125 C 23.03125 -2.828125 22.46875 -2.078125 21.65625 -1.453125 C 20.851562 -0.835938 19.742188 -0.351562 18.328125 0 C 16.910156 0.351562 15.113281 0.53125 12.9375 0.53125 C 10.769531 0.53125 8.972656 0.351562 7.546875 0 C 6.117188 -0.351562 5 -0.835938 4.1875 -1.453125 C 3.382812 -2.078125 2.820312 -2.828125 2.5 -3.703125 C 2.1875 -4.578125 2.03125 -5.550781 2.03125 -6.625 L 2.03125 -18.59375 C 2.03125 -19.664062 2.1875 -20.640625 2.5 -21.515625 C 2.820312 -22.390625 3.382812 -23.144531 4.1875 -23.78125 C 5 -24.414062 6.117188 -24.90625 7.546875 -25.25 C 8.972656 -25.601562 10.769531 -25.78125 12.9375 -25.78125 C 15.113281 -25.78125 16.910156 -25.601562 18.328125 -25.25 C 19.742188 -24.90625 20.851562 -24.414062 21.65625 -23.78125 C 22.46875 -23.144531 23.03125 -22.390625 23.34375 -21.515625 C 23.65625 -20.640625 23.8125 -19.664062 23.8125 -18.59375 Z M 10 -7.890625 C 10 -7.421875 10.171875 -7.03125 10.515625 -6.71875 C 10.867188 -6.40625 11.675781 -6.25 12.9375 -6.25 C 14.207031 -6.25 15.015625 -6.40625 15.359375 -6.71875 C 15.710938 -7.03125 15.890625 -7.421875 15.890625 -7.890625 L 15.890625 -17.328125 C 15.890625 -17.773438 15.710938 -18.15625 15.359375 -18.46875 C 15.015625 -18.78125 14.207031 -18.9375 12.9375 -18.9375 C 11.675781 -18.9375 10.867188 -18.78125 10.515625 -18.46875 C 10.171875 -18.15625 10 -17.773438 10 -17.328125 Z M 10 -7.890625 "/></g></g></g><g fill="#0d4244" fill-opacity="0.502"><g transform="translate(146.627222, 50.526303)"><g><path d="M 8.9375 0 L 3.6875 0 C 3.238281 0 2.914062 -0.0976562 2.71875 -0.296875 C 2.519531 -0.492188 2.421875 -0.816406 2.421875 -1.265625 L 2.421875 -24 C 2.421875 -24.4375 2.519531 -24.753906 2.71875 -24.953125 C 2.914062 -25.148438 3.238281 -25.25 3.6875 -25.25 L 7.328125 -25.25 C 7.773438 -25.25 8.15625 -25.175781 8.46875 -25.03125 C 8.78125 -24.894531 9.09375 -24.65625 9.40625 -24.3125 L 16.203125 -16.515625 L 16.203125 -24 C 16.203125 -24.4375 16.300781 -24.753906 16.5 -24.953125 C 16.695312 -25.148438 17.019531 -25.25 17.46875 -25.25 L 22.734375 -25.25 C 23.171875 -25.25 23.488281 -25.148438 23.6875 -24.953125 C 23.894531 -24.753906 24 -24.4375 24 -24 L 24 -1.265625 C 24 -0.816406 23.894531 -0.492188 23.6875 -0.296875 C 23.488281 -0.0976562 23.171875 0 22.734375 0 L 17.46875 0 C 17.019531 0 16.695312 -0.0976562 16.5 -0.296875 C 16.300781 -0.492188 16.203125 -0.816406 16.203125 -1.265625 L 16.203125 -5.578125 L 10.203125 -12.84375 L 10.203125 -1.265625 C 10.203125 -0.816406 10.101562 -0.492188 9.90625 -0.296875 C 9.707031 -0.0976562 9.382812 0 8.9375 0 Z M 8.9375 0 "/></g></g></g><g fill="#0d4244" fill-opacity="0.502"><g transform="translate(175.2833, 50.526303)"><g><path d="M 9.125 0 L 3.6875 0 C 3.238281 0 2.914062 -0.0976562 2.71875 -0.296875 C 2.519531 -0.492188 2.421875 -0.816406 2.421875 -1.265625 L 2.421875 -24 C 2.421875 -24.4375 2.519531 -24.753906 2.71875 -24.953125 C 2.914062 -25.148438 3.238281 -25.25 3.6875 -25.25 L 19.328125 -25.25 C 19.773438 -25.25 20.097656 -25.148438 20.296875 -24.953125 C 20.492188 -24.753906 20.59375 -24.4375 20.59375 -24 L 20.59375 -19.8125 C 20.59375 -19.375 20.492188 -19.054688 20.296875 -18.859375 C 20.097656 -18.660156 19.773438 -18.5625 19.328125 -18.5625 L 10.390625 -18.5625 L 10.390625 -14.90625 L 16.484375 -14.90625 C 16.929688 -14.90625 17.253906 -14.804688 17.453125 -14.609375 C 17.648438 -14.410156 17.75 -14.085938 17.75 -13.640625 L 17.75 -9.4375 C 17.75 -8.988281 17.648438 -8.664062 17.453125 -8.46875 C 17.253906 -8.269531 16.929688 -8.171875 16.484375 -8.171875 L 10.390625 -8.171875 L 10.390625 -1.265625 C 10.390625 -0.816406 10.285156 -0.492188 10.078125 -0.296875 C 9.878906 -0.0976562 9.5625 0 9.125 0 Z M 9.125 0 "/></g></g></g><g fill="#0d4244" fill-opacity="0.502"><g transform="translate(199.204356, 50.526303)"><g><path d="M 3.125 0 C 2.675781 0 2.351562 -0.0976562 2.15625 -0.296875 C 1.957031 -0.492188 1.859375 -0.816406 1.859375 -1.265625 L 1.859375 -5.4375 C 1.859375 -5.882812 1.957031 -6.207031 2.15625 -6.40625 C 2.351562 -6.601562 2.675781 -6.703125 3.125 -6.703125 L 6.59375 -6.703125 L 6.59375 -18.484375 L 3.125 -18.484375 C 2.675781 -18.484375 2.351562 -18.582031 2.15625 -18.78125 C 1.957031 -18.976562 1.859375 -19.300781 1.859375 -19.75 L 1.859375 -24 C 1.859375 -24.4375 1.957031 -24.753906 2.15625 -24.953125 C 2.351562 -25.148438 2.675781 -25.25 3.125 -25.25 L 18.0625 -25.25 C 18.507812 -25.25 18.832031 -25.148438 19.03125 -24.953125 C 19.226562 -24.753906 19.328125 -24.4375 19.328125 -24 L 19.328125 -19.75 C 19.328125 -19.300781 19.226562 -18.976562 19.03125 -18.78125 C 18.832031 -18.582031 18.507812 -18.484375 18.0625 -18.484375 L 14.65625 -18.484375 L 14.65625 -6.703125 L 18.0625 -6.703125 C 18.507812 -6.703125 18.832031 -6.601562 19.03125 -6.40625 C 19.226562 -6.207031 19.328125 -5.882812 19.328125 -5.4375 L 19.328125 -1.265625 C 19.328125 -0.816406 19.226562 -0.492188 19.03125 -0.296875 C 18.832031 -0.0976562 18.507812 0 18.0625 0 Z M 3.125 0 "/></g></g></g><g fill="#0d4244" fill-opacity="0.502"><g transform="translate(222.669446, 50.526303)"><g><path d="M 21.71875 0 L 10.65625 0 C 7.738281 0 5.570312 -0.582031 4.15625 -1.75 C 2.738281 -2.914062 2.03125 -4.71875 2.03125 -7.15625 L 2.03125 -18.09375 C 2.03125 -20.53125 2.738281 -22.332031 4.15625 -23.5 C 5.570312 -24.664062 7.738281 -25.25 10.65625 -25.25 L 19.4375 -25.25 C 19.875 -25.25 20.191406 -25.148438 20.390625 -24.953125 C 20.597656 -24.753906 20.703125 -24.4375 20.703125 -24 L 20.703125 -19.75 C 20.703125 -19.300781 20.597656 -18.976562 20.390625 -18.78125 C 20.191406 -18.582031 19.875 -18.484375 19.4375 -18.484375 L 12.140625 -18.484375 C 11.410156 -18.484375 10.867188 -18.335938 10.515625 -18.046875 C 10.171875 -17.753906 10 -17.316406 10 -16.734375 L 10 -8.34375 C 10 -7.757812 10.128906 -7.328125 10.390625 -7.046875 C 10.660156 -6.765625 11.066406 -6.625 11.609375 -6.625 L 15.015625 -6.625 L 15.015625 -12.109375 C 15.015625 -12.546875 15.113281 -12.863281 15.3125 -13.0625 C 15.507812 -13.257812 15.832031 -13.359375 16.28125 -13.359375 L 21.71875 -13.359375 C 22.15625 -13.359375 22.472656 -13.257812 22.671875 -13.0625 C 22.867188 -12.863281 22.96875 -12.546875 22.96875 -12.109375 L 22.96875 -1.265625 C 22.96875 -0.816406 22.867188 -0.492188 22.671875 -0.296875 C 22.472656 -0.0976562 22.15625 0 21.71875 0 Z M 21.71875 0 "/></g></g></g><g fill="#0d4244" fill-opacity="0.502"><g transform="translate(249.747173, 50.526303)"><g><path d="M 23.921875 -6.625 C 23.921875 -5.550781 23.757812 -4.578125 23.4375 -3.703125 C 23.125 -2.828125 22.566406 -2.078125 21.765625 -1.453125 C 20.960938 -0.835938 19.859375 -0.351562 18.453125 0 C 17.046875 0.351562 15.253906 0.53125 13.078125 0.53125 C 10.910156 0.53125 9.125 0.351562 7.71875 0 C 6.3125 -0.351562 5.203125 -0.835938 4.390625 -1.453125 C 3.585938 -2.078125 3.03125 -2.828125 2.71875 -3.703125 C 2.40625 -4.578125 2.25 -5.550781 2.25 -6.625 L 2.25 -24 C 2.25 -24.4375 2.347656 -24.753906 2.546875 -24.953125 C 2.742188 -25.148438 3.0625 -25.25 3.5 -25.25 L 9.015625 -25.25 C 9.460938 -25.25 9.785156 -25.148438 9.984375 -24.953125 C 10.179688 -24.753906 10.28125 -24.4375 10.28125 -24 L 10.28125 -8 C 10.28125 -7.53125 10.453125 -7.132812 10.796875 -6.8125 C 11.148438 -6.5 11.9375 -6.34375 13.15625 -6.34375 C 14.394531 -6.34375 15.1875 -6.5 15.53125 -6.8125 C 15.882812 -7.132812 16.0625 -7.53125 16.0625 -8 L 16.0625 -24 C 16.0625 -24.4375 16.160156 -24.753906 16.359375 -24.953125 C 16.554688 -25.148438 16.878906 -25.25 17.328125 -25.25 L 22.65625 -25.25 C 23.101562 -25.25 23.425781 -25.148438 23.625 -24.953125 C 23.820312 -24.753906 23.921875 -24.4375 23.921875 -24 Z M 23.921875 -6.625 "/></g></g></g><g fill="#0d4244" fill-opacity="0.502"><g transform="translate(278.157723, 50.526303)"><g><path d="M 10.34375 -18.9375 L 10.34375 -14.453125 L 12.984375 -14.453125 C 13.585938 -14.453125 13.992188 -14.609375 14.203125 -14.921875 C 14.410156 -15.242188 14.515625 -15.632812 14.515625 -16.09375 L 14.515625 -17.296875 C 14.515625 -17.765625 14.410156 -18.15625 14.203125 -18.46875 C 13.992188 -18.78125 13.585938 -18.9375 12.984375 -18.9375 Z M 9.078125 0 L 3.6875 0 C 3.238281 0 2.914062 -0.0976562 2.71875 -0.296875 C 2.519531 -0.492188 2.421875 -0.816406 2.421875 -1.265625 L 2.421875 -24 C 2.421875 -24.4375 2.519531 -24.753906 2.71875 -24.953125 C 2.914062 -25.148438 3.238281 -25.25 3.6875 -25.25 L 15.359375 -25.25 C 17.984375 -25.25 19.789062 -24.707031 20.78125 -23.625 C 21.78125 -22.539062 22.28125 -21.128906 22.28125 -19.390625 L 22.28125 -17.78125 C 22.28125 -16.800781 22.128906 -15.960938 21.828125 -15.265625 C 21.535156 -14.578125 21.03125 -14.082031 20.3125 -13.78125 C 21.570312 -13.644531 22.59375 -13.128906 23.375 -12.234375 C 24.15625 -11.347656 24.546875 -10.171875 24.546875 -8.703125 L 24.546875 -1.265625 C 24.546875 -0.816406 24.445312 -0.492188 24.25 -0.296875 C 24.050781 -0.0976562 23.734375 0 23.296875 0 L 17.859375 0 C 17.410156 0 17.085938 -0.0976562 16.890625 -0.296875 C 16.691406 -0.492188 16.59375 -0.816406 16.59375 -1.265625 L 16.59375 -6.625 C 16.59375 -7.144531 16.492188 -7.523438 16.296875 -7.765625 C 16.097656 -8.015625 15.753906 -8.140625 15.265625 -8.140625 L 10.34375 -8.140625 L 10.34375 -1.265625 C 10.34375 -0.816406 10.242188 -0.492188 10.046875 -0.296875 C 9.847656 -0.0976562 9.523438 0 9.078125 0 Z M 9.078125 0 "/></g></g></g><g fill="#0d4244" fill-opacity="0.502"><g transform="translate(306.463057, 50.526303)"><g><path d="M 11.578125 -17.890625 L 9.921875 -12.5625 L 15.4375 -12.5625 L 13.78125 -17.890625 C 13.6875 -18.097656 13.585938 -18.25 13.484375 -18.34375 C 13.378906 -18.4375 13.257812 -18.484375 13.125 -18.484375 L 12.25 -18.484375 C 12.101562 -18.484375 11.976562 -18.4375 11.875 -18.34375 C 11.769531 -18.25 11.671875 -18.097656 11.578125 -17.890625 Z M 9.578125 -1.265625 C 9.578125 -0.816406 9.476562 -0.492188 9.28125 -0.296875 C 9.082031 -0.0976562 8.757812 0 8.3125 0 L 3.15625 0 C 2.707031 0 2.382812 -0.0976562 2.1875 -0.296875 C 1.988281 -0.492188 1.890625 -0.816406 1.890625 -1.265625 L 1.890625 -10.515625 C 1.890625 -11.222656 2 -12.03125 2.21875 -12.9375 C 2.445312 -13.851562 2.796875 -14.921875 3.265625 -16.140625 L 6.3125 -24.09375 C 6.457031 -24.488281 6.675781 -24.78125 6.96875 -24.96875 C 7.257812 -25.15625 7.640625 -25.25 8.109375 -25.25 L 17.53125 -25.25 C 17.976562 -25.25 18.347656 -25.15625 18.640625 -24.96875 C 18.929688 -24.78125 19.148438 -24.488281 19.296875 -24.09375 L 22.34375 -16.140625 C 22.8125 -14.921875 23.15625 -13.851562 23.375 -12.9375 C 23.601562 -12.03125 23.71875 -11.222656 23.71875 -10.515625 L 23.71875 -1.265625 C 23.71875 -0.816406 23.613281 -0.492188 23.40625 -0.296875 C 23.207031 -0.0976562 22.890625 0 22.453125 0 L 17.15625 0 C 16.6875 0 16.335938 -0.0976562 16.109375 -0.296875 C 15.890625 -0.492188 15.78125 -0.816406 15.78125 -1.265625 L 15.78125 -6.171875 L 9.578125 -6.171875 Z M 9.578125 -1.265625 "/></g></g></g><g fill="#0d4244" fill-opacity="0.502"><g transform="translate(334.312435, 50.526303)"><g><path d="M 14.34375 0 L 8.671875 0 C 8.222656 0 7.898438 -0.0976562 7.703125 -0.296875 C 7.503906 -0.492188 7.40625 -0.816406 7.40625 -1.265625 L 7.40625 -18.484375 L 2.25 -18.484375 C 1.800781 -18.484375 1.476562 -18.582031 1.28125 -18.78125 C 1.082031 -18.976562 0.984375 -19.300781 0.984375 -19.75 L 0.984375 -24 C 0.984375 -24.4375 1.082031 -24.753906 1.28125 -24.953125 C 1.476562 -25.148438 1.800781 -25.25 2.25 -25.25 L 20.765625 -25.25 C 21.210938 -25.25 21.535156 -25.148438 21.734375 -24.953125 C 21.929688 -24.753906 22.03125 -24.4375 22.03125 -24 L 22.03125 -19.75 C 22.03125 -19.300781 21.929688 -18.976562 21.734375 -18.78125 C 21.535156 -18.582031 21.210938 -18.484375 20.765625 -18.484375 L 15.609375 -18.484375 L 15.609375 -1.265625 C 15.609375 -0.816406 15.507812 -0.492188 15.3125 -0.296875 C 15.113281 -0.0976562 14.789062 0 14.34375 0 Z M 14.34375 0 "/></g></g></g><g fill="#0d4244" fill-opacity="0.502"><g transform="translate(359.566316, 50.526303)"><g><path d="M 3.125 0 C 2.675781 0 2.351562 -0.0976562 2.15625 -0.296875 C 1.957031 -0.492188 1.859375 -0.816406 1.859375 -1.265625 L 1.859375 -5.4375 C 1.859375 -5.882812 1.957031 -6.207031 2.15625 -6.40625 C 2.351562 -6.601562 2.675781 -6.703125 3.125 -6.703125 L 6.59375 -6.703125 L 6.59375 -18.484375 L 3.125 -18.484375 C 2.675781 -18.484375 2.351562 -18.582031 2.15625 -18.78125 C 1.957031 -18.976562 1.859375 -19.300781 1.859375 -19.75 L 1.859375 -24 C 1.859375 -24.4375 1.957031 -24.753906 2.15625 -24.953125 C 2.351562 -25.148438 2.675781 -25.25 3.125 -25.25 L 18.0625 -25.25 C 18.507812 -25.25 18.832031 -25.148438 19.03125 -24.953125 C 19.226562 -24.753906 19.328125 -24.4375 19.328125 -24 L 19.328125 -19.75 C 19.328125 -19.300781 19.226562 -18.976562 19.03125 -18.78125 C 18.832031 -18.582031 18.507812 -18.484375 18.0625 -18.484375 L 14.65625 -18.484375 L 14.65625 -6.703125 L 18.0625 -6.703125 C 18.507812 -6.703125 18.832031 -6.601562 19.03125 -6.40625 C 19.226562 -6.207031 19.328125 -5.882812 19.328125 -5.4375 L 19.328125 -1.265625 C 19.328125 -0.816406 19.226562 -0.492188 19.03125 -0.296875 C 18.832031 -0.0976562 18.507812 0 18.0625 0 Z M 3.125 0 "/></g></g></g><g fill="#0d4244" fill-opacity="0.502"><g transform="translate(383.031417, 50.526303)"><g><path d="M 23.8125 -6.625 C 23.8125 -5.550781 23.65625 -4.578125 23.34375 -3.703125 C 23.03125 -2.828125 22.46875 -2.078125 21.65625 -1.453125 C 20.851562 -0.835938 19.742188 -0.351562 18.328125 0 C 16.910156 0.351562 15.113281 0.53125 12.9375 0.53125 C 10.769531 0.53125 8.972656 0.351562 7.546875 0 C 6.117188 -0.351562 5 -0.835938 4.1875 -1.453125 C 3.382812 -2.078125 2.820312 -2.828125 2.5 -3.703125 C 2.1875 -4.578125 2.03125 -5.550781 2.03125 -6.625 L 2.03125 -18.59375 C 2.03125 -19.664062 2.1875 -20.640625 2.5 -21.515625 C 2.820312 -22.390625 3.382812 -23.144531 4.1875 -23.78125 C 5 -24.414062 6.117188 -24.90625 7.546875 -25.25 C 8.972656 -25.601562 10.769531 -25.78125 12.9375 -25.78125 C 15.113281 -25.78125 16.910156 -25.601562 18.328125 -25.25 C 19.742188 -24.90625 20.851562 -24.414062 21.65625 -23.78125 C 22.46875 -23.144531 23.03125 -22.390625 23.34375 -21.515625 C 23.65625 -20.640625 23.8125 -19.664062 23.8125 -18.59375 Z M 10 -7.890625 C 10 -7.421875 10.171875 -7.03125 10.515625 -6.71875 C 10.867188 -6.40625 11.675781 -6.25 12.9375 -6.25 C 14.207031 -6.25 15.015625 -6.40625 15.359375 -6.71875 C 15.710938 -7.03125 15.890625 -7.421875 15.890625 -7.890625 L 15.890625 -17.328125 C 15.890625 -17.773438 15.710938 -18.15625 15.359375 -18.46875 C 15.015625 -18.78125 14.207031 -18.9375 12.9375 -18.9375 C 11.675781 -18.9375 10.867188 -18.78125 10.515625 -18.46875 C 10.171875 -18.15625 10 -17.773438 10 -17.328125 Z M 10 -7.890625 "/></g></g></g><g fill="#0d4244" fill-opacity="0.502"><g transform="translate(411.126294, 50.526303)"><g><path d="M 8.9375 0 L 3.6875 0 C 3.238281 0 2.914062 -0.0976562 2.71875 -0.296875 C 2.519531 -0.492188 2.421875 -0.816406 2.421875 -1.265625 L 2.421875 -24 C 2.421875 -24.4375 2.519531 -24.753906 2.71875 -24.953125 C 2.914062 -25.148438 3.238281 -25.25 3.6875 -25.25 L 7.328125 -25.25 C 7.773438 -25.25 8.15625 -25.175781 8.46875 -25.03125 C 8.78125 -24.894531 9.09375 -24.65625 9.40625 -24.3125 L 16.203125 -16.515625 L 16.203125 -24 C 16.203125 -24.4375 16.300781 -24.753906 16.5 -24.953125 C 16.695312 -25.148438 17.019531 -25.25 17.46875 -25.25 L 22.734375 -25.25 C 23.171875 -25.25 23.488281 -25.148438 23.6875 -24.953125 C 23.894531 -24.753906 24 -24.4375 24 -24 L 24 -1.265625 C 24 -0.816406 23.894531 -0.492188 23.6875 -0.296875 C 23.488281 -0.0976562 23.171875 0 22.734375 0 L 17.46875 0 C 17.019531 0 16.695312 -0.0976562 16.5 -0.296875 C 16.300781 -0.492188 16.203125 -0.816406 16.203125 -1.265625 L 16.203125 -5.578125 L 10.203125 -12.84375 L 10.203125 -1.265625 C 10.203125 -0.816406 10.101562 -0.492188 9.90625 -0.296875 C 9.707031 -0.0976562 9.382812 0 8.9375 0 Z M 8.9375 0 "/></g></g></g><g fill="#ffffff" fill-opacity="1"><g transform="translate(92.710146, 48.975903)"><g><path d="M 19.21875 0 L 10.65625 0 C 7.738281 0 5.570312 -0.582031 4.15625 -1.75 C 2.738281 -2.914062 2.03125 -4.71875 2.03125 -7.15625 L 2.03125 -18.0625 C 2.03125 -20.5 2.738281 -22.304688 4.15625 -23.484375 C 5.570312 -24.660156 7.738281 -25.25 10.65625 -25.25 L 19.21875 -25.25 C 19.664062 -25.25 19.988281 -25.148438 20.1875 -24.953125 C 20.382812 -24.753906 20.484375 -24.4375 20.484375 -24 L 20.484375 -19.75 C 20.484375 -19.300781 20.382812 -18.976562 20.1875 -18.78125 C 19.988281 -18.582031 19.664062 -18.484375 19.21875 -18.484375 L 12.171875 -18.484375 C 11.441406 -18.484375 10.898438 -18.335938 10.546875 -18.046875 C 10.203125 -17.753906 10.03125 -17.316406 10.03125 -16.734375 L 10.03125 -8.390625 C 10.03125 -7.796875 10.203125 -7.363281 10.546875 -7.09375 C 10.898438 -6.832031 11.441406 -6.703125 12.171875 -6.703125 L 19.21875 -6.703125 C 19.664062 -6.703125 19.988281 -6.601562 20.1875 -6.40625 C 20.382812 -6.207031 20.484375 -5.882812 20.484375 -5.4375 L 20.484375 -1.265625 C 20.484375 -0.816406 20.382812 -0.492188 20.1875 -0.296875 C 19.988281 -0.0976562 19.664062 0 19.21875 0 Z M 19.21875 0 "/></g></g></g><g fill="#ffffff" fill-opacity="1"><g transform="translate(116.981944, 48.975903)"><g><path d="M 23.8125 -6.625 C 23.8125 -5.550781 23.65625 -4.578125 23.34375 -3.703125 C 23.03125 -2.828125 22.46875 -2.078125 21.65625 -1.453125 C 20.851562 -0.835938 19.742188 -0.351562 18.328125 0 C 16.910156 0.351562 15.113281 0.53125 12.9375 0.53125 C 10.769531 0.53125 8.972656 0.351562 7.546875 0 C 6.117188 -0.351562 5 -0.835938 4.1875 -1.453125 C 3.382812 -2.078125 2.820312 -2.828125 2.5 -3.703125 C 2.1875 -4.578125 2.03125 -5.550781 2.03125 -6.625 L 2.03125 -18.59375 C 2.03125 -19.664062 2.1875 -20.640625 2.5 -21.515625 C 2.820312 -22.390625 3.382812 -23.144531 4.1875 -23.78125 C 5 -24.414062 6.117188 -24.90625 7.546875 -25.25 C 8.972656 -25.601562 10.769531 -25.78125 12.9375 -25.78125 C 15.113281 -25.78125 16.910156 -25.601562 18.328125 -25.25 C 19.742188 -24.90625 20.851562 -24.414062 21.65625 -23.78125 C 22.46875 -23.144531 23.03125 -22.390625 23.34375 -21.515625 C 23.65625 -20.640625 23.8125 -19.664062 23.8125 -18.59375 Z M 10 -7.890625 C 10 -7.421875 10.171875 -7.03125 10.515625 -6.71875 C 10.867188 -6.40625 11.675781 -6.25 12.9375 -6.25 C 14.207031 -6.25 15.015625 -6.40625 15.359375 -6.71875 C 15.710938 -7.03125 15.890625 -7.421875 15.890625 -7.890625 L 15.890625 -17.328125 C 15.890625 -17.773438 15.710938 -18.15625 15.359375 -18.46875 C 15.015625 -18.78125 14.207031 -18.9375 12.9375 -18.9375 C 11.675781 -18.9375 10.867188 -18.78125 10.515625 -18.46875 C 10.171875 -18.15625 10 -17.773438 10 -17.328125 Z M 10 -7.890625 "/></g></g></g><g fill="#ffffff" fill-opacity="1"><g transform="translate(145.076824, 48.975903)"><g><path d="M 8.9375 0 L 3.6875 0 C 3.238281 0 2.914062 -0.0976562 2.71875 -0.296875 C 2.519531 -0.492188 2.421875 -0.816406 2.421875 -1.265625 L 2.421875 -24 C 2.421875 -24.4375 2.519531 -24.753906 2.71875 -24.953125 C 2.914062 -25.148438 3.238281 -25.25 3.6875 -25.25 L 7.328125 -25.25 C 7.773438 -25.25 8.15625 -25.175781 8.46875 -25.03125 C 8.78125 -24.894531 9.09375 -24.65625 9.40625 -24.3125 L 16.203125 -16.515625 L 16.203125 -24 C 16.203125 -24.4375 16.300781 -24.753906 16.5 -24.953125 C 16.695312 -25.148438 17.019531 -25.25 17.46875 -25.25 L 22.734375 -25.25 C 23.171875 -25.25 23.488281 -25.148438 23.6875 -24.953125 C 23.894531 -24.753906 24 -24.4375 24 -24 L 24 -1.265625 C 24 -0.816406 23.894531 -0.492188 23.6875 -0.296875 C 23.488281 -0.0976562 23.171875 0 22.734375 0 L 17.46875 0 C 17.019531 0 16.695312 -0.0976562 16.5 -0.296875 C 16.300781 -0.492188 16.203125 -0.816406 16.203125 -1.265625 L 16.203125 -5.578125 L 10.203125 -12.84375 L 10.203125 -1.265625 C 10.203125 -0.816406 10.101562 -0.492188 9.90625 -0.296875 C 9.707031 -0.0976562 9.382812 0 8.9375 0 Z M 8.9375 0 "/></g></g></g><g fill="#ffffff" fill-opacity="1"><g transform="translate(173.732902, 48.975903)"><g><path d="M 9.125 0 L 3.6875 0 C 3.238281 0 2.914062 -0.0976562 2.71875 -0.296875 C 2.519531 -0.492188 2.421875 -0.816406 2.421875 -1.265625 L 2.421875 -24 C 2.421875 -24.4375 2.519531 -24.753906 2.71875 -24.953125 C 2.914062 -25.148438 3.238281 -25.25 3.6875 -25.25 L 19.328125 -25.25 C 19.773438 -25.25 20.097656 -25.148438 20.296875 -24.953125 C 20.492188 -24.753906 20.59375 -24.4375 20.59375 -24 L 20.59375 -19.8125 C 20.59375 -19.375 20.492188 -19.054688 20.296875 -18.859375 C 20.097656 -18.660156 19.773438 -18.5625 19.328125 -18.5625 L 10.390625 -18.5625 L 10.390625 -14.90625 L 16.484375 -14.90625 C 16.929688 -14.90625 17.253906 -14.804688 17.453125 -14.609375 C 17.648438 -14.410156 17.75 -14.085938 17.75 -13.640625 L 17.75 -9.4375 C 17.75 -8.988281 17.648438 -8.664062 17.453125 -8.46875 C 17.253906 -8.269531 16.929688 -8.171875 16.484375 -8.171875 L 10.390625 -8.171875 L 10.390625 -1.265625 C 10.390625 -0.816406 10.285156 -0.492188 10.078125 -0.296875 C 9.878906 -0.0976562 9.5625 0 9.125 0 Z M 9.125 0 "/></g></g></g><g fill="#ffffff" fill-opacity="1"><g transform="translate(197.653959, 48.975903)"><g><path d="M 3.125 0 C 2.675781 0 2.351562 -0.0976562 2.15625 -0.296875 C 1.957031 -0.492188 1.859375 -0.816406 1.859375 -1.265625 L 1.859375 -5.4375 C 1.859375 -5.882812 1.957031 -6.207031 2.15625 -6.40625 C 2.351562 -6.601562 2.675781 -6.703125 3.125 -6.703125 L 6.59375 -6.703125 L 6.59375 -18.484375 L 3.125 -18.484375 C 2.675781 -18.484375 2.351562 -18.582031 2.15625 -18.78125 C 1.957031 -18.976562 1.859375 -19.300781 1.859375 -19.75 L 1.859375 -24 C 1.859375 -24.4375 1.957031 -24.753906 2.15625 -24.953125 C 2.351562 -25.148438 2.675781 -25.25 3.125 -25.25 L 18.0625 -25.25 C 18.507812 -25.25 18.832031 -25.148438 19.03125 -24.953125 C 19.226562 -24.753906 19.328125 -24.4375 19.328125 -24 L 19.328125 -19.75 C 19.328125 -19.300781 19.226562 -18.976562 19.03125 -18.78125 C 18.832031 -18.582031 18.507812 -18.484375 18.0625 -18.484375 L 14.65625 -18.484375 L 14.65625 -6.703125 L 18.0625 -6.703125 C 18.507812 -6.703125 18.832031 -6.601562 19.03125 -6.40625 C 19.226562 -6.207031 19.328125 -5.882812 19.328125 -5.4375 L 19.328125 -1.265625 C 19.328125 -0.816406 19.226562 -0.492188 19.03125 -0.296875 C 18.832031 -0.0976562 18.507812 0 18.0625 0 Z M 3.125 0 "/></g></g></g><g fill="#ffffff" fill-opacity="1"><g transform="translate(221.119049, 48.975903)"><g><path d="M 21.71875 0 L 10.65625 0 C 7.738281 0 5.570312 -0.582031 4.15625 -1.75 C 2.738281 -2.914062 2.03125 -4.71875 2.03125 -7.15625 L 2.03125 -18.09375 C 2.03125 -20.53125 2.738281 -22.332031 4.15625 -23.5 C 5.570312 -24.664062 7.738281 -25.25 10.65625 -25.25 L 19.4375 -25.25 C 19.875 -25.25 20.191406 -25.148438 20.390625 -24.953125 C 20.597656 -24.753906 20.703125 -24.4375 20.703125 -24 L 20.703125 -19.75 C 20.703125 -19.300781 20.597656 -18.976562 20.390625 -18.78125 C 20.191406 -18.582031 19.875 -18.484375 19.4375 -18.484375 L 12.140625 -18.484375 C 11.410156 -18.484375 10.867188 -18.335938 10.515625 -18.046875 C 10.171875 -17.753906 10 -17.316406 10 -16.734375 L 10 -8.34375 C 10 -7.757812 10.128906 -7.328125 10.390625 -7.046875 C 10.660156 -6.765625 11.066406 -6.625 11.609375 -6.625 L 15.015625 -6.625 L 15.015625 -12.109375 C 15.015625 -12.546875 15.113281 -12.863281 15.3125 -13.0625 C 15.507812 -13.257812 15.832031 -13.359375 16.28125 -13.359375 L 21.71875 -13.359375 C 22.15625 -13.359375 22.472656 -13.257812 22.671875 -13.0625 C 22.867188 -12.863281 22.96875 -12.546875 22.96875 -12.109375 L 22.96875 -1.265625 C 22.96875 -0.816406 22.867188 -0.492188 22.671875 -0.296875 C 22.472656 -0.0976562 22.15625 0 21.71875 0 Z M 21.71875 0 "/></g></g></g><g fill="#ffffff" fill-opacity="1"><g transform="translate(248.196775, 48.975903)"><g><path d="M 23.921875 -6.625 C 23.921875 -5.550781 23.757812 -4.578125 23.4375 -3.703125 C 23.125 -2.828125 22.566406 -2.078125 21.765625 -1.453125 C 20.960938 -0.835938 19.859375 -0.351562 18.453125 0 C 17.046875 0.351562 15.253906 0.53125 13.078125 0.53125 C 10.910156 0.53125 9.125 0.351562 7.71875 0 C 6.3125 -0.351562 5.203125 -0.835938 4.390625 -1.453125 C 3.585938 -2.078125 3.03125 -2.828125 2.71875 -3.703125 C 2.40625 -4.578125 2.25 -5.550781 2.25 -6.625 L 2.25 -24 C 2.25 -24.4375 2.347656 -24.753906 2.546875 -24.953125 C 2.742188 -25.148438 3.0625 -25.25 3.5 -25.25 L 9.015625 -25.25 C 9.460938 -25.25 9.785156 -25.148438 9.984375 -24.953125 C 10.179688 -24.753906 10.28125 -24.4375 10.28125 -24 L 10.28125 -8 C 10.28125 -7.53125 10.453125 -7.132812 10.796875 -6.8125 C 11.148438 -6.5 11.9375 -6.34375 13.15625 -6.34375 C 14.394531 -6.34375 15.1875 -6.5 15.53125 -6.8125 C 15.882812 -7.132812 16.0625 -7.53125 16.0625 -8 L 16.0625 -24 C 16.0625 -24.4375 16.160156 -24.753906 16.359375 -24.953125 C 16.554688 -25.148438 16.878906 -25.25 17.328125 -25.25 L 22.65625 -25.25 C 23.101562 -25.25 23.425781 -25.148438 23.625 -24.953125 C 23.820312 -24.753906 23.921875 -24.4375 23.921875 -24 Z M 23.921875 -6.625 "/></g></g></g><g fill="#ffffff" fill-opacity="1"><g transform="translate(276.607325, 48.975903)"><g><path d="M 10.34375 -18.9375 L 10.34375 -14.453125 L 12.984375 -14.453125 C 13.585938 -14.453125 13.992188 -14.609375 14.203125 -14.921875 C 14.410156 -15.242188 14.515625 -15.632812 14.515625 -16.09375 L 14.515625 -17.296875 C 14.515625 -17.765625 14.410156 -18.15625 14.203125 -18.46875 C 13.992188 -18.78125 13.585938 -18.9375 12.984375 -18.9375 Z M 9.078125 0 L 3.6875 0 C 3.238281 0 2.914062 -0.0976562 2.71875 -0.296875 C 2.519531 -0.492188 2.421875 -0.816406 2.421875 -1.265625 L 2.421875 -24 C 2.421875 -24.4375 2.519531 -24.753906 2.71875 -24.953125 C 2.914062 -25.148438 3.238281 -25.25 3.6875 -25.25 L 15.359375 -25.25 C 17.984375 -25.25 19.789062 -24.707031 20.78125 -23.625 C 21.78125 -22.539062 22.28125 -21.128906 22.28125 -19.390625 L 22.28125 -17.78125 C 22.28125 -16.800781 22.128906 -15.960938 21.828125 -15.265625 C 21.535156 -14.578125 21.03125 -14.082031 20.3125 -13.78125 C 21.570312 -13.644531 22.59375 -13.128906 23.375 -12.234375 C 24.15625 -11.347656 24.546875 -10.171875 24.546875 -8.703125 L 24.546875 -1.265625 C 24.546875 -0.816406 24.445312 -0.492188 24.25 -0.296875 C 24.050781 -0.0976562 23.734375 0 23.296875 0 L 17.859375 0 C 17.410156 0 17.085938 -0.0976562 16.890625 -0.296875 C 16.691406 -0.492188 16.59375 -0.816406 16.59375 -1.265625 L 16.59375 -6.625 C 16.59375 -7.144531 16.492188 -7.523438 16.296875 -7.765625 C 16.097656 -8.015625 15.753906 -8.140625 15.265625 -8.140625 L 10.34375 -8.140625 L 10.34375 -1.265625 C 10.34375 -0.816406 10.242188 -0.492188 10.046875 -0.296875 C 9.847656 -0.0976562 9.523438 0 9.078125 0 Z M 9.078125 0 "/></g></g></g><g fill="#ffffff" fill-opacity="1"><g transform="translate(304.912659, 48.975903)"><g><path d="M 11.578125 -17.890625 L 9.921875 -12.5625 L 15.4375 -12.5625 L 13.78125 -17.890625 C 13.6875 -18.097656 13.585938 -18.25 13.484375 -18.34375 C 13.378906 -18.4375 13.257812 -18.484375 13.125 -18.484375 L 12.25 -18.484375 C 12.101562 -18.484375 11.976562 -18.4375 11.875 -18.34375 C 11.769531 -18.25 11.671875 -18.097656 11.578125 -17.890625 Z M 9.578125 -1.265625 C 9.578125 -0.816406 9.476562 -0.492188 9.28125 -0.296875 C 9.082031 -0.0976562 8.757812 0 8.3125 0 L 3.15625 0 C 2.707031 0 2.382812 -0.0976562 2.1875 -0.296875 C 1.988281 -0.492188 1.890625 -0.816406 1.890625 -1.265625 L 1.890625 -10.515625 C 1.890625 -11.222656 2 -12.03125 2.21875 -12.9375 C 2.445312 -13.851562 2.796875 -14.921875 3.265625 -16.140625 L 6.3125 -24.09375 C 6.457031 -24.488281 6.675781 -24.78125 6.96875 -24.96875 C 7.257812 -25.15625 7.640625 -25.25 8.109375 -25.25 L 17.53125 -25.25 C 17.976562 -25.25 18.347656 -25.15625 18.640625 -24.96875 C 18.929688 -24.78125 19.148438 -24.488281 19.296875 -24.09375 L 22.34375 -16.140625 C 22.8125 -14.921875 23.15625 -13.851562 23.375 -12.9375 C 23.601562 -12.03125 23.71875 -11.222656 23.71875 -10.515625 L 23.71875 -1.265625 C 23.71875 -0.816406 23.613281 -0.492188 23.40625 -0.296875 C 23.207031 -0.0976562 22.890625 0 22.453125 0 L 17.15625 0 C 16.6875 0 16.335938 -0.0976562 16.109375 -0.296875 C 15.890625 -0.492188 15.78125 -0.816406 15.78125 -1.265625 L 15.78125 -6.171875 L 9.578125 -6.171875 Z M 9.578125 -1.265625 "/></g></g></g><g fill="#ffffff" fill-opacity="1"><g transform="translate(332.762037, 48.975903)"><g><path d="M 14.34375 0 L 8.671875 0 C 8.222656 0 7.898438 -0.0976562 7.703125 -0.296875 C 7.503906 -0.492188 7.40625 -0.816406 7.40625 -1.265625 L 7.40625 -18.484375 L 2.25 -18.484375 C 1.800781 -18.484375 1.476562 -18.582031 1.28125 -18.78125 C 1.082031 -18.976562 0.984375 -19.300781 0.984375 -19.75 L 0.984375 -24 C 0.984375 -24.4375 1.082031 -24.753906 1.28125 -24.953125 C 1.476562 -25.148438 1.800781 -25.25 2.25 -25.25 L 20.765625 -25.25 C 21.210938 -25.25 21.535156 -25.148438 21.734375 -24.953125 C 21.929688 -24.753906 22.03125 -24.4375 22.03125 -24 L 22.03125 -19.75 C 22.03125 -19.300781 21.929688 -18.976562 21.734375 -18.78125 C 21.535156 -18.582031 21.210938 -18.484375 20.765625 -18.484375 L 15.609375 -18.484375 L 15.609375 -1.265625 C 15.609375 -0.816406 15.507812 -0.492188 15.3125 -0.296875 C 15.113281 -0.0976562 14.789062 0 14.34375 0 Z M 14.34375 0 "/></g></g></g><g fill="#ffffff" fill-opacity="1"><g transform="translate(358.015918, 48.975903)"><g><path d="M 3.125 0 C 2.675781 0 2.351562 -0.0976562 2.15625 -0.296875 C 1.957031 -0.492188 1.859375 -0.816406 1.859375 -1.265625 L 1.859375 -5.4375 C 1.859375 -5.882812 1.957031 -6.207031 2.15625 -6.40625 C 2.351562 -6.601562 2.675781 -6.703125 3.125 -6.703125 L 6.59375 -6.703125 L 6.59375 -18.484375 L 3.125 -18.484375 C 2.675781 -18.484375 2.351562 -18.582031 2.15625 -18.78125 C 1.957031 -18.976562 1.859375 -19.300781 1.859375 -19.75 L 1.859375 -24 C 1.859375 -24.4375 1.957031 -24.753906 2.15625 -24.953125 C 2.351562 -25.148438 2.675781 -25.25 3.125 -25.25 L 18.0625 -25.25 C 18.507812 -25.25 18.832031 -25.148438 19.03125 -24.953125 C 19.226562 -24.753906 19.328125 -24.4375 19.328125 -24 L 19.328125 -19.75 C 19.328125 -19.300781 19.226562 -18.976562 19.03125 -18.78125 C 18.832031 -18.582031 18.507812 -18.484375 18.0625 -18.484375 L 14.65625 -18.484375 L 14.65625 -6.703125 L 18.0625 -6.703125 C 18.507812 -6.703125 18.832031 -6.601562 19.03125 -6.40625 C 19.226562 -6.207031 19.328125 -5.882812 19.328125 -5.4375 L 19.328125 -1.265625 C 19.328125 -0.816406 19.226562 -0.492188 19.03125 -0.296875 C 18.832031 -0.0976562 18.507812 0 18.0625 0 Z M 3.125 0 "/></g></g></g><g fill="#ffffff" fill-opacity="1"><g transform="translate(381.481019, 48.975903)"><g><path d="M 23.8125 -6.625 C 23.8125 -5.550781 23.65625 -4.578125 23.34375 -3.703125 C 23.03125 -2.828125 22.46875 -2.078125 21.65625 -1.453125 C 20.851562 -0.835938 19.742188 -0.351562 18.328125 0 C 16.910156 0.351562 15.113281 0.53125 12.9375 0.53125 C 10.769531 0.53125 8.972656 0.351562 7.546875 0 C 6.117188 -0.351562 5 -0.835938 4.1875 -1.453125 C 3.382812 -2.078125 2.820312 -2.828125 2.5 -3.703125 C 2.1875 -4.578125 2.03125 -5.550781 2.03125 -6.625 L 2.03125 -18.59375 C 2.03125 -19.664062 2.1875 -20.640625 2.5 -21.515625 C 2.820312 -22.390625 3.382812 -23.144531 4.1875 -23.78125 C 5 -24.414062 6.117188 -24.90625 7.546875 -25.25 C 8.972656 -25.601562 10.769531 -25.78125 12.9375 -25.78125 C 15.113281 -25.78125 16.910156 -25.601562 18.328125 -25.25 C 19.742188 -24.90625 20.851562 -24.414062 21.65625 -23.78125 C 22.46875 -23.144531 23.03125 -22.390625 23.34375 -21.515625 C 23.65625 -20.640625 23.8125 -19.664062 23.8125 -18.59375 Z M 10 -7.890625 C 10 -7.421875 10.171875 -7.03125 10.515625 -6.71875 C 10.867188 -6.40625 11.675781 -6.25 12.9375 -6.25 C 14.207031 -6.25 15.015625 -6.40625 15.359375 -6.71875 C 15.710938 -7.03125 15.890625 -7.421875 15.890625 -7.890625 L 15.890625 -17.328125 C 15.890625 -17.773438 15.710938 -18.15625 15.359375 -18.46875 C 15.015625 -18.78125 14.207031 -18.9375 12.9375 -18.9375 C 11.675781 -18.9375 10.867188 -18.78125 10.515625 -18.46875 C 10.171875 -18.15625 10 -17.773438 10 -17.328125 Z M 10 -7.890625 "/></g></g></g><g fill="#ffffff" fill-opacity="1"><g transform="translate(409.575896, 48.975903)"><g><path d="M 8.9375 0 L 3.6875 0 C 3.238281 0 2.914062 -0.0976562 2.71875 -0.296875 C 2.519531 -0.492188 2.421875 -0.816406 2.421875 -1.265625 L 2.421875 -24 C 2.421875 -24.4375 2.519531 -24.753906 2.71875 -24.953125 C 2.914062 -25.148438 3.238281 -25.25 3.6875 -25.25 L 7.328125 -25.25 C 7.773438 -25.25 8.15625 -25.175781 8.46875 -25.03125 C 8.78125 -24.894531 9.09375 -24.65625 9.40625 -24.3125 L 16.203125 -16.515625 L 16.203125 -24 C 16.203125 -24.4375 16.300781 -24.753906 16.5 -24.953125 C 16.695312 -25.148438 17.019531 -25.25 17.46875 -25.25 L 22.734375 -25.25 C 23.171875 -25.25 23.488281 -25.148438 23.6875 -24.953125 C 23.894531 -24.753906 24 -24.4375 24 -24 L 24 -1.265625 C 24 -0.816406 23.894531 -0.492188 23.6875 -0.296875 C 23.488281 -0.0976562 23.171875 0 22.734375 0 L 17.46875 0 C 17.019531 0 16.695312 -0.0976562 16.5 -0.296875 C 16.300781 -0.492188 16.203125 -0.816406 16.203125 -1.265625 L 16.203125 -5.578125 L 10.203125 -12.84375 L 10.203125 -1.265625 C 10.203125 -0.816406 10.101562 -0.492188 9.90625 -0.296875 C 9.707031 -0.0976562 9.382812 0 8.9375 0 Z M 8.9375 0 "/></g></g></g><g clip-path="url(#f4be77d789)"><path fill="#356264" d="M 30.914062 37.753906 C 28.457031 37.753906 26.464844 35.765625 26.464844 33.316406 C 26.464844 30.863281 28.457031 28.875 30.914062 28.875 C 33.375 28.875 35.367188 30.863281 35.367188 33.316406 C 35.367188 35.765625 33.375 37.753906 30.914062 37.753906 Z M 47.425781 31.023438 L 46.535156 30.894531 C 45.261719 30.703125 44.199219 29.839844 43.757812 28.636719 C 43.625 28.277344 43.480469 27.925781 43.316406 27.578125 C 42.777344 26.414062 42.910156 25.046875 43.675781 24.015625 L 44.214844 23.289062 C 44.425781 23.003906 44.398438 22.605469 44.144531 22.355469 L 41.90625 20.121094 C 41.652344 19.871094 41.253906 19.839844 40.96875 20.050781 L 40.242188 20.589844 C 39.207031 21.355469 37.835938 21.488281 36.667969 20.945312 C 36.320312 20.785156 35.96875 20.636719 35.605469 20.507812 C 34.402344 20.066406 33.535156 19.003906 33.34375 17.738281 L 33.210938 16.847656 C 33.160156 16.496094 32.855469 16.234375 32.5 16.234375 L 29.332031 16.234375 C 28.976562 16.234375 28.671875 16.496094 28.621094 16.847656 L 28.488281 17.738281 C 28.296875 19.003906 27.429688 20.066406 26.226562 20.507812 C 25.863281 20.636719 25.511719 20.785156 25.164062 20.945312 C 23.996094 21.488281 22.625 21.355469 21.589844 20.589844 L 20.863281 20.050781 C 20.578125 19.839844 20.179688 19.871094 19.925781 20.121094 L 17.6875 22.355469 C 17.433594 22.605469 17.40625 23.003906 17.617188 23.289062 L 18.15625 24.015625 C 18.921875 25.046875 19.054688 26.414062 18.511719 27.578125 C 18.351562 27.925781 18.207031 28.277344 18.074219 28.636719 C 17.632812 29.839844 16.566406 30.703125 15.296875 30.894531 L 14.40625 31.023438 C 14.050781 31.078125 13.792969 31.378906 13.792969 31.734375 L 13.792969 34.894531 C 13.792969 35.25 14.050781 35.554688 14.40625 35.605469 L 15.296875 35.738281 C 16.566406 35.925781 17.632812 36.789062 18.074219 37.992188 C 18.207031 38.351562 18.351562 38.707031 18.511719 39.050781 C 19.054688 40.21875 18.921875 41.585938 18.15625 42.617188 L 17.617188 43.339844 C 17.40625 43.625 17.433594 44.023438 17.6875 44.277344 L 19.925781 46.507812 C 20.179688 46.761719 20.578125 46.789062 20.863281 46.578125 L 21.589844 46.042969 C 22.625 45.277344 23.996094 45.144531 25.164062 45.683594 C 25.511719 45.84375 25.863281 45.992188 26.226562 46.121094 C 27.429688 46.5625 28.296875 47.625 28.488281 48.890625 L 28.621094 49.78125 C 28.671875 50.132812 28.976562 50.394531 29.332031 50.394531 L 32.5 50.394531 C 32.855469 50.394531 33.160156 50.132812 33.210938 49.78125 L 33.34375 48.890625 C 33.535156 47.625 34.402344 46.5625 35.605469 46.121094 C 35.96875 45.992188 36.320312 45.84375 36.667969 45.683594 C 37.835938 45.144531 39.207031 45.277344 40.242188 46.042969 L 40.96875 46.578125 C 41.253906 46.789062 41.652344 46.761719 41.90625 46.507812 L 44.144531 44.277344 C 44.398438 44.023438 44.425781 43.625 44.214844 43.339844 L 43.675781 42.617188 C 42.910156 41.585938 42.777344 40.21875 43.316406 39.050781 C 43.480469 38.707031 43.625 38.351562 43.757812 37.992188 C 44.199219 36.789062 45.261719 35.925781 46.535156 35.738281 L 47.425781 35.605469 C 47.777344 35.554688 48.039062 35.25 48.039062 34.894531 L 48.039062 31.734375 C 48.039062 31.378906 47.777344 31.078125 47.425781 31.023438 Z M 58.917969 54.832031 C 56.457031 54.832031 54.464844 52.847656 54.464844 50.394531 C 54.464844 47.945312 56.457031 45.957031 58.917969 45.957031 C 61.375 45.957031 63.367188 47.945312 63.367188 50.394531 C 63.367188 52.847656 61.375 54.832031 58.917969 54.832031 Z M 75.425781 48.105469 L 74.535156 47.972656 C 73.265625 47.785156 72.199219 46.917969 71.757812 45.71875 C 71.625 45.355469 71.480469 45.003906 71.320312 44.660156 C 70.777344 43.492188 70.910156 42.125 71.675781 41.09375 L 72.214844 40.371094 C 72.425781 40.085938 72.398438 39.6875 72.144531 39.433594 L 69.90625 37.199219 C 69.652344 36.949219 69.253906 36.917969 68.96875 37.132812 L 68.242188 37.667969 C 67.207031 38.433594 65.835938 38.566406 64.667969 38.027344 C 64.324219 37.863281 63.96875 37.71875 63.605469 37.585938 C 62.402344 37.148438 61.535156 36.085938 61.34375 34.816406 L 61.214844 33.929688 C 61.160156 33.574219 60.855469 33.316406 60.5 33.316406 L 57.332031 33.316406 C 56.976562 33.316406 56.671875 33.574219 56.621094 33.929688 L 56.488281 34.816406 C 56.300781 36.085938 55.433594 37.148438 54.226562 37.585938 C 53.867188 37.71875 53.511719 37.863281 53.164062 38.027344 C 51.996094 38.566406 50.625 38.433594 49.589844 37.667969 L 48.867188 37.132812 C 48.578125 36.917969 48.179688 36.949219 47.925781 37.199219 L 45.6875 39.433594 C 45.433594 39.6875 45.40625 40.085938 45.617188 40.371094 L 46.15625 41.09375 C 46.921875 42.125 47.058594 43.492188 46.515625 44.660156 C 46.355469 45.003906 46.207031 45.355469 46.074219 45.71875 C 45.636719 46.917969 44.570312 47.785156 43.300781 47.972656 L 42.40625 48.105469 C 42.054688 48.15625 41.792969 48.460938 41.792969 48.816406 L 41.792969 51.972656 C 41.792969 52.328125 42.054688 52.632812 42.40625 52.683594 L 43.300781 52.816406 C 44.570312 53.003906 45.636719 53.871094 46.074219 55.074219 C 46.207031 55.433594 46.355469 55.785156 46.515625 56.132812 C 47.058594 57.296875 46.921875 58.664062 46.15625 59.695312 L 45.617188 60.417969 C 45.40625 60.707031 45.433594 61.105469 45.6875 61.355469 L 47.925781 63.589844 C 48.179688 63.839844 48.578125 63.871094 48.867188 63.65625 L 49.589844 63.121094 C 50.625 62.355469 51.996094 62.222656 53.164062 62.765625 C 53.511719 62.925781 53.867188 63.070312 54.226562 63.203125 C 55.433594 63.640625 56.300781 64.703125 56.488281 65.972656 L 56.621094 66.863281 C 56.671875 67.214844 56.976562 67.472656 57.332031 67.472656 L 60.5 67.472656 C 60.855469 67.472656 61.160156 67.214844 61.214844 66.863281 L 61.34375 65.972656 C 61.535156 64.703125 62.402344 63.640625 63.605469 63.203125 C 63.96875 63.070312 64.324219 62.925781 64.667969 62.765625 C 65.835938 62.222656 67.207031 62.355469 68.242188 63.121094 L 68.96875 63.65625 C 69.253906 63.871094 69.652344 63.839844 69.90625 63.589844 L 72.144531 61.355469 C 72.398438 61.105469 72.425781 60.707031 72.214844 60.417969 L 71.675781 59.695312 C 70.910156 58.664062 70.777344 57.296875 71.320312 56.132812 C 71.480469 55.785156 71.625 55.433594 71.757812 55.074219 C 72.199219 53.871094 73.265625 53.003906 74.535156 52.816406 L 75.425781 52.683594 C 75.78125 52.632812 76.042969 52.328125 76.042969 51.972656 L 76.042969 48.816406 C 76.042969 48.460938 75.78125 48.15625 75.425781 48.105469 Z M 56.421875 23.222656 C 54.566406 23.222656 53.0625 21.722656 53.0625 19.875 C 53.0625 18.023438 54.566406 16.523438 56.421875 16.523438 C 58.277344 16.523438 59.777344 18.023438 59.777344 19.875 C 59.777344 21.722656 58.277344 23.222656 56.421875 23.222656 Z M 68.351562 18.21875 L 67.707031 18.121094 C 66.789062 17.988281 66.019531 17.363281 65.699219 16.492188 C 65.605469 16.230469 65.5 15.976562 65.382812 15.726562 C 64.992188 14.886719 65.089844 13.898438 65.640625 13.152344 L 66.03125 12.628906 C 66.183594 12.421875 66.164062 12.136719 65.980469 11.953125 L 64.363281 10.339844 C 64.179688 10.15625 63.890625 10.136719 63.683594 10.289062 L 63.160156 10.675781 C 62.414062 11.230469 61.421875 11.328125 60.578125 10.933594 C 60.328125 10.820312 60.070312 10.714844 59.8125 10.617188 C 58.941406 10.300781 58.3125 9.53125 58.175781 8.617188 L 58.082031 7.972656 C 58.042969 7.71875 57.824219 7.53125 57.566406 7.53125 L 55.277344 7.53125 C 55.019531 7.53125 54.800781 7.71875 54.761719 7.972656 L 54.667969 8.617188 C 54.53125 9.53125 53.902344 10.300781 53.03125 10.617188 C 52.769531 10.714844 52.515625 10.820312 52.265625 10.933594 C 51.421875 11.328125 50.429688 11.230469 49.683594 10.675781 L 49.160156 10.289062 C 48.953125 10.136719 48.664062 10.15625 48.480469 10.339844 L 46.863281 11.953125 C 46.679688 12.136719 46.660156 12.421875 46.8125 12.628906 L 47.203125 13.152344 C 47.753906 13.898438 47.851562 14.886719 47.460938 15.726562 C 47.34375 15.976562 47.238281 16.230469 47.140625 16.492188 C 46.824219 17.363281 46.054688 17.988281 45.136719 18.121094 L 44.492188 18.21875 C 44.238281 18.257812 44.046875 18.472656 44.046875 18.730469 L 44.046875 21.015625 C 44.046875 21.273438 44.238281 21.488281 44.492188 21.527344 L 45.136719 21.625 C 46.054688 21.757812 46.824219 22.382812 47.140625 23.253906 C 47.238281 23.511719 47.34375 23.769531 47.460938 24.019531 C 47.851562 24.859375 47.753906 25.847656 47.203125 26.59375 L 46.8125 27.117188 C 46.660156 27.324219 46.679688 27.609375 46.863281 27.792969 L 48.480469 29.40625 C 48.664062 29.589844 48.953125 29.609375 49.160156 29.457031 L 49.683594 29.070312 C 50.429688 28.515625 51.421875 28.421875 52.265625 28.8125 C 52.515625 28.925781 52.769531 29.03125 53.03125 29.128906 C 53.902344 29.445312 54.53125 30.214844 54.667969 31.128906 L 54.761719 31.773438 C 54.800781 32.027344 55.019531 32.214844 55.277344 32.214844 L 57.566406 32.214844 C 57.824219 32.214844 58.042969 32.027344 58.082031 31.773438 L 58.175781 31.128906 C 58.3125 30.214844 58.941406 29.445312 59.8125 29.128906 C 60.070312 29.03125 60.328125 28.925781 60.578125 28.8125 C 61.421875 28.421875 62.414062 28.515625 63.160156 29.070312 L 63.683594 29.457031 C 63.890625 29.609375 64.179688 29.589844 64.363281 29.40625 L 65.980469 27.792969 C 66.164062 27.609375 66.183594 27.324219 66.03125 27.117188 L 65.640625 26.59375 C 65.089844 25.847656 64.992188 24.859375 65.382812 24.019531 C 65.5 23.769531 65.605469 23.511719 65.699219 23.253906 C 66.019531 22.382812 66.789062 21.757812 67.707031 21.625 L 68.351562 21.527344 C 68.605469 21.488281 68.796875 21.273438 68.796875 21.015625 L 68.796875 18.730469 C 68.796875 18.472656 68.605469 18.257812 68.351562 18.21875 " fill-opacity="1" fill-rule="nonzero"/></g><g clip-path="url(#2f72ca4a34)"><path fill="#287777" d="M 47.035156 36.136719 C 47.710938 36.136719 48.265625 35.582031 48.265625 34.90625 L 48.265625 31.929688 C 48.265625 31.253906 47.710938 30.699219 47.035156 30.699219 L 45.757812 30.699219 C 45.082031 30.699219 44.363281 30.167969 44.164062 29.523438 L 43.074219 26.875 C 42.753906 26.277344 42.882812 25.398438 43.363281 24.921875 L 44.265625 24.015625 C 44.746094 23.535156 44.746094 22.753906 44.265625 22.273438 L 42.164062 20.171875 C 41.683594 19.691406 40.902344 19.691406 40.421875 20.171875 L 39.515625 21.074219 C 39.039062 21.554688 38.160156 21.683594 37.5625 21.363281 L 34.914062 20.273438 C 34.269531 20.074219 33.738281 19.359375 33.738281 18.679688 L 33.738281 17.402344 C 33.738281 16.726562 33.1875 16.171875 32.507812 16.171875 L 29.53125 16.171875 C 28.855469 16.171875 28.300781 16.726562 28.300781 17.402344 L 28.300781 18.679688 C 28.300781 19.359375 27.773438 20.074219 27.125 20.273438 L 24.480469 21.363281 C 23.882812 21.683594 23.003906 21.554688 22.523438 21.074219 L 21.621094 20.171875 C 21.140625 19.691406 20.359375 19.691406 19.878906 20.171875 L 17.777344 22.273438 C 17.296875 22.753906 17.296875 23.535156 17.777344 24.015625 L 18.679688 24.921875 C 19.160156 25.398438 19.289062 26.277344 18.96875 26.875 L 17.878906 29.523438 C 17.679688 30.167969 16.960938 30.699219 16.285156 30.699219 L 15.007812 30.699219 C 14.332031 30.699219 13.777344 31.25 13.777344 31.929688 L 13.777344 34.90625 C 13.777344 35.582031 14.332031 36.136719 15.007812 36.136719 L 16.285156 36.136719 C 16.960938 36.136719 17.679688 36.664062 17.878906 37.3125 L 18.96875 39.960938 C 19.289062 40.554688 19.160156 41.433594 18.679688 41.914062 L 17.777344 42.820312 C 17.296875 43.296875 17.296875 44.078125 17.777344 44.558594 L 19.878906 46.664062 C 20.359375 47.140625 21.140625 47.140625 21.621094 46.664062 L 22.523438 45.757812 C 23.003906 45.28125 23.882812 45.148438 24.480469 45.46875 L 27.125 46.5625 C 27.773438 46.757812 28.304688 47.476562 28.304688 48.152344 L 28.304688 49.429688 C 28.304688 50.109375 28.855469 50.660156 29.535156 50.660156 L 32.507812 50.660156 C 33.1875 50.660156 33.738281 50.109375 33.738281 49.429688 L 33.738281 48.152344 C 33.738281 47.476562 34.269531 46.757812 34.914062 46.558594 L 37.5625 45.46875 C 38.160156 45.148438 39.039062 45.277344 39.515625 45.757812 L 40.421875 46.664062 C 40.902344 47.140625 41.683594 47.140625 42.164062 46.664062 L 44.265625 44.558594 C 44.746094 44.082031 44.746094 43.296875 44.265625 42.816406 L 43.363281 41.914062 C 42.882812 41.433594 42.753906 40.554688 43.074219 39.957031 L 44.164062 37.3125 C 44.363281 36.664062 45.082031 36.136719 45.757812 36.136719 Z M 31.019531 40.511719 C 27.101562 40.511719 23.925781 37.335938 23.925781 33.417969 C 23.925781 29.5 27.101562 26.320312 31.019531 26.320312 C 34.9375 26.320312 38.117188 29.5 38.117188 33.417969 C 38.117188 37.335938 34.9375 40.511719 31.019531 40.511719 Z M 31.019531 40.511719 " fill-opacity="1" fill-rule="nonzero"/></g></svg>