<svg xmlns="http://www.w3.org/2000/svg" xmlns:xlink="http://www.w3.org/1999/xlink" width="260" zoomAndPan="magnify" viewBox="0 0 194.87999 65.249999" height="87" preserveAspectRatio="xMidYMid meet" version="1.0"><defs><g/><clipPath id="a8f063137f"><path d="M 2.453125 12.4375 L 192.628906 12.4375 L 192.628906 52.070312 L 2.453125 52.070312 Z M 2.453125 12.4375 " clip-rule="nonzero"/></clipPath><clipPath id="07dea061e2"><path d="M 9.867188 12.4375 L 185.214844 12.4375 C 187.179688 12.4375 189.066406 13.21875 190.457031 14.609375 C 191.847656 16 192.628906 17.886719 192.628906 19.855469 L 192.628906 44.65625 C 192.628906 46.621094 191.847656 48.507812 190.457031 49.898438 C 189.066406 51.289062 187.179688 52.070312 185.214844 52.070312 L 9.867188 52.070312 C 7.902344 52.070312 6.015625 51.289062 4.625 49.898438 C 3.234375 48.507812 2.453125 46.621094 2.453125 44.65625 L 2.453125 19.855469 C 2.453125 17.886719 3.234375 16 4.625 14.609375 C 6.015625 13.21875 7.902344 12.4375 9.867188 12.4375 Z M 9.867188 12.4375 " clip-rule="nonzero"/></clipPath><clipPath id="3773b4475a"><path d="M 7.195312 15.3125 L 42.042969 15.3125 L 42.042969 49.421875 L 7.195312 49.421875 Z M 7.195312 15.3125 " clip-rule="nonzero"/></clipPath><clipPath id="622fb67f43"><path d="M 7.195312 20.21875 L 26.472656 20.21875 L 26.472656 39.496094 L 7.195312 39.496094 Z M 7.195312 20.21875 " clip-rule="nonzero"/></clipPath></defs><g clip-path="url(#a8f063137f)"><g clip-path="url(#07dea061e2)"><path fill="#5ce1e6" d="M 2.453125 12.4375 L 192.628906 12.4375 L 192.628906 52.070312 L 2.453125 52.070312 Z M 2.453125 12.4375 " fill-opacity="1" fill-rule="nonzero"/></g></g><g clip-path="url(#3773b4475a)"><path fill="#356264" d="M 16.78125 32.511719 C 15.40625 32.511719 14.289062 31.382812 14.289062 29.988281 C 14.289062 28.59375 15.40625 27.464844 16.78125 27.464844 C 18.15625 27.464844 19.273438 28.59375 19.273438 29.988281 C 19.273438 31.382812 18.15625 32.511719 16.78125 32.511719 Z M 26.023438 28.6875 L 25.523438 28.609375 C 24.8125 28.503906 24.21875 28.011719 23.972656 27.328125 C 23.898438 27.125 23.816406 26.921875 23.726562 26.726562 C 23.421875 26.0625 23.496094 25.285156 23.925781 24.699219 L 24.226562 24.289062 C 24.34375 24.125 24.328125 23.898438 24.1875 23.757812 L 22.933594 22.488281 C 22.792969 22.34375 22.570312 22.328125 22.410156 22.449219 L 22.003906 22.753906 C 21.421875 23.1875 20.65625 23.261719 20 22.957031 C 19.808594 22.863281 19.609375 22.78125 19.40625 22.707031 C 18.734375 22.457031 18.246094 21.851562 18.140625 21.132812 L 18.066406 20.625 C 18.039062 20.425781 17.867188 20.277344 17.667969 20.277344 L 15.894531 20.277344 C 15.695312 20.277344 15.527344 20.425781 15.496094 20.625 L 15.421875 21.132812 C 15.316406 21.851562 14.832031 22.457031 14.15625 22.707031 C 13.953125 22.78125 13.753906 22.863281 13.5625 22.957031 C 12.90625 23.261719 12.140625 23.1875 11.5625 22.753906 L 11.15625 22.449219 C 10.996094 22.328125 10.769531 22.34375 10.628906 22.488281 L 9.375 23.757812 C 9.234375 23.898438 9.21875 24.125 9.335938 24.289062 L 9.636719 24.699219 C 10.066406 25.285156 10.140625 26.0625 9.839844 26.726562 C 9.75 26.921875 9.667969 27.125 9.59375 27.328125 C 9.347656 28.011719 8.75 28.503906 8.039062 28.609375 L 7.539062 28.6875 C 7.339844 28.714844 7.195312 28.886719 7.195312 29.089844 L 7.195312 30.886719 C 7.195312 31.089844 7.339844 31.261719 7.539062 31.289062 L 8.039062 31.363281 C 8.75 31.472656 9.347656 31.964844 9.59375 32.648438 C 9.667969 32.851562 9.75 33.054688 9.839844 33.25 C 10.140625 33.910156 10.066406 34.6875 9.636719 35.277344 L 9.335938 35.6875 C 9.21875 35.851562 9.234375 36.074219 9.375 36.21875 L 10.628906 37.488281 C 10.769531 37.632812 10.996094 37.648438 11.15625 37.527344 L 11.5625 37.222656 C 12.140625 36.789062 12.90625 36.710938 13.5625 37.019531 C 13.753906 37.113281 13.953125 37.195312 14.15625 37.269531 C 14.832031 37.519531 15.316406 38.125 15.421875 38.84375 L 15.496094 39.351562 C 15.527344 39.550781 15.695312 39.699219 15.894531 39.699219 L 17.667969 39.699219 C 17.867188 39.699219 18.039062 39.550781 18.066406 39.351562 L 18.140625 38.84375 C 18.246094 38.125 18.734375 37.519531 19.40625 37.269531 C 19.609375 37.195312 19.808594 37.113281 20 37.019531 C 20.65625 36.710938 21.421875 36.789062 22.003906 37.222656 L 22.410156 37.527344 C 22.570312 37.648438 22.792969 37.632812 22.933594 37.488281 L 24.1875 36.21875 C 24.328125 36.074219 24.34375 35.851562 24.226562 35.6875 L 23.925781 35.277344 C 23.496094 34.6875 23.421875 33.910156 23.726562 33.25 C 23.816406 33.054688 23.898438 32.851562 23.972656 32.648438 C 24.21875 31.964844 24.8125 31.472656 25.523438 31.363281 L 26.023438 31.289062 C 26.222656 31.261719 26.367188 31.089844 26.367188 30.886719 L 26.367188 29.089844 C 26.367188 28.886719 26.222656 28.714844 26.023438 28.6875 Z M 32.457031 42.222656 C 31.082031 42.222656 29.964844 41.09375 29.964844 39.699219 C 29.964844 38.304688 31.082031 37.175781 32.457031 37.175781 C 33.832031 37.175781 34.949219 38.304688 34.949219 39.699219 C 34.949219 41.09375 33.832031 42.222656 32.457031 42.222656 Z M 41.699219 38.394531 L 41.199219 38.320312 C 40.488281 38.214844 39.894531 37.722656 39.648438 37.039062 C 39.574219 36.832031 39.492188 36.632812 39.402344 36.4375 C 39.097656 35.773438 39.171875 34.996094 39.601562 34.410156 L 39.902344 34 C 40.019531 33.835938 40.003906 33.609375 39.863281 33.464844 L 38.609375 32.195312 C 38.46875 32.054688 38.246094 32.039062 38.085938 32.15625 L 37.679688 32.460938 C 37.097656 32.898438 36.332031 32.972656 35.675781 32.664062 C 35.484375 32.574219 35.285156 32.492188 35.082031 32.417969 C 34.410156 32.167969 33.921875 31.5625 33.816406 30.84375 L 33.742188 30.335938 C 33.714844 30.136719 33.542969 29.988281 33.34375 29.988281 L 31.570312 29.988281 C 31.371094 29.988281 31.203125 30.136719 31.171875 30.335938 L 31.097656 30.84375 C 30.992188 31.5625 30.507812 32.167969 29.832031 32.417969 C 29.628906 32.492188 29.429688 32.574219 29.238281 32.664062 C 28.582031 32.972656 27.816406 32.898438 27.238281 32.460938 L 26.832031 32.15625 C 26.671875 32.039062 26.445312 32.054688 26.304688 32.195312 L 25.050781 33.464844 C 24.910156 33.609375 24.894531 33.835938 25.011719 34 L 25.3125 34.410156 C 25.742188 34.996094 25.816406 35.773438 25.515625 36.4375 C 25.425781 36.632812 25.34375 36.832031 25.269531 37.039062 C 25.023438 37.722656 24.425781 38.214844 23.714844 38.320312 L 23.214844 38.394531 C 23.015625 38.425781 22.871094 38.597656 22.871094 38.800781 L 22.871094 40.597656 C 22.871094 40.796875 23.015625 40.96875 23.214844 41 L 23.714844 41.074219 C 24.425781 41.183594 25.023438 41.675781 25.269531 42.359375 C 25.34375 42.5625 25.425781 42.761719 25.515625 42.960938 C 25.816406 43.621094 25.742188 44.398438 25.3125 44.984375 L 25.011719 45.398438 C 24.894531 45.558594 24.910156 45.785156 25.050781 45.929688 L 26.304688 47.199219 C 26.445312 47.34375 26.671875 47.359375 26.832031 47.238281 L 27.238281 46.933594 C 27.816406 46.5 28.582031 46.421875 29.238281 46.730469 C 29.429688 46.820312 29.628906 46.90625 29.832031 46.980469 C 30.507812 47.230469 30.992188 47.832031 31.097656 48.554688 L 31.171875 49.058594 C 31.203125 49.261719 31.371094 49.410156 31.570312 49.410156 L 33.34375 49.410156 C 33.542969 49.410156 33.714844 49.261719 33.742188 49.058594 L 33.816406 48.554688 C 33.921875 47.832031 34.410156 47.230469 35.082031 46.980469 C 35.285156 46.90625 35.484375 46.820312 35.675781 46.730469 C 36.332031 46.421875 37.097656 46.5 37.679688 46.933594 L 38.085938 47.238281 C 38.246094 47.359375 38.46875 47.34375 38.609375 47.199219 L 39.863281 45.929688 C 40.003906 45.785156 40.019531 45.558594 39.902344 45.398438 L 39.601562 44.984375 C 39.171875 44.398438 39.097656 43.621094 39.402344 42.960938 C 39.492188 42.761719 39.574219 42.5625 39.648438 42.359375 C 39.894531 41.675781 40.488281 41.183594 41.199219 41.074219 L 41.699219 41 C 41.898438 40.96875 42.042969 40.796875 42.042969 40.597656 L 42.042969 38.800781 C 42.042969 38.597656 41.898438 38.425781 41.699219 38.394531 Z M 31.0625 24.25 C 30.023438 24.25 29.179688 23.398438 29.179688 22.347656 C 29.179688 21.292969 30.023438 20.441406 31.0625 20.441406 C 32.097656 20.441406 32.941406 21.292969 32.941406 22.347656 C 32.941406 23.398438 32.097656 24.25 31.0625 24.25 Z M 37.738281 21.40625 L 37.378906 21.351562 C 36.863281 21.273438 36.433594 20.917969 36.253906 20.425781 C 36.203125 20.277344 36.144531 20.128906 36.078125 19.988281 C 35.859375 19.511719 35.914062 18.949219 36.222656 18.523438 L 36.441406 18.226562 C 36.527344 18.109375 36.515625 17.945312 36.414062 17.84375 L 35.507812 16.925781 C 35.402344 16.820312 35.242188 16.808594 35.125 16.898438 L 34.832031 17.117188 C 34.414062 17.433594 33.859375 17.488281 33.386719 17.265625 C 33.246094 17.199219 33.105469 17.136719 32.957031 17.082031 C 32.46875 16.902344 32.121094 16.464844 32.042969 15.945312 L 31.988281 15.582031 C 31.96875 15.4375 31.84375 15.328125 31.703125 15.328125 L 30.421875 15.328125 C 30.277344 15.328125 30.152344 15.4375 30.132812 15.582031 L 30.078125 15.945312 C 30 16.464844 29.652344 16.902344 29.164062 17.082031 C 29.015625 17.136719 28.875 17.199219 28.734375 17.265625 C 28.261719 17.488281 27.707031 17.433594 27.289062 17.117188 L 26.996094 16.898438 C 26.878906 16.808594 26.71875 16.820312 26.613281 16.925781 L 25.710938 17.84375 C 25.609375 17.945312 25.59375 18.109375 25.679688 18.226562 L 25.898438 18.523438 C 26.210938 18.949219 26.261719 19.511719 26.042969 19.988281 C 25.980469 20.128906 25.917969 20.277344 25.867188 20.425781 C 25.6875 20.917969 25.257812 21.273438 24.742188 21.351562 L 24.382812 21.40625 C 24.238281 21.425781 24.132812 21.550781 24.132812 21.695312 L 24.132812 22.996094 C 24.132812 23.140625 24.238281 23.265625 24.382812 23.285156 L 24.742188 23.339844 C 25.257812 23.417969 25.6875 23.773438 25.867188 24.265625 C 25.917969 24.414062 25.980469 24.558594 26.042969 24.703125 C 26.261719 25.179688 26.210938 25.742188 25.898438 26.167969 L 25.679688 26.464844 C 25.59375 26.582031 25.609375 26.746094 25.710938 26.847656 L 26.613281 27.765625 C 26.71875 27.871094 26.878906 27.882812 26.996094 27.792969 L 27.289062 27.574219 C 27.707031 27.257812 28.261719 27.207031 28.734375 27.425781 C 28.875 27.492188 29.015625 27.554688 29.164062 27.605469 C 29.652344 27.789062 30 28.222656 30.078125 28.746094 L 30.132812 29.109375 C 30.152344 29.253906 30.277344 29.363281 30.421875 29.363281 L 31.703125 29.363281 C 31.84375 29.363281 31.96875 29.253906 31.988281 29.109375 L 32.042969 28.746094 C 32.121094 28.222656 32.46875 27.789062 32.957031 27.605469 C 33.105469 27.554688 33.246094 27.492188 33.386719 27.425781 C 33.859375 27.207031 34.414062 27.257812 34.832031 27.574219 L 35.125 27.792969 C 35.242188 27.882812 35.402344 27.871094 35.507812 27.765625 L 36.414062 26.847656 C 36.515625 26.746094 36.527344 26.582031 36.441406 26.464844 L 36.222656 26.167969 C 35.914062 25.742188 35.859375 25.179688 36.078125 24.703125 C 36.144531 24.558594 36.203125 24.414062 36.253906 24.265625 C 36.433594 23.773438 36.863281 23.417969 37.378906 23.339844 L 37.738281 23.285156 C 37.882812 23.265625 37.988281 23.140625 37.988281 22.996094 L 37.988281 21.695312 C 37.988281 21.550781 37.882812 21.425781 37.738281 21.40625 " fill-opacity="1" fill-rule="nonzero"/></g><g clip-path="url(#622fb67f43)"><path fill="#287777" d="M 25.769531 31.367188 C 26.148438 31.367188 26.457031 31.054688 26.457031 30.679688 L 26.457031 29.015625 C 26.457031 28.636719 26.148438 28.328125 25.769531 28.328125 L 25.058594 28.328125 C 24.679688 28.328125 24.277344 28.03125 24.167969 27.671875 L 23.558594 26.191406 C 23.378906 25.859375 23.453125 25.367188 23.71875 25.097656 L 24.222656 24.59375 C 24.492188 24.324219 24.492188 23.886719 24.222656 23.621094 L 23.046875 22.445312 C 22.78125 22.175781 22.34375 22.175781 22.074219 22.445312 L 21.570312 22.949219 C 21.304688 23.21875 20.8125 23.289062 20.476562 23.109375 L 19 22.503906 C 18.636719 22.390625 18.34375 21.992188 18.34375 21.613281 L 18.34375 20.898438 C 18.34375 20.519531 18.03125 20.210938 17.652344 20.210938 L 15.992188 20.210938 C 15.613281 20.210938 15.304688 20.519531 15.304688 20.898438 L 15.304688 21.613281 C 15.304688 21.992188 15.007812 22.390625 14.644531 22.503906 L 13.167969 23.109375 C 12.832031 23.289062 12.34375 23.21875 12.074219 22.949219 L 11.570312 22.445312 C 11.300781 22.175781 10.863281 22.175781 10.597656 22.445312 L 9.421875 23.621094 C 9.152344 23.886719 9.152344 24.324219 9.421875 24.59375 L 9.925781 25.097656 C 10.195312 25.367188 10.265625 25.859375 10.089844 26.191406 L 9.480469 27.671875 C 9.367188 28.03125 8.96875 28.328125 8.589844 28.328125 L 7.875 28.328125 C 7.496094 28.328125 7.1875 28.636719 7.1875 29.015625 L 7.1875 30.679688 C 7.1875 31.054688 7.496094 31.367188 7.875 31.367188 L 8.589844 31.367188 C 8.96875 31.367188 9.367188 31.660156 9.480469 32.023438 L 10.089844 33.503906 C 10.265625 33.835938 10.195312 34.328125 9.925781 34.59375 L 9.421875 35.101562 C 9.152344 35.367188 9.152344 35.804688 9.421875 36.074219 L 10.597656 37.25 C 10.863281 37.515625 11.300781 37.515625 11.570312 37.25 L 12.074219 36.742188 C 12.34375 36.476562 12.835938 36.402344 13.167969 36.582031 L 14.648438 37.191406 C 15.007812 37.300781 15.304688 37.703125 15.304688 38.082031 L 15.304688 38.796875 C 15.304688 39.171875 15.613281 39.484375 15.992188 39.484375 L 17.65625 39.484375 C 18.03125 39.484375 18.34375 39.171875 18.34375 38.796875 L 18.34375 38.082031 C 18.34375 37.703125 18.636719 37.300781 19 37.191406 L 20.480469 36.582031 C 20.8125 36.402344 21.304688 36.476562 21.570312 36.742188 L 22.078125 37.25 C 22.34375 37.515625 22.78125 37.515625 23.050781 37.25 L 24.226562 36.074219 C 24.492188 35.804688 24.492188 35.367188 24.226562 35.101562 L 23.71875 34.59375 C 23.453125 34.328125 23.378906 33.835938 23.558594 33.503906 L 24.167969 32.023438 C 24.277344 31.660156 24.679688 31.367188 25.058594 31.367188 Z M 16.824219 33.8125 C 14.632812 33.8125 12.859375 32.035156 12.859375 29.847656 C 12.859375 27.65625 14.632812 25.882812 16.824219 25.882812 C 19.011719 25.882812 20.789062 27.65625 20.789062 29.847656 C 20.789062 32.035156 19.011719 33.8125 16.824219 33.8125 Z M 16.824219 33.8125 " fill-opacity="1" fill-rule="nonzero"/></g><g fill="#0d4244" fill-opacity="0.302"><g transform="translate(60.324044, 36.946742)"><g><path d="M 6.34375 0 L 3.515625 0 C 2.546875 0 1.828125 -0.191406 1.359375 -0.578125 C 0.898438 -0.960938 0.671875 -1.554688 0.671875 -2.359375 L 0.671875 -5.953125 C 0.671875 -6.753906 0.898438 -7.347656 1.359375 -7.734375 C 1.828125 -8.128906 2.546875 -8.328125 3.515625 -8.328125 L 6.34375 -8.328125 C 6.488281 -8.328125 6.59375 -8.289062 6.65625 -8.21875 C 6.71875 -8.15625 6.75 -8.050781 6.75 -7.90625 L 6.75 -6.515625 C 6.75 -6.367188 6.71875 -6.257812 6.65625 -6.1875 C 6.59375 -6.125 6.488281 -6.09375 6.34375 -6.09375 L 4.015625 -6.09375 C 3.773438 -6.09375 3.597656 -6.039062 3.484375 -5.9375 C 3.367188 -5.84375 3.3125 -5.703125 3.3125 -5.515625 L 3.3125 -2.765625 C 3.3125 -2.566406 3.367188 -2.421875 3.484375 -2.328125 C 3.597656 -2.242188 3.773438 -2.203125 4.015625 -2.203125 L 6.34375 -2.203125 C 6.488281 -2.203125 6.59375 -2.171875 6.65625 -2.109375 C 6.71875 -2.046875 6.75 -1.941406 6.75 -1.796875 L 6.75 -0.421875 C 6.75 -0.273438 6.71875 -0.164062 6.65625 -0.09375 C 6.59375 -0.03125 6.488281 0 6.34375 0 Z M 6.34375 0 "/></g></g></g><g fill="#0d4244" fill-opacity="0.302"><g transform="translate(68.329774, 36.946742)"><g><path d="M 7.84375 -2.1875 C 7.84375 -1.832031 7.789062 -1.507812 7.6875 -1.21875 C 7.582031 -0.925781 7.394531 -0.675781 7.125 -0.46875 C 6.863281 -0.269531 6.5 -0.113281 6.03125 0 C 5.570312 0.113281 4.984375 0.171875 4.265625 0.171875 C 3.546875 0.171875 2.953125 0.113281 2.484375 0 C 2.015625 -0.113281 1.644531 -0.269531 1.375 -0.46875 C 1.113281 -0.675781 0.929688 -0.925781 0.828125 -1.21875 C 0.722656 -1.507812 0.671875 -1.832031 0.671875 -2.1875 L 0.671875 -6.125 C 0.671875 -6.476562 0.722656 -6.800781 0.828125 -7.09375 C 0.929688 -7.382812 1.113281 -7.632812 1.375 -7.84375 C 1.644531 -8.050781 2.015625 -8.210938 2.484375 -8.328125 C 2.953125 -8.441406 3.546875 -8.5 4.265625 -8.5 C 4.984375 -8.5 5.570312 -8.441406 6.03125 -8.328125 C 6.5 -8.210938 6.863281 -8.050781 7.125 -7.84375 C 7.394531 -7.632812 7.582031 -7.382812 7.6875 -7.09375 C 7.789062 -6.800781 7.84375 -6.476562 7.84375 -6.125 Z M 3.296875 -2.609375 C 3.296875 -2.453125 3.351562 -2.320312 3.46875 -2.21875 C 3.582031 -2.113281 3.847656 -2.0625 4.265625 -2.0625 C 4.679688 -2.0625 4.945312 -2.113281 5.0625 -2.21875 C 5.175781 -2.320312 5.234375 -2.453125 5.234375 -2.609375 L 5.234375 -5.71875 C 5.234375 -5.863281 5.175781 -5.988281 5.0625 -6.09375 C 4.945312 -6.195312 4.679688 -6.25 4.265625 -6.25 C 3.847656 -6.25 3.582031 -6.195312 3.46875 -6.09375 C 3.351562 -5.988281 3.296875 -5.863281 3.296875 -5.71875 Z M 3.296875 -2.609375 "/></g></g></g><g fill="#0d4244" fill-opacity="0.302"><g transform="translate(77.596517, 36.946742)"><g><path d="M 2.953125 0 L 1.21875 0 C 1.070312 0 0.960938 -0.03125 0.890625 -0.09375 C 0.828125 -0.164062 0.796875 -0.273438 0.796875 -0.421875 L 0.796875 -7.90625 C 0.796875 -8.050781 0.828125 -8.15625 0.890625 -8.21875 C 0.960938 -8.289062 1.070312 -8.328125 1.21875 -8.328125 L 2.421875 -8.328125 C 2.566406 -8.328125 2.691406 -8.300781 2.796875 -8.25 C 2.898438 -8.207031 3 -8.128906 3.09375 -8.015625 L 5.34375 -5.453125 L 5.34375 -7.90625 C 5.34375 -8.050781 5.375 -8.15625 5.4375 -8.21875 C 5.5 -8.289062 5.609375 -8.328125 5.765625 -8.328125 L 7.5 -8.328125 C 7.644531 -8.328125 7.75 -8.289062 7.8125 -8.21875 C 7.875 -8.15625 7.90625 -8.050781 7.90625 -7.90625 L 7.90625 -0.421875 C 7.90625 -0.273438 7.875 -0.164062 7.8125 -0.09375 C 7.75 -0.03125 7.644531 0 7.5 0 L 5.765625 0 C 5.609375 0 5.5 -0.03125 5.4375 -0.09375 C 5.375 -0.164062 5.34375 -0.273438 5.34375 -0.421875 L 5.34375 -1.84375 L 3.359375 -4.234375 L 3.359375 -0.421875 C 3.359375 -0.273438 3.328125 -0.164062 3.265625 -0.09375 C 3.203125 -0.03125 3.097656 0 2.953125 0 Z M 2.953125 0 "/></g></g></g><g fill="#0d4244" fill-opacity="0.302"><g transform="translate(87.048363, 36.946742)"><g><path d="M 3 0 L 1.21875 0 C 1.070312 0 0.960938 -0.03125 0.890625 -0.09375 C 0.828125 -0.164062 0.796875 -0.273438 0.796875 -0.421875 L 0.796875 -7.90625 C 0.796875 -8.050781 0.828125 -8.15625 0.890625 -8.21875 C 0.960938 -8.289062 1.070312 -8.328125 1.21875 -8.328125 L 6.375 -8.328125 C 6.519531 -8.328125 6.625 -8.289062 6.6875 -8.21875 C 6.75 -8.15625 6.78125 -8.050781 6.78125 -7.90625 L 6.78125 -6.53125 C 6.78125 -6.382812 6.75 -6.273438 6.6875 -6.203125 C 6.625 -6.140625 6.519531 -6.109375 6.375 -6.109375 L 3.421875 -6.109375 L 3.421875 -4.921875 L 5.4375 -4.921875 C 5.582031 -4.921875 5.6875 -4.882812 5.75 -4.8125 C 5.8125 -4.75 5.84375 -4.644531 5.84375 -4.5 L 5.84375 -3.109375 C 5.84375 -2.960938 5.8125 -2.851562 5.75 -2.78125 C 5.6875 -2.71875 5.582031 -2.6875 5.4375 -2.6875 L 3.421875 -2.6875 L 3.421875 -0.421875 C 3.421875 -0.273438 3.382812 -0.164062 3.3125 -0.09375 C 3.25 -0.03125 3.144531 0 3 0 Z M 3 0 "/></g></g></g><g fill="#0d4244" fill-opacity="0.302"><g transform="translate(94.938404, 36.946742)"><g><path d="M 1.03125 0 C 0.882812 0 0.773438 -0.03125 0.703125 -0.09375 C 0.640625 -0.164062 0.609375 -0.273438 0.609375 -0.421875 L 0.609375 -1.796875 C 0.609375 -1.941406 0.640625 -2.046875 0.703125 -2.109375 C 0.773438 -2.171875 0.882812 -2.203125 1.03125 -2.203125 L 2.171875 -2.203125 L 2.171875 -6.09375 L 1.03125 -6.09375 C 0.882812 -6.09375 0.773438 -6.125 0.703125 -6.1875 C 0.640625 -6.257812 0.609375 -6.367188 0.609375 -6.515625 L 0.609375 -7.90625 C 0.609375 -8.050781 0.640625 -8.15625 0.703125 -8.21875 C 0.773438 -8.289062 0.882812 -8.328125 1.03125 -8.328125 L 5.953125 -8.328125 C 6.097656 -8.328125 6.203125 -8.289062 6.265625 -8.21875 C 6.335938 -8.15625 6.375 -8.050781 6.375 -7.90625 L 6.375 -6.515625 C 6.375 -6.367188 6.335938 -6.257812 6.265625 -6.1875 C 6.203125 -6.125 6.097656 -6.09375 5.953125 -6.09375 L 4.828125 -6.09375 L 4.828125 -2.203125 L 5.953125 -2.203125 C 6.097656 -2.203125 6.203125 -2.171875 6.265625 -2.109375 C 6.335938 -2.046875 6.375 -1.941406 6.375 -1.796875 L 6.375 -0.421875 C 6.375 -0.273438 6.335938 -0.164062 6.265625 -0.09375 C 6.203125 -0.03125 6.097656 0 5.953125 0 Z M 1.03125 0 "/></g></g></g><g fill="#0d4244" fill-opacity="0.302"><g transform="translate(102.678049, 36.946742)"><g><path d="M 7.15625 0 L 3.515625 0 C 2.546875 0 1.828125 -0.191406 1.359375 -0.578125 C 0.898438 -0.960938 0.671875 -1.554688 0.671875 -2.359375 L 0.671875 -5.96875 C 0.671875 -6.769531 0.898438 -7.363281 1.359375 -7.75 C 1.828125 -8.132812 2.546875 -8.328125 3.515625 -8.328125 L 6.40625 -8.328125 C 6.550781 -8.328125 6.65625 -8.289062 6.71875 -8.21875 C 6.789062 -8.15625 6.828125 -8.050781 6.828125 -7.90625 L 6.828125 -6.515625 C 6.828125 -6.367188 6.789062 -6.257812 6.71875 -6.1875 C 6.65625 -6.125 6.550781 -6.09375 6.40625 -6.09375 L 4 -6.09375 C 3.757812 -6.09375 3.582031 -6.039062 3.46875 -5.9375 C 3.351562 -5.84375 3.296875 -5.703125 3.296875 -5.515625 L 3.296875 -2.75 C 3.296875 -2.5625 3.335938 -2.421875 3.421875 -2.328125 C 3.515625 -2.234375 3.648438 -2.1875 3.828125 -2.1875 L 4.953125 -2.1875 L 4.953125 -3.984375 C 4.953125 -4.128906 4.984375 -4.234375 5.046875 -4.296875 C 5.109375 -4.367188 5.210938 -4.40625 5.359375 -4.40625 L 7.15625 -4.40625 C 7.300781 -4.40625 7.40625 -4.367188 7.46875 -4.296875 C 7.539062 -4.234375 7.578125 -4.128906 7.578125 -3.984375 L 7.578125 -0.421875 C 7.578125 -0.273438 7.539062 -0.164062 7.46875 -0.09375 C 7.40625 -0.03125 7.300781 0 7.15625 0 Z M 7.15625 0 "/></g></g></g><g fill="#0d4244" fill-opacity="0.302"><g transform="translate(111.609292, 36.946742)"><g><path d="M 7.890625 -2.1875 C 7.890625 -1.832031 7.835938 -1.507812 7.734375 -1.21875 C 7.628906 -0.925781 7.441406 -0.675781 7.171875 -0.46875 C 6.910156 -0.269531 6.546875 -0.113281 6.078125 0 C 5.617188 0.113281 5.03125 0.171875 4.3125 0.171875 C 3.59375 0.171875 3 0.113281 2.53125 0 C 2.070312 -0.113281 1.707031 -0.269531 1.4375 -0.46875 C 1.175781 -0.675781 0.992188 -0.925781 0.890625 -1.21875 C 0.785156 -1.507812 0.734375 -1.832031 0.734375 -2.1875 L 0.734375 -7.90625 C 0.734375 -8.050781 0.765625 -8.15625 0.828125 -8.21875 C 0.898438 -8.289062 1.007812 -8.328125 1.15625 -8.328125 L 2.96875 -8.328125 C 3.113281 -8.328125 3.21875 -8.289062 3.28125 -8.21875 C 3.351562 -8.15625 3.390625 -8.050781 3.390625 -7.90625 L 3.390625 -2.640625 C 3.390625 -2.484375 3.445312 -2.351562 3.5625 -2.25 C 3.675781 -2.144531 3.9375 -2.09375 4.34375 -2.09375 C 4.75 -2.09375 5.007812 -2.144531 5.125 -2.25 C 5.238281 -2.351562 5.296875 -2.484375 5.296875 -2.640625 L 5.296875 -7.90625 C 5.296875 -8.050781 5.328125 -8.15625 5.390625 -8.21875 C 5.460938 -8.289062 5.570312 -8.328125 5.71875 -8.328125 L 7.46875 -8.328125 C 7.613281 -8.328125 7.71875 -8.289062 7.78125 -8.21875 C 7.851562 -8.15625 7.890625 -8.050781 7.890625 -7.90625 Z M 7.890625 -2.1875 "/></g></g></g><g fill="#0d4244" fill-opacity="0.302"><g transform="translate(120.980156, 36.946742)"><g><path d="M 3.40625 -6.25 L 3.40625 -4.765625 L 4.28125 -4.765625 C 4.476562 -4.765625 4.609375 -4.816406 4.671875 -4.921875 C 4.742188 -5.023438 4.78125 -5.15625 4.78125 -5.3125 L 4.78125 -5.703125 C 4.78125 -5.859375 4.742188 -5.988281 4.671875 -6.09375 C 4.609375 -6.195312 4.476562 -6.25 4.28125 -6.25 Z M 3 0 L 1.21875 0 C 1.070312 0 0.960938 -0.03125 0.890625 -0.09375 C 0.828125 -0.164062 0.796875 -0.273438 0.796875 -0.421875 L 0.796875 -7.90625 C 0.796875 -8.050781 0.828125 -8.15625 0.890625 -8.21875 C 0.960938 -8.289062 1.070312 -8.328125 1.21875 -8.328125 L 5.0625 -8.328125 C 5.925781 -8.328125 6.519531 -8.144531 6.84375 -7.78125 C 7.175781 -7.425781 7.34375 -6.960938 7.34375 -6.390625 L 7.34375 -5.859375 C 7.34375 -5.535156 7.289062 -5.257812 7.1875 -5.03125 C 7.09375 -4.800781 6.925781 -4.640625 6.6875 -4.546875 C 7.101562 -4.492188 7.441406 -4.320312 7.703125 -4.03125 C 7.960938 -3.738281 8.09375 -3.351562 8.09375 -2.875 L 8.09375 -0.421875 C 8.09375 -0.273438 8.054688 -0.164062 7.984375 -0.09375 C 7.921875 -0.03125 7.816406 0 7.671875 0 L 5.890625 0 C 5.742188 0 5.632812 -0.03125 5.5625 -0.09375 C 5.5 -0.164062 5.46875 -0.273438 5.46875 -0.421875 L 5.46875 -2.1875 C 5.46875 -2.351562 5.429688 -2.476562 5.359375 -2.5625 C 5.296875 -2.644531 5.1875 -2.6875 5.03125 -2.6875 L 3.40625 -2.6875 L 3.40625 -0.421875 C 3.40625 -0.273438 3.375 -0.164062 3.3125 -0.09375 C 3.25 -0.03125 3.144531 0 3 0 Z M 3 0 "/></g></g></g><g fill="#0d4244" fill-opacity="0.302"><g transform="translate(130.316316, 36.946742)"><g><path d="M 3.8125 -5.890625 L 3.265625 -4.140625 L 5.09375 -4.140625 L 4.546875 -5.890625 C 4.515625 -5.960938 4.476562 -6.015625 4.4375 -6.046875 C 4.40625 -6.078125 4.367188 -6.09375 4.328125 -6.09375 L 4.03125 -6.09375 C 3.988281 -6.09375 3.945312 -6.078125 3.90625 -6.046875 C 3.875 -6.015625 3.84375 -5.960938 3.8125 -5.890625 Z M 3.15625 -0.421875 C 3.15625 -0.273438 3.117188 -0.164062 3.046875 -0.09375 C 2.984375 -0.03125 2.878906 0 2.734375 0 L 1.046875 0 C 0.898438 0 0.789062 -0.03125 0.71875 -0.09375 C 0.65625 -0.164062 0.625 -0.273438 0.625 -0.421875 L 0.625 -3.46875 C 0.625 -3.695312 0.660156 -3.960938 0.734375 -4.265625 C 0.804688 -4.566406 0.921875 -4.914062 1.078125 -5.3125 L 2.078125 -7.9375 C 2.128906 -8.070312 2.203125 -8.171875 2.296875 -8.234375 C 2.390625 -8.296875 2.515625 -8.328125 2.671875 -8.328125 L 5.78125 -8.328125 C 5.925781 -8.328125 6.046875 -8.296875 6.140625 -8.234375 C 6.242188 -8.171875 6.316406 -8.070312 6.359375 -7.9375 L 7.359375 -5.3125 C 7.515625 -4.914062 7.628906 -4.566406 7.703125 -4.265625 C 7.773438 -3.960938 7.8125 -3.695312 7.8125 -3.46875 L 7.8125 -0.421875 C 7.8125 -0.273438 7.78125 -0.164062 7.71875 -0.09375 C 7.65625 -0.03125 7.550781 0 7.40625 0 L 5.65625 0 C 5.5 0 5.382812 -0.03125 5.3125 -0.09375 C 5.238281 -0.164062 5.203125 -0.273438 5.203125 -0.421875 L 5.203125 -2.03125 L 3.15625 -2.03125 Z M 3.15625 -0.421875 "/></g></g></g><g fill="#0d4244" fill-opacity="0.302"><g transform="translate(139.502079, 36.946742)"><g><path d="M 4.734375 0 L 2.859375 0 C 2.710938 0 2.601562 -0.03125 2.53125 -0.09375 C 2.46875 -0.164062 2.4375 -0.273438 2.4375 -0.421875 L 2.4375 -6.09375 L 0.734375 -6.09375 C 0.585938 -6.09375 0.484375 -6.125 0.421875 -6.1875 C 0.359375 -6.257812 0.328125 -6.367188 0.328125 -6.515625 L 0.328125 -7.90625 C 0.328125 -8.050781 0.359375 -8.15625 0.421875 -8.21875 C 0.484375 -8.289062 0.585938 -8.328125 0.734375 -8.328125 L 6.84375 -8.328125 C 6.988281 -8.328125 7.09375 -8.289062 7.15625 -8.21875 C 7.226562 -8.15625 7.265625 -8.050781 7.265625 -7.90625 L 7.265625 -6.515625 C 7.265625 -6.367188 7.226562 -6.257812 7.15625 -6.1875 C 7.09375 -6.125 6.988281 -6.09375 6.84375 -6.09375 L 5.140625 -6.09375 L 5.140625 -0.421875 C 5.140625 -0.273438 5.109375 -0.164062 5.046875 -0.09375 C 4.984375 -0.03125 4.878906 0 4.734375 0 Z M 4.734375 0 "/></g></g></g><g fill="#0d4244" fill-opacity="0.302"><g transform="translate(147.831737, 36.946742)"><g><path d="M 1.03125 0 C 0.882812 0 0.773438 -0.03125 0.703125 -0.09375 C 0.640625 -0.164062 0.609375 -0.273438 0.609375 -0.421875 L 0.609375 -1.796875 C 0.609375 -1.941406 0.640625 -2.046875 0.703125 -2.109375 C 0.773438 -2.171875 0.882812 -2.203125 1.03125 -2.203125 L 2.171875 -2.203125 L 2.171875 -6.09375 L 1.03125 -6.09375 C 0.882812 -6.09375 0.773438 -6.125 0.703125 -6.1875 C 0.640625 -6.257812 0.609375 -6.367188 0.609375 -6.515625 L 0.609375 -7.90625 C 0.609375 -8.050781 0.640625 -8.15625 0.703125 -8.21875 C 0.773438 -8.289062 0.882812 -8.328125 1.03125 -8.328125 L 5.953125 -8.328125 C 6.097656 -8.328125 6.203125 -8.289062 6.265625 -8.21875 C 6.335938 -8.15625 6.375 -8.050781 6.375 -7.90625 L 6.375 -6.515625 C 6.375 -6.367188 6.335938 -6.257812 6.265625 -6.1875 C 6.203125 -6.125 6.097656 -6.09375 5.953125 -6.09375 L 4.828125 -6.09375 L 4.828125 -2.203125 L 5.953125 -2.203125 C 6.097656 -2.203125 6.203125 -2.171875 6.265625 -2.109375 C 6.335938 -2.046875 6.375 -1.941406 6.375 -1.796875 L 6.375 -0.421875 C 6.375 -0.273438 6.335938 -0.164062 6.265625 -0.09375 C 6.203125 -0.03125 6.097656 0 5.953125 0 Z M 1.03125 0 "/></g></g></g><g fill="#0d4244" fill-opacity="0.302"><g transform="translate(155.571383, 36.946742)"><g><path d="M 7.84375 -2.1875 C 7.84375 -1.832031 7.789062 -1.507812 7.6875 -1.21875 C 7.582031 -0.925781 7.394531 -0.675781 7.125 -0.46875 C 6.863281 -0.269531 6.5 -0.113281 6.03125 0 C 5.570312 0.113281 4.984375 0.171875 4.265625 0.171875 C 3.546875 0.171875 2.953125 0.113281 2.484375 0 C 2.015625 -0.113281 1.644531 -0.269531 1.375 -0.46875 C 1.113281 -0.675781 0.929688 -0.925781 0.828125 -1.21875 C 0.722656 -1.507812 0.671875 -1.832031 0.671875 -2.1875 L 0.671875 -6.125 C 0.671875 -6.476562 0.722656 -6.800781 0.828125 -7.09375 C 0.929688 -7.382812 1.113281 -7.632812 1.375 -7.84375 C 1.644531 -8.050781 2.015625 -8.210938 2.484375 -8.328125 C 2.953125 -8.441406 3.546875 -8.5 4.265625 -8.5 C 4.984375 -8.5 5.570312 -8.441406 6.03125 -8.328125 C 6.5 -8.210938 6.863281 -8.050781 7.125 -7.84375 C 7.394531 -7.632812 7.582031 -7.382812 7.6875 -7.09375 C 7.789062 -6.800781 7.84375 -6.476562 7.84375 -6.125 Z M 3.296875 -2.609375 C 3.296875 -2.453125 3.351562 -2.320312 3.46875 -2.21875 C 3.582031 -2.113281 3.847656 -2.0625 4.265625 -2.0625 C 4.679688 -2.0625 4.945312 -2.113281 5.0625 -2.21875 C 5.175781 -2.320312 5.234375 -2.453125 5.234375 -2.609375 L 5.234375 -5.71875 C 5.234375 -5.863281 5.175781 -5.988281 5.0625 -6.09375 C 4.945312 -6.195312 4.679688 -6.25 4.265625 -6.25 C 3.847656 -6.25 3.582031 -6.195312 3.46875 -6.09375 C 3.351562 -5.988281 3.296875 -5.863281 3.296875 -5.71875 Z M 3.296875 -2.609375 "/></g></g></g><g fill="#0d4244" fill-opacity="0.302"><g transform="translate(164.838123, 36.946742)"><g><path d="M 2.953125 0 L 1.21875 0 C 1.070312 0 0.960938 -0.03125 0.890625 -0.09375 C 0.828125 -0.164062 0.796875 -0.273438 0.796875 -0.421875 L 0.796875 -7.90625 C 0.796875 -8.050781 0.828125 -8.15625 0.890625 -8.21875 C 0.960938 -8.289062 1.070312 -8.328125 1.21875 -8.328125 L 2.421875 -8.328125 C 2.566406 -8.328125 2.691406 -8.300781 2.796875 -8.25 C 2.898438 -8.207031 3 -8.128906 3.09375 -8.015625 L 5.34375 -5.453125 L 5.34375 -7.90625 C 5.34375 -8.050781 5.375 -8.15625 5.4375 -8.21875 C 5.5 -8.289062 5.609375 -8.328125 5.765625 -8.328125 L 7.5 -8.328125 C 7.644531 -8.328125 7.75 -8.289062 7.8125 -8.21875 C 7.875 -8.15625 7.90625 -8.050781 7.90625 -7.90625 L 7.90625 -0.421875 C 7.90625 -0.273438 7.875 -0.164062 7.8125 -0.09375 C 7.75 -0.03125 7.644531 0 7.5 0 L 5.765625 0 C 5.609375 0 5.5 -0.03125 5.4375 -0.09375 C 5.375 -0.164062 5.34375 -0.273438 5.34375 -0.421875 L 5.34375 -1.84375 L 3.359375 -4.234375 L 3.359375 -0.421875 C 3.359375 -0.273438 3.328125 -0.164062 3.265625 -0.09375 C 3.203125 -0.03125 3.097656 0 2.953125 0 Z M 2.953125 0 "/></g></g></g><g fill="#0d4244" fill-opacity="0.502"><g transform="translate(59.812748, 36.435443)"><g><path d="M 6.34375 0 L 3.515625 0 C 2.546875 0 1.828125 -0.191406 1.359375 -0.578125 C 0.898438 -0.960938 0.671875 -1.554688 0.671875 -2.359375 L 0.671875 -5.953125 C 0.671875 -6.753906 0.898438 -7.347656 1.359375 -7.734375 C 1.828125 -8.128906 2.546875 -8.328125 3.515625 -8.328125 L 6.34375 -8.328125 C 6.488281 -8.328125 6.59375 -8.289062 6.65625 -8.21875 C 6.71875 -8.15625 6.75 -8.050781 6.75 -7.90625 L 6.75 -6.515625 C 6.75 -6.367188 6.71875 -6.257812 6.65625 -6.1875 C 6.59375 -6.125 6.488281 -6.09375 6.34375 -6.09375 L 4.015625 -6.09375 C 3.773438 -6.09375 3.597656 -6.039062 3.484375 -5.9375 C 3.367188 -5.84375 3.3125 -5.703125 3.3125 -5.515625 L 3.3125 -2.765625 C 3.3125 -2.566406 3.367188 -2.421875 3.484375 -2.328125 C 3.597656 -2.242188 3.773438 -2.203125 4.015625 -2.203125 L 6.34375 -2.203125 C 6.488281 -2.203125 6.59375 -2.171875 6.65625 -2.109375 C 6.71875 -2.046875 6.75 -1.941406 6.75 -1.796875 L 6.75 -0.421875 C 6.75 -0.273438 6.71875 -0.164062 6.65625 -0.09375 C 6.59375 -0.03125 6.488281 0 6.34375 0 Z M 6.34375 0 "/></g></g></g><g fill="#0d4244" fill-opacity="0.502"><g transform="translate(67.818477, 36.435443)"><g><path d="M 7.84375 -2.1875 C 7.84375 -1.832031 7.789062 -1.507812 7.6875 -1.21875 C 7.582031 -0.925781 7.394531 -0.675781 7.125 -0.46875 C 6.863281 -0.269531 6.5 -0.113281 6.03125 0 C 5.570312 0.113281 4.984375 0.171875 4.265625 0.171875 C 3.546875 0.171875 2.953125 0.113281 2.484375 0 C 2.015625 -0.113281 1.644531 -0.269531 1.375 -0.46875 C 1.113281 -0.675781 0.929688 -0.925781 0.828125 -1.21875 C 0.722656 -1.507812 0.671875 -1.832031 0.671875 -2.1875 L 0.671875 -6.125 C 0.671875 -6.476562 0.722656 -6.800781 0.828125 -7.09375 C 0.929688 -7.382812 1.113281 -7.632812 1.375 -7.84375 C 1.644531 -8.050781 2.015625 -8.210938 2.484375 -8.328125 C 2.953125 -8.441406 3.546875 -8.5 4.265625 -8.5 C 4.984375 -8.5 5.570312 -8.441406 6.03125 -8.328125 C 6.5 -8.210938 6.863281 -8.050781 7.125 -7.84375 C 7.394531 -7.632812 7.582031 -7.382812 7.6875 -7.09375 C 7.789062 -6.800781 7.84375 -6.476562 7.84375 -6.125 Z M 3.296875 -2.609375 C 3.296875 -2.453125 3.351562 -2.320312 3.46875 -2.21875 C 3.582031 -2.113281 3.847656 -2.0625 4.265625 -2.0625 C 4.679688 -2.0625 4.945312 -2.113281 5.0625 -2.21875 C 5.175781 -2.320312 5.234375 -2.453125 5.234375 -2.609375 L 5.234375 -5.71875 C 5.234375 -5.863281 5.175781 -5.988281 5.0625 -6.09375 C 4.945312 -6.195312 4.679688 -6.25 4.265625 -6.25 C 3.847656 -6.25 3.582031 -6.195312 3.46875 -6.09375 C 3.351562 -5.988281 3.296875 -5.863281 3.296875 -5.71875 Z M 3.296875 -2.609375 "/></g></g></g><g fill="#0d4244" fill-opacity="0.502"><g transform="translate(77.08522, 36.435443)"><g><path d="M 2.953125 0 L 1.21875 0 C 1.070312 0 0.960938 -0.03125 0.890625 -0.09375 C 0.828125 -0.164062 0.796875 -0.273438 0.796875 -0.421875 L 0.796875 -7.90625 C 0.796875 -8.050781 0.828125 -8.15625 0.890625 -8.21875 C 0.960938 -8.289062 1.070312 -8.328125 1.21875 -8.328125 L 2.421875 -8.328125 C 2.566406 -8.328125 2.691406 -8.300781 2.796875 -8.25 C 2.898438 -8.207031 3 -8.128906 3.09375 -8.015625 L 5.34375 -5.453125 L 5.34375 -7.90625 C 5.34375 -8.050781 5.375 -8.15625 5.4375 -8.21875 C 5.5 -8.289062 5.609375 -8.328125 5.765625 -8.328125 L 7.5 -8.328125 C 7.644531 -8.328125 7.75 -8.289062 7.8125 -8.21875 C 7.875 -8.15625 7.90625 -8.050781 7.90625 -7.90625 L 7.90625 -0.421875 C 7.90625 -0.273438 7.875 -0.164062 7.8125 -0.09375 C 7.75 -0.03125 7.644531 0 7.5 0 L 5.765625 0 C 5.609375 0 5.5 -0.03125 5.4375 -0.09375 C 5.375 -0.164062 5.34375 -0.273438 5.34375 -0.421875 L 5.34375 -1.84375 L 3.359375 -4.234375 L 3.359375 -0.421875 C 3.359375 -0.273438 3.328125 -0.164062 3.265625 -0.09375 C 3.203125 -0.03125 3.097656 0 2.953125 0 Z M 2.953125 0 "/></g></g></g><g fill="#0d4244" fill-opacity="0.502"><g transform="translate(86.537067, 36.435443)"><g><path d="M 3 0 L 1.21875 0 C 1.070312 0 0.960938 -0.03125 0.890625 -0.09375 C 0.828125 -0.164062 0.796875 -0.273438 0.796875 -0.421875 L 0.796875 -7.90625 C 0.796875 -8.050781 0.828125 -8.15625 0.890625 -8.21875 C 0.960938 -8.289062 1.070312 -8.328125 1.21875 -8.328125 L 6.375 -8.328125 C 6.519531 -8.328125 6.625 -8.289062 6.6875 -8.21875 C 6.75 -8.15625 6.78125 -8.050781 6.78125 -7.90625 L 6.78125 -6.53125 C 6.78125 -6.382812 6.75 -6.273438 6.6875 -6.203125 C 6.625 -6.140625 6.519531 -6.109375 6.375 -6.109375 L 3.421875 -6.109375 L 3.421875 -4.921875 L 5.4375 -4.921875 C 5.582031 -4.921875 5.6875 -4.882812 5.75 -4.8125 C 5.8125 -4.75 5.84375 -4.644531 5.84375 -4.5 L 5.84375 -3.109375 C 5.84375 -2.960938 5.8125 -2.851562 5.75 -2.78125 C 5.6875 -2.71875 5.582031 -2.6875 5.4375 -2.6875 L 3.421875 -2.6875 L 3.421875 -0.421875 C 3.421875 -0.273438 3.382812 -0.164062 3.3125 -0.09375 C 3.25 -0.03125 3.144531 0 3 0 Z M 3 0 "/></g></g></g><g fill="#0d4244" fill-opacity="0.502"><g transform="translate(94.427108, 36.435443)"><g><path d="M 1.03125 0 C 0.882812 0 0.773438 -0.03125 0.703125 -0.09375 C 0.640625 -0.164062 0.609375 -0.273438 0.609375 -0.421875 L 0.609375 -1.796875 C 0.609375 -1.941406 0.640625 -2.046875 0.703125 -2.109375 C 0.773438 -2.171875 0.882812 -2.203125 1.03125 -2.203125 L 2.171875 -2.203125 L 2.171875 -6.09375 L 1.03125 -6.09375 C 0.882812 -6.09375 0.773438 -6.125 0.703125 -6.1875 C 0.640625 -6.257812 0.609375 -6.367188 0.609375 -6.515625 L 0.609375 -7.90625 C 0.609375 -8.050781 0.640625 -8.15625 0.703125 -8.21875 C 0.773438 -8.289062 0.882812 -8.328125 1.03125 -8.328125 L 5.953125 -8.328125 C 6.097656 -8.328125 6.203125 -8.289062 6.265625 -8.21875 C 6.335938 -8.15625 6.375 -8.050781 6.375 -7.90625 L 6.375 -6.515625 C 6.375 -6.367188 6.335938 -6.257812 6.265625 -6.1875 C 6.203125 -6.125 6.097656 -6.09375 5.953125 -6.09375 L 4.828125 -6.09375 L 4.828125 -2.203125 L 5.953125 -2.203125 C 6.097656 -2.203125 6.203125 -2.171875 6.265625 -2.109375 C 6.335938 -2.046875 6.375 -1.941406 6.375 -1.796875 L 6.375 -0.421875 C 6.375 -0.273438 6.335938 -0.164062 6.265625 -0.09375 C 6.203125 -0.03125 6.097656 0 5.953125 0 Z M 1.03125 0 "/></g></g></g><g fill="#0d4244" fill-opacity="0.502"><g transform="translate(102.166752, 36.435443)"><g><path d="M 7.15625 0 L 3.515625 0 C 2.546875 0 1.828125 -0.191406 1.359375 -0.578125 C 0.898438 -0.960938 0.671875 -1.554688 0.671875 -2.359375 L 0.671875 -5.96875 C 0.671875 -6.769531 0.898438 -7.363281 1.359375 -7.75 C 1.828125 -8.132812 2.546875 -8.328125 3.515625 -8.328125 L 6.40625 -8.328125 C 6.550781 -8.328125 6.65625 -8.289062 6.71875 -8.21875 C 6.789062 -8.15625 6.828125 -8.050781 6.828125 -7.90625 L 6.828125 -6.515625 C 6.828125 -6.367188 6.789062 -6.257812 6.71875 -6.1875 C 6.65625 -6.125 6.550781 -6.09375 6.40625 -6.09375 L 4 -6.09375 C 3.757812 -6.09375 3.582031 -6.039062 3.46875 -5.9375 C 3.351562 -5.84375 3.296875 -5.703125 3.296875 -5.515625 L 3.296875 -2.75 C 3.296875 -2.5625 3.335938 -2.421875 3.421875 -2.328125 C 3.515625 -2.234375 3.648438 -2.1875 3.828125 -2.1875 L 4.953125 -2.1875 L 4.953125 -3.984375 C 4.953125 -4.128906 4.984375 -4.234375 5.046875 -4.296875 C 5.109375 -4.367188 5.210938 -4.40625 5.359375 -4.40625 L 7.15625 -4.40625 C 7.300781 -4.40625 7.40625 -4.367188 7.46875 -4.296875 C 7.539062 -4.234375 7.578125 -4.128906 7.578125 -3.984375 L 7.578125 -0.421875 C 7.578125 -0.273438 7.539062 -0.164062 7.46875 -0.09375 C 7.40625 -0.03125 7.300781 0 7.15625 0 Z M 7.15625 0 "/></g></g></g><g fill="#0d4244" fill-opacity="0.502"><g transform="translate(111.097995, 36.435443)"><g><path d="M 7.890625 -2.1875 C 7.890625 -1.832031 7.835938 -1.507812 7.734375 -1.21875 C 7.628906 -0.925781 7.441406 -0.675781 7.171875 -0.46875 C 6.910156 -0.269531 6.546875 -0.113281 6.078125 0 C 5.617188 0.113281 5.03125 0.171875 4.3125 0.171875 C 3.59375 0.171875 3 0.113281 2.53125 0 C 2.070312 -0.113281 1.707031 -0.269531 1.4375 -0.46875 C 1.175781 -0.675781 0.992188 -0.925781 0.890625 -1.21875 C 0.785156 -1.507812 0.734375 -1.832031 0.734375 -2.1875 L 0.734375 -7.90625 C 0.734375 -8.050781 0.765625 -8.15625 0.828125 -8.21875 C 0.898438 -8.289062 1.007812 -8.328125 1.15625 -8.328125 L 2.96875 -8.328125 C 3.113281 -8.328125 3.21875 -8.289062 3.28125 -8.21875 C 3.351562 -8.15625 3.390625 -8.050781 3.390625 -7.90625 L 3.390625 -2.640625 C 3.390625 -2.484375 3.445312 -2.351562 3.5625 -2.25 C 3.675781 -2.144531 3.9375 -2.09375 4.34375 -2.09375 C 4.75 -2.09375 5.007812 -2.144531 5.125 -2.25 C 5.238281 -2.351562 5.296875 -2.484375 5.296875 -2.640625 L 5.296875 -7.90625 C 5.296875 -8.050781 5.328125 -8.15625 5.390625 -8.21875 C 5.460938 -8.289062 5.570312 -8.328125 5.71875 -8.328125 L 7.46875 -8.328125 C 7.613281 -8.328125 7.71875 -8.289062 7.78125 -8.21875 C 7.851562 -8.15625 7.890625 -8.050781 7.890625 -7.90625 Z M 7.890625 -2.1875 "/></g></g></g><g fill="#0d4244" fill-opacity="0.502"><g transform="translate(120.46886, 36.435443)"><g><path d="M 3.40625 -6.25 L 3.40625 -4.765625 L 4.28125 -4.765625 C 4.476562 -4.765625 4.609375 -4.816406 4.671875 -4.921875 C 4.742188 -5.023438 4.78125 -5.15625 4.78125 -5.3125 L 4.78125 -5.703125 C 4.78125 -5.859375 4.742188 -5.988281 4.671875 -6.09375 C 4.609375 -6.195312 4.476562 -6.25 4.28125 -6.25 Z M 3 0 L 1.21875 0 C 1.070312 0 0.960938 -0.03125 0.890625 -0.09375 C 0.828125 -0.164062 0.796875 -0.273438 0.796875 -0.421875 L 0.796875 -7.90625 C 0.796875 -8.050781 0.828125 -8.15625 0.890625 -8.21875 C 0.960938 -8.289062 1.070312 -8.328125 1.21875 -8.328125 L 5.0625 -8.328125 C 5.925781 -8.328125 6.519531 -8.144531 6.84375 -7.78125 C 7.175781 -7.425781 7.34375 -6.960938 7.34375 -6.390625 L 7.34375 -5.859375 C 7.34375 -5.535156 7.289062 -5.257812 7.1875 -5.03125 C 7.09375 -4.800781 6.925781 -4.640625 6.6875 -4.546875 C 7.101562 -4.492188 7.441406 -4.320312 7.703125 -4.03125 C 7.960938 -3.738281 8.09375 -3.351562 8.09375 -2.875 L 8.09375 -0.421875 C 8.09375 -0.273438 8.054688 -0.164062 7.984375 -0.09375 C 7.921875 -0.03125 7.816406 0 7.671875 0 L 5.890625 0 C 5.742188 0 5.632812 -0.03125 5.5625 -0.09375 C 5.5 -0.164062 5.46875 -0.273438 5.46875 -0.421875 L 5.46875 -2.1875 C 5.46875 -2.351562 5.429688 -2.476562 5.359375 -2.5625 C 5.296875 -2.644531 5.1875 -2.6875 5.03125 -2.6875 L 3.40625 -2.6875 L 3.40625 -0.421875 C 3.40625 -0.273438 3.375 -0.164062 3.3125 -0.09375 C 3.25 -0.03125 3.144531 0 3 0 Z M 3 0 "/></g></g></g><g fill="#0d4244" fill-opacity="0.502"><g transform="translate(129.80502, 36.435443)"><g><path d="M 3.8125 -5.890625 L 3.265625 -4.140625 L 5.09375 -4.140625 L 4.546875 -5.890625 C 4.515625 -5.960938 4.476562 -6.015625 4.4375 -6.046875 C 4.40625 -6.078125 4.367188 -6.09375 4.328125 -6.09375 L 4.03125 -6.09375 C 3.988281 -6.09375 3.945312 -6.078125 3.90625 -6.046875 C 3.875 -6.015625 3.84375 -5.960938 3.8125 -5.890625 Z M 3.15625 -0.421875 C 3.15625 -0.273438 3.117188 -0.164062 3.046875 -0.09375 C 2.984375 -0.03125 2.878906 0 2.734375 0 L 1.046875 0 C 0.898438 0 0.789062 -0.03125 0.71875 -0.09375 C 0.65625 -0.164062 0.625 -0.273438 0.625 -0.421875 L 0.625 -3.46875 C 0.625 -3.695312 0.660156 -3.960938 0.734375 -4.265625 C 0.804688 -4.566406 0.921875 -4.914062 1.078125 -5.3125 L 2.078125 -7.9375 C 2.128906 -8.070312 2.203125 -8.171875 2.296875 -8.234375 C 2.390625 -8.296875 2.515625 -8.328125 2.671875 -8.328125 L 5.78125 -8.328125 C 5.925781 -8.328125 6.046875 -8.296875 6.140625 -8.234375 C 6.242188 -8.171875 6.316406 -8.070312 6.359375 -7.9375 L 7.359375 -5.3125 C 7.515625 -4.914062 7.628906 -4.566406 7.703125 -4.265625 C 7.773438 -3.960938 7.8125 -3.695312 7.8125 -3.46875 L 7.8125 -0.421875 C 7.8125 -0.273438 7.78125 -0.164062 7.71875 -0.09375 C 7.65625 -0.03125 7.550781 0 7.40625 0 L 5.65625 0 C 5.5 0 5.382812 -0.03125 5.3125 -0.09375 C 5.238281 -0.164062 5.203125 -0.273438 5.203125 -0.421875 L 5.203125 -2.03125 L 3.15625 -2.03125 Z M 3.15625 -0.421875 "/></g></g></g><g fill="#0d4244" fill-opacity="0.502"><g transform="translate(138.990782, 36.435443)"><g><path d="M 4.734375 0 L 2.859375 0 C 2.710938 0 2.601562 -0.03125 2.53125 -0.09375 C 2.46875 -0.164062 2.4375 -0.273438 2.4375 -0.421875 L 2.4375 -6.09375 L 0.734375 -6.09375 C 0.585938 -6.09375 0.484375 -6.125 0.421875 -6.1875 C 0.359375 -6.257812 0.328125 -6.367188 0.328125 -6.515625 L 0.328125 -7.90625 C 0.328125 -8.050781 0.359375 -8.15625 0.421875 -8.21875 C 0.484375 -8.289062 0.585938 -8.328125 0.734375 -8.328125 L 6.84375 -8.328125 C 6.988281 -8.328125 7.09375 -8.289062 7.15625 -8.21875 C 7.226562 -8.15625 7.265625 -8.050781 7.265625 -7.90625 L 7.265625 -6.515625 C 7.265625 -6.367188 7.226562 -6.257812 7.15625 -6.1875 C 7.09375 -6.125 6.988281 -6.09375 6.84375 -6.09375 L 5.140625 -6.09375 L 5.140625 -0.421875 C 5.140625 -0.273438 5.109375 -0.164062 5.046875 -0.09375 C 4.984375 -0.03125 4.878906 0 4.734375 0 Z M 4.734375 0 "/></g></g></g><g fill="#0d4244" fill-opacity="0.502"><g transform="translate(147.32044, 36.435443)"><g><path d="M 1.03125 0 C 0.882812 0 0.773438 -0.03125 0.703125 -0.09375 C 0.640625 -0.164062 0.609375 -0.273438 0.609375 -0.421875 L 0.609375 -1.796875 C 0.609375 -1.941406 0.640625 -2.046875 0.703125 -2.109375 C 0.773438 -2.171875 0.882812 -2.203125 1.03125 -2.203125 L 2.171875 -2.203125 L 2.171875 -6.09375 L 1.03125 -6.09375 C 0.882812 -6.09375 0.773438 -6.125 0.703125 -6.1875 C 0.640625 -6.257812 0.609375 -6.367188 0.609375 -6.515625 L 0.609375 -7.90625 C 0.609375 -8.050781 0.640625 -8.15625 0.703125 -8.21875 C 0.773438 -8.289062 0.882812 -8.328125 1.03125 -8.328125 L 5.953125 -8.328125 C 6.097656 -8.328125 6.203125 -8.289062 6.265625 -8.21875 C 6.335938 -8.15625 6.375 -8.050781 6.375 -7.90625 L 6.375 -6.515625 C 6.375 -6.367188 6.335938 -6.257812 6.265625 -6.1875 C 6.203125 -6.125 6.097656 -6.09375 5.953125 -6.09375 L 4.828125 -6.09375 L 4.828125 -2.203125 L 5.953125 -2.203125 C 6.097656 -2.203125 6.203125 -2.171875 6.265625 -2.109375 C 6.335938 -2.046875 6.375 -1.941406 6.375 -1.796875 L 6.375 -0.421875 C 6.375 -0.273438 6.335938 -0.164062 6.265625 -0.09375 C 6.203125 -0.03125 6.097656 0 5.953125 0 Z M 1.03125 0 "/></g></g></g><g fill="#0d4244" fill-opacity="0.502"><g transform="translate(155.060087, 36.435443)"><g><path d="M 7.84375 -2.1875 C 7.84375 -1.832031 7.789062 -1.507812 7.6875 -1.21875 C 7.582031 -0.925781 7.394531 -0.675781 7.125 -0.46875 C 6.863281 -0.269531 6.5 -0.113281 6.03125 0 C 5.570312 0.113281 4.984375 0.171875 4.265625 0.171875 C 3.546875 0.171875 2.953125 0.113281 2.484375 0 C 2.015625 -0.113281 1.644531 -0.269531 1.375 -0.46875 C 1.113281 -0.675781 0.929688 -0.925781 0.828125 -1.21875 C 0.722656 -1.507812 0.671875 -1.832031 0.671875 -2.1875 L 0.671875 -6.125 C 0.671875 -6.476562 0.722656 -6.800781 0.828125 -7.09375 C 0.929688 -7.382812 1.113281 -7.632812 1.375 -7.84375 C 1.644531 -8.050781 2.015625 -8.210938 2.484375 -8.328125 C 2.953125 -8.441406 3.546875 -8.5 4.265625 -8.5 C 4.984375 -8.5 5.570312 -8.441406 6.03125 -8.328125 C 6.5 -8.210938 6.863281 -8.050781 7.125 -7.84375 C 7.394531 -7.632812 7.582031 -7.382812 7.6875 -7.09375 C 7.789062 -6.800781 7.84375 -6.476562 7.84375 -6.125 Z M 3.296875 -2.609375 C 3.296875 -2.453125 3.351562 -2.320312 3.46875 -2.21875 C 3.582031 -2.113281 3.847656 -2.0625 4.265625 -2.0625 C 4.679688 -2.0625 4.945312 -2.113281 5.0625 -2.21875 C 5.175781 -2.320312 5.234375 -2.453125 5.234375 -2.609375 L 5.234375 -5.71875 C 5.234375 -5.863281 5.175781 -5.988281 5.0625 -6.09375 C 4.945312 -6.195312 4.679688 -6.25 4.265625 -6.25 C 3.847656 -6.25 3.582031 -6.195312 3.46875 -6.09375 C 3.351562 -5.988281 3.296875 -5.863281 3.296875 -5.71875 Z M 3.296875 -2.609375 "/></g></g></g><g fill="#0d4244" fill-opacity="0.502"><g transform="translate(164.326826, 36.435443)"><g><path d="M 2.953125 0 L 1.21875 0 C 1.070312 0 0.960938 -0.03125 0.890625 -0.09375 C 0.828125 -0.164062 0.796875 -0.273438 0.796875 -0.421875 L 0.796875 -7.90625 C 0.796875 -8.050781 0.828125 -8.15625 0.890625 -8.21875 C 0.960938 -8.289062 1.070312 -8.328125 1.21875 -8.328125 L 2.421875 -8.328125 C 2.566406 -8.328125 2.691406 -8.300781 2.796875 -8.25 C 2.898438 -8.207031 3 -8.128906 3.09375 -8.015625 L 5.34375 -5.453125 L 5.34375 -7.90625 C 5.34375 -8.050781 5.375 -8.15625 5.4375 -8.21875 C 5.5 -8.289062 5.609375 -8.328125 5.765625 -8.328125 L 7.5 -8.328125 C 7.644531 -8.328125 7.75 -8.289062 7.8125 -8.21875 C 7.875 -8.15625 7.90625 -8.050781 7.90625 -7.90625 L 7.90625 -0.421875 C 7.90625 -0.273438 7.875 -0.164062 7.8125 -0.09375 C 7.75 -0.03125 7.644531 0 7.5 0 L 5.765625 0 C 5.609375 0 5.5 -0.03125 5.4375 -0.09375 C 5.375 -0.164062 5.34375 -0.273438 5.34375 -0.421875 L 5.34375 -1.84375 L 3.359375 -4.234375 L 3.359375 -0.421875 C 3.359375 -0.273438 3.328125 -0.164062 3.265625 -0.09375 C 3.203125 -0.03125 3.097656 0 2.953125 0 Z M 2.953125 0 "/></g></g></g><g fill="#ffffff" fill-opacity="1"><g transform="translate(59.301451, 35.924146)"><g><path d="M 6.34375 0 L 3.515625 0 C 2.546875 0 1.828125 -0.191406 1.359375 -0.578125 C 0.898438 -0.960938 0.671875 -1.554688 0.671875 -2.359375 L 0.671875 -5.953125 C 0.671875 -6.753906 0.898438 -7.347656 1.359375 -7.734375 C 1.828125 -8.128906 2.546875 -8.328125 3.515625 -8.328125 L 6.34375 -8.328125 C 6.488281 -8.328125 6.59375 -8.289062 6.65625 -8.21875 C 6.71875 -8.15625 6.75 -8.050781 6.75 -7.90625 L 6.75 -6.515625 C 6.75 -6.367188 6.71875 -6.257812 6.65625 -6.1875 C 6.59375 -6.125 6.488281 -6.09375 6.34375 -6.09375 L 4.015625 -6.09375 C 3.773438 -6.09375 3.597656 -6.039062 3.484375 -5.9375 C 3.367188 -5.84375 3.3125 -5.703125 3.3125 -5.515625 L 3.3125 -2.765625 C 3.3125 -2.566406 3.367188 -2.421875 3.484375 -2.328125 C 3.597656 -2.242188 3.773438 -2.203125 4.015625 -2.203125 L 6.34375 -2.203125 C 6.488281 -2.203125 6.59375 -2.171875 6.65625 -2.109375 C 6.71875 -2.046875 6.75 -1.941406 6.75 -1.796875 L 6.75 -0.421875 C 6.75 -0.273438 6.71875 -0.164062 6.65625 -0.09375 C 6.59375 -0.03125 6.488281 0 6.34375 0 Z M 6.34375 0 "/></g></g></g><g fill="#ffffff" fill-opacity="1"><g transform="translate(67.30718, 35.924146)"><g><path d="M 7.84375 -2.1875 C 7.84375 -1.832031 7.789062 -1.507812 7.6875 -1.21875 C 7.582031 -0.925781 7.394531 -0.675781 7.125 -0.46875 C 6.863281 -0.269531 6.5 -0.113281 6.03125 0 C 5.570312 0.113281 4.984375 0.171875 4.265625 0.171875 C 3.546875 0.171875 2.953125 0.113281 2.484375 0 C 2.015625 -0.113281 1.644531 -0.269531 1.375 -0.46875 C 1.113281 -0.675781 0.929688 -0.925781 0.828125 -1.21875 C 0.722656 -1.507812 0.671875 -1.832031 0.671875 -2.1875 L 0.671875 -6.125 C 0.671875 -6.476562 0.722656 -6.800781 0.828125 -7.09375 C 0.929688 -7.382812 1.113281 -7.632812 1.375 -7.84375 C 1.644531 -8.050781 2.015625 -8.210938 2.484375 -8.328125 C 2.953125 -8.441406 3.546875 -8.5 4.265625 -8.5 C 4.984375 -8.5 5.570312 -8.441406 6.03125 -8.328125 C 6.5 -8.210938 6.863281 -8.050781 7.125 -7.84375 C 7.394531 -7.632812 7.582031 -7.382812 7.6875 -7.09375 C 7.789062 -6.800781 7.84375 -6.476562 7.84375 -6.125 Z M 3.296875 -2.609375 C 3.296875 -2.453125 3.351562 -2.320312 3.46875 -2.21875 C 3.582031 -2.113281 3.847656 -2.0625 4.265625 -2.0625 C 4.679688 -2.0625 4.945312 -2.113281 5.0625 -2.21875 C 5.175781 -2.320312 5.234375 -2.453125 5.234375 -2.609375 L 5.234375 -5.71875 C 5.234375 -5.863281 5.175781 -5.988281 5.0625 -6.09375 C 4.945312 -6.195312 4.679688 -6.25 4.265625 -6.25 C 3.847656 -6.25 3.582031 -6.195312 3.46875 -6.09375 C 3.351562 -5.988281 3.296875 -5.863281 3.296875 -5.71875 Z M 3.296875 -2.609375 "/></g></g></g><g fill="#ffffff" fill-opacity="1"><g transform="translate(76.573924, 35.924146)"><g><path d="M 2.953125 0 L 1.21875 0 C 1.070312 0 0.960938 -0.03125 0.890625 -0.09375 C 0.828125 -0.164062 0.796875 -0.273438 0.796875 -0.421875 L 0.796875 -7.90625 C 0.796875 -8.050781 0.828125 -8.15625 0.890625 -8.21875 C 0.960938 -8.289062 1.070312 -8.328125 1.21875 -8.328125 L 2.421875 -8.328125 C 2.566406 -8.328125 2.691406 -8.300781 2.796875 -8.25 C 2.898438 -8.207031 3 -8.128906 3.09375 -8.015625 L 5.34375 -5.453125 L 5.34375 -7.90625 C 5.34375 -8.050781 5.375 -8.15625 5.4375 -8.21875 C 5.5 -8.289062 5.609375 -8.328125 5.765625 -8.328125 L 7.5 -8.328125 C 7.644531 -8.328125 7.75 -8.289062 7.8125 -8.21875 C 7.875 -8.15625 7.90625 -8.050781 7.90625 -7.90625 L 7.90625 -0.421875 C 7.90625 -0.273438 7.875 -0.164062 7.8125 -0.09375 C 7.75 -0.03125 7.644531 0 7.5 0 L 5.765625 0 C 5.609375 0 5.5 -0.03125 5.4375 -0.09375 C 5.375 -0.164062 5.34375 -0.273438 5.34375 -0.421875 L 5.34375 -1.84375 L 3.359375 -4.234375 L 3.359375 -0.421875 C 3.359375 -0.273438 3.328125 -0.164062 3.265625 -0.09375 C 3.203125 -0.03125 3.097656 0 2.953125 0 Z M 2.953125 0 "/></g></g></g><g fill="#ffffff" fill-opacity="1"><g transform="translate(86.02577, 35.924146)"><g><path d="M 3 0 L 1.21875 0 C 1.070312 0 0.960938 -0.03125 0.890625 -0.09375 C 0.828125 -0.164062 0.796875 -0.273438 0.796875 -0.421875 L 0.796875 -7.90625 C 0.796875 -8.050781 0.828125 -8.15625 0.890625 -8.21875 C 0.960938 -8.289062 1.070312 -8.328125 1.21875 -8.328125 L 6.375 -8.328125 C 6.519531 -8.328125 6.625 -8.289062 6.6875 -8.21875 C 6.75 -8.15625 6.78125 -8.050781 6.78125 -7.90625 L 6.78125 -6.53125 C 6.78125 -6.382812 6.75 -6.273438 6.6875 -6.203125 C 6.625 -6.140625 6.519531 -6.109375 6.375 -6.109375 L 3.421875 -6.109375 L 3.421875 -4.921875 L 5.4375 -4.921875 C 5.582031 -4.921875 5.6875 -4.882812 5.75 -4.8125 C 5.8125 -4.75 5.84375 -4.644531 5.84375 -4.5 L 5.84375 -3.109375 C 5.84375 -2.960938 5.8125 -2.851562 5.75 -2.78125 C 5.6875 -2.71875 5.582031 -2.6875 5.4375 -2.6875 L 3.421875 -2.6875 L 3.421875 -0.421875 C 3.421875 -0.273438 3.382812 -0.164062 3.3125 -0.09375 C 3.25 -0.03125 3.144531 0 3 0 Z M 3 0 "/></g></g></g><g fill="#ffffff" fill-opacity="1"><g transform="translate(93.915811, 35.924146)"><g><path d="M 1.03125 0 C 0.882812 0 0.773438 -0.03125 0.703125 -0.09375 C 0.640625 -0.164062 0.609375 -0.273438 0.609375 -0.421875 L 0.609375 -1.796875 C 0.609375 -1.941406 0.640625 -2.046875 0.703125 -2.109375 C 0.773438 -2.171875 0.882812 -2.203125 1.03125 -2.203125 L 2.171875 -2.203125 L 2.171875 -6.09375 L 1.03125 -6.09375 C 0.882812 -6.09375 0.773438 -6.125 0.703125 -6.1875 C 0.640625 -6.257812 0.609375 -6.367188 0.609375 -6.515625 L 0.609375 -7.90625 C 0.609375 -8.050781 0.640625 -8.15625 0.703125 -8.21875 C 0.773438 -8.289062 0.882812 -8.328125 1.03125 -8.328125 L 5.953125 -8.328125 C 6.097656 -8.328125 6.203125 -8.289062 6.265625 -8.21875 C 6.335938 -8.15625 6.375 -8.050781 6.375 -7.90625 L 6.375 -6.515625 C 6.375 -6.367188 6.335938 -6.257812 6.265625 -6.1875 C 6.203125 -6.125 6.097656 -6.09375 5.953125 -6.09375 L 4.828125 -6.09375 L 4.828125 -2.203125 L 5.953125 -2.203125 C 6.097656 -2.203125 6.203125 -2.171875 6.265625 -2.109375 C 6.335938 -2.046875 6.375 -1.941406 6.375 -1.796875 L 6.375 -0.421875 C 6.375 -0.273438 6.335938 -0.164062 6.265625 -0.09375 C 6.203125 -0.03125 6.097656 0 5.953125 0 Z M 1.03125 0 "/></g></g></g><g fill="#ffffff" fill-opacity="1"><g transform="translate(101.655455, 35.924146)"><g><path d="M 7.15625 0 L 3.515625 0 C 2.546875 0 1.828125 -0.191406 1.359375 -0.578125 C 0.898438 -0.960938 0.671875 -1.554688 0.671875 -2.359375 L 0.671875 -5.96875 C 0.671875 -6.769531 0.898438 -7.363281 1.359375 -7.75 C 1.828125 -8.132812 2.546875 -8.328125 3.515625 -8.328125 L 6.40625 -8.328125 C 6.550781 -8.328125 6.65625 -8.289062 6.71875 -8.21875 C 6.789062 -8.15625 6.828125 -8.050781 6.828125 -7.90625 L 6.828125 -6.515625 C 6.828125 -6.367188 6.789062 -6.257812 6.71875 -6.1875 C 6.65625 -6.125 6.550781 -6.09375 6.40625 -6.09375 L 4 -6.09375 C 3.757812 -6.09375 3.582031 -6.039062 3.46875 -5.9375 C 3.351562 -5.84375 3.296875 -5.703125 3.296875 -5.515625 L 3.296875 -2.75 C 3.296875 -2.5625 3.335938 -2.421875 3.421875 -2.328125 C 3.515625 -2.234375 3.648438 -2.1875 3.828125 -2.1875 L 4.953125 -2.1875 L 4.953125 -3.984375 C 4.953125 -4.128906 4.984375 -4.234375 5.046875 -4.296875 C 5.109375 -4.367188 5.210938 -4.40625 5.359375 -4.40625 L 7.15625 -4.40625 C 7.300781 -4.40625 7.40625 -4.367188 7.46875 -4.296875 C 7.539062 -4.234375 7.578125 -4.128906 7.578125 -3.984375 L 7.578125 -0.421875 C 7.578125 -0.273438 7.539062 -0.164062 7.46875 -0.09375 C 7.40625 -0.03125 7.300781 0 7.15625 0 Z M 7.15625 0 "/></g></g></g><g fill="#ffffff" fill-opacity="1"><g transform="translate(110.586698, 35.924146)"><g><path d="M 7.890625 -2.1875 C 7.890625 -1.832031 7.835938 -1.507812 7.734375 -1.21875 C 7.628906 -0.925781 7.441406 -0.675781 7.171875 -0.46875 C 6.910156 -0.269531 6.546875 -0.113281 6.078125 0 C 5.617188 0.113281 5.03125 0.171875 4.3125 0.171875 C 3.59375 0.171875 3 0.113281 2.53125 0 C 2.070312 -0.113281 1.707031 -0.269531 1.4375 -0.46875 C 1.175781 -0.675781 0.992188 -0.925781 0.890625 -1.21875 C 0.785156 -1.507812 0.734375 -1.832031 0.734375 -2.1875 L 0.734375 -7.90625 C 0.734375 -8.050781 0.765625 -8.15625 0.828125 -8.21875 C 0.898438 -8.289062 1.007812 -8.328125 1.15625 -8.328125 L 2.96875 -8.328125 C 3.113281 -8.328125 3.21875 -8.289062 3.28125 -8.21875 C 3.351562 -8.15625 3.390625 -8.050781 3.390625 -7.90625 L 3.390625 -2.640625 C 3.390625 -2.484375 3.445312 -2.351562 3.5625 -2.25 C 3.675781 -2.144531 3.9375 -2.09375 4.34375 -2.09375 C 4.75 -2.09375 5.007812 -2.144531 5.125 -2.25 C 5.238281 -2.351562 5.296875 -2.484375 5.296875 -2.640625 L 5.296875 -7.90625 C 5.296875 -8.050781 5.328125 -8.15625 5.390625 -8.21875 C 5.460938 -8.289062 5.570312 -8.328125 5.71875 -8.328125 L 7.46875 -8.328125 C 7.613281 -8.328125 7.71875 -8.289062 7.78125 -8.21875 C 7.851562 -8.15625 7.890625 -8.050781 7.890625 -7.90625 Z M 7.890625 -2.1875 "/></g></g></g><g fill="#ffffff" fill-opacity="1"><g transform="translate(119.957563, 35.924146)"><g><path d="M 3.40625 -6.25 L 3.40625 -4.765625 L 4.28125 -4.765625 C 4.476562 -4.765625 4.609375 -4.816406 4.671875 -4.921875 C 4.742188 -5.023438 4.78125 -5.15625 4.78125 -5.3125 L 4.78125 -5.703125 C 4.78125 -5.859375 4.742188 -5.988281 4.671875 -6.09375 C 4.609375 -6.195312 4.476562 -6.25 4.28125 -6.25 Z M 3 0 L 1.21875 0 C 1.070312 0 0.960938 -0.03125 0.890625 -0.09375 C 0.828125 -0.164062 0.796875 -0.273438 0.796875 -0.421875 L 0.796875 -7.90625 C 0.796875 -8.050781 0.828125 -8.15625 0.890625 -8.21875 C 0.960938 -8.289062 1.070312 -8.328125 1.21875 -8.328125 L 5.0625 -8.328125 C 5.925781 -8.328125 6.519531 -8.144531 6.84375 -7.78125 C 7.175781 -7.425781 7.34375 -6.960938 7.34375 -6.390625 L 7.34375 -5.859375 C 7.34375 -5.535156 7.289062 -5.257812 7.1875 -5.03125 C 7.09375 -4.800781 6.925781 -4.640625 6.6875 -4.546875 C 7.101562 -4.492188 7.441406 -4.320312 7.703125 -4.03125 C 7.960938 -3.738281 8.09375 -3.351562 8.09375 -2.875 L 8.09375 -0.421875 C 8.09375 -0.273438 8.054688 -0.164062 7.984375 -0.09375 C 7.921875 -0.03125 7.816406 0 7.671875 0 L 5.890625 0 C 5.742188 0 5.632812 -0.03125 5.5625 -0.09375 C 5.5 -0.164062 5.46875 -0.273438 5.46875 -0.421875 L 5.46875 -2.1875 C 5.46875 -2.351562 5.429688 -2.476562 5.359375 -2.5625 C 5.296875 -2.644531 5.1875 -2.6875 5.03125 -2.6875 L 3.40625 -2.6875 L 3.40625 -0.421875 C 3.40625 -0.273438 3.375 -0.164062 3.3125 -0.09375 C 3.25 -0.03125 3.144531 0 3 0 Z M 3 0 "/></g></g></g><g fill="#ffffff" fill-opacity="1"><g transform="translate(129.293723, 35.924146)"><g><path d="M 3.8125 -5.890625 L 3.265625 -4.140625 L 5.09375 -4.140625 L 4.546875 -5.890625 C 4.515625 -5.960938 4.476562 -6.015625 4.4375 -6.046875 C 4.40625 -6.078125 4.367188 -6.09375 4.328125 -6.09375 L 4.03125 -6.09375 C 3.988281 -6.09375 3.945312 -6.078125 3.90625 -6.046875 C 3.875 -6.015625 3.84375 -5.960938 3.8125 -5.890625 Z M 3.15625 -0.421875 C 3.15625 -0.273438 3.117188 -0.164062 3.046875 -0.09375 C 2.984375 -0.03125 2.878906 0 2.734375 0 L 1.046875 0 C 0.898438 0 0.789062 -0.03125 0.71875 -0.09375 C 0.65625 -0.164062 0.625 -0.273438 0.625 -0.421875 L 0.625 -3.46875 C 0.625 -3.695312 0.660156 -3.960938 0.734375 -4.265625 C 0.804688 -4.566406 0.921875 -4.914062 1.078125 -5.3125 L 2.078125 -7.9375 C 2.128906 -8.070312 2.203125 -8.171875 2.296875 -8.234375 C 2.390625 -8.296875 2.515625 -8.328125 2.671875 -8.328125 L 5.78125 -8.328125 C 5.925781 -8.328125 6.046875 -8.296875 6.140625 -8.234375 C 6.242188 -8.171875 6.316406 -8.070312 6.359375 -7.9375 L 7.359375 -5.3125 C 7.515625 -4.914062 7.628906 -4.566406 7.703125 -4.265625 C 7.773438 -3.960938 7.8125 -3.695312 7.8125 -3.46875 L 7.8125 -0.421875 C 7.8125 -0.273438 7.78125 -0.164062 7.71875 -0.09375 C 7.65625 -0.03125 7.550781 0 7.40625 0 L 5.65625 0 C 5.5 0 5.382812 -0.03125 5.3125 -0.09375 C 5.238281 -0.164062 5.203125 -0.273438 5.203125 -0.421875 L 5.203125 -2.03125 L 3.15625 -2.03125 Z M 3.15625 -0.421875 "/></g></g></g><g fill="#ffffff" fill-opacity="1"><g transform="translate(138.479486, 35.924146)"><g><path d="M 4.734375 0 L 2.859375 0 C 2.710938 0 2.601562 -0.03125 2.53125 -0.09375 C 2.46875 -0.164062 2.4375 -0.273438 2.4375 -0.421875 L 2.4375 -6.09375 L 0.734375 -6.09375 C 0.585938 -6.09375 0.484375 -6.125 0.421875 -6.1875 C 0.359375 -6.257812 0.328125 -6.367188 0.328125 -6.515625 L 0.328125 -7.90625 C 0.328125 -8.050781 0.359375 -8.15625 0.421875 -8.21875 C 0.484375 -8.289062 0.585938 -8.328125 0.734375 -8.328125 L 6.84375 -8.328125 C 6.988281 -8.328125 7.09375 -8.289062 7.15625 -8.21875 C 7.226562 -8.15625 7.265625 -8.050781 7.265625 -7.90625 L 7.265625 -6.515625 C 7.265625 -6.367188 7.226562 -6.257812 7.15625 -6.1875 C 7.09375 -6.125 6.988281 -6.09375 6.84375 -6.09375 L 5.140625 -6.09375 L 5.140625 -0.421875 C 5.140625 -0.273438 5.109375 -0.164062 5.046875 -0.09375 C 4.984375 -0.03125 4.878906 0 4.734375 0 Z M 4.734375 0 "/></g></g></g><g fill="#ffffff" fill-opacity="1"><g transform="translate(146.809143, 35.924146)"><g><path d="M 1.03125 0 C 0.882812 0 0.773438 -0.03125 0.703125 -0.09375 C 0.640625 -0.164062 0.609375 -0.273438 0.609375 -0.421875 L 0.609375 -1.796875 C 0.609375 -1.941406 0.640625 -2.046875 0.703125 -2.109375 C 0.773438 -2.171875 0.882812 -2.203125 1.03125 -2.203125 L 2.171875 -2.203125 L 2.171875 -6.09375 L 1.03125 -6.09375 C 0.882812 -6.09375 0.773438 -6.125 0.703125 -6.1875 C 0.640625 -6.257812 0.609375 -6.367188 0.609375 -6.515625 L 0.609375 -7.90625 C 0.609375 -8.050781 0.640625 -8.15625 0.703125 -8.21875 C 0.773438 -8.289062 0.882812 -8.328125 1.03125 -8.328125 L 5.953125 -8.328125 C 6.097656 -8.328125 6.203125 -8.289062 6.265625 -8.21875 C 6.335938 -8.15625 6.375 -8.050781 6.375 -7.90625 L 6.375 -6.515625 C 6.375 -6.367188 6.335938 -6.257812 6.265625 -6.1875 C 6.203125 -6.125 6.097656 -6.09375 5.953125 -6.09375 L 4.828125 -6.09375 L 4.828125 -2.203125 L 5.953125 -2.203125 C 6.097656 -2.203125 6.203125 -2.171875 6.265625 -2.109375 C 6.335938 -2.046875 6.375 -1.941406 6.375 -1.796875 L 6.375 -0.421875 C 6.375 -0.273438 6.335938 -0.164062 6.265625 -0.09375 C 6.203125 -0.03125 6.097656 0 5.953125 0 Z M 1.03125 0 "/></g></g></g><g fill="#ffffff" fill-opacity="1"><g transform="translate(154.54879, 35.924146)"><g><path d="M 7.84375 -2.1875 C 7.84375 -1.832031 7.789062 -1.507812 7.6875 -1.21875 C 7.582031 -0.925781 7.394531 -0.675781 7.125 -0.46875 C 6.863281 -0.269531 6.5 -0.113281 6.03125 0 C 5.570312 0.113281 4.984375 0.171875 4.265625 0.171875 C 3.546875 0.171875 2.953125 0.113281 2.484375 0 C 2.015625 -0.113281 1.644531 -0.269531 1.375 -0.46875 C 1.113281 -0.675781 0.929688 -0.925781 0.828125 -1.21875 C 0.722656 -1.507812 0.671875 -1.832031 0.671875 -2.1875 L 0.671875 -6.125 C 0.671875 -6.476562 0.722656 -6.800781 0.828125 -7.09375 C 0.929688 -7.382812 1.113281 -7.632812 1.375 -7.84375 C 1.644531 -8.050781 2.015625 -8.210938 2.484375 -8.328125 C 2.953125 -8.441406 3.546875 -8.5 4.265625 -8.5 C 4.984375 -8.5 5.570312 -8.441406 6.03125 -8.328125 C 6.5 -8.210938 6.863281 -8.050781 7.125 -7.84375 C 7.394531 -7.632812 7.582031 -7.382812 7.6875 -7.09375 C 7.789062 -6.800781 7.84375 -6.476562 7.84375 -6.125 Z M 3.296875 -2.609375 C 3.296875 -2.453125 3.351562 -2.320312 3.46875 -2.21875 C 3.582031 -2.113281 3.847656 -2.0625 4.265625 -2.0625 C 4.679688 -2.0625 4.945312 -2.113281 5.0625 -2.21875 C 5.175781 -2.320312 5.234375 -2.453125 5.234375 -2.609375 L 5.234375 -5.71875 C 5.234375 -5.863281 5.175781 -5.988281 5.0625 -6.09375 C 4.945312 -6.195312 4.679688 -6.25 4.265625 -6.25 C 3.847656 -6.25 3.582031 -6.195312 3.46875 -6.09375 C 3.351562 -5.988281 3.296875 -5.863281 3.296875 -5.71875 Z M 3.296875 -2.609375 "/></g></g></g><g fill="#ffffff" fill-opacity="1"><g transform="translate(163.815529, 35.924146)"><g><path d="M 2.953125 0 L 1.21875 0 C 1.070312 0 0.960938 -0.03125 0.890625 -0.09375 C 0.828125 -0.164062 0.796875 -0.273438 0.796875 -0.421875 L 0.796875 -7.90625 C 0.796875 -8.050781 0.828125 -8.15625 0.890625 -8.21875 C 0.960938 -8.289062 1.070312 -8.328125 1.21875 -8.328125 L 2.421875 -8.328125 C 2.566406 -8.328125 2.691406 -8.300781 2.796875 -8.25 C 2.898438 -8.207031 3 -8.128906 3.09375 -8.015625 L 5.34375 -5.453125 L 5.34375 -7.90625 C 5.34375 -8.050781 5.375 -8.15625 5.4375 -8.21875 C 5.5 -8.289062 5.609375 -8.328125 5.765625 -8.328125 L 7.5 -8.328125 C 7.644531 -8.328125 7.75 -8.289062 7.8125 -8.21875 C 7.875 -8.15625 7.90625 -8.050781 7.90625 -7.90625 L 7.90625 -0.421875 C 7.90625 -0.273438 7.875 -0.164062 7.8125 -0.09375 C 7.75 -0.03125 7.644531 0 7.5 0 L 5.765625 0 C 5.609375 0 5.5 -0.03125 5.4375 -0.09375 C 5.375 -0.164062 5.34375 -0.273438 5.34375 -0.421875 L 5.34375 -1.84375 L 3.359375 -4.234375 L 3.359375 -0.421875 C 3.359375 -0.273438 3.328125 -0.164062 3.265625 -0.09375 C 3.203125 -0.03125 3.097656 0 2.953125 0 Z M 2.953125 0 "/></g></g></g></svg>