<svg xmlns="http://www.w3.org/2000/svg" xmlns:xlink="http://www.w3.org/1999/xlink" width="800" zoomAndPan="magnify" viewBox="0 0 600 74.999997" height="100" preserveAspectRatio="xMidYMid meet" version="1.0"><defs><g/><clipPath id="52fbf1952f"><path d="M 7.5 2.871094 L 592.5 2.871094 L 592.5 72.789062 L 7.5 72.789062 Z M 7.5 2.871094 " clip-rule="nonzero"/></clipPath><clipPath id="5cc6e0b37f"><path d="M 16.5 2.871094 L 583.5 2.871094 C 588.46875 2.871094 592.5 6.902344 592.5 11.871094 L 592.5 63.789062 C 592.5 68.761719 588.46875 72.789062 583.5 72.789062 L 16.5 72.789062 C 11.53125 72.789062 7.5 68.761719 7.5 63.789062 L 7.5 11.871094 C 7.5 6.902344 11.53125 2.871094 16.5 2.871094 Z M 16.5 2.871094 " clip-rule="nonzero"/></clipPath><clipPath id="58da141456"><path d="M 16.207031 7.832031 L 78.457031 7.832031 L 78.457031 67.832031 L 16.207031 67.832031 Z M 16.207031 7.832031 " clip-rule="nonzero"/></clipPath><clipPath id="56be7e9fe7"><path d="M 16.207031 16.519531 L 50.707031 16.519531 L 50.707031 51 L 16.207031 51 Z M 16.207031 16.519531 " clip-rule="nonzero"/></clipPath></defs><g clip-path="url(#52fbf1952f)"><g clip-path="url(#5cc6e0b37f)"><path fill="#5ce1e6" d="M 7.5 2.871094 L 592.5 2.871094 L 592.5 72.789062 L 7.5 72.789062 Z M 7.5 2.871094 " fill-opacity="1" fill-rule="nonzero"/></g></g><g clip-path="url(#58da141456)"><path fill="#356264" d="M 33.332031 38.085938 C 30.875 38.085938 28.882812 36.097656 28.882812 33.644531 C 28.882812 31.195312 30.875 29.207031 33.332031 29.207031 C 35.789062 29.207031 37.78125 31.195312 37.78125 33.644531 C 37.78125 36.097656 35.789062 38.085938 33.332031 38.085938 Z M 49.839844 31.355469 L 48.949219 31.222656 C 47.679688 31.035156 46.613281 30.171875 46.171875 28.96875 C 46.042969 28.609375 45.894531 28.253906 45.734375 27.910156 C 45.191406 26.746094 45.324219 25.378906 46.089844 24.34375 L 46.628906 23.621094 C 46.84375 23.335938 46.8125 22.9375 46.558594 22.6875 L 44.320312 20.453125 C 44.070312 20.199219 43.667969 20.171875 43.382812 20.382812 L 42.65625 20.917969 C 41.621094 21.683594 40.25 21.816406 39.082031 21.277344 C 38.738281 21.117188 38.382812 20.96875 38.023438 20.839844 C 36.816406 20.398438 35.949219 19.335938 35.761719 18.070312 L 35.628906 17.179688 C 35.574219 16.828125 35.273438 16.566406 34.914062 16.566406 L 31.746094 16.566406 C 31.390625 16.566406 31.089844 16.828125 31.035156 17.179688 L 30.902344 18.070312 C 30.714844 19.335938 29.847656 20.398438 28.640625 20.839844 C 28.28125 20.96875 27.925781 21.117188 27.578125 21.277344 C 26.410156 21.816406 25.039062 21.683594 24.007812 20.917969 L 23.28125 20.382812 C 22.992188 20.171875 22.59375 20.199219 22.34375 20.453125 L 20.101562 22.6875 C 19.851562 22.9375 19.820312 23.335938 20.035156 23.621094 L 20.570312 24.34375 C 21.339844 25.378906 21.472656 26.746094 20.929688 27.910156 C 20.769531 28.253906 20.621094 28.609375 20.488281 28.96875 C 20.050781 30.171875 18.984375 31.035156 17.714844 31.222656 L 16.820312 31.355469 C 16.46875 31.410156 16.207031 31.710938 16.207031 32.066406 L 16.207031 35.226562 C 16.207031 35.582031 16.46875 35.882812 16.820312 35.9375 L 17.714844 36.070312 C 18.984375 36.257812 20.050781 37.121094 20.488281 38.324219 C 20.621094 38.683594 20.769531 39.039062 20.929688 39.382812 C 21.472656 40.546875 21.339844 41.914062 20.570312 42.945312 L 20.035156 43.671875 C 19.820312 43.957031 19.851562 44.355469 20.101562 44.605469 L 22.34375 46.839844 C 22.59375 47.089844 22.992188 47.121094 23.28125 46.910156 L 24.007812 46.371094 C 25.039062 45.609375 26.410156 45.472656 27.578125 46.015625 C 27.925781 46.175781 28.28125 46.324219 28.640625 46.453125 C 29.847656 46.894531 30.714844 47.957031 30.902344 49.222656 L 31.035156 50.113281 C 31.089844 50.464844 31.390625 50.726562 31.746094 50.726562 L 34.914062 50.726562 C 35.273438 50.726562 35.574219 50.464844 35.628906 50.113281 L 35.761719 49.222656 C 35.949219 47.957031 36.816406 46.894531 38.023438 46.453125 C 38.382812 46.324219 38.738281 46.175781 39.082031 46.015625 C 40.25 45.472656 41.621094 45.609375 42.65625 46.371094 L 43.382812 46.910156 C 43.667969 47.121094 44.070312 47.089844 44.320312 46.839844 L 46.558594 44.605469 C 46.8125 44.355469 46.84375 43.957031 46.628906 43.671875 L 46.089844 42.945312 C 45.324219 41.914062 45.191406 40.546875 45.734375 39.382812 C 45.894531 39.039062 46.042969 38.683594 46.171875 38.324219 C 46.613281 37.121094 47.679688 36.257812 48.949219 36.070312 L 49.839844 35.9375 C 50.195312 35.882812 50.457031 35.582031 50.457031 35.226562 L 50.457031 32.066406 C 50.457031 31.710938 50.195312 31.410156 49.839844 31.355469 Z M 61.332031 55.164062 C 58.875 55.164062 56.882812 53.175781 56.882812 50.726562 C 56.882812 48.273438 58.875 46.285156 61.332031 46.285156 C 63.789062 46.285156 65.78125 48.273438 65.78125 50.726562 C 65.78125 53.175781 63.789062 55.164062 61.332031 55.164062 Z M 77.84375 48.4375 L 76.949219 48.304688 C 75.679688 48.117188 74.613281 47.25 74.175781 46.046875 C 74.042969 45.6875 73.894531 45.335938 73.734375 44.988281 C 73.191406 43.824219 73.324219 42.457031 74.09375 41.425781 L 74.628906 40.703125 C 74.84375 40.414062 74.8125 40.015625 74.5625 39.765625 L 72.320312 37.53125 C 72.070312 37.28125 71.671875 37.25 71.382812 37.460938 L 70.65625 38 C 69.625 38.765625 68.253906 38.898438 67.085938 38.355469 C 66.738281 38.195312 66.382812 38.050781 66.023438 37.917969 C 64.816406 37.476562 63.949219 36.414062 63.761719 35.148438 L 63.628906 34.257812 C 63.578125 33.90625 63.273438 33.644531 62.914062 33.644531 L 59.75 33.644531 C 59.390625 33.644531 59.089844 33.90625 59.035156 34.257812 L 58.902344 35.148438 C 58.714844 36.414062 57.847656 37.476562 56.640625 37.917969 C 56.28125 38.050781 55.925781 38.195312 55.582031 38.355469 C 54.414062 38.898438 53.042969 38.765625 52.007812 38 L 51.28125 37.460938 C 50.996094 37.25 50.59375 37.28125 50.34375 37.53125 L 48.105469 39.765625 C 47.851562 40.015625 47.820312 40.414062 48.035156 40.703125 L 48.574219 41.425781 C 49.339844 42.457031 49.472656 43.824219 48.929688 44.988281 C 48.769531 45.335938 48.621094 45.6875 48.492188 46.046875 C 48.050781 47.25 46.984375 48.117188 45.714844 48.304688 L 44.820312 48.4375 C 44.46875 48.488281 44.207031 48.789062 44.207031 49.148438 L 44.207031 52.304688 C 44.207031 52.660156 44.46875 52.964844 44.820312 53.015625 L 45.714844 53.148438 C 46.984375 53.335938 48.050781 54.199219 48.492188 55.402344 C 48.621094 55.765625 48.769531 56.117188 48.929688 56.460938 C 49.472656 57.628906 49.339844 58.996094 48.574219 60.027344 L 48.035156 60.75 C 47.820312 61.035156 47.851562 61.433594 48.105469 61.6875 L 50.34375 63.917969 C 50.59375 64.171875 50.996094 64.203125 51.28125 63.988281 L 52.007812 63.453125 C 53.042969 62.6875 54.414062 62.554688 55.582031 63.09375 C 55.925781 63.257812 56.28125 63.402344 56.640625 63.535156 C 57.847656 63.972656 58.714844 65.035156 58.902344 66.300781 L 59.035156 67.191406 C 59.089844 67.542969 59.390625 67.804688 59.75 67.804688 L 62.914062 67.804688 C 63.273438 67.804688 63.578125 67.542969 63.628906 67.191406 L 63.761719 66.300781 C 63.949219 65.035156 64.816406 63.972656 66.023438 63.535156 C 66.382812 63.402344 66.738281 63.257812 67.085938 63.09375 C 68.253906 62.554688 69.625 62.6875 70.65625 63.453125 L 71.382812 63.988281 C 71.671875 64.203125 72.070312 64.171875 72.320312 63.917969 L 74.5625 61.6875 C 74.8125 61.433594 74.84375 61.035156 74.628906 60.75 L 74.09375 60.027344 C 73.324219 58.996094 73.191406 57.628906 73.734375 56.460938 C 73.894531 56.117188 74.042969 55.765625 74.175781 55.402344 C 74.613281 54.199219 75.679688 53.335938 76.949219 53.148438 L 77.84375 53.015625 C 78.195312 52.964844 78.457031 52.660156 78.457031 52.304688 L 78.457031 49.148438 C 78.457031 48.789062 78.195312 48.488281 77.84375 48.4375 Z M 58.835938 23.550781 C 56.984375 23.550781 55.480469 22.054688 55.480469 20.203125 C 55.480469 18.355469 56.984375 16.855469 58.835938 16.855469 C 60.691406 16.855469 62.195312 18.355469 62.195312 20.203125 C 62.195312 22.054688 60.691406 23.550781 58.835938 23.550781 Z M 70.769531 18.550781 L 70.121094 18.453125 C 69.203125 18.316406 68.433594 17.691406 68.117188 16.824219 C 68.023438 16.5625 67.914062 16.308594 67.796875 16.058594 C 67.40625 15.21875 67.503906 14.230469 68.058594 13.484375 L 68.445312 12.960938 C 68.601562 12.753906 68.578125 12.464844 68.394531 12.285156 L 66.777344 10.671875 C 66.59375 10.488281 66.308594 10.46875 66.101562 10.621094 L 65.574219 11.007812 C 64.828125 11.5625 63.835938 11.65625 62.992188 11.265625 C 62.742188 11.148438 62.488281 11.042969 62.226562 10.949219 C 61.355469 10.632812 60.730469 9.863281 60.59375 8.949219 L 60.496094 8.304688 C 60.457031 8.050781 60.238281 7.863281 59.980469 7.863281 L 57.691406 7.863281 C 57.433594 7.863281 57.214844 8.050781 57.179688 8.304688 L 57.082031 8.949219 C 56.945312 9.863281 56.320312 10.632812 55.449219 10.949219 C 55.1875 11.042969 54.929688 11.148438 54.679688 11.265625 C 53.835938 11.65625 52.847656 11.5625 52.097656 11.007812 L 51.574219 10.621094 C 51.367188 10.46875 51.078125 10.488281 50.894531 10.671875 L 49.277344 12.285156 C 49.097656 12.464844 49.074219 12.753906 49.226562 12.960938 L 49.617188 13.484375 C 50.171875 14.230469 50.269531 15.21875 49.875 16.058594 C 49.757812 16.308594 49.652344 16.5625 49.558594 16.824219 C 49.238281 17.691406 48.46875 18.316406 47.550781 18.453125 L 46.90625 18.550781 C 46.652344 18.585938 46.464844 18.804688 46.464844 19.0625 L 46.464844 21.34375 C 46.464844 21.601562 46.652344 21.820312 46.90625 21.859375 L 47.550781 21.953125 C 48.46875 22.089844 49.238281 22.714844 49.558594 23.585938 C 49.652344 23.84375 49.757812 24.101562 49.875 24.347656 C 50.269531 25.191406 50.171875 26.179688 49.617188 26.925781 L 49.226562 27.449219 C 49.074219 27.65625 49.097656 27.941406 49.277344 28.125 L 50.894531 29.738281 C 51.078125 29.917969 51.367188 29.941406 51.574219 29.789062 L 52.097656 29.402344 C 52.847656 28.847656 53.835938 28.75 54.679688 29.140625 C 54.929688 29.257812 55.1875 29.363281 55.449219 29.460938 C 56.320312 29.777344 56.945312 30.542969 57.082031 31.460938 L 57.179688 32.101562 C 57.214844 32.359375 57.433594 32.546875 57.691406 32.546875 L 59.980469 32.546875 C 60.238281 32.546875 60.457031 32.359375 60.496094 32.101562 L 60.59375 31.460938 C 60.730469 30.542969 61.355469 29.777344 62.226562 29.460938 C 62.488281 29.363281 62.742188 29.257812 62.992188 29.140625 C 63.835938 28.75 64.828125 28.847656 65.574219 29.402344 L 66.101562 29.789062 C 66.308594 29.941406 66.59375 29.917969 66.777344 29.738281 L 68.394531 28.125 C 68.578125 27.941406 68.601562 27.65625 68.445312 27.449219 L 68.058594 26.925781 C 67.503906 26.179688 67.40625 25.191406 67.796875 24.347656 C 67.914062 24.101562 68.023438 23.84375 68.117188 23.585938 C 68.433594 22.714844 69.203125 22.089844 70.121094 21.953125 L 70.769531 21.859375 C 71.023438 21.820312 71.210938 21.601562 71.210938 21.34375 L 71.210938 19.0625 C 71.210938 18.804688 71.023438 18.585938 70.769531 18.550781 " fill-opacity="1" fill-rule="nonzero"/></g><g clip-path="url(#56be7e9fe7)"><path fill="#287777" d="M 49.449219 36.464844 C 50.128906 36.464844 50.679688 35.914062 50.679688 35.234375 L 50.679688 32.261719 C 50.679688 31.582031 50.128906 31.03125 49.449219 31.03125 L 48.171875 31.03125 C 47.496094 31.03125 46.78125 30.5 46.578125 29.851562 L 45.488281 27.207031 C 45.167969 26.609375 45.300781 25.730469 45.777344 25.25 L 46.683594 24.347656 C 47.160156 23.867188 47.160156 23.085938 46.683594 22.605469 L 44.578125 20.503906 C 44.097656 20.023438 43.316406 20.023438 42.835938 20.503906 L 41.933594 21.40625 C 41.453125 21.886719 40.574219 22.015625 39.976562 21.695312 L 37.332031 20.605469 C 36.683594 20.40625 36.15625 19.6875 36.15625 19.011719 L 36.15625 17.734375 C 36.15625 17.058594 35.601562 16.503906 34.925781 16.503906 L 31.949219 16.503906 C 31.273438 16.503906 30.71875 17.058594 30.71875 17.734375 L 30.71875 19.011719 C 30.71875 19.6875 30.1875 20.40625 29.542969 20.605469 L 26.894531 21.695312 C 26.296875 22.015625 25.417969 21.886719 24.941406 21.40625 L 24.035156 20.5 C 23.558594 20.023438 22.773438 20.023438 22.296875 20.5 L 20.191406 22.605469 C 19.710938 23.085938 19.710938 23.867188 20.191406 24.347656 L 21.097656 25.25 C 21.574219 25.730469 21.703125 26.609375 21.382812 27.207031 L 20.292969 29.851562 C 20.09375 30.5 19.378906 31.027344 18.699219 31.027344 L 17.421875 31.027344 C 16.746094 31.027344 16.191406 31.582031 16.191406 32.257812 L 16.191406 35.234375 C 16.191406 35.914062 16.746094 36.464844 17.421875 36.464844 L 18.699219 36.464844 C 19.378906 36.464844 20.09375 36.996094 20.292969 37.644531 L 21.382812 40.289062 C 21.703125 40.886719 21.574219 41.765625 21.097656 42.246094 L 20.191406 43.148438 C 19.710938 43.628906 19.710938 44.410156 20.191406 44.890625 L 22.296875 46.992188 C 22.773438 47.472656 23.558594 47.472656 24.035156 46.992188 L 24.941406 46.089844 C 25.417969 45.609375 26.300781 45.480469 26.894531 45.800781 L 29.542969 46.890625 C 30.1875 47.089844 30.71875 47.808594 30.71875 48.484375 L 30.71875 49.761719 C 30.71875 50.4375 31.273438 50.992188 31.949219 50.992188 L 34.925781 50.992188 C 35.601562 50.992188 36.15625 50.4375 36.15625 49.761719 L 36.15625 48.484375 C 36.15625 47.808594 36.683594 47.089844 37.332031 46.890625 L 39.980469 45.800781 C 40.574219 45.480469 41.453125 45.609375 41.933594 46.089844 L 42.839844 46.992188 C 43.316406 47.472656 44.101562 47.472656 44.578125 46.992188 L 46.683594 44.890625 C 47.160156 44.410156 47.160156 43.628906 46.683594 43.148438 L 45.777344 42.246094 C 45.300781 41.765625 45.171875 40.886719 45.488281 40.289062 L 46.578125 37.644531 C 46.777344 36.996094 47.496094 36.464844 48.171875 36.464844 Z M 33.4375 40.84375 C 29.519531 40.84375 26.34375 37.667969 26.34375 33.75 C 26.34375 29.828125 29.519531 26.652344 33.4375 26.652344 C 37.355469 26.652344 40.53125 29.828125 40.53125 33.75 C 40.53125 37.667969 37.355469 40.84375 33.4375 40.84375 Z M 33.4375 40.84375 " fill-opacity="1" fill-rule="nonzero"/></g><g fill="#0d4244" fill-opacity="0.302"><g transform="translate(223.646203, 53.470397)"><g><path d="M 19.953125 0 L 11.078125 0 C 8.035156 0 5.78125 -0.601562 4.3125 -1.8125 C 2.84375 -3.03125 2.109375 -4.90625 2.109375 -7.4375 L 2.109375 -18.75 C 2.109375 -21.28125 2.84375 -23.15625 4.3125 -24.375 C 5.78125 -25.601562 8.035156 -26.21875 11.078125 -26.21875 L 19.953125 -26.21875 C 20.421875 -26.21875 20.753906 -26.113281 20.953125 -25.90625 C 21.160156 -25.707031 21.265625 -25.375 21.265625 -24.90625 L 21.265625 -20.5 C 21.265625 -20.039062 21.160156 -19.707031 20.953125 -19.5 C 20.753906 -19.289062 20.421875 -19.1875 19.953125 -19.1875 L 12.640625 -19.1875 C 11.890625 -19.1875 11.332031 -19.035156 10.96875 -18.734375 C 10.601562 -18.429688 10.421875 -17.976562 10.421875 -17.375 L 10.421875 -8.703125 C 10.421875 -8.097656 10.601562 -7.65625 10.96875 -7.375 C 11.332031 -7.09375 11.890625 -6.953125 12.640625 -6.953125 L 19.953125 -6.953125 C 20.421875 -6.953125 20.753906 -6.847656 20.953125 -6.640625 C 21.160156 -6.441406 21.265625 -6.109375 21.265625 -5.640625 L 21.265625 -1.3125 C 21.265625 -0.851562 21.160156 -0.519531 20.953125 -0.3125 C 20.753906 -0.101562 20.421875 0 19.953125 0 Z M 19.953125 0 "/></g></g></g><g fill="#0d4244" fill-opacity="0.302"><g transform="translate(248.850972, 53.470397)"><g><path d="M 24.734375 -6.890625 C 24.734375 -5.765625 24.566406 -4.75 24.234375 -3.84375 C 23.910156 -2.9375 23.328125 -2.160156 22.484375 -1.515625 C 21.648438 -0.867188 20.5 -0.363281 19.03125 0 C 17.5625 0.363281 15.695312 0.546875 13.4375 0.546875 C 11.175781 0.546875 9.304688 0.363281 7.828125 0 C 6.347656 -0.363281 5.1875 -0.867188 4.34375 -1.515625 C 3.507812 -2.160156 2.925781 -2.9375 2.59375 -3.84375 C 2.269531 -4.75 2.109375 -5.765625 2.109375 -6.890625 L 2.109375 -19.296875 C 2.109375 -20.421875 2.269531 -21.4375 2.59375 -22.34375 C 2.925781 -23.25 3.507812 -24.03125 4.34375 -24.6875 C 5.1875 -25.34375 6.347656 -25.851562 7.828125 -26.21875 C 9.304688 -26.582031 11.175781 -26.765625 13.4375 -26.765625 C 15.695312 -26.765625 17.5625 -26.582031 19.03125 -26.21875 C 20.5 -25.851562 21.648438 -25.34375 22.484375 -24.6875 C 23.328125 -24.03125 23.910156 -23.25 24.234375 -22.34375 C 24.566406 -21.4375 24.734375 -20.421875 24.734375 -19.296875 Z M 10.375 -8.1875 C 10.375 -7.707031 10.554688 -7.300781 10.921875 -6.96875 C 11.285156 -6.644531 12.125 -6.484375 13.4375 -6.484375 C 14.75 -6.484375 15.585938 -6.644531 15.953125 -6.96875 C 16.316406 -7.300781 16.5 -7.707031 16.5 -8.1875 L 16.5 -18 C 16.5 -18.457031 16.316406 -18.847656 15.953125 -19.171875 C 15.585938 -19.503906 14.75 -19.671875 13.4375 -19.671875 C 12.125 -19.671875 11.285156 -19.503906 10.921875 -19.171875 C 10.554688 -18.847656 10.375 -18.457031 10.375 -18 Z M 10.375 -8.1875 "/></g></g></g><g fill="#0d4244" fill-opacity="0.302"><g transform="translate(278.025731, 53.470397)"><g><path d="M 9.28125 0 L 3.828125 0 C 3.359375 0 3.019531 -0.101562 2.8125 -0.3125 C 2.613281 -0.519531 2.515625 -0.851562 2.515625 -1.3125 L 2.515625 -24.90625 C 2.515625 -25.375 2.613281 -25.707031 2.8125 -25.90625 C 3.019531 -26.113281 3.359375 -26.21875 3.828125 -26.21875 L 7.609375 -26.21875 C 8.066406 -26.21875 8.457031 -26.144531 8.78125 -26 C 9.113281 -25.851562 9.441406 -25.597656 9.765625 -25.234375 L 16.828125 -17.15625 L 16.828125 -24.90625 C 16.828125 -25.375 16.929688 -25.707031 17.140625 -25.90625 C 17.347656 -26.113281 17.679688 -26.21875 18.140625 -26.21875 L 23.59375 -26.21875 C 24.0625 -26.21875 24.394531 -26.113281 24.59375 -25.90625 C 24.800781 -25.707031 24.90625 -25.375 24.90625 -24.90625 L 24.90625 -1.3125 C 24.90625 -0.851562 24.800781 -0.519531 24.59375 -0.3125 C 24.394531 -0.101562 24.0625 0 23.59375 0 L 18.140625 0 C 17.679688 0 17.347656 -0.101562 17.140625 -0.3125 C 16.929688 -0.519531 16.828125 -0.851562 16.828125 -1.3125 L 16.828125 -5.796875 L 10.59375 -13.328125 L 10.59375 -1.3125 C 10.59375 -0.851562 10.488281 -0.519531 10.28125 -0.3125 C 10.082031 -0.101562 9.75 0 9.28125 0 Z M 9.28125 0 "/></g></g></g><g fill="#0d4244" fill-opacity="0.302"><g transform="translate(307.783234, 53.470397)"><g><path d="M 9.46875 0 L 3.828125 0 C 3.359375 0 3.019531 -0.101562 2.8125 -0.3125 C 2.613281 -0.519531 2.515625 -0.851562 2.515625 -1.3125 L 2.515625 -24.90625 C 2.515625 -25.375 2.613281 -25.707031 2.8125 -25.90625 C 3.019531 -26.113281 3.359375 -26.21875 3.828125 -26.21875 L 20.0625 -26.21875 C 20.53125 -26.21875 20.863281 -26.113281 21.0625 -25.90625 C 21.269531 -25.707031 21.375 -25.375 21.375 -24.90625 L 21.375 -20.578125 C 21.375 -20.117188 21.269531 -19.785156 21.0625 -19.578125 C 20.863281 -19.367188 20.53125 -19.265625 20.0625 -19.265625 L 10.78125 -19.265625 L 10.78125 -15.484375 L 17.125 -15.484375 C 17.582031 -15.484375 17.910156 -15.378906 18.109375 -15.171875 C 18.316406 -14.960938 18.421875 -14.628906 18.421875 -14.171875 L 18.421875 -9.796875 C 18.421875 -9.335938 18.316406 -9.003906 18.109375 -8.796875 C 17.910156 -8.585938 17.582031 -8.484375 17.125 -8.484375 L 10.78125 -8.484375 L 10.78125 -1.3125 C 10.78125 -0.851562 10.675781 -0.519531 10.46875 -0.3125 C 10.257812 -0.101562 9.925781 0 9.46875 0 Z M 9.46875 0 "/></g></g></g><g fill="#0d4244" fill-opacity="0.302"><g transform="translate(332.623783, 53.470397)"><g><path d="M 3.234375 0 C 2.773438 0 2.441406 -0.101562 2.234375 -0.3125 C 2.035156 -0.519531 1.9375 -0.851562 1.9375 -1.3125 L 1.9375 -5.640625 C 1.9375 -6.109375 2.035156 -6.441406 2.234375 -6.640625 C 2.441406 -6.847656 2.773438 -6.953125 3.234375 -6.953125 L 6.84375 -6.953125 L 6.84375 -19.1875 L 3.234375 -19.1875 C 2.773438 -19.1875 2.441406 -19.289062 2.234375 -19.5 C 2.035156 -19.707031 1.9375 -20.039062 1.9375 -20.5 L 1.9375 -24.90625 C 1.9375 -25.375 2.035156 -25.707031 2.234375 -25.90625 C 2.441406 -26.113281 2.773438 -26.21875 3.234375 -26.21875 L 18.75 -26.21875 C 19.21875 -26.21875 19.550781 -26.113281 19.75 -25.90625 C 19.957031 -25.707031 20.0625 -25.375 20.0625 -24.90625 L 20.0625 -20.5 C 20.0625 -20.039062 19.957031 -19.707031 19.75 -19.5 C 19.550781 -19.289062 19.21875 -19.1875 18.75 -19.1875 L 15.21875 -19.1875 L 15.21875 -6.953125 L 18.75 -6.953125 C 19.21875 -6.953125 19.550781 -6.847656 19.75 -6.640625 C 19.957031 -6.441406 20.0625 -6.109375 20.0625 -5.640625 L 20.0625 -1.3125 C 20.0625 -0.851562 19.957031 -0.519531 19.75 -0.3125 C 19.550781 -0.101562 19.21875 0 18.75 0 Z M 3.234375 0 "/></g></g></g><g fill="#0d4244" fill-opacity="0.302"><g transform="translate(356.99085, 53.470397)"><g><path d="M 22.546875 0 L 11.078125 0 C 8.035156 0 5.78125 -0.601562 4.3125 -1.8125 C 2.84375 -3.03125 2.109375 -4.90625 2.109375 -7.4375 L 2.109375 -18.796875 C 2.109375 -21.316406 2.84375 -23.179688 4.3125 -24.390625 C 5.78125 -25.609375 8.035156 -26.21875 11.078125 -26.21875 L 20.171875 -26.21875 C 20.640625 -26.21875 20.972656 -26.113281 21.171875 -25.90625 C 21.378906 -25.707031 21.484375 -25.375 21.484375 -24.90625 L 21.484375 -20.5 C 21.484375 -20.039062 21.378906 -19.707031 21.171875 -19.5 C 20.972656 -19.289062 20.640625 -19.1875 20.171875 -19.1875 L 12.609375 -19.1875 C 11.847656 -19.1875 11.285156 -19.035156 10.921875 -18.734375 C 10.554688 -18.429688 10.375 -17.976562 10.375 -17.375 L 10.375 -8.671875 C 10.375 -8.066406 10.515625 -7.617188 10.796875 -7.328125 C 11.078125 -7.035156 11.5 -6.890625 12.0625 -6.890625 L 15.59375 -6.890625 L 15.59375 -12.5625 C 15.59375 -13.019531 15.691406 -13.351562 15.890625 -13.5625 C 16.097656 -13.769531 16.4375 -13.875 16.90625 -13.875 L 22.546875 -13.875 C 23.003906 -13.875 23.335938 -13.769531 23.546875 -13.5625 C 23.753906 -13.351562 23.859375 -13.019531 23.859375 -12.5625 L 23.859375 -1.3125 C 23.859375 -0.851562 23.753906 -0.519531 23.546875 -0.3125 C 23.335938 -0.101562 23.003906 0 22.546875 0 Z M 22.546875 0 "/></g></g></g><g fill="#0d4244" fill-opacity="0.502"><g transform="translate(222.036002, 51.860197)"><g><path d="M 19.953125 0 L 11.078125 0 C 8.035156 0 5.78125 -0.601562 4.3125 -1.8125 C 2.84375 -3.03125 2.109375 -4.90625 2.109375 -7.4375 L 2.109375 -18.75 C 2.109375 -21.28125 2.84375 -23.15625 4.3125 -24.375 C 5.78125 -25.601562 8.035156 -26.21875 11.078125 -26.21875 L 19.953125 -26.21875 C 20.421875 -26.21875 20.753906 -26.113281 20.953125 -25.90625 C 21.160156 -25.707031 21.265625 -25.375 21.265625 -24.90625 L 21.265625 -20.5 C 21.265625 -20.039062 21.160156 -19.707031 20.953125 -19.5 C 20.753906 -19.289062 20.421875 -19.1875 19.953125 -19.1875 L 12.640625 -19.1875 C 11.890625 -19.1875 11.332031 -19.035156 10.96875 -18.734375 C 10.601562 -18.429688 10.421875 -17.976562 10.421875 -17.375 L 10.421875 -8.703125 C 10.421875 -8.097656 10.601562 -7.65625 10.96875 -7.375 C 11.332031 -7.09375 11.890625 -6.953125 12.640625 -6.953125 L 19.953125 -6.953125 C 20.421875 -6.953125 20.753906 -6.847656 20.953125 -6.640625 C 21.160156 -6.441406 21.265625 -6.109375 21.265625 -5.640625 L 21.265625 -1.3125 C 21.265625 -0.851562 21.160156 -0.519531 20.953125 -0.3125 C 20.753906 -0.101562 20.421875 0 19.953125 0 Z M 19.953125 0 "/></g></g></g><g fill="#0d4244" fill-opacity="0.502"><g transform="translate(247.24077, 51.860197)"><g><path d="M 24.734375 -6.890625 C 24.734375 -5.765625 24.566406 -4.75 24.234375 -3.84375 C 23.910156 -2.9375 23.328125 -2.160156 22.484375 -1.515625 C 21.648438 -0.867188 20.5 -0.363281 19.03125 0 C 17.5625 0.363281 15.695312 0.546875 13.4375 0.546875 C 11.175781 0.546875 9.304688 0.363281 7.828125 0 C 6.347656 -0.363281 5.1875 -0.867188 4.34375 -1.515625 C 3.507812 -2.160156 2.925781 -2.9375 2.59375 -3.84375 C 2.269531 -4.75 2.109375 -5.765625 2.109375 -6.890625 L 2.109375 -19.296875 C 2.109375 -20.421875 2.269531 -21.4375 2.59375 -22.34375 C 2.925781 -23.25 3.507812 -24.03125 4.34375 -24.6875 C 5.1875 -25.34375 6.347656 -25.851562 7.828125 -26.21875 C 9.304688 -26.582031 11.175781 -26.765625 13.4375 -26.765625 C 15.695312 -26.765625 17.5625 -26.582031 19.03125 -26.21875 C 20.5 -25.851562 21.648438 -25.34375 22.484375 -24.6875 C 23.328125 -24.03125 23.910156 -23.25 24.234375 -22.34375 C 24.566406 -21.4375 24.734375 -20.421875 24.734375 -19.296875 Z M 10.375 -8.1875 C 10.375 -7.707031 10.554688 -7.300781 10.921875 -6.96875 C 11.285156 -6.644531 12.125 -6.484375 13.4375 -6.484375 C 14.75 -6.484375 15.585938 -6.644531 15.953125 -6.96875 C 16.316406 -7.300781 16.5 -7.707031 16.5 -8.1875 L 16.5 -18 C 16.5 -18.457031 16.316406 -18.847656 15.953125 -19.171875 C 15.585938 -19.503906 14.75 -19.671875 13.4375 -19.671875 C 12.125 -19.671875 11.285156 -19.503906 10.921875 -19.171875 C 10.554688 -18.847656 10.375 -18.457031 10.375 -18 Z M 10.375 -8.1875 "/></g></g></g><g fill="#0d4244" fill-opacity="0.502"><g transform="translate(276.415529, 51.860197)"><g><path d="M 9.28125 0 L 3.828125 0 C 3.359375 0 3.019531 -0.101562 2.8125 -0.3125 C 2.613281 -0.519531 2.515625 -0.851562 2.515625 -1.3125 L 2.515625 -24.90625 C 2.515625 -25.375 2.613281 -25.707031 2.8125 -25.90625 C 3.019531 -26.113281 3.359375 -26.21875 3.828125 -26.21875 L 7.609375 -26.21875 C 8.066406 -26.21875 8.457031 -26.144531 8.78125 -26 C 9.113281 -25.851562 9.441406 -25.597656 9.765625 -25.234375 L 16.828125 -17.15625 L 16.828125 -24.90625 C 16.828125 -25.375 16.929688 -25.707031 17.140625 -25.90625 C 17.347656 -26.113281 17.679688 -26.21875 18.140625 -26.21875 L 23.59375 -26.21875 C 24.0625 -26.21875 24.394531 -26.113281 24.59375 -25.90625 C 24.800781 -25.707031 24.90625 -25.375 24.90625 -24.90625 L 24.90625 -1.3125 C 24.90625 -0.851562 24.800781 -0.519531 24.59375 -0.3125 C 24.394531 -0.101562 24.0625 0 23.59375 0 L 18.140625 0 C 17.679688 0 17.347656 -0.101562 17.140625 -0.3125 C 16.929688 -0.519531 16.828125 -0.851562 16.828125 -1.3125 L 16.828125 -5.796875 L 10.59375 -13.328125 L 10.59375 -1.3125 C 10.59375 -0.851562 10.488281 -0.519531 10.28125 -0.3125 C 10.082031 -0.101562 9.75 0 9.28125 0 Z M 9.28125 0 "/></g></g></g><g fill="#0d4244" fill-opacity="0.502"><g transform="translate(306.173032, 51.860197)"><g><path d="M 9.46875 0 L 3.828125 0 C 3.359375 0 3.019531 -0.101562 2.8125 -0.3125 C 2.613281 -0.519531 2.515625 -0.851562 2.515625 -1.3125 L 2.515625 -24.90625 C 2.515625 -25.375 2.613281 -25.707031 2.8125 -25.90625 C 3.019531 -26.113281 3.359375 -26.21875 3.828125 -26.21875 L 20.0625 -26.21875 C 20.53125 -26.21875 20.863281 -26.113281 21.0625 -25.90625 C 21.269531 -25.707031 21.375 -25.375 21.375 -24.90625 L 21.375 -20.578125 C 21.375 -20.117188 21.269531 -19.785156 21.0625 -19.578125 C 20.863281 -19.367188 20.53125 -19.265625 20.0625 -19.265625 L 10.78125 -19.265625 L 10.78125 -15.484375 L 17.125 -15.484375 C 17.582031 -15.484375 17.910156 -15.378906 18.109375 -15.171875 C 18.316406 -14.960938 18.421875 -14.628906 18.421875 -14.171875 L 18.421875 -9.796875 C 18.421875 -9.335938 18.316406 -9.003906 18.109375 -8.796875 C 17.910156 -8.585938 17.582031 -8.484375 17.125 -8.484375 L 10.78125 -8.484375 L 10.78125 -1.3125 C 10.78125 -0.851562 10.675781 -0.519531 10.46875 -0.3125 C 10.257812 -0.101562 9.925781 0 9.46875 0 Z M 9.46875 0 "/></g></g></g><g fill="#0d4244" fill-opacity="0.502"><g transform="translate(331.013581, 51.860197)"><g><path d="M 3.234375 0 C 2.773438 0 2.441406 -0.101562 2.234375 -0.3125 C 2.035156 -0.519531 1.9375 -0.851562 1.9375 -1.3125 L 1.9375 -5.640625 C 1.9375 -6.109375 2.035156 -6.441406 2.234375 -6.640625 C 2.441406 -6.847656 2.773438 -6.953125 3.234375 -6.953125 L 6.84375 -6.953125 L 6.84375 -19.1875 L 3.234375 -19.1875 C 2.773438 -19.1875 2.441406 -19.289062 2.234375 -19.5 C 2.035156 -19.707031 1.9375 -20.039062 1.9375 -20.5 L 1.9375 -24.90625 C 1.9375 -25.375 2.035156 -25.707031 2.234375 -25.90625 C 2.441406 -26.113281 2.773438 -26.21875 3.234375 -26.21875 L 18.75 -26.21875 C 19.21875 -26.21875 19.550781 -26.113281 19.75 -25.90625 C 19.957031 -25.707031 20.0625 -25.375 20.0625 -24.90625 L 20.0625 -20.5 C 20.0625 -20.039062 19.957031 -19.707031 19.75 -19.5 C 19.550781 -19.289062 19.21875 -19.1875 18.75 -19.1875 L 15.21875 -19.1875 L 15.21875 -6.953125 L 18.75 -6.953125 C 19.21875 -6.953125 19.550781 -6.847656 19.75 -6.640625 C 19.957031 -6.441406 20.0625 -6.109375 20.0625 -5.640625 L 20.0625 -1.3125 C 20.0625 -0.851562 19.957031 -0.519531 19.75 -0.3125 C 19.550781 -0.101562 19.21875 0 18.75 0 Z M 3.234375 0 "/></g></g></g><g fill="#0d4244" fill-opacity="0.502"><g transform="translate(355.380648, 51.860197)"><g><path d="M 22.546875 0 L 11.078125 0 C 8.035156 0 5.78125 -0.601562 4.3125 -1.8125 C 2.84375 -3.03125 2.109375 -4.90625 2.109375 -7.4375 L 2.109375 -18.796875 C 2.109375 -21.316406 2.84375 -23.179688 4.3125 -24.390625 C 5.78125 -25.609375 8.035156 -26.21875 11.078125 -26.21875 L 20.171875 -26.21875 C 20.640625 -26.21875 20.972656 -26.113281 21.171875 -25.90625 C 21.378906 -25.707031 21.484375 -25.375 21.484375 -24.90625 L 21.484375 -20.5 C 21.484375 -20.039062 21.378906 -19.707031 21.171875 -19.5 C 20.972656 -19.289062 20.640625 -19.1875 20.171875 -19.1875 L 12.609375 -19.1875 C 11.847656 -19.1875 11.285156 -19.035156 10.921875 -18.734375 C 10.554688 -18.429688 10.375 -17.976562 10.375 -17.375 L 10.375 -8.671875 C 10.375 -8.066406 10.515625 -7.617188 10.796875 -7.328125 C 11.078125 -7.035156 11.5 -6.890625 12.0625 -6.890625 L 15.59375 -6.890625 L 15.59375 -12.5625 C 15.59375 -13.019531 15.691406 -13.351562 15.890625 -13.5625 C 16.097656 -13.769531 16.4375 -13.875 16.90625 -13.875 L 22.546875 -13.875 C 23.003906 -13.875 23.335938 -13.769531 23.546875 -13.5625 C 23.753906 -13.351562 23.859375 -13.019531 23.859375 -12.5625 L 23.859375 -1.3125 C 23.859375 -0.851562 23.753906 -0.519531 23.546875 -0.3125 C 23.335938 -0.101562 23.003906 0 22.546875 0 Z M 22.546875 0 "/></g></g></g><g fill="#ffffff" fill-opacity="1"><g transform="translate(220.4258, 50.249995)"><g><path d="M 19.953125 0 L 11.078125 0 C 8.035156 0 5.78125 -0.601562 4.3125 -1.8125 C 2.84375 -3.03125 2.109375 -4.90625 2.109375 -7.4375 L 2.109375 -18.75 C 2.109375 -21.28125 2.84375 -23.15625 4.3125 -24.375 C 5.78125 -25.601562 8.035156 -26.21875 11.078125 -26.21875 L 19.953125 -26.21875 C 20.421875 -26.21875 20.753906 -26.113281 20.953125 -25.90625 C 21.160156 -25.707031 21.265625 -25.375 21.265625 -24.90625 L 21.265625 -20.5 C 21.265625 -20.039062 21.160156 -19.707031 20.953125 -19.5 C 20.753906 -19.289062 20.421875 -19.1875 19.953125 -19.1875 L 12.640625 -19.1875 C 11.890625 -19.1875 11.332031 -19.035156 10.96875 -18.734375 C 10.601562 -18.429688 10.421875 -17.976562 10.421875 -17.375 L 10.421875 -8.703125 C 10.421875 -8.097656 10.601562 -7.65625 10.96875 -7.375 C 11.332031 -7.09375 11.890625 -6.953125 12.640625 -6.953125 L 19.953125 -6.953125 C 20.421875 -6.953125 20.753906 -6.847656 20.953125 -6.640625 C 21.160156 -6.441406 21.265625 -6.109375 21.265625 -5.640625 L 21.265625 -1.3125 C 21.265625 -0.851562 21.160156 -0.519531 20.953125 -0.3125 C 20.753906 -0.101562 20.421875 0 19.953125 0 Z M 19.953125 0 "/></g></g></g><g fill="#ffffff" fill-opacity="1"><g transform="translate(245.630569, 50.249995)"><g><path d="M 24.734375 -6.890625 C 24.734375 -5.765625 24.566406 -4.75 24.234375 -3.84375 C 23.910156 -2.9375 23.328125 -2.160156 22.484375 -1.515625 C 21.648438 -0.867188 20.5 -0.363281 19.03125 0 C 17.5625 0.363281 15.695312 0.546875 13.4375 0.546875 C 11.175781 0.546875 9.304688 0.363281 7.828125 0 C 6.347656 -0.363281 5.1875 -0.867188 4.34375 -1.515625 C 3.507812 -2.160156 2.925781 -2.9375 2.59375 -3.84375 C 2.269531 -4.75 2.109375 -5.765625 2.109375 -6.890625 L 2.109375 -19.296875 C 2.109375 -20.421875 2.269531 -21.4375 2.59375 -22.34375 C 2.925781 -23.25 3.507812 -24.03125 4.34375 -24.6875 C 5.1875 -25.34375 6.347656 -25.851562 7.828125 -26.21875 C 9.304688 -26.582031 11.175781 -26.765625 13.4375 -26.765625 C 15.695312 -26.765625 17.5625 -26.582031 19.03125 -26.21875 C 20.5 -25.851562 21.648438 -25.34375 22.484375 -24.6875 C 23.328125 -24.03125 23.910156 -23.25 24.234375 -22.34375 C 24.566406 -21.4375 24.734375 -20.421875 24.734375 -19.296875 Z M 10.375 -8.1875 C 10.375 -7.707031 10.554688 -7.300781 10.921875 -6.96875 C 11.285156 -6.644531 12.125 -6.484375 13.4375 -6.484375 C 14.75 -6.484375 15.585938 -6.644531 15.953125 -6.96875 C 16.316406 -7.300781 16.5 -7.707031 16.5 -8.1875 L 16.5 -18 C 16.5 -18.457031 16.316406 -18.847656 15.953125 -19.171875 C 15.585938 -19.503906 14.75 -19.671875 13.4375 -19.671875 C 12.125 -19.671875 11.285156 -19.503906 10.921875 -19.171875 C 10.554688 -18.847656 10.375 -18.457031 10.375 -18 Z M 10.375 -8.1875 "/></g></g></g><g fill="#ffffff" fill-opacity="1"><g transform="translate(274.805328, 50.249995)"><g><path d="M 9.28125 0 L 3.828125 0 C 3.359375 0 3.019531 -0.101562 2.8125 -0.3125 C 2.613281 -0.519531 2.515625 -0.851562 2.515625 -1.3125 L 2.515625 -24.90625 C 2.515625 -25.375 2.613281 -25.707031 2.8125 -25.90625 C 3.019531 -26.113281 3.359375 -26.21875 3.828125 -26.21875 L 7.609375 -26.21875 C 8.066406 -26.21875 8.457031 -26.144531 8.78125 -26 C 9.113281 -25.851562 9.441406 -25.597656 9.765625 -25.234375 L 16.828125 -17.15625 L 16.828125 -24.90625 C 16.828125 -25.375 16.929688 -25.707031 17.140625 -25.90625 C 17.347656 -26.113281 17.679688 -26.21875 18.140625 -26.21875 L 23.59375 -26.21875 C 24.0625 -26.21875 24.394531 -26.113281 24.59375 -25.90625 C 24.800781 -25.707031 24.90625 -25.375 24.90625 -24.90625 L 24.90625 -1.3125 C 24.90625 -0.851562 24.800781 -0.519531 24.59375 -0.3125 C 24.394531 -0.101562 24.0625 0 23.59375 0 L 18.140625 0 C 17.679688 0 17.347656 -0.101562 17.140625 -0.3125 C 16.929688 -0.519531 16.828125 -0.851562 16.828125 -1.3125 L 16.828125 -5.796875 L 10.59375 -13.328125 L 10.59375 -1.3125 C 10.59375 -0.851562 10.488281 -0.519531 10.28125 -0.3125 C 10.082031 -0.101562 9.75 0 9.28125 0 Z M 9.28125 0 "/></g></g></g><g fill="#ffffff" fill-opacity="1"><g transform="translate(304.562831, 50.249995)"><g><path d="M 9.46875 0 L 3.828125 0 C 3.359375 0 3.019531 -0.101562 2.8125 -0.3125 C 2.613281 -0.519531 2.515625 -0.851562 2.515625 -1.3125 L 2.515625 -24.90625 C 2.515625 -25.375 2.613281 -25.707031 2.8125 -25.90625 C 3.019531 -26.113281 3.359375 -26.21875 3.828125 -26.21875 L 20.0625 -26.21875 C 20.53125 -26.21875 20.863281 -26.113281 21.0625 -25.90625 C 21.269531 -25.707031 21.375 -25.375 21.375 -24.90625 L 21.375 -20.578125 C 21.375 -20.117188 21.269531 -19.785156 21.0625 -19.578125 C 20.863281 -19.367188 20.53125 -19.265625 20.0625 -19.265625 L 10.78125 -19.265625 L 10.78125 -15.484375 L 17.125 -15.484375 C 17.582031 -15.484375 17.910156 -15.378906 18.109375 -15.171875 C 18.316406 -14.960938 18.421875 -14.628906 18.421875 -14.171875 L 18.421875 -9.796875 C 18.421875 -9.335938 18.316406 -9.003906 18.109375 -8.796875 C 17.910156 -8.585938 17.582031 -8.484375 17.125 -8.484375 L 10.78125 -8.484375 L 10.78125 -1.3125 C 10.78125 -0.851562 10.675781 -0.519531 10.46875 -0.3125 C 10.257812 -0.101562 9.925781 0 9.46875 0 Z M 9.46875 0 "/></g></g></g><g fill="#ffffff" fill-opacity="1"><g transform="translate(329.40338, 50.249995)"><g><path d="M 3.234375 0 C 2.773438 0 2.441406 -0.101562 2.234375 -0.3125 C 2.035156 -0.519531 1.9375 -0.851562 1.9375 -1.3125 L 1.9375 -5.640625 C 1.9375 -6.109375 2.035156 -6.441406 2.234375 -6.640625 C 2.441406 -6.847656 2.773438 -6.953125 3.234375 -6.953125 L 6.84375 -6.953125 L 6.84375 -19.1875 L 3.234375 -19.1875 C 2.773438 -19.1875 2.441406 -19.289062 2.234375 -19.5 C 2.035156 -19.707031 1.9375 -20.039062 1.9375 -20.5 L 1.9375 -24.90625 C 1.9375 -25.375 2.035156 -25.707031 2.234375 -25.90625 C 2.441406 -26.113281 2.773438 -26.21875 3.234375 -26.21875 L 18.75 -26.21875 C 19.21875 -26.21875 19.550781 -26.113281 19.75 -25.90625 C 19.957031 -25.707031 20.0625 -25.375 20.0625 -24.90625 L 20.0625 -20.5 C 20.0625 -20.039062 19.957031 -19.707031 19.75 -19.5 C 19.550781 -19.289062 19.21875 -19.1875 18.75 -19.1875 L 15.21875 -19.1875 L 15.21875 -6.953125 L 18.75 -6.953125 C 19.21875 -6.953125 19.550781 -6.847656 19.75 -6.640625 C 19.957031 -6.441406 20.0625 -6.109375 20.0625 -5.640625 L 20.0625 -1.3125 C 20.0625 -0.851562 19.957031 -0.519531 19.75 -0.3125 C 19.550781 -0.101562 19.21875 0 18.75 0 Z M 3.234375 0 "/></g></g></g><g fill="#ffffff" fill-opacity="1"><g transform="translate(353.770447, 50.249995)"><g><path d="M 22.546875 0 L 11.078125 0 C 8.035156 0 5.78125 -0.601562 4.3125 -1.8125 C 2.84375 -3.03125 2.109375 -4.90625 2.109375 -7.4375 L 2.109375 -18.796875 C 2.109375 -21.316406 2.84375 -23.179688 4.3125 -24.390625 C 5.78125 -25.609375 8.035156 -26.21875 11.078125 -26.21875 L 20.171875 -26.21875 C 20.640625 -26.21875 20.972656 -26.113281 21.171875 -25.90625 C 21.378906 -25.707031 21.484375 -25.375 21.484375 -24.90625 L 21.484375 -20.5 C 21.484375 -20.039062 21.378906 -19.707031 21.171875 -19.5 C 20.972656 -19.289062 20.640625 -19.1875 20.171875 -19.1875 L 12.609375 -19.1875 C 11.847656 -19.1875 11.285156 -19.035156 10.921875 -18.734375 C 10.554688 -18.429688 10.375 -17.976562 10.375 -17.375 L 10.375 -8.671875 C 10.375 -8.066406 10.515625 -7.617188 10.796875 -7.328125 C 11.078125 -7.035156 11.5 -6.890625 12.0625 -6.890625 L 15.59375 -6.890625 L 15.59375 -12.5625 C 15.59375 -13.019531 15.691406 -13.351562 15.890625 -13.5625 C 16.097656 -13.769531 16.4375 -13.875 16.90625 -13.875 L 22.546875 -13.875 C 23.003906 -13.875 23.335938 -13.769531 23.546875 -13.5625 C 23.753906 -13.351562 23.859375 -13.019531 23.859375 -12.5625 L 23.859375 -1.3125 C 23.859375 -0.851562 23.753906 -0.519531 23.546875 -0.3125 C 23.335938 -0.101562 23.003906 0 22.546875 0 Z M 22.546875 0 "/></g></g></g></svg>