<svg xmlns="http://www.w3.org/2000/svg" xmlns:xlink="http://www.w3.org/1999/xlink" width="260" zoomAndPan="magnify" viewBox="0 0 194.87999 65.249999" height="87" preserveAspectRatio="xMidYMid meet" version="1.0"><defs><g/><clipPath id="a901e60596"><path d="M 11.042969 9.148438 L 192.523438 9.148438 L 192.523438 54.890625 L 11.042969 54.890625 Z M 11.042969 9.148438 " clip-rule="nonzero"/></clipPath><clipPath id="8dda456d4d"><path d="M 33.914062 9.148438 L 169.65625 9.148438 C 175.71875 9.148438 181.539062 11.558594 185.828125 15.847656 C 190.117188 20.136719 192.523438 25.953125 192.523438 32.019531 C 192.523438 38.085938 190.117188 43.902344 185.828125 48.191406 C 181.539062 52.480469 175.71875 54.890625 169.65625 54.890625 L 33.914062 54.890625 C 27.847656 54.890625 22.03125 52.480469 17.742188 48.191406 C 13.453125 43.902344 11.042969 38.085938 11.042969 32.019531 C 11.042969 25.953125 13.453125 20.136719 17.742188 15.847656 C 22.03125 11.558594 27.847656 9.148438 33.914062 9.148438 Z M 33.914062 9.148438 " clip-rule="nonzero"/></clipPath><clipPath id="d3a8176e8b"><path d="M 6.824219 12.675781 L 40.933594 12.675781 L 40.933594 51.972656 L 6.824219 51.972656 Z M 6.824219 12.675781 " clip-rule="nonzero"/></clipPath></defs><g clip-path="url(#a901e60596)"><g clip-path="url(#8dda456d4d)"><path fill="#5ce1e6" d="M 11.042969 9.148438 L 192.523438 9.148438 L 192.523438 54.890625 L 11.042969 54.890625 Z M 11.042969 9.148438 " fill-opacity="1" fill-rule="nonzero"/></g></g><g fill="#0d4244" fill-opacity="0.302"><g transform="translate(54.203075, 38.035836)"><g><path d="M 6.546875 0 L 1.5625 0 C 1.375 0 1.234375 -0.0390625 1.140625 -0.125 C 1.054688 -0.207031 1.015625 -0.34375 1.015625 -0.53125 L 1.015625 -10.140625 C 1.015625 -10.328125 1.054688 -10.460938 1.140625 -10.546875 C 1.234375 -10.628906 1.375 -10.671875 1.5625 -10.671875 L 6.546875 -10.671875 C 7.785156 -10.671875 8.703125 -10.421875 9.296875 -9.921875 C 9.898438 -9.429688 10.203125 -8.675781 10.203125 -7.65625 L 10.203125 -3.03125 C 10.203125 -2 9.898438 -1.234375 9.296875 -0.734375 C 8.703125 -0.242188 7.785156 0 6.546875 0 Z M 4.390625 -7.84375 L 4.390625 -2.796875 L 6.15625 -2.796875 C 6.394531 -2.796875 6.566406 -2.851562 6.671875 -2.96875 C 6.785156 -3.09375 6.84375 -3.28125 6.84375 -3.53125 L 6.84375 -7.125 C 6.84375 -7.375 6.785156 -7.554688 6.671875 -7.671875 C 6.566406 -7.785156 6.394531 -7.84375 6.15625 -7.84375 Z M 4.390625 -7.84375 "/></g></g></g><g fill="#0d4244" fill-opacity="0.302"><g transform="translate(66.216071, 38.035836)"><g><path d="M 1.3125 0 C 1.125 0 0.988281 -0.0390625 0.90625 -0.125 C 0.820312 -0.207031 0.78125 -0.34375 0.78125 -0.53125 L 0.78125 -2.296875 C 0.78125 -2.484375 0.820312 -2.617188 0.90625 -2.703125 C 0.988281 -2.785156 1.125 -2.828125 1.3125 -2.828125 L 2.78125 -2.828125 L 2.78125 -7.8125 L 1.3125 -7.8125 C 1.125 -7.8125 0.988281 -7.851562 0.90625 -7.9375 C 0.820312 -8.019531 0.78125 -8.15625 0.78125 -8.34375 L 0.78125 -10.140625 C 0.78125 -10.328125 0.820312 -10.460938 0.90625 -10.546875 C 0.988281 -10.628906 1.125 -10.671875 1.3125 -10.671875 L 7.640625 -10.671875 C 7.828125 -10.671875 7.960938 -10.628906 8.046875 -10.546875 C 8.128906 -10.460938 8.171875 -10.328125 8.171875 -10.140625 L 8.171875 -8.34375 C 8.171875 -8.15625 8.128906 -8.019531 8.046875 -7.9375 C 7.960938 -7.851562 7.828125 -7.8125 7.640625 -7.8125 L 6.203125 -7.8125 L 6.203125 -2.828125 L 7.640625 -2.828125 C 7.828125 -2.828125 7.960938 -2.785156 8.046875 -2.703125 C 8.128906 -2.617188 8.171875 -2.484375 8.171875 -2.296875 L 8.171875 -0.53125 C 8.171875 -0.34375 8.128906 -0.207031 8.046875 -0.125 C 7.960938 -0.0390625 7.828125 0 7.640625 0 Z M 1.3125 0 "/></g></g></g><g fill="#0d4244" fill-opacity="0.302"><g transform="translate(76.137923, 38.035836)"><g><path d="M 5.96875 0 L 1.296875 0 C 1.109375 0 0.96875 -0.0390625 0.875 -0.125 C 0.789062 -0.207031 0.75 -0.34375 0.75 -0.53125 L 0.75 -2.265625 C 0.75 -2.453125 0.789062 -2.585938 0.875 -2.671875 C 0.96875 -2.753906 1.109375 -2.796875 1.296875 -2.796875 L 5.28125 -2.796875 C 5.40625 -2.796875 5.5 -2.835938 5.5625 -2.921875 C 5.632812 -3.003906 5.671875 -3.109375 5.671875 -3.234375 C 5.671875 -3.398438 5.632812 -3.519531 5.5625 -3.59375 C 5.5 -3.675781 5.40625 -3.722656 5.28125 -3.734375 L 3.046875 -4.046875 C 2.359375 -4.148438 1.800781 -4.378906 1.375 -4.734375 C 0.957031 -5.085938 0.75 -5.679688 0.75 -6.515625 L 0.75 -8.0625 C 0.75 -8.90625 1.019531 -9.550781 1.5625 -10 C 2.113281 -10.445312 2.867188 -10.671875 3.828125 -10.671875 L 7.984375 -10.671875 C 8.171875 -10.671875 8.304688 -10.628906 8.390625 -10.546875 C 8.472656 -10.460938 8.515625 -10.328125 8.515625 -10.140625 L 8.515625 -8.375 C 8.515625 -8.1875 8.472656 -8.050781 8.390625 -7.96875 C 8.304688 -7.882812 8.171875 -7.84375 7.984375 -7.84375 L 4.515625 -7.84375 C 4.390625 -7.84375 4.289062 -7.800781 4.21875 -7.71875 C 4.15625 -7.632812 4.125 -7.53125 4.125 -7.40625 C 4.125 -7.269531 4.15625 -7.15625 4.21875 -7.0625 C 4.289062 -6.976562 4.390625 -6.929688 4.515625 -6.921875 L 6.734375 -6.625 C 7.421875 -6.53125 7.976562 -6.300781 8.40625 -5.9375 C 8.832031 -5.582031 9.046875 -4.992188 9.046875 -4.171875 L 9.046875 -2.609375 C 9.046875 -1.765625 8.769531 -1.117188 8.21875 -0.671875 C 7.675781 -0.222656 6.925781 0 5.96875 0 Z M 5.96875 0 "/></g></g></g><g fill="#0d4244" fill-opacity="0.302"><g transform="translate(86.727161, 38.035836)"><g><path d="M 8.125 0 L 4.5 0 C 3.269531 0 2.351562 -0.242188 1.75 -0.734375 C 1.15625 -1.234375 0.859375 -2 0.859375 -3.03125 L 0.859375 -7.640625 C 0.859375 -8.660156 1.15625 -9.421875 1.75 -9.921875 C 2.351562 -10.421875 3.269531 -10.671875 4.5 -10.671875 L 8.125 -10.671875 C 8.3125 -10.671875 8.445312 -10.628906 8.53125 -10.546875 C 8.613281 -10.460938 8.65625 -10.328125 8.65625 -10.140625 L 8.65625 -8.34375 C 8.65625 -8.15625 8.613281 -8.019531 8.53125 -7.9375 C 8.445312 -7.851562 8.3125 -7.8125 8.125 -7.8125 L 5.140625 -7.8125 C 4.835938 -7.8125 4.609375 -7.75 4.453125 -7.625 C 4.304688 -7.5 4.234375 -7.316406 4.234375 -7.078125 L 4.234375 -3.546875 C 4.234375 -3.296875 4.304688 -3.113281 4.453125 -3 C 4.609375 -2.882812 4.835938 -2.828125 5.140625 -2.828125 L 8.125 -2.828125 C 8.3125 -2.828125 8.445312 -2.785156 8.53125 -2.703125 C 8.613281 -2.617188 8.65625 -2.484375 8.65625 -2.296875 L 8.65625 -0.53125 C 8.65625 -0.34375 8.613281 -0.207031 8.53125 -0.125 C 8.445312 -0.0390625 8.3125 0 8.125 0 Z M 8.125 0 "/></g></g></g><g fill="#0d4244" fill-opacity="0.302"><g transform="translate(96.990123, 38.035836)"><g><path d="M 10.0625 -2.796875 C 10.0625 -2.347656 9.992188 -1.9375 9.859375 -1.5625 C 9.734375 -1.195312 9.5 -0.878906 9.15625 -0.609375 C 8.8125 -0.347656 8.335938 -0.144531 7.734375 0 C 7.140625 0.144531 6.382812 0.21875 5.46875 0.21875 C 4.550781 0.21875 3.789062 0.144531 3.1875 0 C 2.582031 -0.144531 2.109375 -0.347656 1.765625 -0.609375 C 1.429688 -0.878906 1.195312 -1.195312 1.0625 -1.5625 C 0.925781 -1.9375 0.859375 -2.347656 0.859375 -2.796875 L 0.859375 -7.859375 C 0.859375 -8.316406 0.925781 -8.726562 1.0625 -9.09375 C 1.195312 -9.46875 1.429688 -9.785156 1.765625 -10.046875 C 2.109375 -10.316406 2.582031 -10.523438 3.1875 -10.671875 C 3.789062 -10.828125 4.550781 -10.90625 5.46875 -10.90625 C 6.382812 -10.90625 7.140625 -10.828125 7.734375 -10.671875 C 8.335938 -10.523438 8.8125 -10.316406 9.15625 -10.046875 C 9.5 -9.785156 9.734375 -9.46875 9.859375 -9.09375 C 9.992188 -8.726562 10.0625 -8.316406 10.0625 -7.859375 Z M 4.21875 -3.34375 C 4.21875 -3.144531 4.289062 -2.976562 4.4375 -2.84375 C 4.59375 -2.707031 4.9375 -2.640625 5.46875 -2.640625 C 6 -2.640625 6.335938 -2.707031 6.484375 -2.84375 C 6.640625 -2.976562 6.71875 -3.144531 6.71875 -3.34375 L 6.71875 -7.328125 C 6.71875 -7.515625 6.640625 -7.671875 6.484375 -7.796875 C 6.335938 -7.929688 6 -8 5.46875 -8 C 4.9375 -8 4.59375 -7.929688 4.4375 -7.796875 C 4.289062 -7.671875 4.21875 -7.515625 4.21875 -7.328125 Z M 4.21875 -3.34375 "/></g></g></g><g fill="#0d4244" fill-opacity="0.302"><g transform="translate(108.869643, 38.035836)"><g><path d="M 4.375 -8 L 4.375 -6.109375 L 5.484375 -6.109375 C 5.742188 -6.109375 5.914062 -6.175781 6 -6.3125 C 6.09375 -6.445312 6.140625 -6.613281 6.140625 -6.8125 L 6.140625 -7.3125 C 6.140625 -7.507812 6.09375 -7.671875 6 -7.796875 C 5.914062 -7.929688 5.742188 -8 5.484375 -8 Z M 3.84375 0 L 1.5625 0 C 1.375 0 1.234375 -0.0390625 1.140625 -0.125 C 1.054688 -0.207031 1.015625 -0.34375 1.015625 -0.53125 L 1.015625 -10.140625 C 1.015625 -10.328125 1.054688 -10.460938 1.140625 -10.546875 C 1.234375 -10.628906 1.375 -10.671875 1.5625 -10.671875 L 6.5 -10.671875 C 7.601562 -10.671875 8.363281 -10.441406 8.78125 -9.984375 C 9.207031 -9.523438 9.421875 -8.929688 9.421875 -8.203125 L 9.421875 -7.515625 C 9.421875 -7.097656 9.359375 -6.742188 9.234375 -6.453125 C 9.109375 -6.160156 8.890625 -5.953125 8.578125 -5.828125 C 9.117188 -5.765625 9.550781 -5.546875 9.875 -5.171875 C 10.207031 -4.796875 10.375 -4.296875 10.375 -3.671875 L 10.375 -0.53125 C 10.375 -0.34375 10.332031 -0.207031 10.25 -0.125 C 10.164062 -0.0390625 10.03125 0 9.84375 0 L 7.546875 0 C 7.359375 0 7.222656 -0.0390625 7.140625 -0.125 C 7.054688 -0.207031 7.015625 -0.34375 7.015625 -0.53125 L 7.015625 -2.796875 C 7.015625 -3.015625 6.972656 -3.175781 6.890625 -3.28125 C 6.804688 -3.382812 6.660156 -3.4375 6.453125 -3.4375 L 4.375 -3.4375 L 4.375 -0.53125 C 4.375 -0.34375 4.332031 -0.207031 4.25 -0.125 C 4.164062 -0.0390625 4.03125 0 3.84375 0 Z M 3.84375 0 "/></g></g></g><g fill="#0d4244" fill-opacity="0.302"><g transform="translate(120.838144, 38.035836)"><g><path d="M 6.546875 0 L 1.5625 0 C 1.375 0 1.234375 -0.0390625 1.140625 -0.125 C 1.054688 -0.207031 1.015625 -0.34375 1.015625 -0.53125 L 1.015625 -10.140625 C 1.015625 -10.328125 1.054688 -10.460938 1.140625 -10.546875 C 1.234375 -10.628906 1.375 -10.671875 1.5625 -10.671875 L 6.546875 -10.671875 C 7.785156 -10.671875 8.703125 -10.421875 9.296875 -9.921875 C 9.898438 -9.429688 10.203125 -8.675781 10.203125 -7.65625 L 10.203125 -3.03125 C 10.203125 -2 9.898438 -1.234375 9.296875 -0.734375 C 8.703125 -0.242188 7.785156 0 6.546875 0 Z M 4.390625 -7.84375 L 4.390625 -2.796875 L 6.15625 -2.796875 C 6.394531 -2.796875 6.566406 -2.851562 6.671875 -2.96875 C 6.785156 -3.09375 6.84375 -3.28125 6.84375 -3.53125 L 6.84375 -7.125 C 6.84375 -7.375 6.785156 -7.554688 6.671875 -7.671875 C 6.566406 -7.785156 6.394531 -7.84375 6.15625 -7.84375 Z M 4.390625 -7.84375 "/></g></g></g><g fill="#0d4244" fill-opacity="0.502"><g transform="translate(53.547612, 37.380377)"><g><path d="M 6.546875 0 L 1.5625 0 C 1.375 0 1.234375 -0.0390625 1.140625 -0.125 C 1.054688 -0.207031 1.015625 -0.34375 1.015625 -0.53125 L 1.015625 -10.140625 C 1.015625 -10.328125 1.054688 -10.460938 1.140625 -10.546875 C 1.234375 -10.628906 1.375 -10.671875 1.5625 -10.671875 L 6.546875 -10.671875 C 7.785156 -10.671875 8.703125 -10.421875 9.296875 -9.921875 C 9.898438 -9.429688 10.203125 -8.675781 10.203125 -7.65625 L 10.203125 -3.03125 C 10.203125 -2 9.898438 -1.234375 9.296875 -0.734375 C 8.703125 -0.242188 7.785156 0 6.546875 0 Z M 4.390625 -7.84375 L 4.390625 -2.796875 L 6.15625 -2.796875 C 6.394531 -2.796875 6.566406 -2.851562 6.671875 -2.96875 C 6.785156 -3.09375 6.84375 -3.28125 6.84375 -3.53125 L 6.84375 -7.125 C 6.84375 -7.375 6.785156 -7.554688 6.671875 -7.671875 C 6.566406 -7.785156 6.394531 -7.84375 6.15625 -7.84375 Z M 4.390625 -7.84375 "/></g></g></g><g fill="#0d4244" fill-opacity="0.502"><g transform="translate(65.560608, 37.380377)"><g><path d="M 1.3125 0 C 1.125 0 0.988281 -0.0390625 0.90625 -0.125 C 0.820312 -0.207031 0.78125 -0.34375 0.78125 -0.53125 L 0.78125 -2.296875 C 0.78125 -2.484375 0.820312 -2.617188 0.90625 -2.703125 C 0.988281 -2.785156 1.125 -2.828125 1.3125 -2.828125 L 2.78125 -2.828125 L 2.78125 -7.8125 L 1.3125 -7.8125 C 1.125 -7.8125 0.988281 -7.851562 0.90625 -7.9375 C 0.820312 -8.019531 0.78125 -8.15625 0.78125 -8.34375 L 0.78125 -10.140625 C 0.78125 -10.328125 0.820312 -10.460938 0.90625 -10.546875 C 0.988281 -10.628906 1.125 -10.671875 1.3125 -10.671875 L 7.640625 -10.671875 C 7.828125 -10.671875 7.960938 -10.628906 8.046875 -10.546875 C 8.128906 -10.460938 8.171875 -10.328125 8.171875 -10.140625 L 8.171875 -8.34375 C 8.171875 -8.15625 8.128906 -8.019531 8.046875 -7.9375 C 7.960938 -7.851562 7.828125 -7.8125 7.640625 -7.8125 L 6.203125 -7.8125 L 6.203125 -2.828125 L 7.640625 -2.828125 C 7.828125 -2.828125 7.960938 -2.785156 8.046875 -2.703125 C 8.128906 -2.617188 8.171875 -2.484375 8.171875 -2.296875 L 8.171875 -0.53125 C 8.171875 -0.34375 8.128906 -0.207031 8.046875 -0.125 C 7.960938 -0.0390625 7.828125 0 7.640625 0 Z M 1.3125 0 "/></g></g></g><g fill="#0d4244" fill-opacity="0.502"><g transform="translate(75.482459, 37.380377)"><g><path d="M 5.96875 0 L 1.296875 0 C 1.109375 0 0.96875 -0.0390625 0.875 -0.125 C 0.789062 -0.207031 0.75 -0.34375 0.75 -0.53125 L 0.75 -2.265625 C 0.75 -2.453125 0.789062 -2.585938 0.875 -2.671875 C 0.96875 -2.753906 1.109375 -2.796875 1.296875 -2.796875 L 5.28125 -2.796875 C 5.40625 -2.796875 5.5 -2.835938 5.5625 -2.921875 C 5.632812 -3.003906 5.671875 -3.109375 5.671875 -3.234375 C 5.671875 -3.398438 5.632812 -3.519531 5.5625 -3.59375 C 5.5 -3.675781 5.40625 -3.722656 5.28125 -3.734375 L 3.046875 -4.046875 C 2.359375 -4.148438 1.800781 -4.378906 1.375 -4.734375 C 0.957031 -5.085938 0.75 -5.679688 0.75 -6.515625 L 0.75 -8.0625 C 0.75 -8.90625 1.019531 -9.550781 1.5625 -10 C 2.113281 -10.445312 2.867188 -10.671875 3.828125 -10.671875 L 7.984375 -10.671875 C 8.171875 -10.671875 8.304688 -10.628906 8.390625 -10.546875 C 8.472656 -10.460938 8.515625 -10.328125 8.515625 -10.140625 L 8.515625 -8.375 C 8.515625 -8.1875 8.472656 -8.050781 8.390625 -7.96875 C 8.304688 -7.882812 8.171875 -7.84375 7.984375 -7.84375 L 4.515625 -7.84375 C 4.390625 -7.84375 4.289062 -7.800781 4.21875 -7.71875 C 4.15625 -7.632812 4.125 -7.53125 4.125 -7.40625 C 4.125 -7.269531 4.15625 -7.15625 4.21875 -7.0625 C 4.289062 -6.976562 4.390625 -6.929688 4.515625 -6.921875 L 6.734375 -6.625 C 7.421875 -6.53125 7.976562 -6.300781 8.40625 -5.9375 C 8.832031 -5.582031 9.046875 -4.992188 9.046875 -4.171875 L 9.046875 -2.609375 C 9.046875 -1.765625 8.769531 -1.117188 8.21875 -0.671875 C 7.675781 -0.222656 6.925781 0 5.96875 0 Z M 5.96875 0 "/></g></g></g><g fill="#0d4244" fill-opacity="0.502"><g transform="translate(86.071698, 37.380377)"><g><path d="M 8.125 0 L 4.5 0 C 3.269531 0 2.351562 -0.242188 1.75 -0.734375 C 1.15625 -1.234375 0.859375 -2 0.859375 -3.03125 L 0.859375 -7.640625 C 0.859375 -8.660156 1.15625 -9.421875 1.75 -9.921875 C 2.351562 -10.421875 3.269531 -10.671875 4.5 -10.671875 L 8.125 -10.671875 C 8.3125 -10.671875 8.445312 -10.628906 8.53125 -10.546875 C 8.613281 -10.460938 8.65625 -10.328125 8.65625 -10.140625 L 8.65625 -8.34375 C 8.65625 -8.15625 8.613281 -8.019531 8.53125 -7.9375 C 8.445312 -7.851562 8.3125 -7.8125 8.125 -7.8125 L 5.140625 -7.8125 C 4.835938 -7.8125 4.609375 -7.75 4.453125 -7.625 C 4.304688 -7.5 4.234375 -7.316406 4.234375 -7.078125 L 4.234375 -3.546875 C 4.234375 -3.296875 4.304688 -3.113281 4.453125 -3 C 4.609375 -2.882812 4.835938 -2.828125 5.140625 -2.828125 L 8.125 -2.828125 C 8.3125 -2.828125 8.445312 -2.785156 8.53125 -2.703125 C 8.613281 -2.617188 8.65625 -2.484375 8.65625 -2.296875 L 8.65625 -0.53125 C 8.65625 -0.34375 8.613281 -0.207031 8.53125 -0.125 C 8.445312 -0.0390625 8.3125 0 8.125 0 Z M 8.125 0 "/></g></g></g><g fill="#0d4244" fill-opacity="0.502"><g transform="translate(96.334659, 37.380377)"><g><path d="M 10.0625 -2.796875 C 10.0625 -2.347656 9.992188 -1.9375 9.859375 -1.5625 C 9.734375 -1.195312 9.5 -0.878906 9.15625 -0.609375 C 8.8125 -0.347656 8.335938 -0.144531 7.734375 0 C 7.140625 0.144531 6.382812 0.21875 5.46875 0.21875 C 4.550781 0.21875 3.789062 0.144531 3.1875 0 C 2.582031 -0.144531 2.109375 -0.347656 1.765625 -0.609375 C 1.429688 -0.878906 1.195312 -1.195312 1.0625 -1.5625 C 0.925781 -1.9375 0.859375 -2.347656 0.859375 -2.796875 L 0.859375 -7.859375 C 0.859375 -8.316406 0.925781 -8.726562 1.0625 -9.09375 C 1.195312 -9.46875 1.429688 -9.785156 1.765625 -10.046875 C 2.109375 -10.316406 2.582031 -10.523438 3.1875 -10.671875 C 3.789062 -10.828125 4.550781 -10.90625 5.46875 -10.90625 C 6.382812 -10.90625 7.140625 -10.828125 7.734375 -10.671875 C 8.335938 -10.523438 8.8125 -10.316406 9.15625 -10.046875 C 9.5 -9.785156 9.734375 -9.46875 9.859375 -9.09375 C 9.992188 -8.726562 10.0625 -8.316406 10.0625 -7.859375 Z M 4.21875 -3.34375 C 4.21875 -3.144531 4.289062 -2.976562 4.4375 -2.84375 C 4.59375 -2.707031 4.9375 -2.640625 5.46875 -2.640625 C 6 -2.640625 6.335938 -2.707031 6.484375 -2.84375 C 6.640625 -2.976562 6.71875 -3.144531 6.71875 -3.34375 L 6.71875 -7.328125 C 6.71875 -7.515625 6.640625 -7.671875 6.484375 -7.796875 C 6.335938 -7.929688 6 -8 5.46875 -8 C 4.9375 -8 4.59375 -7.929688 4.4375 -7.796875 C 4.289062 -7.671875 4.21875 -7.515625 4.21875 -7.328125 Z M 4.21875 -3.34375 "/></g></g></g><g fill="#0d4244" fill-opacity="0.502"><g transform="translate(108.21418, 37.380377)"><g><path d="M 4.375 -8 L 4.375 -6.109375 L 5.484375 -6.109375 C 5.742188 -6.109375 5.914062 -6.175781 6 -6.3125 C 6.09375 -6.445312 6.140625 -6.613281 6.140625 -6.8125 L 6.140625 -7.3125 C 6.140625 -7.507812 6.09375 -7.671875 6 -7.796875 C 5.914062 -7.929688 5.742188 -8 5.484375 -8 Z M 3.84375 0 L 1.5625 0 C 1.375 0 1.234375 -0.0390625 1.140625 -0.125 C 1.054688 -0.207031 1.015625 -0.34375 1.015625 -0.53125 L 1.015625 -10.140625 C 1.015625 -10.328125 1.054688 -10.460938 1.140625 -10.546875 C 1.234375 -10.628906 1.375 -10.671875 1.5625 -10.671875 L 6.5 -10.671875 C 7.601562 -10.671875 8.363281 -10.441406 8.78125 -9.984375 C 9.207031 -9.523438 9.421875 -8.929688 9.421875 -8.203125 L 9.421875 -7.515625 C 9.421875 -7.097656 9.359375 -6.742188 9.234375 -6.453125 C 9.109375 -6.160156 8.890625 -5.953125 8.578125 -5.828125 C 9.117188 -5.765625 9.550781 -5.546875 9.875 -5.171875 C 10.207031 -4.796875 10.375 -4.296875 10.375 -3.671875 L 10.375 -0.53125 C 10.375 -0.34375 10.332031 -0.207031 10.25 -0.125 C 10.164062 -0.0390625 10.03125 0 9.84375 0 L 7.546875 0 C 7.359375 0 7.222656 -0.0390625 7.140625 -0.125 C 7.054688 -0.207031 7.015625 -0.34375 7.015625 -0.53125 L 7.015625 -2.796875 C 7.015625 -3.015625 6.972656 -3.175781 6.890625 -3.28125 C 6.804688 -3.382812 6.660156 -3.4375 6.453125 -3.4375 L 4.375 -3.4375 L 4.375 -0.53125 C 4.375 -0.34375 4.332031 -0.207031 4.25 -0.125 C 4.164062 -0.0390625 4.03125 0 3.84375 0 Z M 3.84375 0 "/></g></g></g><g fill="#0d4244" fill-opacity="0.502"><g transform="translate(120.182681, 37.380377)"><g><path d="M 6.546875 0 L 1.5625 0 C 1.375 0 1.234375 -0.0390625 1.140625 -0.125 C 1.054688 -0.207031 1.015625 -0.34375 1.015625 -0.53125 L 1.015625 -10.140625 C 1.015625 -10.328125 1.054688 -10.460938 1.140625 -10.546875 C 1.234375 -10.628906 1.375 -10.671875 1.5625 -10.671875 L 6.546875 -10.671875 C 7.785156 -10.671875 8.703125 -10.421875 9.296875 -9.921875 C 9.898438 -9.429688 10.203125 -8.675781 10.203125 -7.65625 L 10.203125 -3.03125 C 10.203125 -2 9.898438 -1.234375 9.296875 -0.734375 C 8.703125 -0.242188 7.785156 0 6.546875 0 Z M 4.390625 -7.84375 L 4.390625 -2.796875 L 6.15625 -2.796875 C 6.394531 -2.796875 6.566406 -2.851562 6.671875 -2.96875 C 6.785156 -3.09375 6.84375 -3.28125 6.84375 -3.53125 L 6.84375 -7.125 C 6.84375 -7.375 6.785156 -7.554688 6.671875 -7.671875 C 6.566406 -7.785156 6.394531 -7.84375 6.15625 -7.84375 Z M 4.390625 -7.84375 "/></g></g></g><g fill="#ffffff" fill-opacity="1"><g transform="translate(52.892155, 36.724917)"><g><path d="M 6.546875 0 L 1.5625 0 C 1.375 0 1.234375 -0.0390625 1.140625 -0.125 C 1.054688 -0.207031 1.015625 -0.34375 1.015625 -0.53125 L 1.015625 -10.140625 C 1.015625 -10.328125 1.054688 -10.460938 1.140625 -10.546875 C 1.234375 -10.628906 1.375 -10.671875 1.5625 -10.671875 L 6.546875 -10.671875 C 7.785156 -10.671875 8.703125 -10.421875 9.296875 -9.921875 C 9.898438 -9.429688 10.203125 -8.675781 10.203125 -7.65625 L 10.203125 -3.03125 C 10.203125 -2 9.898438 -1.234375 9.296875 -0.734375 C 8.703125 -0.242188 7.785156 0 6.546875 0 Z M 4.390625 -7.84375 L 4.390625 -2.796875 L 6.15625 -2.796875 C 6.394531 -2.796875 6.566406 -2.851562 6.671875 -2.96875 C 6.785156 -3.09375 6.84375 -3.28125 6.84375 -3.53125 L 6.84375 -7.125 C 6.84375 -7.375 6.785156 -7.554688 6.671875 -7.671875 C 6.566406 -7.785156 6.394531 -7.84375 6.15625 -7.84375 Z M 4.390625 -7.84375 "/></g></g></g><g fill="#ffffff" fill-opacity="1"><g transform="translate(64.905151, 36.724917)"><g><path d="M 1.3125 0 C 1.125 0 0.988281 -0.0390625 0.90625 -0.125 C 0.820312 -0.207031 0.78125 -0.34375 0.78125 -0.53125 L 0.78125 -2.296875 C 0.78125 -2.484375 0.820312 -2.617188 0.90625 -2.703125 C 0.988281 -2.785156 1.125 -2.828125 1.3125 -2.828125 L 2.78125 -2.828125 L 2.78125 -7.8125 L 1.3125 -7.8125 C 1.125 -7.8125 0.988281 -7.851562 0.90625 -7.9375 C 0.820312 -8.019531 0.78125 -8.15625 0.78125 -8.34375 L 0.78125 -10.140625 C 0.78125 -10.328125 0.820312 -10.460938 0.90625 -10.546875 C 0.988281 -10.628906 1.125 -10.671875 1.3125 -10.671875 L 7.640625 -10.671875 C 7.828125 -10.671875 7.960938 -10.628906 8.046875 -10.546875 C 8.128906 -10.460938 8.171875 -10.328125 8.171875 -10.140625 L 8.171875 -8.34375 C 8.171875 -8.15625 8.128906 -8.019531 8.046875 -7.9375 C 7.960938 -7.851562 7.828125 -7.8125 7.640625 -7.8125 L 6.203125 -7.8125 L 6.203125 -2.828125 L 7.640625 -2.828125 C 7.828125 -2.828125 7.960938 -2.785156 8.046875 -2.703125 C 8.128906 -2.617188 8.171875 -2.484375 8.171875 -2.296875 L 8.171875 -0.53125 C 8.171875 -0.34375 8.128906 -0.207031 8.046875 -0.125 C 7.960938 -0.0390625 7.828125 0 7.640625 0 Z M 1.3125 0 "/></g></g></g><g fill="#ffffff" fill-opacity="1"><g transform="translate(74.827003, 36.724917)"><g><path d="M 5.96875 0 L 1.296875 0 C 1.109375 0 0.96875 -0.0390625 0.875 -0.125 C 0.789062 -0.207031 0.75 -0.34375 0.75 -0.53125 L 0.75 -2.265625 C 0.75 -2.453125 0.789062 -2.585938 0.875 -2.671875 C 0.96875 -2.753906 1.109375 -2.796875 1.296875 -2.796875 L 5.28125 -2.796875 C 5.40625 -2.796875 5.5 -2.835938 5.5625 -2.921875 C 5.632812 -3.003906 5.671875 -3.109375 5.671875 -3.234375 C 5.671875 -3.398438 5.632812 -3.519531 5.5625 -3.59375 C 5.5 -3.675781 5.40625 -3.722656 5.28125 -3.734375 L 3.046875 -4.046875 C 2.359375 -4.148438 1.800781 -4.378906 1.375 -4.734375 C 0.957031 -5.085938 0.75 -5.679688 0.75 -6.515625 L 0.75 -8.0625 C 0.75 -8.90625 1.019531 -9.550781 1.5625 -10 C 2.113281 -10.445312 2.867188 -10.671875 3.828125 -10.671875 L 7.984375 -10.671875 C 8.171875 -10.671875 8.304688 -10.628906 8.390625 -10.546875 C 8.472656 -10.460938 8.515625 -10.328125 8.515625 -10.140625 L 8.515625 -8.375 C 8.515625 -8.1875 8.472656 -8.050781 8.390625 -7.96875 C 8.304688 -7.882812 8.171875 -7.84375 7.984375 -7.84375 L 4.515625 -7.84375 C 4.390625 -7.84375 4.289062 -7.800781 4.21875 -7.71875 C 4.15625 -7.632812 4.125 -7.53125 4.125 -7.40625 C 4.125 -7.269531 4.15625 -7.15625 4.21875 -7.0625 C 4.289062 -6.976562 4.390625 -6.929688 4.515625 -6.921875 L 6.734375 -6.625 C 7.421875 -6.53125 7.976562 -6.300781 8.40625 -5.9375 C 8.832031 -5.582031 9.046875 -4.992188 9.046875 -4.171875 L 9.046875 -2.609375 C 9.046875 -1.765625 8.769531 -1.117188 8.21875 -0.671875 C 7.675781 -0.222656 6.925781 0 5.96875 0 Z M 5.96875 0 "/></g></g></g><g fill="#ffffff" fill-opacity="1"><g transform="translate(85.416241, 36.724917)"><g><path d="M 8.125 0 L 4.5 0 C 3.269531 0 2.351562 -0.242188 1.75 -0.734375 C 1.15625 -1.234375 0.859375 -2 0.859375 -3.03125 L 0.859375 -7.640625 C 0.859375 -8.660156 1.15625 -9.421875 1.75 -9.921875 C 2.351562 -10.421875 3.269531 -10.671875 4.5 -10.671875 L 8.125 -10.671875 C 8.3125 -10.671875 8.445312 -10.628906 8.53125 -10.546875 C 8.613281 -10.460938 8.65625 -10.328125 8.65625 -10.140625 L 8.65625 -8.34375 C 8.65625 -8.15625 8.613281 -8.019531 8.53125 -7.9375 C 8.445312 -7.851562 8.3125 -7.8125 8.125 -7.8125 L 5.140625 -7.8125 C 4.835938 -7.8125 4.609375 -7.75 4.453125 -7.625 C 4.304688 -7.5 4.234375 -7.316406 4.234375 -7.078125 L 4.234375 -3.546875 C 4.234375 -3.296875 4.304688 -3.113281 4.453125 -3 C 4.609375 -2.882812 4.835938 -2.828125 5.140625 -2.828125 L 8.125 -2.828125 C 8.3125 -2.828125 8.445312 -2.785156 8.53125 -2.703125 C 8.613281 -2.617188 8.65625 -2.484375 8.65625 -2.296875 L 8.65625 -0.53125 C 8.65625 -0.34375 8.613281 -0.207031 8.53125 -0.125 C 8.445312 -0.0390625 8.3125 0 8.125 0 Z M 8.125 0 "/></g></g></g><g fill="#ffffff" fill-opacity="1"><g transform="translate(95.679203, 36.724917)"><g><path d="M 10.0625 -2.796875 C 10.0625 -2.347656 9.992188 -1.9375 9.859375 -1.5625 C 9.734375 -1.195312 9.5 -0.878906 9.15625 -0.609375 C 8.8125 -0.347656 8.335938 -0.144531 7.734375 0 C 7.140625 0.144531 6.382812 0.21875 5.46875 0.21875 C 4.550781 0.21875 3.789062 0.144531 3.1875 0 C 2.582031 -0.144531 2.109375 -0.347656 1.765625 -0.609375 C 1.429688 -0.878906 1.195312 -1.195312 1.0625 -1.5625 C 0.925781 -1.9375 0.859375 -2.347656 0.859375 -2.796875 L 0.859375 -7.859375 C 0.859375 -8.316406 0.925781 -8.726562 1.0625 -9.09375 C 1.195312 -9.46875 1.429688 -9.785156 1.765625 -10.046875 C 2.109375 -10.316406 2.582031 -10.523438 3.1875 -10.671875 C 3.789062 -10.828125 4.550781 -10.90625 5.46875 -10.90625 C 6.382812 -10.90625 7.140625 -10.828125 7.734375 -10.671875 C 8.335938 -10.523438 8.8125 -10.316406 9.15625 -10.046875 C 9.5 -9.785156 9.734375 -9.46875 9.859375 -9.09375 C 9.992188 -8.726562 10.0625 -8.316406 10.0625 -7.859375 Z M 4.21875 -3.34375 C 4.21875 -3.144531 4.289062 -2.976562 4.4375 -2.84375 C 4.59375 -2.707031 4.9375 -2.640625 5.46875 -2.640625 C 6 -2.640625 6.335938 -2.707031 6.484375 -2.84375 C 6.640625 -2.976562 6.71875 -3.144531 6.71875 -3.34375 L 6.71875 -7.328125 C 6.71875 -7.515625 6.640625 -7.671875 6.484375 -7.796875 C 6.335938 -7.929688 6 -8 5.46875 -8 C 4.9375 -8 4.59375 -7.929688 4.4375 -7.796875 C 4.289062 -7.671875 4.21875 -7.515625 4.21875 -7.328125 Z M 4.21875 -3.34375 "/></g></g></g><g fill="#ffffff" fill-opacity="1"><g transform="translate(107.558724, 36.724917)"><g><path d="M 4.375 -8 L 4.375 -6.109375 L 5.484375 -6.109375 C 5.742188 -6.109375 5.914062 -6.175781 6 -6.3125 C 6.09375 -6.445312 6.140625 -6.613281 6.140625 -6.8125 L 6.140625 -7.3125 C 6.140625 -7.507812 6.09375 -7.671875 6 -7.796875 C 5.914062 -7.929688 5.742188 -8 5.484375 -8 Z M 3.84375 0 L 1.5625 0 C 1.375 0 1.234375 -0.0390625 1.140625 -0.125 C 1.054688 -0.207031 1.015625 -0.34375 1.015625 -0.53125 L 1.015625 -10.140625 C 1.015625 -10.328125 1.054688 -10.460938 1.140625 -10.546875 C 1.234375 -10.628906 1.375 -10.671875 1.5625 -10.671875 L 6.5 -10.671875 C 7.601562 -10.671875 8.363281 -10.441406 8.78125 -9.984375 C 9.207031 -9.523438 9.421875 -8.929688 9.421875 -8.203125 L 9.421875 -7.515625 C 9.421875 -7.097656 9.359375 -6.742188 9.234375 -6.453125 C 9.109375 -6.160156 8.890625 -5.953125 8.578125 -5.828125 C 9.117188 -5.765625 9.550781 -5.546875 9.875 -5.171875 C 10.207031 -4.796875 10.375 -4.296875 10.375 -3.671875 L 10.375 -0.53125 C 10.375 -0.34375 10.332031 -0.207031 10.25 -0.125 C 10.164062 -0.0390625 10.03125 0 9.84375 0 L 7.546875 0 C 7.359375 0 7.222656 -0.0390625 7.140625 -0.125 C 7.054688 -0.207031 7.015625 -0.34375 7.015625 -0.53125 L 7.015625 -2.796875 C 7.015625 -3.015625 6.972656 -3.175781 6.890625 -3.28125 C 6.804688 -3.382812 6.660156 -3.4375 6.453125 -3.4375 L 4.375 -3.4375 L 4.375 -0.53125 C 4.375 -0.34375 4.332031 -0.207031 4.25 -0.125 C 4.164062 -0.0390625 4.03125 0 3.84375 0 Z M 3.84375 0 "/></g></g></g><g fill="#ffffff" fill-opacity="1"><g transform="translate(119.527225, 36.724917)"><g><path d="M 6.546875 0 L 1.5625 0 C 1.375 0 1.234375 -0.0390625 1.140625 -0.125 C 1.054688 -0.207031 1.015625 -0.34375 1.015625 -0.53125 L 1.015625 -10.140625 C 1.015625 -10.328125 1.054688 -10.460938 1.140625 -10.546875 C 1.234375 -10.628906 1.375 -10.671875 1.5625 -10.671875 L 6.546875 -10.671875 C 7.785156 -10.671875 8.703125 -10.421875 9.296875 -9.921875 C 9.898438 -9.429688 10.203125 -8.675781 10.203125 -7.65625 L 10.203125 -3.03125 C 10.203125 -2 9.898438 -1.234375 9.296875 -0.734375 C 8.703125 -0.242188 7.785156 0 6.546875 0 Z M 4.390625 -7.84375 L 4.390625 -2.796875 L 6.15625 -2.796875 C 6.394531 -2.796875 6.566406 -2.851562 6.671875 -2.96875 C 6.785156 -3.09375 6.84375 -3.28125 6.84375 -3.53125 L 6.84375 -7.125 C 6.84375 -7.375 6.785156 -7.554688 6.671875 -7.671875 C 6.566406 -7.785156 6.394531 -7.84375 6.15625 -7.84375 Z M 4.390625 -7.84375 "/></g></g></g><g clip-path="url(#d3a8176e8b)"><path fill="#356264" d="M 36.9375 12.703125 L 10.820312 12.703125 C 8.617188 12.703125 6.824219 14.507812 6.824219 16.746094 L 6.824219 43.273438 C 6.824219 45.507812 8.617188 47.3125 10.820312 47.3125 L 32.921875 47.3125 L 31.886719 43.683594 L 34.382812 46.015625 L 36.742188 48.214844 L 40.929688 51.941406 L 40.929688 16.742188 C 40.929688 14.507812 39.136719 12.703125 36.9375 12.703125 Z M 29.414062 38.328125 C 29.414062 38.328125 28.710938 37.484375 28.125 36.738281 C 30.679688 36.011719 31.65625 34.402344 31.65625 34.402344 C 30.855469 34.933594 30.097656 35.304688 29.414062 35.558594 C 28.4375 35.972656 27.503906 36.246094 26.585938 36.402344 C 24.714844 36.757812 23 36.660156 21.539062 36.386719 C 20.429688 36.167969 19.472656 35.855469 18.675781 35.542969 C 18.226562 35.363281 17.738281 35.148438 17.25 34.875 C 17.191406 34.835938 17.132812 34.8125 17.074219 34.777344 C 17.035156 34.757812 17.015625 34.738281 16.996094 34.714844 C 16.648438 34.519531 16.453125 34.382812 16.453125 34.382812 C 16.453125 34.382812 17.386719 35.953125 19.863281 36.699219 C 19.277344 37.445312 18.558594 38.328125 18.558594 38.328125 C 14.25 38.191406 12.613281 35.34375 12.613281 35.34375 C 12.613281 29.027344 15.417969 23.90625 15.417969 23.90625 C 18.226562 21.789062 20.894531 21.847656 20.894531 21.847656 L 21.089844 22.082031 C 17.582031 23.101562 15.964844 24.652344 15.964844 24.652344 C 15.964844 24.652344 16.394531 24.417969 17.113281 24.082031 C 19.199219 23.160156 20.855469 22.90625 21.539062 22.847656 C 21.65625 22.828125 21.753906 22.808594 21.871094 22.808594 C 23.058594 22.652344 24.402344 22.609375 25.808594 22.769531 C 27.660156 22.984375 29.648438 23.535156 31.671875 24.652344 C 31.671875 24.652344 30.132812 23.179688 26.820312 22.160156 L 27.09375 21.847656 C 27.09375 21.847656 29.765625 21.789062 32.570312 23.90625 C 32.570312 23.90625 35.378906 29.027344 35.378906 35.34375 C 35.378906 35.34375 33.71875 38.191406 29.414062 38.328125 Z M 20.351562 29.164062 C 19.238281 29.164062 18.363281 30.144531 18.363281 31.34375 C 18.363281 32.539062 19.257812 33.519531 20.351562 33.519531 C 21.460938 33.519531 22.335938 32.539062 22.335938 31.34375 C 22.359375 30.144531 21.460938 29.164062 20.351562 29.164062 M 27.464844 29.164062 C 26.351562 29.164062 25.476562 30.144531 25.476562 31.34375 C 25.476562 32.539062 26.371094 33.519531 27.464844 33.519531 C 28.574219 33.519531 29.453125 32.539062 29.453125 31.34375 C 29.453125 30.144531 28.574219 29.164062 27.464844 29.164062 " fill-opacity="1" fill-rule="nonzero"/></g></svg>