<svg xmlns="http://www.w3.org/2000/svg" xmlns:xlink="http://www.w3.org/1999/xlink" width="260" zoomAndPan="magnify" viewBox="0 0 194.87999 65.249999" height="87" preserveAspectRatio="xMidYMid meet" version="1.0"><defs><g/><clipPath id="4774e80f71"><path d="M 2.453125 12.4375 L 192.628906 12.4375 L 192.628906 52.070312 L 2.453125 52.070312 Z M 2.453125 12.4375 " clip-rule="nonzero"/></clipPath><clipPath id="6849a141e0"><path d="M 9.867188 12.4375 L 185.214844 12.4375 C 187.179688 12.4375 189.066406 13.21875 190.457031 14.609375 C 191.847656 16 192.628906 17.886719 192.628906 19.855469 L 192.628906 44.65625 C 192.628906 46.621094 191.847656 48.507812 190.457031 49.898438 C 189.066406 51.289062 187.179688 52.070312 185.214844 52.070312 L 9.867188 52.070312 C 7.902344 52.070312 6.015625 51.289062 4.625 49.898438 C 3.234375 48.507812 2.453125 46.621094 2.453125 44.65625 L 2.453125 19.855469 C 2.453125 17.886719 3.234375 16 4.625 14.609375 C 6.015625 13.21875 7.902344 12.4375 9.867188 12.4375 Z M 9.867188 12.4375 " clip-rule="nonzero"/></clipPath><clipPath id="a5ba0a40ce"><path d="M 27 19.855469 L 45.964844 19.855469 L 45.964844 40 L 27 40 Z M 27 19.855469 " clip-rule="nonzero"/></clipPath><clipPath id="3306597518"><path d="M 6.664062 19.855469 L 26 19.855469 L 26 40 L 6.664062 40 Z M 6.664062 19.855469 " clip-rule="nonzero"/></clipPath><clipPath id="fc2e2da8f6"><path d="M 16 22 L 37 22 L 37 43.582031 L 16 43.582031 Z M 16 22 " clip-rule="nonzero"/></clipPath></defs><g clip-path="url(#4774e80f71)"><g clip-path="url(#6849a141e0)"><path fill="#5ce1e6" d="M 2.453125 12.4375 L 192.628906 12.4375 L 192.628906 52.070312 L 2.453125 52.070312 Z M 2.453125 12.4375 " fill-opacity="1" fill-rule="nonzero"/></g></g><g clip-path="url(#a5ba0a40ce)"><path fill="#287777" d="M 45.949219 37.042969 C 45.882812 35.3125 44.90625 33.742188 43.304688 32.582031 C 42.566406 32.046875 41.691406 31.601562 40.714844 31.269531 C 42.148438 30.085938 43.058594 28.308594 43.058594 26.320312 C 43.058594 22.757812 40.128906 19.871094 36.515625 19.871094 C 32.902344 19.871094 29.972656 22.757812 29.972656 26.320312 C 29.972656 28.308594 30.886719 30.085938 32.320312 31.269531 C 31.339844 31.601562 30.464844 32.046875 29.726562 32.582031 C 28.125 33.742188 27.152344 35.3125 27.085938 37.042969 C 27.0625 37.652344 27.128906 38.160156 27.273438 38.597656 C 29.71875 39.195312 32.960938 39.558594 36.515625 39.558594 C 40.082031 39.558594 43.328125 39.191406 45.777344 38.59375 C 45.910156 38.160156 45.96875 37.648438 45.949219 37.042969 " fill-opacity="1" fill-rule="nonzero"/></g><g clip-path="url(#3306597518)"><path fill="#287777" d="M 25.554688 37.042969 C 25.492188 35.3125 24.515625 33.742188 22.914062 32.582031 C 22.175781 32.046875 21.300781 31.601562 20.320312 31.269531 C 21.753906 30.085938 22.667969 28.308594 22.667969 26.320312 C 22.667969 22.757812 19.738281 19.871094 16.125 19.871094 C 12.511719 19.871094 9.582031 22.757812 9.582031 26.320312 C 9.582031 28.308594 10.492188 30.085938 11.925781 31.269531 C 10.945312 31.601562 10.074219 32.046875 9.335938 32.582031 C 7.734375 33.742188 6.761719 35.3125 6.691406 37.042969 C 6.667969 37.652344 6.738281 38.160156 6.878906 38.597656 C 9.328125 39.195312 12.570312 39.558594 16.125 39.558594 C 19.6875 39.558594 22.9375 39.191406 25.386719 38.59375 C 25.515625 38.160156 25.578125 37.648438 25.554688 37.042969 " fill-opacity="1" fill-rule="nonzero"/></g><g clip-path="url(#fc2e2da8f6)"><path fill="#40bfbc" d="M 36.347656 40.90625 C 36.277344 39.066406 35.242188 37.394531 33.539062 36.164062 C 32.75 35.597656 31.824219 35.121094 30.78125 34.765625 C 32.304688 33.507812 33.273438 31.621094 33.273438 29.507812 C 33.273438 25.722656 30.160156 22.652344 26.320312 22.652344 C 22.480469 22.652344 19.367188 25.722656 19.367188 29.507812 C 19.367188 31.621094 20.335938 33.507812 21.859375 34.765625 C 20.816406 35.121094 19.890625 35.597656 19.105469 36.164062 C 17.402344 37.394531 16.367188 39.066406 16.292969 40.90625 C 16.269531 41.550781 16.339844 42.09375 16.492188 42.558594 C 19.097656 43.191406 22.539062 43.578125 26.320312 43.578125 C 30.109375 43.578125 33.5625 43.191406 36.164062 42.554688 C 36.304688 42.089844 36.371094 41.546875 36.347656 40.90625 " fill-opacity="1" fill-rule="nonzero"/></g><g fill="#0d4244" fill-opacity="0.302"><g transform="translate(60.324044, 36.946744)"><g><path d="M 3 0 L 1.21875 0 C 1.070312 0 0.960938 -0.03125 0.890625 -0.09375 C 0.828125 -0.164062 0.796875 -0.273438 0.796875 -0.421875 L 0.796875 -7.90625 C 0.796875 -8.050781 0.828125 -8.15625 0.890625 -8.21875 C 0.960938 -8.289062 1.070312 -8.328125 1.21875 -8.328125 L 4.75 -8.328125 C 5.800781 -8.328125 6.519531 -8.117188 6.90625 -7.703125 C 7.289062 -7.285156 7.484375 -6.742188 7.484375 -6.078125 L 7.484375 -4.59375 C 7.484375 -3.914062 7.289062 -3.367188 6.90625 -2.953125 C 6.519531 -2.535156 5.800781 -2.328125 4.75 -2.328125 L 3.421875 -2.328125 L 3.421875 -0.421875 C 3.421875 -0.273438 3.382812 -0.164062 3.3125 -0.09375 C 3.25 -0.03125 3.144531 0 3 0 Z M 3.40625 -6.15625 L 3.40625 -4.421875 L 4.4375 -4.421875 C 4.664062 -4.421875 4.8125 -4.476562 4.875 -4.59375 C 4.945312 -4.707031 4.984375 -4.835938 4.984375 -4.984375 L 4.984375 -5.59375 C 4.984375 -5.738281 4.945312 -5.867188 4.875 -5.984375 C 4.8125 -6.097656 4.664062 -6.15625 4.4375 -6.15625 Z M 3.40625 -6.15625 "/></g></g></g><g fill="#0d4244" fill-opacity="0.302"><g transform="translate(68.954496, 36.946744)"><g><path d="M 6.578125 0 L 1.21875 0 C 1.070312 0 0.960938 -0.03125 0.890625 -0.09375 C 0.828125 -0.164062 0.796875 -0.273438 0.796875 -0.421875 L 0.796875 -7.90625 C 0.796875 -8.050781 0.828125 -8.15625 0.890625 -8.21875 C 0.960938 -8.289062 1.070312 -8.328125 1.21875 -8.328125 L 6.578125 -8.328125 C 6.722656 -8.328125 6.828125 -8.289062 6.890625 -8.21875 C 6.960938 -8.15625 7 -8.050781 7 -7.90625 L 7 -6.5625 C 7 -6.414062 6.960938 -6.304688 6.890625 -6.234375 C 6.828125 -6.171875 6.722656 -6.140625 6.578125 -6.140625 L 3.390625 -6.140625 L 3.390625 -5.25 L 5.640625 -5.25 C 5.785156 -5.25 5.890625 -5.210938 5.953125 -5.140625 C 6.023438 -5.078125 6.0625 -4.972656 6.0625 -4.828125 L 6.0625 -3.59375 C 6.0625 -3.445312 6.023438 -3.34375 5.953125 -3.28125 C 5.890625 -3.21875 5.785156 -3.1875 5.640625 -3.1875 L 3.390625 -3.1875 L 3.390625 -2.1875 L 6.578125 -2.1875 C 6.722656 -2.1875 6.828125 -2.148438 6.890625 -2.078125 C 6.960938 -2.015625 7 -1.910156 7 -1.765625 L 7 -0.421875 C 7 -0.273438 6.960938 -0.164062 6.890625 -0.09375 C 6.828125 -0.03125 6.722656 0 6.578125 0 Z M 6.578125 0 "/></g></g></g><g fill="#0d4244" fill-opacity="0.302"><g transform="translate(77.261018, 36.946744)"><g><path d="M 3.40625 -6.25 L 3.40625 -4.765625 L 4.28125 -4.765625 C 4.476562 -4.765625 4.609375 -4.816406 4.671875 -4.921875 C 4.742188 -5.023438 4.78125 -5.15625 4.78125 -5.3125 L 4.78125 -5.703125 C 4.78125 -5.859375 4.742188 -5.988281 4.671875 -6.09375 C 4.609375 -6.195312 4.476562 -6.25 4.28125 -6.25 Z M 3 0 L 1.21875 0 C 1.070312 0 0.960938 -0.03125 0.890625 -0.09375 C 0.828125 -0.164062 0.796875 -0.273438 0.796875 -0.421875 L 0.796875 -7.90625 C 0.796875 -8.050781 0.828125 -8.15625 0.890625 -8.21875 C 0.960938 -8.289062 1.070312 -8.328125 1.21875 -8.328125 L 5.0625 -8.328125 C 5.925781 -8.328125 6.519531 -8.144531 6.84375 -7.78125 C 7.175781 -7.425781 7.34375 -6.960938 7.34375 -6.390625 L 7.34375 -5.859375 C 7.34375 -5.535156 7.289062 -5.257812 7.1875 -5.03125 C 7.09375 -4.800781 6.925781 -4.640625 6.6875 -4.546875 C 7.101562 -4.492188 7.441406 -4.320312 7.703125 -4.03125 C 7.960938 -3.738281 8.09375 -3.351562 8.09375 -2.875 L 8.09375 -0.421875 C 8.09375 -0.273438 8.054688 -0.164062 7.984375 -0.09375 C 7.921875 -0.03125 7.816406 0 7.671875 0 L 5.890625 0 C 5.742188 0 5.632812 -0.03125 5.5625 -0.09375 C 5.5 -0.164062 5.46875 -0.273438 5.46875 -0.421875 L 5.46875 -2.1875 C 5.46875 -2.351562 5.429688 -2.476562 5.359375 -2.5625 C 5.296875 -2.644531 5.1875 -2.6875 5.03125 -2.6875 L 3.40625 -2.6875 L 3.40625 -0.421875 C 3.40625 -0.273438 3.375 -0.164062 3.3125 -0.09375 C 3.25 -0.03125 3.144531 0 3 0 Z M 3 0 "/></g></g></g><g fill="#0d4244" fill-opacity="0.302"><g transform="translate(86.597175, 36.946744)"><g><path d="M 2.9375 0 L 1.21875 0 C 1.070312 0 0.960938 -0.03125 0.890625 -0.09375 C 0.828125 -0.164062 0.796875 -0.273438 0.796875 -0.421875 L 0.796875 -7.90625 C 0.796875 -8.050781 0.828125 -8.15625 0.890625 -8.21875 C 0.960938 -8.289062 1.070312 -8.328125 1.21875 -8.328125 L 3.078125 -8.328125 C 3.203125 -8.328125 3.300781 -8.296875 3.375 -8.234375 C 3.457031 -8.179688 3.535156 -8.097656 3.609375 -7.984375 L 4.640625 -6.09375 C 4.679688 -6.019531 4.710938 -5.96875 4.734375 -5.9375 C 4.765625 -5.90625 4.804688 -5.890625 4.859375 -5.890625 L 4.953125 -5.890625 C 5.003906 -5.890625 5.039062 -5.90625 5.0625 -5.9375 C 5.09375 -5.96875 5.128906 -6.019531 5.171875 -6.09375 L 6.203125 -7.984375 C 6.265625 -8.097656 6.335938 -8.179688 6.421875 -8.234375 C 6.503906 -8.296875 6.609375 -8.328125 6.734375 -8.328125 L 8.609375 -8.328125 C 8.753906 -8.328125 8.859375 -8.289062 8.921875 -8.21875 C 8.984375 -8.15625 9.015625 -8.050781 9.015625 -7.90625 L 9.015625 -0.421875 C 9.015625 -0.273438 8.984375 -0.164062 8.921875 -0.09375 C 8.859375 -0.03125 8.753906 0 8.609375 0 L 6.828125 0 C 6.679688 0 6.570312 -0.03125 6.5 -0.09375 C 6.4375 -0.164062 6.40625 -0.273438 6.40625 -0.421875 L 6.40625 -4.484375 L 5.71875 -3.21875 C 5.65625 -3.09375 5.570312 -3 5.46875 -2.9375 C 5.375 -2.882812 5.253906 -2.859375 5.109375 -2.859375 L 4.640625 -2.859375 C 4.492188 -2.859375 4.375 -2.882812 4.28125 -2.9375 C 4.1875 -3 4.101562 -3.09375 4.03125 -3.21875 L 3.359375 -4.484375 L 3.359375 -0.421875 C 3.359375 -0.273438 3.320312 -0.164062 3.25 -0.09375 C 3.1875 -0.03125 3.082031 0 2.9375 0 Z M 2.9375 0 "/></g></g></g><g fill="#0d4244" fill-opacity="0.302"><g transform="translate(97.159639, 36.946744)"><g><path d="M 1.03125 0 C 0.882812 0 0.773438 -0.03125 0.703125 -0.09375 C 0.640625 -0.164062 0.609375 -0.273438 0.609375 -0.421875 L 0.609375 -1.796875 C 0.609375 -1.941406 0.640625 -2.046875 0.703125 -2.109375 C 0.773438 -2.171875 0.882812 -2.203125 1.03125 -2.203125 L 2.171875 -2.203125 L 2.171875 -6.09375 L 1.03125 -6.09375 C 0.882812 -6.09375 0.773438 -6.125 0.703125 -6.1875 C 0.640625 -6.257812 0.609375 -6.367188 0.609375 -6.515625 L 0.609375 -7.90625 C 0.609375 -8.050781 0.640625 -8.15625 0.703125 -8.21875 C 0.773438 -8.289062 0.882812 -8.328125 1.03125 -8.328125 L 5.953125 -8.328125 C 6.097656 -8.328125 6.203125 -8.289062 6.265625 -8.21875 C 6.335938 -8.15625 6.375 -8.050781 6.375 -7.90625 L 6.375 -6.515625 C 6.375 -6.367188 6.335938 -6.257812 6.265625 -6.1875 C 6.203125 -6.125 6.097656 -6.09375 5.953125 -6.09375 L 4.828125 -6.09375 L 4.828125 -2.203125 L 5.953125 -2.203125 C 6.097656 -2.203125 6.203125 -2.171875 6.265625 -2.109375 C 6.335938 -2.046875 6.375 -1.941406 6.375 -1.796875 L 6.375 -0.421875 C 6.375 -0.273438 6.335938 -0.164062 6.265625 -0.09375 C 6.203125 -0.03125 6.097656 0 5.953125 0 Z M 1.03125 0 "/></g></g></g><g fill="#0d4244" fill-opacity="0.302"><g transform="translate(104.899286, 36.946744)"><g><path d="M 4.65625 0 L 1 0 C 0.851562 0 0.75 -0.03125 0.6875 -0.09375 C 0.625 -0.164062 0.59375 -0.273438 0.59375 -0.421875 L 0.59375 -1.765625 C 0.59375 -1.910156 0.625 -2.015625 0.6875 -2.078125 C 0.75 -2.148438 0.851562 -2.1875 1 -2.1875 L 4.109375 -2.1875 C 4.210938 -2.1875 4.289062 -2.21875 4.34375 -2.28125 C 4.394531 -2.34375 4.421875 -2.421875 4.421875 -2.515625 C 4.421875 -2.648438 4.394531 -2.75 4.34375 -2.8125 C 4.289062 -2.875 4.210938 -2.90625 4.109375 -2.90625 L 2.375 -3.15625 C 1.84375 -3.226562 1.410156 -3.40625 1.078125 -3.6875 C 0.753906 -3.96875 0.59375 -4.429688 0.59375 -5.078125 L 0.59375 -6.296875 C 0.59375 -6.941406 0.800781 -7.441406 1.21875 -7.796875 C 1.644531 -8.148438 2.234375 -8.328125 2.984375 -8.328125 L 6.21875 -8.328125 C 6.363281 -8.328125 6.46875 -8.289062 6.53125 -8.21875 C 6.601562 -8.15625 6.640625 -8.050781 6.640625 -7.90625 L 6.640625 -6.53125 C 6.640625 -6.382812 6.601562 -6.273438 6.53125 -6.203125 C 6.46875 -6.140625 6.363281 -6.109375 6.21875 -6.109375 L 3.53125 -6.109375 C 3.425781 -6.109375 3.347656 -6.078125 3.296875 -6.015625 C 3.242188 -5.953125 3.21875 -5.867188 3.21875 -5.765625 C 3.21875 -5.671875 3.242188 -5.585938 3.296875 -5.515625 C 3.347656 -5.441406 3.425781 -5.40625 3.53125 -5.40625 L 5.25 -5.171875 C 5.789062 -5.085938 6.222656 -4.90625 6.546875 -4.625 C 6.878906 -4.351562 7.046875 -3.894531 7.046875 -3.25 L 7.046875 -2.03125 C 7.046875 -1.375 6.832031 -0.867188 6.40625 -0.515625 C 5.976562 -0.171875 5.394531 0 4.65625 0 Z M 4.65625 0 "/></g></g></g><g fill="#0d4244" fill-opacity="0.302"><g transform="translate(113.159533, 36.946744)"><g><path d="M 4.65625 0 L 1 0 C 0.851562 0 0.75 -0.03125 0.6875 -0.09375 C 0.625 -0.164062 0.59375 -0.273438 0.59375 -0.421875 L 0.59375 -1.765625 C 0.59375 -1.910156 0.625 -2.015625 0.6875 -2.078125 C 0.75 -2.148438 0.851562 -2.1875 1 -2.1875 L 4.109375 -2.1875 C 4.210938 -2.1875 4.289062 -2.21875 4.34375 -2.28125 C 4.394531 -2.34375 4.421875 -2.421875 4.421875 -2.515625 C 4.421875 -2.648438 4.394531 -2.75 4.34375 -2.8125 C 4.289062 -2.875 4.210938 -2.90625 4.109375 -2.90625 L 2.375 -3.15625 C 1.84375 -3.226562 1.410156 -3.40625 1.078125 -3.6875 C 0.753906 -3.96875 0.59375 -4.429688 0.59375 -5.078125 L 0.59375 -6.296875 C 0.59375 -6.941406 0.800781 -7.441406 1.21875 -7.796875 C 1.644531 -8.148438 2.234375 -8.328125 2.984375 -8.328125 L 6.21875 -8.328125 C 6.363281 -8.328125 6.46875 -8.289062 6.53125 -8.21875 C 6.601562 -8.15625 6.640625 -8.050781 6.640625 -7.90625 L 6.640625 -6.53125 C 6.640625 -6.382812 6.601562 -6.273438 6.53125 -6.203125 C 6.46875 -6.140625 6.363281 -6.109375 6.21875 -6.109375 L 3.53125 -6.109375 C 3.425781 -6.109375 3.347656 -6.078125 3.296875 -6.015625 C 3.242188 -5.953125 3.21875 -5.867188 3.21875 -5.765625 C 3.21875 -5.671875 3.242188 -5.585938 3.296875 -5.515625 C 3.347656 -5.441406 3.425781 -5.40625 3.53125 -5.40625 L 5.25 -5.171875 C 5.789062 -5.085938 6.222656 -4.90625 6.546875 -4.625 C 6.878906 -4.351562 7.046875 -3.894531 7.046875 -3.25 L 7.046875 -2.03125 C 7.046875 -1.375 6.832031 -0.867188 6.40625 -0.515625 C 5.976562 -0.171875 5.394531 0 4.65625 0 Z M 4.65625 0 "/></g></g></g><g fill="#0d4244" fill-opacity="0.302"><g transform="translate(121.419781, 36.946744)"><g><path d="M 1.03125 0 C 0.882812 0 0.773438 -0.03125 0.703125 -0.09375 C 0.640625 -0.164062 0.609375 -0.273438 0.609375 -0.421875 L 0.609375 -1.796875 C 0.609375 -1.941406 0.640625 -2.046875 0.703125 -2.109375 C 0.773438 -2.171875 0.882812 -2.203125 1.03125 -2.203125 L 2.171875 -2.203125 L 2.171875 -6.09375 L 1.03125 -6.09375 C 0.882812 -6.09375 0.773438 -6.125 0.703125 -6.1875 C 0.640625 -6.257812 0.609375 -6.367188 0.609375 -6.515625 L 0.609375 -7.90625 C 0.609375 -8.050781 0.640625 -8.15625 0.703125 -8.21875 C 0.773438 -8.289062 0.882812 -8.328125 1.03125 -8.328125 L 5.953125 -8.328125 C 6.097656 -8.328125 6.203125 -8.289062 6.265625 -8.21875 C 6.335938 -8.15625 6.375 -8.050781 6.375 -7.90625 L 6.375 -6.515625 C 6.375 -6.367188 6.335938 -6.257812 6.265625 -6.1875 C 6.203125 -6.125 6.097656 -6.09375 5.953125 -6.09375 L 4.828125 -6.09375 L 4.828125 -2.203125 L 5.953125 -2.203125 C 6.097656 -2.203125 6.203125 -2.171875 6.265625 -2.109375 C 6.335938 -2.046875 6.375 -1.941406 6.375 -1.796875 L 6.375 -0.421875 C 6.375 -0.273438 6.335938 -0.164062 6.265625 -0.09375 C 6.203125 -0.03125 6.097656 0 5.953125 0 Z M 1.03125 0 "/></g></g></g><g fill="#0d4244" fill-opacity="0.302"><g transform="translate(129.159428, 36.946744)"><g><path d="M 7.84375 -2.1875 C 7.84375 -1.832031 7.789062 -1.507812 7.6875 -1.21875 C 7.582031 -0.925781 7.394531 -0.675781 7.125 -0.46875 C 6.863281 -0.269531 6.5 -0.113281 6.03125 0 C 5.570312 0.113281 4.984375 0.171875 4.265625 0.171875 C 3.546875 0.171875 2.953125 0.113281 2.484375 0 C 2.015625 -0.113281 1.644531 -0.269531 1.375 -0.46875 C 1.113281 -0.675781 0.929688 -0.925781 0.828125 -1.21875 C 0.722656 -1.507812 0.671875 -1.832031 0.671875 -2.1875 L 0.671875 -6.125 C 0.671875 -6.476562 0.722656 -6.800781 0.828125 -7.09375 C 0.929688 -7.382812 1.113281 -7.632812 1.375 -7.84375 C 1.644531 -8.050781 2.015625 -8.210938 2.484375 -8.328125 C 2.953125 -8.441406 3.546875 -8.5 4.265625 -8.5 C 4.984375 -8.5 5.570312 -8.441406 6.03125 -8.328125 C 6.5 -8.210938 6.863281 -8.050781 7.125 -7.84375 C 7.394531 -7.632812 7.582031 -7.382812 7.6875 -7.09375 C 7.789062 -6.800781 7.84375 -6.476562 7.84375 -6.125 Z M 3.296875 -2.609375 C 3.296875 -2.453125 3.351562 -2.320312 3.46875 -2.21875 C 3.582031 -2.113281 3.847656 -2.0625 4.265625 -2.0625 C 4.679688 -2.0625 4.945312 -2.113281 5.0625 -2.21875 C 5.175781 -2.320312 5.234375 -2.453125 5.234375 -2.609375 L 5.234375 -5.71875 C 5.234375 -5.863281 5.175781 -5.988281 5.0625 -6.09375 C 4.945312 -6.195312 4.679688 -6.25 4.265625 -6.25 C 3.847656 -6.25 3.582031 -6.195312 3.46875 -6.09375 C 3.351562 -5.988281 3.296875 -5.863281 3.296875 -5.71875 Z M 3.296875 -2.609375 "/></g></g></g><g fill="#0d4244" fill-opacity="0.302"><g transform="translate(138.426172, 36.946744)"><g><path d="M 2.953125 0 L 1.21875 0 C 1.070312 0 0.960938 -0.03125 0.890625 -0.09375 C 0.828125 -0.164062 0.796875 -0.273438 0.796875 -0.421875 L 0.796875 -7.90625 C 0.796875 -8.050781 0.828125 -8.15625 0.890625 -8.21875 C 0.960938 -8.289062 1.070312 -8.328125 1.21875 -8.328125 L 2.421875 -8.328125 C 2.566406 -8.328125 2.691406 -8.300781 2.796875 -8.25 C 2.898438 -8.207031 3 -8.128906 3.09375 -8.015625 L 5.34375 -5.453125 L 5.34375 -7.90625 C 5.34375 -8.050781 5.375 -8.15625 5.4375 -8.21875 C 5.5 -8.289062 5.609375 -8.328125 5.765625 -8.328125 L 7.5 -8.328125 C 7.644531 -8.328125 7.75 -8.289062 7.8125 -8.21875 C 7.875 -8.15625 7.90625 -8.050781 7.90625 -7.90625 L 7.90625 -0.421875 C 7.90625 -0.273438 7.875 -0.164062 7.8125 -0.09375 C 7.75 -0.03125 7.644531 0 7.5 0 L 5.765625 0 C 5.609375 0 5.5 -0.03125 5.4375 -0.09375 C 5.375 -0.164062 5.34375 -0.273438 5.34375 -0.421875 L 5.34375 -1.84375 L 3.359375 -4.234375 L 3.359375 -0.421875 C 3.359375 -0.273438 3.328125 -0.164062 3.265625 -0.09375 C 3.203125 -0.03125 3.097656 0 2.953125 0 Z M 2.953125 0 "/></g></g></g><g fill="#0d4244" fill-opacity="0.302"><g transform="translate(147.878019, 36.946744)"><g><path d="M 4.65625 0 L 1 0 C 0.851562 0 0.75 -0.03125 0.6875 -0.09375 C 0.625 -0.164062 0.59375 -0.273438 0.59375 -0.421875 L 0.59375 -1.765625 C 0.59375 -1.910156 0.625 -2.015625 0.6875 -2.078125 C 0.75 -2.148438 0.851562 -2.1875 1 -2.1875 L 4.109375 -2.1875 C 4.210938 -2.1875 4.289062 -2.21875 4.34375 -2.28125 C 4.394531 -2.34375 4.421875 -2.421875 4.421875 -2.515625 C 4.421875 -2.648438 4.394531 -2.75 4.34375 -2.8125 C 4.289062 -2.875 4.210938 -2.90625 4.109375 -2.90625 L 2.375 -3.15625 C 1.84375 -3.226562 1.410156 -3.40625 1.078125 -3.6875 C 0.753906 -3.96875 0.59375 -4.429688 0.59375 -5.078125 L 0.59375 -6.296875 C 0.59375 -6.941406 0.800781 -7.441406 1.21875 -7.796875 C 1.644531 -8.148438 2.234375 -8.328125 2.984375 -8.328125 L 6.21875 -8.328125 C 6.363281 -8.328125 6.46875 -8.289062 6.53125 -8.21875 C 6.601562 -8.15625 6.640625 -8.050781 6.640625 -7.90625 L 6.640625 -6.53125 C 6.640625 -6.382812 6.601562 -6.273438 6.53125 -6.203125 C 6.46875 -6.140625 6.363281 -6.109375 6.21875 -6.109375 L 3.53125 -6.109375 C 3.425781 -6.109375 3.347656 -6.078125 3.296875 -6.015625 C 3.242188 -5.953125 3.21875 -5.867188 3.21875 -5.765625 C 3.21875 -5.671875 3.242188 -5.585938 3.296875 -5.515625 C 3.347656 -5.441406 3.425781 -5.40625 3.53125 -5.40625 L 5.25 -5.171875 C 5.789062 -5.085938 6.222656 -4.90625 6.546875 -4.625 C 6.878906 -4.351562 7.046875 -3.894531 7.046875 -3.25 L 7.046875 -2.03125 C 7.046875 -1.375 6.832031 -0.867188 6.40625 -0.515625 C 5.976562 -0.171875 5.394531 0 4.65625 0 Z M 4.65625 0 "/></g></g></g><g fill="#0d4244" fill-opacity="0.502"><g transform="translate(59.812748, 36.435447)"><g><path d="M 3 0 L 1.21875 0 C 1.070312 0 0.960938 -0.03125 0.890625 -0.09375 C 0.828125 -0.164062 0.796875 -0.273438 0.796875 -0.421875 L 0.796875 -7.90625 C 0.796875 -8.050781 0.828125 -8.15625 0.890625 -8.21875 C 0.960938 -8.289062 1.070312 -8.328125 1.21875 -8.328125 L 4.75 -8.328125 C 5.800781 -8.328125 6.519531 -8.117188 6.90625 -7.703125 C 7.289062 -7.285156 7.484375 -6.742188 7.484375 -6.078125 L 7.484375 -4.59375 C 7.484375 -3.914062 7.289062 -3.367188 6.90625 -2.953125 C 6.519531 -2.535156 5.800781 -2.328125 4.75 -2.328125 L 3.421875 -2.328125 L 3.421875 -0.421875 C 3.421875 -0.273438 3.382812 -0.164062 3.3125 -0.09375 C 3.25 -0.03125 3.144531 0 3 0 Z M 3.40625 -6.15625 L 3.40625 -4.421875 L 4.4375 -4.421875 C 4.664062 -4.421875 4.8125 -4.476562 4.875 -4.59375 C 4.945312 -4.707031 4.984375 -4.835938 4.984375 -4.984375 L 4.984375 -5.59375 C 4.984375 -5.738281 4.945312 -5.867188 4.875 -5.984375 C 4.8125 -6.097656 4.664062 -6.15625 4.4375 -6.15625 Z M 3.40625 -6.15625 "/></g></g></g><g fill="#0d4244" fill-opacity="0.502"><g transform="translate(68.443199, 36.435447)"><g><path d="M 6.578125 0 L 1.21875 0 C 1.070312 0 0.960938 -0.03125 0.890625 -0.09375 C 0.828125 -0.164062 0.796875 -0.273438 0.796875 -0.421875 L 0.796875 -7.90625 C 0.796875 -8.050781 0.828125 -8.15625 0.890625 -8.21875 C 0.960938 -8.289062 1.070312 -8.328125 1.21875 -8.328125 L 6.578125 -8.328125 C 6.722656 -8.328125 6.828125 -8.289062 6.890625 -8.21875 C 6.960938 -8.15625 7 -8.050781 7 -7.90625 L 7 -6.5625 C 7 -6.414062 6.960938 -6.304688 6.890625 -6.234375 C 6.828125 -6.171875 6.722656 -6.140625 6.578125 -6.140625 L 3.390625 -6.140625 L 3.390625 -5.25 L 5.640625 -5.25 C 5.785156 -5.25 5.890625 -5.210938 5.953125 -5.140625 C 6.023438 -5.078125 6.0625 -4.972656 6.0625 -4.828125 L 6.0625 -3.59375 C 6.0625 -3.445312 6.023438 -3.34375 5.953125 -3.28125 C 5.890625 -3.21875 5.785156 -3.1875 5.640625 -3.1875 L 3.390625 -3.1875 L 3.390625 -2.1875 L 6.578125 -2.1875 C 6.722656 -2.1875 6.828125 -2.148438 6.890625 -2.078125 C 6.960938 -2.015625 7 -1.910156 7 -1.765625 L 7 -0.421875 C 7 -0.273438 6.960938 -0.164062 6.890625 -0.09375 C 6.828125 -0.03125 6.722656 0 6.578125 0 Z M 6.578125 0 "/></g></g></g><g fill="#0d4244" fill-opacity="0.502"><g transform="translate(76.749721, 36.435447)"><g><path d="M 3.40625 -6.25 L 3.40625 -4.765625 L 4.28125 -4.765625 C 4.476562 -4.765625 4.609375 -4.816406 4.671875 -4.921875 C 4.742188 -5.023438 4.78125 -5.15625 4.78125 -5.3125 L 4.78125 -5.703125 C 4.78125 -5.859375 4.742188 -5.988281 4.671875 -6.09375 C 4.609375 -6.195312 4.476562 -6.25 4.28125 -6.25 Z M 3 0 L 1.21875 0 C 1.070312 0 0.960938 -0.03125 0.890625 -0.09375 C 0.828125 -0.164062 0.796875 -0.273438 0.796875 -0.421875 L 0.796875 -7.90625 C 0.796875 -8.050781 0.828125 -8.15625 0.890625 -8.21875 C 0.960938 -8.289062 1.070312 -8.328125 1.21875 -8.328125 L 5.0625 -8.328125 C 5.925781 -8.328125 6.519531 -8.144531 6.84375 -7.78125 C 7.175781 -7.425781 7.34375 -6.960938 7.34375 -6.390625 L 7.34375 -5.859375 C 7.34375 -5.535156 7.289062 -5.257812 7.1875 -5.03125 C 7.09375 -4.800781 6.925781 -4.640625 6.6875 -4.546875 C 7.101562 -4.492188 7.441406 -4.320312 7.703125 -4.03125 C 7.960938 -3.738281 8.09375 -3.351562 8.09375 -2.875 L 8.09375 -0.421875 C 8.09375 -0.273438 8.054688 -0.164062 7.984375 -0.09375 C 7.921875 -0.03125 7.816406 0 7.671875 0 L 5.890625 0 C 5.742188 0 5.632812 -0.03125 5.5625 -0.09375 C 5.5 -0.164062 5.46875 -0.273438 5.46875 -0.421875 L 5.46875 -2.1875 C 5.46875 -2.351562 5.429688 -2.476562 5.359375 -2.5625 C 5.296875 -2.644531 5.1875 -2.6875 5.03125 -2.6875 L 3.40625 -2.6875 L 3.40625 -0.421875 C 3.40625 -0.273438 3.375 -0.164062 3.3125 -0.09375 C 3.25 -0.03125 3.144531 0 3 0 Z M 3 0 "/></g></g></g><g fill="#0d4244" fill-opacity="0.502"><g transform="translate(86.085879, 36.435447)"><g><path d="M 2.9375 0 L 1.21875 0 C 1.070312 0 0.960938 -0.03125 0.890625 -0.09375 C 0.828125 -0.164062 0.796875 -0.273438 0.796875 -0.421875 L 0.796875 -7.90625 C 0.796875 -8.050781 0.828125 -8.15625 0.890625 -8.21875 C 0.960938 -8.289062 1.070312 -8.328125 1.21875 -8.328125 L 3.078125 -8.328125 C 3.203125 -8.328125 3.300781 -8.296875 3.375 -8.234375 C 3.457031 -8.179688 3.535156 -8.097656 3.609375 -7.984375 L 4.640625 -6.09375 C 4.679688 -6.019531 4.710938 -5.96875 4.734375 -5.9375 C 4.765625 -5.90625 4.804688 -5.890625 4.859375 -5.890625 L 4.953125 -5.890625 C 5.003906 -5.890625 5.039062 -5.90625 5.0625 -5.9375 C 5.09375 -5.96875 5.128906 -6.019531 5.171875 -6.09375 L 6.203125 -7.984375 C 6.265625 -8.097656 6.335938 -8.179688 6.421875 -8.234375 C 6.503906 -8.296875 6.609375 -8.328125 6.734375 -8.328125 L 8.609375 -8.328125 C 8.753906 -8.328125 8.859375 -8.289062 8.921875 -8.21875 C 8.984375 -8.15625 9.015625 -8.050781 9.015625 -7.90625 L 9.015625 -0.421875 C 9.015625 -0.273438 8.984375 -0.164062 8.921875 -0.09375 C 8.859375 -0.03125 8.753906 0 8.609375 0 L 6.828125 0 C 6.679688 0 6.570312 -0.03125 6.5 -0.09375 C 6.4375 -0.164062 6.40625 -0.273438 6.40625 -0.421875 L 6.40625 -4.484375 L 5.71875 -3.21875 C 5.65625 -3.09375 5.570312 -3 5.46875 -2.9375 C 5.375 -2.882812 5.253906 -2.859375 5.109375 -2.859375 L 4.640625 -2.859375 C 4.492188 -2.859375 4.375 -2.882812 4.28125 -2.9375 C 4.1875 -3 4.101562 -3.09375 4.03125 -3.21875 L 3.359375 -4.484375 L 3.359375 -0.421875 C 3.359375 -0.273438 3.320312 -0.164062 3.25 -0.09375 C 3.1875 -0.03125 3.082031 0 2.9375 0 Z M 2.9375 0 "/></g></g></g><g fill="#0d4244" fill-opacity="0.502"><g transform="translate(96.648342, 36.435447)"><g><path d="M 1.03125 0 C 0.882812 0 0.773438 -0.03125 0.703125 -0.09375 C 0.640625 -0.164062 0.609375 -0.273438 0.609375 -0.421875 L 0.609375 -1.796875 C 0.609375 -1.941406 0.640625 -2.046875 0.703125 -2.109375 C 0.773438 -2.171875 0.882812 -2.203125 1.03125 -2.203125 L 2.171875 -2.203125 L 2.171875 -6.09375 L 1.03125 -6.09375 C 0.882812 -6.09375 0.773438 -6.125 0.703125 -6.1875 C 0.640625 -6.257812 0.609375 -6.367188 0.609375 -6.515625 L 0.609375 -7.90625 C 0.609375 -8.050781 0.640625 -8.15625 0.703125 -8.21875 C 0.773438 -8.289062 0.882812 -8.328125 1.03125 -8.328125 L 5.953125 -8.328125 C 6.097656 -8.328125 6.203125 -8.289062 6.265625 -8.21875 C 6.335938 -8.15625 6.375 -8.050781 6.375 -7.90625 L 6.375 -6.515625 C 6.375 -6.367188 6.335938 -6.257812 6.265625 -6.1875 C 6.203125 -6.125 6.097656 -6.09375 5.953125 -6.09375 L 4.828125 -6.09375 L 4.828125 -2.203125 L 5.953125 -2.203125 C 6.097656 -2.203125 6.203125 -2.171875 6.265625 -2.109375 C 6.335938 -2.046875 6.375 -1.941406 6.375 -1.796875 L 6.375 -0.421875 C 6.375 -0.273438 6.335938 -0.164062 6.265625 -0.09375 C 6.203125 -0.03125 6.097656 0 5.953125 0 Z M 1.03125 0 "/></g></g></g><g fill="#0d4244" fill-opacity="0.502"><g transform="translate(104.387989, 36.435447)"><g><path d="M 4.65625 0 L 1 0 C 0.851562 0 0.75 -0.03125 0.6875 -0.09375 C 0.625 -0.164062 0.59375 -0.273438 0.59375 -0.421875 L 0.59375 -1.765625 C 0.59375 -1.910156 0.625 -2.015625 0.6875 -2.078125 C 0.75 -2.148438 0.851562 -2.1875 1 -2.1875 L 4.109375 -2.1875 C 4.210938 -2.1875 4.289062 -2.21875 4.34375 -2.28125 C 4.394531 -2.34375 4.421875 -2.421875 4.421875 -2.515625 C 4.421875 -2.648438 4.394531 -2.75 4.34375 -2.8125 C 4.289062 -2.875 4.210938 -2.90625 4.109375 -2.90625 L 2.375 -3.15625 C 1.84375 -3.226562 1.410156 -3.40625 1.078125 -3.6875 C 0.753906 -3.96875 0.59375 -4.429688 0.59375 -5.078125 L 0.59375 -6.296875 C 0.59375 -6.941406 0.800781 -7.441406 1.21875 -7.796875 C 1.644531 -8.148438 2.234375 -8.328125 2.984375 -8.328125 L 6.21875 -8.328125 C 6.363281 -8.328125 6.46875 -8.289062 6.53125 -8.21875 C 6.601562 -8.15625 6.640625 -8.050781 6.640625 -7.90625 L 6.640625 -6.53125 C 6.640625 -6.382812 6.601562 -6.273438 6.53125 -6.203125 C 6.46875 -6.140625 6.363281 -6.109375 6.21875 -6.109375 L 3.53125 -6.109375 C 3.425781 -6.109375 3.347656 -6.078125 3.296875 -6.015625 C 3.242188 -5.953125 3.21875 -5.867188 3.21875 -5.765625 C 3.21875 -5.671875 3.242188 -5.585938 3.296875 -5.515625 C 3.347656 -5.441406 3.425781 -5.40625 3.53125 -5.40625 L 5.25 -5.171875 C 5.789062 -5.085938 6.222656 -4.90625 6.546875 -4.625 C 6.878906 -4.351562 7.046875 -3.894531 7.046875 -3.25 L 7.046875 -2.03125 C 7.046875 -1.375 6.832031 -0.867188 6.40625 -0.515625 C 5.976562 -0.171875 5.394531 0 4.65625 0 Z M 4.65625 0 "/></g></g></g><g fill="#0d4244" fill-opacity="0.502"><g transform="translate(112.648237, 36.435447)"><g><path d="M 4.65625 0 L 1 0 C 0.851562 0 0.75 -0.03125 0.6875 -0.09375 C 0.625 -0.164062 0.59375 -0.273438 0.59375 -0.421875 L 0.59375 -1.765625 C 0.59375 -1.910156 0.625 -2.015625 0.6875 -2.078125 C 0.75 -2.148438 0.851562 -2.1875 1 -2.1875 L 4.109375 -2.1875 C 4.210938 -2.1875 4.289062 -2.21875 4.34375 -2.28125 C 4.394531 -2.34375 4.421875 -2.421875 4.421875 -2.515625 C 4.421875 -2.648438 4.394531 -2.75 4.34375 -2.8125 C 4.289062 -2.875 4.210938 -2.90625 4.109375 -2.90625 L 2.375 -3.15625 C 1.84375 -3.226562 1.410156 -3.40625 1.078125 -3.6875 C 0.753906 -3.96875 0.59375 -4.429688 0.59375 -5.078125 L 0.59375 -6.296875 C 0.59375 -6.941406 0.800781 -7.441406 1.21875 -7.796875 C 1.644531 -8.148438 2.234375 -8.328125 2.984375 -8.328125 L 6.21875 -8.328125 C 6.363281 -8.328125 6.46875 -8.289062 6.53125 -8.21875 C 6.601562 -8.15625 6.640625 -8.050781 6.640625 -7.90625 L 6.640625 -6.53125 C 6.640625 -6.382812 6.601562 -6.273438 6.53125 -6.203125 C 6.46875 -6.140625 6.363281 -6.109375 6.21875 -6.109375 L 3.53125 -6.109375 C 3.425781 -6.109375 3.347656 -6.078125 3.296875 -6.015625 C 3.242188 -5.953125 3.21875 -5.867188 3.21875 -5.765625 C 3.21875 -5.671875 3.242188 -5.585938 3.296875 -5.515625 C 3.347656 -5.441406 3.425781 -5.40625 3.53125 -5.40625 L 5.25 -5.171875 C 5.789062 -5.085938 6.222656 -4.90625 6.546875 -4.625 C 6.878906 -4.351562 7.046875 -3.894531 7.046875 -3.25 L 7.046875 -2.03125 C 7.046875 -1.375 6.832031 -0.867188 6.40625 -0.515625 C 5.976562 -0.171875 5.394531 0 4.65625 0 Z M 4.65625 0 "/></g></g></g><g fill="#0d4244" fill-opacity="0.502"><g transform="translate(120.908484, 36.435447)"><g><path d="M 1.03125 0 C 0.882812 0 0.773438 -0.03125 0.703125 -0.09375 C 0.640625 -0.164062 0.609375 -0.273438 0.609375 -0.421875 L 0.609375 -1.796875 C 0.609375 -1.941406 0.640625 -2.046875 0.703125 -2.109375 C 0.773438 -2.171875 0.882812 -2.203125 1.03125 -2.203125 L 2.171875 -2.203125 L 2.171875 -6.09375 L 1.03125 -6.09375 C 0.882812 -6.09375 0.773438 -6.125 0.703125 -6.1875 C 0.640625 -6.257812 0.609375 -6.367188 0.609375 -6.515625 L 0.609375 -7.90625 C 0.609375 -8.050781 0.640625 -8.15625 0.703125 -8.21875 C 0.773438 -8.289062 0.882812 -8.328125 1.03125 -8.328125 L 5.953125 -8.328125 C 6.097656 -8.328125 6.203125 -8.289062 6.265625 -8.21875 C 6.335938 -8.15625 6.375 -8.050781 6.375 -7.90625 L 6.375 -6.515625 C 6.375 -6.367188 6.335938 -6.257812 6.265625 -6.1875 C 6.203125 -6.125 6.097656 -6.09375 5.953125 -6.09375 L 4.828125 -6.09375 L 4.828125 -2.203125 L 5.953125 -2.203125 C 6.097656 -2.203125 6.203125 -2.171875 6.265625 -2.109375 C 6.335938 -2.046875 6.375 -1.941406 6.375 -1.796875 L 6.375 -0.421875 C 6.375 -0.273438 6.335938 -0.164062 6.265625 -0.09375 C 6.203125 -0.03125 6.097656 0 5.953125 0 Z M 1.03125 0 "/></g></g></g><g fill="#0d4244" fill-opacity="0.502"><g transform="translate(128.648131, 36.435447)"><g><path d="M 7.84375 -2.1875 C 7.84375 -1.832031 7.789062 -1.507812 7.6875 -1.21875 C 7.582031 -0.925781 7.394531 -0.675781 7.125 -0.46875 C 6.863281 -0.269531 6.5 -0.113281 6.03125 0 C 5.570312 0.113281 4.984375 0.171875 4.265625 0.171875 C 3.546875 0.171875 2.953125 0.113281 2.484375 0 C 2.015625 -0.113281 1.644531 -0.269531 1.375 -0.46875 C 1.113281 -0.675781 0.929688 -0.925781 0.828125 -1.21875 C 0.722656 -1.507812 0.671875 -1.832031 0.671875 -2.1875 L 0.671875 -6.125 C 0.671875 -6.476562 0.722656 -6.800781 0.828125 -7.09375 C 0.929688 -7.382812 1.113281 -7.632812 1.375 -7.84375 C 1.644531 -8.050781 2.015625 -8.210938 2.484375 -8.328125 C 2.953125 -8.441406 3.546875 -8.5 4.265625 -8.5 C 4.984375 -8.5 5.570312 -8.441406 6.03125 -8.328125 C 6.5 -8.210938 6.863281 -8.050781 7.125 -7.84375 C 7.394531 -7.632812 7.582031 -7.382812 7.6875 -7.09375 C 7.789062 -6.800781 7.84375 -6.476562 7.84375 -6.125 Z M 3.296875 -2.609375 C 3.296875 -2.453125 3.351562 -2.320312 3.46875 -2.21875 C 3.582031 -2.113281 3.847656 -2.0625 4.265625 -2.0625 C 4.679688 -2.0625 4.945312 -2.113281 5.0625 -2.21875 C 5.175781 -2.320312 5.234375 -2.453125 5.234375 -2.609375 L 5.234375 -5.71875 C 5.234375 -5.863281 5.175781 -5.988281 5.0625 -6.09375 C 4.945312 -6.195312 4.679688 -6.25 4.265625 -6.25 C 3.847656 -6.25 3.582031 -6.195312 3.46875 -6.09375 C 3.351562 -5.988281 3.296875 -5.863281 3.296875 -5.71875 Z M 3.296875 -2.609375 "/></g></g></g><g fill="#0d4244" fill-opacity="0.502"><g transform="translate(137.914876, 36.435447)"><g><path d="M 2.953125 0 L 1.21875 0 C 1.070312 0 0.960938 -0.03125 0.890625 -0.09375 C 0.828125 -0.164062 0.796875 -0.273438 0.796875 -0.421875 L 0.796875 -7.90625 C 0.796875 -8.050781 0.828125 -8.15625 0.890625 -8.21875 C 0.960938 -8.289062 1.070312 -8.328125 1.21875 -8.328125 L 2.421875 -8.328125 C 2.566406 -8.328125 2.691406 -8.300781 2.796875 -8.25 C 2.898438 -8.207031 3 -8.128906 3.09375 -8.015625 L 5.34375 -5.453125 L 5.34375 -7.90625 C 5.34375 -8.050781 5.375 -8.15625 5.4375 -8.21875 C 5.5 -8.289062 5.609375 -8.328125 5.765625 -8.328125 L 7.5 -8.328125 C 7.644531 -8.328125 7.75 -8.289062 7.8125 -8.21875 C 7.875 -8.15625 7.90625 -8.050781 7.90625 -7.90625 L 7.90625 -0.421875 C 7.90625 -0.273438 7.875 -0.164062 7.8125 -0.09375 C 7.75 -0.03125 7.644531 0 7.5 0 L 5.765625 0 C 5.609375 0 5.5 -0.03125 5.4375 -0.09375 C 5.375 -0.164062 5.34375 -0.273438 5.34375 -0.421875 L 5.34375 -1.84375 L 3.359375 -4.234375 L 3.359375 -0.421875 C 3.359375 -0.273438 3.328125 -0.164062 3.265625 -0.09375 C 3.203125 -0.03125 3.097656 0 2.953125 0 Z M 2.953125 0 "/></g></g></g><g fill="#0d4244" fill-opacity="0.502"><g transform="translate(147.366722, 36.435447)"><g><path d="M 4.65625 0 L 1 0 C 0.851562 0 0.75 -0.03125 0.6875 -0.09375 C 0.625 -0.164062 0.59375 -0.273438 0.59375 -0.421875 L 0.59375 -1.765625 C 0.59375 -1.910156 0.625 -2.015625 0.6875 -2.078125 C 0.75 -2.148438 0.851562 -2.1875 1 -2.1875 L 4.109375 -2.1875 C 4.210938 -2.1875 4.289062 -2.21875 4.34375 -2.28125 C 4.394531 -2.34375 4.421875 -2.421875 4.421875 -2.515625 C 4.421875 -2.648438 4.394531 -2.75 4.34375 -2.8125 C 4.289062 -2.875 4.210938 -2.90625 4.109375 -2.90625 L 2.375 -3.15625 C 1.84375 -3.226562 1.410156 -3.40625 1.078125 -3.6875 C 0.753906 -3.96875 0.59375 -4.429688 0.59375 -5.078125 L 0.59375 -6.296875 C 0.59375 -6.941406 0.800781 -7.441406 1.21875 -7.796875 C 1.644531 -8.148438 2.234375 -8.328125 2.984375 -8.328125 L 6.21875 -8.328125 C 6.363281 -8.328125 6.46875 -8.289062 6.53125 -8.21875 C 6.601562 -8.15625 6.640625 -8.050781 6.640625 -7.90625 L 6.640625 -6.53125 C 6.640625 -6.382812 6.601562 -6.273438 6.53125 -6.203125 C 6.46875 -6.140625 6.363281 -6.109375 6.21875 -6.109375 L 3.53125 -6.109375 C 3.425781 -6.109375 3.347656 -6.078125 3.296875 -6.015625 C 3.242188 -5.953125 3.21875 -5.867188 3.21875 -5.765625 C 3.21875 -5.671875 3.242188 -5.585938 3.296875 -5.515625 C 3.347656 -5.441406 3.425781 -5.40625 3.53125 -5.40625 L 5.25 -5.171875 C 5.789062 -5.085938 6.222656 -4.90625 6.546875 -4.625 C 6.878906 -4.351562 7.046875 -3.894531 7.046875 -3.25 L 7.046875 -2.03125 C 7.046875 -1.375 6.832031 -0.867188 6.40625 -0.515625 C 5.976562 -0.171875 5.394531 0 4.65625 0 Z M 4.65625 0 "/></g></g></g><g fill="#ffffff" fill-opacity="1"><g transform="translate(59.301451, 35.924148)"><g><path d="M 3 0 L 1.21875 0 C 1.070312 0 0.960938 -0.03125 0.890625 -0.09375 C 0.828125 -0.164062 0.796875 -0.273438 0.796875 -0.421875 L 0.796875 -7.90625 C 0.796875 -8.050781 0.828125 -8.15625 0.890625 -8.21875 C 0.960938 -8.289062 1.070312 -8.328125 1.21875 -8.328125 L 4.75 -8.328125 C 5.800781 -8.328125 6.519531 -8.117188 6.90625 -7.703125 C 7.289062 -7.285156 7.484375 -6.742188 7.484375 -6.078125 L 7.484375 -4.59375 C 7.484375 -3.914062 7.289062 -3.367188 6.90625 -2.953125 C 6.519531 -2.535156 5.800781 -2.328125 4.75 -2.328125 L 3.421875 -2.328125 L 3.421875 -0.421875 C 3.421875 -0.273438 3.382812 -0.164062 3.3125 -0.09375 C 3.25 -0.03125 3.144531 0 3 0 Z M 3.40625 -6.15625 L 3.40625 -4.421875 L 4.4375 -4.421875 C 4.664062 -4.421875 4.8125 -4.476562 4.875 -4.59375 C 4.945312 -4.707031 4.984375 -4.835938 4.984375 -4.984375 L 4.984375 -5.59375 C 4.984375 -5.738281 4.945312 -5.867188 4.875 -5.984375 C 4.8125 -6.097656 4.664062 -6.15625 4.4375 -6.15625 Z M 3.40625 -6.15625 "/></g></g></g><g fill="#ffffff" fill-opacity="1"><g transform="translate(67.931903, 35.924148)"><g><path d="M 6.578125 0 L 1.21875 0 C 1.070312 0 0.960938 -0.03125 0.890625 -0.09375 C 0.828125 -0.164062 0.796875 -0.273438 0.796875 -0.421875 L 0.796875 -7.90625 C 0.796875 -8.050781 0.828125 -8.15625 0.890625 -8.21875 C 0.960938 -8.289062 1.070312 -8.328125 1.21875 -8.328125 L 6.578125 -8.328125 C 6.722656 -8.328125 6.828125 -8.289062 6.890625 -8.21875 C 6.960938 -8.15625 7 -8.050781 7 -7.90625 L 7 -6.5625 C 7 -6.414062 6.960938 -6.304688 6.890625 -6.234375 C 6.828125 -6.171875 6.722656 -6.140625 6.578125 -6.140625 L 3.390625 -6.140625 L 3.390625 -5.25 L 5.640625 -5.25 C 5.785156 -5.25 5.890625 -5.210938 5.953125 -5.140625 C 6.023438 -5.078125 6.0625 -4.972656 6.0625 -4.828125 L 6.0625 -3.59375 C 6.0625 -3.445312 6.023438 -3.34375 5.953125 -3.28125 C 5.890625 -3.21875 5.785156 -3.1875 5.640625 -3.1875 L 3.390625 -3.1875 L 3.390625 -2.1875 L 6.578125 -2.1875 C 6.722656 -2.1875 6.828125 -2.148438 6.890625 -2.078125 C 6.960938 -2.015625 7 -1.910156 7 -1.765625 L 7 -0.421875 C 7 -0.273438 6.960938 -0.164062 6.890625 -0.09375 C 6.828125 -0.03125 6.722656 0 6.578125 0 Z M 6.578125 0 "/></g></g></g><g fill="#ffffff" fill-opacity="1"><g transform="translate(76.238425, 35.924148)"><g><path d="M 3.40625 -6.25 L 3.40625 -4.765625 L 4.28125 -4.765625 C 4.476562 -4.765625 4.609375 -4.816406 4.671875 -4.921875 C 4.742188 -5.023438 4.78125 -5.15625 4.78125 -5.3125 L 4.78125 -5.703125 C 4.78125 -5.859375 4.742188 -5.988281 4.671875 -6.09375 C 4.609375 -6.195312 4.476562 -6.25 4.28125 -6.25 Z M 3 0 L 1.21875 0 C 1.070312 0 0.960938 -0.03125 0.890625 -0.09375 C 0.828125 -0.164062 0.796875 -0.273438 0.796875 -0.421875 L 0.796875 -7.90625 C 0.796875 -8.050781 0.828125 -8.15625 0.890625 -8.21875 C 0.960938 -8.289062 1.070312 -8.328125 1.21875 -8.328125 L 5.0625 -8.328125 C 5.925781 -8.328125 6.519531 -8.144531 6.84375 -7.78125 C 7.175781 -7.425781 7.34375 -6.960938 7.34375 -6.390625 L 7.34375 -5.859375 C 7.34375 -5.535156 7.289062 -5.257812 7.1875 -5.03125 C 7.09375 -4.800781 6.925781 -4.640625 6.6875 -4.546875 C 7.101562 -4.492188 7.441406 -4.320312 7.703125 -4.03125 C 7.960938 -3.738281 8.09375 -3.351562 8.09375 -2.875 L 8.09375 -0.421875 C 8.09375 -0.273438 8.054688 -0.164062 7.984375 -0.09375 C 7.921875 -0.03125 7.816406 0 7.671875 0 L 5.890625 0 C 5.742188 0 5.632812 -0.03125 5.5625 -0.09375 C 5.5 -0.164062 5.46875 -0.273438 5.46875 -0.421875 L 5.46875 -2.1875 C 5.46875 -2.351562 5.429688 -2.476562 5.359375 -2.5625 C 5.296875 -2.644531 5.1875 -2.6875 5.03125 -2.6875 L 3.40625 -2.6875 L 3.40625 -0.421875 C 3.40625 -0.273438 3.375 -0.164062 3.3125 -0.09375 C 3.25 -0.03125 3.144531 0 3 0 Z M 3 0 "/></g></g></g><g fill="#ffffff" fill-opacity="1"><g transform="translate(85.574582, 35.924148)"><g><path d="M 2.9375 0 L 1.21875 0 C 1.070312 0 0.960938 -0.03125 0.890625 -0.09375 C 0.828125 -0.164062 0.796875 -0.273438 0.796875 -0.421875 L 0.796875 -7.90625 C 0.796875 -8.050781 0.828125 -8.15625 0.890625 -8.21875 C 0.960938 -8.289062 1.070312 -8.328125 1.21875 -8.328125 L 3.078125 -8.328125 C 3.203125 -8.328125 3.300781 -8.296875 3.375 -8.234375 C 3.457031 -8.179688 3.535156 -8.097656 3.609375 -7.984375 L 4.640625 -6.09375 C 4.679688 -6.019531 4.710938 -5.96875 4.734375 -5.9375 C 4.765625 -5.90625 4.804688 -5.890625 4.859375 -5.890625 L 4.953125 -5.890625 C 5.003906 -5.890625 5.039062 -5.90625 5.0625 -5.9375 C 5.09375 -5.96875 5.128906 -6.019531 5.171875 -6.09375 L 6.203125 -7.984375 C 6.265625 -8.097656 6.335938 -8.179688 6.421875 -8.234375 C 6.503906 -8.296875 6.609375 -8.328125 6.734375 -8.328125 L 8.609375 -8.328125 C 8.753906 -8.328125 8.859375 -8.289062 8.921875 -8.21875 C 8.984375 -8.15625 9.015625 -8.050781 9.015625 -7.90625 L 9.015625 -0.421875 C 9.015625 -0.273438 8.984375 -0.164062 8.921875 -0.09375 C 8.859375 -0.03125 8.753906 0 8.609375 0 L 6.828125 0 C 6.679688 0 6.570312 -0.03125 6.5 -0.09375 C 6.4375 -0.164062 6.40625 -0.273438 6.40625 -0.421875 L 6.40625 -4.484375 L 5.71875 -3.21875 C 5.65625 -3.09375 5.570312 -3 5.46875 -2.9375 C 5.375 -2.882812 5.253906 -2.859375 5.109375 -2.859375 L 4.640625 -2.859375 C 4.492188 -2.859375 4.375 -2.882812 4.28125 -2.9375 C 4.1875 -3 4.101562 -3.09375 4.03125 -3.21875 L 3.359375 -4.484375 L 3.359375 -0.421875 C 3.359375 -0.273438 3.320312 -0.164062 3.25 -0.09375 C 3.1875 -0.03125 3.082031 0 2.9375 0 Z M 2.9375 0 "/></g></g></g><g fill="#ffffff" fill-opacity="1"><g transform="translate(96.137046, 35.924148)"><g><path d="M 1.03125 0 C 0.882812 0 0.773438 -0.03125 0.703125 -0.09375 C 0.640625 -0.164062 0.609375 -0.273438 0.609375 -0.421875 L 0.609375 -1.796875 C 0.609375 -1.941406 0.640625 -2.046875 0.703125 -2.109375 C 0.773438 -2.171875 0.882812 -2.203125 1.03125 -2.203125 L 2.171875 -2.203125 L 2.171875 -6.09375 L 1.03125 -6.09375 C 0.882812 -6.09375 0.773438 -6.125 0.703125 -6.1875 C 0.640625 -6.257812 0.609375 -6.367188 0.609375 -6.515625 L 0.609375 -7.90625 C 0.609375 -8.050781 0.640625 -8.15625 0.703125 -8.21875 C 0.773438 -8.289062 0.882812 -8.328125 1.03125 -8.328125 L 5.953125 -8.328125 C 6.097656 -8.328125 6.203125 -8.289062 6.265625 -8.21875 C 6.335938 -8.15625 6.375 -8.050781 6.375 -7.90625 L 6.375 -6.515625 C 6.375 -6.367188 6.335938 -6.257812 6.265625 -6.1875 C 6.203125 -6.125 6.097656 -6.09375 5.953125 -6.09375 L 4.828125 -6.09375 L 4.828125 -2.203125 L 5.953125 -2.203125 C 6.097656 -2.203125 6.203125 -2.171875 6.265625 -2.109375 C 6.335938 -2.046875 6.375 -1.941406 6.375 -1.796875 L 6.375 -0.421875 C 6.375 -0.273438 6.335938 -0.164062 6.265625 -0.09375 C 6.203125 -0.03125 6.097656 0 5.953125 0 Z M 1.03125 0 "/></g></g></g><g fill="#ffffff" fill-opacity="1"><g transform="translate(103.876692, 35.924148)"><g><path d="M 4.65625 0 L 1 0 C 0.851562 0 0.75 -0.03125 0.6875 -0.09375 C 0.625 -0.164062 0.59375 -0.273438 0.59375 -0.421875 L 0.59375 -1.765625 C 0.59375 -1.910156 0.625 -2.015625 0.6875 -2.078125 C 0.75 -2.148438 0.851562 -2.1875 1 -2.1875 L 4.109375 -2.1875 C 4.210938 -2.1875 4.289062 -2.21875 4.34375 -2.28125 C 4.394531 -2.34375 4.421875 -2.421875 4.421875 -2.515625 C 4.421875 -2.648438 4.394531 -2.75 4.34375 -2.8125 C 4.289062 -2.875 4.210938 -2.90625 4.109375 -2.90625 L 2.375 -3.15625 C 1.84375 -3.226562 1.410156 -3.40625 1.078125 -3.6875 C 0.753906 -3.96875 0.59375 -4.429688 0.59375 -5.078125 L 0.59375 -6.296875 C 0.59375 -6.941406 0.800781 -7.441406 1.21875 -7.796875 C 1.644531 -8.148438 2.234375 -8.328125 2.984375 -8.328125 L 6.21875 -8.328125 C 6.363281 -8.328125 6.46875 -8.289062 6.53125 -8.21875 C 6.601562 -8.15625 6.640625 -8.050781 6.640625 -7.90625 L 6.640625 -6.53125 C 6.640625 -6.382812 6.601562 -6.273438 6.53125 -6.203125 C 6.46875 -6.140625 6.363281 -6.109375 6.21875 -6.109375 L 3.53125 -6.109375 C 3.425781 -6.109375 3.347656 -6.078125 3.296875 -6.015625 C 3.242188 -5.953125 3.21875 -5.867188 3.21875 -5.765625 C 3.21875 -5.671875 3.242188 -5.585938 3.296875 -5.515625 C 3.347656 -5.441406 3.425781 -5.40625 3.53125 -5.40625 L 5.25 -5.171875 C 5.789062 -5.085938 6.222656 -4.90625 6.546875 -4.625 C 6.878906 -4.351562 7.046875 -3.894531 7.046875 -3.25 L 7.046875 -2.03125 C 7.046875 -1.375 6.832031 -0.867188 6.40625 -0.515625 C 5.976562 -0.171875 5.394531 0 4.65625 0 Z M 4.65625 0 "/></g></g></g><g fill="#ffffff" fill-opacity="1"><g transform="translate(112.13694, 35.924148)"><g><path d="M 4.65625 0 L 1 0 C 0.851562 0 0.75 -0.03125 0.6875 -0.09375 C 0.625 -0.164062 0.59375 -0.273438 0.59375 -0.421875 L 0.59375 -1.765625 C 0.59375 -1.910156 0.625 -2.015625 0.6875 -2.078125 C 0.75 -2.148438 0.851562 -2.1875 1 -2.1875 L 4.109375 -2.1875 C 4.210938 -2.1875 4.289062 -2.21875 4.34375 -2.28125 C 4.394531 -2.34375 4.421875 -2.421875 4.421875 -2.515625 C 4.421875 -2.648438 4.394531 -2.75 4.34375 -2.8125 C 4.289062 -2.875 4.210938 -2.90625 4.109375 -2.90625 L 2.375 -3.15625 C 1.84375 -3.226562 1.410156 -3.40625 1.078125 -3.6875 C 0.753906 -3.96875 0.59375 -4.429688 0.59375 -5.078125 L 0.59375 -6.296875 C 0.59375 -6.941406 0.800781 -7.441406 1.21875 -7.796875 C 1.644531 -8.148438 2.234375 -8.328125 2.984375 -8.328125 L 6.21875 -8.328125 C 6.363281 -8.328125 6.46875 -8.289062 6.53125 -8.21875 C 6.601562 -8.15625 6.640625 -8.050781 6.640625 -7.90625 L 6.640625 -6.53125 C 6.640625 -6.382812 6.601562 -6.273438 6.53125 -6.203125 C 6.46875 -6.140625 6.363281 -6.109375 6.21875 -6.109375 L 3.53125 -6.109375 C 3.425781 -6.109375 3.347656 -6.078125 3.296875 -6.015625 C 3.242188 -5.953125 3.21875 -5.867188 3.21875 -5.765625 C 3.21875 -5.671875 3.242188 -5.585938 3.296875 -5.515625 C 3.347656 -5.441406 3.425781 -5.40625 3.53125 -5.40625 L 5.25 -5.171875 C 5.789062 -5.085938 6.222656 -4.90625 6.546875 -4.625 C 6.878906 -4.351562 7.046875 -3.894531 7.046875 -3.25 L 7.046875 -2.03125 C 7.046875 -1.375 6.832031 -0.867188 6.40625 -0.515625 C 5.976562 -0.171875 5.394531 0 4.65625 0 Z M 4.65625 0 "/></g></g></g><g fill="#ffffff" fill-opacity="1"><g transform="translate(120.397188, 35.924148)"><g><path d="M 1.03125 0 C 0.882812 0 0.773438 -0.03125 0.703125 -0.09375 C 0.640625 -0.164062 0.609375 -0.273438 0.609375 -0.421875 L 0.609375 -1.796875 C 0.609375 -1.941406 0.640625 -2.046875 0.703125 -2.109375 C 0.773438 -2.171875 0.882812 -2.203125 1.03125 -2.203125 L 2.171875 -2.203125 L 2.171875 -6.09375 L 1.03125 -6.09375 C 0.882812 -6.09375 0.773438 -6.125 0.703125 -6.1875 C 0.640625 -6.257812 0.609375 -6.367188 0.609375 -6.515625 L 0.609375 -7.90625 C 0.609375 -8.050781 0.640625 -8.15625 0.703125 -8.21875 C 0.773438 -8.289062 0.882812 -8.328125 1.03125 -8.328125 L 5.953125 -8.328125 C 6.097656 -8.328125 6.203125 -8.289062 6.265625 -8.21875 C 6.335938 -8.15625 6.375 -8.050781 6.375 -7.90625 L 6.375 -6.515625 C 6.375 -6.367188 6.335938 -6.257812 6.265625 -6.1875 C 6.203125 -6.125 6.097656 -6.09375 5.953125 -6.09375 L 4.828125 -6.09375 L 4.828125 -2.203125 L 5.953125 -2.203125 C 6.097656 -2.203125 6.203125 -2.171875 6.265625 -2.109375 C 6.335938 -2.046875 6.375 -1.941406 6.375 -1.796875 L 6.375 -0.421875 C 6.375 -0.273438 6.335938 -0.164062 6.265625 -0.09375 C 6.203125 -0.03125 6.097656 0 5.953125 0 Z M 1.03125 0 "/></g></g></g><g fill="#ffffff" fill-opacity="1"><g transform="translate(128.136834, 35.924148)"><g><path d="M 7.84375 -2.1875 C 7.84375 -1.832031 7.789062 -1.507812 7.6875 -1.21875 C 7.582031 -0.925781 7.394531 -0.675781 7.125 -0.46875 C 6.863281 -0.269531 6.5 -0.113281 6.03125 0 C 5.570312 0.113281 4.984375 0.171875 4.265625 0.171875 C 3.546875 0.171875 2.953125 0.113281 2.484375 0 C 2.015625 -0.113281 1.644531 -0.269531 1.375 -0.46875 C 1.113281 -0.675781 0.929688 -0.925781 0.828125 -1.21875 C 0.722656 -1.507812 0.671875 -1.832031 0.671875 -2.1875 L 0.671875 -6.125 C 0.671875 -6.476562 0.722656 -6.800781 0.828125 -7.09375 C 0.929688 -7.382812 1.113281 -7.632812 1.375 -7.84375 C 1.644531 -8.050781 2.015625 -8.210938 2.484375 -8.328125 C 2.953125 -8.441406 3.546875 -8.5 4.265625 -8.5 C 4.984375 -8.5 5.570312 -8.441406 6.03125 -8.328125 C 6.5 -8.210938 6.863281 -8.050781 7.125 -7.84375 C 7.394531 -7.632812 7.582031 -7.382812 7.6875 -7.09375 C 7.789062 -6.800781 7.84375 -6.476562 7.84375 -6.125 Z M 3.296875 -2.609375 C 3.296875 -2.453125 3.351562 -2.320312 3.46875 -2.21875 C 3.582031 -2.113281 3.847656 -2.0625 4.265625 -2.0625 C 4.679688 -2.0625 4.945312 -2.113281 5.0625 -2.21875 C 5.175781 -2.320312 5.234375 -2.453125 5.234375 -2.609375 L 5.234375 -5.71875 C 5.234375 -5.863281 5.175781 -5.988281 5.0625 -6.09375 C 4.945312 -6.195312 4.679688 -6.25 4.265625 -6.25 C 3.847656 -6.25 3.582031 -6.195312 3.46875 -6.09375 C 3.351562 -5.988281 3.296875 -5.863281 3.296875 -5.71875 Z M 3.296875 -2.609375 "/></g></g></g><g fill="#ffffff" fill-opacity="1"><g transform="translate(137.403579, 35.924148)"><g><path d="M 2.953125 0 L 1.21875 0 C 1.070312 0 0.960938 -0.03125 0.890625 -0.09375 C 0.828125 -0.164062 0.796875 -0.273438 0.796875 -0.421875 L 0.796875 -7.90625 C 0.796875 -8.050781 0.828125 -8.15625 0.890625 -8.21875 C 0.960938 -8.289062 1.070312 -8.328125 1.21875 -8.328125 L 2.421875 -8.328125 C 2.566406 -8.328125 2.691406 -8.300781 2.796875 -8.25 C 2.898438 -8.207031 3 -8.128906 3.09375 -8.015625 L 5.34375 -5.453125 L 5.34375 -7.90625 C 5.34375 -8.050781 5.375 -8.15625 5.4375 -8.21875 C 5.5 -8.289062 5.609375 -8.328125 5.765625 -8.328125 L 7.5 -8.328125 C 7.644531 -8.328125 7.75 -8.289062 7.8125 -8.21875 C 7.875 -8.15625 7.90625 -8.050781 7.90625 -7.90625 L 7.90625 -0.421875 C 7.90625 -0.273438 7.875 -0.164062 7.8125 -0.09375 C 7.75 -0.03125 7.644531 0 7.5 0 L 5.765625 0 C 5.609375 0 5.5 -0.03125 5.4375 -0.09375 C 5.375 -0.164062 5.34375 -0.273438 5.34375 -0.421875 L 5.34375 -1.84375 L 3.359375 -4.234375 L 3.359375 -0.421875 C 3.359375 -0.273438 3.328125 -0.164062 3.265625 -0.09375 C 3.203125 -0.03125 3.097656 0 2.953125 0 Z M 2.953125 0 "/></g></g></g><g fill="#ffffff" fill-opacity="1"><g transform="translate(146.855426, 35.924148)"><g><path d="M 4.65625 0 L 1 0 C 0.851562 0 0.75 -0.03125 0.6875 -0.09375 C 0.625 -0.164062 0.59375 -0.273438 0.59375 -0.421875 L 0.59375 -1.765625 C 0.59375 -1.910156 0.625 -2.015625 0.6875 -2.078125 C 0.75 -2.148438 0.851562 -2.1875 1 -2.1875 L 4.109375 -2.1875 C 4.210938 -2.1875 4.289062 -2.21875 4.34375 -2.28125 C 4.394531 -2.34375 4.421875 -2.421875 4.421875 -2.515625 C 4.421875 -2.648438 4.394531 -2.75 4.34375 -2.8125 C 4.289062 -2.875 4.210938 -2.90625 4.109375 -2.90625 L 2.375 -3.15625 C 1.84375 -3.226562 1.410156 -3.40625 1.078125 -3.6875 C 0.753906 -3.96875 0.59375 -4.429688 0.59375 -5.078125 L 0.59375 -6.296875 C 0.59375 -6.941406 0.800781 -7.441406 1.21875 -7.796875 C 1.644531 -8.148438 2.234375 -8.328125 2.984375 -8.328125 L 6.21875 -8.328125 C 6.363281 -8.328125 6.46875 -8.289062 6.53125 -8.21875 C 6.601562 -8.15625 6.640625 -8.050781 6.640625 -7.90625 L 6.640625 -6.53125 C 6.640625 -6.382812 6.601562 -6.273438 6.53125 -6.203125 C 6.46875 -6.140625 6.363281 -6.109375 6.21875 -6.109375 L 3.53125 -6.109375 C 3.425781 -6.109375 3.347656 -6.078125 3.296875 -6.015625 C 3.242188 -5.953125 3.21875 -5.867188 3.21875 -5.765625 C 3.21875 -5.671875 3.242188 -5.585938 3.296875 -5.515625 C 3.347656 -5.441406 3.425781 -5.40625 3.53125 -5.40625 L 5.25 -5.171875 C 5.789062 -5.085938 6.222656 -4.90625 6.546875 -4.625 C 6.878906 -4.351562 7.046875 -3.894531 7.046875 -3.25 L 7.046875 -2.03125 C 7.046875 -1.375 6.832031 -0.867188 6.40625 -0.515625 C 5.976562 -0.171875 5.394531 0 4.65625 0 Z M 4.65625 0 "/></g></g></g></svg>