<svg xmlns="http://www.w3.org/2000/svg" xmlns:xlink="http://www.w3.org/1999/xlink" width="600" zoomAndPan="magnify" viewBox="0 0 450 74.999997" height="100" preserveAspectRatio="xMidYMid meet" version="1.0"><defs><g/><clipPath id="245641f71c"><path d="M 2.644531 2.871094 L 447.589844 2.871094 L 447.589844 72.789062 L 2.644531 72.789062 Z M 2.644531 2.871094 " clip-rule="nonzero"/></clipPath><clipPath id="4c8abea910"><path d="M 11.644531 2.871094 L 438.589844 2.871094 C 443.5625 2.871094 447.589844 6.902344 447.589844 11.871094 L 447.589844 63.789062 C 447.589844 68.761719 443.5625 72.789062 438.589844 72.789062 L 11.644531 72.789062 C 6.671875 72.789062 2.644531 68.761719 2.644531 63.789062 L 2.644531 11.871094 C 2.644531 6.902344 6.671875 2.871094 11.644531 2.871094 Z M 11.644531 2.871094 " clip-rule="nonzero"/></clipPath><clipPath id="2d4a115c55"><path d="M 49 15.902344 L 83.078125 15.902344 L 83.078125 53 L 49 53 Z M 49 15.902344 " clip-rule="nonzero"/></clipPath><clipPath id="fa60bebbff"><path d="M 12.578125 15.902344 L 47 15.902344 L 47 53 L 12.578125 53 Z M 12.578125 15.902344 " clip-rule="nonzero"/></clipPath><clipPath id="13c2e18db7"><path d="M 29 21 L 66 21 L 66 59.402344 L 29 59.402344 Z M 29 21 " clip-rule="nonzero"/></clipPath></defs><g clip-path="url(#245641f71c)"><g clip-path="url(#4c8abea910)"><path fill="#5ce1e6" d="M 2.644531 2.871094 L 447.589844 2.871094 L 447.589844 72.789062 L 2.644531 72.789062 Z M 2.644531 2.871094 " fill-opacity="1" fill-rule="nonzero"/></g></g><g fill="#0d4244" fill-opacity="0.302"><g transform="translate(93.326793, 52.47183)"><g><path d="M 9.125 0 L 3.6875 0 C 3.238281 0 2.914062 -0.0976562 2.71875 -0.296875 C 2.519531 -0.492188 2.421875 -0.816406 2.421875 -1.265625 L 2.421875 -24 C 2.421875 -24.4375 2.519531 -24.753906 2.71875 -24.953125 C 2.914062 -25.148438 3.238281 -25.25 3.6875 -25.25 L 14.421875 -25.25 C 17.597656 -25.25 19.769531 -24.617188 20.9375 -23.359375 C 22.113281 -22.097656 22.703125 -20.453125 22.703125 -18.421875 L 22.703125 -13.921875 C 22.703125 -11.890625 22.113281 -10.238281 20.9375 -8.96875 C 19.769531 -7.707031 17.597656 -7.078125 14.421875 -7.078125 L 10.390625 -7.078125 L 10.390625 -1.265625 C 10.390625 -0.816406 10.285156 -0.492188 10.078125 -0.296875 C 9.878906 -0.0976562 9.5625 0 9.125 0 Z M 10.3125 -18.703125 L 10.3125 -13.40625 L 13.46875 -13.40625 C 14.144531 -13.40625 14.585938 -13.578125 14.796875 -13.921875 C 15.015625 -14.273438 15.125 -14.675781 15.125 -15.125 L 15.125 -16.984375 C 15.125 -17.421875 15.015625 -17.816406 14.796875 -18.171875 C 14.585938 -18.523438 14.144531 -18.703125 13.46875 -18.703125 Z M 10.3125 -18.703125 "/></g></g></g><g fill="#0d4244" fill-opacity="0.302"><g transform="translate(119.492599, 52.47183)"><g><path d="M 19.953125 0 L 3.6875 0 C 3.238281 0 2.914062 -0.0976562 2.71875 -0.296875 C 2.519531 -0.492188 2.421875 -0.816406 2.421875 -1.265625 L 2.421875 -24 C 2.421875 -24.4375 2.519531 -24.753906 2.71875 -24.953125 C 2.914062 -25.148438 3.238281 -25.25 3.6875 -25.25 L 19.953125 -25.25 C 20.398438 -25.25 20.722656 -25.148438 20.921875 -24.953125 C 21.117188 -24.753906 21.21875 -24.4375 21.21875 -24 L 21.21875 -19.890625 C 21.21875 -19.441406 21.117188 -19.117188 20.921875 -18.921875 C 20.722656 -18.722656 20.398438 -18.625 19.953125 -18.625 L 10.28125 -18.625 L 10.28125 -15.921875 L 17.125 -15.921875 C 17.5625 -15.921875 17.878906 -15.820312 18.078125 -15.625 C 18.273438 -15.425781 18.375 -15.101562 18.375 -14.65625 L 18.375 -10.90625 C 18.375 -10.46875 18.273438 -10.144531 18.078125 -9.9375 C 17.878906 -9.738281 17.5625 -9.640625 17.125 -9.640625 L 10.28125 -9.640625 L 10.28125 -6.625 L 19.953125 -6.625 C 20.398438 -6.625 20.722656 -6.523438 20.921875 -6.328125 C 21.117188 -6.128906 21.21875 -5.804688 21.21875 -5.359375 L 21.21875 -1.265625 C 21.21875 -0.816406 21.117188 -0.492188 20.921875 -0.296875 C 20.722656 -0.0976562 20.398438 0 19.953125 0 Z M 19.953125 0 "/></g></g></g><g fill="#0d4244" fill-opacity="0.302"><g transform="translate(144.676331, 52.47183)"><g><path d="M 10.34375 -18.9375 L 10.34375 -14.453125 L 12.984375 -14.453125 C 13.585938 -14.453125 13.992188 -14.609375 14.203125 -14.921875 C 14.410156 -15.242188 14.515625 -15.632812 14.515625 -16.09375 L 14.515625 -17.296875 C 14.515625 -17.765625 14.410156 -18.15625 14.203125 -18.46875 C 13.992188 -18.78125 13.585938 -18.9375 12.984375 -18.9375 Z M 9.078125 0 L 3.6875 0 C 3.238281 0 2.914062 -0.0976562 2.71875 -0.296875 C 2.519531 -0.492188 2.421875 -0.816406 2.421875 -1.265625 L 2.421875 -24 C 2.421875 -24.4375 2.519531 -24.753906 2.71875 -24.953125 C 2.914062 -25.148438 3.238281 -25.25 3.6875 -25.25 L 15.359375 -25.25 C 17.984375 -25.25 19.789062 -24.707031 20.78125 -23.625 C 21.78125 -22.539062 22.28125 -21.128906 22.28125 -19.390625 L 22.28125 -17.78125 C 22.28125 -16.800781 22.128906 -15.960938 21.828125 -15.265625 C 21.535156 -14.578125 21.03125 -14.082031 20.3125 -13.78125 C 21.570312 -13.644531 22.59375 -13.128906 23.375 -12.234375 C 24.15625 -11.347656 24.546875 -10.171875 24.546875 -8.703125 L 24.546875 -1.265625 C 24.546875 -0.816406 24.445312 -0.492188 24.25 -0.296875 C 24.050781 -0.0976562 23.734375 0 23.296875 0 L 17.859375 0 C 17.410156 0 17.085938 -0.0976562 16.890625 -0.296875 C 16.691406 -0.492188 16.59375 -0.816406 16.59375 -1.265625 L 16.59375 -6.625 C 16.59375 -7.144531 16.492188 -7.523438 16.296875 -7.765625 C 16.097656 -8.015625 15.753906 -8.140625 15.265625 -8.140625 L 10.34375 -8.140625 L 10.34375 -1.265625 C 10.34375 -0.816406 10.242188 -0.492188 10.046875 -0.296875 C 9.847656 -0.0976562 9.523438 0 9.078125 0 Z M 9.078125 0 "/></g></g></g><g fill="#0d4244" fill-opacity="0.302"><g transform="translate(172.981659, 52.47183)"><g><path d="M 8.90625 0 L 3.6875 0 C 3.238281 0 2.914062 -0.0976562 2.71875 -0.296875 C 2.519531 -0.492188 2.421875 -0.816406 2.421875 -1.265625 L 2.421875 -24 C 2.421875 -24.4375 2.519531 -24.753906 2.71875 -24.953125 C 2.914062 -25.148438 3.238281 -25.25 3.6875 -25.25 L 9.328125 -25.25 C 9.703125 -25.25 10.007812 -25.164062 10.25 -25 C 10.5 -24.84375 10.726562 -24.578125 10.9375 -24.203125 L 14.09375 -18.484375 C 14.21875 -18.273438 14.316406 -18.125 14.390625 -18.03125 C 14.472656 -17.9375 14.585938 -17.890625 14.734375 -17.890625 L 15.046875 -17.890625 C 15.191406 -17.890625 15.300781 -17.9375 15.375 -18.03125 C 15.457031 -18.125 15.5625 -18.273438 15.6875 -18.484375 L 18.796875 -24.203125 C 19.015625 -24.578125 19.242188 -24.84375 19.484375 -25 C 19.734375 -25.164062 20.046875 -25.25 20.421875 -25.25 L 26.09375 -25.25 C 26.539062 -25.25 26.863281 -25.148438 27.0625 -24.953125 C 27.257812 -24.753906 27.359375 -24.4375 27.359375 -24 L 27.359375 -1.265625 C 27.359375 -0.816406 27.257812 -0.492188 27.0625 -0.296875 C 26.863281 -0.0976562 26.539062 0 26.09375 0 L 20.703125 0 C 20.253906 0 19.929688 -0.0976562 19.734375 -0.296875 C 19.535156 -0.492188 19.4375 -0.816406 19.4375 -1.265625 L 19.4375 -13.609375 L 17.359375 -9.78125 C 17.148438 -9.382812 16.898438 -9.097656 16.609375 -8.921875 C 16.316406 -8.753906 15.945312 -8.671875 15.5 -8.671875 L 14.09375 -8.671875 C 13.65625 -8.671875 13.289062 -8.753906 13 -8.921875 C 12.707031 -9.097656 12.457031 -9.382812 12.25 -9.78125 L 10.171875 -13.609375 L 10.171875 -1.265625 C 10.171875 -0.816406 10.070312 -0.492188 9.875 -0.296875 C 9.675781 -0.0976562 9.351562 0 8.90625 0 Z M 8.90625 0 "/></g></g></g><g fill="#0d4244" fill-opacity="0.302"><g transform="translate(205.004846, 52.47183)"><g><path d="M 3.125 0 C 2.675781 0 2.351562 -0.0976562 2.15625 -0.296875 C 1.957031 -0.492188 1.859375 -0.816406 1.859375 -1.265625 L 1.859375 -5.4375 C 1.859375 -5.882812 1.957031 -6.207031 2.15625 -6.40625 C 2.351562 -6.601562 2.675781 -6.703125 3.125 -6.703125 L 6.59375 -6.703125 L 6.59375 -18.484375 L 3.125 -18.484375 C 2.675781 -18.484375 2.351562 -18.582031 2.15625 -18.78125 C 1.957031 -18.976562 1.859375 -19.300781 1.859375 -19.75 L 1.859375 -24 C 1.859375 -24.4375 1.957031 -24.753906 2.15625 -24.953125 C 2.351562 -25.148438 2.675781 -25.25 3.125 -25.25 L 18.0625 -25.25 C 18.507812 -25.25 18.832031 -25.148438 19.03125 -24.953125 C 19.226562 -24.753906 19.328125 -24.4375 19.328125 -24 L 19.328125 -19.75 C 19.328125 -19.300781 19.226562 -18.976562 19.03125 -18.78125 C 18.832031 -18.582031 18.507812 -18.484375 18.0625 -18.484375 L 14.65625 -18.484375 L 14.65625 -6.703125 L 18.0625 -6.703125 C 18.507812 -6.703125 18.832031 -6.601562 19.03125 -6.40625 C 19.226562 -6.207031 19.328125 -5.882812 19.328125 -5.4375 L 19.328125 -1.265625 C 19.328125 -0.816406 19.226562 -0.492188 19.03125 -0.296875 C 18.832031 -0.0976562 18.507812 0 18.0625 0 Z M 3.125 0 "/></g></g></g><g fill="#0d4244" fill-opacity="0.302"><g transform="translate(228.469936, 52.47183)"><g><path d="M 14.140625 0 L 3.046875 0 C 2.609375 0 2.285156 -0.0976562 2.078125 -0.296875 C 1.878906 -0.492188 1.78125 -0.816406 1.78125 -1.265625 L 1.78125 -5.359375 C 1.78125 -5.804688 1.878906 -6.128906 2.078125 -6.328125 C 2.285156 -6.523438 2.609375 -6.625 3.046875 -6.625 L 12.484375 -6.625 C 12.785156 -6.625 13.015625 -6.722656 13.171875 -6.921875 C 13.328125 -7.117188 13.40625 -7.359375 13.40625 -7.640625 C 13.40625 -8.046875 13.328125 -8.335938 13.171875 -8.515625 C 13.015625 -8.703125 12.785156 -8.8125 12.484375 -8.84375 L 7.21875 -9.578125 C 5.582031 -9.804688 4.265625 -10.34375 3.265625 -11.1875 C 2.273438 -12.03125 1.78125 -13.4375 1.78125 -15.40625 L 1.78125 -19.078125 C 1.78125 -21.066406 2.421875 -22.59375 3.703125 -23.65625 C 4.992188 -24.71875 6.773438 -25.25 9.046875 -25.25 L 18.875 -25.25 C 19.3125 -25.25 19.628906 -25.148438 19.828125 -24.953125 C 20.035156 -24.753906 20.140625 -24.4375 20.140625 -24 L 20.140625 -19.8125 C 20.140625 -19.375 20.035156 -19.054688 19.828125 -18.859375 C 19.628906 -18.660156 19.3125 -18.5625 18.875 -18.5625 L 10.703125 -18.5625 C 10.398438 -18.5625 10.164062 -18.457031 10 -18.25 C 9.832031 -18.050781 9.75 -17.800781 9.75 -17.5 C 9.75 -17.195312 9.832031 -16.941406 10 -16.734375 C 10.164062 -16.523438 10.398438 -16.40625 10.703125 -16.375 L 15.921875 -15.6875 C 17.554688 -15.445312 18.875 -14.90625 19.875 -14.0625 C 20.882812 -13.21875 21.390625 -11.816406 21.390625 -9.859375 L 21.390625 -6.171875 C 21.390625 -4.179688 20.738281 -2.65625 19.4375 -1.59375 C 18.144531 -0.53125 16.378906 0 14.140625 0 Z M 14.140625 0 "/></g></g></g><g fill="#0d4244" fill-opacity="0.302"><g transform="translate(253.51336, 52.47183)"><g><path d="M 14.140625 0 L 3.046875 0 C 2.609375 0 2.285156 -0.0976562 2.078125 -0.296875 C 1.878906 -0.492188 1.78125 -0.816406 1.78125 -1.265625 L 1.78125 -5.359375 C 1.78125 -5.804688 1.878906 -6.128906 2.078125 -6.328125 C 2.285156 -6.523438 2.609375 -6.625 3.046875 -6.625 L 12.484375 -6.625 C 12.785156 -6.625 13.015625 -6.722656 13.171875 -6.921875 C 13.328125 -7.117188 13.40625 -7.359375 13.40625 -7.640625 C 13.40625 -8.046875 13.328125 -8.335938 13.171875 -8.515625 C 13.015625 -8.703125 12.785156 -8.8125 12.484375 -8.84375 L 7.21875 -9.578125 C 5.582031 -9.804688 4.265625 -10.34375 3.265625 -11.1875 C 2.273438 -12.03125 1.78125 -13.4375 1.78125 -15.40625 L 1.78125 -19.078125 C 1.78125 -21.066406 2.421875 -22.59375 3.703125 -23.65625 C 4.992188 -24.71875 6.773438 -25.25 9.046875 -25.25 L 18.875 -25.25 C 19.3125 -25.25 19.628906 -25.148438 19.828125 -24.953125 C 20.035156 -24.753906 20.140625 -24.4375 20.140625 -24 L 20.140625 -19.8125 C 20.140625 -19.375 20.035156 -19.054688 19.828125 -18.859375 C 19.628906 -18.660156 19.3125 -18.5625 18.875 -18.5625 L 10.703125 -18.5625 C 10.398438 -18.5625 10.164062 -18.457031 10 -18.25 C 9.832031 -18.050781 9.75 -17.800781 9.75 -17.5 C 9.75 -17.195312 9.832031 -16.941406 10 -16.734375 C 10.164062 -16.523438 10.398438 -16.40625 10.703125 -16.375 L 15.921875 -15.6875 C 17.554688 -15.445312 18.875 -14.90625 19.875 -14.0625 C 20.882812 -13.21875 21.390625 -11.816406 21.390625 -9.859375 L 21.390625 -6.171875 C 21.390625 -4.179688 20.738281 -2.65625 19.4375 -1.59375 C 18.144531 -0.53125 16.378906 0 14.140625 0 Z M 14.140625 0 "/></g></g></g><g fill="#0d4244" fill-opacity="0.302"><g transform="translate(278.556784, 52.47183)"><g><path d="M 3.125 0 C 2.675781 0 2.351562 -0.0976562 2.15625 -0.296875 C 1.957031 -0.492188 1.859375 -0.816406 1.859375 -1.265625 L 1.859375 -5.4375 C 1.859375 -5.882812 1.957031 -6.207031 2.15625 -6.40625 C 2.351562 -6.601562 2.675781 -6.703125 3.125 -6.703125 L 6.59375 -6.703125 L 6.59375 -18.484375 L 3.125 -18.484375 C 2.675781 -18.484375 2.351562 -18.582031 2.15625 -18.78125 C 1.957031 -18.976562 1.859375 -19.300781 1.859375 -19.75 L 1.859375 -24 C 1.859375 -24.4375 1.957031 -24.753906 2.15625 -24.953125 C 2.351562 -25.148438 2.675781 -25.25 3.125 -25.25 L 18.0625 -25.25 C 18.507812 -25.25 18.832031 -25.148438 19.03125 -24.953125 C 19.226562 -24.753906 19.328125 -24.4375 19.328125 -24 L 19.328125 -19.75 C 19.328125 -19.300781 19.226562 -18.976562 19.03125 -18.78125 C 18.832031 -18.582031 18.507812 -18.484375 18.0625 -18.484375 L 14.65625 -18.484375 L 14.65625 -6.703125 L 18.0625 -6.703125 C 18.507812 -6.703125 18.832031 -6.601562 19.03125 -6.40625 C 19.226562 -6.207031 19.328125 -5.882812 19.328125 -5.4375 L 19.328125 -1.265625 C 19.328125 -0.816406 19.226562 -0.492188 19.03125 -0.296875 C 18.832031 -0.0976562 18.507812 0 18.0625 0 Z M 3.125 0 "/></g></g></g><g fill="#0d4244" fill-opacity="0.302"><g transform="translate(302.021874, 52.47183)"><g><path d="M 23.8125 -6.625 C 23.8125 -5.550781 23.65625 -4.578125 23.34375 -3.703125 C 23.03125 -2.828125 22.46875 -2.078125 21.65625 -1.453125 C 20.851562 -0.835938 19.742188 -0.351562 18.328125 0 C 16.910156 0.351562 15.113281 0.53125 12.9375 0.53125 C 10.769531 0.53125 8.972656 0.351562 7.546875 0 C 6.117188 -0.351562 5 -0.835938 4.1875 -1.453125 C 3.382812 -2.078125 2.820312 -2.828125 2.5 -3.703125 C 2.1875 -4.578125 2.03125 -5.550781 2.03125 -6.625 L 2.03125 -18.59375 C 2.03125 -19.664062 2.1875 -20.640625 2.5 -21.515625 C 2.820312 -22.390625 3.382812 -23.144531 4.1875 -23.78125 C 5 -24.414062 6.117188 -24.90625 7.546875 -25.25 C 8.972656 -25.601562 10.769531 -25.78125 12.9375 -25.78125 C 15.113281 -25.78125 16.910156 -25.601562 18.328125 -25.25 C 19.742188 -24.90625 20.851562 -24.414062 21.65625 -23.78125 C 22.46875 -23.144531 23.03125 -22.390625 23.34375 -21.515625 C 23.65625 -20.640625 23.8125 -19.664062 23.8125 -18.59375 Z M 10 -7.890625 C 10 -7.421875 10.171875 -7.03125 10.515625 -6.71875 C 10.867188 -6.40625 11.675781 -6.25 12.9375 -6.25 C 14.207031 -6.25 15.015625 -6.40625 15.359375 -6.71875 C 15.710938 -7.03125 15.890625 -7.421875 15.890625 -7.890625 L 15.890625 -17.328125 C 15.890625 -17.773438 15.710938 -18.15625 15.359375 -18.46875 C 15.015625 -18.78125 14.207031 -18.9375 12.9375 -18.9375 C 11.675781 -18.9375 10.867188 -18.78125 10.515625 -18.46875 C 10.171875 -18.15625 10 -17.773438 10 -17.328125 Z M 10 -7.890625 "/></g></g></g><g fill="#0d4244" fill-opacity="0.302"><g transform="translate(330.116751, 52.47183)"><g><path d="M 8.9375 0 L 3.6875 0 C 3.238281 0 2.914062 -0.0976562 2.71875 -0.296875 C 2.519531 -0.492188 2.421875 -0.816406 2.421875 -1.265625 L 2.421875 -24 C 2.421875 -24.4375 2.519531 -24.753906 2.71875 -24.953125 C 2.914062 -25.148438 3.238281 -25.25 3.6875 -25.25 L 7.328125 -25.25 C 7.773438 -25.25 8.15625 -25.175781 8.46875 -25.03125 C 8.78125 -24.894531 9.09375 -24.65625 9.40625 -24.3125 L 16.203125 -16.515625 L 16.203125 -24 C 16.203125 -24.4375 16.300781 -24.753906 16.5 -24.953125 C 16.695312 -25.148438 17.019531 -25.25 17.46875 -25.25 L 22.734375 -25.25 C 23.171875 -25.25 23.488281 -25.148438 23.6875 -24.953125 C 23.894531 -24.753906 24 -24.4375 24 -24 L 24 -1.265625 C 24 -0.816406 23.894531 -0.492188 23.6875 -0.296875 C 23.488281 -0.0976562 23.171875 0 22.734375 0 L 17.46875 0 C 17.019531 0 16.695312 -0.0976562 16.5 -0.296875 C 16.300781 -0.492188 16.203125 -0.816406 16.203125 -1.265625 L 16.203125 -5.578125 L 10.203125 -12.84375 L 10.203125 -1.265625 C 10.203125 -0.816406 10.101562 -0.492188 9.90625 -0.296875 C 9.707031 -0.0976562 9.382812 0 8.9375 0 Z M 8.9375 0 "/></g></g></g><g fill="#0d4244" fill-opacity="0.302"><g transform="translate(358.772823, 52.47183)"><g><path d="M 14.140625 0 L 3.046875 0 C 2.609375 0 2.285156 -0.0976562 2.078125 -0.296875 C 1.878906 -0.492188 1.78125 -0.816406 1.78125 -1.265625 L 1.78125 -5.359375 C 1.78125 -5.804688 1.878906 -6.128906 2.078125 -6.328125 C 2.285156 -6.523438 2.609375 -6.625 3.046875 -6.625 L 12.484375 -6.625 C 12.785156 -6.625 13.015625 -6.722656 13.171875 -6.921875 C 13.328125 -7.117188 13.40625 -7.359375 13.40625 -7.640625 C 13.40625 -8.046875 13.328125 -8.335938 13.171875 -8.515625 C 13.015625 -8.703125 12.785156 -8.8125 12.484375 -8.84375 L 7.21875 -9.578125 C 5.582031 -9.804688 4.265625 -10.34375 3.265625 -11.1875 C 2.273438 -12.03125 1.78125 -13.4375 1.78125 -15.40625 L 1.78125 -19.078125 C 1.78125 -21.066406 2.421875 -22.59375 3.703125 -23.65625 C 4.992188 -24.71875 6.773438 -25.25 9.046875 -25.25 L 18.875 -25.25 C 19.3125 -25.25 19.628906 -25.148438 19.828125 -24.953125 C 20.035156 -24.753906 20.140625 -24.4375 20.140625 -24 L 20.140625 -19.8125 C 20.140625 -19.375 20.035156 -19.054688 19.828125 -18.859375 C 19.628906 -18.660156 19.3125 -18.5625 18.875 -18.5625 L 10.703125 -18.5625 C 10.398438 -18.5625 10.164062 -18.457031 10 -18.25 C 9.832031 -18.050781 9.75 -17.800781 9.75 -17.5 C 9.75 -17.195312 9.832031 -16.941406 10 -16.734375 C 10.164062 -16.523438 10.398438 -16.40625 10.703125 -16.375 L 15.921875 -15.6875 C 17.554688 -15.445312 18.875 -14.90625 19.875 -14.0625 C 20.882812 -13.21875 21.390625 -11.816406 21.390625 -9.859375 L 21.390625 -6.171875 C 21.390625 -4.179688 20.738281 -2.65625 19.4375 -1.59375 C 18.144531 -0.53125 16.378906 0 14.140625 0 Z M 14.140625 0 "/></g></g></g><g fill="#0d4244" fill-opacity="0.502"><g transform="translate(91.776388, 50.92143)"><g><path d="M 9.125 0 L 3.6875 0 C 3.238281 0 2.914062 -0.0976562 2.71875 -0.296875 C 2.519531 -0.492188 2.421875 -0.816406 2.421875 -1.265625 L 2.421875 -24 C 2.421875 -24.4375 2.519531 -24.753906 2.71875 -24.953125 C 2.914062 -25.148438 3.238281 -25.25 3.6875 -25.25 L 14.421875 -25.25 C 17.597656 -25.25 19.769531 -24.617188 20.9375 -23.359375 C 22.113281 -22.097656 22.703125 -20.453125 22.703125 -18.421875 L 22.703125 -13.921875 C 22.703125 -11.890625 22.113281 -10.238281 20.9375 -8.96875 C 19.769531 -7.707031 17.597656 -7.078125 14.421875 -7.078125 L 10.390625 -7.078125 L 10.390625 -1.265625 C 10.390625 -0.816406 10.285156 -0.492188 10.078125 -0.296875 C 9.878906 -0.0976562 9.5625 0 9.125 0 Z M 10.3125 -18.703125 L 10.3125 -13.40625 L 13.46875 -13.40625 C 14.144531 -13.40625 14.585938 -13.578125 14.796875 -13.921875 C 15.015625 -14.273438 15.125 -14.675781 15.125 -15.125 L 15.125 -16.984375 C 15.125 -17.421875 15.015625 -17.816406 14.796875 -18.171875 C 14.585938 -18.523438 14.144531 -18.703125 13.46875 -18.703125 Z M 10.3125 -18.703125 "/></g></g></g><g fill="#0d4244" fill-opacity="0.502"><g transform="translate(117.942195, 50.92143)"><g><path d="M 19.953125 0 L 3.6875 0 C 3.238281 0 2.914062 -0.0976562 2.71875 -0.296875 C 2.519531 -0.492188 2.421875 -0.816406 2.421875 -1.265625 L 2.421875 -24 C 2.421875 -24.4375 2.519531 -24.753906 2.71875 -24.953125 C 2.914062 -25.148438 3.238281 -25.25 3.6875 -25.25 L 19.953125 -25.25 C 20.398438 -25.25 20.722656 -25.148438 20.921875 -24.953125 C 21.117188 -24.753906 21.21875 -24.4375 21.21875 -24 L 21.21875 -19.890625 C 21.21875 -19.441406 21.117188 -19.117188 20.921875 -18.921875 C 20.722656 -18.722656 20.398438 -18.625 19.953125 -18.625 L 10.28125 -18.625 L 10.28125 -15.921875 L 17.125 -15.921875 C 17.5625 -15.921875 17.878906 -15.820312 18.078125 -15.625 C 18.273438 -15.425781 18.375 -15.101562 18.375 -14.65625 L 18.375 -10.90625 C 18.375 -10.46875 18.273438 -10.144531 18.078125 -9.9375 C 17.878906 -9.738281 17.5625 -9.640625 17.125 -9.640625 L 10.28125 -9.640625 L 10.28125 -6.625 L 19.953125 -6.625 C 20.398438 -6.625 20.722656 -6.523438 20.921875 -6.328125 C 21.117188 -6.128906 21.21875 -5.804688 21.21875 -5.359375 L 21.21875 -1.265625 C 21.21875 -0.816406 21.117188 -0.492188 20.921875 -0.296875 C 20.722656 -0.0976562 20.398438 0 19.953125 0 Z M 19.953125 0 "/></g></g></g><g fill="#0d4244" fill-opacity="0.502"><g transform="translate(143.125926, 50.92143)"><g><path d="M 10.34375 -18.9375 L 10.34375 -14.453125 L 12.984375 -14.453125 C 13.585938 -14.453125 13.992188 -14.609375 14.203125 -14.921875 C 14.410156 -15.242188 14.515625 -15.632812 14.515625 -16.09375 L 14.515625 -17.296875 C 14.515625 -17.765625 14.410156 -18.15625 14.203125 -18.46875 C 13.992188 -18.78125 13.585938 -18.9375 12.984375 -18.9375 Z M 9.078125 0 L 3.6875 0 C 3.238281 0 2.914062 -0.0976562 2.71875 -0.296875 C 2.519531 -0.492188 2.421875 -0.816406 2.421875 -1.265625 L 2.421875 -24 C 2.421875 -24.4375 2.519531 -24.753906 2.71875 -24.953125 C 2.914062 -25.148438 3.238281 -25.25 3.6875 -25.25 L 15.359375 -25.25 C 17.984375 -25.25 19.789062 -24.707031 20.78125 -23.625 C 21.78125 -22.539062 22.28125 -21.128906 22.28125 -19.390625 L 22.28125 -17.78125 C 22.28125 -16.800781 22.128906 -15.960938 21.828125 -15.265625 C 21.535156 -14.578125 21.03125 -14.082031 20.3125 -13.78125 C 21.570312 -13.644531 22.59375 -13.128906 23.375 -12.234375 C 24.15625 -11.347656 24.546875 -10.171875 24.546875 -8.703125 L 24.546875 -1.265625 C 24.546875 -0.816406 24.445312 -0.492188 24.25 -0.296875 C 24.050781 -0.0976562 23.734375 0 23.296875 0 L 17.859375 0 C 17.410156 0 17.085938 -0.0976562 16.890625 -0.296875 C 16.691406 -0.492188 16.59375 -0.816406 16.59375 -1.265625 L 16.59375 -6.625 C 16.59375 -7.144531 16.492188 -7.523438 16.296875 -7.765625 C 16.097656 -8.015625 15.753906 -8.140625 15.265625 -8.140625 L 10.34375 -8.140625 L 10.34375 -1.265625 C 10.34375 -0.816406 10.242188 -0.492188 10.046875 -0.296875 C 9.847656 -0.0976562 9.523438 0 9.078125 0 Z M 9.078125 0 "/></g></g></g><g fill="#0d4244" fill-opacity="0.502"><g transform="translate(171.431254, 50.92143)"><g><path d="M 8.90625 0 L 3.6875 0 C 3.238281 0 2.914062 -0.0976562 2.71875 -0.296875 C 2.519531 -0.492188 2.421875 -0.816406 2.421875 -1.265625 L 2.421875 -24 C 2.421875 -24.4375 2.519531 -24.753906 2.71875 -24.953125 C 2.914062 -25.148438 3.238281 -25.25 3.6875 -25.25 L 9.328125 -25.25 C 9.703125 -25.25 10.007812 -25.164062 10.25 -25 C 10.5 -24.84375 10.726562 -24.578125 10.9375 -24.203125 L 14.09375 -18.484375 C 14.21875 -18.273438 14.316406 -18.125 14.390625 -18.03125 C 14.472656 -17.9375 14.585938 -17.890625 14.734375 -17.890625 L 15.046875 -17.890625 C 15.191406 -17.890625 15.300781 -17.9375 15.375 -18.03125 C 15.457031 -18.125 15.5625 -18.273438 15.6875 -18.484375 L 18.796875 -24.203125 C 19.015625 -24.578125 19.242188 -24.84375 19.484375 -25 C 19.734375 -25.164062 20.046875 -25.25 20.421875 -25.25 L 26.09375 -25.25 C 26.539062 -25.25 26.863281 -25.148438 27.0625 -24.953125 C 27.257812 -24.753906 27.359375 -24.4375 27.359375 -24 L 27.359375 -1.265625 C 27.359375 -0.816406 27.257812 -0.492188 27.0625 -0.296875 C 26.863281 -0.0976562 26.539062 0 26.09375 0 L 20.703125 0 C 20.253906 0 19.929688 -0.0976562 19.734375 -0.296875 C 19.535156 -0.492188 19.4375 -0.816406 19.4375 -1.265625 L 19.4375 -13.609375 L 17.359375 -9.78125 C 17.148438 -9.382812 16.898438 -9.097656 16.609375 -8.921875 C 16.316406 -8.753906 15.945312 -8.671875 15.5 -8.671875 L 14.09375 -8.671875 C 13.65625 -8.671875 13.289062 -8.753906 13 -8.921875 C 12.707031 -9.097656 12.457031 -9.382812 12.25 -9.78125 L 10.171875 -13.609375 L 10.171875 -1.265625 C 10.171875 -0.816406 10.070312 -0.492188 9.875 -0.296875 C 9.675781 -0.0976562 9.351562 0 8.90625 0 Z M 8.90625 0 "/></g></g></g><g fill="#0d4244" fill-opacity="0.502"><g transform="translate(203.454441, 50.92143)"><g><path d="M 3.125 0 C 2.675781 0 2.351562 -0.0976562 2.15625 -0.296875 C 1.957031 -0.492188 1.859375 -0.816406 1.859375 -1.265625 L 1.859375 -5.4375 C 1.859375 -5.882812 1.957031 -6.207031 2.15625 -6.40625 C 2.351562 -6.601562 2.675781 -6.703125 3.125 -6.703125 L 6.59375 -6.703125 L 6.59375 -18.484375 L 3.125 -18.484375 C 2.675781 -18.484375 2.351562 -18.582031 2.15625 -18.78125 C 1.957031 -18.976562 1.859375 -19.300781 1.859375 -19.75 L 1.859375 -24 C 1.859375 -24.4375 1.957031 -24.753906 2.15625 -24.953125 C 2.351562 -25.148438 2.675781 -25.25 3.125 -25.25 L 18.0625 -25.25 C 18.507812 -25.25 18.832031 -25.148438 19.03125 -24.953125 C 19.226562 -24.753906 19.328125 -24.4375 19.328125 -24 L 19.328125 -19.75 C 19.328125 -19.300781 19.226562 -18.976562 19.03125 -18.78125 C 18.832031 -18.582031 18.507812 -18.484375 18.0625 -18.484375 L 14.65625 -18.484375 L 14.65625 -6.703125 L 18.0625 -6.703125 C 18.507812 -6.703125 18.832031 -6.601562 19.03125 -6.40625 C 19.226562 -6.207031 19.328125 -5.882812 19.328125 -5.4375 L 19.328125 -1.265625 C 19.328125 -0.816406 19.226562 -0.492188 19.03125 -0.296875 C 18.832031 -0.0976562 18.507812 0 18.0625 0 Z M 3.125 0 "/></g></g></g><g fill="#0d4244" fill-opacity="0.502"><g transform="translate(226.919531, 50.92143)"><g><path d="M 14.140625 0 L 3.046875 0 C 2.609375 0 2.285156 -0.0976562 2.078125 -0.296875 C 1.878906 -0.492188 1.78125 -0.816406 1.78125 -1.265625 L 1.78125 -5.359375 C 1.78125 -5.804688 1.878906 -6.128906 2.078125 -6.328125 C 2.285156 -6.523438 2.609375 -6.625 3.046875 -6.625 L 12.484375 -6.625 C 12.785156 -6.625 13.015625 -6.722656 13.171875 -6.921875 C 13.328125 -7.117188 13.40625 -7.359375 13.40625 -7.640625 C 13.40625 -8.046875 13.328125 -8.335938 13.171875 -8.515625 C 13.015625 -8.703125 12.785156 -8.8125 12.484375 -8.84375 L 7.21875 -9.578125 C 5.582031 -9.804688 4.265625 -10.34375 3.265625 -11.1875 C 2.273438 -12.03125 1.78125 -13.4375 1.78125 -15.40625 L 1.78125 -19.078125 C 1.78125 -21.066406 2.421875 -22.59375 3.703125 -23.65625 C 4.992188 -24.71875 6.773438 -25.25 9.046875 -25.25 L 18.875 -25.25 C 19.3125 -25.25 19.628906 -25.148438 19.828125 -24.953125 C 20.035156 -24.753906 20.140625 -24.4375 20.140625 -24 L 20.140625 -19.8125 C 20.140625 -19.375 20.035156 -19.054688 19.828125 -18.859375 C 19.628906 -18.660156 19.3125 -18.5625 18.875 -18.5625 L 10.703125 -18.5625 C 10.398438 -18.5625 10.164062 -18.457031 10 -18.25 C 9.832031 -18.050781 9.75 -17.800781 9.75 -17.5 C 9.75 -17.195312 9.832031 -16.941406 10 -16.734375 C 10.164062 -16.523438 10.398438 -16.40625 10.703125 -16.375 L 15.921875 -15.6875 C 17.554688 -15.445312 18.875 -14.90625 19.875 -14.0625 C 20.882812 -13.21875 21.390625 -11.816406 21.390625 -9.859375 L 21.390625 -6.171875 C 21.390625 -4.179688 20.738281 -2.65625 19.4375 -1.59375 C 18.144531 -0.53125 16.378906 0 14.140625 0 Z M 14.140625 0 "/></g></g></g><g fill="#0d4244" fill-opacity="0.502"><g transform="translate(251.962955, 50.92143)"><g><path d="M 14.140625 0 L 3.046875 0 C 2.609375 0 2.285156 -0.0976562 2.078125 -0.296875 C 1.878906 -0.492188 1.78125 -0.816406 1.78125 -1.265625 L 1.78125 -5.359375 C 1.78125 -5.804688 1.878906 -6.128906 2.078125 -6.328125 C 2.285156 -6.523438 2.609375 -6.625 3.046875 -6.625 L 12.484375 -6.625 C 12.785156 -6.625 13.015625 -6.722656 13.171875 -6.921875 C 13.328125 -7.117188 13.40625 -7.359375 13.40625 -7.640625 C 13.40625 -8.046875 13.328125 -8.335938 13.171875 -8.515625 C 13.015625 -8.703125 12.785156 -8.8125 12.484375 -8.84375 L 7.21875 -9.578125 C 5.582031 -9.804688 4.265625 -10.34375 3.265625 -11.1875 C 2.273438 -12.03125 1.78125 -13.4375 1.78125 -15.40625 L 1.78125 -19.078125 C 1.78125 -21.066406 2.421875 -22.59375 3.703125 -23.65625 C 4.992188 -24.71875 6.773438 -25.25 9.046875 -25.25 L 18.875 -25.25 C 19.3125 -25.25 19.628906 -25.148438 19.828125 -24.953125 C 20.035156 -24.753906 20.140625 -24.4375 20.140625 -24 L 20.140625 -19.8125 C 20.140625 -19.375 20.035156 -19.054688 19.828125 -18.859375 C 19.628906 -18.660156 19.3125 -18.5625 18.875 -18.5625 L 10.703125 -18.5625 C 10.398438 -18.5625 10.164062 -18.457031 10 -18.25 C 9.832031 -18.050781 9.75 -17.800781 9.75 -17.5 C 9.75 -17.195312 9.832031 -16.941406 10 -16.734375 C 10.164062 -16.523438 10.398438 -16.40625 10.703125 -16.375 L 15.921875 -15.6875 C 17.554688 -15.445312 18.875 -14.90625 19.875 -14.0625 C 20.882812 -13.21875 21.390625 -11.816406 21.390625 -9.859375 L 21.390625 -6.171875 C 21.390625 -4.179688 20.738281 -2.65625 19.4375 -1.59375 C 18.144531 -0.53125 16.378906 0 14.140625 0 Z M 14.140625 0 "/></g></g></g><g fill="#0d4244" fill-opacity="0.502"><g transform="translate(277.006379, 50.92143)"><g><path d="M 3.125 0 C 2.675781 0 2.351562 -0.0976562 2.15625 -0.296875 C 1.957031 -0.492188 1.859375 -0.816406 1.859375 -1.265625 L 1.859375 -5.4375 C 1.859375 -5.882812 1.957031 -6.207031 2.15625 -6.40625 C 2.351562 -6.601562 2.675781 -6.703125 3.125 -6.703125 L 6.59375 -6.703125 L 6.59375 -18.484375 L 3.125 -18.484375 C 2.675781 -18.484375 2.351562 -18.582031 2.15625 -18.78125 C 1.957031 -18.976562 1.859375 -19.300781 1.859375 -19.75 L 1.859375 -24 C 1.859375 -24.4375 1.957031 -24.753906 2.15625 -24.953125 C 2.351562 -25.148438 2.675781 -25.25 3.125 -25.25 L 18.0625 -25.25 C 18.507812 -25.25 18.832031 -25.148438 19.03125 -24.953125 C 19.226562 -24.753906 19.328125 -24.4375 19.328125 -24 L 19.328125 -19.75 C 19.328125 -19.300781 19.226562 -18.976562 19.03125 -18.78125 C 18.832031 -18.582031 18.507812 -18.484375 18.0625 -18.484375 L 14.65625 -18.484375 L 14.65625 -6.703125 L 18.0625 -6.703125 C 18.507812 -6.703125 18.832031 -6.601562 19.03125 -6.40625 C 19.226562 -6.207031 19.328125 -5.882812 19.328125 -5.4375 L 19.328125 -1.265625 C 19.328125 -0.816406 19.226562 -0.492188 19.03125 -0.296875 C 18.832031 -0.0976562 18.507812 0 18.0625 0 Z M 3.125 0 "/></g></g></g><g fill="#0d4244" fill-opacity="0.502"><g transform="translate(300.471469, 50.92143)"><g><path d="M 23.8125 -6.625 C 23.8125 -5.550781 23.65625 -4.578125 23.34375 -3.703125 C 23.03125 -2.828125 22.46875 -2.078125 21.65625 -1.453125 C 20.851562 -0.835938 19.742188 -0.351562 18.328125 0 C 16.910156 0.351562 15.113281 0.53125 12.9375 0.53125 C 10.769531 0.53125 8.972656 0.351562 7.546875 0 C 6.117188 -0.351562 5 -0.835938 4.1875 -1.453125 C 3.382812 -2.078125 2.820312 -2.828125 2.5 -3.703125 C 2.1875 -4.578125 2.03125 -5.550781 2.03125 -6.625 L 2.03125 -18.59375 C 2.03125 -19.664062 2.1875 -20.640625 2.5 -21.515625 C 2.820312 -22.390625 3.382812 -23.144531 4.1875 -23.78125 C 5 -24.414062 6.117188 -24.90625 7.546875 -25.25 C 8.972656 -25.601562 10.769531 -25.78125 12.9375 -25.78125 C 15.113281 -25.78125 16.910156 -25.601562 18.328125 -25.25 C 19.742188 -24.90625 20.851562 -24.414062 21.65625 -23.78125 C 22.46875 -23.144531 23.03125 -22.390625 23.34375 -21.515625 C 23.65625 -20.640625 23.8125 -19.664062 23.8125 -18.59375 Z M 10 -7.890625 C 10 -7.421875 10.171875 -7.03125 10.515625 -6.71875 C 10.867188 -6.40625 11.675781 -6.25 12.9375 -6.25 C 14.207031 -6.25 15.015625 -6.40625 15.359375 -6.71875 C 15.710938 -7.03125 15.890625 -7.421875 15.890625 -7.890625 L 15.890625 -17.328125 C 15.890625 -17.773438 15.710938 -18.15625 15.359375 -18.46875 C 15.015625 -18.78125 14.207031 -18.9375 12.9375 -18.9375 C 11.675781 -18.9375 10.867188 -18.78125 10.515625 -18.46875 C 10.171875 -18.15625 10 -17.773438 10 -17.328125 Z M 10 -7.890625 "/></g></g></g><g fill="#0d4244" fill-opacity="0.502"><g transform="translate(328.566346, 50.92143)"><g><path d="M 8.9375 0 L 3.6875 0 C 3.238281 0 2.914062 -0.0976562 2.71875 -0.296875 C 2.519531 -0.492188 2.421875 -0.816406 2.421875 -1.265625 L 2.421875 -24 C 2.421875 -24.4375 2.519531 -24.753906 2.71875 -24.953125 C 2.914062 -25.148438 3.238281 -25.25 3.6875 -25.25 L 7.328125 -25.25 C 7.773438 -25.25 8.15625 -25.175781 8.46875 -25.03125 C 8.78125 -24.894531 9.09375 -24.65625 9.40625 -24.3125 L 16.203125 -16.515625 L 16.203125 -24 C 16.203125 -24.4375 16.300781 -24.753906 16.5 -24.953125 C 16.695312 -25.148438 17.019531 -25.25 17.46875 -25.25 L 22.734375 -25.25 C 23.171875 -25.25 23.488281 -25.148438 23.6875 -24.953125 C 23.894531 -24.753906 24 -24.4375 24 -24 L 24 -1.265625 C 24 -0.816406 23.894531 -0.492188 23.6875 -0.296875 C 23.488281 -0.0976562 23.171875 0 22.734375 0 L 17.46875 0 C 17.019531 0 16.695312 -0.0976562 16.5 -0.296875 C 16.300781 -0.492188 16.203125 -0.816406 16.203125 -1.265625 L 16.203125 -5.578125 L 10.203125 -12.84375 L 10.203125 -1.265625 C 10.203125 -0.816406 10.101562 -0.492188 9.90625 -0.296875 C 9.707031 -0.0976562 9.382812 0 8.9375 0 Z M 8.9375 0 "/></g></g></g><g fill="#0d4244" fill-opacity="0.502"><g transform="translate(357.222418, 50.92143)"><g><path d="M 14.140625 0 L 3.046875 0 C 2.609375 0 2.285156 -0.0976562 2.078125 -0.296875 C 1.878906 -0.492188 1.78125 -0.816406 1.78125 -1.265625 L 1.78125 -5.359375 C 1.78125 -5.804688 1.878906 -6.128906 2.078125 -6.328125 C 2.285156 -6.523438 2.609375 -6.625 3.046875 -6.625 L 12.484375 -6.625 C 12.785156 -6.625 13.015625 -6.722656 13.171875 -6.921875 C 13.328125 -7.117188 13.40625 -7.359375 13.40625 -7.640625 C 13.40625 -8.046875 13.328125 -8.335938 13.171875 -8.515625 C 13.015625 -8.703125 12.785156 -8.8125 12.484375 -8.84375 L 7.21875 -9.578125 C 5.582031 -9.804688 4.265625 -10.34375 3.265625 -11.1875 C 2.273438 -12.03125 1.78125 -13.4375 1.78125 -15.40625 L 1.78125 -19.078125 C 1.78125 -21.066406 2.421875 -22.59375 3.703125 -23.65625 C 4.992188 -24.71875 6.773438 -25.25 9.046875 -25.25 L 18.875 -25.25 C 19.3125 -25.25 19.628906 -25.148438 19.828125 -24.953125 C 20.035156 -24.753906 20.140625 -24.4375 20.140625 -24 L 20.140625 -19.8125 C 20.140625 -19.375 20.035156 -19.054688 19.828125 -18.859375 C 19.628906 -18.660156 19.3125 -18.5625 18.875 -18.5625 L 10.703125 -18.5625 C 10.398438 -18.5625 10.164062 -18.457031 10 -18.25 C 9.832031 -18.050781 9.75 -17.800781 9.75 -17.5 C 9.75 -17.195312 9.832031 -16.941406 10 -16.734375 C 10.164062 -16.523438 10.398438 -16.40625 10.703125 -16.375 L 15.921875 -15.6875 C 17.554688 -15.445312 18.875 -14.90625 19.875 -14.0625 C 20.882812 -13.21875 21.390625 -11.816406 21.390625 -9.859375 L 21.390625 -6.171875 C 21.390625 -4.179688 20.738281 -2.65625 19.4375 -1.59375 C 18.144531 -0.53125 16.378906 0 14.140625 0 Z M 14.140625 0 "/></g></g></g><g fill="#ffffff" fill-opacity="1"><g transform="translate(90.22599, 49.37103)"><g><path d="M 9.125 0 L 3.6875 0 C 3.238281 0 2.914062 -0.0976562 2.71875 -0.296875 C 2.519531 -0.492188 2.421875 -0.816406 2.421875 -1.265625 L 2.421875 -24 C 2.421875 -24.4375 2.519531 -24.753906 2.71875 -24.953125 C 2.914062 -25.148438 3.238281 -25.25 3.6875 -25.25 L 14.421875 -25.25 C 17.597656 -25.25 19.769531 -24.617188 20.9375 -23.359375 C 22.113281 -22.097656 22.703125 -20.453125 22.703125 -18.421875 L 22.703125 -13.921875 C 22.703125 -11.890625 22.113281 -10.238281 20.9375 -8.96875 C 19.769531 -7.707031 17.597656 -7.078125 14.421875 -7.078125 L 10.390625 -7.078125 L 10.390625 -1.265625 C 10.390625 -0.816406 10.285156 -0.492188 10.078125 -0.296875 C 9.878906 -0.0976562 9.5625 0 9.125 0 Z M 10.3125 -18.703125 L 10.3125 -13.40625 L 13.46875 -13.40625 C 14.144531 -13.40625 14.585938 -13.578125 14.796875 -13.921875 C 15.015625 -14.273438 15.125 -14.675781 15.125 -15.125 L 15.125 -16.984375 C 15.125 -17.421875 15.015625 -17.816406 14.796875 -18.171875 C 14.585938 -18.523438 14.144531 -18.703125 13.46875 -18.703125 Z M 10.3125 -18.703125 "/></g></g></g><g fill="#ffffff" fill-opacity="1"><g transform="translate(116.391797, 49.37103)"><g><path d="M 19.953125 0 L 3.6875 0 C 3.238281 0 2.914062 -0.0976562 2.71875 -0.296875 C 2.519531 -0.492188 2.421875 -0.816406 2.421875 -1.265625 L 2.421875 -24 C 2.421875 -24.4375 2.519531 -24.753906 2.71875 -24.953125 C 2.914062 -25.148438 3.238281 -25.25 3.6875 -25.25 L 19.953125 -25.25 C 20.398438 -25.25 20.722656 -25.148438 20.921875 -24.953125 C 21.117188 -24.753906 21.21875 -24.4375 21.21875 -24 L 21.21875 -19.890625 C 21.21875 -19.441406 21.117188 -19.117188 20.921875 -18.921875 C 20.722656 -18.722656 20.398438 -18.625 19.953125 -18.625 L 10.28125 -18.625 L 10.28125 -15.921875 L 17.125 -15.921875 C 17.5625 -15.921875 17.878906 -15.820312 18.078125 -15.625 C 18.273438 -15.425781 18.375 -15.101562 18.375 -14.65625 L 18.375 -10.90625 C 18.375 -10.46875 18.273438 -10.144531 18.078125 -9.9375 C 17.878906 -9.738281 17.5625 -9.640625 17.125 -9.640625 L 10.28125 -9.640625 L 10.28125 -6.625 L 19.953125 -6.625 C 20.398438 -6.625 20.722656 -6.523438 20.921875 -6.328125 C 21.117188 -6.128906 21.21875 -5.804688 21.21875 -5.359375 L 21.21875 -1.265625 C 21.21875 -0.816406 21.117188 -0.492188 20.921875 -0.296875 C 20.722656 -0.0976562 20.398438 0 19.953125 0 Z M 19.953125 0 "/></g></g></g><g fill="#ffffff" fill-opacity="1"><g transform="translate(141.575529, 49.37103)"><g><path d="M 10.34375 -18.9375 L 10.34375 -14.453125 L 12.984375 -14.453125 C 13.585938 -14.453125 13.992188 -14.609375 14.203125 -14.921875 C 14.410156 -15.242188 14.515625 -15.632812 14.515625 -16.09375 L 14.515625 -17.296875 C 14.515625 -17.765625 14.410156 -18.15625 14.203125 -18.46875 C 13.992188 -18.78125 13.585938 -18.9375 12.984375 -18.9375 Z M 9.078125 0 L 3.6875 0 C 3.238281 0 2.914062 -0.0976562 2.71875 -0.296875 C 2.519531 -0.492188 2.421875 -0.816406 2.421875 -1.265625 L 2.421875 -24 C 2.421875 -24.4375 2.519531 -24.753906 2.71875 -24.953125 C 2.914062 -25.148438 3.238281 -25.25 3.6875 -25.25 L 15.359375 -25.25 C 17.984375 -25.25 19.789062 -24.707031 20.78125 -23.625 C 21.78125 -22.539062 22.28125 -21.128906 22.28125 -19.390625 L 22.28125 -17.78125 C 22.28125 -16.800781 22.128906 -15.960938 21.828125 -15.265625 C 21.535156 -14.578125 21.03125 -14.082031 20.3125 -13.78125 C 21.570312 -13.644531 22.59375 -13.128906 23.375 -12.234375 C 24.15625 -11.347656 24.546875 -10.171875 24.546875 -8.703125 L 24.546875 -1.265625 C 24.546875 -0.816406 24.445312 -0.492188 24.25 -0.296875 C 24.050781 -0.0976562 23.734375 0 23.296875 0 L 17.859375 0 C 17.410156 0 17.085938 -0.0976562 16.890625 -0.296875 C 16.691406 -0.492188 16.59375 -0.816406 16.59375 -1.265625 L 16.59375 -6.625 C 16.59375 -7.144531 16.492188 -7.523438 16.296875 -7.765625 C 16.097656 -8.015625 15.753906 -8.140625 15.265625 -8.140625 L 10.34375 -8.140625 L 10.34375 -1.265625 C 10.34375 -0.816406 10.242188 -0.492188 10.046875 -0.296875 C 9.847656 -0.0976562 9.523438 0 9.078125 0 Z M 9.078125 0 "/></g></g></g><g fill="#ffffff" fill-opacity="1"><g transform="translate(169.880857, 49.37103)"><g><path d="M 8.90625 0 L 3.6875 0 C 3.238281 0 2.914062 -0.0976562 2.71875 -0.296875 C 2.519531 -0.492188 2.421875 -0.816406 2.421875 -1.265625 L 2.421875 -24 C 2.421875 -24.4375 2.519531 -24.753906 2.71875 -24.953125 C 2.914062 -25.148438 3.238281 -25.25 3.6875 -25.25 L 9.328125 -25.25 C 9.703125 -25.25 10.007812 -25.164062 10.25 -25 C 10.5 -24.84375 10.726562 -24.578125 10.9375 -24.203125 L 14.09375 -18.484375 C 14.21875 -18.273438 14.316406 -18.125 14.390625 -18.03125 C 14.472656 -17.9375 14.585938 -17.890625 14.734375 -17.890625 L 15.046875 -17.890625 C 15.191406 -17.890625 15.300781 -17.9375 15.375 -18.03125 C 15.457031 -18.125 15.5625 -18.273438 15.6875 -18.484375 L 18.796875 -24.203125 C 19.015625 -24.578125 19.242188 -24.84375 19.484375 -25 C 19.734375 -25.164062 20.046875 -25.25 20.421875 -25.25 L 26.09375 -25.25 C 26.539062 -25.25 26.863281 -25.148438 27.0625 -24.953125 C 27.257812 -24.753906 27.359375 -24.4375 27.359375 -24 L 27.359375 -1.265625 C 27.359375 -0.816406 27.257812 -0.492188 27.0625 -0.296875 C 26.863281 -0.0976562 26.539062 0 26.09375 0 L 20.703125 0 C 20.253906 0 19.929688 -0.0976562 19.734375 -0.296875 C 19.535156 -0.492188 19.4375 -0.816406 19.4375 -1.265625 L 19.4375 -13.609375 L 17.359375 -9.78125 C 17.148438 -9.382812 16.898438 -9.097656 16.609375 -8.921875 C 16.316406 -8.753906 15.945312 -8.671875 15.5 -8.671875 L 14.09375 -8.671875 C 13.65625 -8.671875 13.289062 -8.753906 13 -8.921875 C 12.707031 -9.097656 12.457031 -9.382812 12.25 -9.78125 L 10.171875 -13.609375 L 10.171875 -1.265625 C 10.171875 -0.816406 10.070312 -0.492188 9.875 -0.296875 C 9.675781 -0.0976562 9.351562 0 8.90625 0 Z M 8.90625 0 "/></g></g></g><g fill="#ffffff" fill-opacity="1"><g transform="translate(201.904044, 49.37103)"><g><path d="M 3.125 0 C 2.675781 0 2.351562 -0.0976562 2.15625 -0.296875 C 1.957031 -0.492188 1.859375 -0.816406 1.859375 -1.265625 L 1.859375 -5.4375 C 1.859375 -5.882812 1.957031 -6.207031 2.15625 -6.40625 C 2.351562 -6.601562 2.675781 -6.703125 3.125 -6.703125 L 6.59375 -6.703125 L 6.59375 -18.484375 L 3.125 -18.484375 C 2.675781 -18.484375 2.351562 -18.582031 2.15625 -18.78125 C 1.957031 -18.976562 1.859375 -19.300781 1.859375 -19.75 L 1.859375 -24 C 1.859375 -24.4375 1.957031 -24.753906 2.15625 -24.953125 C 2.351562 -25.148438 2.675781 -25.25 3.125 -25.25 L 18.0625 -25.25 C 18.507812 -25.25 18.832031 -25.148438 19.03125 -24.953125 C 19.226562 -24.753906 19.328125 -24.4375 19.328125 -24 L 19.328125 -19.75 C 19.328125 -19.300781 19.226562 -18.976562 19.03125 -18.78125 C 18.832031 -18.582031 18.507812 -18.484375 18.0625 -18.484375 L 14.65625 -18.484375 L 14.65625 -6.703125 L 18.0625 -6.703125 C 18.507812 -6.703125 18.832031 -6.601562 19.03125 -6.40625 C 19.226562 -6.207031 19.328125 -5.882812 19.328125 -5.4375 L 19.328125 -1.265625 C 19.328125 -0.816406 19.226562 -0.492188 19.03125 -0.296875 C 18.832031 -0.0976562 18.507812 0 18.0625 0 Z M 3.125 0 "/></g></g></g><g fill="#ffffff" fill-opacity="1"><g transform="translate(225.369133, 49.37103)"><g><path d="M 14.140625 0 L 3.046875 0 C 2.609375 0 2.285156 -0.0976562 2.078125 -0.296875 C 1.878906 -0.492188 1.78125 -0.816406 1.78125 -1.265625 L 1.78125 -5.359375 C 1.78125 -5.804688 1.878906 -6.128906 2.078125 -6.328125 C 2.285156 -6.523438 2.609375 -6.625 3.046875 -6.625 L 12.484375 -6.625 C 12.785156 -6.625 13.015625 -6.722656 13.171875 -6.921875 C 13.328125 -7.117188 13.40625 -7.359375 13.40625 -7.640625 C 13.40625 -8.046875 13.328125 -8.335938 13.171875 -8.515625 C 13.015625 -8.703125 12.785156 -8.8125 12.484375 -8.84375 L 7.21875 -9.578125 C 5.582031 -9.804688 4.265625 -10.34375 3.265625 -11.1875 C 2.273438 -12.03125 1.78125 -13.4375 1.78125 -15.40625 L 1.78125 -19.078125 C 1.78125 -21.066406 2.421875 -22.59375 3.703125 -23.65625 C 4.992188 -24.71875 6.773438 -25.25 9.046875 -25.25 L 18.875 -25.25 C 19.3125 -25.25 19.628906 -25.148438 19.828125 -24.953125 C 20.035156 -24.753906 20.140625 -24.4375 20.140625 -24 L 20.140625 -19.8125 C 20.140625 -19.375 20.035156 -19.054688 19.828125 -18.859375 C 19.628906 -18.660156 19.3125 -18.5625 18.875 -18.5625 L 10.703125 -18.5625 C 10.398438 -18.5625 10.164062 -18.457031 10 -18.25 C 9.832031 -18.050781 9.75 -17.800781 9.75 -17.5 C 9.75 -17.195312 9.832031 -16.941406 10 -16.734375 C 10.164062 -16.523438 10.398438 -16.40625 10.703125 -16.375 L 15.921875 -15.6875 C 17.554688 -15.445312 18.875 -14.90625 19.875 -14.0625 C 20.882812 -13.21875 21.390625 -11.816406 21.390625 -9.859375 L 21.390625 -6.171875 C 21.390625 -4.179688 20.738281 -2.65625 19.4375 -1.59375 C 18.144531 -0.53125 16.378906 0 14.140625 0 Z M 14.140625 0 "/></g></g></g><g fill="#ffffff" fill-opacity="1"><g transform="translate(250.412558, 49.37103)"><g><path d="M 14.140625 0 L 3.046875 0 C 2.609375 0 2.285156 -0.0976562 2.078125 -0.296875 C 1.878906 -0.492188 1.78125 -0.816406 1.78125 -1.265625 L 1.78125 -5.359375 C 1.78125 -5.804688 1.878906 -6.128906 2.078125 -6.328125 C 2.285156 -6.523438 2.609375 -6.625 3.046875 -6.625 L 12.484375 -6.625 C 12.785156 -6.625 13.015625 -6.722656 13.171875 -6.921875 C 13.328125 -7.117188 13.40625 -7.359375 13.40625 -7.640625 C 13.40625 -8.046875 13.328125 -8.335938 13.171875 -8.515625 C 13.015625 -8.703125 12.785156 -8.8125 12.484375 -8.84375 L 7.21875 -9.578125 C 5.582031 -9.804688 4.265625 -10.34375 3.265625 -11.1875 C 2.273438 -12.03125 1.78125 -13.4375 1.78125 -15.40625 L 1.78125 -19.078125 C 1.78125 -21.066406 2.421875 -22.59375 3.703125 -23.65625 C 4.992188 -24.71875 6.773438 -25.25 9.046875 -25.25 L 18.875 -25.25 C 19.3125 -25.25 19.628906 -25.148438 19.828125 -24.953125 C 20.035156 -24.753906 20.140625 -24.4375 20.140625 -24 L 20.140625 -19.8125 C 20.140625 -19.375 20.035156 -19.054688 19.828125 -18.859375 C 19.628906 -18.660156 19.3125 -18.5625 18.875 -18.5625 L 10.703125 -18.5625 C 10.398438 -18.5625 10.164062 -18.457031 10 -18.25 C 9.832031 -18.050781 9.75 -17.800781 9.75 -17.5 C 9.75 -17.195312 9.832031 -16.941406 10 -16.734375 C 10.164062 -16.523438 10.398438 -16.40625 10.703125 -16.375 L 15.921875 -15.6875 C 17.554688 -15.445312 18.875 -14.90625 19.875 -14.0625 C 20.882812 -13.21875 21.390625 -11.816406 21.390625 -9.859375 L 21.390625 -6.171875 C 21.390625 -4.179688 20.738281 -2.65625 19.4375 -1.59375 C 18.144531 -0.53125 16.378906 0 14.140625 0 Z M 14.140625 0 "/></g></g></g><g fill="#ffffff" fill-opacity="1"><g transform="translate(275.455982, 49.37103)"><g><path d="M 3.125 0 C 2.675781 0 2.351562 -0.0976562 2.15625 -0.296875 C 1.957031 -0.492188 1.859375 -0.816406 1.859375 -1.265625 L 1.859375 -5.4375 C 1.859375 -5.882812 1.957031 -6.207031 2.15625 -6.40625 C 2.351562 -6.601562 2.675781 -6.703125 3.125 -6.703125 L 6.59375 -6.703125 L 6.59375 -18.484375 L 3.125 -18.484375 C 2.675781 -18.484375 2.351562 -18.582031 2.15625 -18.78125 C 1.957031 -18.976562 1.859375 -19.300781 1.859375 -19.75 L 1.859375 -24 C 1.859375 -24.4375 1.957031 -24.753906 2.15625 -24.953125 C 2.351562 -25.148438 2.675781 -25.25 3.125 -25.25 L 18.0625 -25.25 C 18.507812 -25.25 18.832031 -25.148438 19.03125 -24.953125 C 19.226562 -24.753906 19.328125 -24.4375 19.328125 -24 L 19.328125 -19.75 C 19.328125 -19.300781 19.226562 -18.976562 19.03125 -18.78125 C 18.832031 -18.582031 18.507812 -18.484375 18.0625 -18.484375 L 14.65625 -18.484375 L 14.65625 -6.703125 L 18.0625 -6.703125 C 18.507812 -6.703125 18.832031 -6.601562 19.03125 -6.40625 C 19.226562 -6.207031 19.328125 -5.882812 19.328125 -5.4375 L 19.328125 -1.265625 C 19.328125 -0.816406 19.226562 -0.492188 19.03125 -0.296875 C 18.832031 -0.0976562 18.507812 0 18.0625 0 Z M 3.125 0 "/></g></g></g><g fill="#ffffff" fill-opacity="1"><g transform="translate(298.921072, 49.37103)"><g><path d="M 23.8125 -6.625 C 23.8125 -5.550781 23.65625 -4.578125 23.34375 -3.703125 C 23.03125 -2.828125 22.46875 -2.078125 21.65625 -1.453125 C 20.851562 -0.835938 19.742188 -0.351562 18.328125 0 C 16.910156 0.351562 15.113281 0.53125 12.9375 0.53125 C 10.769531 0.53125 8.972656 0.351562 7.546875 0 C 6.117188 -0.351562 5 -0.835938 4.1875 -1.453125 C 3.382812 -2.078125 2.820312 -2.828125 2.5 -3.703125 C 2.1875 -4.578125 2.03125 -5.550781 2.03125 -6.625 L 2.03125 -18.59375 C 2.03125 -19.664062 2.1875 -20.640625 2.5 -21.515625 C 2.820312 -22.390625 3.382812 -23.144531 4.1875 -23.78125 C 5 -24.414062 6.117188 -24.90625 7.546875 -25.25 C 8.972656 -25.601562 10.769531 -25.78125 12.9375 -25.78125 C 15.113281 -25.78125 16.910156 -25.601562 18.328125 -25.25 C 19.742188 -24.90625 20.851562 -24.414062 21.65625 -23.78125 C 22.46875 -23.144531 23.03125 -22.390625 23.34375 -21.515625 C 23.65625 -20.640625 23.8125 -19.664062 23.8125 -18.59375 Z M 10 -7.890625 C 10 -7.421875 10.171875 -7.03125 10.515625 -6.71875 C 10.867188 -6.40625 11.675781 -6.25 12.9375 -6.25 C 14.207031 -6.25 15.015625 -6.40625 15.359375 -6.71875 C 15.710938 -7.03125 15.890625 -7.421875 15.890625 -7.890625 L 15.890625 -17.328125 C 15.890625 -17.773438 15.710938 -18.15625 15.359375 -18.46875 C 15.015625 -18.78125 14.207031 -18.9375 12.9375 -18.9375 C 11.675781 -18.9375 10.867188 -18.78125 10.515625 -18.46875 C 10.171875 -18.15625 10 -17.773438 10 -17.328125 Z M 10 -7.890625 "/></g></g></g><g fill="#ffffff" fill-opacity="1"><g transform="translate(327.015949, 49.37103)"><g><path d="M 8.9375 0 L 3.6875 0 C 3.238281 0 2.914062 -0.0976562 2.71875 -0.296875 C 2.519531 -0.492188 2.421875 -0.816406 2.421875 -1.265625 L 2.421875 -24 C 2.421875 -24.4375 2.519531 -24.753906 2.71875 -24.953125 C 2.914062 -25.148438 3.238281 -25.25 3.6875 -25.25 L 7.328125 -25.25 C 7.773438 -25.25 8.15625 -25.175781 8.46875 -25.03125 C 8.78125 -24.894531 9.09375 -24.65625 9.40625 -24.3125 L 16.203125 -16.515625 L 16.203125 -24 C 16.203125 -24.4375 16.300781 -24.753906 16.5 -24.953125 C 16.695312 -25.148438 17.019531 -25.25 17.46875 -25.25 L 22.734375 -25.25 C 23.171875 -25.25 23.488281 -25.148438 23.6875 -24.953125 C 23.894531 -24.753906 24 -24.4375 24 -24 L 24 -1.265625 C 24 -0.816406 23.894531 -0.492188 23.6875 -0.296875 C 23.488281 -0.0976562 23.171875 0 22.734375 0 L 17.46875 0 C 17.019531 0 16.695312 -0.0976562 16.5 -0.296875 C 16.300781 -0.492188 16.203125 -0.816406 16.203125 -1.265625 L 16.203125 -5.578125 L 10.203125 -12.84375 L 10.203125 -1.265625 C 10.203125 -0.816406 10.101562 -0.492188 9.90625 -0.296875 C 9.707031 -0.0976562 9.382812 0 8.9375 0 Z M 8.9375 0 "/></g></g></g><g fill="#ffffff" fill-opacity="1"><g transform="translate(355.672021, 49.37103)"><g><path d="M 14.140625 0 L 3.046875 0 C 2.609375 0 2.285156 -0.0976562 2.078125 -0.296875 C 1.878906 -0.492188 1.78125 -0.816406 1.78125 -1.265625 L 1.78125 -5.359375 C 1.78125 -5.804688 1.878906 -6.128906 2.078125 -6.328125 C 2.285156 -6.523438 2.609375 -6.625 3.046875 -6.625 L 12.484375 -6.625 C 12.785156 -6.625 13.015625 -6.722656 13.171875 -6.921875 C 13.328125 -7.117188 13.40625 -7.359375 13.40625 -7.640625 C 13.40625 -8.046875 13.328125 -8.335938 13.171875 -8.515625 C 13.015625 -8.703125 12.785156 -8.8125 12.484375 -8.84375 L 7.21875 -9.578125 C 5.582031 -9.804688 4.265625 -10.34375 3.265625 -11.1875 C 2.273438 -12.03125 1.78125 -13.4375 1.78125 -15.40625 L 1.78125 -19.078125 C 1.78125 -21.066406 2.421875 -22.59375 3.703125 -23.65625 C 4.992188 -24.71875 6.773438 -25.25 9.046875 -25.25 L 18.875 -25.25 C 19.3125 -25.25 19.628906 -25.148438 19.828125 -24.953125 C 20.035156 -24.753906 20.140625 -24.4375 20.140625 -24 L 20.140625 -19.8125 C 20.140625 -19.375 20.035156 -19.054688 19.828125 -18.859375 C 19.628906 -18.660156 19.3125 -18.5625 18.875 -18.5625 L 10.703125 -18.5625 C 10.398438 -18.5625 10.164062 -18.457031 10 -18.25 C 9.832031 -18.050781 9.75 -17.800781 9.75 -17.5 C 9.75 -17.195312 9.832031 -16.941406 10 -16.734375 C 10.164062 -16.523438 10.398438 -16.40625 10.703125 -16.375 L 15.921875 -15.6875 C 17.554688 -15.445312 18.875 -14.90625 19.875 -14.0625 C 20.882812 -13.21875 21.390625 -11.816406 21.390625 -9.859375 L 21.390625 -6.171875 C 21.390625 -4.179688 20.738281 -2.65625 19.4375 -1.59375 C 18.144531 -0.53125 16.378906 0 14.140625 0 Z M 14.140625 0 "/></g></g></g><g clip-path="url(#2d4a115c55)"><path fill="#287777" d="M 83.046875 47.410156 C 82.933594 44.242188 81.183594 41.359375 78.308594 39.238281 C 76.984375 38.257812 75.417969 37.4375 73.660156 36.824219 C 76.230469 34.65625 77.867188 31.398438 77.867188 27.757812 C 77.867188 21.226562 72.609375 15.933594 66.128906 15.933594 C 59.648438 15.933594 54.390625 21.226562 54.390625 27.757812 C 54.390625 31.398438 56.027344 34.65625 58.597656 36.824219 C 56.839844 37.4375 55.277344 38.257812 53.949219 39.238281 C 51.078125 41.359375 49.332031 44.242188 49.210938 47.410156 C 49.167969 48.523438 49.289062 49.460938 49.546875 50.261719 C 53.9375 51.355469 59.75 52.019531 66.128906 52.019531 C 72.523438 52.019531 78.351562 51.351562 82.746094 50.253906 C 82.980469 49.457031 83.089844 48.519531 83.046875 47.410156 " fill-opacity="1" fill-rule="nonzero"/></g><g clip-path="url(#fa60bebbff)"><path fill="#287777" d="M 46.464844 47.410156 C 46.347656 44.242188 44.601562 41.359375 41.726562 39.238281 C 40.398438 38.257812 38.835938 37.4375 37.078125 36.824219 C 39.648438 34.65625 41.28125 31.398438 41.28125 27.757812 C 41.28125 21.226562 36.027344 15.933594 29.546875 15.933594 C 23.0625 15.933594 17.808594 21.226562 17.808594 27.757812 C 17.808594 31.398438 19.445312 34.65625 22.015625 36.824219 C 20.257812 37.4375 18.695312 38.257812 17.367188 39.238281 C 14.496094 41.359375 12.746094 44.242188 12.628906 47.410156 C 12.585938 48.523438 12.707031 49.460938 12.964844 50.261719 C 17.355469 51.355469 23.167969 52.019531 29.546875 52.019531 C 35.941406 52.019531 41.765625 51.351562 46.160156 50.253906 C 46.398438 49.457031 46.507812 48.519531 46.464844 47.410156 " fill-opacity="1" fill-rule="nonzero"/></g><g clip-path="url(#13c2e18db7)"><path fill="#40bfbc" d="M 65.824219 54.492188 C 65.699219 51.121094 63.839844 48.058594 60.785156 45.800781 C 59.375 44.757812 57.710938 43.886719 55.84375 43.238281 C 58.574219 40.933594 60.3125 37.472656 60.3125 33.597656 C 60.3125 26.65625 54.730469 21.03125 47.839844 21.03125 C 40.945312 21.03125 35.359375 26.65625 35.359375 33.597656 C 35.359375 37.472656 37.101562 40.933594 39.832031 43.238281 C 37.964844 43.886719 36.300781 44.757812 34.890625 45.800781 C 31.835938 48.058594 29.980469 51.121094 29.851562 54.492188 C 29.808594 55.675781 29.9375 56.671875 30.210938 57.519531 C 34.878906 58.683594 41.058594 59.390625 47.839844 59.390625 C 54.636719 59.390625 60.828125 58.679688 65.5 57.511719 C 65.75 56.664062 65.867188 55.671875 65.824219 54.492188 " fill-opacity="1" fill-rule="nonzero"/></g></svg>