<svg xmlns="http://www.w3.org/2000/svg" xmlns:xlink="http://www.w3.org/1999/xlink" width="800" zoomAndPan="magnify" viewBox="0 0 600 74.999997" height="100" preserveAspectRatio="xMidYMid meet" version="1.0"><defs><g/><clipPath id="cc261de277"><path d="M 4.121094 2.871094 L 596.109375 2.871094 L 596.109375 72.789062 L 4.121094 72.789062 Z M 4.121094 2.871094 " clip-rule="nonzero"/></clipPath><clipPath id="e8b00fd8a3"><path d="M 13.121094 2.871094 L 587.109375 2.871094 C 592.082031 2.871094 596.109375 6.902344 596.109375 11.871094 L 596.109375 63.789062 C 596.109375 68.761719 592.082031 72.789062 587.109375 72.789062 L 13.121094 72.789062 C 8.152344 72.789062 4.121094 68.761719 4.121094 63.789062 L 4.121094 11.871094 C 4.121094 6.902344 8.152344 2.871094 13.121094 2.871094 Z M 13.121094 2.871094 " clip-rule="nonzero"/></clipPath><clipPath id="b6ee0afd40"><path d="M 48 16.582031 L 82.214844 16.582031 L 82.214844 53 L 48 53 Z M 48 16.582031 " clip-rule="nonzero"/></clipPath><clipPath id="015a603b78"><path d="M 11.714844 16.582031 L 46 16.582031 L 46 53 L 11.714844 53 Z M 11.714844 16.582031 " clip-rule="nonzero"/></clipPath><clipPath id="95e3add680"><path d="M 28 21 L 65 21 L 65 60.082031 L 28 60.082031 Z M 28 21 " clip-rule="nonzero"/></clipPath></defs><g clip-path="url(#cc261de277)"><g clip-path="url(#e8b00fd8a3)"><path fill="#5ce1e6" d="M 4.121094 2.871094 L 596.109375 2.871094 L 596.109375 72.789062 L 4.121094 72.789062 Z M 4.121094 2.871094 " fill-opacity="1" fill-rule="nonzero"/></g></g><g clip-path="url(#b6ee0afd40)"><path fill="#287777" d="M 82.1875 48.09375 C 82.070312 44.921875 80.320312 42.042969 77.449219 39.917969 C 76.121094 38.9375 74.554688 38.117188 72.796875 37.507812 C 75.367188 35.335938 77.003906 32.082031 77.003906 28.4375 C 77.003906 21.910156 71.75 16.613281 65.265625 16.613281 C 58.785156 16.613281 53.53125 21.910156 53.53125 28.4375 C 53.53125 32.082031 55.164062 35.335938 57.734375 37.507812 C 55.976562 38.117188 54.414062 38.9375 53.085938 39.917969 C 50.214844 42.042969 48.46875 44.921875 48.347656 48.09375 C 48.304688 49.207031 48.425781 50.144531 48.683594 50.941406 C 53.074219 52.035156 58.886719 52.703125 65.265625 52.703125 C 71.660156 52.703125 77.488281 52.03125 81.882812 50.933594 C 82.117188 50.136719 82.226562 49.203125 82.1875 48.09375 " fill-opacity="1" fill-rule="nonzero"/></g><g clip-path="url(#015a603b78)"><path fill="#287777" d="M 45.601562 48.09375 C 45.488281 44.921875 43.738281 42.042969 40.863281 39.917969 C 39.539062 38.9375 37.972656 38.117188 36.214844 37.507812 C 38.785156 35.335938 40.421875 32.082031 40.421875 28.4375 C 40.421875 21.910156 35.164062 16.613281 28.683594 16.613281 C 22.203125 16.613281 16.945312 21.910156 16.945312 28.4375 C 16.945312 32.082031 18.582031 35.335938 21.152344 37.507812 C 19.394531 38.117188 17.832031 38.9375 16.503906 39.917969 C 13.632812 42.042969 11.886719 44.921875 11.765625 48.09375 C 11.722656 49.207031 11.84375 50.144531 12.101562 50.941406 C 16.492188 52.035156 22.304688 52.703125 28.683594 52.703125 C 35.078125 52.703125 40.90625 52.03125 45.300781 50.933594 C 45.535156 50.136719 45.644531 49.203125 45.601562 48.09375 " fill-opacity="1" fill-rule="nonzero"/></g><g clip-path="url(#95e3add680)"><path fill="#40bfbc" d="M 64.960938 55.175781 C 64.835938 51.800781 62.976562 48.742188 59.921875 46.484375 C 58.511719 45.441406 56.847656 44.570312 54.980469 43.917969 C 57.714844 41.613281 59.453125 38.152344 59.453125 34.28125 C 59.453125 27.339844 53.867188 21.710938 46.976562 21.710938 C 40.085938 21.710938 34.5 27.339844 34.5 34.28125 C 34.5 38.152344 36.238281 41.613281 38.96875 43.917969 C 37.101562 44.570312 35.4375 45.441406 34.027344 46.484375 C 30.976562 48.742188 29.117188 51.800781 28.988281 55.175781 C 28.945312 56.355469 29.074219 57.355469 29.347656 58.203125 C 34.015625 59.363281 40.195312 60.070312 46.976562 60.070312 C 53.773438 60.070312 59.96875 59.359375 64.636719 58.195312 C 64.886719 57.34375 65.003906 56.351562 64.960938 55.175781 " fill-opacity="1" fill-rule="nonzero"/></g><g fill="#0d4244" fill-opacity="0.302"><g transform="translate(153.477037, 55.600704)"><g><path d="M 9.46875 0 L 3.828125 0 C 3.359375 0 3.019531 -0.101562 2.8125 -0.3125 C 2.613281 -0.519531 2.515625 -0.851562 2.515625 -1.3125 L 2.515625 -24.90625 C 2.515625 -25.375 2.613281 -25.707031 2.8125 -25.90625 C 3.019531 -26.113281 3.359375 -26.21875 3.828125 -26.21875 L 14.96875 -26.21875 C 18.269531 -26.21875 20.523438 -25.5625 21.734375 -24.25 C 22.953125 -22.945312 23.5625 -21.238281 23.5625 -19.125 L 23.5625 -14.453125 C 23.5625 -12.347656 22.953125 -10.640625 21.734375 -9.328125 C 20.523438 -8.015625 18.269531 -7.359375 14.96875 -7.359375 L 10.78125 -7.359375 L 10.78125 -1.3125 C 10.78125 -0.851562 10.675781 -0.519531 10.46875 -0.3125 C 10.257812 -0.101562 9.925781 0 9.46875 0 Z M 10.703125 -19.40625 L 10.703125 -13.90625 L 13.984375 -13.90625 C 14.691406 -13.90625 15.15625 -14.085938 15.375 -14.453125 C 15.59375 -14.816406 15.703125 -15.234375 15.703125 -15.703125 L 15.703125 -17.625 C 15.703125 -18.082031 15.59375 -18.492188 15.375 -18.859375 C 15.15625 -19.222656 14.691406 -19.40625 13.984375 -19.40625 Z M 10.703125 -19.40625 "/></g></g></g><g fill="#0d4244" fill-opacity="0.302"><g transform="translate(180.648587, 55.600704)"><g><path d="M 20.71875 0 L 3.828125 0 C 3.359375 0 3.019531 -0.101562 2.8125 -0.3125 C 2.613281 -0.519531 2.515625 -0.851562 2.515625 -1.3125 L 2.515625 -24.90625 C 2.515625 -25.375 2.613281 -25.707031 2.8125 -25.90625 C 3.019531 -26.113281 3.359375 -26.21875 3.828125 -26.21875 L 20.71875 -26.21875 C 21.1875 -26.21875 21.519531 -26.113281 21.71875 -25.90625 C 21.925781 -25.707031 22.03125 -25.375 22.03125 -24.90625 L 22.03125 -20.65625 C 22.03125 -20.1875 21.925781 -19.847656 21.71875 -19.640625 C 21.519531 -19.441406 21.1875 -19.34375 20.71875 -19.34375 L 10.671875 -19.34375 L 10.671875 -16.53125 L 17.78125 -16.53125 C 18.238281 -16.53125 18.566406 -16.425781 18.765625 -16.21875 C 18.972656 -16.019531 19.078125 -15.6875 19.078125 -15.21875 L 19.078125 -11.328125 C 19.078125 -10.867188 18.972656 -10.535156 18.765625 -10.328125 C 18.566406 -10.117188 18.238281 -10.015625 17.78125 -10.015625 L 10.671875 -10.015625 L 10.671875 -6.890625 L 20.71875 -6.890625 C 21.1875 -6.890625 21.519531 -6.785156 21.71875 -6.578125 C 21.925781 -6.367188 22.03125 -6.035156 22.03125 -5.578125 L 22.03125 -1.3125 C 22.03125 -0.851562 21.925781 -0.519531 21.71875 -0.3125 C 21.519531 -0.101562 21.1875 0 20.71875 0 Z M 20.71875 0 "/></g></g></g><g fill="#0d4244" fill-opacity="0.302"><g transform="translate(206.80032, 55.600704)"><g><path d="M 10.75 -19.671875 L 10.75 -15 L 13.46875 -15 C 14.101562 -15 14.53125 -15.160156 14.75 -15.484375 C 14.96875 -15.816406 15.078125 -16.226562 15.078125 -16.71875 L 15.078125 -17.953125 C 15.078125 -18.441406 14.96875 -18.847656 14.75 -19.171875 C 14.53125 -19.503906 14.101562 -19.671875 13.46875 -19.671875 Z M 9.4375 0 L 3.828125 0 C 3.359375 0 3.019531 -0.101562 2.8125 -0.3125 C 2.613281 -0.519531 2.515625 -0.851562 2.515625 -1.3125 L 2.515625 -24.90625 C 2.515625 -25.375 2.613281 -25.707031 2.8125 -25.90625 C 3.019531 -26.113281 3.359375 -26.21875 3.828125 -26.21875 L 15.953125 -26.21875 C 18.671875 -26.21875 20.546875 -25.65625 21.578125 -24.53125 C 22.609375 -23.40625 23.125 -21.941406 23.125 -20.140625 L 23.125 -18.46875 C 23.125 -17.445312 22.972656 -16.578125 22.671875 -15.859375 C 22.367188 -15.140625 21.84375 -14.625 21.09375 -14.3125 C 22.40625 -14.164062 23.46875 -13.628906 24.28125 -12.703125 C 25.09375 -11.785156 25.5 -10.5625 25.5 -9.03125 L 25.5 -1.3125 C 25.5 -0.851562 25.394531 -0.519531 25.1875 -0.3125 C 24.976562 -0.101562 24.644531 0 24.1875 0 L 18.53125 0 C 18.070312 0 17.738281 -0.101562 17.53125 -0.3125 C 17.332031 -0.519531 17.234375 -0.851562 17.234375 -1.3125 L 17.234375 -6.890625 C 17.234375 -7.421875 17.128906 -7.8125 16.921875 -8.0625 C 16.710938 -8.320312 16.351562 -8.453125 15.84375 -8.453125 L 10.75 -8.453125 L 10.75 -1.3125 C 10.75 -0.851562 10.644531 -0.519531 10.4375 -0.3125 C 10.226562 -0.101562 9.894531 0 9.4375 0 Z M 9.4375 0 "/></g></g></g><g fill="#0d4244" fill-opacity="0.302"><g transform="translate(236.193604, 55.600704)"><g><path d="M 9.25 0 L 3.828125 0 C 3.359375 0 3.019531 -0.101562 2.8125 -0.3125 C 2.613281 -0.519531 2.515625 -0.851562 2.515625 -1.3125 L 2.515625 -24.90625 C 2.515625 -25.375 2.613281 -25.707031 2.8125 -25.90625 C 3.019531 -26.113281 3.359375 -26.21875 3.828125 -26.21875 L 9.6875 -26.21875 C 10.070312 -26.21875 10.390625 -26.132812 10.640625 -25.96875 C 10.898438 -25.800781 11.140625 -25.519531 11.359375 -25.125 L 14.640625 -19.1875 C 14.765625 -18.96875 14.867188 -18.8125 14.953125 -18.71875 C 15.035156 -18.625 15.148438 -18.578125 15.296875 -18.578125 L 15.625 -18.578125 C 15.769531 -18.578125 15.882812 -18.625 15.96875 -18.71875 C 16.050781 -18.8125 16.15625 -18.96875 16.28125 -19.1875 L 19.515625 -25.125 C 19.734375 -25.519531 19.96875 -25.800781 20.21875 -25.96875 C 20.476562 -26.132812 20.804688 -26.21875 21.203125 -26.21875 L 27.09375 -26.21875 C 27.5625 -26.21875 27.894531 -26.113281 28.09375 -25.90625 C 28.300781 -25.707031 28.40625 -25.375 28.40625 -24.90625 L 28.40625 -1.3125 C 28.40625 -0.851562 28.300781 -0.519531 28.09375 -0.3125 C 27.894531 -0.101562 27.5625 0 27.09375 0 L 21.484375 0 C 21.023438 0 20.691406 -0.101562 20.484375 -0.3125 C 20.273438 -0.519531 20.171875 -0.851562 20.171875 -1.3125 L 20.171875 -14.125 L 18.03125 -10.15625 C 17.8125 -9.75 17.550781 -9.453125 17.25 -9.265625 C 16.945312 -9.085938 16.5625 -9 16.09375 -9 L 14.640625 -9 C 14.179688 -9 13.796875 -9.085938 13.484375 -9.265625 C 13.179688 -9.453125 12.925781 -9.75 12.71875 -10.15625 L 10.5625 -14.125 L 10.5625 -1.3125 C 10.5625 -0.851562 10.457031 -0.519531 10.25 -0.3125 C 10.039062 -0.101562 9.707031 0 9.25 0 Z M 9.25 0 "/></g></g></g><g fill="#0d4244" fill-opacity="0.302"><g transform="translate(269.447608, 55.600704)"><g><path d="M 3.234375 0 C 2.773438 0 2.441406 -0.101562 2.234375 -0.3125 C 2.035156 -0.519531 1.9375 -0.851562 1.9375 -1.3125 L 1.9375 -5.640625 C 1.9375 -6.109375 2.035156 -6.441406 2.234375 -6.640625 C 2.441406 -6.847656 2.773438 -6.953125 3.234375 -6.953125 L 6.84375 -6.953125 L 6.84375 -19.1875 L 3.234375 -19.1875 C 2.773438 -19.1875 2.441406 -19.289062 2.234375 -19.5 C 2.035156 -19.707031 1.9375 -20.039062 1.9375 -20.5 L 1.9375 -24.90625 C 1.9375 -25.375 2.035156 -25.707031 2.234375 -25.90625 C 2.441406 -26.113281 2.773438 -26.21875 3.234375 -26.21875 L 18.75 -26.21875 C 19.21875 -26.21875 19.550781 -26.113281 19.75 -25.90625 C 19.957031 -25.707031 20.0625 -25.375 20.0625 -24.90625 L 20.0625 -20.5 C 20.0625 -20.039062 19.957031 -19.707031 19.75 -19.5 C 19.550781 -19.289062 19.21875 -19.1875 18.75 -19.1875 L 15.21875 -19.1875 L 15.21875 -6.953125 L 18.75 -6.953125 C 19.21875 -6.953125 19.550781 -6.847656 19.75 -6.640625 C 19.957031 -6.441406 20.0625 -6.109375 20.0625 -5.640625 L 20.0625 -1.3125 C 20.0625 -0.851562 19.957031 -0.519531 19.75 -0.3125 C 19.550781 -0.101562 19.21875 0 18.75 0 Z M 3.234375 0 "/></g></g></g><g fill="#0d4244" fill-opacity="0.302"><g transform="translate(293.814664, 55.600704)"><g><path d="M 14.671875 0 L 3.171875 0 C 2.710938 0 2.378906 -0.101562 2.171875 -0.3125 C 1.960938 -0.519531 1.859375 -0.851562 1.859375 -1.3125 L 1.859375 -5.578125 C 1.859375 -6.035156 1.960938 -6.367188 2.171875 -6.578125 C 2.378906 -6.785156 2.710938 -6.890625 3.171875 -6.890625 L 12.96875 -6.890625 C 13.28125 -6.890625 13.515625 -6.988281 13.671875 -7.1875 C 13.828125 -7.394531 13.90625 -7.644531 13.90625 -7.9375 C 13.90625 -8.351562 13.828125 -8.65625 13.671875 -8.84375 C 13.515625 -9.039062 13.28125 -9.148438 12.96875 -9.171875 L 7.5 -9.9375 C 5.800781 -10.1875 4.4375 -10.75 3.40625 -11.625 C 2.375 -12.5 1.859375 -13.953125 1.859375 -15.984375 L 1.859375 -19.8125 C 1.859375 -21.875 2.523438 -23.457031 3.859375 -24.5625 C 5.191406 -25.664062 7.035156 -26.21875 9.390625 -26.21875 L 19.59375 -26.21875 C 20.050781 -26.21875 20.382812 -26.113281 20.59375 -25.90625 C 20.800781 -25.707031 20.90625 -25.375 20.90625 -24.90625 L 20.90625 -20.578125 C 20.90625 -20.117188 20.800781 -19.785156 20.59375 -19.578125 C 20.382812 -19.367188 20.050781 -19.265625 19.59375 -19.265625 L 11.109375 -19.265625 C 10.796875 -19.265625 10.550781 -19.160156 10.375 -18.953125 C 10.207031 -18.742188 10.125 -18.484375 10.125 -18.171875 C 10.125 -17.859375 10.207031 -17.59375 10.375 -17.375 C 10.550781 -17.15625 10.796875 -17.035156 11.109375 -17.015625 L 16.53125 -16.28125 C 18.226562 -16.039062 19.597656 -15.484375 20.640625 -14.609375 C 21.691406 -13.734375 22.21875 -12.273438 22.21875 -10.234375 L 22.21875 -6.40625 C 22.21875 -4.34375 21.539062 -2.757812 20.1875 -1.65625 C 18.84375 -0.550781 17.003906 0 14.671875 0 Z M 14.671875 0 "/></g></g></g><g fill="#0d4244" fill-opacity="0.302"><g transform="translate(319.820719, 55.600704)"><g><path d="M 14.671875 0 L 3.171875 0 C 2.710938 0 2.378906 -0.101562 2.171875 -0.3125 C 1.960938 -0.519531 1.859375 -0.851562 1.859375 -1.3125 L 1.859375 -5.578125 C 1.859375 -6.035156 1.960938 -6.367188 2.171875 -6.578125 C 2.378906 -6.785156 2.710938 -6.890625 3.171875 -6.890625 L 12.96875 -6.890625 C 13.28125 -6.890625 13.515625 -6.988281 13.671875 -7.1875 C 13.828125 -7.394531 13.90625 -7.644531 13.90625 -7.9375 C 13.90625 -8.351562 13.828125 -8.65625 13.671875 -8.84375 C 13.515625 -9.039062 13.28125 -9.148438 12.96875 -9.171875 L 7.5 -9.9375 C 5.800781 -10.1875 4.4375 -10.75 3.40625 -11.625 C 2.375 -12.5 1.859375 -13.953125 1.859375 -15.984375 L 1.859375 -19.8125 C 1.859375 -21.875 2.523438 -23.457031 3.859375 -24.5625 C 5.191406 -25.664062 7.035156 -26.21875 9.390625 -26.21875 L 19.59375 -26.21875 C 20.050781 -26.21875 20.382812 -26.113281 20.59375 -25.90625 C 20.800781 -25.707031 20.90625 -25.375 20.90625 -24.90625 L 20.90625 -20.578125 C 20.90625 -20.117188 20.800781 -19.785156 20.59375 -19.578125 C 20.382812 -19.367188 20.050781 -19.265625 19.59375 -19.265625 L 11.109375 -19.265625 C 10.796875 -19.265625 10.550781 -19.160156 10.375 -18.953125 C 10.207031 -18.742188 10.125 -18.484375 10.125 -18.171875 C 10.125 -17.859375 10.207031 -17.59375 10.375 -17.375 C 10.550781 -17.15625 10.796875 -17.035156 11.109375 -17.015625 L 16.53125 -16.28125 C 18.226562 -16.039062 19.597656 -15.484375 20.640625 -14.609375 C 21.691406 -13.734375 22.21875 -12.273438 22.21875 -10.234375 L 22.21875 -6.40625 C 22.21875 -4.34375 21.539062 -2.757812 20.1875 -1.65625 C 18.84375 -0.550781 17.003906 0 14.671875 0 Z M 14.671875 0 "/></g></g></g><g fill="#0d4244" fill-opacity="0.302"><g transform="translate(345.826775, 55.600704)"><g><path d="M 3.234375 0 C 2.773438 0 2.441406 -0.101562 2.234375 -0.3125 C 2.035156 -0.519531 1.9375 -0.851562 1.9375 -1.3125 L 1.9375 -5.640625 C 1.9375 -6.109375 2.035156 -6.441406 2.234375 -6.640625 C 2.441406 -6.847656 2.773438 -6.953125 3.234375 -6.953125 L 6.84375 -6.953125 L 6.84375 -19.1875 L 3.234375 -19.1875 C 2.773438 -19.1875 2.441406 -19.289062 2.234375 -19.5 C 2.035156 -19.707031 1.9375 -20.039062 1.9375 -20.5 L 1.9375 -24.90625 C 1.9375 -25.375 2.035156 -25.707031 2.234375 -25.90625 C 2.441406 -26.113281 2.773438 -26.21875 3.234375 -26.21875 L 18.75 -26.21875 C 19.21875 -26.21875 19.550781 -26.113281 19.75 -25.90625 C 19.957031 -25.707031 20.0625 -25.375 20.0625 -24.90625 L 20.0625 -20.5 C 20.0625 -20.039062 19.957031 -19.707031 19.75 -19.5 C 19.550781 -19.289062 19.21875 -19.1875 18.75 -19.1875 L 15.21875 -19.1875 L 15.21875 -6.953125 L 18.75 -6.953125 C 19.21875 -6.953125 19.550781 -6.847656 19.75 -6.640625 C 19.957031 -6.441406 20.0625 -6.109375 20.0625 -5.640625 L 20.0625 -1.3125 C 20.0625 -0.851562 19.957031 -0.519531 19.75 -0.3125 C 19.550781 -0.101562 19.21875 0 18.75 0 Z M 3.234375 0 "/></g></g></g><g fill="#0d4244" fill-opacity="0.302"><g transform="translate(370.193831, 55.600704)"><g><path d="M 24.734375 -6.890625 C 24.734375 -5.765625 24.566406 -4.75 24.234375 -3.84375 C 23.910156 -2.9375 23.328125 -2.160156 22.484375 -1.515625 C 21.648438 -0.867188 20.5 -0.363281 19.03125 0 C 17.5625 0.363281 15.695312 0.546875 13.4375 0.546875 C 11.175781 0.546875 9.304688 0.363281 7.828125 0 C 6.347656 -0.363281 5.1875 -0.867188 4.34375 -1.515625 C 3.507812 -2.160156 2.925781 -2.9375 2.59375 -3.84375 C 2.269531 -4.75 2.109375 -5.765625 2.109375 -6.890625 L 2.109375 -19.296875 C 2.109375 -20.421875 2.269531 -21.4375 2.59375 -22.34375 C 2.925781 -23.25 3.507812 -24.03125 4.34375 -24.6875 C 5.1875 -25.34375 6.347656 -25.851562 7.828125 -26.21875 C 9.304688 -26.582031 11.175781 -26.765625 13.4375 -26.765625 C 15.695312 -26.765625 17.5625 -26.582031 19.03125 -26.21875 C 20.5 -25.851562 21.648438 -25.34375 22.484375 -24.6875 C 23.328125 -24.03125 23.910156 -23.25 24.234375 -22.34375 C 24.566406 -21.4375 24.734375 -20.421875 24.734375 -19.296875 Z M 10.375 -8.1875 C 10.375 -7.707031 10.554688 -7.300781 10.921875 -6.96875 C 11.285156 -6.644531 12.125 -6.484375 13.4375 -6.484375 C 14.75 -6.484375 15.585938 -6.644531 15.953125 -6.96875 C 16.316406 -7.300781 16.5 -7.707031 16.5 -8.1875 L 16.5 -18 C 16.5 -18.457031 16.316406 -18.847656 15.953125 -19.171875 C 15.585938 -19.503906 14.75 -19.671875 13.4375 -19.671875 C 12.125 -19.671875 11.285156 -19.503906 10.921875 -19.171875 C 10.554688 -18.847656 10.375 -18.457031 10.375 -18 Z M 10.375 -8.1875 "/></g></g></g><g fill="#0d4244" fill-opacity="0.302"><g transform="translate(399.368595, 55.600704)"><g><path d="M 9.28125 0 L 3.828125 0 C 3.359375 0 3.019531 -0.101562 2.8125 -0.3125 C 2.613281 -0.519531 2.515625 -0.851562 2.515625 -1.3125 L 2.515625 -24.90625 C 2.515625 -25.375 2.613281 -25.707031 2.8125 -25.90625 C 3.019531 -26.113281 3.359375 -26.21875 3.828125 -26.21875 L 7.609375 -26.21875 C 8.066406 -26.21875 8.457031 -26.144531 8.78125 -26 C 9.113281 -25.851562 9.441406 -25.597656 9.765625 -25.234375 L 16.828125 -17.15625 L 16.828125 -24.90625 C 16.828125 -25.375 16.929688 -25.707031 17.140625 -25.90625 C 17.347656 -26.113281 17.679688 -26.21875 18.140625 -26.21875 L 23.59375 -26.21875 C 24.0625 -26.21875 24.394531 -26.113281 24.59375 -25.90625 C 24.800781 -25.707031 24.90625 -25.375 24.90625 -24.90625 L 24.90625 -1.3125 C 24.90625 -0.851562 24.800781 -0.519531 24.59375 -0.3125 C 24.394531 -0.101562 24.0625 0 23.59375 0 L 18.140625 0 C 17.679688 0 17.347656 -0.101562 17.140625 -0.3125 C 16.929688 -0.519531 16.828125 -0.851562 16.828125 -1.3125 L 16.828125 -5.796875 L 10.59375 -13.328125 L 10.59375 -1.3125 C 10.59375 -0.851562 10.488281 -0.519531 10.28125 -0.3125 C 10.082031 -0.101562 9.75 0 9.28125 0 Z M 9.28125 0 "/></g></g></g><g fill="#0d4244" fill-opacity="0.302"><g transform="translate(429.126092, 55.600704)"><g><path d="M 14.671875 0 L 3.171875 0 C 2.710938 0 2.378906 -0.101562 2.171875 -0.3125 C 1.960938 -0.519531 1.859375 -0.851562 1.859375 -1.3125 L 1.859375 -5.578125 C 1.859375 -6.035156 1.960938 -6.367188 2.171875 -6.578125 C 2.378906 -6.785156 2.710938 -6.890625 3.171875 -6.890625 L 12.96875 -6.890625 C 13.28125 -6.890625 13.515625 -6.988281 13.671875 -7.1875 C 13.828125 -7.394531 13.90625 -7.644531 13.90625 -7.9375 C 13.90625 -8.351562 13.828125 -8.65625 13.671875 -8.84375 C 13.515625 -9.039062 13.28125 -9.148438 12.96875 -9.171875 L 7.5 -9.9375 C 5.800781 -10.1875 4.4375 -10.75 3.40625 -11.625 C 2.375 -12.5 1.859375 -13.953125 1.859375 -15.984375 L 1.859375 -19.8125 C 1.859375 -21.875 2.523438 -23.457031 3.859375 -24.5625 C 5.191406 -25.664062 7.035156 -26.21875 9.390625 -26.21875 L 19.59375 -26.21875 C 20.050781 -26.21875 20.382812 -26.113281 20.59375 -25.90625 C 20.800781 -25.707031 20.90625 -25.375 20.90625 -24.90625 L 20.90625 -20.578125 C 20.90625 -20.117188 20.800781 -19.785156 20.59375 -19.578125 C 20.382812 -19.367188 20.050781 -19.265625 19.59375 -19.265625 L 11.109375 -19.265625 C 10.796875 -19.265625 10.550781 -19.160156 10.375 -18.953125 C 10.207031 -18.742188 10.125 -18.484375 10.125 -18.171875 C 10.125 -17.859375 10.207031 -17.59375 10.375 -17.375 C 10.550781 -17.15625 10.796875 -17.035156 11.109375 -17.015625 L 16.53125 -16.28125 C 18.226562 -16.039062 19.597656 -15.484375 20.640625 -14.609375 C 21.691406 -13.734375 22.21875 -12.273438 22.21875 -10.234375 L 22.21875 -6.40625 C 22.21875 -4.34375 21.539062 -2.757812 20.1875 -1.65625 C 18.84375 -0.550781 17.003906 0 14.671875 0 Z M 14.671875 0 "/></g></g></g><g fill="#0d4244" fill-opacity="0.502"><g transform="translate(151.866836, 53.990504)"><g><path d="M 9.46875 0 L 3.828125 0 C 3.359375 0 3.019531 -0.101562 2.8125 -0.3125 C 2.613281 -0.519531 2.515625 -0.851562 2.515625 -1.3125 L 2.515625 -24.90625 C 2.515625 -25.375 2.613281 -25.707031 2.8125 -25.90625 C 3.019531 -26.113281 3.359375 -26.21875 3.828125 -26.21875 L 14.96875 -26.21875 C 18.269531 -26.21875 20.523438 -25.5625 21.734375 -24.25 C 22.953125 -22.945312 23.5625 -21.238281 23.5625 -19.125 L 23.5625 -14.453125 C 23.5625 -12.347656 22.953125 -10.640625 21.734375 -9.328125 C 20.523438 -8.015625 18.269531 -7.359375 14.96875 -7.359375 L 10.78125 -7.359375 L 10.78125 -1.3125 C 10.78125 -0.851562 10.675781 -0.519531 10.46875 -0.3125 C 10.257812 -0.101562 9.925781 0 9.46875 0 Z M 10.703125 -19.40625 L 10.703125 -13.90625 L 13.984375 -13.90625 C 14.691406 -13.90625 15.15625 -14.085938 15.375 -14.453125 C 15.59375 -14.816406 15.703125 -15.234375 15.703125 -15.703125 L 15.703125 -17.625 C 15.703125 -18.082031 15.59375 -18.492188 15.375 -18.859375 C 15.15625 -19.222656 14.691406 -19.40625 13.984375 -19.40625 Z M 10.703125 -19.40625 "/></g></g></g><g fill="#0d4244" fill-opacity="0.502"><g transform="translate(179.038386, 53.990504)"><g><path d="M 20.71875 0 L 3.828125 0 C 3.359375 0 3.019531 -0.101562 2.8125 -0.3125 C 2.613281 -0.519531 2.515625 -0.851562 2.515625 -1.3125 L 2.515625 -24.90625 C 2.515625 -25.375 2.613281 -25.707031 2.8125 -25.90625 C 3.019531 -26.113281 3.359375 -26.21875 3.828125 -26.21875 L 20.71875 -26.21875 C 21.1875 -26.21875 21.519531 -26.113281 21.71875 -25.90625 C 21.925781 -25.707031 22.03125 -25.375 22.03125 -24.90625 L 22.03125 -20.65625 C 22.03125 -20.1875 21.925781 -19.847656 21.71875 -19.640625 C 21.519531 -19.441406 21.1875 -19.34375 20.71875 -19.34375 L 10.671875 -19.34375 L 10.671875 -16.53125 L 17.78125 -16.53125 C 18.238281 -16.53125 18.566406 -16.425781 18.765625 -16.21875 C 18.972656 -16.019531 19.078125 -15.6875 19.078125 -15.21875 L 19.078125 -11.328125 C 19.078125 -10.867188 18.972656 -10.535156 18.765625 -10.328125 C 18.566406 -10.117188 18.238281 -10.015625 17.78125 -10.015625 L 10.671875 -10.015625 L 10.671875 -6.890625 L 20.71875 -6.890625 C 21.1875 -6.890625 21.519531 -6.785156 21.71875 -6.578125 C 21.925781 -6.367188 22.03125 -6.035156 22.03125 -5.578125 L 22.03125 -1.3125 C 22.03125 -0.851562 21.925781 -0.519531 21.71875 -0.3125 C 21.519531 -0.101562 21.1875 0 20.71875 0 Z M 20.71875 0 "/></g></g></g><g fill="#0d4244" fill-opacity="0.502"><g transform="translate(205.190119, 53.990504)"><g><path d="M 10.75 -19.671875 L 10.75 -15 L 13.46875 -15 C 14.101562 -15 14.53125 -15.160156 14.75 -15.484375 C 14.96875 -15.816406 15.078125 -16.226562 15.078125 -16.71875 L 15.078125 -17.953125 C 15.078125 -18.441406 14.96875 -18.847656 14.75 -19.171875 C 14.53125 -19.503906 14.101562 -19.671875 13.46875 -19.671875 Z M 9.4375 0 L 3.828125 0 C 3.359375 0 3.019531 -0.101562 2.8125 -0.3125 C 2.613281 -0.519531 2.515625 -0.851562 2.515625 -1.3125 L 2.515625 -24.90625 C 2.515625 -25.375 2.613281 -25.707031 2.8125 -25.90625 C 3.019531 -26.113281 3.359375 -26.21875 3.828125 -26.21875 L 15.953125 -26.21875 C 18.671875 -26.21875 20.546875 -25.65625 21.578125 -24.53125 C 22.609375 -23.40625 23.125 -21.941406 23.125 -20.140625 L 23.125 -18.46875 C 23.125 -17.445312 22.972656 -16.578125 22.671875 -15.859375 C 22.367188 -15.140625 21.84375 -14.625 21.09375 -14.3125 C 22.40625 -14.164062 23.46875 -13.628906 24.28125 -12.703125 C 25.09375 -11.785156 25.5 -10.5625 25.5 -9.03125 L 25.5 -1.3125 C 25.5 -0.851562 25.394531 -0.519531 25.1875 -0.3125 C 24.976562 -0.101562 24.644531 0 24.1875 0 L 18.53125 0 C 18.070312 0 17.738281 -0.101562 17.53125 -0.3125 C 17.332031 -0.519531 17.234375 -0.851562 17.234375 -1.3125 L 17.234375 -6.890625 C 17.234375 -7.421875 17.128906 -7.8125 16.921875 -8.0625 C 16.710938 -8.320312 16.351562 -8.453125 15.84375 -8.453125 L 10.75 -8.453125 L 10.75 -1.3125 C 10.75 -0.851562 10.644531 -0.519531 10.4375 -0.3125 C 10.226562 -0.101562 9.894531 0 9.4375 0 Z M 9.4375 0 "/></g></g></g><g fill="#0d4244" fill-opacity="0.502"><g transform="translate(234.583403, 53.990504)"><g><path d="M 9.25 0 L 3.828125 0 C 3.359375 0 3.019531 -0.101562 2.8125 -0.3125 C 2.613281 -0.519531 2.515625 -0.851562 2.515625 -1.3125 L 2.515625 -24.90625 C 2.515625 -25.375 2.613281 -25.707031 2.8125 -25.90625 C 3.019531 -26.113281 3.359375 -26.21875 3.828125 -26.21875 L 9.6875 -26.21875 C 10.070312 -26.21875 10.390625 -26.132812 10.640625 -25.96875 C 10.898438 -25.800781 11.140625 -25.519531 11.359375 -25.125 L 14.640625 -19.1875 C 14.765625 -18.96875 14.867188 -18.8125 14.953125 -18.71875 C 15.035156 -18.625 15.148438 -18.578125 15.296875 -18.578125 L 15.625 -18.578125 C 15.769531 -18.578125 15.882812 -18.625 15.96875 -18.71875 C 16.050781 -18.8125 16.15625 -18.96875 16.28125 -19.1875 L 19.515625 -25.125 C 19.734375 -25.519531 19.96875 -25.800781 20.21875 -25.96875 C 20.476562 -26.132812 20.804688 -26.21875 21.203125 -26.21875 L 27.09375 -26.21875 C 27.5625 -26.21875 27.894531 -26.113281 28.09375 -25.90625 C 28.300781 -25.707031 28.40625 -25.375 28.40625 -24.90625 L 28.40625 -1.3125 C 28.40625 -0.851562 28.300781 -0.519531 28.09375 -0.3125 C 27.894531 -0.101562 27.5625 0 27.09375 0 L 21.484375 0 C 21.023438 0 20.691406 -0.101562 20.484375 -0.3125 C 20.273438 -0.519531 20.171875 -0.851562 20.171875 -1.3125 L 20.171875 -14.125 L 18.03125 -10.15625 C 17.8125 -9.75 17.550781 -9.453125 17.25 -9.265625 C 16.945312 -9.085938 16.5625 -9 16.09375 -9 L 14.640625 -9 C 14.179688 -9 13.796875 -9.085938 13.484375 -9.265625 C 13.179688 -9.453125 12.925781 -9.75 12.71875 -10.15625 L 10.5625 -14.125 L 10.5625 -1.3125 C 10.5625 -0.851562 10.457031 -0.519531 10.25 -0.3125 C 10.039062 -0.101562 9.707031 0 9.25 0 Z M 9.25 0 "/></g></g></g><g fill="#0d4244" fill-opacity="0.502"><g transform="translate(267.837407, 53.990504)"><g><path d="M 3.234375 0 C 2.773438 0 2.441406 -0.101562 2.234375 -0.3125 C 2.035156 -0.519531 1.9375 -0.851562 1.9375 -1.3125 L 1.9375 -5.640625 C 1.9375 -6.109375 2.035156 -6.441406 2.234375 -6.640625 C 2.441406 -6.847656 2.773438 -6.953125 3.234375 -6.953125 L 6.84375 -6.953125 L 6.84375 -19.1875 L 3.234375 -19.1875 C 2.773438 -19.1875 2.441406 -19.289062 2.234375 -19.5 C 2.035156 -19.707031 1.9375 -20.039062 1.9375 -20.5 L 1.9375 -24.90625 C 1.9375 -25.375 2.035156 -25.707031 2.234375 -25.90625 C 2.441406 -26.113281 2.773438 -26.21875 3.234375 -26.21875 L 18.75 -26.21875 C 19.21875 -26.21875 19.550781 -26.113281 19.75 -25.90625 C 19.957031 -25.707031 20.0625 -25.375 20.0625 -24.90625 L 20.0625 -20.5 C 20.0625 -20.039062 19.957031 -19.707031 19.75 -19.5 C 19.550781 -19.289062 19.21875 -19.1875 18.75 -19.1875 L 15.21875 -19.1875 L 15.21875 -6.953125 L 18.75 -6.953125 C 19.21875 -6.953125 19.550781 -6.847656 19.75 -6.640625 C 19.957031 -6.441406 20.0625 -6.109375 20.0625 -5.640625 L 20.0625 -1.3125 C 20.0625 -0.851562 19.957031 -0.519531 19.75 -0.3125 C 19.550781 -0.101562 19.21875 0 18.75 0 Z M 3.234375 0 "/></g></g></g><g fill="#0d4244" fill-opacity="0.502"><g transform="translate(292.204463, 53.990504)"><g><path d="M 14.671875 0 L 3.171875 0 C 2.710938 0 2.378906 -0.101562 2.171875 -0.3125 C 1.960938 -0.519531 1.859375 -0.851562 1.859375 -1.3125 L 1.859375 -5.578125 C 1.859375 -6.035156 1.960938 -6.367188 2.171875 -6.578125 C 2.378906 -6.785156 2.710938 -6.890625 3.171875 -6.890625 L 12.96875 -6.890625 C 13.28125 -6.890625 13.515625 -6.988281 13.671875 -7.1875 C 13.828125 -7.394531 13.90625 -7.644531 13.90625 -7.9375 C 13.90625 -8.351562 13.828125 -8.65625 13.671875 -8.84375 C 13.515625 -9.039062 13.28125 -9.148438 12.96875 -9.171875 L 7.5 -9.9375 C 5.800781 -10.1875 4.4375 -10.75 3.40625 -11.625 C 2.375 -12.5 1.859375 -13.953125 1.859375 -15.984375 L 1.859375 -19.8125 C 1.859375 -21.875 2.523438 -23.457031 3.859375 -24.5625 C 5.191406 -25.664062 7.035156 -26.21875 9.390625 -26.21875 L 19.59375 -26.21875 C 20.050781 -26.21875 20.382812 -26.113281 20.59375 -25.90625 C 20.800781 -25.707031 20.90625 -25.375 20.90625 -24.90625 L 20.90625 -20.578125 C 20.90625 -20.117188 20.800781 -19.785156 20.59375 -19.578125 C 20.382812 -19.367188 20.050781 -19.265625 19.59375 -19.265625 L 11.109375 -19.265625 C 10.796875 -19.265625 10.550781 -19.160156 10.375 -18.953125 C 10.207031 -18.742188 10.125 -18.484375 10.125 -18.171875 C 10.125 -17.859375 10.207031 -17.59375 10.375 -17.375 C 10.550781 -17.15625 10.796875 -17.035156 11.109375 -17.015625 L 16.53125 -16.28125 C 18.226562 -16.039062 19.597656 -15.484375 20.640625 -14.609375 C 21.691406 -13.734375 22.21875 -12.273438 22.21875 -10.234375 L 22.21875 -6.40625 C 22.21875 -4.34375 21.539062 -2.757812 20.1875 -1.65625 C 18.84375 -0.550781 17.003906 0 14.671875 0 Z M 14.671875 0 "/></g></g></g><g fill="#0d4244" fill-opacity="0.502"><g transform="translate(318.210519, 53.990504)"><g><path d="M 14.671875 0 L 3.171875 0 C 2.710938 0 2.378906 -0.101562 2.171875 -0.3125 C 1.960938 -0.519531 1.859375 -0.851562 1.859375 -1.3125 L 1.859375 -5.578125 C 1.859375 -6.035156 1.960938 -6.367188 2.171875 -6.578125 C 2.378906 -6.785156 2.710938 -6.890625 3.171875 -6.890625 L 12.96875 -6.890625 C 13.28125 -6.890625 13.515625 -6.988281 13.671875 -7.1875 C 13.828125 -7.394531 13.90625 -7.644531 13.90625 -7.9375 C 13.90625 -8.351562 13.828125 -8.65625 13.671875 -8.84375 C 13.515625 -9.039062 13.28125 -9.148438 12.96875 -9.171875 L 7.5 -9.9375 C 5.800781 -10.1875 4.4375 -10.75 3.40625 -11.625 C 2.375 -12.5 1.859375 -13.953125 1.859375 -15.984375 L 1.859375 -19.8125 C 1.859375 -21.875 2.523438 -23.457031 3.859375 -24.5625 C 5.191406 -25.664062 7.035156 -26.21875 9.390625 -26.21875 L 19.59375 -26.21875 C 20.050781 -26.21875 20.382812 -26.113281 20.59375 -25.90625 C 20.800781 -25.707031 20.90625 -25.375 20.90625 -24.90625 L 20.90625 -20.578125 C 20.90625 -20.117188 20.800781 -19.785156 20.59375 -19.578125 C 20.382812 -19.367188 20.050781 -19.265625 19.59375 -19.265625 L 11.109375 -19.265625 C 10.796875 -19.265625 10.550781 -19.160156 10.375 -18.953125 C 10.207031 -18.742188 10.125 -18.484375 10.125 -18.171875 C 10.125 -17.859375 10.207031 -17.59375 10.375 -17.375 C 10.550781 -17.15625 10.796875 -17.035156 11.109375 -17.015625 L 16.53125 -16.28125 C 18.226562 -16.039062 19.597656 -15.484375 20.640625 -14.609375 C 21.691406 -13.734375 22.21875 -12.273438 22.21875 -10.234375 L 22.21875 -6.40625 C 22.21875 -4.34375 21.539062 -2.757812 20.1875 -1.65625 C 18.84375 -0.550781 17.003906 0 14.671875 0 Z M 14.671875 0 "/></g></g></g><g fill="#0d4244" fill-opacity="0.502"><g transform="translate(344.216574, 53.990504)"><g><path d="M 3.234375 0 C 2.773438 0 2.441406 -0.101562 2.234375 -0.3125 C 2.035156 -0.519531 1.9375 -0.851562 1.9375 -1.3125 L 1.9375 -5.640625 C 1.9375 -6.109375 2.035156 -6.441406 2.234375 -6.640625 C 2.441406 -6.847656 2.773438 -6.953125 3.234375 -6.953125 L 6.84375 -6.953125 L 6.84375 -19.1875 L 3.234375 -19.1875 C 2.773438 -19.1875 2.441406 -19.289062 2.234375 -19.5 C 2.035156 -19.707031 1.9375 -20.039062 1.9375 -20.5 L 1.9375 -24.90625 C 1.9375 -25.375 2.035156 -25.707031 2.234375 -25.90625 C 2.441406 -26.113281 2.773438 -26.21875 3.234375 -26.21875 L 18.75 -26.21875 C 19.21875 -26.21875 19.550781 -26.113281 19.75 -25.90625 C 19.957031 -25.707031 20.0625 -25.375 20.0625 -24.90625 L 20.0625 -20.5 C 20.0625 -20.039062 19.957031 -19.707031 19.75 -19.5 C 19.550781 -19.289062 19.21875 -19.1875 18.75 -19.1875 L 15.21875 -19.1875 L 15.21875 -6.953125 L 18.75 -6.953125 C 19.21875 -6.953125 19.550781 -6.847656 19.75 -6.640625 C 19.957031 -6.441406 20.0625 -6.109375 20.0625 -5.640625 L 20.0625 -1.3125 C 20.0625 -0.851562 19.957031 -0.519531 19.75 -0.3125 C 19.550781 -0.101562 19.21875 0 18.75 0 Z M 3.234375 0 "/></g></g></g><g fill="#0d4244" fill-opacity="0.502"><g transform="translate(368.58363, 53.990504)"><g><path d="M 24.734375 -6.890625 C 24.734375 -5.765625 24.566406 -4.75 24.234375 -3.84375 C 23.910156 -2.9375 23.328125 -2.160156 22.484375 -1.515625 C 21.648438 -0.867188 20.5 -0.363281 19.03125 0 C 17.5625 0.363281 15.695312 0.546875 13.4375 0.546875 C 11.175781 0.546875 9.304688 0.363281 7.828125 0 C 6.347656 -0.363281 5.1875 -0.867188 4.34375 -1.515625 C 3.507812 -2.160156 2.925781 -2.9375 2.59375 -3.84375 C 2.269531 -4.75 2.109375 -5.765625 2.109375 -6.890625 L 2.109375 -19.296875 C 2.109375 -20.421875 2.269531 -21.4375 2.59375 -22.34375 C 2.925781 -23.25 3.507812 -24.03125 4.34375 -24.6875 C 5.1875 -25.34375 6.347656 -25.851562 7.828125 -26.21875 C 9.304688 -26.582031 11.175781 -26.765625 13.4375 -26.765625 C 15.695312 -26.765625 17.5625 -26.582031 19.03125 -26.21875 C 20.5 -25.851562 21.648438 -25.34375 22.484375 -24.6875 C 23.328125 -24.03125 23.910156 -23.25 24.234375 -22.34375 C 24.566406 -21.4375 24.734375 -20.421875 24.734375 -19.296875 Z M 10.375 -8.1875 C 10.375 -7.707031 10.554688 -7.300781 10.921875 -6.96875 C 11.285156 -6.644531 12.125 -6.484375 13.4375 -6.484375 C 14.75 -6.484375 15.585938 -6.644531 15.953125 -6.96875 C 16.316406 -7.300781 16.5 -7.707031 16.5 -8.1875 L 16.5 -18 C 16.5 -18.457031 16.316406 -18.847656 15.953125 -19.171875 C 15.585938 -19.503906 14.75 -19.671875 13.4375 -19.671875 C 12.125 -19.671875 11.285156 -19.503906 10.921875 -19.171875 C 10.554688 -18.847656 10.375 -18.457031 10.375 -18 Z M 10.375 -8.1875 "/></g></g></g><g fill="#0d4244" fill-opacity="0.502"><g transform="translate(397.758394, 53.990504)"><g><path d="M 9.28125 0 L 3.828125 0 C 3.359375 0 3.019531 -0.101562 2.8125 -0.3125 C 2.613281 -0.519531 2.515625 -0.851562 2.515625 -1.3125 L 2.515625 -24.90625 C 2.515625 -25.375 2.613281 -25.707031 2.8125 -25.90625 C 3.019531 -26.113281 3.359375 -26.21875 3.828125 -26.21875 L 7.609375 -26.21875 C 8.066406 -26.21875 8.457031 -26.144531 8.78125 -26 C 9.113281 -25.851562 9.441406 -25.597656 9.765625 -25.234375 L 16.828125 -17.15625 L 16.828125 -24.90625 C 16.828125 -25.375 16.929688 -25.707031 17.140625 -25.90625 C 17.347656 -26.113281 17.679688 -26.21875 18.140625 -26.21875 L 23.59375 -26.21875 C 24.0625 -26.21875 24.394531 -26.113281 24.59375 -25.90625 C 24.800781 -25.707031 24.90625 -25.375 24.90625 -24.90625 L 24.90625 -1.3125 C 24.90625 -0.851562 24.800781 -0.519531 24.59375 -0.3125 C 24.394531 -0.101562 24.0625 0 23.59375 0 L 18.140625 0 C 17.679688 0 17.347656 -0.101562 17.140625 -0.3125 C 16.929688 -0.519531 16.828125 -0.851562 16.828125 -1.3125 L 16.828125 -5.796875 L 10.59375 -13.328125 L 10.59375 -1.3125 C 10.59375 -0.851562 10.488281 -0.519531 10.28125 -0.3125 C 10.082031 -0.101562 9.75 0 9.28125 0 Z M 9.28125 0 "/></g></g></g><g fill="#0d4244" fill-opacity="0.502"><g transform="translate(427.515891, 53.990504)"><g><path d="M 14.671875 0 L 3.171875 0 C 2.710938 0 2.378906 -0.101562 2.171875 -0.3125 C 1.960938 -0.519531 1.859375 -0.851562 1.859375 -1.3125 L 1.859375 -5.578125 C 1.859375 -6.035156 1.960938 -6.367188 2.171875 -6.578125 C 2.378906 -6.785156 2.710938 -6.890625 3.171875 -6.890625 L 12.96875 -6.890625 C 13.28125 -6.890625 13.515625 -6.988281 13.671875 -7.1875 C 13.828125 -7.394531 13.90625 -7.644531 13.90625 -7.9375 C 13.90625 -8.351562 13.828125 -8.65625 13.671875 -8.84375 C 13.515625 -9.039062 13.28125 -9.148438 12.96875 -9.171875 L 7.5 -9.9375 C 5.800781 -10.1875 4.4375 -10.75 3.40625 -11.625 C 2.375 -12.5 1.859375 -13.953125 1.859375 -15.984375 L 1.859375 -19.8125 C 1.859375 -21.875 2.523438 -23.457031 3.859375 -24.5625 C 5.191406 -25.664062 7.035156 -26.21875 9.390625 -26.21875 L 19.59375 -26.21875 C 20.050781 -26.21875 20.382812 -26.113281 20.59375 -25.90625 C 20.800781 -25.707031 20.90625 -25.375 20.90625 -24.90625 L 20.90625 -20.578125 C 20.90625 -20.117188 20.800781 -19.785156 20.59375 -19.578125 C 20.382812 -19.367188 20.050781 -19.265625 19.59375 -19.265625 L 11.109375 -19.265625 C 10.796875 -19.265625 10.550781 -19.160156 10.375 -18.953125 C 10.207031 -18.742188 10.125 -18.484375 10.125 -18.171875 C 10.125 -17.859375 10.207031 -17.59375 10.375 -17.375 C 10.550781 -17.15625 10.796875 -17.035156 11.109375 -17.015625 L 16.53125 -16.28125 C 18.226562 -16.039062 19.597656 -15.484375 20.640625 -14.609375 C 21.691406 -13.734375 22.21875 -12.273438 22.21875 -10.234375 L 22.21875 -6.40625 C 22.21875 -4.34375 21.539062 -2.757812 20.1875 -1.65625 C 18.84375 -0.550781 17.003906 0 14.671875 0 Z M 14.671875 0 "/></g></g></g><g fill="#ffffff" fill-opacity="1"><g transform="translate(150.256634, 52.380302)"><g><path d="M 9.46875 0 L 3.828125 0 C 3.359375 0 3.019531 -0.101562 2.8125 -0.3125 C 2.613281 -0.519531 2.515625 -0.851562 2.515625 -1.3125 L 2.515625 -24.90625 C 2.515625 -25.375 2.613281 -25.707031 2.8125 -25.90625 C 3.019531 -26.113281 3.359375 -26.21875 3.828125 -26.21875 L 14.96875 -26.21875 C 18.269531 -26.21875 20.523438 -25.5625 21.734375 -24.25 C 22.953125 -22.945312 23.5625 -21.238281 23.5625 -19.125 L 23.5625 -14.453125 C 23.5625 -12.347656 22.953125 -10.640625 21.734375 -9.328125 C 20.523438 -8.015625 18.269531 -7.359375 14.96875 -7.359375 L 10.78125 -7.359375 L 10.78125 -1.3125 C 10.78125 -0.851562 10.675781 -0.519531 10.46875 -0.3125 C 10.257812 -0.101562 9.925781 0 9.46875 0 Z M 10.703125 -19.40625 L 10.703125 -13.90625 L 13.984375 -13.90625 C 14.691406 -13.90625 15.15625 -14.085938 15.375 -14.453125 C 15.59375 -14.816406 15.703125 -15.234375 15.703125 -15.703125 L 15.703125 -17.625 C 15.703125 -18.082031 15.59375 -18.492188 15.375 -18.859375 C 15.15625 -19.222656 14.691406 -19.40625 13.984375 -19.40625 Z M 10.703125 -19.40625 "/></g></g></g><g fill="#ffffff" fill-opacity="1"><g transform="translate(177.428185, 52.380302)"><g><path d="M 20.71875 0 L 3.828125 0 C 3.359375 0 3.019531 -0.101562 2.8125 -0.3125 C 2.613281 -0.519531 2.515625 -0.851562 2.515625 -1.3125 L 2.515625 -24.90625 C 2.515625 -25.375 2.613281 -25.707031 2.8125 -25.90625 C 3.019531 -26.113281 3.359375 -26.21875 3.828125 -26.21875 L 20.71875 -26.21875 C 21.1875 -26.21875 21.519531 -26.113281 21.71875 -25.90625 C 21.925781 -25.707031 22.03125 -25.375 22.03125 -24.90625 L 22.03125 -20.65625 C 22.03125 -20.1875 21.925781 -19.847656 21.71875 -19.640625 C 21.519531 -19.441406 21.1875 -19.34375 20.71875 -19.34375 L 10.671875 -19.34375 L 10.671875 -16.53125 L 17.78125 -16.53125 C 18.238281 -16.53125 18.566406 -16.425781 18.765625 -16.21875 C 18.972656 -16.019531 19.078125 -15.6875 19.078125 -15.21875 L 19.078125 -11.328125 C 19.078125 -10.867188 18.972656 -10.535156 18.765625 -10.328125 C 18.566406 -10.117188 18.238281 -10.015625 17.78125 -10.015625 L 10.671875 -10.015625 L 10.671875 -6.890625 L 20.71875 -6.890625 C 21.1875 -6.890625 21.519531 -6.785156 21.71875 -6.578125 C 21.925781 -6.367188 22.03125 -6.035156 22.03125 -5.578125 L 22.03125 -1.3125 C 22.03125 -0.851562 21.925781 -0.519531 21.71875 -0.3125 C 21.519531 -0.101562 21.1875 0 20.71875 0 Z M 20.71875 0 "/></g></g></g><g fill="#ffffff" fill-opacity="1"><g transform="translate(203.579918, 52.380302)"><g><path d="M 10.75 -19.671875 L 10.75 -15 L 13.46875 -15 C 14.101562 -15 14.53125 -15.160156 14.75 -15.484375 C 14.96875 -15.816406 15.078125 -16.226562 15.078125 -16.71875 L 15.078125 -17.953125 C 15.078125 -18.441406 14.96875 -18.847656 14.75 -19.171875 C 14.53125 -19.503906 14.101562 -19.671875 13.46875 -19.671875 Z M 9.4375 0 L 3.828125 0 C 3.359375 0 3.019531 -0.101562 2.8125 -0.3125 C 2.613281 -0.519531 2.515625 -0.851562 2.515625 -1.3125 L 2.515625 -24.90625 C 2.515625 -25.375 2.613281 -25.707031 2.8125 -25.90625 C 3.019531 -26.113281 3.359375 -26.21875 3.828125 -26.21875 L 15.953125 -26.21875 C 18.671875 -26.21875 20.546875 -25.65625 21.578125 -24.53125 C 22.609375 -23.40625 23.125 -21.941406 23.125 -20.140625 L 23.125 -18.46875 C 23.125 -17.445312 22.972656 -16.578125 22.671875 -15.859375 C 22.367188 -15.140625 21.84375 -14.625 21.09375 -14.3125 C 22.40625 -14.164062 23.46875 -13.628906 24.28125 -12.703125 C 25.09375 -11.785156 25.5 -10.5625 25.5 -9.03125 L 25.5 -1.3125 C 25.5 -0.851562 25.394531 -0.519531 25.1875 -0.3125 C 24.976562 -0.101562 24.644531 0 24.1875 0 L 18.53125 0 C 18.070312 0 17.738281 -0.101562 17.53125 -0.3125 C 17.332031 -0.519531 17.234375 -0.851562 17.234375 -1.3125 L 17.234375 -6.890625 C 17.234375 -7.421875 17.128906 -7.8125 16.921875 -8.0625 C 16.710938 -8.320312 16.351562 -8.453125 15.84375 -8.453125 L 10.75 -8.453125 L 10.75 -1.3125 C 10.75 -0.851562 10.644531 -0.519531 10.4375 -0.3125 C 10.226562 -0.101562 9.894531 0 9.4375 0 Z M 9.4375 0 "/></g></g></g><g fill="#ffffff" fill-opacity="1"><g transform="translate(232.973201, 52.380302)"><g><path d="M 9.25 0 L 3.828125 0 C 3.359375 0 3.019531 -0.101562 2.8125 -0.3125 C 2.613281 -0.519531 2.515625 -0.851562 2.515625 -1.3125 L 2.515625 -24.90625 C 2.515625 -25.375 2.613281 -25.707031 2.8125 -25.90625 C 3.019531 -26.113281 3.359375 -26.21875 3.828125 -26.21875 L 9.6875 -26.21875 C 10.070312 -26.21875 10.390625 -26.132812 10.640625 -25.96875 C 10.898438 -25.800781 11.140625 -25.519531 11.359375 -25.125 L 14.640625 -19.1875 C 14.765625 -18.96875 14.867188 -18.8125 14.953125 -18.71875 C 15.035156 -18.625 15.148438 -18.578125 15.296875 -18.578125 L 15.625 -18.578125 C 15.769531 -18.578125 15.882812 -18.625 15.96875 -18.71875 C 16.050781 -18.8125 16.15625 -18.96875 16.28125 -19.1875 L 19.515625 -25.125 C 19.734375 -25.519531 19.96875 -25.800781 20.21875 -25.96875 C 20.476562 -26.132812 20.804688 -26.21875 21.203125 -26.21875 L 27.09375 -26.21875 C 27.5625 -26.21875 27.894531 -26.113281 28.09375 -25.90625 C 28.300781 -25.707031 28.40625 -25.375 28.40625 -24.90625 L 28.40625 -1.3125 C 28.40625 -0.851562 28.300781 -0.519531 28.09375 -0.3125 C 27.894531 -0.101562 27.5625 0 27.09375 0 L 21.484375 0 C 21.023438 0 20.691406 -0.101562 20.484375 -0.3125 C 20.273438 -0.519531 20.171875 -0.851562 20.171875 -1.3125 L 20.171875 -14.125 L 18.03125 -10.15625 C 17.8125 -9.75 17.550781 -9.453125 17.25 -9.265625 C 16.945312 -9.085938 16.5625 -9 16.09375 -9 L 14.640625 -9 C 14.179688 -9 13.796875 -9.085938 13.484375 -9.265625 C 13.179688 -9.453125 12.925781 -9.75 12.71875 -10.15625 L 10.5625 -14.125 L 10.5625 -1.3125 C 10.5625 -0.851562 10.457031 -0.519531 10.25 -0.3125 C 10.039062 -0.101562 9.707031 0 9.25 0 Z M 9.25 0 "/></g></g></g><g fill="#ffffff" fill-opacity="1"><g transform="translate(266.227206, 52.380302)"><g><path d="M 3.234375 0 C 2.773438 0 2.441406 -0.101562 2.234375 -0.3125 C 2.035156 -0.519531 1.9375 -0.851562 1.9375 -1.3125 L 1.9375 -5.640625 C 1.9375 -6.109375 2.035156 -6.441406 2.234375 -6.640625 C 2.441406 -6.847656 2.773438 -6.953125 3.234375 -6.953125 L 6.84375 -6.953125 L 6.84375 -19.1875 L 3.234375 -19.1875 C 2.773438 -19.1875 2.441406 -19.289062 2.234375 -19.5 C 2.035156 -19.707031 1.9375 -20.039062 1.9375 -20.5 L 1.9375 -24.90625 C 1.9375 -25.375 2.035156 -25.707031 2.234375 -25.90625 C 2.441406 -26.113281 2.773438 -26.21875 3.234375 -26.21875 L 18.75 -26.21875 C 19.21875 -26.21875 19.550781 -26.113281 19.75 -25.90625 C 19.957031 -25.707031 20.0625 -25.375 20.0625 -24.90625 L 20.0625 -20.5 C 20.0625 -20.039062 19.957031 -19.707031 19.75 -19.5 C 19.550781 -19.289062 19.21875 -19.1875 18.75 -19.1875 L 15.21875 -19.1875 L 15.21875 -6.953125 L 18.75 -6.953125 C 19.21875 -6.953125 19.550781 -6.847656 19.75 -6.640625 C 19.957031 -6.441406 20.0625 -6.109375 20.0625 -5.640625 L 20.0625 -1.3125 C 20.0625 -0.851562 19.957031 -0.519531 19.75 -0.3125 C 19.550781 -0.101562 19.21875 0 18.75 0 Z M 3.234375 0 "/></g></g></g><g fill="#ffffff" fill-opacity="1"><g transform="translate(290.594261, 52.380302)"><g><path d="M 14.671875 0 L 3.171875 0 C 2.710938 0 2.378906 -0.101562 2.171875 -0.3125 C 1.960938 -0.519531 1.859375 -0.851562 1.859375 -1.3125 L 1.859375 -5.578125 C 1.859375 -6.035156 1.960938 -6.367188 2.171875 -6.578125 C 2.378906 -6.785156 2.710938 -6.890625 3.171875 -6.890625 L 12.96875 -6.890625 C 13.28125 -6.890625 13.515625 -6.988281 13.671875 -7.1875 C 13.828125 -7.394531 13.90625 -7.644531 13.90625 -7.9375 C 13.90625 -8.351562 13.828125 -8.65625 13.671875 -8.84375 C 13.515625 -9.039062 13.28125 -9.148438 12.96875 -9.171875 L 7.5 -9.9375 C 5.800781 -10.1875 4.4375 -10.75 3.40625 -11.625 C 2.375 -12.5 1.859375 -13.953125 1.859375 -15.984375 L 1.859375 -19.8125 C 1.859375 -21.875 2.523438 -23.457031 3.859375 -24.5625 C 5.191406 -25.664062 7.035156 -26.21875 9.390625 -26.21875 L 19.59375 -26.21875 C 20.050781 -26.21875 20.382812 -26.113281 20.59375 -25.90625 C 20.800781 -25.707031 20.90625 -25.375 20.90625 -24.90625 L 20.90625 -20.578125 C 20.90625 -20.117188 20.800781 -19.785156 20.59375 -19.578125 C 20.382812 -19.367188 20.050781 -19.265625 19.59375 -19.265625 L 11.109375 -19.265625 C 10.796875 -19.265625 10.550781 -19.160156 10.375 -18.953125 C 10.207031 -18.742188 10.125 -18.484375 10.125 -18.171875 C 10.125 -17.859375 10.207031 -17.59375 10.375 -17.375 C 10.550781 -17.15625 10.796875 -17.035156 11.109375 -17.015625 L 16.53125 -16.28125 C 18.226562 -16.039062 19.597656 -15.484375 20.640625 -14.609375 C 21.691406 -13.734375 22.21875 -12.273438 22.21875 -10.234375 L 22.21875 -6.40625 C 22.21875 -4.34375 21.539062 -2.757812 20.1875 -1.65625 C 18.84375 -0.550781 17.003906 0 14.671875 0 Z M 14.671875 0 "/></g></g></g><g fill="#ffffff" fill-opacity="1"><g transform="translate(316.600317, 52.380302)"><g><path d="M 14.671875 0 L 3.171875 0 C 2.710938 0 2.378906 -0.101562 2.171875 -0.3125 C 1.960938 -0.519531 1.859375 -0.851562 1.859375 -1.3125 L 1.859375 -5.578125 C 1.859375 -6.035156 1.960938 -6.367188 2.171875 -6.578125 C 2.378906 -6.785156 2.710938 -6.890625 3.171875 -6.890625 L 12.96875 -6.890625 C 13.28125 -6.890625 13.515625 -6.988281 13.671875 -7.1875 C 13.828125 -7.394531 13.90625 -7.644531 13.90625 -7.9375 C 13.90625 -8.351562 13.828125 -8.65625 13.671875 -8.84375 C 13.515625 -9.039062 13.28125 -9.148438 12.96875 -9.171875 L 7.5 -9.9375 C 5.800781 -10.1875 4.4375 -10.75 3.40625 -11.625 C 2.375 -12.5 1.859375 -13.953125 1.859375 -15.984375 L 1.859375 -19.8125 C 1.859375 -21.875 2.523438 -23.457031 3.859375 -24.5625 C 5.191406 -25.664062 7.035156 -26.21875 9.390625 -26.21875 L 19.59375 -26.21875 C 20.050781 -26.21875 20.382812 -26.113281 20.59375 -25.90625 C 20.800781 -25.707031 20.90625 -25.375 20.90625 -24.90625 L 20.90625 -20.578125 C 20.90625 -20.117188 20.800781 -19.785156 20.59375 -19.578125 C 20.382812 -19.367188 20.050781 -19.265625 19.59375 -19.265625 L 11.109375 -19.265625 C 10.796875 -19.265625 10.550781 -19.160156 10.375 -18.953125 C 10.207031 -18.742188 10.125 -18.484375 10.125 -18.171875 C 10.125 -17.859375 10.207031 -17.59375 10.375 -17.375 C 10.550781 -17.15625 10.796875 -17.035156 11.109375 -17.015625 L 16.53125 -16.28125 C 18.226562 -16.039062 19.597656 -15.484375 20.640625 -14.609375 C 21.691406 -13.734375 22.21875 -12.273438 22.21875 -10.234375 L 22.21875 -6.40625 C 22.21875 -4.34375 21.539062 -2.757812 20.1875 -1.65625 C 18.84375 -0.550781 17.003906 0 14.671875 0 Z M 14.671875 0 "/></g></g></g><g fill="#ffffff" fill-opacity="1"><g transform="translate(342.606373, 52.380302)"><g><path d="M 3.234375 0 C 2.773438 0 2.441406 -0.101562 2.234375 -0.3125 C 2.035156 -0.519531 1.9375 -0.851562 1.9375 -1.3125 L 1.9375 -5.640625 C 1.9375 -6.109375 2.035156 -6.441406 2.234375 -6.640625 C 2.441406 -6.847656 2.773438 -6.953125 3.234375 -6.953125 L 6.84375 -6.953125 L 6.84375 -19.1875 L 3.234375 -19.1875 C 2.773438 -19.1875 2.441406 -19.289062 2.234375 -19.5 C 2.035156 -19.707031 1.9375 -20.039062 1.9375 -20.5 L 1.9375 -24.90625 C 1.9375 -25.375 2.035156 -25.707031 2.234375 -25.90625 C 2.441406 -26.113281 2.773438 -26.21875 3.234375 -26.21875 L 18.75 -26.21875 C 19.21875 -26.21875 19.550781 -26.113281 19.75 -25.90625 C 19.957031 -25.707031 20.0625 -25.375 20.0625 -24.90625 L 20.0625 -20.5 C 20.0625 -20.039062 19.957031 -19.707031 19.75 -19.5 C 19.550781 -19.289062 19.21875 -19.1875 18.75 -19.1875 L 15.21875 -19.1875 L 15.21875 -6.953125 L 18.75 -6.953125 C 19.21875 -6.953125 19.550781 -6.847656 19.75 -6.640625 C 19.957031 -6.441406 20.0625 -6.109375 20.0625 -5.640625 L 20.0625 -1.3125 C 20.0625 -0.851562 19.957031 -0.519531 19.75 -0.3125 C 19.550781 -0.101562 19.21875 0 18.75 0 Z M 3.234375 0 "/></g></g></g><g fill="#ffffff" fill-opacity="1"><g transform="translate(366.973429, 52.380302)"><g><path d="M 24.734375 -6.890625 C 24.734375 -5.765625 24.566406 -4.75 24.234375 -3.84375 C 23.910156 -2.9375 23.328125 -2.160156 22.484375 -1.515625 C 21.648438 -0.867188 20.5 -0.363281 19.03125 0 C 17.5625 0.363281 15.695312 0.546875 13.4375 0.546875 C 11.175781 0.546875 9.304688 0.363281 7.828125 0 C 6.347656 -0.363281 5.1875 -0.867188 4.34375 -1.515625 C 3.507812 -2.160156 2.925781 -2.9375 2.59375 -3.84375 C 2.269531 -4.75 2.109375 -5.765625 2.109375 -6.890625 L 2.109375 -19.296875 C 2.109375 -20.421875 2.269531 -21.4375 2.59375 -22.34375 C 2.925781 -23.25 3.507812 -24.03125 4.34375 -24.6875 C 5.1875 -25.34375 6.347656 -25.851562 7.828125 -26.21875 C 9.304688 -26.582031 11.175781 -26.765625 13.4375 -26.765625 C 15.695312 -26.765625 17.5625 -26.582031 19.03125 -26.21875 C 20.5 -25.851562 21.648438 -25.34375 22.484375 -24.6875 C 23.328125 -24.03125 23.910156 -23.25 24.234375 -22.34375 C 24.566406 -21.4375 24.734375 -20.421875 24.734375 -19.296875 Z M 10.375 -8.1875 C 10.375 -7.707031 10.554688 -7.300781 10.921875 -6.96875 C 11.285156 -6.644531 12.125 -6.484375 13.4375 -6.484375 C 14.75 -6.484375 15.585938 -6.644531 15.953125 -6.96875 C 16.316406 -7.300781 16.5 -7.707031 16.5 -8.1875 L 16.5 -18 C 16.5 -18.457031 16.316406 -18.847656 15.953125 -19.171875 C 15.585938 -19.503906 14.75 -19.671875 13.4375 -19.671875 C 12.125 -19.671875 11.285156 -19.503906 10.921875 -19.171875 C 10.554688 -18.847656 10.375 -18.457031 10.375 -18 Z M 10.375 -8.1875 "/></g></g></g><g fill="#ffffff" fill-opacity="1"><g transform="translate(396.148193, 52.380302)"><g><path d="M 9.28125 0 L 3.828125 0 C 3.359375 0 3.019531 -0.101562 2.8125 -0.3125 C 2.613281 -0.519531 2.515625 -0.851562 2.515625 -1.3125 L 2.515625 -24.90625 C 2.515625 -25.375 2.613281 -25.707031 2.8125 -25.90625 C 3.019531 -26.113281 3.359375 -26.21875 3.828125 -26.21875 L 7.609375 -26.21875 C 8.066406 -26.21875 8.457031 -26.144531 8.78125 -26 C 9.113281 -25.851562 9.441406 -25.597656 9.765625 -25.234375 L 16.828125 -17.15625 L 16.828125 -24.90625 C 16.828125 -25.375 16.929688 -25.707031 17.140625 -25.90625 C 17.347656 -26.113281 17.679688 -26.21875 18.140625 -26.21875 L 23.59375 -26.21875 C 24.0625 -26.21875 24.394531 -26.113281 24.59375 -25.90625 C 24.800781 -25.707031 24.90625 -25.375 24.90625 -24.90625 L 24.90625 -1.3125 C 24.90625 -0.851562 24.800781 -0.519531 24.59375 -0.3125 C 24.394531 -0.101562 24.0625 0 23.59375 0 L 18.140625 0 C 17.679688 0 17.347656 -0.101562 17.140625 -0.3125 C 16.929688 -0.519531 16.828125 -0.851562 16.828125 -1.3125 L 16.828125 -5.796875 L 10.59375 -13.328125 L 10.59375 -1.3125 C 10.59375 -0.851562 10.488281 -0.519531 10.28125 -0.3125 C 10.082031 -0.101562 9.75 0 9.28125 0 Z M 9.28125 0 "/></g></g></g><g fill="#ffffff" fill-opacity="1"><g transform="translate(425.90569, 52.380302)"><g><path d="M 14.671875 0 L 3.171875 0 C 2.710938 0 2.378906 -0.101562 2.171875 -0.3125 C 1.960938 -0.519531 1.859375 -0.851562 1.859375 -1.3125 L 1.859375 -5.578125 C 1.859375 -6.035156 1.960938 -6.367188 2.171875 -6.578125 C 2.378906 -6.785156 2.710938 -6.890625 3.171875 -6.890625 L 12.96875 -6.890625 C 13.28125 -6.890625 13.515625 -6.988281 13.671875 -7.1875 C 13.828125 -7.394531 13.90625 -7.644531 13.90625 -7.9375 C 13.90625 -8.351562 13.828125 -8.65625 13.671875 -8.84375 C 13.515625 -9.039062 13.28125 -9.148438 12.96875 -9.171875 L 7.5 -9.9375 C 5.800781 -10.1875 4.4375 -10.75 3.40625 -11.625 C 2.375 -12.5 1.859375 -13.953125 1.859375 -15.984375 L 1.859375 -19.8125 C 1.859375 -21.875 2.523438 -23.457031 3.859375 -24.5625 C 5.191406 -25.664062 7.035156 -26.21875 9.390625 -26.21875 L 19.59375 -26.21875 C 20.050781 -26.21875 20.382812 -26.113281 20.59375 -25.90625 C 20.800781 -25.707031 20.90625 -25.375 20.90625 -24.90625 L 20.90625 -20.578125 C 20.90625 -20.117188 20.800781 -19.785156 20.59375 -19.578125 C 20.382812 -19.367188 20.050781 -19.265625 19.59375 -19.265625 L 11.109375 -19.265625 C 10.796875 -19.265625 10.550781 -19.160156 10.375 -18.953125 C 10.207031 -18.742188 10.125 -18.484375 10.125 -18.171875 C 10.125 -17.859375 10.207031 -17.59375 10.375 -17.375 C 10.550781 -17.15625 10.796875 -17.035156 11.109375 -17.015625 L 16.53125 -16.28125 C 18.226562 -16.039062 19.597656 -15.484375 20.640625 -14.609375 C 21.691406 -13.734375 22.21875 -12.273438 22.21875 -10.234375 L 22.21875 -6.40625 C 22.21875 -4.34375 21.539062 -2.757812 20.1875 -1.65625 C 18.84375 -0.550781 17.003906 0 14.671875 0 Z M 14.671875 0 "/></g></g></g></svg>