<svg xmlns="http://www.w3.org/2000/svg" xmlns:xlink="http://www.w3.org/1999/xlink" width="260" zoomAndPan="magnify" viewBox="0 0 194.87999 65.249999" height="87" preserveAspectRatio="xMidYMid meet" version="1.0"><defs><g/><clipPath id="ff5bf8a8de"><path d="M 18.773438 11.132812 L 192.914062 11.132812 L 192.914062 55.023438 L 18.773438 55.023438 Z M 18.773438 11.132812 " clip-rule="nonzero"/></clipPath><clipPath id="f988dc5814"><path d="M 40.71875 11.132812 L 170.96875 11.132812 C 176.789062 11.132812 182.371094 13.441406 186.488281 17.558594 C 190.601562 21.675781 192.914062 27.257812 192.914062 33.078125 C 192.914062 38.898438 190.601562 44.480469 186.488281 48.59375 C 182.371094 52.710938 176.789062 55.023438 170.96875 55.023438 L 40.71875 55.023438 C 34.898438 55.023438 29.316406 52.710938 25.199219 48.59375 C 21.085938 44.480469 18.773438 38.898438 18.773438 33.078125 C 18.773438 27.257812 21.085938 21.675781 25.199219 17.558594 C 29.316406 13.441406 34.898438 11.132812 40.71875 11.132812 Z M 40.71875 11.132812 " clip-rule="nonzero"/></clipPath><clipPath id="7f5684fac7"><path d="M 11.089844 13 L 50 13 L 50 51 L 11.089844 51 Z M 11.089844 13 " clip-rule="nonzero"/></clipPath></defs><g clip-path="url(#ff5bf8a8de)"><g clip-path="url(#f988dc5814)"><path fill="#5ce1e6" d="M 18.773438 11.132812 L 192.914062 11.132812 L 192.914062 55.023438 L 18.773438 55.023438 Z M 18.773438 11.132812 " fill-opacity="1" fill-rule="nonzero"/></g></g><g fill="#0d4244" fill-opacity="0.302"><g transform="translate(55.745025, 38.254344)"><g><path d="M 5.734375 0 L 1.234375 0 C 1.054688 0 0.925781 -0.0351562 0.84375 -0.109375 C 0.757812 -0.191406 0.71875 -0.328125 0.71875 -0.515625 L 0.71875 -2.171875 C 0.71875 -2.359375 0.757812 -2.488281 0.84375 -2.5625 C 0.925781 -2.644531 1.054688 -2.6875 1.234375 -2.6875 L 5.0625 -2.6875 C 5.1875 -2.6875 5.28125 -2.726562 5.34375 -2.8125 C 5.40625 -2.894531 5.4375 -2.992188 5.4375 -3.109375 C 5.4375 -3.265625 5.40625 -3.378906 5.34375 -3.453125 C 5.28125 -3.535156 5.1875 -3.582031 5.0625 -3.59375 L 2.9375 -3.890625 C 2.269531 -3.984375 1.734375 -4.195312 1.328125 -4.53125 C 0.921875 -4.875 0.71875 -5.445312 0.71875 -6.25 L 0.71875 -7.75 C 0.71875 -8.550781 0.976562 -9.164062 1.5 -9.59375 C 2.03125 -10.03125 2.753906 -10.25 3.671875 -10.25 L 7.65625 -10.25 C 7.832031 -10.25 7.960938 -10.207031 8.046875 -10.125 C 8.128906 -10.039062 8.171875 -9.910156 8.171875 -9.734375 L 8.171875 -8.046875 C 8.171875 -7.859375 8.128906 -7.722656 8.046875 -7.640625 C 7.960938 -7.566406 7.832031 -7.53125 7.65625 -7.53125 L 4.34375 -7.53125 C 4.21875 -7.53125 4.117188 -7.488281 4.046875 -7.40625 C 3.984375 -7.320312 3.953125 -7.222656 3.953125 -7.109375 C 3.953125 -6.984375 3.984375 -6.875 4.046875 -6.78125 C 4.117188 -6.695312 4.21875 -6.648438 4.34375 -6.640625 L 6.46875 -6.359375 C 7.125 -6.265625 7.65625 -6.046875 8.0625 -5.703125 C 8.476562 -5.367188 8.6875 -4.800781 8.6875 -4 L 8.6875 -2.5 C 8.6875 -1.695312 8.421875 -1.078125 7.890625 -0.640625 C 7.367188 -0.210938 6.648438 0 5.734375 0 Z M 5.734375 0 "/></g></g></g><g fill="#0d4244" fill-opacity="0.302"><g transform="translate(65.905948, 38.254344)"><g><path d="M 3.703125 0 L 1.5 0 C 1.3125 0 1.175781 -0.0351562 1.09375 -0.109375 C 1.019531 -0.191406 0.984375 -0.328125 0.984375 -0.515625 L 0.984375 -9.734375 C 0.984375 -9.910156 1.019531 -10.039062 1.09375 -10.125 C 1.175781 -10.207031 1.3125 -10.25 1.5 -10.25 L 5.84375 -10.25 C 7.132812 -10.25 8.015625 -9.992188 8.484375 -9.484375 C 8.960938 -8.972656 9.203125 -8.300781 9.203125 -7.46875 L 9.203125 -5.65625 C 9.203125 -4.820312 8.960938 -4.148438 8.484375 -3.640625 C 8.015625 -3.128906 7.132812 -2.875 5.84375 -2.875 L 4.21875 -2.875 L 4.21875 -0.515625 C 4.21875 -0.328125 4.175781 -0.191406 4.09375 -0.109375 C 4.007812 -0.0351562 3.878906 0 3.703125 0 Z M 4.1875 -7.59375 L 4.1875 -5.4375 L 5.46875 -5.4375 C 5.738281 -5.4375 5.914062 -5.503906 6 -5.640625 C 6.09375 -5.785156 6.140625 -5.953125 6.140625 -6.140625 L 6.140625 -6.890625 C 6.140625 -7.066406 6.09375 -7.226562 6 -7.375 C 5.914062 -7.519531 5.738281 -7.59375 5.46875 -7.59375 Z M 4.1875 -7.59375 "/></g></g></g><g fill="#0d4244" fill-opacity="0.302"><g transform="translate(76.522261, 38.254344)"><g><path d="M 9.671875 -2.6875 C 9.671875 -2.25 9.601562 -1.851562 9.46875 -1.5 C 9.34375 -1.144531 9.113281 -0.84375 8.78125 -0.59375 C 8.457031 -0.34375 8.007812 -0.144531 7.4375 0 C 6.863281 0.144531 6.132812 0.21875 5.25 0.21875 C 4.363281 0.21875 3.628906 0.144531 3.046875 0 C 2.472656 -0.144531 2.019531 -0.34375 1.6875 -0.59375 C 1.363281 -0.84375 1.140625 -1.144531 1.015625 -1.5 C 0.890625 -1.851562 0.828125 -2.25 0.828125 -2.6875 L 0.828125 -7.546875 C 0.828125 -7.984375 0.890625 -8.378906 1.015625 -8.734375 C 1.140625 -9.085938 1.363281 -9.390625 1.6875 -9.640625 C 2.019531 -9.898438 2.472656 -10.101562 3.046875 -10.25 C 3.628906 -10.394531 4.363281 -10.46875 5.25 -10.46875 C 6.132812 -10.46875 6.863281 -10.394531 7.4375 -10.25 C 8.007812 -10.101562 8.457031 -9.898438 8.78125 -9.640625 C 9.113281 -9.390625 9.34375 -9.085938 9.46875 -8.734375 C 9.601562 -8.378906 9.671875 -7.984375 9.671875 -7.546875 Z M 4.0625 -3.203125 C 4.0625 -3.015625 4.128906 -2.851562 4.265625 -2.71875 C 4.410156 -2.59375 4.738281 -2.53125 5.25 -2.53125 C 5.757812 -2.53125 6.085938 -2.59375 6.234375 -2.71875 C 6.378906 -2.851562 6.453125 -3.015625 6.453125 -3.203125 L 6.453125 -7.03125 C 6.453125 -7.207031 6.378906 -7.359375 6.234375 -7.484375 C 6.085938 -7.617188 5.757812 -7.6875 5.25 -7.6875 C 4.738281 -7.6875 4.410156 -7.617188 4.265625 -7.484375 C 4.128906 -7.359375 4.0625 -7.207031 4.0625 -7.03125 Z M 4.0625 -3.203125 "/></g></g></g><g fill="#0d4244" fill-opacity="0.302"><g transform="translate(87.921275, 38.254344)"><g><path d="M 3.625 0 L 1.5 0 C 1.3125 0 1.175781 -0.0351562 1.09375 -0.109375 C 1.019531 -0.191406 0.984375 -0.328125 0.984375 -0.515625 L 0.984375 -9.734375 C 0.984375 -9.910156 1.019531 -10.039062 1.09375 -10.125 C 1.175781 -10.207031 1.3125 -10.25 1.5 -10.25 L 2.96875 -10.25 C 3.15625 -10.25 3.3125 -10.21875 3.4375 -10.15625 C 3.5625 -10.101562 3.6875 -10.003906 3.8125 -9.859375 L 6.578125 -6.703125 L 6.578125 -9.734375 C 6.578125 -9.910156 6.613281 -10.039062 6.6875 -10.125 C 6.769531 -10.207031 6.90625 -10.25 7.09375 -10.25 L 9.21875 -10.25 C 9.40625 -10.25 9.535156 -10.207031 9.609375 -10.125 C 9.691406 -10.039062 9.734375 -9.910156 9.734375 -9.734375 L 9.734375 -0.515625 C 9.734375 -0.328125 9.691406 -0.191406 9.609375 -0.109375 C 9.535156 -0.0351562 9.40625 0 9.21875 0 L 7.09375 0 C 6.90625 0 6.769531 -0.0351562 6.6875 -0.109375 C 6.613281 -0.191406 6.578125 -0.328125 6.578125 -0.515625 L 6.578125 -2.265625 L 4.140625 -5.203125 L 4.140625 -0.515625 C 4.140625 -0.328125 4.097656 -0.191406 4.015625 -0.109375 C 3.941406 -0.0351562 3.8125 0 3.625 0 Z M 3.625 0 "/></g></g></g><g fill="#0d4244" fill-opacity="0.302"><g transform="translate(99.547984, 38.254344)"><g><path d="M 5.734375 0 L 1.234375 0 C 1.054688 0 0.925781 -0.0351562 0.84375 -0.109375 C 0.757812 -0.191406 0.71875 -0.328125 0.71875 -0.515625 L 0.71875 -2.171875 C 0.71875 -2.359375 0.757812 -2.488281 0.84375 -2.5625 C 0.925781 -2.644531 1.054688 -2.6875 1.234375 -2.6875 L 5.0625 -2.6875 C 5.1875 -2.6875 5.28125 -2.726562 5.34375 -2.8125 C 5.40625 -2.894531 5.4375 -2.992188 5.4375 -3.109375 C 5.4375 -3.265625 5.40625 -3.378906 5.34375 -3.453125 C 5.28125 -3.535156 5.1875 -3.582031 5.0625 -3.59375 L 2.9375 -3.890625 C 2.269531 -3.984375 1.734375 -4.195312 1.328125 -4.53125 C 0.921875 -4.875 0.71875 -5.445312 0.71875 -6.25 L 0.71875 -7.75 C 0.71875 -8.550781 0.976562 -9.164062 1.5 -9.59375 C 2.03125 -10.03125 2.753906 -10.25 3.671875 -10.25 L 7.65625 -10.25 C 7.832031 -10.25 7.960938 -10.207031 8.046875 -10.125 C 8.128906 -10.039062 8.171875 -9.910156 8.171875 -9.734375 L 8.171875 -8.046875 C 8.171875 -7.859375 8.128906 -7.722656 8.046875 -7.640625 C 7.960938 -7.566406 7.832031 -7.53125 7.65625 -7.53125 L 4.34375 -7.53125 C 4.21875 -7.53125 4.117188 -7.488281 4.046875 -7.40625 C 3.984375 -7.320312 3.953125 -7.222656 3.953125 -7.109375 C 3.953125 -6.984375 3.984375 -6.875 4.046875 -6.78125 C 4.117188 -6.695312 4.21875 -6.648438 4.34375 -6.640625 L 6.46875 -6.359375 C 7.125 -6.265625 7.65625 -6.046875 8.0625 -5.703125 C 8.476562 -5.367188 8.6875 -4.800781 8.6875 -4 L 8.6875 -2.5 C 8.6875 -1.695312 8.421875 -1.078125 7.890625 -0.640625 C 7.367188 -0.210938 6.648438 0 5.734375 0 Z M 5.734375 0 "/></g></g></g><g fill="#0d4244" fill-opacity="0.302"><g transform="translate(109.708906, 38.254344)"><g><path d="M 9.671875 -2.6875 C 9.671875 -2.25 9.601562 -1.851562 9.46875 -1.5 C 9.34375 -1.144531 9.113281 -0.84375 8.78125 -0.59375 C 8.457031 -0.34375 8.007812 -0.144531 7.4375 0 C 6.863281 0.144531 6.132812 0.21875 5.25 0.21875 C 4.363281 0.21875 3.628906 0.144531 3.046875 0 C 2.472656 -0.144531 2.019531 -0.34375 1.6875 -0.59375 C 1.363281 -0.84375 1.140625 -1.144531 1.015625 -1.5 C 0.890625 -1.851562 0.828125 -2.25 0.828125 -2.6875 L 0.828125 -7.546875 C 0.828125 -7.984375 0.890625 -8.378906 1.015625 -8.734375 C 1.140625 -9.085938 1.363281 -9.390625 1.6875 -9.640625 C 2.019531 -9.898438 2.472656 -10.101562 3.046875 -10.25 C 3.628906 -10.394531 4.363281 -10.46875 5.25 -10.46875 C 6.132812 -10.46875 6.863281 -10.394531 7.4375 -10.25 C 8.007812 -10.101562 8.457031 -9.898438 8.78125 -9.640625 C 9.113281 -9.390625 9.34375 -9.085938 9.46875 -8.734375 C 9.601562 -8.378906 9.671875 -7.984375 9.671875 -7.546875 Z M 4.0625 -3.203125 C 4.0625 -3.015625 4.128906 -2.851562 4.265625 -2.71875 C 4.410156 -2.59375 4.738281 -2.53125 5.25 -2.53125 C 5.757812 -2.53125 6.085938 -2.59375 6.234375 -2.71875 C 6.378906 -2.851562 6.453125 -3.015625 6.453125 -3.203125 L 6.453125 -7.03125 C 6.453125 -7.207031 6.378906 -7.359375 6.234375 -7.484375 C 6.085938 -7.617188 5.757812 -7.6875 5.25 -7.6875 C 4.738281 -7.6875 4.410156 -7.617188 4.265625 -7.484375 C 4.128906 -7.359375 4.0625 -7.207031 4.0625 -7.03125 Z M 4.0625 -3.203125 "/></g></g></g><g fill="#0d4244" fill-opacity="0.302"><g transform="translate(121.107922, 38.254344)"><g><path d="M 4.203125 -7.6875 L 4.203125 -5.859375 L 5.265625 -5.859375 C 5.515625 -5.859375 5.679688 -5.921875 5.765625 -6.046875 C 5.847656 -6.179688 5.890625 -6.34375 5.890625 -6.53125 L 5.890625 -7.015625 C 5.890625 -7.203125 5.847656 -7.359375 5.765625 -7.484375 C 5.679688 -7.617188 5.515625 -7.6875 5.265625 -7.6875 Z M 3.6875 0 L 1.5 0 C 1.3125 0 1.175781 -0.0351562 1.09375 -0.109375 C 1.019531 -0.191406 0.984375 -0.328125 0.984375 -0.515625 L 0.984375 -9.734375 C 0.984375 -9.910156 1.019531 -10.039062 1.09375 -10.125 C 1.175781 -10.207031 1.3125 -10.25 1.5 -10.25 L 6.234375 -10.25 C 7.296875 -10.25 8.023438 -10.023438 8.421875 -9.578125 C 8.828125 -9.140625 9.03125 -8.570312 9.03125 -7.875 L 9.03125 -7.21875 C 9.03125 -6.820312 8.972656 -6.484375 8.859375 -6.203125 C 8.742188 -5.921875 8.535156 -5.71875 8.234375 -5.59375 C 8.753906 -5.539062 9.171875 -5.332031 9.484375 -4.96875 C 9.804688 -4.601562 9.96875 -4.125 9.96875 -3.53125 L 9.96875 -0.515625 C 9.96875 -0.328125 9.925781 -0.191406 9.84375 -0.109375 C 9.757812 -0.0351562 9.628906 0 9.453125 0 L 7.25 0 C 7.0625 0 6.925781 -0.0351562 6.84375 -0.109375 C 6.769531 -0.191406 6.734375 -0.328125 6.734375 -0.515625 L 6.734375 -2.6875 C 6.734375 -2.894531 6.691406 -3.046875 6.609375 -3.140625 C 6.523438 -3.242188 6.382812 -3.296875 6.1875 -3.296875 L 4.203125 -3.296875 L 4.203125 -0.515625 C 4.203125 -0.328125 4.160156 -0.191406 4.078125 -0.109375 C 3.992188 -0.0351562 3.863281 0 3.6875 0 Z M 3.6875 0 "/></g></g></g><g fill="#0d4244" fill-opacity="0.302"><g transform="translate(132.592319, 38.254344)"><g/></g></g><g fill="#0d4244" fill-opacity="0.302"><g transform="translate(136.705094, 38.254344)"><g><path d="M 3.609375 0 L 1.5 0 C 1.3125 0 1.175781 -0.0351562 1.09375 -0.109375 C 1.019531 -0.191406 0.984375 -0.328125 0.984375 -0.515625 L 0.984375 -9.734375 C 0.984375 -9.910156 1.019531 -10.039062 1.09375 -10.125 C 1.175781 -10.207031 1.3125 -10.25 1.5 -10.25 L 3.78125 -10.25 C 3.9375 -10.25 4.0625 -10.210938 4.15625 -10.140625 C 4.257812 -10.078125 4.351562 -9.972656 4.4375 -9.828125 L 5.71875 -7.5 C 5.769531 -7.414062 5.8125 -7.351562 5.84375 -7.3125 C 5.875 -7.28125 5.921875 -7.265625 5.984375 -7.265625 L 6.109375 -7.265625 C 6.160156 -7.265625 6.203125 -7.28125 6.234375 -7.3125 C 6.273438 -7.351562 6.316406 -7.414062 6.359375 -7.5 L 7.625 -9.828125 C 7.707031 -9.972656 7.800781 -10.078125 7.90625 -10.140625 C 8.007812 -10.210938 8.132812 -10.25 8.28125 -10.25 L 10.59375 -10.25 C 10.769531 -10.25 10.898438 -10.207031 10.984375 -10.125 C 11.066406 -10.039062 11.109375 -9.910156 11.109375 -9.734375 L 11.109375 -0.515625 C 11.109375 -0.328125 11.066406 -0.191406 10.984375 -0.109375 C 10.898438 -0.0351562 10.769531 0 10.59375 0 L 8.390625 0 C 8.210938 0 8.082031 -0.0351562 8 -0.109375 C 7.925781 -0.191406 7.890625 -0.328125 7.890625 -0.515625 L 7.890625 -5.515625 L 7.046875 -3.96875 C 6.960938 -3.8125 6.859375 -3.695312 6.734375 -3.625 C 6.617188 -3.550781 6.472656 -3.515625 6.296875 -3.515625 L 5.71875 -3.515625 C 5.539062 -3.515625 5.390625 -3.550781 5.265625 -3.625 C 5.148438 -3.695312 5.050781 -3.8125 4.96875 -3.96875 L 4.125 -5.515625 L 4.125 -0.515625 C 4.125 -0.328125 4.082031 -0.191406 4 -0.109375 C 3.925781 -0.0351562 3.796875 0 3.609375 0 Z M 3.609375 0 "/></g></g></g><g fill="#0d4244" fill-opacity="0.302"><g transform="translate(149.697973, 38.254344)"><g><path d="M 8.09375 0 L 1.5 0 C 1.3125 0 1.175781 -0.0351562 1.09375 -0.109375 C 1.019531 -0.191406 0.984375 -0.328125 0.984375 -0.515625 L 0.984375 -9.734375 C 0.984375 -9.910156 1.019531 -10.039062 1.09375 -10.125 C 1.175781 -10.207031 1.3125 -10.25 1.5 -10.25 L 8.09375 -10.25 C 8.28125 -10.25 8.410156 -10.207031 8.484375 -10.125 C 8.566406 -10.039062 8.609375 -9.910156 8.609375 -9.734375 L 8.609375 -8.078125 C 8.609375 -7.890625 8.566406 -7.753906 8.484375 -7.671875 C 8.410156 -7.597656 8.28125 -7.5625 8.09375 -7.5625 L 4.171875 -7.5625 L 4.171875 -6.46875 L 6.953125 -6.46875 C 7.128906 -6.46875 7.253906 -6.425781 7.328125 -6.34375 C 7.410156 -6.257812 7.453125 -6.128906 7.453125 -5.953125 L 7.453125 -4.421875 C 7.453125 -4.242188 7.410156 -4.113281 7.328125 -4.03125 C 7.253906 -3.957031 7.128906 -3.921875 6.953125 -3.921875 L 4.171875 -3.921875 L 4.171875 -2.6875 L 8.09375 -2.6875 C 8.28125 -2.6875 8.410156 -2.644531 8.484375 -2.5625 C 8.566406 -2.488281 8.609375 -2.359375 8.609375 -2.171875 L 8.609375 -0.515625 C 8.609375 -0.328125 8.566406 -0.191406 8.484375 -0.109375 C 8.410156 -0.0351562 8.28125 0 8.09375 0 Z M 8.09375 0 "/></g></g></g><g fill="#0d4244" fill-opacity="0.502"><g transform="translate(55.116079, 37.625398)"><g><path d="M 5.734375 0 L 1.234375 0 C 1.054688 0 0.925781 -0.0351562 0.84375 -0.109375 C 0.757812 -0.191406 0.71875 -0.328125 0.71875 -0.515625 L 0.71875 -2.171875 C 0.71875 -2.359375 0.757812 -2.488281 0.84375 -2.5625 C 0.925781 -2.644531 1.054688 -2.6875 1.234375 -2.6875 L 5.0625 -2.6875 C 5.1875 -2.6875 5.28125 -2.726562 5.34375 -2.8125 C 5.40625 -2.894531 5.4375 -2.992188 5.4375 -3.109375 C 5.4375 -3.265625 5.40625 -3.378906 5.34375 -3.453125 C 5.28125 -3.535156 5.1875 -3.582031 5.0625 -3.59375 L 2.9375 -3.890625 C 2.269531 -3.984375 1.734375 -4.195312 1.328125 -4.53125 C 0.921875 -4.875 0.71875 -5.445312 0.71875 -6.25 L 0.71875 -7.75 C 0.71875 -8.550781 0.976562 -9.164062 1.5 -9.59375 C 2.03125 -10.03125 2.753906 -10.25 3.671875 -10.25 L 7.65625 -10.25 C 7.832031 -10.25 7.960938 -10.207031 8.046875 -10.125 C 8.128906 -10.039062 8.171875 -9.910156 8.171875 -9.734375 L 8.171875 -8.046875 C 8.171875 -7.859375 8.128906 -7.722656 8.046875 -7.640625 C 7.960938 -7.566406 7.832031 -7.53125 7.65625 -7.53125 L 4.34375 -7.53125 C 4.21875 -7.53125 4.117188 -7.488281 4.046875 -7.40625 C 3.984375 -7.320312 3.953125 -7.222656 3.953125 -7.109375 C 3.953125 -6.984375 3.984375 -6.875 4.046875 -6.78125 C 4.117188 -6.695312 4.21875 -6.648438 4.34375 -6.640625 L 6.46875 -6.359375 C 7.125 -6.265625 7.65625 -6.046875 8.0625 -5.703125 C 8.476562 -5.367188 8.6875 -4.800781 8.6875 -4 L 8.6875 -2.5 C 8.6875 -1.695312 8.421875 -1.078125 7.890625 -0.640625 C 7.367188 -0.210938 6.648438 0 5.734375 0 Z M 5.734375 0 "/></g></g></g><g fill="#0d4244" fill-opacity="0.502"><g transform="translate(65.277002, 37.625398)"><g><path d="M 3.703125 0 L 1.5 0 C 1.3125 0 1.175781 -0.0351562 1.09375 -0.109375 C 1.019531 -0.191406 0.984375 -0.328125 0.984375 -0.515625 L 0.984375 -9.734375 C 0.984375 -9.910156 1.019531 -10.039062 1.09375 -10.125 C 1.175781 -10.207031 1.3125 -10.25 1.5 -10.25 L 5.84375 -10.25 C 7.132812 -10.25 8.015625 -9.992188 8.484375 -9.484375 C 8.960938 -8.972656 9.203125 -8.300781 9.203125 -7.46875 L 9.203125 -5.65625 C 9.203125 -4.820312 8.960938 -4.148438 8.484375 -3.640625 C 8.015625 -3.128906 7.132812 -2.875 5.84375 -2.875 L 4.21875 -2.875 L 4.21875 -0.515625 C 4.21875 -0.328125 4.175781 -0.191406 4.09375 -0.109375 C 4.007812 -0.0351562 3.878906 0 3.703125 0 Z M 4.1875 -7.59375 L 4.1875 -5.4375 L 5.46875 -5.4375 C 5.738281 -5.4375 5.914062 -5.503906 6 -5.640625 C 6.09375 -5.785156 6.140625 -5.953125 6.140625 -6.140625 L 6.140625 -6.890625 C 6.140625 -7.066406 6.09375 -7.226562 6 -7.375 C 5.914062 -7.519531 5.738281 -7.59375 5.46875 -7.59375 Z M 4.1875 -7.59375 "/></g></g></g><g fill="#0d4244" fill-opacity="0.502"><g transform="translate(75.893315, 37.625398)"><g><path d="M 9.671875 -2.6875 C 9.671875 -2.25 9.601562 -1.851562 9.46875 -1.5 C 9.34375 -1.144531 9.113281 -0.84375 8.78125 -0.59375 C 8.457031 -0.34375 8.007812 -0.144531 7.4375 0 C 6.863281 0.144531 6.132812 0.21875 5.25 0.21875 C 4.363281 0.21875 3.628906 0.144531 3.046875 0 C 2.472656 -0.144531 2.019531 -0.34375 1.6875 -0.59375 C 1.363281 -0.84375 1.140625 -1.144531 1.015625 -1.5 C 0.890625 -1.851562 0.828125 -2.25 0.828125 -2.6875 L 0.828125 -7.546875 C 0.828125 -7.984375 0.890625 -8.378906 1.015625 -8.734375 C 1.140625 -9.085938 1.363281 -9.390625 1.6875 -9.640625 C 2.019531 -9.898438 2.472656 -10.101562 3.046875 -10.25 C 3.628906 -10.394531 4.363281 -10.46875 5.25 -10.46875 C 6.132812 -10.46875 6.863281 -10.394531 7.4375 -10.25 C 8.007812 -10.101562 8.457031 -9.898438 8.78125 -9.640625 C 9.113281 -9.390625 9.34375 -9.085938 9.46875 -8.734375 C 9.601562 -8.378906 9.671875 -7.984375 9.671875 -7.546875 Z M 4.0625 -3.203125 C 4.0625 -3.015625 4.128906 -2.851562 4.265625 -2.71875 C 4.410156 -2.59375 4.738281 -2.53125 5.25 -2.53125 C 5.757812 -2.53125 6.085938 -2.59375 6.234375 -2.71875 C 6.378906 -2.851562 6.453125 -3.015625 6.453125 -3.203125 L 6.453125 -7.03125 C 6.453125 -7.207031 6.378906 -7.359375 6.234375 -7.484375 C 6.085938 -7.617188 5.757812 -7.6875 5.25 -7.6875 C 4.738281 -7.6875 4.410156 -7.617188 4.265625 -7.484375 C 4.128906 -7.359375 4.0625 -7.207031 4.0625 -7.03125 Z M 4.0625 -3.203125 "/></g></g></g><g fill="#0d4244" fill-opacity="0.502"><g transform="translate(87.292329, 37.625398)"><g><path d="M 3.625 0 L 1.5 0 C 1.3125 0 1.175781 -0.0351562 1.09375 -0.109375 C 1.019531 -0.191406 0.984375 -0.328125 0.984375 -0.515625 L 0.984375 -9.734375 C 0.984375 -9.910156 1.019531 -10.039062 1.09375 -10.125 C 1.175781 -10.207031 1.3125 -10.25 1.5 -10.25 L 2.96875 -10.25 C 3.15625 -10.25 3.3125 -10.21875 3.4375 -10.15625 C 3.5625 -10.101562 3.6875 -10.003906 3.8125 -9.859375 L 6.578125 -6.703125 L 6.578125 -9.734375 C 6.578125 -9.910156 6.613281 -10.039062 6.6875 -10.125 C 6.769531 -10.207031 6.90625 -10.25 7.09375 -10.25 L 9.21875 -10.25 C 9.40625 -10.25 9.535156 -10.207031 9.609375 -10.125 C 9.691406 -10.039062 9.734375 -9.910156 9.734375 -9.734375 L 9.734375 -0.515625 C 9.734375 -0.328125 9.691406 -0.191406 9.609375 -0.109375 C 9.535156 -0.0351562 9.40625 0 9.21875 0 L 7.09375 0 C 6.90625 0 6.769531 -0.0351562 6.6875 -0.109375 C 6.613281 -0.191406 6.578125 -0.328125 6.578125 -0.515625 L 6.578125 -2.265625 L 4.140625 -5.203125 L 4.140625 -0.515625 C 4.140625 -0.328125 4.097656 -0.191406 4.015625 -0.109375 C 3.941406 -0.0351562 3.8125 0 3.625 0 Z M 3.625 0 "/></g></g></g><g fill="#0d4244" fill-opacity="0.502"><g transform="translate(98.919039, 37.625398)"><g><path d="M 5.734375 0 L 1.234375 0 C 1.054688 0 0.925781 -0.0351562 0.84375 -0.109375 C 0.757812 -0.191406 0.71875 -0.328125 0.71875 -0.515625 L 0.71875 -2.171875 C 0.71875 -2.359375 0.757812 -2.488281 0.84375 -2.5625 C 0.925781 -2.644531 1.054688 -2.6875 1.234375 -2.6875 L 5.0625 -2.6875 C 5.1875 -2.6875 5.28125 -2.726562 5.34375 -2.8125 C 5.40625 -2.894531 5.4375 -2.992188 5.4375 -3.109375 C 5.4375 -3.265625 5.40625 -3.378906 5.34375 -3.453125 C 5.28125 -3.535156 5.1875 -3.582031 5.0625 -3.59375 L 2.9375 -3.890625 C 2.269531 -3.984375 1.734375 -4.195312 1.328125 -4.53125 C 0.921875 -4.875 0.71875 -5.445312 0.71875 -6.25 L 0.71875 -7.75 C 0.71875 -8.550781 0.976562 -9.164062 1.5 -9.59375 C 2.03125 -10.03125 2.753906 -10.25 3.671875 -10.25 L 7.65625 -10.25 C 7.832031 -10.25 7.960938 -10.207031 8.046875 -10.125 C 8.128906 -10.039062 8.171875 -9.910156 8.171875 -9.734375 L 8.171875 -8.046875 C 8.171875 -7.859375 8.128906 -7.722656 8.046875 -7.640625 C 7.960938 -7.566406 7.832031 -7.53125 7.65625 -7.53125 L 4.34375 -7.53125 C 4.21875 -7.53125 4.117188 -7.488281 4.046875 -7.40625 C 3.984375 -7.320312 3.953125 -7.222656 3.953125 -7.109375 C 3.953125 -6.984375 3.984375 -6.875 4.046875 -6.78125 C 4.117188 -6.695312 4.21875 -6.648438 4.34375 -6.640625 L 6.46875 -6.359375 C 7.125 -6.265625 7.65625 -6.046875 8.0625 -5.703125 C 8.476562 -5.367188 8.6875 -4.800781 8.6875 -4 L 8.6875 -2.5 C 8.6875 -1.695312 8.421875 -1.078125 7.890625 -0.640625 C 7.367188 -0.210938 6.648438 0 5.734375 0 Z M 5.734375 0 "/></g></g></g><g fill="#0d4244" fill-opacity="0.502"><g transform="translate(109.07996, 37.625398)"><g><path d="M 9.671875 -2.6875 C 9.671875 -2.25 9.601562 -1.851562 9.46875 -1.5 C 9.34375 -1.144531 9.113281 -0.84375 8.78125 -0.59375 C 8.457031 -0.34375 8.007812 -0.144531 7.4375 0 C 6.863281 0.144531 6.132812 0.21875 5.25 0.21875 C 4.363281 0.21875 3.628906 0.144531 3.046875 0 C 2.472656 -0.144531 2.019531 -0.34375 1.6875 -0.59375 C 1.363281 -0.84375 1.140625 -1.144531 1.015625 -1.5 C 0.890625 -1.851562 0.828125 -2.25 0.828125 -2.6875 L 0.828125 -7.546875 C 0.828125 -7.984375 0.890625 -8.378906 1.015625 -8.734375 C 1.140625 -9.085938 1.363281 -9.390625 1.6875 -9.640625 C 2.019531 -9.898438 2.472656 -10.101562 3.046875 -10.25 C 3.628906 -10.394531 4.363281 -10.46875 5.25 -10.46875 C 6.132812 -10.46875 6.863281 -10.394531 7.4375 -10.25 C 8.007812 -10.101562 8.457031 -9.898438 8.78125 -9.640625 C 9.113281 -9.390625 9.34375 -9.085938 9.46875 -8.734375 C 9.601562 -8.378906 9.671875 -7.984375 9.671875 -7.546875 Z M 4.0625 -3.203125 C 4.0625 -3.015625 4.128906 -2.851562 4.265625 -2.71875 C 4.410156 -2.59375 4.738281 -2.53125 5.25 -2.53125 C 5.757812 -2.53125 6.085938 -2.59375 6.234375 -2.71875 C 6.378906 -2.851562 6.453125 -3.015625 6.453125 -3.203125 L 6.453125 -7.03125 C 6.453125 -7.207031 6.378906 -7.359375 6.234375 -7.484375 C 6.085938 -7.617188 5.757812 -7.6875 5.25 -7.6875 C 4.738281 -7.6875 4.410156 -7.617188 4.265625 -7.484375 C 4.128906 -7.359375 4.0625 -7.207031 4.0625 -7.03125 Z M 4.0625 -3.203125 "/></g></g></g><g fill="#0d4244" fill-opacity="0.502"><g transform="translate(120.478976, 37.625398)"><g><path d="M 4.203125 -7.6875 L 4.203125 -5.859375 L 5.265625 -5.859375 C 5.515625 -5.859375 5.679688 -5.921875 5.765625 -6.046875 C 5.847656 -6.179688 5.890625 -6.34375 5.890625 -6.53125 L 5.890625 -7.015625 C 5.890625 -7.203125 5.847656 -7.359375 5.765625 -7.484375 C 5.679688 -7.617188 5.515625 -7.6875 5.265625 -7.6875 Z M 3.6875 0 L 1.5 0 C 1.3125 0 1.175781 -0.0351562 1.09375 -0.109375 C 1.019531 -0.191406 0.984375 -0.328125 0.984375 -0.515625 L 0.984375 -9.734375 C 0.984375 -9.910156 1.019531 -10.039062 1.09375 -10.125 C 1.175781 -10.207031 1.3125 -10.25 1.5 -10.25 L 6.234375 -10.25 C 7.296875 -10.25 8.023438 -10.023438 8.421875 -9.578125 C 8.828125 -9.140625 9.03125 -8.570312 9.03125 -7.875 L 9.03125 -7.21875 C 9.03125 -6.820312 8.972656 -6.484375 8.859375 -6.203125 C 8.742188 -5.921875 8.535156 -5.71875 8.234375 -5.59375 C 8.753906 -5.539062 9.171875 -5.332031 9.484375 -4.96875 C 9.804688 -4.601562 9.96875 -4.125 9.96875 -3.53125 L 9.96875 -0.515625 C 9.96875 -0.328125 9.925781 -0.191406 9.84375 -0.109375 C 9.757812 -0.0351562 9.628906 0 9.453125 0 L 7.25 0 C 7.0625 0 6.925781 -0.0351562 6.84375 -0.109375 C 6.769531 -0.191406 6.734375 -0.328125 6.734375 -0.515625 L 6.734375 -2.6875 C 6.734375 -2.894531 6.691406 -3.046875 6.609375 -3.140625 C 6.523438 -3.242188 6.382812 -3.296875 6.1875 -3.296875 L 4.203125 -3.296875 L 4.203125 -0.515625 C 4.203125 -0.328125 4.160156 -0.191406 4.078125 -0.109375 C 3.992188 -0.0351562 3.863281 0 3.6875 0 Z M 3.6875 0 "/></g></g></g><g fill="#0d4244" fill-opacity="0.502"><g transform="translate(131.963373, 37.625398)"><g/></g></g><g fill="#0d4244" fill-opacity="0.502"><g transform="translate(136.076148, 37.625398)"><g><path d="M 3.609375 0 L 1.5 0 C 1.3125 0 1.175781 -0.0351562 1.09375 -0.109375 C 1.019531 -0.191406 0.984375 -0.328125 0.984375 -0.515625 L 0.984375 -9.734375 C 0.984375 -9.910156 1.019531 -10.039062 1.09375 -10.125 C 1.175781 -10.207031 1.3125 -10.25 1.5 -10.25 L 3.78125 -10.25 C 3.9375 -10.25 4.0625 -10.210938 4.15625 -10.140625 C 4.257812 -10.078125 4.351562 -9.972656 4.4375 -9.828125 L 5.71875 -7.5 C 5.769531 -7.414062 5.8125 -7.351562 5.84375 -7.3125 C 5.875 -7.28125 5.921875 -7.265625 5.984375 -7.265625 L 6.109375 -7.265625 C 6.160156 -7.265625 6.203125 -7.28125 6.234375 -7.3125 C 6.273438 -7.351562 6.316406 -7.414062 6.359375 -7.5 L 7.625 -9.828125 C 7.707031 -9.972656 7.800781 -10.078125 7.90625 -10.140625 C 8.007812 -10.210938 8.132812 -10.25 8.28125 -10.25 L 10.59375 -10.25 C 10.769531 -10.25 10.898438 -10.207031 10.984375 -10.125 C 11.066406 -10.039062 11.109375 -9.910156 11.109375 -9.734375 L 11.109375 -0.515625 C 11.109375 -0.328125 11.066406 -0.191406 10.984375 -0.109375 C 10.898438 -0.0351562 10.769531 0 10.59375 0 L 8.390625 0 C 8.210938 0 8.082031 -0.0351562 8 -0.109375 C 7.925781 -0.191406 7.890625 -0.328125 7.890625 -0.515625 L 7.890625 -5.515625 L 7.046875 -3.96875 C 6.960938 -3.8125 6.859375 -3.695312 6.734375 -3.625 C 6.617188 -3.550781 6.472656 -3.515625 6.296875 -3.515625 L 5.71875 -3.515625 C 5.539062 -3.515625 5.390625 -3.550781 5.265625 -3.625 C 5.148438 -3.695312 5.050781 -3.8125 4.96875 -3.96875 L 4.125 -5.515625 L 4.125 -0.515625 C 4.125 -0.328125 4.082031 -0.191406 4 -0.109375 C 3.925781 -0.0351562 3.796875 0 3.609375 0 Z M 3.609375 0 "/></g></g></g><g fill="#0d4244" fill-opacity="0.502"><g transform="translate(149.069027, 37.625398)"><g><path d="M 8.09375 0 L 1.5 0 C 1.3125 0 1.175781 -0.0351562 1.09375 -0.109375 C 1.019531 -0.191406 0.984375 -0.328125 0.984375 -0.515625 L 0.984375 -9.734375 C 0.984375 -9.910156 1.019531 -10.039062 1.09375 -10.125 C 1.175781 -10.207031 1.3125 -10.25 1.5 -10.25 L 8.09375 -10.25 C 8.28125 -10.25 8.410156 -10.207031 8.484375 -10.125 C 8.566406 -10.039062 8.609375 -9.910156 8.609375 -9.734375 L 8.609375 -8.078125 C 8.609375 -7.890625 8.566406 -7.753906 8.484375 -7.671875 C 8.410156 -7.597656 8.28125 -7.5625 8.09375 -7.5625 L 4.171875 -7.5625 L 4.171875 -6.46875 L 6.953125 -6.46875 C 7.128906 -6.46875 7.253906 -6.425781 7.328125 -6.34375 C 7.410156 -6.257812 7.453125 -6.128906 7.453125 -5.953125 L 7.453125 -4.421875 C 7.453125 -4.242188 7.410156 -4.113281 7.328125 -4.03125 C 7.253906 -3.957031 7.128906 -3.921875 6.953125 -3.921875 L 4.171875 -3.921875 L 4.171875 -2.6875 L 8.09375 -2.6875 C 8.28125 -2.6875 8.410156 -2.644531 8.484375 -2.5625 C 8.566406 -2.488281 8.609375 -2.359375 8.609375 -2.171875 L 8.609375 -0.515625 C 8.609375 -0.328125 8.566406 -0.191406 8.484375 -0.109375 C 8.410156 -0.0351562 8.28125 0 8.09375 0 Z M 8.09375 0 "/></g></g></g><g fill="#ffffff" fill-opacity="1"><g transform="translate(54.487131, 36.996451)"><g><path d="M 5.734375 0 L 1.234375 0 C 1.054688 0 0.925781 -0.0351562 0.84375 -0.109375 C 0.757812 -0.191406 0.71875 -0.328125 0.71875 -0.515625 L 0.71875 -2.171875 C 0.71875 -2.359375 0.757812 -2.488281 0.84375 -2.5625 C 0.925781 -2.644531 1.054688 -2.6875 1.234375 -2.6875 L 5.0625 -2.6875 C 5.1875 -2.6875 5.28125 -2.726562 5.34375 -2.8125 C 5.40625 -2.894531 5.4375 -2.992188 5.4375 -3.109375 C 5.4375 -3.265625 5.40625 -3.378906 5.34375 -3.453125 C 5.28125 -3.535156 5.1875 -3.582031 5.0625 -3.59375 L 2.9375 -3.890625 C 2.269531 -3.984375 1.734375 -4.195312 1.328125 -4.53125 C 0.921875 -4.875 0.71875 -5.445312 0.71875 -6.25 L 0.71875 -7.75 C 0.71875 -8.550781 0.976562 -9.164062 1.5 -9.59375 C 2.03125 -10.03125 2.753906 -10.25 3.671875 -10.25 L 7.65625 -10.25 C 7.832031 -10.25 7.960938 -10.207031 8.046875 -10.125 C 8.128906 -10.039062 8.171875 -9.910156 8.171875 -9.734375 L 8.171875 -8.046875 C 8.171875 -7.859375 8.128906 -7.722656 8.046875 -7.640625 C 7.960938 -7.566406 7.832031 -7.53125 7.65625 -7.53125 L 4.34375 -7.53125 C 4.21875 -7.53125 4.117188 -7.488281 4.046875 -7.40625 C 3.984375 -7.320312 3.953125 -7.222656 3.953125 -7.109375 C 3.953125 -6.984375 3.984375 -6.875 4.046875 -6.78125 C 4.117188 -6.695312 4.21875 -6.648438 4.34375 -6.640625 L 6.46875 -6.359375 C 7.125 -6.265625 7.65625 -6.046875 8.0625 -5.703125 C 8.476562 -5.367188 8.6875 -4.800781 8.6875 -4 L 8.6875 -2.5 C 8.6875 -1.695312 8.421875 -1.078125 7.890625 -0.640625 C 7.367188 -0.210938 6.648438 0 5.734375 0 Z M 5.734375 0 "/></g></g></g><g fill="#ffffff" fill-opacity="1"><g transform="translate(64.648054, 36.996451)"><g><path d="M 3.703125 0 L 1.5 0 C 1.3125 0 1.175781 -0.0351562 1.09375 -0.109375 C 1.019531 -0.191406 0.984375 -0.328125 0.984375 -0.515625 L 0.984375 -9.734375 C 0.984375 -9.910156 1.019531 -10.039062 1.09375 -10.125 C 1.175781 -10.207031 1.3125 -10.25 1.5 -10.25 L 5.84375 -10.25 C 7.132812 -10.25 8.015625 -9.992188 8.484375 -9.484375 C 8.960938 -8.972656 9.203125 -8.300781 9.203125 -7.46875 L 9.203125 -5.65625 C 9.203125 -4.820312 8.960938 -4.148438 8.484375 -3.640625 C 8.015625 -3.128906 7.132812 -2.875 5.84375 -2.875 L 4.21875 -2.875 L 4.21875 -0.515625 C 4.21875 -0.328125 4.175781 -0.191406 4.09375 -0.109375 C 4.007812 -0.0351562 3.878906 0 3.703125 0 Z M 4.1875 -7.59375 L 4.1875 -5.4375 L 5.46875 -5.4375 C 5.738281 -5.4375 5.914062 -5.503906 6 -5.640625 C 6.09375 -5.785156 6.140625 -5.953125 6.140625 -6.140625 L 6.140625 -6.890625 C 6.140625 -7.066406 6.09375 -7.226562 6 -7.375 C 5.914062 -7.519531 5.738281 -7.59375 5.46875 -7.59375 Z M 4.1875 -7.59375 "/></g></g></g><g fill="#ffffff" fill-opacity="1"><g transform="translate(75.264366, 36.996451)"><g><path d="M 9.671875 -2.6875 C 9.671875 -2.25 9.601562 -1.851562 9.46875 -1.5 C 9.34375 -1.144531 9.113281 -0.84375 8.78125 -0.59375 C 8.457031 -0.34375 8.007812 -0.144531 7.4375 0 C 6.863281 0.144531 6.132812 0.21875 5.25 0.21875 C 4.363281 0.21875 3.628906 0.144531 3.046875 0 C 2.472656 -0.144531 2.019531 -0.34375 1.6875 -0.59375 C 1.363281 -0.84375 1.140625 -1.144531 1.015625 -1.5 C 0.890625 -1.851562 0.828125 -2.25 0.828125 -2.6875 L 0.828125 -7.546875 C 0.828125 -7.984375 0.890625 -8.378906 1.015625 -8.734375 C 1.140625 -9.085938 1.363281 -9.390625 1.6875 -9.640625 C 2.019531 -9.898438 2.472656 -10.101562 3.046875 -10.25 C 3.628906 -10.394531 4.363281 -10.46875 5.25 -10.46875 C 6.132812 -10.46875 6.863281 -10.394531 7.4375 -10.25 C 8.007812 -10.101562 8.457031 -9.898438 8.78125 -9.640625 C 9.113281 -9.390625 9.34375 -9.085938 9.46875 -8.734375 C 9.601562 -8.378906 9.671875 -7.984375 9.671875 -7.546875 Z M 4.0625 -3.203125 C 4.0625 -3.015625 4.128906 -2.851562 4.265625 -2.71875 C 4.410156 -2.59375 4.738281 -2.53125 5.25 -2.53125 C 5.757812 -2.53125 6.085938 -2.59375 6.234375 -2.71875 C 6.378906 -2.851562 6.453125 -3.015625 6.453125 -3.203125 L 6.453125 -7.03125 C 6.453125 -7.207031 6.378906 -7.359375 6.234375 -7.484375 C 6.085938 -7.617188 5.757812 -7.6875 5.25 -7.6875 C 4.738281 -7.6875 4.410156 -7.617188 4.265625 -7.484375 C 4.128906 -7.359375 4.0625 -7.207031 4.0625 -7.03125 Z M 4.0625 -3.203125 "/></g></g></g><g fill="#ffffff" fill-opacity="1"><g transform="translate(86.663381, 36.996451)"><g><path d="M 3.625 0 L 1.5 0 C 1.3125 0 1.175781 -0.0351562 1.09375 -0.109375 C 1.019531 -0.191406 0.984375 -0.328125 0.984375 -0.515625 L 0.984375 -9.734375 C 0.984375 -9.910156 1.019531 -10.039062 1.09375 -10.125 C 1.175781 -10.207031 1.3125 -10.25 1.5 -10.25 L 2.96875 -10.25 C 3.15625 -10.25 3.3125 -10.21875 3.4375 -10.15625 C 3.5625 -10.101562 3.6875 -10.003906 3.8125 -9.859375 L 6.578125 -6.703125 L 6.578125 -9.734375 C 6.578125 -9.910156 6.613281 -10.039062 6.6875 -10.125 C 6.769531 -10.207031 6.90625 -10.25 7.09375 -10.25 L 9.21875 -10.25 C 9.40625 -10.25 9.535156 -10.207031 9.609375 -10.125 C 9.691406 -10.039062 9.734375 -9.910156 9.734375 -9.734375 L 9.734375 -0.515625 C 9.734375 -0.328125 9.691406 -0.191406 9.609375 -0.109375 C 9.535156 -0.0351562 9.40625 0 9.21875 0 L 7.09375 0 C 6.90625 0 6.769531 -0.0351562 6.6875 -0.109375 C 6.613281 -0.191406 6.578125 -0.328125 6.578125 -0.515625 L 6.578125 -2.265625 L 4.140625 -5.203125 L 4.140625 -0.515625 C 4.140625 -0.328125 4.097656 -0.191406 4.015625 -0.109375 C 3.941406 -0.0351562 3.8125 0 3.625 0 Z M 3.625 0 "/></g></g></g><g fill="#ffffff" fill-opacity="1"><g transform="translate(98.29009, 36.996451)"><g><path d="M 5.734375 0 L 1.234375 0 C 1.054688 0 0.925781 -0.0351562 0.84375 -0.109375 C 0.757812 -0.191406 0.71875 -0.328125 0.71875 -0.515625 L 0.71875 -2.171875 C 0.71875 -2.359375 0.757812 -2.488281 0.84375 -2.5625 C 0.925781 -2.644531 1.054688 -2.6875 1.234375 -2.6875 L 5.0625 -2.6875 C 5.1875 -2.6875 5.28125 -2.726562 5.34375 -2.8125 C 5.40625 -2.894531 5.4375 -2.992188 5.4375 -3.109375 C 5.4375 -3.265625 5.40625 -3.378906 5.34375 -3.453125 C 5.28125 -3.535156 5.1875 -3.582031 5.0625 -3.59375 L 2.9375 -3.890625 C 2.269531 -3.984375 1.734375 -4.195312 1.328125 -4.53125 C 0.921875 -4.875 0.71875 -5.445312 0.71875 -6.25 L 0.71875 -7.75 C 0.71875 -8.550781 0.976562 -9.164062 1.5 -9.59375 C 2.03125 -10.03125 2.753906 -10.25 3.671875 -10.25 L 7.65625 -10.25 C 7.832031 -10.25 7.960938 -10.207031 8.046875 -10.125 C 8.128906 -10.039062 8.171875 -9.910156 8.171875 -9.734375 L 8.171875 -8.046875 C 8.171875 -7.859375 8.128906 -7.722656 8.046875 -7.640625 C 7.960938 -7.566406 7.832031 -7.53125 7.65625 -7.53125 L 4.34375 -7.53125 C 4.21875 -7.53125 4.117188 -7.488281 4.046875 -7.40625 C 3.984375 -7.320312 3.953125 -7.222656 3.953125 -7.109375 C 3.953125 -6.984375 3.984375 -6.875 4.046875 -6.78125 C 4.117188 -6.695312 4.21875 -6.648438 4.34375 -6.640625 L 6.46875 -6.359375 C 7.125 -6.265625 7.65625 -6.046875 8.0625 -5.703125 C 8.476562 -5.367188 8.6875 -4.800781 8.6875 -4 L 8.6875 -2.5 C 8.6875 -1.695312 8.421875 -1.078125 7.890625 -0.640625 C 7.367188 -0.210938 6.648438 0 5.734375 0 Z M 5.734375 0 "/></g></g></g><g fill="#ffffff" fill-opacity="1"><g transform="translate(108.451012, 36.996451)"><g><path d="M 9.671875 -2.6875 C 9.671875 -2.25 9.601562 -1.851562 9.46875 -1.5 C 9.34375 -1.144531 9.113281 -0.84375 8.78125 -0.59375 C 8.457031 -0.34375 8.007812 -0.144531 7.4375 0 C 6.863281 0.144531 6.132812 0.21875 5.25 0.21875 C 4.363281 0.21875 3.628906 0.144531 3.046875 0 C 2.472656 -0.144531 2.019531 -0.34375 1.6875 -0.59375 C 1.363281 -0.84375 1.140625 -1.144531 1.015625 -1.5 C 0.890625 -1.851562 0.828125 -2.25 0.828125 -2.6875 L 0.828125 -7.546875 C 0.828125 -7.984375 0.890625 -8.378906 1.015625 -8.734375 C 1.140625 -9.085938 1.363281 -9.390625 1.6875 -9.640625 C 2.019531 -9.898438 2.472656 -10.101562 3.046875 -10.25 C 3.628906 -10.394531 4.363281 -10.46875 5.25 -10.46875 C 6.132812 -10.46875 6.863281 -10.394531 7.4375 -10.25 C 8.007812 -10.101562 8.457031 -9.898438 8.78125 -9.640625 C 9.113281 -9.390625 9.34375 -9.085938 9.46875 -8.734375 C 9.601562 -8.378906 9.671875 -7.984375 9.671875 -7.546875 Z M 4.0625 -3.203125 C 4.0625 -3.015625 4.128906 -2.851562 4.265625 -2.71875 C 4.410156 -2.59375 4.738281 -2.53125 5.25 -2.53125 C 5.757812 -2.53125 6.085938 -2.59375 6.234375 -2.71875 C 6.378906 -2.851562 6.453125 -3.015625 6.453125 -3.203125 L 6.453125 -7.03125 C 6.453125 -7.207031 6.378906 -7.359375 6.234375 -7.484375 C 6.085938 -7.617188 5.757812 -7.6875 5.25 -7.6875 C 4.738281 -7.6875 4.410156 -7.617188 4.265625 -7.484375 C 4.128906 -7.359375 4.0625 -7.207031 4.0625 -7.03125 Z M 4.0625 -3.203125 "/></g></g></g><g fill="#ffffff" fill-opacity="1"><g transform="translate(119.850028, 36.996451)"><g><path d="M 4.203125 -7.6875 L 4.203125 -5.859375 L 5.265625 -5.859375 C 5.515625 -5.859375 5.679688 -5.921875 5.765625 -6.046875 C 5.847656 -6.179688 5.890625 -6.34375 5.890625 -6.53125 L 5.890625 -7.015625 C 5.890625 -7.203125 5.847656 -7.359375 5.765625 -7.484375 C 5.679688 -7.617188 5.515625 -7.6875 5.265625 -7.6875 Z M 3.6875 0 L 1.5 0 C 1.3125 0 1.175781 -0.0351562 1.09375 -0.109375 C 1.019531 -0.191406 0.984375 -0.328125 0.984375 -0.515625 L 0.984375 -9.734375 C 0.984375 -9.910156 1.019531 -10.039062 1.09375 -10.125 C 1.175781 -10.207031 1.3125 -10.25 1.5 -10.25 L 6.234375 -10.25 C 7.296875 -10.25 8.023438 -10.023438 8.421875 -9.578125 C 8.828125 -9.140625 9.03125 -8.570312 9.03125 -7.875 L 9.03125 -7.21875 C 9.03125 -6.820312 8.972656 -6.484375 8.859375 -6.203125 C 8.742188 -5.921875 8.535156 -5.71875 8.234375 -5.59375 C 8.753906 -5.539062 9.171875 -5.332031 9.484375 -4.96875 C 9.804688 -4.601562 9.96875 -4.125 9.96875 -3.53125 L 9.96875 -0.515625 C 9.96875 -0.328125 9.925781 -0.191406 9.84375 -0.109375 C 9.757812 -0.0351562 9.628906 0 9.453125 0 L 7.25 0 C 7.0625 0 6.925781 -0.0351562 6.84375 -0.109375 C 6.769531 -0.191406 6.734375 -0.328125 6.734375 -0.515625 L 6.734375 -2.6875 C 6.734375 -2.894531 6.691406 -3.046875 6.609375 -3.140625 C 6.523438 -3.242188 6.382812 -3.296875 6.1875 -3.296875 L 4.203125 -3.296875 L 4.203125 -0.515625 C 4.203125 -0.328125 4.160156 -0.191406 4.078125 -0.109375 C 3.992188 -0.0351562 3.863281 0 3.6875 0 Z M 3.6875 0 "/></g></g></g><g fill="#ffffff" fill-opacity="1"><g transform="translate(131.334425, 36.996451)"><g/></g></g><g fill="#ffffff" fill-opacity="1"><g transform="translate(135.4472, 36.996451)"><g><path d="M 3.609375 0 L 1.5 0 C 1.3125 0 1.175781 -0.0351562 1.09375 -0.109375 C 1.019531 -0.191406 0.984375 -0.328125 0.984375 -0.515625 L 0.984375 -9.734375 C 0.984375 -9.910156 1.019531 -10.039062 1.09375 -10.125 C 1.175781 -10.207031 1.3125 -10.25 1.5 -10.25 L 3.78125 -10.25 C 3.9375 -10.25 4.0625 -10.210938 4.15625 -10.140625 C 4.257812 -10.078125 4.351562 -9.972656 4.4375 -9.828125 L 5.71875 -7.5 C 5.769531 -7.414062 5.8125 -7.351562 5.84375 -7.3125 C 5.875 -7.28125 5.921875 -7.265625 5.984375 -7.265625 L 6.109375 -7.265625 C 6.160156 -7.265625 6.203125 -7.28125 6.234375 -7.3125 C 6.273438 -7.351562 6.316406 -7.414062 6.359375 -7.5 L 7.625 -9.828125 C 7.707031 -9.972656 7.800781 -10.078125 7.90625 -10.140625 C 8.007812 -10.210938 8.132812 -10.25 8.28125 -10.25 L 10.59375 -10.25 C 10.769531 -10.25 10.898438 -10.207031 10.984375 -10.125 C 11.066406 -10.039062 11.109375 -9.910156 11.109375 -9.734375 L 11.109375 -0.515625 C 11.109375 -0.328125 11.066406 -0.191406 10.984375 -0.109375 C 10.898438 -0.0351562 10.769531 0 10.59375 0 L 8.390625 0 C 8.210938 0 8.082031 -0.0351562 8 -0.109375 C 7.925781 -0.191406 7.890625 -0.328125 7.890625 -0.515625 L 7.890625 -5.515625 L 7.046875 -3.96875 C 6.960938 -3.8125 6.859375 -3.695312 6.734375 -3.625 C 6.617188 -3.550781 6.472656 -3.515625 6.296875 -3.515625 L 5.71875 -3.515625 C 5.539062 -3.515625 5.390625 -3.550781 5.265625 -3.625 C 5.148438 -3.695312 5.050781 -3.8125 4.96875 -3.96875 L 4.125 -5.515625 L 4.125 -0.515625 C 4.125 -0.328125 4.082031 -0.191406 4 -0.109375 C 3.925781 -0.0351562 3.796875 0 3.609375 0 Z M 3.609375 0 "/></g></g></g><g fill="#ffffff" fill-opacity="1"><g transform="translate(148.440079, 36.996451)"><g><path d="M 8.09375 0 L 1.5 0 C 1.3125 0 1.175781 -0.0351562 1.09375 -0.109375 C 1.019531 -0.191406 0.984375 -0.328125 0.984375 -0.515625 L 0.984375 -9.734375 C 0.984375 -9.910156 1.019531 -10.039062 1.09375 -10.125 C 1.175781 -10.207031 1.3125 -10.25 1.5 -10.25 L 8.09375 -10.25 C 8.28125 -10.25 8.410156 -10.207031 8.484375 -10.125 C 8.566406 -10.039062 8.609375 -9.910156 8.609375 -9.734375 L 8.609375 -8.078125 C 8.609375 -7.890625 8.566406 -7.753906 8.484375 -7.671875 C 8.410156 -7.597656 8.28125 -7.5625 8.09375 -7.5625 L 4.171875 -7.5625 L 4.171875 -6.46875 L 6.953125 -6.46875 C 7.128906 -6.46875 7.253906 -6.425781 7.328125 -6.34375 C 7.410156 -6.257812 7.453125 -6.128906 7.453125 -5.953125 L 7.453125 -4.421875 C 7.453125 -4.242188 7.410156 -4.113281 7.328125 -4.03125 C 7.253906 -3.957031 7.128906 -3.921875 6.953125 -3.921875 L 4.171875 -3.921875 L 4.171875 -2.6875 L 8.09375 -2.6875 C 8.28125 -2.6875 8.410156 -2.644531 8.484375 -2.5625 C 8.566406 -2.488281 8.609375 -2.359375 8.609375 -2.171875 L 8.609375 -0.515625 C 8.609375 -0.328125 8.566406 -0.191406 8.484375 -0.109375 C 8.410156 -0.0351562 8.28125 0 8.09375 0 Z M 8.09375 0 "/></g></g></g><g clip-path="url(#7f5684fac7)"><path fill="#356264" d="M 46.484375 22.355469 L 41.585938 27.253906 L 35.867188 21.546875 C 35.476562 21.179688 35.144531 20.765625 34.867188 20.304688 C 34.589844 19.847656 34.375 19.359375 34.230469 18.84375 C 34.082031 18.328125 34.007812 17.800781 34 17.261719 C 33.996094 16.726562 34.0625 16.199219 34.199219 15.679688 C 34.382812 15.003906 34.6875 14.390625 35.113281 13.835938 C 33.894531 13.507812 32.652344 13.308594 31.390625 13.234375 C 30.128906 13.160156 28.871094 13.214844 27.621094 13.398438 C 26.371094 13.582031 25.148438 13.890625 23.960938 14.320312 C 22.773438 14.753906 21.640625 15.300781 20.566406 15.960938 C 21.25 16.242188 21.835938 16.660156 22.324219 17.21875 C 22.8125 17.773438 23.148438 18.410156 23.339844 19.125 C 23.460938 19.59375 23.519531 20.066406 23.511719 20.550781 C 23.507812 21.03125 23.4375 21.503906 23.308594 21.96875 C 23.175781 22.433594 22.984375 22.871094 22.730469 23.285156 C 22.480469 23.695312 22.179688 24.070312 21.832031 24.402344 L 16.878906 29.355469 L 12.839844 25.316406 C 11.96875 27.476562 11.519531 29.71875 11.496094 32.046875 C 11.496094 33.726562 11.722656 35.378906 12.167969 37 C 12.613281 38.617188 13.261719 40.152344 14.117188 41.601562 C 14.972656 43.046875 16.003906 44.355469 17.207031 45.527344 C 18.414062 46.699219 19.753906 47.691406 21.222656 48.503906 C 22.695312 49.316406 24.246094 49.921875 25.882812 50.316406 C 27.515625 50.714844 29.171875 50.890625 30.851562 50.84375 C 32.53125 50.800781 34.175781 50.535156 35.785156 50.046875 C 37.394531 49.5625 38.910156 48.871094 40.335938 47.980469 L 39.136719 46.847656 C 38.792969 46.523438 38.5 46.160156 38.257812 45.753906 C 38.011719 45.351562 37.828125 44.921875 37.699219 44.464844 C 37.570312 44.011719 37.503906 43.546875 37.503906 43.074219 C 37.5 42.601562 37.5625 42.136719 37.683594 41.679688 C 37.898438 40.878906 38.300781 40.179688 38.890625 39.59375 C 39.480469 39.007812 40.175781 38.609375 40.980469 38.398438 C 42.027344 38.136719 43.035156 38.234375 44.011719 38.695312 C 44.628906 38.410156 45.28125 38.265625 45.960938 38.261719 C 46.335938 38.265625 46.703125 38.3125 47.066406 38.398438 C 47.375 38.480469 47.671875 38.597656 47.953125 38.746094 C 48.46875 37.417969 48.824219 36.042969 49.023438 34.632812 C 49.222656 33.21875 49.257812 31.800781 49.128906 30.378906 C 49.003906 28.960938 48.714844 27.570312 48.269531 26.214844 C 47.824219 24.859375 47.230469 23.574219 46.484375 22.355469 Z M 22.261719 31.777344 C 22.148438 32.003906 21.984375 32.183594 21.765625 32.316406 C 21.550781 32.449219 21.316406 32.515625 21.0625 32.515625 C 20.847656 32.519531 20.648438 32.472656 20.457031 32.367188 C 20.152344 32.214844 19.933594 31.980469 19.808594 31.660156 C 19.683594 31.339844 19.679688 31.019531 19.796875 30.699219 C 20.152344 29.992188 20.65625 29.414062 21.308594 28.96875 C 21.960938 28.523438 22.683594 28.265625 23.472656 28.195312 C 24.253906 28.132812 25.003906 28.261719 25.722656 28.582031 C 26.4375 28.902344 27.035156 29.375 27.511719 30 L 27.875 30.496094 C 27.996094 30.785156 28.015625 31.078125 27.929688 31.378906 C 27.847656 31.679688 27.679688 31.921875 27.429688 32.105469 C 27.175781 32.292969 26.894531 32.378906 26.582031 32.367188 C 26.273438 32.355469 25.996094 32.246094 25.761719 32.046875 L 25.398438 31.546875 C 25.199219 31.285156 24.953125 31.089844 24.652344 30.957031 C 24.351562 30.828125 24.039062 30.777344 23.714844 30.808594 C 23.398438 30.84375 23.113281 30.953125 22.855469 31.136719 C 22.597656 31.320312 22.398438 31.558594 22.261719 31.84375 Z M 37.347656 37.429688 C 36.996094 38.046875 36.566406 38.609375 36.066406 39.113281 C 35.5625 39.617188 35.003906 40.050781 34.390625 40.40625 C 33.773438 40.765625 33.121094 41.035156 32.433594 41.222656 C 31.746094 41.40625 31.046875 41.5 30.335938 41.5 C 29.625 41.5 28.925781 41.40625 28.238281 41.222656 C 27.550781 41.035156 26.898438 40.765625 26.28125 40.40625 C 25.667969 40.050781 25.109375 39.617188 24.605469 39.113281 C 24.105469 38.609375 23.675781 38.046875 23.324219 37.429688 C 23.234375 37.273438 23.179688 37.105469 23.15625 36.925781 C 23.132812 36.75 23.148438 36.574219 23.195312 36.398438 C 23.242188 36.226562 23.320312 36.066406 23.429688 35.925781 C 23.539062 35.785156 23.671875 35.667969 23.828125 35.578125 C 23.984375 35.488281 24.152344 35.433594 24.332031 35.410156 C 24.507812 35.386719 24.683594 35.398438 24.859375 35.449219 C 25.03125 35.496094 25.191406 35.574219 25.332031 35.683594 C 25.476562 35.792969 25.589844 35.925781 25.679688 36.082031 C 25.796875 36.285156 25.929688 36.480469 26.070312 36.667969 C 26.214844 36.851562 26.371094 37.027344 26.535156 37.195312 C 26.703125 37.359375 26.878906 37.515625 27.066406 37.65625 C 27.25 37.800781 27.445312 37.929688 27.648438 38.046875 C 27.851562 38.164062 28.0625 38.265625 28.28125 38.355469 C 28.496094 38.445312 28.71875 38.523438 28.945312 38.582031 C 29.171875 38.644531 29.402344 38.6875 29.636719 38.71875 C 29.867188 38.75 30.101562 38.765625 30.335938 38.765625 C 30.570312 38.765625 30.804688 38.75 31.039062 38.71875 C 31.269531 38.6875 31.5 38.644531 31.726562 38.582031 C 31.953125 38.523438 32.175781 38.445312 32.390625 38.355469 C 32.609375 38.265625 32.820312 38.164062 33.023438 38.046875 C 33.226562 37.929688 33.421875 37.800781 33.609375 37.65625 C 33.792969 37.515625 33.972656 37.359375 34.136719 37.195312 C 34.304688 37.027344 34.457031 36.851562 34.601562 36.667969 C 34.746094 36.480469 34.875 36.285156 34.992188 36.082031 C 35.082031 35.925781 35.199219 35.792969 35.339844 35.683594 C 35.480469 35.574219 35.640625 35.496094 35.8125 35.449219 C 35.988281 35.398438 36.164062 35.386719 36.339844 35.410156 C 36.519531 35.433594 36.6875 35.488281 36.84375 35.578125 C 37 35.667969 37.132812 35.78125 37.242188 35.925781 C 37.351562 36.066406 37.429688 36.226562 37.480469 36.398438 C 37.527344 36.574219 37.539062 36.75 37.515625 36.925781 C 37.492188 37.105469 37.4375 37.273438 37.347656 37.429688 Z M 40.269531 32.503906 C 40.078125 32.605469 39.878906 32.65625 39.664062 32.652344 C 39.410156 32.648438 39.175781 32.582031 38.960938 32.449219 C 38.742188 32.316406 38.578125 32.136719 38.464844 31.910156 C 38.394531 31.765625 38.304688 31.636719 38.199219 31.515625 C 38.09375 31.394531 37.976562 31.289062 37.84375 31.195312 C 37.710938 31.105469 37.570312 31.035156 37.417969 30.980469 C 37.269531 30.925781 37.113281 30.890625 36.953125 30.875 C 36.792969 30.859375 36.632812 30.867188 36.476562 30.890625 C 36.316406 30.917969 36.164062 30.960938 36.019531 31.027344 C 35.871094 31.089844 35.734375 31.175781 35.609375 31.273438 C 35.484375 31.371094 35.371094 31.488281 35.277344 31.613281 L 34.910156 32.046875 C 34.804688 32.1875 34.675781 32.304688 34.519531 32.394531 C 34.367188 32.488281 34.203125 32.546875 34.027344 32.570312 C 33.847656 32.59375 33.675781 32.585938 33.5 32.542969 C 33.328125 32.496094 33.171875 32.421875 33.027344 32.316406 C 32.886719 32.207031 32.769531 32.078125 32.675781 31.921875 C 32.585938 31.769531 32.527344 31.605469 32.503906 31.429688 C 32.476562 31.25 32.488281 31.078125 32.53125 30.902344 C 32.574219 30.730469 32.652344 30.574219 32.757812 30.429688 L 33.121094 29.933594 C 33.238281 29.777344 33.367188 29.632812 33.5 29.492188 C 33.636719 29.355469 33.78125 29.226562 33.933594 29.105469 C 34.085938 28.984375 34.242188 28.875 34.410156 28.773438 C 34.574219 28.675781 34.746094 28.585938 34.925781 28.507812 C 35.101562 28.429688 35.285156 28.363281 35.46875 28.304688 C 35.65625 28.25 35.84375 28.207031 36.035156 28.175781 C 36.226562 28.144531 36.417969 28.125 36.613281 28.117188 C 36.804688 28.113281 37 28.117188 37.191406 28.132812 C 37.386719 28.152344 37.578125 28.179688 37.765625 28.222656 C 37.953125 28.265625 38.140625 28.316406 38.324219 28.382812 C 38.503906 28.449219 38.683594 28.523438 38.855469 28.613281 C 39.027344 28.699219 39.195312 28.796875 39.355469 28.90625 C 39.515625 29.015625 39.667969 29.132812 39.816406 29.261719 C 39.960938 29.390625 40.097656 29.527344 40.226562 29.671875 C 40.351562 29.820312 40.472656 29.972656 40.578125 30.132812 C 40.6875 30.292969 40.785156 30.460938 40.875 30.632812 C 40.953125 30.792969 41 30.960938 41.011719 31.140625 C 41.023438 31.316406 41 31.492188 40.945312 31.660156 C 40.886719 31.828125 40.800781 31.980469 40.683594 32.113281 C 40.566406 32.25 40.429688 32.355469 40.269531 32.4375 Z M 41.101562 44.871094 C 40.753906 44.550781 40.511719 44.164062 40.375 43.710938 C 40.238281 43.257812 40.226562 42.800781 40.335938 42.339844 C 40.429688 42.015625 40.597656 41.734375 40.835938 41.496094 C 41.074219 41.257812 41.355469 41.089844 41.679688 40.996094 C 41.824219 40.980469 41.96875 40.980469 42.113281 40.996094 C 42.558594 41.003906 42.960938 41.140625 43.324219 41.398438 L 44.0625 41.871094 L 44.789062 41.398438 C 45.15625 41.140625 45.566406 41.003906 46.015625 40.996094 C 46.164062 40.980469 46.3125 40.980469 46.460938 40.996094 C 46.785156 41.085938 47.070312 41.25 47.308594 41.492188 C 47.546875 41.730469 47.714844 42.015625 47.804688 42.339844 C 47.917969 42.800781 47.902344 43.261719 47.761719 43.714844 C 47.625 44.167969 47.378906 44.554688 47.023438 44.871094 L 44.0625 47.84375 Z M 37.765625 19.648438 C 37.320312 19.234375 37.011719 18.734375 36.839844 18.152344 C 36.664062 17.570312 36.652344 16.984375 36.796875 16.394531 C 36.902344 15.960938 37.113281 15.589844 37.425781 15.269531 C 37.734375 14.953125 38.105469 14.734375 38.53125 14.617188 C 38.710938 14.597656 38.890625 14.597656 39.070312 14.617188 C 39.710938 14.636719 40.285156 14.839844 40.792969 15.222656 L 41.558594 15.789062 L 42.339844 15.222656 C 42.847656 14.808594 43.425781 14.585938 44.078125 14.550781 C 44.34375 14.550781 44.605469 14.59375 44.859375 14.683594 C 45.109375 14.773438 45.339844 14.902344 45.550781 15.074219 C 45.757812 15.242188 45.933594 15.441406 46.070312 15.671875 C 46.210938 15.898438 46.308594 16.144531 46.363281 16.40625 C 46.503906 16.996094 46.484375 17.578125 46.304688 18.15625 C 46.128906 18.734375 45.816406 19.230469 45.371094 19.636719 L 41.558594 23.445312 Z M 13.730469 22.488281 C 13.355469 22.152344 13.097656 21.738281 12.953125 21.253906 C 12.808594 20.773438 12.804688 20.285156 12.933594 19.796875 C 13.027344 19.453125 13.199219 19.15625 13.453125 18.902344 C 13.703125 18.652344 14.003906 18.476562 14.347656 18.386719 C 14.496094 18.367188 14.644531 18.367188 14.792969 18.386719 C 15.285156 18.390625 15.734375 18.535156 16.136719 18.816406 L 16.878906 19.246094 L 17.617188 18.761719 C 18.023438 18.480469 18.472656 18.335938 18.964844 18.332031 C 19.117188 18.3125 19.269531 18.3125 19.421875 18.332031 C 19.761719 18.449219 20.050781 18.640625 20.289062 18.910156 C 20.523438 19.175781 20.679688 19.488281 20.753906 19.839844 C 20.882812 20.328125 20.871094 20.816406 20.722656 21.300781 C 20.574219 21.785156 20.3125 22.195312 19.933594 22.53125 L 16.878906 25.597656 Z M 13.730469 22.488281 " fill-opacity="1" fill-rule="nonzero"/></g></svg>