<svg xmlns="http://www.w3.org/2000/svg" xmlns:xlink="http://www.w3.org/1999/xlink" width="600" zoomAndPan="magnify" viewBox="0 0 450 149.999998" height="200" preserveAspectRatio="xMidYMid meet" version="1.0"><defs><g/><clipPath id="e878c89d4f"><path d="M 3.277344 28.746094 L 447.191406 28.746094 L 447.191406 121.253906 L 3.277344 121.253906 Z M 3.277344 28.746094 " clip-rule="nonzero"/></clipPath><clipPath id="8fc3a334a2"><path d="M 20.527344 28.746094 L 429.941406 28.746094 C 434.515625 28.746094 438.902344 30.5625 442.136719 33.796875 C 445.371094 37.035156 447.191406 41.421875 447.191406 45.996094 L 447.191406 104.003906 C 447.191406 108.578125 445.371094 112.964844 442.136719 116.203125 C 438.902344 119.4375 434.515625 121.253906 429.941406 121.253906 L 20.527344 121.253906 C 15.953125 121.253906 11.566406 119.4375 8.332031 116.203125 C 5.09375 112.964844 3.277344 108.578125 3.277344 104.003906 L 3.277344 45.996094 C 3.277344 41.421875 5.09375 37.035156 8.332031 33.796875 C 11.566406 30.5625 15.953125 28.746094 20.527344 28.746094 Z M 20.527344 28.746094 " clip-rule="nonzero"/></clipPath><clipPath id="66b0e6215d"><path d="M 22.9375 51.632812 L 82.910156 51.632812 L 82.910156 98.960938 L 22.9375 98.960938 Z M 22.9375 51.632812 " clip-rule="nonzero"/></clipPath><clipPath id="b7629a36a7"><path d="M 21.34375 51.800781 L 84.34375 51.800781 L 84.34375 98.300781 L 21.34375 98.300781 Z M 21.34375 51.800781 " clip-rule="nonzero"/></clipPath></defs><g clip-path="url(#e878c89d4f)"><g clip-path="url(#8fc3a334a2)"><path fill="#5ce1e6" d="M 3.277344 28.746094 L 447.191406 28.746094 L 447.191406 121.253906 L 3.277344 121.253906 Z M 3.277344 28.746094 " fill-opacity="1" fill-rule="nonzero"/></g></g><g clip-path="url(#66b0e6215d)"><path fill="#40bfbc" d="M 22.9375 51.632812 L 82.910156 51.632812 L 82.910156 98.960938 L 22.9375 98.960938 Z M 22.9375 51.632812 " fill-opacity="1" fill-rule="nonzero"/></g><g clip-path="url(#b7629a36a7)"><path fill="#287777" d="M 82.617188 51.800781 L 23.113281 51.800781 C 22.203125 51.800781 21.460938 52.550781 21.460938 53.464844 L 21.460938 96.640625 C 21.460938 97.554688 22.203125 98.300781 23.113281 98.300781 L 82.617188 98.300781 C 83.527344 98.300781 84.269531 97.554688 84.269531 96.640625 L 84.269531 53.464844 C 84.269531 52.546875 83.527344 51.800781 82.617188 51.800781 M 24.765625 55.125 L 80.964844 55.125 L 80.964844 61.765625 L 24.765625 61.765625 Z M 80.964844 94.980469 L 24.765625 94.980469 L 24.765625 65.085938 L 80.964844 65.085938 Z M 80.964844 94.980469 " fill-opacity="1" fill-rule="evenodd"/></g><path fill="#287777" d="M 28.105469 60.105469 C 27.191406 60.105469 26.441406 59.363281 26.441406 58.445312 C 26.441406 57.527344 27.175781 56.785156 28.085938 56.785156 L 28.105469 56.785156 C 29.015625 56.785156 29.757812 57.527344 29.757812 58.445312 C 29.757812 59.363281 29.015625 60.105469 28.105469 60.105469 " fill-opacity="1" fill-rule="evenodd"/><path fill="#287777" d="M 33.0625 60.105469 C 32.152344 60.105469 31.402344 59.363281 31.402344 58.445312 C 31.402344 57.527344 32.132812 56.785156 33.046875 56.785156 L 33.0625 56.785156 C 33.976562 56.785156 34.714844 57.527344 34.714844 58.445312 C 34.714844 59.363281 33.976562 60.105469 33.0625 60.105469 " fill-opacity="1" fill-rule="evenodd"/><path fill="#287777" d="M 38.023438 60.105469 C 37.109375 60.105469 36.359375 59.363281 36.359375 58.445312 C 36.359375 57.527344 37.09375 56.785156 38.003906 56.785156 L 38.023438 56.785156 C 38.933594 56.785156 39.675781 57.527344 39.675781 58.445312 C 39.675781 59.363281 38.933594 60.105469 38.023438 60.105469 " fill-opacity="1" fill-rule="evenodd"/><path fill="#287777" d="M 37.988281 86.675781 C 37.488281 86.675781 36.988281 86.449219 36.667969 86.011719 C 36.117188 85.277344 36.265625 84.238281 36.996094 83.6875 L 41.84375 80.035156 L 36.996094 76.378906 C 36.265625 75.832031 36.121094 74.789062 36.667969 74.054688 C 37.214844 73.320312 38.25 73.175781 38.980469 73.722656 L 45.59375 78.707031 C 46.007812 79.019531 46.253906 79.511719 46.253906 80.035156 C 46.253906 80.554688 46.007812 81.050781 45.59375 81.363281 L 38.980469 86.34375 C 38.683594 86.570312 38.335938 86.675781 37.988281 86.675781 " fill-opacity="1" fill-rule="evenodd"/><path fill="#287777" d="M 51.210938 86.675781 L 47.90625 86.675781 C 46.992188 86.675781 46.253906 85.933594 46.253906 85.015625 C 46.253906 84.097656 46.992188 83.355469 47.90625 83.355469 L 51.210938 83.355469 C 52.125 83.355469 52.867188 84.097656 52.867188 85.015625 C 52.867188 85.933594 52.125 86.675781 51.210938 86.675781 " fill-opacity="1" fill-rule="evenodd"/><path fill="#287777" d="M 67.742188 86.675781 L 64.4375 86.675781 C 63.523438 86.675781 62.785156 85.933594 62.785156 85.015625 C 62.785156 84.097656 63.523438 83.355469 64.4375 83.355469 L 67.742188 83.355469 C 68.65625 83.355469 69.394531 84.097656 69.394531 85.015625 C 69.394531 85.933594 68.652344 86.675781 67.742188 86.675781 " fill-opacity="1" fill-rule="evenodd"/><path fill="#287777" d="M 59.476562 86.675781 L 56.171875 86.675781 C 55.257812 86.675781 54.519531 85.933594 54.519531 85.015625 C 54.519531 84.097656 55.257812 83.355469 56.171875 83.355469 L 59.476562 83.355469 C 60.390625 83.355469 61.128906 84.097656 61.128906 85.015625 C 61.128906 85.933594 60.390625 86.675781 59.476562 86.675781 " fill-opacity="1" fill-rule="evenodd"/><g fill="#0d4244" fill-opacity="0.302"><g transform="translate(138.363305, 85.953265)"><g><path d="M 14.796875 0 L 8.203125 0 C 5.953125 0 4.28125 -0.445312 3.1875 -1.34375 C 2.101562 -2.25 1.5625 -3.640625 1.5625 -5.515625 L 1.5625 -13.90625 C 1.5625 -15.78125 2.101562 -17.171875 3.1875 -18.078125 C 4.28125 -18.984375 5.953125 -19.4375 8.203125 -19.4375 L 14.796875 -19.4375 C 15.140625 -19.4375 15.382812 -19.359375 15.53125 -19.203125 C 15.6875 -19.054688 15.765625 -18.8125 15.765625 -18.46875 L 15.765625 -15.203125 C 15.765625 -14.859375 15.6875 -14.609375 15.53125 -14.453125 C 15.382812 -14.304688 15.140625 -14.234375 14.796875 -14.234375 L 9.375 -14.234375 C 8.8125 -14.234375 8.394531 -14.117188 8.125 -13.890625 C 7.851562 -13.660156 7.71875 -13.320312 7.71875 -12.875 L 7.71875 -6.453125 C 7.71875 -6.003906 7.851562 -5.675781 8.125 -5.46875 C 8.394531 -5.257812 8.8125 -5.15625 9.375 -5.15625 L 14.796875 -5.15625 C 15.140625 -5.15625 15.382812 -5.078125 15.53125 -4.921875 C 15.6875 -4.773438 15.765625 -4.53125 15.765625 -4.1875 L 15.765625 -0.96875 C 15.765625 -0.625 15.6875 -0.375 15.53125 -0.21875 C 15.382812 -0.0703125 15.140625 0 14.796875 0 Z M 14.796875 0 "/></g></g></g><g fill="#0d4244" fill-opacity="0.302"><g transform="translate(157.050417, 85.953265)"><g><path d="M 18.328125 -5.109375 C 18.328125 -4.273438 18.207031 -3.519531 17.96875 -2.84375 C 17.726562 -2.175781 17.296875 -1.601562 16.671875 -1.125 C 16.046875 -0.644531 15.1875 -0.269531 14.09375 0 C 13.007812 0.269531 11.632812 0.40625 9.96875 0.40625 C 8.289062 0.40625 6.898438 0.269531 5.796875 0 C 4.703125 -0.269531 3.84375 -0.644531 3.21875 -1.125 C 2.601562 -1.601562 2.171875 -2.175781 1.921875 -2.84375 C 1.679688 -3.519531 1.5625 -4.273438 1.5625 -5.109375 L 1.5625 -14.3125 C 1.5625 -15.132812 1.679688 -15.882812 1.921875 -16.5625 C 2.171875 -17.238281 2.601562 -17.816406 3.21875 -18.296875 C 3.84375 -18.785156 4.703125 -19.164062 5.796875 -19.4375 C 6.898438 -19.707031 8.289062 -19.84375 9.96875 -19.84375 C 11.632812 -19.84375 13.007812 -19.707031 14.09375 -19.4375 C 15.1875 -19.164062 16.046875 -18.785156 16.671875 -18.296875 C 17.296875 -17.816406 17.726562 -17.238281 17.96875 -16.5625 C 18.207031 -15.882812 18.328125 -15.132812 18.328125 -14.3125 Z M 7.6875 -6.078125 C 7.6875 -5.710938 7.820312 -5.410156 8.09375 -5.171875 C 8.363281 -4.929688 8.988281 -4.8125 9.96875 -4.8125 C 10.9375 -4.8125 11.554688 -4.929688 11.828125 -5.171875 C 12.097656 -5.410156 12.234375 -5.710938 12.234375 -6.078125 L 12.234375 -13.34375 C 12.234375 -13.675781 12.097656 -13.960938 11.828125 -14.203125 C 11.554688 -14.453125 10.9375 -14.578125 9.96875 -14.578125 C 8.988281 -14.578125 8.363281 -14.453125 8.09375 -14.203125 C 7.820312 -13.960938 7.6875 -13.675781 7.6875 -13.34375 Z M 7.6875 -6.078125 "/></g></g></g><g fill="#0d4244" fill-opacity="0.302"><g transform="translate(178.68101, 85.953265)"><g><path d="M 6.859375 0 L 2.828125 0 C 2.492188 0 2.25 -0.0703125 2.09375 -0.21875 C 1.9375 -0.375 1.859375 -0.625 1.859375 -0.96875 L 1.859375 -18.46875 C 1.859375 -18.8125 1.9375 -19.054688 2.09375 -19.203125 C 2.25 -19.359375 2.492188 -19.4375 2.828125 -19.4375 L 7.1875 -19.4375 C 7.46875 -19.4375 7.703125 -19.375 7.890625 -19.25 C 8.085938 -19.125 8.265625 -18.914062 8.421875 -18.625 L 10.859375 -14.234375 C 10.941406 -14.066406 11.015625 -13.945312 11.078125 -13.875 C 11.140625 -13.800781 11.226562 -13.765625 11.34375 -13.765625 L 11.578125 -13.765625 C 11.691406 -13.765625 11.78125 -13.800781 11.84375 -13.875 C 11.90625 -13.945312 11.976562 -14.066406 12.0625 -14.234375 L 14.46875 -18.625 C 14.632812 -18.914062 14.8125 -19.125 15 -19.25 C 15.1875 -19.375 15.425781 -19.4375 15.71875 -19.4375 L 20.09375 -19.4375 C 20.425781 -19.4375 20.671875 -19.359375 20.828125 -19.203125 C 20.984375 -19.054688 21.0625 -18.8125 21.0625 -18.46875 L 21.0625 -0.96875 C 21.0625 -0.625 20.984375 -0.375 20.828125 -0.21875 C 20.671875 -0.0703125 20.425781 0 20.09375 0 L 15.9375 0 C 15.59375 0 15.34375 -0.0703125 15.1875 -0.21875 C 15.03125 -0.375 14.953125 -0.625 14.953125 -0.96875 L 14.953125 -10.46875 L 13.359375 -7.53125 C 13.203125 -7.226562 13.007812 -7.007812 12.78125 -6.875 C 12.5625 -6.738281 12.28125 -6.671875 11.9375 -6.671875 L 10.859375 -6.671875 C 10.515625 -6.671875 10.226562 -6.738281 10 -6.875 C 9.78125 -7.007812 9.585938 -7.226562 9.421875 -7.53125 L 7.828125 -10.46875 L 7.828125 -0.96875 C 7.828125 -0.625 7.75 -0.375 7.59375 -0.21875 C 7.445312 -0.0703125 7.203125 0 6.859375 0 Z M 6.859375 0 "/></g></g></g><g fill="#0d4244" fill-opacity="0.302"><g transform="translate(203.336103, 85.953265)"><g><path d="M 6.859375 0 L 2.828125 0 C 2.492188 0 2.25 -0.0703125 2.09375 -0.21875 C 1.9375 -0.375 1.859375 -0.625 1.859375 -0.96875 L 1.859375 -18.46875 C 1.859375 -18.8125 1.9375 -19.054688 2.09375 -19.203125 C 2.25 -19.359375 2.492188 -19.4375 2.828125 -19.4375 L 7.1875 -19.4375 C 7.46875 -19.4375 7.703125 -19.375 7.890625 -19.25 C 8.085938 -19.125 8.265625 -18.914062 8.421875 -18.625 L 10.859375 -14.234375 C 10.941406 -14.066406 11.015625 -13.945312 11.078125 -13.875 C 11.140625 -13.800781 11.226562 -13.765625 11.34375 -13.765625 L 11.578125 -13.765625 C 11.691406 -13.765625 11.78125 -13.800781 11.84375 -13.875 C 11.90625 -13.945312 11.976562 -14.066406 12.0625 -14.234375 L 14.46875 -18.625 C 14.632812 -18.914062 14.8125 -19.125 15 -19.25 C 15.1875 -19.375 15.425781 -19.4375 15.71875 -19.4375 L 20.09375 -19.4375 C 20.425781 -19.4375 20.671875 -19.359375 20.828125 -19.203125 C 20.984375 -19.054688 21.0625 -18.8125 21.0625 -18.46875 L 21.0625 -0.96875 C 21.0625 -0.625 20.984375 -0.375 20.828125 -0.21875 C 20.671875 -0.0703125 20.425781 0 20.09375 0 L 15.9375 0 C 15.59375 0 15.34375 -0.0703125 15.1875 -0.21875 C 15.03125 -0.375 14.953125 -0.625 14.953125 -0.96875 L 14.953125 -10.46875 L 13.359375 -7.53125 C 13.203125 -7.226562 13.007812 -7.007812 12.78125 -6.875 C 12.5625 -6.738281 12.28125 -6.671875 11.9375 -6.671875 L 10.859375 -6.671875 C 10.515625 -6.671875 10.226562 -6.738281 10 -6.875 C 9.78125 -7.007812 9.585938 -7.226562 9.421875 -7.53125 L 7.828125 -10.46875 L 7.828125 -0.96875 C 7.828125 -0.625 7.75 -0.375 7.59375 -0.21875 C 7.445312 -0.0703125 7.203125 0 6.859375 0 Z M 6.859375 0 "/></g></g></g><g fill="#0d4244" fill-opacity="0.302"><g transform="translate(227.991189, 85.953265)"><g><path d="M 8.90625 -13.765625 L 7.640625 -9.671875 L 11.875 -9.671875 L 10.609375 -13.765625 C 10.535156 -13.929688 10.457031 -14.050781 10.375 -14.125 C 10.300781 -14.195312 10.207031 -14.234375 10.09375 -14.234375 L 9.421875 -14.234375 C 9.316406 -14.234375 9.222656 -14.195312 9.140625 -14.125 C 9.054688 -14.050781 8.976562 -13.929688 8.90625 -13.765625 Z M 7.375 -0.96875 C 7.375 -0.625 7.296875 -0.375 7.140625 -0.21875 C 6.984375 -0.0703125 6.738281 0 6.40625 0 L 2.4375 0 C 2.09375 0 1.84375 -0.0703125 1.6875 -0.21875 C 1.53125 -0.375 1.453125 -0.625 1.453125 -0.96875 L 1.453125 -8.09375 C 1.453125 -8.632812 1.535156 -9.253906 1.703125 -9.953125 C 1.878906 -10.660156 2.148438 -11.484375 2.515625 -12.421875 L 4.859375 -18.546875 C 4.960938 -18.859375 5.128906 -19.082031 5.359375 -19.21875 C 5.585938 -19.363281 5.878906 -19.4375 6.234375 -19.4375 L 13.5 -19.4375 C 13.84375 -19.4375 14.125 -19.363281 14.34375 -19.21875 C 14.570312 -19.082031 14.738281 -18.859375 14.84375 -18.546875 L 17.203125 -12.421875 C 17.554688 -11.484375 17.816406 -10.660156 17.984375 -9.953125 C 18.160156 -9.253906 18.25 -8.632812 18.25 -8.09375 L 18.25 -0.96875 C 18.25 -0.625 18.171875 -0.375 18.015625 -0.21875 C 17.867188 -0.0703125 17.625 0 17.28125 0 L 13.203125 0 C 12.835938 0 12.570312 -0.0703125 12.40625 -0.21875 C 12.238281 -0.375 12.15625 -0.625 12.15625 -0.96875 L 12.15625 -4.75 L 7.375 -4.75 Z M 7.375 -0.96875 "/></g></g></g><g fill="#0d4244" fill-opacity="0.302"><g transform="translate(249.432756, 85.953265)"><g><path d="M 6.890625 0 L 2.828125 0 C 2.492188 0 2.25 -0.0703125 2.09375 -0.21875 C 1.9375 -0.375 1.859375 -0.625 1.859375 -0.96875 L 1.859375 -18.46875 C 1.859375 -18.8125 1.9375 -19.054688 2.09375 -19.203125 C 2.25 -19.359375 2.492188 -19.4375 2.828125 -19.4375 L 5.640625 -19.4375 C 5.984375 -19.4375 6.273438 -19.378906 6.515625 -19.265625 C 6.765625 -19.160156 7.003906 -18.976562 7.234375 -18.71875 L 12.46875 -12.71875 L 12.46875 -18.46875 C 12.46875 -18.8125 12.546875 -19.054688 12.703125 -19.203125 C 12.859375 -19.359375 13.109375 -19.4375 13.453125 -19.4375 L 17.5 -19.4375 C 17.84375 -19.4375 18.085938 -19.359375 18.234375 -19.203125 C 18.390625 -19.054688 18.46875 -18.8125 18.46875 -18.46875 L 18.46875 -0.96875 C 18.46875 -0.625 18.390625 -0.375 18.234375 -0.21875 C 18.085938 -0.0703125 17.84375 0 17.5 0 L 13.453125 0 C 13.109375 0 12.859375 -0.0703125 12.703125 -0.21875 C 12.546875 -0.375 12.46875 -0.625 12.46875 -0.96875 L 12.46875 -4.296875 L 7.859375 -9.875 L 7.859375 -0.96875 C 7.859375 -0.625 7.78125 -0.375 7.625 -0.21875 C 7.46875 -0.0703125 7.222656 0 6.890625 0 Z M 6.890625 0 "/></g></g></g><g fill="#0d4244" fill-opacity="0.302"><g transform="translate(271.49542, 85.953265)"><g><path d="M 11.9375 0 L 2.828125 0 C 2.492188 0 2.25 -0.0703125 2.09375 -0.21875 C 1.9375 -0.375 1.859375 -0.625 1.859375 -0.96875 L 1.859375 -18.46875 C 1.859375 -18.8125 1.9375 -19.054688 2.09375 -19.203125 C 2.25 -19.359375 2.492188 -19.4375 2.828125 -19.4375 L 11.9375 -19.4375 C 14.1875 -19.4375 15.851562 -18.984375 16.9375 -18.078125 C 18.03125 -17.179688 18.578125 -15.800781 18.578125 -13.9375 L 18.578125 -5.515625 C 18.578125 -3.640625 18.03125 -2.25 16.9375 -1.34375 C 15.851562 -0.445312 14.1875 0 11.9375 0 Z M 7.984375 -14.28125 L 7.984375 -5.109375 L 11.203125 -5.109375 C 11.640625 -5.109375 11.957031 -5.210938 12.15625 -5.421875 C 12.363281 -5.640625 12.46875 -5.972656 12.46875 -6.421875 L 12.46875 -12.984375 C 12.46875 -13.429688 12.363281 -13.757812 12.15625 -13.96875 C 11.957031 -14.175781 11.640625 -14.28125 11.203125 -14.28125 Z M 7.984375 -14.28125 "/></g></g></g><g fill="#0d4244" fill-opacity="0.302"><g transform="translate(293.369056, 85.953265)"><g><path d="M 10.875 0 L 2.34375 0 C 2.007812 0 1.765625 -0.0703125 1.609375 -0.21875 C 1.453125 -0.375 1.375 -0.625 1.375 -0.96875 L 1.375 -4.125 C 1.375 -4.46875 1.453125 -4.71875 1.609375 -4.875 C 1.765625 -5.03125 2.007812 -5.109375 2.34375 -5.109375 L 9.609375 -5.109375 C 9.847656 -5.109375 10.023438 -5.179688 10.140625 -5.328125 C 10.253906 -5.484375 10.3125 -5.671875 10.3125 -5.890625 C 10.3125 -6.191406 10.253906 -6.414062 10.140625 -6.5625 C 10.023438 -6.707031 9.847656 -6.785156 9.609375 -6.796875 L 5.5625 -7.375 C 4.300781 -7.550781 3.285156 -7.960938 2.515625 -8.609375 C 1.753906 -9.253906 1.375 -10.335938 1.375 -11.859375 L 1.375 -14.6875 C 1.375 -16.21875 1.867188 -17.390625 2.859375 -18.203125 C 3.847656 -19.023438 5.21875 -19.4375 6.96875 -19.4375 L 14.53125 -19.4375 C 14.863281 -19.4375 15.109375 -19.359375 15.265625 -19.203125 C 15.421875 -19.054688 15.5 -18.8125 15.5 -18.46875 L 15.5 -15.25 C 15.5 -14.90625 15.421875 -14.65625 15.265625 -14.5 C 15.109375 -14.351562 14.863281 -14.28125 14.53125 -14.28125 L 8.234375 -14.28125 C 8.003906 -14.28125 7.820312 -14.203125 7.6875 -14.046875 C 7.5625 -13.898438 7.5 -13.707031 7.5 -13.46875 C 7.5 -13.238281 7.5625 -13.039062 7.6875 -12.875 C 7.820312 -12.71875 8.003906 -12.628906 8.234375 -12.609375 L 12.265625 -12.0625 C 13.515625 -11.882812 14.523438 -11.472656 15.296875 -10.828125 C 16.078125 -10.179688 16.46875 -9.101562 16.46875 -7.59375 L 16.46875 -4.75 C 16.46875 -3.21875 15.96875 -2.039062 14.96875 -1.21875 C 13.96875 -0.40625 12.601562 0 10.875 0 Z M 10.875 0 "/></g></g></g><g fill="#0d4244" fill-opacity="0.502"><g transform="translate(137.169824, 84.759783)"><g><path d="M 14.796875 0 L 8.203125 0 C 5.953125 0 4.28125 -0.445312 3.1875 -1.34375 C 2.101562 -2.25 1.5625 -3.640625 1.5625 -5.515625 L 1.5625 -13.90625 C 1.5625 -15.78125 2.101562 -17.171875 3.1875 -18.078125 C 4.28125 -18.984375 5.953125 -19.4375 8.203125 -19.4375 L 14.796875 -19.4375 C 15.140625 -19.4375 15.382812 -19.359375 15.53125 -19.203125 C 15.6875 -19.054688 15.765625 -18.8125 15.765625 -18.46875 L 15.765625 -15.203125 C 15.765625 -14.859375 15.6875 -14.609375 15.53125 -14.453125 C 15.382812 -14.304688 15.140625 -14.234375 14.796875 -14.234375 L 9.375 -14.234375 C 8.8125 -14.234375 8.394531 -14.117188 8.125 -13.890625 C 7.851562 -13.660156 7.71875 -13.320312 7.71875 -12.875 L 7.71875 -6.453125 C 7.71875 -6.003906 7.851562 -5.675781 8.125 -5.46875 C 8.394531 -5.257812 8.8125 -5.15625 9.375 -5.15625 L 14.796875 -5.15625 C 15.140625 -5.15625 15.382812 -5.078125 15.53125 -4.921875 C 15.6875 -4.773438 15.765625 -4.53125 15.765625 -4.1875 L 15.765625 -0.96875 C 15.765625 -0.625 15.6875 -0.375 15.53125 -0.21875 C 15.382812 -0.0703125 15.140625 0 14.796875 0 Z M 14.796875 0 "/></g></g></g><g fill="#0d4244" fill-opacity="0.502"><g transform="translate(155.856936, 84.759783)"><g><path d="M 18.328125 -5.109375 C 18.328125 -4.273438 18.207031 -3.519531 17.96875 -2.84375 C 17.726562 -2.175781 17.296875 -1.601562 16.671875 -1.125 C 16.046875 -0.644531 15.1875 -0.269531 14.09375 0 C 13.007812 0.269531 11.632812 0.40625 9.96875 0.40625 C 8.289062 0.40625 6.898438 0.269531 5.796875 0 C 4.703125 -0.269531 3.84375 -0.644531 3.21875 -1.125 C 2.601562 -1.601562 2.171875 -2.175781 1.921875 -2.84375 C 1.679688 -3.519531 1.5625 -4.273438 1.5625 -5.109375 L 1.5625 -14.3125 C 1.5625 -15.132812 1.679688 -15.882812 1.921875 -16.5625 C 2.171875 -17.238281 2.601562 -17.816406 3.21875 -18.296875 C 3.84375 -18.785156 4.703125 -19.164062 5.796875 -19.4375 C 6.898438 -19.707031 8.289062 -19.84375 9.96875 -19.84375 C 11.632812 -19.84375 13.007812 -19.707031 14.09375 -19.4375 C 15.1875 -19.164062 16.046875 -18.785156 16.671875 -18.296875 C 17.296875 -17.816406 17.726562 -17.238281 17.96875 -16.5625 C 18.207031 -15.882812 18.328125 -15.132812 18.328125 -14.3125 Z M 7.6875 -6.078125 C 7.6875 -5.710938 7.820312 -5.410156 8.09375 -5.171875 C 8.363281 -4.929688 8.988281 -4.8125 9.96875 -4.8125 C 10.9375 -4.8125 11.554688 -4.929688 11.828125 -5.171875 C 12.097656 -5.410156 12.234375 -5.710938 12.234375 -6.078125 L 12.234375 -13.34375 C 12.234375 -13.675781 12.097656 -13.960938 11.828125 -14.203125 C 11.554688 -14.453125 10.9375 -14.578125 9.96875 -14.578125 C 8.988281 -14.578125 8.363281 -14.453125 8.09375 -14.203125 C 7.820312 -13.960938 7.6875 -13.675781 7.6875 -13.34375 Z M 7.6875 -6.078125 "/></g></g></g><g fill="#0d4244" fill-opacity="0.502"><g transform="translate(177.487529, 84.759783)"><g><path d="M 6.859375 0 L 2.828125 0 C 2.492188 0 2.25 -0.0703125 2.09375 -0.21875 C 1.9375 -0.375 1.859375 -0.625 1.859375 -0.96875 L 1.859375 -18.46875 C 1.859375 -18.8125 1.9375 -19.054688 2.09375 -19.203125 C 2.25 -19.359375 2.492188 -19.4375 2.828125 -19.4375 L 7.1875 -19.4375 C 7.46875 -19.4375 7.703125 -19.375 7.890625 -19.25 C 8.085938 -19.125 8.265625 -18.914062 8.421875 -18.625 L 10.859375 -14.234375 C 10.941406 -14.066406 11.015625 -13.945312 11.078125 -13.875 C 11.140625 -13.800781 11.226562 -13.765625 11.34375 -13.765625 L 11.578125 -13.765625 C 11.691406 -13.765625 11.78125 -13.800781 11.84375 -13.875 C 11.90625 -13.945312 11.976562 -14.066406 12.0625 -14.234375 L 14.46875 -18.625 C 14.632812 -18.914062 14.8125 -19.125 15 -19.25 C 15.1875 -19.375 15.425781 -19.4375 15.71875 -19.4375 L 20.09375 -19.4375 C 20.425781 -19.4375 20.671875 -19.359375 20.828125 -19.203125 C 20.984375 -19.054688 21.0625 -18.8125 21.0625 -18.46875 L 21.0625 -0.96875 C 21.0625 -0.625 20.984375 -0.375 20.828125 -0.21875 C 20.671875 -0.0703125 20.425781 0 20.09375 0 L 15.9375 0 C 15.59375 0 15.34375 -0.0703125 15.1875 -0.21875 C 15.03125 -0.375 14.953125 -0.625 14.953125 -0.96875 L 14.953125 -10.46875 L 13.359375 -7.53125 C 13.203125 -7.226562 13.007812 -7.007812 12.78125 -6.875 C 12.5625 -6.738281 12.28125 -6.671875 11.9375 -6.671875 L 10.859375 -6.671875 C 10.515625 -6.671875 10.226562 -6.738281 10 -6.875 C 9.78125 -7.007812 9.585938 -7.226562 9.421875 -7.53125 L 7.828125 -10.46875 L 7.828125 -0.96875 C 7.828125 -0.625 7.75 -0.375 7.59375 -0.21875 C 7.445312 -0.0703125 7.203125 0 6.859375 0 Z M 6.859375 0 "/></g></g></g><g fill="#0d4244" fill-opacity="0.502"><g transform="translate(202.142621, 84.759783)"><g><path d="M 6.859375 0 L 2.828125 0 C 2.492188 0 2.25 -0.0703125 2.09375 -0.21875 C 1.9375 -0.375 1.859375 -0.625 1.859375 -0.96875 L 1.859375 -18.46875 C 1.859375 -18.8125 1.9375 -19.054688 2.09375 -19.203125 C 2.25 -19.359375 2.492188 -19.4375 2.828125 -19.4375 L 7.1875 -19.4375 C 7.46875 -19.4375 7.703125 -19.375 7.890625 -19.25 C 8.085938 -19.125 8.265625 -18.914062 8.421875 -18.625 L 10.859375 -14.234375 C 10.941406 -14.066406 11.015625 -13.945312 11.078125 -13.875 C 11.140625 -13.800781 11.226562 -13.765625 11.34375 -13.765625 L 11.578125 -13.765625 C 11.691406 -13.765625 11.78125 -13.800781 11.84375 -13.875 C 11.90625 -13.945312 11.976562 -14.066406 12.0625 -14.234375 L 14.46875 -18.625 C 14.632812 -18.914062 14.8125 -19.125 15 -19.25 C 15.1875 -19.375 15.425781 -19.4375 15.71875 -19.4375 L 20.09375 -19.4375 C 20.425781 -19.4375 20.671875 -19.359375 20.828125 -19.203125 C 20.984375 -19.054688 21.0625 -18.8125 21.0625 -18.46875 L 21.0625 -0.96875 C 21.0625 -0.625 20.984375 -0.375 20.828125 -0.21875 C 20.671875 -0.0703125 20.425781 0 20.09375 0 L 15.9375 0 C 15.59375 0 15.34375 -0.0703125 15.1875 -0.21875 C 15.03125 -0.375 14.953125 -0.625 14.953125 -0.96875 L 14.953125 -10.46875 L 13.359375 -7.53125 C 13.203125 -7.226562 13.007812 -7.007812 12.78125 -6.875 C 12.5625 -6.738281 12.28125 -6.671875 11.9375 -6.671875 L 10.859375 -6.671875 C 10.515625 -6.671875 10.226562 -6.738281 10 -6.875 C 9.78125 -7.007812 9.585938 -7.226562 9.421875 -7.53125 L 7.828125 -10.46875 L 7.828125 -0.96875 C 7.828125 -0.625 7.75 -0.375 7.59375 -0.21875 C 7.445312 -0.0703125 7.203125 0 6.859375 0 Z M 6.859375 0 "/></g></g></g><g fill="#0d4244" fill-opacity="0.502"><g transform="translate(226.797707, 84.759783)"><g><path d="M 8.90625 -13.765625 L 7.640625 -9.671875 L 11.875 -9.671875 L 10.609375 -13.765625 C 10.535156 -13.929688 10.457031 -14.050781 10.375 -14.125 C 10.300781 -14.195312 10.207031 -14.234375 10.09375 -14.234375 L 9.421875 -14.234375 C 9.316406 -14.234375 9.222656 -14.195312 9.140625 -14.125 C 9.054688 -14.050781 8.976562 -13.929688 8.90625 -13.765625 Z M 7.375 -0.96875 C 7.375 -0.625 7.296875 -0.375 7.140625 -0.21875 C 6.984375 -0.0703125 6.738281 0 6.40625 0 L 2.4375 0 C 2.09375 0 1.84375 -0.0703125 1.6875 -0.21875 C 1.53125 -0.375 1.453125 -0.625 1.453125 -0.96875 L 1.453125 -8.09375 C 1.453125 -8.632812 1.535156 -9.253906 1.703125 -9.953125 C 1.878906 -10.660156 2.148438 -11.484375 2.515625 -12.421875 L 4.859375 -18.546875 C 4.960938 -18.859375 5.128906 -19.082031 5.359375 -19.21875 C 5.585938 -19.363281 5.878906 -19.4375 6.234375 -19.4375 L 13.5 -19.4375 C 13.84375 -19.4375 14.125 -19.363281 14.34375 -19.21875 C 14.570312 -19.082031 14.738281 -18.859375 14.84375 -18.546875 L 17.203125 -12.421875 C 17.554688 -11.484375 17.816406 -10.660156 17.984375 -9.953125 C 18.160156 -9.253906 18.25 -8.632812 18.25 -8.09375 L 18.25 -0.96875 C 18.25 -0.625 18.171875 -0.375 18.015625 -0.21875 C 17.867188 -0.0703125 17.625 0 17.28125 0 L 13.203125 0 C 12.835938 0 12.570312 -0.0703125 12.40625 -0.21875 C 12.238281 -0.375 12.15625 -0.625 12.15625 -0.96875 L 12.15625 -4.75 L 7.375 -4.75 Z M 7.375 -0.96875 "/></g></g></g><g fill="#0d4244" fill-opacity="0.502"><g transform="translate(248.239275, 84.759783)"><g><path d="M 6.890625 0 L 2.828125 0 C 2.492188 0 2.25 -0.0703125 2.09375 -0.21875 C 1.9375 -0.375 1.859375 -0.625 1.859375 -0.96875 L 1.859375 -18.46875 C 1.859375 -18.8125 1.9375 -19.054688 2.09375 -19.203125 C 2.25 -19.359375 2.492188 -19.4375 2.828125 -19.4375 L 5.640625 -19.4375 C 5.984375 -19.4375 6.273438 -19.378906 6.515625 -19.265625 C 6.765625 -19.160156 7.003906 -18.976562 7.234375 -18.71875 L 12.46875 -12.71875 L 12.46875 -18.46875 C 12.46875 -18.8125 12.546875 -19.054688 12.703125 -19.203125 C 12.859375 -19.359375 13.109375 -19.4375 13.453125 -19.4375 L 17.5 -19.4375 C 17.84375 -19.4375 18.085938 -19.359375 18.234375 -19.203125 C 18.390625 -19.054688 18.46875 -18.8125 18.46875 -18.46875 L 18.46875 -0.96875 C 18.46875 -0.625 18.390625 -0.375 18.234375 -0.21875 C 18.085938 -0.0703125 17.84375 0 17.5 0 L 13.453125 0 C 13.109375 0 12.859375 -0.0703125 12.703125 -0.21875 C 12.546875 -0.375 12.46875 -0.625 12.46875 -0.96875 L 12.46875 -4.296875 L 7.859375 -9.875 L 7.859375 -0.96875 C 7.859375 -0.625 7.78125 -0.375 7.625 -0.21875 C 7.46875 -0.0703125 7.222656 0 6.890625 0 Z M 6.890625 0 "/></g></g></g><g fill="#0d4244" fill-opacity="0.502"><g transform="translate(270.301939, 84.759783)"><g><path d="M 11.9375 0 L 2.828125 0 C 2.492188 0 2.25 -0.0703125 2.09375 -0.21875 C 1.9375 -0.375 1.859375 -0.625 1.859375 -0.96875 L 1.859375 -18.46875 C 1.859375 -18.8125 1.9375 -19.054688 2.09375 -19.203125 C 2.25 -19.359375 2.492188 -19.4375 2.828125 -19.4375 L 11.9375 -19.4375 C 14.1875 -19.4375 15.851562 -18.984375 16.9375 -18.078125 C 18.03125 -17.179688 18.578125 -15.800781 18.578125 -13.9375 L 18.578125 -5.515625 C 18.578125 -3.640625 18.03125 -2.25 16.9375 -1.34375 C 15.851562 -0.445312 14.1875 0 11.9375 0 Z M 7.984375 -14.28125 L 7.984375 -5.109375 L 11.203125 -5.109375 C 11.640625 -5.109375 11.957031 -5.210938 12.15625 -5.421875 C 12.363281 -5.640625 12.46875 -5.972656 12.46875 -6.421875 L 12.46875 -12.984375 C 12.46875 -13.429688 12.363281 -13.757812 12.15625 -13.96875 C 11.957031 -14.175781 11.640625 -14.28125 11.203125 -14.28125 Z M 7.984375 -14.28125 "/></g></g></g><g fill="#0d4244" fill-opacity="0.502"><g transform="translate(292.175574, 84.759783)"><g><path d="M 10.875 0 L 2.34375 0 C 2.007812 0 1.765625 -0.0703125 1.609375 -0.21875 C 1.453125 -0.375 1.375 -0.625 1.375 -0.96875 L 1.375 -4.125 C 1.375 -4.46875 1.453125 -4.71875 1.609375 -4.875 C 1.765625 -5.03125 2.007812 -5.109375 2.34375 -5.109375 L 9.609375 -5.109375 C 9.847656 -5.109375 10.023438 -5.179688 10.140625 -5.328125 C 10.253906 -5.484375 10.3125 -5.671875 10.3125 -5.890625 C 10.3125 -6.191406 10.253906 -6.414062 10.140625 -6.5625 C 10.023438 -6.707031 9.847656 -6.785156 9.609375 -6.796875 L 5.5625 -7.375 C 4.300781 -7.550781 3.285156 -7.960938 2.515625 -8.609375 C 1.753906 -9.253906 1.375 -10.335938 1.375 -11.859375 L 1.375 -14.6875 C 1.375 -16.21875 1.867188 -17.390625 2.859375 -18.203125 C 3.847656 -19.023438 5.21875 -19.4375 6.96875 -19.4375 L 14.53125 -19.4375 C 14.863281 -19.4375 15.109375 -19.359375 15.265625 -19.203125 C 15.421875 -19.054688 15.5 -18.8125 15.5 -18.46875 L 15.5 -15.25 C 15.5 -14.90625 15.421875 -14.65625 15.265625 -14.5 C 15.109375 -14.351562 14.863281 -14.28125 14.53125 -14.28125 L 8.234375 -14.28125 C 8.003906 -14.28125 7.820312 -14.203125 7.6875 -14.046875 C 7.5625 -13.898438 7.5 -13.707031 7.5 -13.46875 C 7.5 -13.238281 7.5625 -13.039062 7.6875 -12.875 C 7.820312 -12.71875 8.003906 -12.628906 8.234375 -12.609375 L 12.265625 -12.0625 C 13.515625 -11.882812 14.523438 -11.472656 15.296875 -10.828125 C 16.078125 -10.179688 16.46875 -9.101562 16.46875 -7.59375 L 16.46875 -4.75 C 16.46875 -3.21875 15.96875 -2.039062 14.96875 -1.21875 C 13.96875 -0.40625 12.601562 0 10.875 0 Z M 10.875 0 "/></g></g></g><g fill="#ffffff" fill-opacity="1"><g transform="translate(135.976345, 83.566302)"><g><path d="M 14.796875 0 L 8.203125 0 C 5.953125 0 4.28125 -0.445312 3.1875 -1.34375 C 2.101562 -2.25 1.5625 -3.640625 1.5625 -5.515625 L 1.5625 -13.90625 C 1.5625 -15.78125 2.101562 -17.171875 3.1875 -18.078125 C 4.28125 -18.984375 5.953125 -19.4375 8.203125 -19.4375 L 14.796875 -19.4375 C 15.140625 -19.4375 15.382812 -19.359375 15.53125 -19.203125 C 15.6875 -19.054688 15.765625 -18.8125 15.765625 -18.46875 L 15.765625 -15.203125 C 15.765625 -14.859375 15.6875 -14.609375 15.53125 -14.453125 C 15.382812 -14.304688 15.140625 -14.234375 14.796875 -14.234375 L 9.375 -14.234375 C 8.8125 -14.234375 8.394531 -14.117188 8.125 -13.890625 C 7.851562 -13.660156 7.71875 -13.320312 7.71875 -12.875 L 7.71875 -6.453125 C 7.71875 -6.003906 7.851562 -5.675781 8.125 -5.46875 C 8.394531 -5.257812 8.8125 -5.15625 9.375 -5.15625 L 14.796875 -5.15625 C 15.140625 -5.15625 15.382812 -5.078125 15.53125 -4.921875 C 15.6875 -4.773438 15.765625 -4.53125 15.765625 -4.1875 L 15.765625 -0.96875 C 15.765625 -0.625 15.6875 -0.375 15.53125 -0.21875 C 15.382812 -0.0703125 15.140625 0 14.796875 0 Z M 14.796875 0 "/></g></g></g><g fill="#ffffff" fill-opacity="1"><g transform="translate(154.663457, 83.566302)"><g><path d="M 18.328125 -5.109375 C 18.328125 -4.273438 18.207031 -3.519531 17.96875 -2.84375 C 17.726562 -2.175781 17.296875 -1.601562 16.671875 -1.125 C 16.046875 -0.644531 15.1875 -0.269531 14.09375 0 C 13.007812 0.269531 11.632812 0.40625 9.96875 0.40625 C 8.289062 0.40625 6.898438 0.269531 5.796875 0 C 4.703125 -0.269531 3.84375 -0.644531 3.21875 -1.125 C 2.601562 -1.601562 2.171875 -2.175781 1.921875 -2.84375 C 1.679688 -3.519531 1.5625 -4.273438 1.5625 -5.109375 L 1.5625 -14.3125 C 1.5625 -15.132812 1.679688 -15.882812 1.921875 -16.5625 C 2.171875 -17.238281 2.601562 -17.816406 3.21875 -18.296875 C 3.84375 -18.785156 4.703125 -19.164062 5.796875 -19.4375 C 6.898438 -19.707031 8.289062 -19.84375 9.96875 -19.84375 C 11.632812 -19.84375 13.007812 -19.707031 14.09375 -19.4375 C 15.1875 -19.164062 16.046875 -18.785156 16.671875 -18.296875 C 17.296875 -17.816406 17.726562 -17.238281 17.96875 -16.5625 C 18.207031 -15.882812 18.328125 -15.132812 18.328125 -14.3125 Z M 7.6875 -6.078125 C 7.6875 -5.710938 7.820312 -5.410156 8.09375 -5.171875 C 8.363281 -4.929688 8.988281 -4.8125 9.96875 -4.8125 C 10.9375 -4.8125 11.554688 -4.929688 11.828125 -5.171875 C 12.097656 -5.410156 12.234375 -5.710938 12.234375 -6.078125 L 12.234375 -13.34375 C 12.234375 -13.675781 12.097656 -13.960938 11.828125 -14.203125 C 11.554688 -14.453125 10.9375 -14.578125 9.96875 -14.578125 C 8.988281 -14.578125 8.363281 -14.453125 8.09375 -14.203125 C 7.820312 -13.960938 7.6875 -13.675781 7.6875 -13.34375 Z M 7.6875 -6.078125 "/></g></g></g><g fill="#ffffff" fill-opacity="1"><g transform="translate(176.29405, 83.566302)"><g><path d="M 6.859375 0 L 2.828125 0 C 2.492188 0 2.25 -0.0703125 2.09375 -0.21875 C 1.9375 -0.375 1.859375 -0.625 1.859375 -0.96875 L 1.859375 -18.46875 C 1.859375 -18.8125 1.9375 -19.054688 2.09375 -19.203125 C 2.25 -19.359375 2.492188 -19.4375 2.828125 -19.4375 L 7.1875 -19.4375 C 7.46875 -19.4375 7.703125 -19.375 7.890625 -19.25 C 8.085938 -19.125 8.265625 -18.914062 8.421875 -18.625 L 10.859375 -14.234375 C 10.941406 -14.066406 11.015625 -13.945312 11.078125 -13.875 C 11.140625 -13.800781 11.226562 -13.765625 11.34375 -13.765625 L 11.578125 -13.765625 C 11.691406 -13.765625 11.78125 -13.800781 11.84375 -13.875 C 11.90625 -13.945312 11.976562 -14.066406 12.0625 -14.234375 L 14.46875 -18.625 C 14.632812 -18.914062 14.8125 -19.125 15 -19.25 C 15.1875 -19.375 15.425781 -19.4375 15.71875 -19.4375 L 20.09375 -19.4375 C 20.425781 -19.4375 20.671875 -19.359375 20.828125 -19.203125 C 20.984375 -19.054688 21.0625 -18.8125 21.0625 -18.46875 L 21.0625 -0.96875 C 21.0625 -0.625 20.984375 -0.375 20.828125 -0.21875 C 20.671875 -0.0703125 20.425781 0 20.09375 0 L 15.9375 0 C 15.59375 0 15.34375 -0.0703125 15.1875 -0.21875 C 15.03125 -0.375 14.953125 -0.625 14.953125 -0.96875 L 14.953125 -10.46875 L 13.359375 -7.53125 C 13.203125 -7.226562 13.007812 -7.007812 12.78125 -6.875 C 12.5625 -6.738281 12.28125 -6.671875 11.9375 -6.671875 L 10.859375 -6.671875 C 10.515625 -6.671875 10.226562 -6.738281 10 -6.875 C 9.78125 -7.007812 9.585938 -7.226562 9.421875 -7.53125 L 7.828125 -10.46875 L 7.828125 -0.96875 C 7.828125 -0.625 7.75 -0.375 7.59375 -0.21875 C 7.445312 -0.0703125 7.203125 0 6.859375 0 Z M 6.859375 0 "/></g></g></g><g fill="#ffffff" fill-opacity="1"><g transform="translate(200.949142, 83.566302)"><g><path d="M 6.859375 0 L 2.828125 0 C 2.492188 0 2.25 -0.0703125 2.09375 -0.21875 C 1.9375 -0.375 1.859375 -0.625 1.859375 -0.96875 L 1.859375 -18.46875 C 1.859375 -18.8125 1.9375 -19.054688 2.09375 -19.203125 C 2.25 -19.359375 2.492188 -19.4375 2.828125 -19.4375 L 7.1875 -19.4375 C 7.46875 -19.4375 7.703125 -19.375 7.890625 -19.25 C 8.085938 -19.125 8.265625 -18.914062 8.421875 -18.625 L 10.859375 -14.234375 C 10.941406 -14.066406 11.015625 -13.945312 11.078125 -13.875 C 11.140625 -13.800781 11.226562 -13.765625 11.34375 -13.765625 L 11.578125 -13.765625 C 11.691406 -13.765625 11.78125 -13.800781 11.84375 -13.875 C 11.90625 -13.945312 11.976562 -14.066406 12.0625 -14.234375 L 14.46875 -18.625 C 14.632812 -18.914062 14.8125 -19.125 15 -19.25 C 15.1875 -19.375 15.425781 -19.4375 15.71875 -19.4375 L 20.09375 -19.4375 C 20.425781 -19.4375 20.671875 -19.359375 20.828125 -19.203125 C 20.984375 -19.054688 21.0625 -18.8125 21.0625 -18.46875 L 21.0625 -0.96875 C 21.0625 -0.625 20.984375 -0.375 20.828125 -0.21875 C 20.671875 -0.0703125 20.425781 0 20.09375 0 L 15.9375 0 C 15.59375 0 15.34375 -0.0703125 15.1875 -0.21875 C 15.03125 -0.375 14.953125 -0.625 14.953125 -0.96875 L 14.953125 -10.46875 L 13.359375 -7.53125 C 13.203125 -7.226562 13.007812 -7.007812 12.78125 -6.875 C 12.5625 -6.738281 12.28125 -6.671875 11.9375 -6.671875 L 10.859375 -6.671875 C 10.515625 -6.671875 10.226562 -6.738281 10 -6.875 C 9.78125 -7.007812 9.585938 -7.226562 9.421875 -7.53125 L 7.828125 -10.46875 L 7.828125 -0.96875 C 7.828125 -0.625 7.75 -0.375 7.59375 -0.21875 C 7.445312 -0.0703125 7.203125 0 6.859375 0 Z M 6.859375 0 "/></g></g></g><g fill="#ffffff" fill-opacity="1"><g transform="translate(225.604228, 83.566302)"><g><path d="M 8.90625 -13.765625 L 7.640625 -9.671875 L 11.875 -9.671875 L 10.609375 -13.765625 C 10.535156 -13.929688 10.457031 -14.050781 10.375 -14.125 C 10.300781 -14.195312 10.207031 -14.234375 10.09375 -14.234375 L 9.421875 -14.234375 C 9.316406 -14.234375 9.222656 -14.195312 9.140625 -14.125 C 9.054688 -14.050781 8.976562 -13.929688 8.90625 -13.765625 Z M 7.375 -0.96875 C 7.375 -0.625 7.296875 -0.375 7.140625 -0.21875 C 6.984375 -0.0703125 6.738281 0 6.40625 0 L 2.4375 0 C 2.09375 0 1.84375 -0.0703125 1.6875 -0.21875 C 1.53125 -0.375 1.453125 -0.625 1.453125 -0.96875 L 1.453125 -8.09375 C 1.453125 -8.632812 1.535156 -9.253906 1.703125 -9.953125 C 1.878906 -10.660156 2.148438 -11.484375 2.515625 -12.421875 L 4.859375 -18.546875 C 4.960938 -18.859375 5.128906 -19.082031 5.359375 -19.21875 C 5.585938 -19.363281 5.878906 -19.4375 6.234375 -19.4375 L 13.5 -19.4375 C 13.84375 -19.4375 14.125 -19.363281 14.34375 -19.21875 C 14.570312 -19.082031 14.738281 -18.859375 14.84375 -18.546875 L 17.203125 -12.421875 C 17.554688 -11.484375 17.816406 -10.660156 17.984375 -9.953125 C 18.160156 -9.253906 18.25 -8.632812 18.25 -8.09375 L 18.25 -0.96875 C 18.25 -0.625 18.171875 -0.375 18.015625 -0.21875 C 17.867188 -0.0703125 17.625 0 17.28125 0 L 13.203125 0 C 12.835938 0 12.570312 -0.0703125 12.40625 -0.21875 C 12.238281 -0.375 12.15625 -0.625 12.15625 -0.96875 L 12.15625 -4.75 L 7.375 -4.75 Z M 7.375 -0.96875 "/></g></g></g><g fill="#ffffff" fill-opacity="1"><g transform="translate(247.045795, 83.566302)"><g><path d="M 6.890625 0 L 2.828125 0 C 2.492188 0 2.25 -0.0703125 2.09375 -0.21875 C 1.9375 -0.375 1.859375 -0.625 1.859375 -0.96875 L 1.859375 -18.46875 C 1.859375 -18.8125 1.9375 -19.054688 2.09375 -19.203125 C 2.25 -19.359375 2.492188 -19.4375 2.828125 -19.4375 L 5.640625 -19.4375 C 5.984375 -19.4375 6.273438 -19.378906 6.515625 -19.265625 C 6.765625 -19.160156 7.003906 -18.976562 7.234375 -18.71875 L 12.46875 -12.71875 L 12.46875 -18.46875 C 12.46875 -18.8125 12.546875 -19.054688 12.703125 -19.203125 C 12.859375 -19.359375 13.109375 -19.4375 13.453125 -19.4375 L 17.5 -19.4375 C 17.84375 -19.4375 18.085938 -19.359375 18.234375 -19.203125 C 18.390625 -19.054688 18.46875 -18.8125 18.46875 -18.46875 L 18.46875 -0.96875 C 18.46875 -0.625 18.390625 -0.375 18.234375 -0.21875 C 18.085938 -0.0703125 17.84375 0 17.5 0 L 13.453125 0 C 13.109375 0 12.859375 -0.0703125 12.703125 -0.21875 C 12.546875 -0.375 12.46875 -0.625 12.46875 -0.96875 L 12.46875 -4.296875 L 7.859375 -9.875 L 7.859375 -0.96875 C 7.859375 -0.625 7.78125 -0.375 7.625 -0.21875 C 7.46875 -0.0703125 7.222656 0 6.890625 0 Z M 6.890625 0 "/></g></g></g><g fill="#ffffff" fill-opacity="1"><g transform="translate(269.10846, 83.566302)"><g><path d="M 11.9375 0 L 2.828125 0 C 2.492188 0 2.25 -0.0703125 2.09375 -0.21875 C 1.9375 -0.375 1.859375 -0.625 1.859375 -0.96875 L 1.859375 -18.46875 C 1.859375 -18.8125 1.9375 -19.054688 2.09375 -19.203125 C 2.25 -19.359375 2.492188 -19.4375 2.828125 -19.4375 L 11.9375 -19.4375 C 14.1875 -19.4375 15.851562 -18.984375 16.9375 -18.078125 C 18.03125 -17.179688 18.578125 -15.800781 18.578125 -13.9375 L 18.578125 -5.515625 C 18.578125 -3.640625 18.03125 -2.25 16.9375 -1.34375 C 15.851562 -0.445312 14.1875 0 11.9375 0 Z M 7.984375 -14.28125 L 7.984375 -5.109375 L 11.203125 -5.109375 C 11.640625 -5.109375 11.957031 -5.210938 12.15625 -5.421875 C 12.363281 -5.640625 12.46875 -5.972656 12.46875 -6.421875 L 12.46875 -12.984375 C 12.46875 -13.429688 12.363281 -13.757812 12.15625 -13.96875 C 11.957031 -14.175781 11.640625 -14.28125 11.203125 -14.28125 Z M 7.984375 -14.28125 "/></g></g></g><g fill="#ffffff" fill-opacity="1"><g transform="translate(290.982095, 83.566302)"><g><path d="M 10.875 0 L 2.34375 0 C 2.007812 0 1.765625 -0.0703125 1.609375 -0.21875 C 1.453125 -0.375 1.375 -0.625 1.375 -0.96875 L 1.375 -4.125 C 1.375 -4.46875 1.453125 -4.71875 1.609375 -4.875 C 1.765625 -5.03125 2.007812 -5.109375 2.34375 -5.109375 L 9.609375 -5.109375 C 9.847656 -5.109375 10.023438 -5.179688 10.140625 -5.328125 C 10.253906 -5.484375 10.3125 -5.671875 10.3125 -5.890625 C 10.3125 -6.191406 10.253906 -6.414062 10.140625 -6.5625 C 10.023438 -6.707031 9.847656 -6.785156 9.609375 -6.796875 L 5.5625 -7.375 C 4.300781 -7.550781 3.285156 -7.960938 2.515625 -8.609375 C 1.753906 -9.253906 1.375 -10.335938 1.375 -11.859375 L 1.375 -14.6875 C 1.375 -16.21875 1.867188 -17.390625 2.859375 -18.203125 C 3.847656 -19.023438 5.21875 -19.4375 6.96875 -19.4375 L 14.53125 -19.4375 C 14.863281 -19.4375 15.109375 -19.359375 15.265625 -19.203125 C 15.421875 -19.054688 15.5 -18.8125 15.5 -18.46875 L 15.5 -15.25 C 15.5 -14.90625 15.421875 -14.65625 15.265625 -14.5 C 15.109375 -14.351562 14.863281 -14.28125 14.53125 -14.28125 L 8.234375 -14.28125 C 8.003906 -14.28125 7.820312 -14.203125 7.6875 -14.046875 C 7.5625 -13.898438 7.5 -13.707031 7.5 -13.46875 C 7.5 -13.238281 7.5625 -13.039062 7.6875 -12.875 C 7.820312 -12.71875 8.003906 -12.628906 8.234375 -12.609375 L 12.265625 -12.0625 C 13.515625 -11.882812 14.523438 -11.472656 15.296875 -10.828125 C 16.078125 -10.179688 16.46875 -9.101562 16.46875 -7.59375 L 16.46875 -4.75 C 16.46875 -3.21875 15.96875 -2.039062 14.96875 -1.21875 C 13.96875 -0.40625 12.601562 0 10.875 0 Z M 10.875 0 "/></g></g></g></svg>