<svg xmlns="http://www.w3.org/2000/svg" xmlns:xlink="http://www.w3.org/1999/xlink" width="600" zoomAndPan="magnify" viewBox="0 0 450 149.999998" height="200" preserveAspectRatio="xMidYMid meet" version="1.0"><defs><g/><clipPath id="f0c21bc3c0"><path d="M 3.277344 28.746094 L 447.191406 28.746094 L 447.191406 121.253906 L 3.277344 121.253906 Z M 3.277344 28.746094 " clip-rule="nonzero"/></clipPath><clipPath id="ba5ece6a58"><path d="M 20.527344 28.746094 L 429.941406 28.746094 C 434.515625 28.746094 438.902344 30.5625 442.136719 33.796875 C 445.371094 37.035156 447.191406 41.421875 447.191406 45.996094 L 447.191406 104.003906 C 447.191406 108.578125 445.371094 112.964844 442.136719 116.203125 C 438.902344 119.4375 434.515625 121.253906 429.941406 121.253906 L 20.527344 121.253906 C 15.953125 121.253906 11.566406 119.4375 8.332031 116.203125 C 5.09375 112.964844 3.277344 108.578125 3.277344 104.003906 L 3.277344 45.996094 C 3.277344 41.421875 5.09375 37.035156 8.332031 33.796875 C 11.566406 30.5625 15.953125 28.746094 20.527344 28.746094 Z M 20.527344 28.746094 " clip-rule="nonzero"/></clipPath><clipPath id="25ebeb69f8"><path d="M 14.347656 35.457031 L 96.097656 35.457031 L 96.097656 114.207031 L 14.347656 114.207031 Z M 14.347656 35.457031 " clip-rule="nonzero"/></clipPath><clipPath id="da17742ca5"><path d="M 14.347656 46.90625 L 59.347656 46.90625 L 59.347656 91.90625 L 14.347656 91.90625 Z M 14.347656 46.90625 " clip-rule="nonzero"/></clipPath></defs><g clip-path="url(#f0c21bc3c0)"><g clip-path="url(#ba5ece6a58)"><path fill="#5ce1e6" d="M 3.277344 28.746094 L 447.191406 28.746094 L 447.191406 121.253906 L 3.277344 121.253906 Z M 3.277344 28.746094 " fill-opacity="1" fill-rule="nonzero"/></g></g><g clip-path="url(#25ebeb69f8)"><path fill="#356264" d="M 36.835938 75.164062 C 33.609375 75.164062 30.992188 72.554688 30.992188 69.335938 C 30.992188 66.117188 33.609375 63.511719 36.835938 63.511719 C 40.066406 63.511719 42.683594 66.117188 42.683594 69.335938 C 42.683594 72.554688 40.066406 75.164062 36.835938 75.164062 Z M 58.519531 66.332031 L 57.347656 66.15625 C 55.679688 65.910156 54.28125 64.773438 53.703125 63.195312 C 53.527344 62.722656 53.335938 62.257812 53.125 61.804688 C 52.410156 60.277344 52.585938 58.480469 53.59375 57.128906 L 54.300781 56.175781 C 54.582031 55.800781 54.542969 55.277344 54.210938 54.949219 L 51.269531 52.015625 C 50.9375 51.6875 50.414062 51.648438 50.035156 51.925781 L 49.085938 52.628906 C 47.726562 53.632812 45.925781 53.808594 44.390625 53.097656 C 43.9375 52.886719 43.472656 52.695312 42.996094 52.523438 C 41.414062 51.945312 40.273438 50.550781 40.027344 48.890625 L 39.851562 47.71875 C 39.785156 47.257812 39.386719 46.914062 38.917969 46.914062 L 34.757812 46.914062 C 34.289062 46.914062 33.890625 47.257812 33.820312 47.71875 L 33.648438 48.890625 C 33.398438 50.550781 32.261719 51.945312 30.679688 52.523438 C 30.203125 52.695312 29.738281 52.886719 29.285156 53.097656 C 27.75 53.808594 25.949219 53.632812 24.589844 52.628906 L 23.636719 51.925781 C 23.261719 51.648438 22.738281 51.6875 22.40625 52.015625 L 19.464844 54.949219 C 19.132812 55.277344 19.09375 55.800781 19.375 56.175781 L 20.078125 57.128906 C 21.085938 58.480469 21.261719 60.277344 20.550781 61.804688 C 20.339844 62.257812 20.144531 62.722656 19.972656 63.195312 C 19.394531 64.773438 17.996094 65.910156 16.328125 66.15625 L 15.15625 66.332031 C 14.691406 66.398438 14.347656 66.796875 14.347656 67.261719 L 14.347656 71.410156 C 14.347656 71.878906 14.691406 72.273438 15.15625 72.34375 L 16.328125 72.515625 C 17.996094 72.765625 19.394531 73.898438 19.972656 75.476562 C 20.144531 75.949219 20.339844 76.414062 20.550781 76.867188 C 21.261719 78.398438 21.085938 80.191406 20.078125 81.546875 L 19.375 82.496094 C 19.09375 82.871094 19.132812 83.394531 19.464844 83.726562 L 22.40625 86.65625 C 22.738281 86.988281 23.261719 87.027344 23.636719 86.75 L 24.589844 86.042969 C 25.949219 85.039062 27.75 84.863281 29.285156 85.574219 C 29.738281 85.785156 30.203125 85.976562 30.679688 86.152344 C 32.261719 86.726562 33.398438 88.121094 33.648438 89.785156 L 33.820312 90.953125 C 33.890625 91.417969 34.289062 91.757812 34.757812 91.757812 L 38.917969 91.757812 C 39.386719 91.757812 39.785156 91.417969 39.851562 90.953125 L 40.027344 89.785156 C 40.273438 88.121094 41.414062 86.726562 42.996094 86.152344 C 43.472656 85.976562 43.9375 85.785156 44.390625 85.574219 C 45.925781 84.863281 47.726562 85.039062 49.085938 86.042969 L 50.035156 86.75 C 50.414062 87.027344 50.9375 86.988281 51.269531 86.65625 L 54.210938 83.726562 C 54.542969 83.394531 54.582031 82.871094 54.300781 82.496094 L 53.59375 81.546875 C 52.585938 80.191406 52.410156 78.398438 53.125 76.867188 C 53.335938 76.414062 53.527344 75.949219 53.703125 75.476562 C 54.28125 73.898438 55.679688 72.765625 57.347656 72.515625 L 58.519531 72.34375 C 58.984375 72.273438 59.328125 71.878906 59.328125 71.410156 L 59.328125 67.261719 C 59.328125 66.796875 58.984375 66.398438 58.519531 66.332031 Z M 73.609375 97.585938 C 70.382812 97.585938 67.765625 94.976562 67.765625 91.757812 C 67.765625 88.539062 70.382812 85.929688 73.609375 85.929688 C 76.835938 85.929688 79.453125 88.539062 79.453125 91.757812 C 79.453125 94.976562 76.835938 97.585938 73.609375 97.585938 Z M 95.292969 88.753906 L 94.121094 88.578125 C 92.453125 88.332031 91.054688 87.195312 90.472656 85.617188 C 90.300781 85.144531 90.109375 84.679688 89.898438 84.226562 C 89.183594 82.699219 89.359375 80.902344 90.367188 79.546875 L 91.074219 78.597656 C 91.351562 78.222656 91.3125 77.699219 90.984375 77.371094 L 88.042969 74.4375 C 87.710938 74.109375 87.1875 74.070312 86.808594 74.347656 L 85.855469 75.050781 C 84.496094 76.054688 82.699219 76.230469 81.164062 75.519531 C 80.707031 75.308594 80.242188 75.117188 79.769531 74.945312 C 78.1875 74.367188 77.046875 72.972656 76.800781 71.308594 L 76.625 70.140625 C 76.554688 69.679688 76.15625 69.335938 75.6875 69.335938 L 71.53125 69.335938 C 71.0625 69.335938 70.664062 69.679688 70.59375 70.140625 L 70.421875 71.308594 C 70.171875 72.972656 69.03125 74.367188 67.449219 74.945312 C 66.976562 75.117188 66.511719 75.308594 66.054688 75.519531 C 64.523438 76.230469 62.722656 76.054688 61.363281 75.050781 L 60.410156 74.347656 C 60.035156 74.070312 59.507812 74.109375 59.179688 74.4375 L 56.238281 77.371094 C 55.90625 77.699219 55.867188 78.222656 56.144531 78.597656 L 56.851562 79.546875 C 57.859375 80.902344 58.035156 82.699219 57.324219 84.226562 C 57.109375 84.679688 56.917969 85.144531 56.746094 85.617188 C 56.167969 87.195312 54.765625 88.332031 53.101562 88.578125 L 51.925781 88.753906 C 51.464844 88.820312 51.121094 89.21875 51.121094 89.683594 L 51.121094 93.832031 C 51.121094 94.296875 51.464844 94.695312 51.925781 94.765625 L 53.101562 94.9375 C 54.765625 95.183594 56.167969 96.320312 56.746094 97.898438 C 56.917969 98.371094 57.109375 98.835938 57.324219 99.289062 C 58.035156 100.820312 57.859375 102.613281 56.851562 103.96875 L 56.144531 104.917969 C 55.867188 105.292969 55.90625 105.816406 56.238281 106.148438 L 59.179688 109.078125 C 59.507812 109.410156 60.035156 109.449219 60.410156 109.167969 L 61.363281 108.464844 C 62.722656 107.460938 64.523438 107.285156 66.054688 107.996094 C 66.511719 108.207031 66.976562 108.398438 67.449219 108.574219 C 69.035156 109.148438 70.171875 110.542969 70.421875 112.207031 L 70.59375 113.375 C 70.664062 113.835938 71.0625 114.179688 71.53125 114.179688 L 75.6875 114.179688 C 76.15625 114.179688 76.554688 113.835938 76.625 113.375 L 76.800781 112.207031 C 77.046875 110.542969 78.1875 109.148438 79.769531 108.574219 C 80.242188 108.398438 80.707031 108.207031 81.164062 107.996094 C 82.699219 107.285156 84.496094 107.460938 85.855469 108.464844 L 86.808594 109.167969 C 87.1875 109.449219 87.710938 109.410156 88.042969 109.078125 L 90.984375 106.148438 C 91.3125 105.816406 91.351562 105.292969 91.074219 104.917969 L 90.367188 103.96875 C 89.359375 102.613281 89.183594 100.820312 89.898438 99.289062 C 90.109375 98.835938 90.300781 98.371094 90.472656 97.898438 C 91.054688 96.320312 92.453125 95.183594 94.121094 94.9375 L 95.292969 94.765625 C 95.753906 94.695312 96.097656 94.296875 96.097656 93.832031 L 96.097656 89.683594 C 96.097656 89.21875 95.753906 88.820312 95.292969 88.753906 Z M 70.332031 56.085938 C 67.898438 56.085938 65.921875 54.117188 65.921875 51.691406 C 65.921875 49.261719 67.898438 47.292969 70.332031 47.292969 C 72.769531 47.292969 74.742188 49.261719 74.742188 51.691406 C 74.742188 54.117188 72.769531 56.085938 70.332031 56.085938 Z M 86 49.519531 L 85.152344 49.390625 C 83.949219 49.214844 82.9375 48.394531 82.519531 47.253906 C 82.394531 46.910156 82.253906 46.578125 82.101562 46.25 C 81.585938 45.144531 81.714844 43.847656 82.441406 42.867188 L 82.953125 42.179688 C 83.152344 41.910156 83.125 41.53125 82.886719 41.292969 L 80.761719 39.175781 C 80.523438 38.9375 80.144531 38.910156 79.871094 39.109375 L 79.183594 39.617188 C 78.199219 40.34375 76.898438 40.472656 75.792969 39.957031 C 75.460938 39.804688 75.125 39.667969 74.785156 39.542969 C 73.640625 39.125 72.816406 38.117188 72.636719 36.914062 L 72.511719 36.070312 C 72.460938 35.738281 72.175781 35.488281 71.835938 35.488281 L 68.832031 35.488281 C 68.492188 35.488281 68.203125 35.738281 68.152344 36.070312 L 68.027344 36.914062 C 67.847656 38.117188 67.027344 39.125 65.882812 39.542969 C 65.539062 39.667969 65.203125 39.804688 64.875 39.957031 C 63.765625 40.472656 62.464844 40.34375 61.484375 39.617188 L 60.796875 39.109375 C 60.523438 38.910156 60.144531 38.9375 59.90625 39.175781 L 57.78125 41.292969 C 57.539062 41.53125 57.511719 41.910156 57.714844 42.179688 L 58.226562 42.867188 C 58.953125 43.847656 59.078125 45.144531 58.5625 46.25 C 58.410156 46.578125 58.273438 46.910156 58.144531 47.253906 C 57.730469 48.394531 56.71875 49.214844 55.511719 49.390625 L 54.664062 49.519531 C 54.332031 49.566406 54.082031 49.855469 54.082031 50.191406 L 54.082031 53.1875 C 54.082031 53.527344 54.332031 53.8125 54.664062 53.863281 L 55.511719 53.988281 C 56.71875 54.167969 57.730469 54.988281 58.144531 56.128906 C 58.273438 56.46875 58.410156 56.804688 58.5625 57.132812 C 59.078125 58.238281 58.953125 59.535156 58.226562 60.511719 L 57.714844 61.199219 C 57.511719 61.472656 57.539062 61.847656 57.78125 62.089844 L 59.90625 64.207031 C 60.144531 64.445312 60.523438 64.472656 60.796875 64.273438 L 61.484375 63.761719 C 62.464844 63.035156 63.765625 62.910156 64.875 63.425781 C 65.203125 63.578125 65.539062 63.714844 65.882812 63.839844 C 67.027344 64.257812 67.847656 65.265625 68.027344 66.464844 L 68.152344 67.3125 C 68.203125 67.644531 68.492188 67.890625 68.832031 67.890625 L 71.835938 67.890625 C 72.175781 67.890625 72.460938 67.644531 72.511719 67.3125 L 72.636719 66.464844 C 72.816406 65.265625 73.640625 64.257812 74.785156 63.839844 C 75.125 63.714844 75.460938 63.578125 75.792969 63.425781 C 76.898438 62.910156 78.199219 63.035156 79.183594 63.761719 L 79.871094 64.273438 C 80.144531 64.472656 80.523438 64.445312 80.761719 64.207031 L 82.886719 62.089844 C 83.125 61.847656 83.152344 61.472656 82.953125 61.199219 L 82.441406 60.511719 C 81.714844 59.535156 81.585938 58.238281 82.101562 57.132812 C 82.253906 56.804688 82.394531 56.46875 82.519531 56.128906 C 82.9375 54.988281 83.949219 54.167969 85.152344 53.988281 L 86 53.863281 C 86.335938 53.8125 86.582031 53.527344 86.582031 53.1875 L 86.582031 50.191406 C 86.582031 49.855469 86.335938 49.566406 86 49.519531 " fill-opacity="1" fill-rule="nonzero"/></g><g clip-path="url(#da17742ca5)"><path fill="#287777" d="M 57.710938 72.925781 C 58.59375 72.925781 59.316406 72.203125 59.316406 71.320312 L 59.316406 67.441406 C 59.316406 66.554688 58.59375 65.835938 57.710938 65.835938 L 56.042969 65.835938 C 55.160156 65.835938 54.226562 65.144531 53.964844 64.300781 L 52.542969 60.847656 C 52.125 60.070312 52.296875 58.921875 52.917969 58.296875 L 54.097656 57.117188 C 54.722656 56.492188 54.722656 55.472656 54.097656 54.847656 L 51.355469 52.101562 C 50.730469 51.480469 49.707031 51.480469 49.085938 52.101562 L 47.90625 53.28125 C 47.28125 53.90625 46.132812 54.074219 45.355469 53.65625 L 41.902344 52.234375 C 41.058594 51.976562 40.367188 51.042969 40.367188 50.160156 L 40.367188 48.492188 C 40.367188 47.609375 39.644531 46.886719 38.761719 46.886719 L 34.882812 46.886719 C 34 46.886719 33.277344 47.609375 33.277344 48.492188 L 33.277344 50.160156 C 33.277344 51.042969 32.585938 51.976562 31.742188 52.234375 L 28.289062 53.65625 C 27.511719 54.074219 26.363281 53.90625 25.738281 53.28125 L 24.558594 52.101562 C 23.933594 51.476562 22.914062 51.476562 22.289062 52.101562 L 19.546875 54.847656 C 18.921875 55.472656 18.921875 56.492188 19.546875 57.117188 L 20.726562 58.296875 C 21.351562 58.921875 21.519531 60.070312 21.101562 60.847656 L 19.679688 64.300781 C 19.417969 65.144531 18.484375 65.832031 17.601562 65.832031 L 15.9375 65.832031 C 15.050781 65.832031 14.332031 66.554688 14.332031 67.4375 L 14.332031 71.320312 C 14.332031 72.203125 15.050781 72.925781 15.9375 72.925781 L 17.601562 72.925781 C 18.484375 72.925781 19.417969 73.617188 19.679688 74.460938 L 21.101562 77.914062 C 21.519531 78.691406 21.351562 79.839844 20.726562 80.460938 L 19.546875 81.644531 C 18.921875 82.265625 18.921875 83.289062 19.546875 83.914062 L 22.289062 86.65625 C 22.914062 87.28125 23.933594 87.28125 24.558594 86.65625 L 25.742188 85.476562 C 26.363281 84.851562 27.511719 84.683594 28.289062 85.101562 L 31.742188 86.523438 C 32.585938 86.785156 33.277344 87.71875 33.277344 88.601562 L 33.277344 90.269531 C 33.277344 91.152344 34 91.875 34.882812 91.875 L 38.761719 91.875 C 39.644531 91.875 40.367188 91.152344 40.367188 90.269531 L 40.367188 88.601562 C 40.367188 87.71875 41.058594 86.785156 41.902344 86.523438 L 45.355469 85.101562 C 46.132812 84.683594 47.28125 84.851562 47.90625 85.476562 L 49.085938 86.65625 C 49.710938 87.28125 50.730469 87.28125 51.355469 86.65625 L 54.097656 83.914062 C 54.722656 83.289062 54.722656 82.265625 54.097656 81.640625 L 52.917969 80.460938 C 52.296875 79.839844 52.125 78.691406 52.542969 77.914062 L 53.964844 74.460938 C 54.226562 73.617188 55.160156 72.925781 56.042969 72.925781 Z M 36.820312 78.632812 C 31.710938 78.632812 27.566406 74.492188 27.566406 69.378906 C 27.566406 64.269531 31.710938 60.125 36.820312 60.125 C 41.933594 60.125 46.074219 64.269531 46.074219 69.378906 C 46.074219 74.492188 41.933594 78.632812 36.820312 78.632812 Z M 36.820312 78.632812 " fill-opacity="1" fill-rule="nonzero"/></g><g fill="#0d4244" fill-opacity="0.302"><g transform="translate(138.363305, 85.953279)"><g><path d="M 14.796875 0 L 8.203125 0 C 5.953125 0 4.28125 -0.445312 3.1875 -1.34375 C 2.101562 -2.25 1.5625 -3.640625 1.5625 -5.515625 L 1.5625 -13.90625 C 1.5625 -15.78125 2.101562 -17.171875 3.1875 -18.078125 C 4.28125 -18.984375 5.953125 -19.4375 8.203125 -19.4375 L 14.796875 -19.4375 C 15.140625 -19.4375 15.382812 -19.359375 15.53125 -19.203125 C 15.6875 -19.054688 15.765625 -18.8125 15.765625 -18.46875 L 15.765625 -15.203125 C 15.765625 -14.859375 15.6875 -14.609375 15.53125 -14.453125 C 15.382812 -14.304688 15.140625 -14.234375 14.796875 -14.234375 L 9.375 -14.234375 C 8.8125 -14.234375 8.394531 -14.117188 8.125 -13.890625 C 7.851562 -13.660156 7.71875 -13.320312 7.71875 -12.875 L 7.71875 -6.453125 C 7.71875 -6.003906 7.851562 -5.675781 8.125 -5.46875 C 8.394531 -5.257812 8.8125 -5.15625 9.375 -5.15625 L 14.796875 -5.15625 C 15.140625 -5.15625 15.382812 -5.078125 15.53125 -4.921875 C 15.6875 -4.773438 15.765625 -4.53125 15.765625 -4.1875 L 15.765625 -0.96875 C 15.765625 -0.625 15.6875 -0.375 15.53125 -0.21875 C 15.382812 -0.0703125 15.140625 0 14.796875 0 Z M 14.796875 0 "/></g></g></g><g fill="#0d4244" fill-opacity="0.302"><g transform="translate(157.050417, 85.953279)"><g><path d="M 18.328125 -5.109375 C 18.328125 -4.273438 18.207031 -3.519531 17.96875 -2.84375 C 17.726562 -2.175781 17.296875 -1.601562 16.671875 -1.125 C 16.046875 -0.644531 15.1875 -0.269531 14.09375 0 C 13.007812 0.269531 11.632812 0.40625 9.96875 0.40625 C 8.289062 0.40625 6.898438 0.269531 5.796875 0 C 4.703125 -0.269531 3.84375 -0.644531 3.21875 -1.125 C 2.601562 -1.601562 2.171875 -2.175781 1.921875 -2.84375 C 1.679688 -3.519531 1.5625 -4.273438 1.5625 -5.109375 L 1.5625 -14.3125 C 1.5625 -15.132812 1.679688 -15.882812 1.921875 -16.5625 C 2.171875 -17.238281 2.601562 -17.816406 3.21875 -18.296875 C 3.84375 -18.785156 4.703125 -19.164062 5.796875 -19.4375 C 6.898438 -19.707031 8.289062 -19.84375 9.96875 -19.84375 C 11.632812 -19.84375 13.007812 -19.707031 14.09375 -19.4375 C 15.1875 -19.164062 16.046875 -18.785156 16.671875 -18.296875 C 17.296875 -17.816406 17.726562 -17.238281 17.96875 -16.5625 C 18.207031 -15.882812 18.328125 -15.132812 18.328125 -14.3125 Z M 7.6875 -6.078125 C 7.6875 -5.710938 7.820312 -5.410156 8.09375 -5.171875 C 8.363281 -4.929688 8.988281 -4.8125 9.96875 -4.8125 C 10.9375 -4.8125 11.554688 -4.929688 11.828125 -5.171875 C 12.097656 -5.410156 12.234375 -5.710938 12.234375 -6.078125 L 12.234375 -13.34375 C 12.234375 -13.675781 12.097656 -13.960938 11.828125 -14.203125 C 11.554688 -14.453125 10.9375 -14.578125 9.96875 -14.578125 C 8.988281 -14.578125 8.363281 -14.453125 8.09375 -14.203125 C 7.820312 -13.960938 7.6875 -13.675781 7.6875 -13.34375 Z M 7.6875 -6.078125 "/></g></g></g><g fill="#0d4244" fill-opacity="0.302"><g transform="translate(178.68101, 85.953279)"><g><path d="M 6.890625 0 L 2.828125 0 C 2.492188 0 2.25 -0.0703125 2.09375 -0.21875 C 1.9375 -0.375 1.859375 -0.625 1.859375 -0.96875 L 1.859375 -18.46875 C 1.859375 -18.8125 1.9375 -19.054688 2.09375 -19.203125 C 2.25 -19.359375 2.492188 -19.4375 2.828125 -19.4375 L 5.640625 -19.4375 C 5.984375 -19.4375 6.273438 -19.378906 6.515625 -19.265625 C 6.765625 -19.160156 7.003906 -18.976562 7.234375 -18.71875 L 12.46875 -12.71875 L 12.46875 -18.46875 C 12.46875 -18.8125 12.546875 -19.054688 12.703125 -19.203125 C 12.859375 -19.359375 13.109375 -19.4375 13.453125 -19.4375 L 17.5 -19.4375 C 17.84375 -19.4375 18.085938 -19.359375 18.234375 -19.203125 C 18.390625 -19.054688 18.46875 -18.8125 18.46875 -18.46875 L 18.46875 -0.96875 C 18.46875 -0.625 18.390625 -0.375 18.234375 -0.21875 C 18.085938 -0.0703125 17.84375 0 17.5 0 L 13.453125 0 C 13.109375 0 12.859375 -0.0703125 12.703125 -0.21875 C 12.546875 -0.375 12.46875 -0.625 12.46875 -0.96875 L 12.46875 -4.296875 L 7.859375 -9.875 L 7.859375 -0.96875 C 7.859375 -0.625 7.78125 -0.375 7.625 -0.21875 C 7.46875 -0.0703125 7.222656 0 6.890625 0 Z M 6.890625 0 "/></g></g></g><g fill="#0d4244" fill-opacity="0.302"><g transform="translate(200.743675, 85.953279)"><g><path d="M 7.015625 0 L 2.828125 0 C 2.492188 0 2.25 -0.0703125 2.09375 -0.21875 C 1.9375 -0.375 1.859375 -0.625 1.859375 -0.96875 L 1.859375 -18.46875 C 1.859375 -18.8125 1.9375 -19.054688 2.09375 -19.203125 C 2.25 -19.359375 2.492188 -19.4375 2.828125 -19.4375 L 14.875 -19.4375 C 15.21875 -19.4375 15.460938 -19.359375 15.609375 -19.203125 C 15.765625 -19.054688 15.84375 -18.8125 15.84375 -18.46875 L 15.84375 -15.25 C 15.84375 -14.90625 15.765625 -14.65625 15.609375 -14.5 C 15.460938 -14.351562 15.21875 -14.28125 14.875 -14.28125 L 7.984375 -14.28125 L 7.984375 -11.46875 L 12.6875 -11.46875 C 13.03125 -11.46875 13.273438 -11.390625 13.421875 -11.234375 C 13.578125 -11.085938 13.65625 -10.84375 13.65625 -10.5 L 13.65625 -7.265625 C 13.65625 -6.921875 13.578125 -6.671875 13.421875 -6.515625 C 13.273438 -6.367188 13.03125 -6.296875 12.6875 -6.296875 L 7.984375 -6.296875 L 7.984375 -0.96875 C 7.984375 -0.625 7.90625 -0.375 7.75 -0.21875 C 7.601562 -0.0703125 7.359375 0 7.015625 0 Z M 7.015625 0 "/></g></g></g><g fill="#0d4244" fill-opacity="0.302"><g transform="translate(219.160746, 85.953279)"><g><path d="M 2.40625 0 C 2.0625 0 1.8125 -0.0703125 1.65625 -0.21875 C 1.507812 -0.375 1.4375 -0.625 1.4375 -0.96875 L 1.4375 -4.1875 C 1.4375 -4.53125 1.507812 -4.773438 1.65625 -4.921875 C 1.8125 -5.078125 2.0625 -5.15625 2.40625 -5.15625 L 5.078125 -5.15625 L 5.078125 -14.234375 L 2.40625 -14.234375 C 2.0625 -14.234375 1.8125 -14.304688 1.65625 -14.453125 C 1.507812 -14.609375 1.4375 -14.859375 1.4375 -15.203125 L 1.4375 -18.46875 C 1.4375 -18.8125 1.507812 -19.054688 1.65625 -19.203125 C 1.8125 -19.359375 2.0625 -19.4375 2.40625 -19.4375 L 13.90625 -19.4375 C 14.25 -19.4375 14.492188 -19.359375 14.640625 -19.203125 C 14.796875 -19.054688 14.875 -18.8125 14.875 -18.46875 L 14.875 -15.203125 C 14.875 -14.859375 14.796875 -14.609375 14.640625 -14.453125 C 14.492188 -14.304688 14.25 -14.234375 13.90625 -14.234375 L 11.28125 -14.234375 L 11.28125 -5.15625 L 13.90625 -5.15625 C 14.25 -5.15625 14.492188 -5.078125 14.640625 -4.921875 C 14.796875 -4.773438 14.875 -4.53125 14.875 -4.1875 L 14.875 -0.96875 C 14.875 -0.625 14.796875 -0.375 14.640625 -0.21875 C 14.492188 -0.0703125 14.25 0 13.90625 0 Z M 2.40625 0 "/></g></g></g><g fill="#0d4244" fill-opacity="0.302"><g transform="translate(237.226757, 85.953279)"><g><path d="M 16.71875 0 L 8.203125 0 C 5.953125 0 4.28125 -0.445312 3.1875 -1.34375 C 2.101562 -2.25 1.5625 -3.640625 1.5625 -5.515625 L 1.5625 -13.9375 C 1.5625 -15.800781 2.101562 -17.179688 3.1875 -18.078125 C 4.28125 -18.984375 5.953125 -19.4375 8.203125 -19.4375 L 14.953125 -19.4375 C 15.296875 -19.4375 15.546875 -19.359375 15.703125 -19.203125 C 15.859375 -19.054688 15.9375 -18.8125 15.9375 -18.46875 L 15.9375 -15.203125 C 15.9375 -14.859375 15.859375 -14.609375 15.703125 -14.453125 C 15.546875 -14.304688 15.296875 -14.234375 14.953125 -14.234375 L 9.34375 -14.234375 C 8.78125 -14.234375 8.363281 -14.117188 8.09375 -13.890625 C 7.820312 -13.660156 7.6875 -13.320312 7.6875 -12.875 L 7.6875 -6.421875 C 7.6875 -5.972656 7.789062 -5.640625 8 -5.421875 C 8.207031 -5.210938 8.519531 -5.109375 8.9375 -5.109375 L 11.5625 -5.109375 L 11.5625 -9.3125 C 11.5625 -9.65625 11.632812 -9.898438 11.78125 -10.046875 C 11.9375 -10.203125 12.1875 -10.28125 12.53125 -10.28125 L 16.71875 -10.28125 C 17.050781 -10.28125 17.296875 -10.203125 17.453125 -10.046875 C 17.609375 -9.898438 17.6875 -9.65625 17.6875 -9.3125 L 17.6875 -0.96875 C 17.6875 -0.625 17.609375 -0.375 17.453125 -0.21875 C 17.296875 -0.0703125 17.050781 0 16.71875 0 Z M 16.71875 0 "/></g></g></g><g fill="#0d4244" fill-opacity="0.302"><g transform="translate(258.07422, 85.953279)"><g><path d="M 18.40625 -5.109375 C 18.40625 -4.273438 18.285156 -3.519531 18.046875 -2.84375 C 17.804688 -2.175781 17.375 -1.601562 16.75 -1.125 C 16.132812 -0.644531 15.285156 -0.269531 14.203125 0 C 13.117188 0.269531 11.742188 0.40625 10.078125 0.40625 C 8.398438 0.40625 7.019531 0.269531 5.9375 0 C 4.851562 -0.269531 4 -0.644531 3.375 -1.125 C 2.757812 -1.601562 2.332031 -2.175781 2.09375 -2.84375 C 1.851562 -3.519531 1.734375 -4.273438 1.734375 -5.109375 L 1.734375 -18.46875 C 1.734375 -18.8125 1.804688 -19.054688 1.953125 -19.203125 C 2.109375 -19.359375 2.359375 -19.4375 2.703125 -19.4375 L 6.9375 -19.4375 C 7.28125 -19.4375 7.523438 -19.359375 7.671875 -19.203125 C 7.828125 -19.054688 7.90625 -18.8125 7.90625 -18.46875 L 7.90625 -6.15625 C 7.90625 -5.789062 8.039062 -5.488281 8.3125 -5.25 C 8.582031 -5.007812 9.1875 -4.890625 10.125 -4.890625 C 11.082031 -4.890625 11.691406 -5.007812 11.953125 -5.25 C 12.222656 -5.488281 12.359375 -5.789062 12.359375 -6.15625 L 12.359375 -18.46875 C 12.359375 -18.8125 12.4375 -19.054688 12.59375 -19.203125 C 12.75 -19.359375 13 -19.4375 13.34375 -19.4375 L 17.4375 -19.4375 C 17.78125 -19.4375 18.023438 -19.359375 18.171875 -19.203125 C 18.328125 -19.054688 18.40625 -18.8125 18.40625 -18.46875 Z M 18.40625 -5.109375 "/></g></g></g><g fill="#0d4244" fill-opacity="0.302"><g transform="translate(279.947855, 85.953279)"><g><path d="M 7.96875 -14.578125 L 7.96875 -11.125 L 9.984375 -11.125 C 10.453125 -11.125 10.765625 -11.242188 10.921875 -11.484375 C 11.085938 -11.734375 11.171875 -12.035156 11.171875 -12.390625 L 11.171875 -13.3125 C 11.171875 -13.664062 11.085938 -13.960938 10.921875 -14.203125 C 10.765625 -14.453125 10.453125 -14.578125 9.984375 -14.578125 Z M 7 0 L 2.828125 0 C 2.492188 0 2.25 -0.0703125 2.09375 -0.21875 C 1.9375 -0.375 1.859375 -0.625 1.859375 -0.96875 L 1.859375 -18.46875 C 1.859375 -18.8125 1.9375 -19.054688 2.09375 -19.203125 C 2.25 -19.359375 2.492188 -19.4375 2.828125 -19.4375 L 11.828125 -19.4375 C 13.835938 -19.4375 15.222656 -19.015625 15.984375 -18.171875 C 16.753906 -17.335938 17.140625 -16.257812 17.140625 -14.9375 L 17.140625 -13.6875 C 17.140625 -12.9375 17.023438 -12.296875 16.796875 -11.765625 C 16.578125 -11.234375 16.191406 -10.847656 15.640625 -10.609375 C 16.609375 -10.503906 17.394531 -10.109375 18 -9.421875 C 18.601562 -8.734375 18.90625 -7.828125 18.90625 -6.703125 L 18.90625 -0.96875 C 18.90625 -0.625 18.828125 -0.375 18.671875 -0.21875 C 18.515625 -0.0703125 18.265625 0 17.921875 0 L 13.75 0 C 13.40625 0 13.15625 -0.0703125 13 -0.21875 C 12.84375 -0.375 12.765625 -0.625 12.765625 -0.96875 L 12.765625 -5.109375 C 12.765625 -5.503906 12.6875 -5.796875 12.53125 -5.984375 C 12.382812 -6.171875 12.125 -6.265625 11.75 -6.265625 L 7.96875 -6.265625 L 7.96875 -0.96875 C 7.96875 -0.625 7.890625 -0.375 7.734375 -0.21875 C 7.578125 -0.0703125 7.332031 0 7 0 Z M 7 0 "/></g></g></g><g fill="#0d4244" fill-opacity="0.302"><g transform="translate(301.740481, 85.953279)"><g><path d="M 8.90625 -13.765625 L 7.640625 -9.671875 L 11.875 -9.671875 L 10.609375 -13.765625 C 10.535156 -13.929688 10.457031 -14.050781 10.375 -14.125 C 10.300781 -14.195312 10.207031 -14.234375 10.09375 -14.234375 L 9.421875 -14.234375 C 9.316406 -14.234375 9.222656 -14.195312 9.140625 -14.125 C 9.054688 -14.050781 8.976562 -13.929688 8.90625 -13.765625 Z M 7.375 -0.96875 C 7.375 -0.625 7.296875 -0.375 7.140625 -0.21875 C 6.984375 -0.0703125 6.738281 0 6.40625 0 L 2.4375 0 C 2.09375 0 1.84375 -0.0703125 1.6875 -0.21875 C 1.53125 -0.375 1.453125 -0.625 1.453125 -0.96875 L 1.453125 -8.09375 C 1.453125 -8.632812 1.535156 -9.253906 1.703125 -9.953125 C 1.878906 -10.660156 2.148438 -11.484375 2.515625 -12.421875 L 4.859375 -18.546875 C 4.960938 -18.859375 5.128906 -19.082031 5.359375 -19.21875 C 5.585938 -19.363281 5.878906 -19.4375 6.234375 -19.4375 L 13.5 -19.4375 C 13.84375 -19.4375 14.125 -19.363281 14.34375 -19.21875 C 14.570312 -19.082031 14.738281 -18.859375 14.84375 -18.546875 L 17.203125 -12.421875 C 17.554688 -11.484375 17.816406 -10.660156 17.984375 -9.953125 C 18.160156 -9.253906 18.25 -8.632812 18.25 -8.09375 L 18.25 -0.96875 C 18.25 -0.625 18.171875 -0.375 18.015625 -0.21875 C 17.867188 -0.0703125 17.625 0 17.28125 0 L 13.203125 0 C 12.835938 0 12.570312 -0.0703125 12.40625 -0.21875 C 12.238281 -0.375 12.15625 -0.625 12.15625 -0.96875 L 12.15625 -4.75 L 7.375 -4.75 Z M 7.375 -0.96875 "/></g></g></g><g fill="#0d4244" fill-opacity="0.302"><g transform="translate(323.182049, 85.953279)"><g><path d="M 11.046875 0 L 6.671875 0 C 6.328125 0 6.078125 -0.0703125 5.921875 -0.21875 C 5.773438 -0.375 5.703125 -0.625 5.703125 -0.96875 L 5.703125 -14.234375 L 1.734375 -14.234375 C 1.390625 -14.234375 1.140625 -14.304688 0.984375 -14.453125 C 0.828125 -14.609375 0.75 -14.859375 0.75 -15.203125 L 0.75 -18.46875 C 0.75 -18.8125 0.828125 -19.054688 0.984375 -19.203125 C 1.140625 -19.359375 1.390625 -19.4375 1.734375 -19.4375 L 15.984375 -19.4375 C 16.328125 -19.4375 16.570312 -19.359375 16.71875 -19.203125 C 16.875 -19.054688 16.953125 -18.8125 16.953125 -18.46875 L 16.953125 -15.203125 C 16.953125 -14.859375 16.875 -14.609375 16.71875 -14.453125 C 16.570312 -14.304688 16.328125 -14.234375 15.984375 -14.234375 L 12.015625 -14.234375 L 12.015625 -0.96875 C 12.015625 -0.625 11.9375 -0.375 11.78125 -0.21875 C 11.632812 -0.0703125 11.390625 0 11.046875 0 Z M 11.046875 0 "/></g></g></g><g fill="#0d4244" fill-opacity="0.302"><g transform="translate(342.62528, 85.953279)"><g><path d="M 2.40625 0 C 2.0625 0 1.8125 -0.0703125 1.65625 -0.21875 C 1.507812 -0.375 1.4375 -0.625 1.4375 -0.96875 L 1.4375 -4.1875 C 1.4375 -4.53125 1.507812 -4.773438 1.65625 -4.921875 C 1.8125 -5.078125 2.0625 -5.15625 2.40625 -5.15625 L 5.078125 -5.15625 L 5.078125 -14.234375 L 2.40625 -14.234375 C 2.0625 -14.234375 1.8125 -14.304688 1.65625 -14.453125 C 1.507812 -14.609375 1.4375 -14.859375 1.4375 -15.203125 L 1.4375 -18.46875 C 1.4375 -18.8125 1.507812 -19.054688 1.65625 -19.203125 C 1.8125 -19.359375 2.0625 -19.4375 2.40625 -19.4375 L 13.90625 -19.4375 C 14.25 -19.4375 14.492188 -19.359375 14.640625 -19.203125 C 14.796875 -19.054688 14.875 -18.8125 14.875 -18.46875 L 14.875 -15.203125 C 14.875 -14.859375 14.796875 -14.609375 14.640625 -14.453125 C 14.492188 -14.304688 14.25 -14.234375 13.90625 -14.234375 L 11.28125 -14.234375 L 11.28125 -5.15625 L 13.90625 -5.15625 C 14.25 -5.15625 14.492188 -5.078125 14.640625 -4.921875 C 14.796875 -4.773438 14.875 -4.53125 14.875 -4.1875 L 14.875 -0.96875 C 14.875 -0.625 14.796875 -0.375 14.640625 -0.21875 C 14.492188 -0.0703125 14.25 0 13.90625 0 Z M 2.40625 0 "/></g></g></g><g fill="#0d4244" fill-opacity="0.302"><g transform="translate(360.691298, 85.953279)"><g><path d="M 18.328125 -5.109375 C 18.328125 -4.273438 18.207031 -3.519531 17.96875 -2.84375 C 17.726562 -2.175781 17.296875 -1.601562 16.671875 -1.125 C 16.046875 -0.644531 15.1875 -0.269531 14.09375 0 C 13.007812 0.269531 11.632812 0.40625 9.96875 0.40625 C 8.289062 0.40625 6.898438 0.269531 5.796875 0 C 4.703125 -0.269531 3.84375 -0.644531 3.21875 -1.125 C 2.601562 -1.601562 2.171875 -2.175781 1.921875 -2.84375 C 1.679688 -3.519531 1.5625 -4.273438 1.5625 -5.109375 L 1.5625 -14.3125 C 1.5625 -15.132812 1.679688 -15.882812 1.921875 -16.5625 C 2.171875 -17.238281 2.601562 -17.816406 3.21875 -18.296875 C 3.84375 -18.785156 4.703125 -19.164062 5.796875 -19.4375 C 6.898438 -19.707031 8.289062 -19.84375 9.96875 -19.84375 C 11.632812 -19.84375 13.007812 -19.707031 14.09375 -19.4375 C 15.1875 -19.164062 16.046875 -18.785156 16.671875 -18.296875 C 17.296875 -17.816406 17.726562 -17.238281 17.96875 -16.5625 C 18.207031 -15.882812 18.328125 -15.132812 18.328125 -14.3125 Z M 7.6875 -6.078125 C 7.6875 -5.710938 7.820312 -5.410156 8.09375 -5.171875 C 8.363281 -4.929688 8.988281 -4.8125 9.96875 -4.8125 C 10.9375 -4.8125 11.554688 -4.929688 11.828125 -5.171875 C 12.097656 -5.410156 12.234375 -5.710938 12.234375 -6.078125 L 12.234375 -13.34375 C 12.234375 -13.675781 12.097656 -13.960938 11.828125 -14.203125 C 11.554688 -14.453125 10.9375 -14.578125 9.96875 -14.578125 C 8.988281 -14.578125 8.363281 -14.453125 8.09375 -14.203125 C 7.820312 -13.960938 7.6875 -13.675781 7.6875 -13.34375 Z M 7.6875 -6.078125 "/></g></g></g><g fill="#0d4244" fill-opacity="0.302"><g transform="translate(382.321882, 85.953279)"><g><path d="M 6.890625 0 L 2.828125 0 C 2.492188 0 2.25 -0.0703125 2.09375 -0.21875 C 1.9375 -0.375 1.859375 -0.625 1.859375 -0.96875 L 1.859375 -18.46875 C 1.859375 -18.8125 1.9375 -19.054688 2.09375 -19.203125 C 2.25 -19.359375 2.492188 -19.4375 2.828125 -19.4375 L 5.640625 -19.4375 C 5.984375 -19.4375 6.273438 -19.378906 6.515625 -19.265625 C 6.765625 -19.160156 7.003906 -18.976562 7.234375 -18.71875 L 12.46875 -12.71875 L 12.46875 -18.46875 C 12.46875 -18.8125 12.546875 -19.054688 12.703125 -19.203125 C 12.859375 -19.359375 13.109375 -19.4375 13.453125 -19.4375 L 17.5 -19.4375 C 17.84375 -19.4375 18.085938 -19.359375 18.234375 -19.203125 C 18.390625 -19.054688 18.46875 -18.8125 18.46875 -18.46875 L 18.46875 -0.96875 C 18.46875 -0.625 18.390625 -0.375 18.234375 -0.21875 C 18.085938 -0.0703125 17.84375 0 17.5 0 L 13.453125 0 C 13.109375 0 12.859375 -0.0703125 12.703125 -0.21875 C 12.546875 -0.375 12.46875 -0.625 12.46875 -0.96875 L 12.46875 -4.296875 L 7.859375 -9.875 L 7.859375 -0.96875 C 7.859375 -0.625 7.78125 -0.375 7.625 -0.21875 C 7.46875 -0.0703125 7.222656 0 6.890625 0 Z M 6.890625 0 "/></g></g></g><g fill="#0d4244" fill-opacity="0.502"><g transform="translate(137.169824, 84.759798)"><g><path d="M 14.796875 0 L 8.203125 0 C 5.953125 0 4.28125 -0.445312 3.1875 -1.34375 C 2.101562 -2.25 1.5625 -3.640625 1.5625 -5.515625 L 1.5625 -13.90625 C 1.5625 -15.78125 2.101562 -17.171875 3.1875 -18.078125 C 4.28125 -18.984375 5.953125 -19.4375 8.203125 -19.4375 L 14.796875 -19.4375 C 15.140625 -19.4375 15.382812 -19.359375 15.53125 -19.203125 C 15.6875 -19.054688 15.765625 -18.8125 15.765625 -18.46875 L 15.765625 -15.203125 C 15.765625 -14.859375 15.6875 -14.609375 15.53125 -14.453125 C 15.382812 -14.304688 15.140625 -14.234375 14.796875 -14.234375 L 9.375 -14.234375 C 8.8125 -14.234375 8.394531 -14.117188 8.125 -13.890625 C 7.851562 -13.660156 7.71875 -13.320312 7.71875 -12.875 L 7.71875 -6.453125 C 7.71875 -6.003906 7.851562 -5.675781 8.125 -5.46875 C 8.394531 -5.257812 8.8125 -5.15625 9.375 -5.15625 L 14.796875 -5.15625 C 15.140625 -5.15625 15.382812 -5.078125 15.53125 -4.921875 C 15.6875 -4.773438 15.765625 -4.53125 15.765625 -4.1875 L 15.765625 -0.96875 C 15.765625 -0.625 15.6875 -0.375 15.53125 -0.21875 C 15.382812 -0.0703125 15.140625 0 14.796875 0 Z M 14.796875 0 "/></g></g></g><g fill="#0d4244" fill-opacity="0.502"><g transform="translate(155.856936, 84.759798)"><g><path d="M 18.328125 -5.109375 C 18.328125 -4.273438 18.207031 -3.519531 17.96875 -2.84375 C 17.726562 -2.175781 17.296875 -1.601562 16.671875 -1.125 C 16.046875 -0.644531 15.1875 -0.269531 14.09375 0 C 13.007812 0.269531 11.632812 0.40625 9.96875 0.40625 C 8.289062 0.40625 6.898438 0.269531 5.796875 0 C 4.703125 -0.269531 3.84375 -0.644531 3.21875 -1.125 C 2.601562 -1.601562 2.171875 -2.175781 1.921875 -2.84375 C 1.679688 -3.519531 1.5625 -4.273438 1.5625 -5.109375 L 1.5625 -14.3125 C 1.5625 -15.132812 1.679688 -15.882812 1.921875 -16.5625 C 2.171875 -17.238281 2.601562 -17.816406 3.21875 -18.296875 C 3.84375 -18.785156 4.703125 -19.164062 5.796875 -19.4375 C 6.898438 -19.707031 8.289062 -19.84375 9.96875 -19.84375 C 11.632812 -19.84375 13.007812 -19.707031 14.09375 -19.4375 C 15.1875 -19.164062 16.046875 -18.785156 16.671875 -18.296875 C 17.296875 -17.816406 17.726562 -17.238281 17.96875 -16.5625 C 18.207031 -15.882812 18.328125 -15.132812 18.328125 -14.3125 Z M 7.6875 -6.078125 C 7.6875 -5.710938 7.820312 -5.410156 8.09375 -5.171875 C 8.363281 -4.929688 8.988281 -4.8125 9.96875 -4.8125 C 10.9375 -4.8125 11.554688 -4.929688 11.828125 -5.171875 C 12.097656 -5.410156 12.234375 -5.710938 12.234375 -6.078125 L 12.234375 -13.34375 C 12.234375 -13.675781 12.097656 -13.960938 11.828125 -14.203125 C 11.554688 -14.453125 10.9375 -14.578125 9.96875 -14.578125 C 8.988281 -14.578125 8.363281 -14.453125 8.09375 -14.203125 C 7.820312 -13.960938 7.6875 -13.675781 7.6875 -13.34375 Z M 7.6875 -6.078125 "/></g></g></g><g fill="#0d4244" fill-opacity="0.502"><g transform="translate(177.487529, 84.759798)"><g><path d="M 6.890625 0 L 2.828125 0 C 2.492188 0 2.25 -0.0703125 2.09375 -0.21875 C 1.9375 -0.375 1.859375 -0.625 1.859375 -0.96875 L 1.859375 -18.46875 C 1.859375 -18.8125 1.9375 -19.054688 2.09375 -19.203125 C 2.25 -19.359375 2.492188 -19.4375 2.828125 -19.4375 L 5.640625 -19.4375 C 5.984375 -19.4375 6.273438 -19.378906 6.515625 -19.265625 C 6.765625 -19.160156 7.003906 -18.976562 7.234375 -18.71875 L 12.46875 -12.71875 L 12.46875 -18.46875 C 12.46875 -18.8125 12.546875 -19.054688 12.703125 -19.203125 C 12.859375 -19.359375 13.109375 -19.4375 13.453125 -19.4375 L 17.5 -19.4375 C 17.84375 -19.4375 18.085938 -19.359375 18.234375 -19.203125 C 18.390625 -19.054688 18.46875 -18.8125 18.46875 -18.46875 L 18.46875 -0.96875 C 18.46875 -0.625 18.390625 -0.375 18.234375 -0.21875 C 18.085938 -0.0703125 17.84375 0 17.5 0 L 13.453125 0 C 13.109375 0 12.859375 -0.0703125 12.703125 -0.21875 C 12.546875 -0.375 12.46875 -0.625 12.46875 -0.96875 L 12.46875 -4.296875 L 7.859375 -9.875 L 7.859375 -0.96875 C 7.859375 -0.625 7.78125 -0.375 7.625 -0.21875 C 7.46875 -0.0703125 7.222656 0 6.890625 0 Z M 6.890625 0 "/></g></g></g><g fill="#0d4244" fill-opacity="0.502"><g transform="translate(199.550193, 84.759798)"><g><path d="M 7.015625 0 L 2.828125 0 C 2.492188 0 2.25 -0.0703125 2.09375 -0.21875 C 1.9375 -0.375 1.859375 -0.625 1.859375 -0.96875 L 1.859375 -18.46875 C 1.859375 -18.8125 1.9375 -19.054688 2.09375 -19.203125 C 2.25 -19.359375 2.492188 -19.4375 2.828125 -19.4375 L 14.875 -19.4375 C 15.21875 -19.4375 15.460938 -19.359375 15.609375 -19.203125 C 15.765625 -19.054688 15.84375 -18.8125 15.84375 -18.46875 L 15.84375 -15.25 C 15.84375 -14.90625 15.765625 -14.65625 15.609375 -14.5 C 15.460938 -14.351562 15.21875 -14.28125 14.875 -14.28125 L 7.984375 -14.28125 L 7.984375 -11.46875 L 12.6875 -11.46875 C 13.03125 -11.46875 13.273438 -11.390625 13.421875 -11.234375 C 13.578125 -11.085938 13.65625 -10.84375 13.65625 -10.5 L 13.65625 -7.265625 C 13.65625 -6.921875 13.578125 -6.671875 13.421875 -6.515625 C 13.273438 -6.367188 13.03125 -6.296875 12.6875 -6.296875 L 7.984375 -6.296875 L 7.984375 -0.96875 C 7.984375 -0.625 7.90625 -0.375 7.75 -0.21875 C 7.601562 -0.0703125 7.359375 0 7.015625 0 Z M 7.015625 0 "/></g></g></g><g fill="#0d4244" fill-opacity="0.502"><g transform="translate(217.967264, 84.759798)"><g><path d="M 2.40625 0 C 2.0625 0 1.8125 -0.0703125 1.65625 -0.21875 C 1.507812 -0.375 1.4375 -0.625 1.4375 -0.96875 L 1.4375 -4.1875 C 1.4375 -4.53125 1.507812 -4.773438 1.65625 -4.921875 C 1.8125 -5.078125 2.0625 -5.15625 2.40625 -5.15625 L 5.078125 -5.15625 L 5.078125 -14.234375 L 2.40625 -14.234375 C 2.0625 -14.234375 1.8125 -14.304688 1.65625 -14.453125 C 1.507812 -14.609375 1.4375 -14.859375 1.4375 -15.203125 L 1.4375 -18.46875 C 1.4375 -18.8125 1.507812 -19.054688 1.65625 -19.203125 C 1.8125 -19.359375 2.0625 -19.4375 2.40625 -19.4375 L 13.90625 -19.4375 C 14.25 -19.4375 14.492188 -19.359375 14.640625 -19.203125 C 14.796875 -19.054688 14.875 -18.8125 14.875 -18.46875 L 14.875 -15.203125 C 14.875 -14.859375 14.796875 -14.609375 14.640625 -14.453125 C 14.492188 -14.304688 14.25 -14.234375 13.90625 -14.234375 L 11.28125 -14.234375 L 11.28125 -5.15625 L 13.90625 -5.15625 C 14.25 -5.15625 14.492188 -5.078125 14.640625 -4.921875 C 14.796875 -4.773438 14.875 -4.53125 14.875 -4.1875 L 14.875 -0.96875 C 14.875 -0.625 14.796875 -0.375 14.640625 -0.21875 C 14.492188 -0.0703125 14.25 0 13.90625 0 Z M 2.40625 0 "/></g></g></g><g fill="#0d4244" fill-opacity="0.502"><g transform="translate(236.033276, 84.759798)"><g><path d="M 16.71875 0 L 8.203125 0 C 5.953125 0 4.28125 -0.445312 3.1875 -1.34375 C 2.101562 -2.25 1.5625 -3.640625 1.5625 -5.515625 L 1.5625 -13.9375 C 1.5625 -15.800781 2.101562 -17.179688 3.1875 -18.078125 C 4.28125 -18.984375 5.953125 -19.4375 8.203125 -19.4375 L 14.953125 -19.4375 C 15.296875 -19.4375 15.546875 -19.359375 15.703125 -19.203125 C 15.859375 -19.054688 15.9375 -18.8125 15.9375 -18.46875 L 15.9375 -15.203125 C 15.9375 -14.859375 15.859375 -14.609375 15.703125 -14.453125 C 15.546875 -14.304688 15.296875 -14.234375 14.953125 -14.234375 L 9.34375 -14.234375 C 8.78125 -14.234375 8.363281 -14.117188 8.09375 -13.890625 C 7.820312 -13.660156 7.6875 -13.320312 7.6875 -12.875 L 7.6875 -6.421875 C 7.6875 -5.972656 7.789062 -5.640625 8 -5.421875 C 8.207031 -5.210938 8.519531 -5.109375 8.9375 -5.109375 L 11.5625 -5.109375 L 11.5625 -9.3125 C 11.5625 -9.65625 11.632812 -9.898438 11.78125 -10.046875 C 11.9375 -10.203125 12.1875 -10.28125 12.53125 -10.28125 L 16.71875 -10.28125 C 17.050781 -10.28125 17.296875 -10.203125 17.453125 -10.046875 C 17.609375 -9.898438 17.6875 -9.65625 17.6875 -9.3125 L 17.6875 -0.96875 C 17.6875 -0.625 17.609375 -0.375 17.453125 -0.21875 C 17.296875 -0.0703125 17.050781 0 16.71875 0 Z M 16.71875 0 "/></g></g></g><g fill="#0d4244" fill-opacity="0.502"><g transform="translate(256.880738, 84.759798)"><g><path d="M 18.40625 -5.109375 C 18.40625 -4.273438 18.285156 -3.519531 18.046875 -2.84375 C 17.804688 -2.175781 17.375 -1.601562 16.75 -1.125 C 16.132812 -0.644531 15.285156 -0.269531 14.203125 0 C 13.117188 0.269531 11.742188 0.40625 10.078125 0.40625 C 8.398438 0.40625 7.019531 0.269531 5.9375 0 C 4.851562 -0.269531 4 -0.644531 3.375 -1.125 C 2.757812 -1.601562 2.332031 -2.175781 2.09375 -2.84375 C 1.851562 -3.519531 1.734375 -4.273438 1.734375 -5.109375 L 1.734375 -18.46875 C 1.734375 -18.8125 1.804688 -19.054688 1.953125 -19.203125 C 2.109375 -19.359375 2.359375 -19.4375 2.703125 -19.4375 L 6.9375 -19.4375 C 7.28125 -19.4375 7.523438 -19.359375 7.671875 -19.203125 C 7.828125 -19.054688 7.90625 -18.8125 7.90625 -18.46875 L 7.90625 -6.15625 C 7.90625 -5.789062 8.039062 -5.488281 8.3125 -5.25 C 8.582031 -5.007812 9.1875 -4.890625 10.125 -4.890625 C 11.082031 -4.890625 11.691406 -5.007812 11.953125 -5.25 C 12.222656 -5.488281 12.359375 -5.789062 12.359375 -6.15625 L 12.359375 -18.46875 C 12.359375 -18.8125 12.4375 -19.054688 12.59375 -19.203125 C 12.75 -19.359375 13 -19.4375 13.34375 -19.4375 L 17.4375 -19.4375 C 17.78125 -19.4375 18.023438 -19.359375 18.171875 -19.203125 C 18.328125 -19.054688 18.40625 -18.8125 18.40625 -18.46875 Z M 18.40625 -5.109375 "/></g></g></g><g fill="#0d4244" fill-opacity="0.502"><g transform="translate(278.754374, 84.759798)"><g><path d="M 7.96875 -14.578125 L 7.96875 -11.125 L 9.984375 -11.125 C 10.453125 -11.125 10.765625 -11.242188 10.921875 -11.484375 C 11.085938 -11.734375 11.171875 -12.035156 11.171875 -12.390625 L 11.171875 -13.3125 C 11.171875 -13.664062 11.085938 -13.960938 10.921875 -14.203125 C 10.765625 -14.453125 10.453125 -14.578125 9.984375 -14.578125 Z M 7 0 L 2.828125 0 C 2.492188 0 2.25 -0.0703125 2.09375 -0.21875 C 1.9375 -0.375 1.859375 -0.625 1.859375 -0.96875 L 1.859375 -18.46875 C 1.859375 -18.8125 1.9375 -19.054688 2.09375 -19.203125 C 2.25 -19.359375 2.492188 -19.4375 2.828125 -19.4375 L 11.828125 -19.4375 C 13.835938 -19.4375 15.222656 -19.015625 15.984375 -18.171875 C 16.753906 -17.335938 17.140625 -16.257812 17.140625 -14.9375 L 17.140625 -13.6875 C 17.140625 -12.9375 17.023438 -12.296875 16.796875 -11.765625 C 16.578125 -11.234375 16.191406 -10.847656 15.640625 -10.609375 C 16.609375 -10.503906 17.394531 -10.109375 18 -9.421875 C 18.601562 -8.734375 18.90625 -7.828125 18.90625 -6.703125 L 18.90625 -0.96875 C 18.90625 -0.625 18.828125 -0.375 18.671875 -0.21875 C 18.515625 -0.0703125 18.265625 0 17.921875 0 L 13.75 0 C 13.40625 0 13.15625 -0.0703125 13 -0.21875 C 12.84375 -0.375 12.765625 -0.625 12.765625 -0.96875 L 12.765625 -5.109375 C 12.765625 -5.503906 12.6875 -5.796875 12.53125 -5.984375 C 12.382812 -6.171875 12.125 -6.265625 11.75 -6.265625 L 7.96875 -6.265625 L 7.96875 -0.96875 C 7.96875 -0.625 7.890625 -0.375 7.734375 -0.21875 C 7.578125 -0.0703125 7.332031 0 7 0 Z M 7 0 "/></g></g></g><g fill="#0d4244" fill-opacity="0.502"><g transform="translate(300.547, 84.759798)"><g><path d="M 8.90625 -13.765625 L 7.640625 -9.671875 L 11.875 -9.671875 L 10.609375 -13.765625 C 10.535156 -13.929688 10.457031 -14.050781 10.375 -14.125 C 10.300781 -14.195312 10.207031 -14.234375 10.09375 -14.234375 L 9.421875 -14.234375 C 9.316406 -14.234375 9.222656 -14.195312 9.140625 -14.125 C 9.054688 -14.050781 8.976562 -13.929688 8.90625 -13.765625 Z M 7.375 -0.96875 C 7.375 -0.625 7.296875 -0.375 7.140625 -0.21875 C 6.984375 -0.0703125 6.738281 0 6.40625 0 L 2.4375 0 C 2.09375 0 1.84375 -0.0703125 1.6875 -0.21875 C 1.53125 -0.375 1.453125 -0.625 1.453125 -0.96875 L 1.453125 -8.09375 C 1.453125 -8.632812 1.535156 -9.253906 1.703125 -9.953125 C 1.878906 -10.660156 2.148438 -11.484375 2.515625 -12.421875 L 4.859375 -18.546875 C 4.960938 -18.859375 5.128906 -19.082031 5.359375 -19.21875 C 5.585938 -19.363281 5.878906 -19.4375 6.234375 -19.4375 L 13.5 -19.4375 C 13.84375 -19.4375 14.125 -19.363281 14.34375 -19.21875 C 14.570312 -19.082031 14.738281 -18.859375 14.84375 -18.546875 L 17.203125 -12.421875 C 17.554688 -11.484375 17.816406 -10.660156 17.984375 -9.953125 C 18.160156 -9.253906 18.25 -8.632812 18.25 -8.09375 L 18.25 -0.96875 C 18.25 -0.625 18.171875 -0.375 18.015625 -0.21875 C 17.867188 -0.0703125 17.625 0 17.28125 0 L 13.203125 0 C 12.835938 0 12.570312 -0.0703125 12.40625 -0.21875 C 12.238281 -0.375 12.15625 -0.625 12.15625 -0.96875 L 12.15625 -4.75 L 7.375 -4.75 Z M 7.375 -0.96875 "/></g></g></g><g fill="#0d4244" fill-opacity="0.502"><g transform="translate(321.988567, 84.759798)"><g><path d="M 11.046875 0 L 6.671875 0 C 6.328125 0 6.078125 -0.0703125 5.921875 -0.21875 C 5.773438 -0.375 5.703125 -0.625 5.703125 -0.96875 L 5.703125 -14.234375 L 1.734375 -14.234375 C 1.390625 -14.234375 1.140625 -14.304688 0.984375 -14.453125 C 0.828125 -14.609375 0.75 -14.859375 0.75 -15.203125 L 0.75 -18.46875 C 0.75 -18.8125 0.828125 -19.054688 0.984375 -19.203125 C 1.140625 -19.359375 1.390625 -19.4375 1.734375 -19.4375 L 15.984375 -19.4375 C 16.328125 -19.4375 16.570312 -19.359375 16.71875 -19.203125 C 16.875 -19.054688 16.953125 -18.8125 16.953125 -18.46875 L 16.953125 -15.203125 C 16.953125 -14.859375 16.875 -14.609375 16.71875 -14.453125 C 16.570312 -14.304688 16.328125 -14.234375 15.984375 -14.234375 L 12.015625 -14.234375 L 12.015625 -0.96875 C 12.015625 -0.625 11.9375 -0.375 11.78125 -0.21875 C 11.632812 -0.0703125 11.390625 0 11.046875 0 Z M 11.046875 0 "/></g></g></g><g fill="#0d4244" fill-opacity="0.502"><g transform="translate(341.431799, 84.759798)"><g><path d="M 2.40625 0 C 2.0625 0 1.8125 -0.0703125 1.65625 -0.21875 C 1.507812 -0.375 1.4375 -0.625 1.4375 -0.96875 L 1.4375 -4.1875 C 1.4375 -4.53125 1.507812 -4.773438 1.65625 -4.921875 C 1.8125 -5.078125 2.0625 -5.15625 2.40625 -5.15625 L 5.078125 -5.15625 L 5.078125 -14.234375 L 2.40625 -14.234375 C 2.0625 -14.234375 1.8125 -14.304688 1.65625 -14.453125 C 1.507812 -14.609375 1.4375 -14.859375 1.4375 -15.203125 L 1.4375 -18.46875 C 1.4375 -18.8125 1.507812 -19.054688 1.65625 -19.203125 C 1.8125 -19.359375 2.0625 -19.4375 2.40625 -19.4375 L 13.90625 -19.4375 C 14.25 -19.4375 14.492188 -19.359375 14.640625 -19.203125 C 14.796875 -19.054688 14.875 -18.8125 14.875 -18.46875 L 14.875 -15.203125 C 14.875 -14.859375 14.796875 -14.609375 14.640625 -14.453125 C 14.492188 -14.304688 14.25 -14.234375 13.90625 -14.234375 L 11.28125 -14.234375 L 11.28125 -5.15625 L 13.90625 -5.15625 C 14.25 -5.15625 14.492188 -5.078125 14.640625 -4.921875 C 14.796875 -4.773438 14.875 -4.53125 14.875 -4.1875 L 14.875 -0.96875 C 14.875 -0.625 14.796875 -0.375 14.640625 -0.21875 C 14.492188 -0.0703125 14.25 0 13.90625 0 Z M 2.40625 0 "/></g></g></g><g fill="#0d4244" fill-opacity="0.502"><g transform="translate(359.497816, 84.759798)"><g><path d="M 18.328125 -5.109375 C 18.328125 -4.273438 18.207031 -3.519531 17.96875 -2.84375 C 17.726562 -2.175781 17.296875 -1.601562 16.671875 -1.125 C 16.046875 -0.644531 15.1875 -0.269531 14.09375 0 C 13.007812 0.269531 11.632812 0.40625 9.96875 0.40625 C 8.289062 0.40625 6.898438 0.269531 5.796875 0 C 4.703125 -0.269531 3.84375 -0.644531 3.21875 -1.125 C 2.601562 -1.601562 2.171875 -2.175781 1.921875 -2.84375 C 1.679688 -3.519531 1.5625 -4.273438 1.5625 -5.109375 L 1.5625 -14.3125 C 1.5625 -15.132812 1.679688 -15.882812 1.921875 -16.5625 C 2.171875 -17.238281 2.601562 -17.816406 3.21875 -18.296875 C 3.84375 -18.785156 4.703125 -19.164062 5.796875 -19.4375 C 6.898438 -19.707031 8.289062 -19.84375 9.96875 -19.84375 C 11.632812 -19.84375 13.007812 -19.707031 14.09375 -19.4375 C 15.1875 -19.164062 16.046875 -18.785156 16.671875 -18.296875 C 17.296875 -17.816406 17.726562 -17.238281 17.96875 -16.5625 C 18.207031 -15.882812 18.328125 -15.132812 18.328125 -14.3125 Z M 7.6875 -6.078125 C 7.6875 -5.710938 7.820312 -5.410156 8.09375 -5.171875 C 8.363281 -4.929688 8.988281 -4.8125 9.96875 -4.8125 C 10.9375 -4.8125 11.554688 -4.929688 11.828125 -5.171875 C 12.097656 -5.410156 12.234375 -5.710938 12.234375 -6.078125 L 12.234375 -13.34375 C 12.234375 -13.675781 12.097656 -13.960938 11.828125 -14.203125 C 11.554688 -14.453125 10.9375 -14.578125 9.96875 -14.578125 C 8.988281 -14.578125 8.363281 -14.453125 8.09375 -14.203125 C 7.820312 -13.960938 7.6875 -13.675781 7.6875 -13.34375 Z M 7.6875 -6.078125 "/></g></g></g><g fill="#0d4244" fill-opacity="0.502"><g transform="translate(381.1284, 84.759798)"><g><path d="M 6.890625 0 L 2.828125 0 C 2.492188 0 2.25 -0.0703125 2.09375 -0.21875 C 1.9375 -0.375 1.859375 -0.625 1.859375 -0.96875 L 1.859375 -18.46875 C 1.859375 -18.8125 1.9375 -19.054688 2.09375 -19.203125 C 2.25 -19.359375 2.492188 -19.4375 2.828125 -19.4375 L 5.640625 -19.4375 C 5.984375 -19.4375 6.273438 -19.378906 6.515625 -19.265625 C 6.765625 -19.160156 7.003906 -18.976562 7.234375 -18.71875 L 12.46875 -12.71875 L 12.46875 -18.46875 C 12.46875 -18.8125 12.546875 -19.054688 12.703125 -19.203125 C 12.859375 -19.359375 13.109375 -19.4375 13.453125 -19.4375 L 17.5 -19.4375 C 17.84375 -19.4375 18.085938 -19.359375 18.234375 -19.203125 C 18.390625 -19.054688 18.46875 -18.8125 18.46875 -18.46875 L 18.46875 -0.96875 C 18.46875 -0.625 18.390625 -0.375 18.234375 -0.21875 C 18.085938 -0.0703125 17.84375 0 17.5 0 L 13.453125 0 C 13.109375 0 12.859375 -0.0703125 12.703125 -0.21875 C 12.546875 -0.375 12.46875 -0.625 12.46875 -0.96875 L 12.46875 -4.296875 L 7.859375 -9.875 L 7.859375 -0.96875 C 7.859375 -0.625 7.78125 -0.375 7.625 -0.21875 C 7.46875 -0.0703125 7.222656 0 6.890625 0 Z M 6.890625 0 "/></g></g></g><g fill="#ffffff" fill-opacity="1"><g transform="translate(135.976345, 83.566316)"><g><path d="M 14.796875 0 L 8.203125 0 C 5.953125 0 4.28125 -0.445312 3.1875 -1.34375 C 2.101562 -2.25 1.5625 -3.640625 1.5625 -5.515625 L 1.5625 -13.90625 C 1.5625 -15.78125 2.101562 -17.171875 3.1875 -18.078125 C 4.28125 -18.984375 5.953125 -19.4375 8.203125 -19.4375 L 14.796875 -19.4375 C 15.140625 -19.4375 15.382812 -19.359375 15.53125 -19.203125 C 15.6875 -19.054688 15.765625 -18.8125 15.765625 -18.46875 L 15.765625 -15.203125 C 15.765625 -14.859375 15.6875 -14.609375 15.53125 -14.453125 C 15.382812 -14.304688 15.140625 -14.234375 14.796875 -14.234375 L 9.375 -14.234375 C 8.8125 -14.234375 8.394531 -14.117188 8.125 -13.890625 C 7.851562 -13.660156 7.71875 -13.320312 7.71875 -12.875 L 7.71875 -6.453125 C 7.71875 -6.003906 7.851562 -5.675781 8.125 -5.46875 C 8.394531 -5.257812 8.8125 -5.15625 9.375 -5.15625 L 14.796875 -5.15625 C 15.140625 -5.15625 15.382812 -5.078125 15.53125 -4.921875 C 15.6875 -4.773438 15.765625 -4.53125 15.765625 -4.1875 L 15.765625 -0.96875 C 15.765625 -0.625 15.6875 -0.375 15.53125 -0.21875 C 15.382812 -0.0703125 15.140625 0 14.796875 0 Z M 14.796875 0 "/></g></g></g><g fill="#ffffff" fill-opacity="1"><g transform="translate(154.663457, 83.566316)"><g><path d="M 18.328125 -5.109375 C 18.328125 -4.273438 18.207031 -3.519531 17.96875 -2.84375 C 17.726562 -2.175781 17.296875 -1.601562 16.671875 -1.125 C 16.046875 -0.644531 15.1875 -0.269531 14.09375 0 C 13.007812 0.269531 11.632812 0.40625 9.96875 0.40625 C 8.289062 0.40625 6.898438 0.269531 5.796875 0 C 4.703125 -0.269531 3.84375 -0.644531 3.21875 -1.125 C 2.601562 -1.601562 2.171875 -2.175781 1.921875 -2.84375 C 1.679688 -3.519531 1.5625 -4.273438 1.5625 -5.109375 L 1.5625 -14.3125 C 1.5625 -15.132812 1.679688 -15.882812 1.921875 -16.5625 C 2.171875 -17.238281 2.601562 -17.816406 3.21875 -18.296875 C 3.84375 -18.785156 4.703125 -19.164062 5.796875 -19.4375 C 6.898438 -19.707031 8.289062 -19.84375 9.96875 -19.84375 C 11.632812 -19.84375 13.007812 -19.707031 14.09375 -19.4375 C 15.1875 -19.164062 16.046875 -18.785156 16.671875 -18.296875 C 17.296875 -17.816406 17.726562 -17.238281 17.96875 -16.5625 C 18.207031 -15.882812 18.328125 -15.132812 18.328125 -14.3125 Z M 7.6875 -6.078125 C 7.6875 -5.710938 7.820312 -5.410156 8.09375 -5.171875 C 8.363281 -4.929688 8.988281 -4.8125 9.96875 -4.8125 C 10.9375 -4.8125 11.554688 -4.929688 11.828125 -5.171875 C 12.097656 -5.410156 12.234375 -5.710938 12.234375 -6.078125 L 12.234375 -13.34375 C 12.234375 -13.675781 12.097656 -13.960938 11.828125 -14.203125 C 11.554688 -14.453125 10.9375 -14.578125 9.96875 -14.578125 C 8.988281 -14.578125 8.363281 -14.453125 8.09375 -14.203125 C 7.820312 -13.960938 7.6875 -13.675781 7.6875 -13.34375 Z M 7.6875 -6.078125 "/></g></g></g><g fill="#ffffff" fill-opacity="1"><g transform="translate(176.29405, 83.566316)"><g><path d="M 6.890625 0 L 2.828125 0 C 2.492188 0 2.25 -0.0703125 2.09375 -0.21875 C 1.9375 -0.375 1.859375 -0.625 1.859375 -0.96875 L 1.859375 -18.46875 C 1.859375 -18.8125 1.9375 -19.054688 2.09375 -19.203125 C 2.25 -19.359375 2.492188 -19.4375 2.828125 -19.4375 L 5.640625 -19.4375 C 5.984375 -19.4375 6.273438 -19.378906 6.515625 -19.265625 C 6.765625 -19.160156 7.003906 -18.976562 7.234375 -18.71875 L 12.46875 -12.71875 L 12.46875 -18.46875 C 12.46875 -18.8125 12.546875 -19.054688 12.703125 -19.203125 C 12.859375 -19.359375 13.109375 -19.4375 13.453125 -19.4375 L 17.5 -19.4375 C 17.84375 -19.4375 18.085938 -19.359375 18.234375 -19.203125 C 18.390625 -19.054688 18.46875 -18.8125 18.46875 -18.46875 L 18.46875 -0.96875 C 18.46875 -0.625 18.390625 -0.375 18.234375 -0.21875 C 18.085938 -0.0703125 17.84375 0 17.5 0 L 13.453125 0 C 13.109375 0 12.859375 -0.0703125 12.703125 -0.21875 C 12.546875 -0.375 12.46875 -0.625 12.46875 -0.96875 L 12.46875 -4.296875 L 7.859375 -9.875 L 7.859375 -0.96875 C 7.859375 -0.625 7.78125 -0.375 7.625 -0.21875 C 7.46875 -0.0703125 7.222656 0 6.890625 0 Z M 6.890625 0 "/></g></g></g><g fill="#ffffff" fill-opacity="1"><g transform="translate(198.356714, 83.566316)"><g><path d="M 7.015625 0 L 2.828125 0 C 2.492188 0 2.25 -0.0703125 2.09375 -0.21875 C 1.9375 -0.375 1.859375 -0.625 1.859375 -0.96875 L 1.859375 -18.46875 C 1.859375 -18.8125 1.9375 -19.054688 2.09375 -19.203125 C 2.25 -19.359375 2.492188 -19.4375 2.828125 -19.4375 L 14.875 -19.4375 C 15.21875 -19.4375 15.460938 -19.359375 15.609375 -19.203125 C 15.765625 -19.054688 15.84375 -18.8125 15.84375 -18.46875 L 15.84375 -15.25 C 15.84375 -14.90625 15.765625 -14.65625 15.609375 -14.5 C 15.460938 -14.351562 15.21875 -14.28125 14.875 -14.28125 L 7.984375 -14.28125 L 7.984375 -11.46875 L 12.6875 -11.46875 C 13.03125 -11.46875 13.273438 -11.390625 13.421875 -11.234375 C 13.578125 -11.085938 13.65625 -10.84375 13.65625 -10.5 L 13.65625 -7.265625 C 13.65625 -6.921875 13.578125 -6.671875 13.421875 -6.515625 C 13.273438 -6.367188 13.03125 -6.296875 12.6875 -6.296875 L 7.984375 -6.296875 L 7.984375 -0.96875 C 7.984375 -0.625 7.90625 -0.375 7.75 -0.21875 C 7.601562 -0.0703125 7.359375 0 7.015625 0 Z M 7.015625 0 "/></g></g></g><g fill="#ffffff" fill-opacity="1"><g transform="translate(216.773785, 83.566316)"><g><path d="M 2.40625 0 C 2.0625 0 1.8125 -0.0703125 1.65625 -0.21875 C 1.507812 -0.375 1.4375 -0.625 1.4375 -0.96875 L 1.4375 -4.1875 C 1.4375 -4.53125 1.507812 -4.773438 1.65625 -4.921875 C 1.8125 -5.078125 2.0625 -5.15625 2.40625 -5.15625 L 5.078125 -5.15625 L 5.078125 -14.234375 L 2.40625 -14.234375 C 2.0625 -14.234375 1.8125 -14.304688 1.65625 -14.453125 C 1.507812 -14.609375 1.4375 -14.859375 1.4375 -15.203125 L 1.4375 -18.46875 C 1.4375 -18.8125 1.507812 -19.054688 1.65625 -19.203125 C 1.8125 -19.359375 2.0625 -19.4375 2.40625 -19.4375 L 13.90625 -19.4375 C 14.25 -19.4375 14.492188 -19.359375 14.640625 -19.203125 C 14.796875 -19.054688 14.875 -18.8125 14.875 -18.46875 L 14.875 -15.203125 C 14.875 -14.859375 14.796875 -14.609375 14.640625 -14.453125 C 14.492188 -14.304688 14.25 -14.234375 13.90625 -14.234375 L 11.28125 -14.234375 L 11.28125 -5.15625 L 13.90625 -5.15625 C 14.25 -5.15625 14.492188 -5.078125 14.640625 -4.921875 C 14.796875 -4.773438 14.875 -4.53125 14.875 -4.1875 L 14.875 -0.96875 C 14.875 -0.625 14.796875 -0.375 14.640625 -0.21875 C 14.492188 -0.0703125 14.25 0 13.90625 0 Z M 2.40625 0 "/></g></g></g><g fill="#ffffff" fill-opacity="1"><g transform="translate(234.839797, 83.566316)"><g><path d="M 16.71875 0 L 8.203125 0 C 5.953125 0 4.28125 -0.445312 3.1875 -1.34375 C 2.101562 -2.25 1.5625 -3.640625 1.5625 -5.515625 L 1.5625 -13.9375 C 1.5625 -15.800781 2.101562 -17.179688 3.1875 -18.078125 C 4.28125 -18.984375 5.953125 -19.4375 8.203125 -19.4375 L 14.953125 -19.4375 C 15.296875 -19.4375 15.546875 -19.359375 15.703125 -19.203125 C 15.859375 -19.054688 15.9375 -18.8125 15.9375 -18.46875 L 15.9375 -15.203125 C 15.9375 -14.859375 15.859375 -14.609375 15.703125 -14.453125 C 15.546875 -14.304688 15.296875 -14.234375 14.953125 -14.234375 L 9.34375 -14.234375 C 8.78125 -14.234375 8.363281 -14.117188 8.09375 -13.890625 C 7.820312 -13.660156 7.6875 -13.320312 7.6875 -12.875 L 7.6875 -6.421875 C 7.6875 -5.972656 7.789062 -5.640625 8 -5.421875 C 8.207031 -5.210938 8.519531 -5.109375 8.9375 -5.109375 L 11.5625 -5.109375 L 11.5625 -9.3125 C 11.5625 -9.65625 11.632812 -9.898438 11.78125 -10.046875 C 11.9375 -10.203125 12.1875 -10.28125 12.53125 -10.28125 L 16.71875 -10.28125 C 17.050781 -10.28125 17.296875 -10.203125 17.453125 -10.046875 C 17.609375 -9.898438 17.6875 -9.65625 17.6875 -9.3125 L 17.6875 -0.96875 C 17.6875 -0.625 17.609375 -0.375 17.453125 -0.21875 C 17.296875 -0.0703125 17.050781 0 16.71875 0 Z M 16.71875 0 "/></g></g></g><g fill="#ffffff" fill-opacity="1"><g transform="translate(255.687259, 83.566316)"><g><path d="M 18.40625 -5.109375 C 18.40625 -4.273438 18.285156 -3.519531 18.046875 -2.84375 C 17.804688 -2.175781 17.375 -1.601562 16.75 -1.125 C 16.132812 -0.644531 15.285156 -0.269531 14.203125 0 C 13.117188 0.269531 11.742188 0.40625 10.078125 0.40625 C 8.398438 0.40625 7.019531 0.269531 5.9375 0 C 4.851562 -0.269531 4 -0.644531 3.375 -1.125 C 2.757812 -1.601562 2.332031 -2.175781 2.09375 -2.84375 C 1.851562 -3.519531 1.734375 -4.273438 1.734375 -5.109375 L 1.734375 -18.46875 C 1.734375 -18.8125 1.804688 -19.054688 1.953125 -19.203125 C 2.109375 -19.359375 2.359375 -19.4375 2.703125 -19.4375 L 6.9375 -19.4375 C 7.28125 -19.4375 7.523438 -19.359375 7.671875 -19.203125 C 7.828125 -19.054688 7.90625 -18.8125 7.90625 -18.46875 L 7.90625 -6.15625 C 7.90625 -5.789062 8.039062 -5.488281 8.3125 -5.25 C 8.582031 -5.007812 9.1875 -4.890625 10.125 -4.890625 C 11.082031 -4.890625 11.691406 -5.007812 11.953125 -5.25 C 12.222656 -5.488281 12.359375 -5.789062 12.359375 -6.15625 L 12.359375 -18.46875 C 12.359375 -18.8125 12.4375 -19.054688 12.59375 -19.203125 C 12.75 -19.359375 13 -19.4375 13.34375 -19.4375 L 17.4375 -19.4375 C 17.78125 -19.4375 18.023438 -19.359375 18.171875 -19.203125 C 18.328125 -19.054688 18.40625 -18.8125 18.40625 -18.46875 Z M 18.40625 -5.109375 "/></g></g></g><g fill="#ffffff" fill-opacity="1"><g transform="translate(277.560894, 83.566316)"><g><path d="M 7.96875 -14.578125 L 7.96875 -11.125 L 9.984375 -11.125 C 10.453125 -11.125 10.765625 -11.242188 10.921875 -11.484375 C 11.085938 -11.734375 11.171875 -12.035156 11.171875 -12.390625 L 11.171875 -13.3125 C 11.171875 -13.664062 11.085938 -13.960938 10.921875 -14.203125 C 10.765625 -14.453125 10.453125 -14.578125 9.984375 -14.578125 Z M 7 0 L 2.828125 0 C 2.492188 0 2.25 -0.0703125 2.09375 -0.21875 C 1.9375 -0.375 1.859375 -0.625 1.859375 -0.96875 L 1.859375 -18.46875 C 1.859375 -18.8125 1.9375 -19.054688 2.09375 -19.203125 C 2.25 -19.359375 2.492188 -19.4375 2.828125 -19.4375 L 11.828125 -19.4375 C 13.835938 -19.4375 15.222656 -19.015625 15.984375 -18.171875 C 16.753906 -17.335938 17.140625 -16.257812 17.140625 -14.9375 L 17.140625 -13.6875 C 17.140625 -12.9375 17.023438 -12.296875 16.796875 -11.765625 C 16.578125 -11.234375 16.191406 -10.847656 15.640625 -10.609375 C 16.609375 -10.503906 17.394531 -10.109375 18 -9.421875 C 18.601562 -8.734375 18.90625 -7.828125 18.90625 -6.703125 L 18.90625 -0.96875 C 18.90625 -0.625 18.828125 -0.375 18.671875 -0.21875 C 18.515625 -0.0703125 18.265625 0 17.921875 0 L 13.75 0 C 13.40625 0 13.15625 -0.0703125 13 -0.21875 C 12.84375 -0.375 12.765625 -0.625 12.765625 -0.96875 L 12.765625 -5.109375 C 12.765625 -5.503906 12.6875 -5.796875 12.53125 -5.984375 C 12.382812 -6.171875 12.125 -6.265625 11.75 -6.265625 L 7.96875 -6.265625 L 7.96875 -0.96875 C 7.96875 -0.625 7.890625 -0.375 7.734375 -0.21875 C 7.578125 -0.0703125 7.332031 0 7 0 Z M 7 0 "/></g></g></g><g fill="#ffffff" fill-opacity="1"><g transform="translate(299.353521, 83.566316)"><g><path d="M 8.90625 -13.765625 L 7.640625 -9.671875 L 11.875 -9.671875 L 10.609375 -13.765625 C 10.535156 -13.929688 10.457031 -14.050781 10.375 -14.125 C 10.300781 -14.195312 10.207031 -14.234375 10.09375 -14.234375 L 9.421875 -14.234375 C 9.316406 -14.234375 9.222656 -14.195312 9.140625 -14.125 C 9.054688 -14.050781 8.976562 -13.929688 8.90625 -13.765625 Z M 7.375 -0.96875 C 7.375 -0.625 7.296875 -0.375 7.140625 -0.21875 C 6.984375 -0.0703125 6.738281 0 6.40625 0 L 2.4375 0 C 2.09375 0 1.84375 -0.0703125 1.6875 -0.21875 C 1.53125 -0.375 1.453125 -0.625 1.453125 -0.96875 L 1.453125 -8.09375 C 1.453125 -8.632812 1.535156 -9.253906 1.703125 -9.953125 C 1.878906 -10.660156 2.148438 -11.484375 2.515625 -12.421875 L 4.859375 -18.546875 C 4.960938 -18.859375 5.128906 -19.082031 5.359375 -19.21875 C 5.585938 -19.363281 5.878906 -19.4375 6.234375 -19.4375 L 13.5 -19.4375 C 13.84375 -19.4375 14.125 -19.363281 14.34375 -19.21875 C 14.570312 -19.082031 14.738281 -18.859375 14.84375 -18.546875 L 17.203125 -12.421875 C 17.554688 -11.484375 17.816406 -10.660156 17.984375 -9.953125 C 18.160156 -9.253906 18.25 -8.632812 18.25 -8.09375 L 18.25 -0.96875 C 18.25 -0.625 18.171875 -0.375 18.015625 -0.21875 C 17.867188 -0.0703125 17.625 0 17.28125 0 L 13.203125 0 C 12.835938 0 12.570312 -0.0703125 12.40625 -0.21875 C 12.238281 -0.375 12.15625 -0.625 12.15625 -0.96875 L 12.15625 -4.75 L 7.375 -4.75 Z M 7.375 -0.96875 "/></g></g></g><g fill="#ffffff" fill-opacity="1"><g transform="translate(320.795088, 83.566316)"><g><path d="M 11.046875 0 L 6.671875 0 C 6.328125 0 6.078125 -0.0703125 5.921875 -0.21875 C 5.773438 -0.375 5.703125 -0.625 5.703125 -0.96875 L 5.703125 -14.234375 L 1.734375 -14.234375 C 1.390625 -14.234375 1.140625 -14.304688 0.984375 -14.453125 C 0.828125 -14.609375 0.75 -14.859375 0.75 -15.203125 L 0.75 -18.46875 C 0.75 -18.8125 0.828125 -19.054688 0.984375 -19.203125 C 1.140625 -19.359375 1.390625 -19.4375 1.734375 -19.4375 L 15.984375 -19.4375 C 16.328125 -19.4375 16.570312 -19.359375 16.71875 -19.203125 C 16.875 -19.054688 16.953125 -18.8125 16.953125 -18.46875 L 16.953125 -15.203125 C 16.953125 -14.859375 16.875 -14.609375 16.71875 -14.453125 C 16.570312 -14.304688 16.328125 -14.234375 15.984375 -14.234375 L 12.015625 -14.234375 L 12.015625 -0.96875 C 12.015625 -0.625 11.9375 -0.375 11.78125 -0.21875 C 11.632812 -0.0703125 11.390625 0 11.046875 0 Z M 11.046875 0 "/></g></g></g><g fill="#ffffff" fill-opacity="1"><g transform="translate(340.238319, 83.566316)"><g><path d="M 2.40625 0 C 2.0625 0 1.8125 -0.0703125 1.65625 -0.21875 C 1.507812 -0.375 1.4375 -0.625 1.4375 -0.96875 L 1.4375 -4.1875 C 1.4375 -4.53125 1.507812 -4.773438 1.65625 -4.921875 C 1.8125 -5.078125 2.0625 -5.15625 2.40625 -5.15625 L 5.078125 -5.15625 L 5.078125 -14.234375 L 2.40625 -14.234375 C 2.0625 -14.234375 1.8125 -14.304688 1.65625 -14.453125 C 1.507812 -14.609375 1.4375 -14.859375 1.4375 -15.203125 L 1.4375 -18.46875 C 1.4375 -18.8125 1.507812 -19.054688 1.65625 -19.203125 C 1.8125 -19.359375 2.0625 -19.4375 2.40625 -19.4375 L 13.90625 -19.4375 C 14.25 -19.4375 14.492188 -19.359375 14.640625 -19.203125 C 14.796875 -19.054688 14.875 -18.8125 14.875 -18.46875 L 14.875 -15.203125 C 14.875 -14.859375 14.796875 -14.609375 14.640625 -14.453125 C 14.492188 -14.304688 14.25 -14.234375 13.90625 -14.234375 L 11.28125 -14.234375 L 11.28125 -5.15625 L 13.90625 -5.15625 C 14.25 -5.15625 14.492188 -5.078125 14.640625 -4.921875 C 14.796875 -4.773438 14.875 -4.53125 14.875 -4.1875 L 14.875 -0.96875 C 14.875 -0.625 14.796875 -0.375 14.640625 -0.21875 C 14.492188 -0.0703125 14.25 0 13.90625 0 Z M 2.40625 0 "/></g></g></g><g fill="#ffffff" fill-opacity="1"><g transform="translate(358.304337, 83.566316)"><g><path d="M 18.328125 -5.109375 C 18.328125 -4.273438 18.207031 -3.519531 17.96875 -2.84375 C 17.726562 -2.175781 17.296875 -1.601562 16.671875 -1.125 C 16.046875 -0.644531 15.1875 -0.269531 14.09375 0 C 13.007812 0.269531 11.632812 0.40625 9.96875 0.40625 C 8.289062 0.40625 6.898438 0.269531 5.796875 0 C 4.703125 -0.269531 3.84375 -0.644531 3.21875 -1.125 C 2.601562 -1.601562 2.171875 -2.175781 1.921875 -2.84375 C 1.679688 -3.519531 1.5625 -4.273438 1.5625 -5.109375 L 1.5625 -14.3125 C 1.5625 -15.132812 1.679688 -15.882812 1.921875 -16.5625 C 2.171875 -17.238281 2.601562 -17.816406 3.21875 -18.296875 C 3.84375 -18.785156 4.703125 -19.164062 5.796875 -19.4375 C 6.898438 -19.707031 8.289062 -19.84375 9.96875 -19.84375 C 11.632812 -19.84375 13.007812 -19.707031 14.09375 -19.4375 C 15.1875 -19.164062 16.046875 -18.785156 16.671875 -18.296875 C 17.296875 -17.816406 17.726562 -17.238281 17.96875 -16.5625 C 18.207031 -15.882812 18.328125 -15.132812 18.328125 -14.3125 Z M 7.6875 -6.078125 C 7.6875 -5.710938 7.820312 -5.410156 8.09375 -5.171875 C 8.363281 -4.929688 8.988281 -4.8125 9.96875 -4.8125 C 10.9375 -4.8125 11.554688 -4.929688 11.828125 -5.171875 C 12.097656 -5.410156 12.234375 -5.710938 12.234375 -6.078125 L 12.234375 -13.34375 C 12.234375 -13.675781 12.097656 -13.960938 11.828125 -14.203125 C 11.554688 -14.453125 10.9375 -14.578125 9.96875 -14.578125 C 8.988281 -14.578125 8.363281 -14.453125 8.09375 -14.203125 C 7.820312 -13.960938 7.6875 -13.675781 7.6875 -13.34375 Z M 7.6875 -6.078125 "/></g></g></g><g fill="#ffffff" fill-opacity="1"><g transform="translate(379.934921, 83.566316)"><g><path d="M 6.890625 0 L 2.828125 0 C 2.492188 0 2.25 -0.0703125 2.09375 -0.21875 C 1.9375 -0.375 1.859375 -0.625 1.859375 -0.96875 L 1.859375 -18.46875 C 1.859375 -18.8125 1.9375 -19.054688 2.09375 -19.203125 C 2.25 -19.359375 2.492188 -19.4375 2.828125 -19.4375 L 5.640625 -19.4375 C 5.984375 -19.4375 6.273438 -19.378906 6.515625 -19.265625 C 6.765625 -19.160156 7.003906 -18.976562 7.234375 -18.71875 L 12.46875 -12.71875 L 12.46875 -18.46875 C 12.46875 -18.8125 12.546875 -19.054688 12.703125 -19.203125 C 12.859375 -19.359375 13.109375 -19.4375 13.453125 -19.4375 L 17.5 -19.4375 C 17.84375 -19.4375 18.085938 -19.359375 18.234375 -19.203125 C 18.390625 -19.054688 18.46875 -18.8125 18.46875 -18.46875 L 18.46875 -0.96875 C 18.46875 -0.625 18.390625 -0.375 18.234375 -0.21875 C 18.085938 -0.0703125 17.84375 0 17.5 0 L 13.453125 0 C 13.109375 0 12.859375 -0.0703125 12.703125 -0.21875 C 12.546875 -0.375 12.46875 -0.625 12.46875 -0.96875 L 12.46875 -4.296875 L 7.859375 -9.875 L 7.859375 -0.96875 C 7.859375 -0.625 7.78125 -0.375 7.625 -0.21875 C 7.46875 -0.0703125 7.222656 0 6.890625 0 Z M 6.890625 0 "/></g></g></g></svg>