<?xml version="1.0" encoding="UTF-8"?>
<svg xmlns="http://www.w3.org/2000/svg" xmlns:xlink="http://www.w3.org/1999/xlink" width="300px" height="100px" viewBox="0 0 300 100" version="1.1">
<defs>
<clipPath id="clip1">
  <path d="M 15.554688 14.046875 L 297.964844 14.046875 L 297.964844 85.226562 L 15.554688 85.226562 Z M 15.554688 14.046875 "/>
</clipPath>
<clipPath id="clip2">
  <path d="M 51.144531 14.046875 L 262.375 14.046875 C 271.816406 14.046875 280.867188 17.796875 287.542969 24.46875 C 294.214844 31.144531 297.964844 40.199219 297.964844 49.636719 C 297.964844 59.074219 294.214844 68.128906 287.542969 74.800781 C 280.867188 81.476562 271.816406 85.226562 262.375 85.226562 L 51.144531 85.226562 C 41.707031 85.226562 32.652344 81.476562 25.976562 74.800781 C 19.300781 68.128906 15.554688 59.074219 15.554688 49.636719 C 15.554688 40.199219 19.300781 31.144531 25.976562 24.46875 C 32.652344 17.796875 41.707031 14.046875 51.144531 14.046875 Z M 51.144531 14.046875 "/>
</clipPath>
<clipPath id="clip3">
  <path d="M 8.988281 19.535156 L 62.488281 19.535156 L 62.488281 80.535156 L 8.988281 80.535156 Z M 8.988281 19.535156 "/>
</clipPath>
</defs>
<g id="surface1">
<g clip-path="url(#clip1)" clip-rule="nonzero">
<g clip-path="url(#clip2)" clip-rule="nonzero">
<path style=" stroke:none;fill-rule:nonzero;fill:rgb(36.078431%,88.235294%,90.196078%);fill-opacity:1;" d="M 15.554688 14.046875 L 297.964844 14.046875 L 297.964844 85.226562 L 15.554688 85.226562 Z M 15.554688 14.046875 "/>
</g>
</g>
<path style=" stroke:none;fill-rule:nonzero;fill:rgb(5.098039%,25.882353%,26.666667%);fill-opacity:0.301961;" d="M 92.914062 58.996094 L 85.144531 58.996094 C 84.851562 58.996094 84.640625 58.933594 84.507812 58.800781 C 84.375 58.667969 84.3125 58.457031 84.3125 58.164062 L 84.3125 43.207031 C 84.3125 42.914062 84.375 42.703125 84.507812 42.570312 C 84.640625 42.441406 84.851562 42.371094 85.144531 42.371094 L 92.914062 42.371094 C 94.835938 42.371094 96.265625 42.757812 97.195312 43.527344 C 98.132812 44.300781 98.601562 45.488281 98.601562 47.089844 L 98.601562 54.289062 C 98.601562 55.886719 98.132812 57.070312 97.195312 57.839844 C 96.265625 58.613281 94.835938 58.996094 92.914062 58.996094 Z M 89.550781 46.789062 L 89.550781 54.632812 L 92.300781 54.632812 C 92.667969 54.632812 92.9375 54.542969 93.113281 54.363281 C 93.292969 54.175781 93.382812 53.890625 93.382812 53.507812 L 93.382812 47.894531 C 93.382812 47.511719 93.292969 47.234375 93.113281 47.058594 C 92.9375 46.878906 92.667969 46.789062 92.300781 46.789062 Z M 89.550781 46.789062 "/>
<path style=" stroke:none;fill-rule:nonzero;fill:rgb(5.098039%,25.882353%,26.666667%);fill-opacity:0.301961;" d="M 103.464844 58.996094 C 103.171875 58.996094 102.957031 58.933594 102.828125 58.800781 C 102.695312 58.667969 102.628906 58.457031 102.628906 58.164062 L 102.628906 55.425781 C 102.628906 55.128906 102.695312 54.914062 102.828125 54.789062 C 102.957031 54.660156 103.171875 54.589844 103.464844 54.589844 L 105.753906 54.589844 L 105.753906 46.832031 L 103.464844 46.832031 C 103.171875 46.832031 102.957031 46.765625 102.828125 46.632812 C 102.695312 46.503906 102.628906 46.289062 102.628906 45.996094 L 102.628906 43.207031 C 102.628906 42.914062 102.695312 42.703125 102.828125 42.570312 C 102.957031 42.441406 103.171875 42.371094 103.464844 42.371094 L 113.296875 42.371094 C 113.589844 42.371094 113.800781 42.441406 113.933594 42.570312 C 114.0625 42.703125 114.128906 42.914062 114.128906 43.207031 L 114.128906 45.996094 C 114.128906 46.289062 114.0625 46.503906 113.933594 46.632812 C 113.800781 46.765625 113.589844 46.832031 113.296875 46.832031 L 111.058594 46.832031 L 111.058594 54.589844 L 113.296875 54.589844 C 113.589844 54.589844 113.800781 54.660156 113.933594 54.789062 C 114.0625 54.914062 114.128906 55.128906 114.128906 55.425781 L 114.128906 58.164062 C 114.128906 58.457031 114.0625 58.667969 113.933594 58.800781 C 113.800781 58.933594 113.589844 58.996094 113.296875 58.996094 Z M 103.464844 58.996094 "/>
<path style=" stroke:none;fill-rule:nonzero;fill:rgb(5.098039%,25.882353%,26.666667%);fill-opacity:0.301961;" d="M 126.152344 58.996094 L 118.859375 58.996094 C 118.570312 58.996094 118.355469 58.933594 118.226562 58.800781 C 118.09375 58.667969 118.027344 58.457031 118.027344 58.164062 L 118.027344 55.464844 C 118.027344 55.175781 118.09375 54.964844 118.226562 54.832031 C 118.355469 54.699219 118.570312 54.632812 118.859375 54.632812 L 125.070312 54.632812 C 125.269531 54.632812 125.417969 54.570312 125.515625 54.445312 C 125.621094 54.316406 125.671875 54.152344 125.671875 53.964844 C 125.671875 53.703125 125.621094 53.511719 125.515625 53.394531 C 125.417969 53.269531 125.269531 53.199219 125.070312 53.183594 L 121.601562 52.695312 C 120.523438 52.542969 119.65625 52.191406 119.007812 51.632812 C 118.351562 51.078125 118.027344 50.152344 118.027344 48.863281 L 118.027344 46.433594 C 118.027344 45.128906 118.449219 44.128906 119.296875 43.425781 C 120.144531 42.722656 121.3125 42.371094 122.808594 42.371094 L 129.265625 42.371094 C 129.558594 42.371094 129.769531 42.441406 129.902344 42.570312 C 130.03125 42.703125 130.101562 42.914062 130.101562 43.207031 L 130.101562 45.957031 C 130.101562 46.246094 130.03125 46.460938 129.902344 46.589844 C 129.769531 46.722656 129.558594 46.789062 129.265625 46.789062 L 123.890625 46.789062 C 123.6875 46.789062 123.53125 46.855469 123.421875 46.988281 C 123.320312 47.113281 123.265625 47.277344 123.265625 47.476562 C 123.265625 47.679688 123.320312 47.847656 123.421875 47.988281 C 123.53125 48.128906 123.6875 48.203125 123.890625 48.214844 L 127.328125 48.675781 C 128.40625 48.835938 129.273438 49.191406 129.933594 49.746094 C 130.601562 50.296875 130.933594 51.214844 130.933594 52.507812 L 130.933594 54.933594 C 130.933594 56.242188 130.507812 57.246094 129.652344 57.945312 C 128.796875 58.648438 127.632812 58.996094 126.152344 58.996094 Z M 126.152344 58.996094 "/>
<path style=" stroke:none;fill-rule:nonzero;fill:rgb(5.098039%,25.882353%,26.666667%);fill-opacity:0.301961;" d="M 145.976562 58.996094 L 140.351562 58.996094 C 138.425781 58.996094 137 58.613281 136.070312 57.839844 C 135.136719 57.070312 134.671875 55.886719 134.671875 54.289062 L 134.671875 47.113281 C 134.671875 45.507812 135.136719 44.316406 136.070312 43.539062 C 137 42.761719 138.425781 42.371094 140.351562 42.371094 L 145.976562 42.371094 C 146.265625 42.371094 146.476562 42.441406 146.609375 42.570312 C 146.742188 42.703125 146.808594 42.914062 146.808594 43.207031 L 146.808594 45.996094 C 146.808594 46.289062 146.742188 46.503906 146.609375 46.632812 C 146.476562 46.765625 146.265625 46.832031 145.976562 46.832031 L 141.339844 46.832031 C 140.859375 46.832031 140.507812 46.929688 140.277344 47.121094 C 140.046875 47.316406 139.933594 47.605469 139.933594 47.988281 L 139.933594 53.476562 C 139.933594 53.867188 140.046875 54.152344 140.277344 54.332031 C 140.507812 54.503906 140.859375 54.589844 141.339844 54.589844 L 145.976562 54.589844 C 146.265625 54.589844 146.476562 54.660156 146.609375 54.789062 C 146.742188 54.914062 146.808594 55.128906 146.808594 55.425781 L 146.808594 58.164062 C 146.808594 58.457031 146.742188 58.667969 146.609375 58.800781 C 146.476562 58.933594 146.265625 58.996094 145.976562 58.996094 Z M 145.976562 58.996094 "/>
<path style=" stroke:none;fill-rule:nonzero;fill:rgb(5.098039%,25.882353%,26.666667%);fill-opacity:0.301961;" d="M 164.976562 54.632812 C 164.976562 55.339844 164.871094 55.984375 164.664062 56.558594 C 164.457031 57.136719 164.082031 57.628906 163.550781 58.039062 C 163.019531 58.449219 162.292969 58.769531 161.363281 58.996094 C 160.429688 59.226562 159.25 59.339844 157.820312 59.339844 C 156.386719 59.339844 155.199219 59.226562 154.257812 58.996094 C 153.320312 58.769531 152.582031 58.449219 152.050781 58.039062 C 151.519531 57.628906 151.152344 57.136719 150.945312 56.558594 C 150.742188 55.984375 150.644531 55.339844 150.644531 54.632812 L 150.644531 46.769531 C 150.644531 46.058594 150.742188 45.417969 150.945312 44.839844 C 151.152344 44.257812 151.519531 43.761719 152.050781 43.351562 C 152.582031 42.933594 153.320312 42.613281 154.257812 42.382812 C 155.199219 42.148438 156.386719 42.027344 157.820312 42.027344 C 159.25 42.027344 160.429688 42.148438 161.363281 42.382812 C 162.292969 42.613281 163.019531 42.933594 163.550781 43.351562 C 164.082031 43.761719 164.457031 44.257812 164.664062 44.839844 C 164.871094 45.417969 164.976562 46.058594 164.976562 46.769531 Z M 155.882812 53.800781 C 155.882812 54.113281 155.996094 54.371094 156.226562 54.582031 C 156.457031 54.789062 156.988281 54.894531 157.820312 54.894531 C 158.644531 54.894531 159.175781 54.789062 159.402344 54.582031 C 159.636719 54.371094 159.757812 54.113281 159.757812 53.800781 L 159.757812 47.589844 C 159.757812 47.300781 159.636719 47.050781 159.402344 46.839844 C 159.175781 46.632812 158.644531 46.527344 157.820312 46.527344 C 156.988281 46.527344 156.457031 46.632812 156.226562 46.839844 C 155.996094 47.050781 155.882812 47.300781 155.882812 47.589844 Z M 155.882812 53.800781 "/>
<path style=" stroke:none;fill-rule:nonzero;fill:rgb(5.098039%,25.882353%,26.666667%);fill-opacity:0.301961;" d="M 174.597656 46.527344 L 174.597656 49.488281 L 176.328125 49.488281 C 176.730469 49.488281 176.996094 49.382812 177.128906 49.175781 C 177.269531 48.964844 177.339844 48.710938 177.339844 48.402344 L 177.339844 47.621094 C 177.339844 47.308594 177.269531 47.050781 177.128906 46.839844 C 176.996094 46.632812 176.730469 46.527344 176.328125 46.527344 Z M 173.765625 58.996094 L 170.214844 58.996094 C 169.921875 58.996094 169.707031 58.933594 169.578125 58.800781 C 169.445312 58.667969 169.378906 58.457031 169.378906 58.164062 L 169.378906 43.207031 C 169.378906 42.914062 169.445312 42.703125 169.578125 42.570312 C 169.707031 42.441406 169.921875 42.371094 170.214844 42.371094 L 177.902344 42.371094 C 179.621094 42.371094 180.808594 42.734375 181.464844 43.457031 C 182.113281 44.171875 182.441406 45.097656 182.441406 46.238281 L 182.441406 47.289062 C 182.441406 47.941406 182.34375 48.496094 182.152344 48.945312 C 181.964844 49.398438 181.628906 49.722656 181.152344 49.925781 C 181.984375 50.015625 182.65625 50.355469 183.171875 50.945312 C 183.683594 51.527344 183.941406 52.304688 183.941406 53.269531 L 183.941406 58.164062 C 183.941406 58.457031 183.875 58.667969 183.746094 58.800781 C 183.621094 58.933594 183.40625 58.996094 183.109375 58.996094 L 179.535156 58.996094 C 179.246094 58.996094 179.03125 58.933594 178.902344 58.800781 C 178.769531 58.667969 178.703125 58.457031 178.703125 58.164062 L 178.703125 54.632812 C 178.703125 54.292969 178.636719 54.042969 178.503906 53.882812 C 178.371094 53.722656 178.144531 53.644531 177.828125 53.644531 L 174.597656 53.644531 L 174.597656 58.164062 C 174.597656 58.457031 174.53125 58.667969 174.402344 58.800781 C 174.269531 58.933594 174.058594 58.996094 173.765625 58.996094 Z M 173.765625 58.996094 "/>
<path style=" stroke:none;fill-rule:nonzero;fill:rgb(5.098039%,25.882353%,26.666667%);fill-opacity:0.301961;" d="M 196.609375 58.996094 L 188.839844 58.996094 C 188.546875 58.996094 188.332031 58.933594 188.203125 58.800781 C 188.070312 58.667969 188.003906 58.457031 188.003906 58.164062 L 188.003906 43.207031 C 188.003906 42.914062 188.070312 42.703125 188.203125 42.570312 C 188.332031 42.441406 188.546875 42.371094 188.839844 42.371094 L 196.609375 42.371094 C 198.53125 42.371094 199.957031 42.757812 200.890625 43.527344 C 201.828125 44.300781 202.296875 45.488281 202.296875 47.089844 L 202.296875 54.289062 C 202.296875 55.886719 201.828125 57.070312 200.890625 57.839844 C 199.957031 58.613281 198.53125 58.996094 196.609375 58.996094 Z M 193.246094 46.789062 L 193.246094 54.632812 L 195.996094 54.632812 C 196.363281 54.632812 196.632812 54.542969 196.808594 54.363281 C 196.988281 54.175781 197.078125 53.890625 197.078125 53.507812 L 197.078125 47.894531 C 197.078125 47.511719 196.988281 47.234375 196.808594 47.058594 C 196.632812 46.878906 196.363281 46.789062 195.996094 46.789062 Z M 193.246094 46.789062 "/>
<path style=" stroke:none;fill-rule:nonzero;fill:rgb(5.098039%,25.882353%,26.666667%);fill-opacity:0.501961;" d="M 91.894531 57.976562 L 84.125 57.976562 C 83.832031 57.976562 83.617188 57.910156 83.488281 57.777344 C 83.355469 57.648438 83.289062 57.433594 83.289062 57.144531 L 83.289062 42.183594 C 83.289062 41.894531 83.355469 41.683594 83.488281 41.550781 C 83.617188 41.417969 83.832031 41.351562 84.125 41.351562 L 91.894531 41.351562 C 93.816406 41.351562 95.242188 41.738281 96.175781 42.507812 C 97.113281 43.277344 97.582031 44.464844 97.582031 46.070312 L 97.582031 53.269531 C 97.582031 54.867188 97.113281 56.050781 96.175781 56.820312 C 95.242188 57.589844 93.816406 57.976562 91.894531 57.976562 Z M 88.53125 45.769531 L 88.53125 53.613281 L 91.28125 53.613281 C 91.648438 53.613281 91.917969 53.523438 92.09375 53.339844 C 92.273438 53.152344 92.363281 52.871094 92.363281 52.488281 L 92.363281 46.871094 C 92.363281 46.492188 92.273438 46.214844 92.09375 46.039062 C 91.917969 45.859375 91.648438 45.769531 91.28125 45.769531 Z M 88.53125 45.769531 "/>
<path style=" stroke:none;fill-rule:nonzero;fill:rgb(5.098039%,25.882353%,26.666667%);fill-opacity:0.501961;" d="M 102.441406 57.976562 C 102.152344 57.976562 101.9375 57.910156 101.808594 57.777344 C 101.675781 57.648438 101.609375 57.433594 101.609375 57.144531 L 101.609375 54.402344 C 101.609375 54.105469 101.675781 53.894531 101.808594 53.769531 C 101.9375 53.636719 102.152344 53.570312 102.441406 53.570312 L 104.734375 53.570312 L 104.734375 45.808594 L 102.441406 45.808594 C 102.152344 45.808594 101.9375 45.746094 101.808594 45.613281 C 101.675781 45.480469 101.609375 45.269531 101.609375 44.976562 L 101.609375 42.183594 C 101.609375 41.894531 101.675781 41.683594 101.808594 41.550781 C 101.9375 41.417969 102.152344 41.351562 102.441406 41.351562 L 112.277344 41.351562 C 112.566406 41.351562 112.777344 41.417969 112.910156 41.550781 C 113.042969 41.683594 113.109375 41.894531 113.109375 42.183594 L 113.109375 44.976562 C 113.109375 45.269531 113.042969 45.480469 112.910156 45.613281 C 112.777344 45.746094 112.566406 45.808594 112.277344 45.808594 L 110.035156 45.808594 L 110.035156 53.570312 L 112.277344 53.570312 C 112.566406 53.570312 112.777344 53.636719 112.910156 53.769531 C 113.042969 53.894531 113.109375 54.105469 113.109375 54.402344 L 113.109375 57.144531 C 113.109375 57.433594 113.042969 57.648438 112.910156 57.777344 C 112.777344 57.910156 112.566406 57.976562 112.277344 57.976562 Z M 102.441406 57.976562 "/>
<path style=" stroke:none;fill-rule:nonzero;fill:rgb(5.098039%,25.882353%,26.666667%);fill-opacity:0.501961;" d="M 125.132812 57.976562 L 117.839844 57.976562 C 117.550781 57.976562 117.335938 57.910156 117.207031 57.777344 C 117.074219 57.648438 117.007812 57.433594 117.007812 57.144531 L 117.007812 54.445312 C 117.007812 54.152344 117.074219 53.941406 117.207031 53.808594 C 117.335938 53.679688 117.550781 53.613281 117.839844 53.613281 L 124.050781 53.613281 C 124.25 53.613281 124.398438 53.550781 124.496094 53.425781 C 124.601562 53.292969 124.652344 53.132812 124.652344 52.945312 C 124.652344 52.683594 124.601562 52.492188 124.496094 52.371094 C 124.398438 52.246094 124.25 52.179688 124.050781 52.164062 L 120.582031 51.675781 C 119.503906 51.523438 118.636719 51.167969 117.988281 50.613281 C 117.332031 50.058594 117.007812 49.132812 117.007812 47.839844 L 117.007812 45.414062 C 117.007812 44.109375 117.429688 43.105469 118.277344 42.402344 C 119.125 41.703125 120.292969 41.351562 121.789062 41.351562 L 128.246094 41.351562 C 128.539062 41.351562 128.75 41.417969 128.882812 41.550781 C 129.011719 41.683594 129.082031 41.894531 129.082031 42.183594 L 129.082031 44.933594 C 129.082031 45.226562 129.011719 45.441406 128.882812 45.570312 C 128.75 45.703125 128.539062 45.769531 128.246094 45.769531 L 122.871094 45.769531 C 122.667969 45.769531 122.511719 45.835938 122.402344 45.964844 C 122.300781 46.089844 122.246094 46.253906 122.246094 46.457031 C 122.246094 46.660156 122.300781 46.828125 122.402344 46.964844 C 122.511719 47.105469 122.667969 47.183594 122.871094 47.195312 L 126.308594 47.652344 C 127.386719 47.816406 128.253906 48.171875 128.914062 48.726562 C 129.582031 49.277344 129.914062 50.195312 129.914062 51.488281 L 129.914062 53.914062 C 129.914062 55.222656 129.488281 56.222656 128.632812 56.925781 C 127.777344 57.628906 126.613281 57.976562 125.132812 57.976562 Z M 125.132812 57.976562 "/>
<path style=" stroke:none;fill-rule:nonzero;fill:rgb(5.098039%,25.882353%,26.666667%);fill-opacity:0.501961;" d="M 144.957031 57.976562 L 139.332031 57.976562 C 137.40625 57.976562 135.980469 57.589844 135.050781 56.820312 C 134.117188 56.050781 133.652344 54.867188 133.652344 53.269531 L 133.652344 46.089844 C 133.652344 44.488281 134.117188 43.296875 135.050781 42.519531 C 135.980469 41.742188 137.40625 41.351562 139.332031 41.351562 L 144.957031 41.351562 C 145.246094 41.351562 145.457031 41.417969 145.589844 41.550781 C 145.722656 41.683594 145.789062 41.894531 145.789062 42.183594 L 145.789062 44.976562 C 145.789062 45.269531 145.722656 45.480469 145.589844 45.613281 C 145.457031 45.746094 145.246094 45.808594 144.957031 45.808594 L 140.320312 45.808594 C 139.839844 45.808594 139.488281 45.910156 139.257812 46.101562 C 139.027344 46.296875 138.914062 46.585938 138.914062 46.964844 L 138.914062 52.457031 C 138.914062 52.847656 139.027344 53.128906 139.257812 53.308594 C 139.488281 53.484375 139.839844 53.570312 140.320312 53.570312 L 144.957031 53.570312 C 145.246094 53.570312 145.457031 53.636719 145.589844 53.769531 C 145.722656 53.894531 145.789062 54.105469 145.789062 54.402344 L 145.789062 57.144531 C 145.789062 57.433594 145.722656 57.648438 145.589844 57.777344 C 145.457031 57.910156 145.246094 57.976562 144.957031 57.976562 Z M 144.957031 57.976562 "/>
<path style=" stroke:none;fill-rule:nonzero;fill:rgb(5.098039%,25.882353%,26.666667%);fill-opacity:0.501961;" d="M 163.957031 53.613281 C 163.957031 54.320312 163.851562 54.964844 163.644531 55.539062 C 163.4375 56.117188 163.0625 56.609375 162.53125 57.019531 C 162 57.429688 161.273438 57.746094 160.34375 57.976562 C 159.410156 58.207031 158.230469 58.320312 156.800781 58.320312 C 155.367188 58.320312 154.179688 58.207031 153.238281 57.976562 C 152.300781 57.746094 151.5625 57.429688 151.03125 57.019531 C 150.5 56.609375 150.132812 56.117188 149.925781 55.539062 C 149.722656 54.964844 149.625 54.320312 149.625 53.613281 L 149.625 45.746094 C 149.625 45.039062 149.722656 44.398438 149.925781 43.820312 C 150.132812 43.238281 150.5 42.742188 151.03125 42.332031 C 151.5625 41.914062 152.300781 41.589844 153.238281 41.363281 C 154.179688 41.128906 155.367188 41.007812 156.800781 41.007812 C 158.230469 41.007812 159.410156 41.128906 160.34375 41.363281 C 161.273438 41.589844 162 41.914062 162.53125 42.332031 C 163.0625 42.742188 163.4375 43.238281 163.644531 43.820312 C 163.851562 44.398438 163.957031 45.039062 163.957031 45.746094 Z M 154.863281 52.777344 C 154.863281 53.089844 154.976562 53.351562 155.207031 53.558594 C 155.4375 53.769531 155.96875 53.871094 156.800781 53.871094 C 157.625 53.871094 158.15625 53.769531 158.382812 53.558594 C 158.617188 53.351562 158.738281 53.089844 158.738281 52.777344 L 158.738281 46.570312 C 158.738281 46.277344 158.617188 46.027344 158.382812 45.820312 C 158.15625 45.613281 157.625 45.507812 156.800781 45.507812 C 155.96875 45.507812 155.4375 45.613281 155.207031 45.820312 C 154.976562 46.027344 154.863281 46.277344 154.863281 46.570312 Z M 154.863281 52.777344 "/>
<path style=" stroke:none;fill-rule:nonzero;fill:rgb(5.098039%,25.882353%,26.666667%);fill-opacity:0.501961;" d="M 173.578125 45.507812 L 173.578125 48.464844 L 175.308594 48.464844 C 175.707031 48.464844 175.976562 48.363281 176.109375 48.152344 C 176.246094 47.945312 176.316406 47.691406 176.316406 47.382812 L 176.316406 46.601562 C 176.316406 46.289062 176.246094 46.027344 176.109375 45.820312 C 175.976562 45.613281 175.707031 45.507812 175.308594 45.507812 Z M 172.746094 57.976562 L 169.191406 57.976562 C 168.902344 57.976562 168.6875 57.910156 168.558594 57.777344 C 168.425781 57.648438 168.359375 57.433594 168.359375 57.144531 L 168.359375 42.183594 C 168.359375 41.894531 168.425781 41.683594 168.558594 41.550781 C 168.6875 41.417969 168.902344 41.351562 169.191406 41.351562 L 176.878906 41.351562 C 178.601562 41.351562 179.789062 41.714844 180.441406 42.433594 C 181.09375 43.152344 181.421875 44.078125 181.421875 45.214844 L 181.421875 46.269531 C 181.421875 46.921875 181.324219 47.472656 181.128906 47.925781 C 180.941406 48.378906 180.609375 48.703125 180.128906 48.902344 C 180.964844 48.996094 181.636719 49.335938 182.152344 49.925781 C 182.664062 50.507812 182.921875 51.285156 182.921875 52.246094 L 182.921875 57.144531 C 182.921875 57.433594 182.855469 57.648438 182.722656 57.777344 C 182.597656 57.910156 182.386719 57.976562 182.089844 57.976562 L 178.515625 57.976562 C 178.222656 57.976562 178.011719 57.910156 177.878906 57.777344 C 177.746094 57.648438 177.683594 57.433594 177.683594 57.144531 L 177.683594 53.613281 C 177.683594 53.273438 177.613281 53.023438 177.484375 52.863281 C 177.351562 52.703125 177.125 52.621094 176.808594 52.621094 L 173.578125 52.621094 L 173.578125 57.144531 C 173.578125 57.433594 173.511719 57.648438 173.378906 57.777344 C 173.246094 57.910156 173.035156 57.976562 172.746094 57.976562 Z M 172.746094 57.976562 "/>
<path style=" stroke:none;fill-rule:nonzero;fill:rgb(5.098039%,25.882353%,26.666667%);fill-opacity:0.501961;" d="M 195.589844 57.976562 L 187.816406 57.976562 C 187.527344 57.976562 187.3125 57.910156 187.183594 57.777344 C 187.050781 57.648438 186.984375 57.433594 186.984375 57.144531 L 186.984375 42.183594 C 186.984375 41.894531 187.050781 41.683594 187.183594 41.550781 C 187.3125 41.417969 187.527344 41.351562 187.816406 41.351562 L 195.589844 41.351562 C 197.511719 41.351562 198.9375 41.738281 199.871094 42.507812 C 200.808594 43.277344 201.277344 44.464844 201.277344 46.070312 L 201.277344 53.269531 C 201.277344 54.867188 200.808594 56.050781 199.871094 56.820312 C 198.9375 57.589844 197.511719 57.976562 195.589844 57.976562 Z M 192.222656 45.769531 L 192.222656 53.613281 L 194.972656 53.613281 C 195.339844 53.613281 195.613281 53.523438 195.785156 53.339844 C 195.964844 53.152344 196.058594 52.871094 196.058594 52.488281 L 196.058594 46.871094 C 196.058594 46.492188 195.964844 46.214844 195.785156 46.039062 C 195.613281 45.859375 195.339844 45.769531 194.972656 45.769531 Z M 192.222656 45.769531 "/>
<path style=" stroke:none;fill-rule:nonzero;fill:rgb(100%,100%,100%);fill-opacity:1;" d="M 90.875 56.957031 L 83.105469 56.957031 C 82.8125 56.957031 82.597656 56.890625 82.46875 56.757812 C 82.335938 56.628906 82.269531 56.414062 82.269531 56.125 L 82.269531 41.164062 C 82.269531 40.875 82.335938 40.664062 82.46875 40.53125 C 82.597656 40.398438 82.8125 40.332031 83.105469 40.332031 L 90.875 40.332031 C 92.796875 40.332031 94.222656 40.71875 95.15625 41.488281 C 96.09375 42.257812 96.5625 43.445312 96.5625 45.050781 L 96.5625 52.25 C 96.5625 53.847656 96.09375 55.03125 95.15625 55.800781 C 94.222656 56.570312 92.796875 56.957031 90.875 56.957031 Z M 87.511719 44.75 L 87.511719 52.59375 L 90.261719 52.59375 C 90.628906 52.59375 90.898438 52.503906 91.074219 52.320312 C 91.253906 52.132812 91.34375 51.851562 91.34375 51.46875 L 91.34375 45.851562 C 91.34375 45.472656 91.253906 45.195312 91.074219 45.019531 C 90.898438 44.839844 90.628906 44.75 90.261719 44.75 Z M 87.511719 44.75 "/>
<path style=" stroke:none;fill-rule:nonzero;fill:rgb(100%,100%,100%);fill-opacity:1;" d="M 101.421875 56.957031 C 101.132812 56.957031 100.917969 56.890625 100.789062 56.757812 C 100.65625 56.628906 100.589844 56.414062 100.589844 56.125 L 100.589844 53.382812 C 100.589844 53.085938 100.65625 52.875 100.789062 52.75 C 100.917969 52.617188 101.132812 52.550781 101.421875 52.550781 L 103.714844 52.550781 L 103.714844 44.789062 L 101.421875 44.789062 C 101.132812 44.789062 100.917969 44.726562 100.789062 44.59375 C 100.65625 44.460938 100.589844 44.25 100.589844 43.957031 L 100.589844 41.164062 C 100.589844 40.875 100.65625 40.664062 100.789062 40.53125 C 100.917969 40.398438 101.132812 40.332031 101.421875 40.332031 L 111.257812 40.332031 C 111.546875 40.332031 111.757812 40.398438 111.890625 40.53125 C 112.023438 40.664062 112.089844 40.875 112.089844 41.164062 L 112.089844 43.957031 C 112.089844 44.25 112.023438 44.460938 111.890625 44.59375 C 111.757812 44.726562 111.546875 44.789062 111.257812 44.789062 L 109.015625 44.789062 L 109.015625 52.550781 L 111.257812 52.550781 C 111.546875 52.550781 111.757812 52.617188 111.890625 52.75 C 112.023438 52.875 112.089844 53.085938 112.089844 53.382812 L 112.089844 56.125 C 112.089844 56.414062 112.023438 56.628906 111.890625 56.757812 C 111.757812 56.890625 111.546875 56.957031 111.257812 56.957031 Z M 101.421875 56.957031 "/>
<path style=" stroke:none;fill-rule:nonzero;fill:rgb(100%,100%,100%);fill-opacity:1;" d="M 124.113281 56.957031 L 116.820312 56.957031 C 116.53125 56.957031 116.316406 56.890625 116.1875 56.757812 C 116.054688 56.628906 115.988281 56.414062 115.988281 56.125 L 115.988281 53.425781 C 115.988281 53.132812 116.054688 52.921875 116.1875 52.789062 C 116.316406 52.660156 116.53125 52.59375 116.820312 52.59375 L 123.03125 52.59375 C 123.230469 52.59375 123.378906 52.53125 123.476562 52.40625 C 123.582031 52.273438 123.632812 52.113281 123.632812 51.925781 C 123.632812 51.664062 123.582031 51.472656 123.476562 51.351562 C 123.378906 51.226562 123.230469 51.160156 123.03125 51.144531 L 119.5625 50.65625 C 118.484375 50.503906 117.617188 50.148438 116.96875 49.59375 C 116.3125 49.039062 115.988281 48.113281 115.988281 46.820312 L 115.988281 44.394531 C 115.988281 43.089844 116.410156 42.085938 117.257812 41.382812 C 118.105469 40.683594 119.273438 40.332031 120.769531 40.332031 L 127.226562 40.332031 C 127.519531 40.332031 127.730469 40.398438 127.863281 40.53125 C 127.992188 40.664062 128.0625 40.875 128.0625 41.164062 L 128.0625 43.914062 C 128.0625 44.207031 127.992188 44.421875 127.863281 44.550781 C 127.730469 44.683594 127.519531 44.75 127.226562 44.75 L 121.851562 44.75 C 121.648438 44.75 121.492188 44.816406 121.382812 44.945312 C 121.28125 45.070312 121.226562 45.234375 121.226562 45.4375 C 121.226562 45.640625 121.28125 45.808594 121.382812 45.945312 C 121.492188 46.085938 121.648438 46.164062 121.851562 46.175781 L 125.289062 46.632812 C 126.367188 46.796875 127.234375 47.152344 127.894531 47.707031 C 128.5625 48.257812 128.894531 49.175781 128.894531 50.46875 L 128.894531 52.894531 C 128.894531 54.203125 128.46875 55.203125 127.613281 55.90625 C 126.757812 56.609375 125.59375 56.957031 124.113281 56.957031 Z M 124.113281 56.957031 "/>
<path style=" stroke:none;fill-rule:nonzero;fill:rgb(100%,100%,100%);fill-opacity:1;" d="M 143.933594 56.957031 L 138.308594 56.957031 C 136.386719 56.957031 134.957031 56.570312 134.027344 55.800781 C 133.097656 55.03125 132.632812 53.847656 132.632812 52.25 L 132.632812 45.070312 C 132.632812 43.46875 133.097656 42.277344 134.027344 41.5 C 134.957031 40.722656 136.386719 40.332031 138.308594 40.332031 L 143.933594 40.332031 C 144.226562 40.332031 144.4375 40.398438 144.570312 40.53125 C 144.699219 40.664062 144.769531 40.875 144.769531 41.164062 L 144.769531 43.957031 C 144.769531 44.25 144.699219 44.460938 144.570312 44.59375 C 144.4375 44.726562 144.226562 44.789062 143.933594 44.789062 L 139.300781 44.789062 C 138.820312 44.789062 138.464844 44.890625 138.238281 45.082031 C 138.007812 45.277344 137.894531 45.566406 137.894531 45.945312 L 137.894531 51.4375 C 137.894531 51.828125 138.007812 52.109375 138.238281 52.289062 C 138.464844 52.464844 138.820312 52.550781 139.300781 52.550781 L 143.933594 52.550781 C 144.226562 52.550781 144.4375 52.617188 144.570312 52.75 C 144.699219 52.875 144.769531 53.085938 144.769531 53.382812 L 144.769531 56.125 C 144.769531 56.414062 144.699219 56.628906 144.570312 56.757812 C 144.4375 56.890625 144.226562 56.957031 143.933594 56.957031 Z M 143.933594 56.957031 "/>
<path style=" stroke:none;fill-rule:nonzero;fill:rgb(100%,100%,100%);fill-opacity:1;" d="M 162.9375 52.59375 C 162.9375 53.300781 162.832031 53.945312 162.625 54.519531 C 162.417969 55.097656 162.042969 55.589844 161.511719 56 C 160.980469 56.410156 160.253906 56.726562 159.324219 56.957031 C 158.390625 57.1875 157.210938 57.300781 155.78125 57.300781 C 154.347656 57.300781 153.160156 57.1875 152.21875 56.957031 C 151.28125 56.726562 150.542969 56.410156 150.011719 56 C 149.480469 55.589844 149.113281 55.097656 148.90625 54.519531 C 148.703125 53.945312 148.605469 53.300781 148.605469 52.59375 L 148.605469 44.726562 C 148.605469 44.019531 148.703125 43.378906 148.90625 42.800781 C 149.113281 42.21875 149.480469 41.722656 150.011719 41.3125 C 150.542969 40.894531 151.28125 40.570312 152.21875 40.34375 C 153.160156 40.109375 154.347656 39.988281 155.78125 39.988281 C 157.210938 39.988281 158.390625 40.109375 159.324219 40.34375 C 160.253906 40.570312 160.980469 40.894531 161.511719 41.3125 C 162.042969 41.722656 162.417969 42.21875 162.625 42.800781 C 162.832031 43.378906 162.9375 44.019531 162.9375 44.726562 Z M 153.84375 51.757812 C 153.84375 52.070312 153.957031 52.332031 154.1875 52.539062 C 154.417969 52.75 154.949219 52.851562 155.78125 52.851562 C 156.605469 52.851562 157.136719 52.75 157.363281 52.539062 C 157.597656 52.332031 157.71875 52.070312 157.71875 51.757812 L 157.71875 45.550781 C 157.71875 45.257812 157.597656 45.007812 157.363281 44.800781 C 157.136719 44.59375 156.605469 44.488281 155.78125 44.488281 C 154.949219 44.488281 154.417969 44.59375 154.1875 44.800781 C 153.957031 45.007812 153.84375 45.257812 153.84375 45.550781 Z M 153.84375 51.757812 "/>
<path style=" stroke:none;fill-rule:nonzero;fill:rgb(100%,100%,100%);fill-opacity:1;" d="M 172.558594 44.488281 L 172.558594 47.445312 L 174.289062 47.445312 C 174.6875 47.445312 174.957031 47.34375 175.089844 47.132812 C 175.226562 46.925781 175.296875 46.671875 175.296875 46.363281 L 175.296875 45.582031 C 175.296875 45.269531 175.226562 45.007812 175.089844 44.800781 C 174.957031 44.59375 174.6875 44.488281 174.289062 44.488281 Z M 171.726562 56.957031 L 168.171875 56.957031 C 167.882812 56.957031 167.667969 56.890625 167.539062 56.757812 C 167.40625 56.628906 167.339844 56.414062 167.339844 56.125 L 167.339844 41.164062 C 167.339844 40.875 167.40625 40.664062 167.539062 40.53125 C 167.667969 40.398438 167.882812 40.332031 168.171875 40.332031 L 175.859375 40.332031 C 177.582031 40.332031 178.769531 40.695312 179.421875 41.414062 C 180.074219 42.132812 180.402344 43.058594 180.402344 44.195312 L 180.402344 45.25 C 180.402344 45.902344 180.304688 46.453125 180.109375 46.90625 C 179.921875 47.359375 179.589844 47.683594 179.109375 47.882812 C 179.945312 47.976562 180.617188 48.316406 181.132812 48.90625 C 181.644531 49.488281 181.902344 50.265625 181.902344 51.226562 L 181.902344 56.125 C 181.902344 56.414062 181.835938 56.628906 181.703125 56.757812 C 181.578125 56.890625 181.367188 56.957031 181.070312 56.957031 L 177.496094 56.957031 C 177.203125 56.957031 176.992188 56.890625 176.859375 56.757812 C 176.726562 56.628906 176.664062 56.414062 176.664062 56.125 L 176.664062 52.59375 C 176.664062 52.253906 176.59375 52.003906 176.464844 51.84375 C 176.332031 51.683594 176.105469 51.601562 175.789062 51.601562 L 172.558594 51.601562 L 172.558594 56.125 C 172.558594 56.414062 172.492188 56.628906 172.359375 56.757812 C 172.226562 56.890625 172.015625 56.957031 171.726562 56.957031 Z M 171.726562 56.957031 "/>
<path style=" stroke:none;fill-rule:nonzero;fill:rgb(100%,100%,100%);fill-opacity:1;" d="M 194.570312 56.957031 L 186.796875 56.957031 C 186.507812 56.957031 186.292969 56.890625 186.164062 56.757812 C 186.03125 56.628906 185.964844 56.414062 185.964844 56.125 L 185.964844 41.164062 C 185.964844 40.875 186.03125 40.664062 186.164062 40.53125 C 186.292969 40.398438 186.507812 40.332031 186.796875 40.332031 L 194.570312 40.332031 C 196.492188 40.332031 197.917969 40.71875 198.851562 41.488281 C 199.789062 42.257812 200.257812 43.445312 200.257812 45.050781 L 200.257812 52.25 C 200.257812 53.847656 199.789062 55.03125 198.851562 55.800781 C 197.917969 56.570312 196.492188 56.957031 194.570312 56.957031 Z M 191.203125 44.75 L 191.203125 52.59375 L 193.953125 52.59375 C 194.320312 52.59375 194.59375 52.503906 194.765625 52.320312 C 194.945312 52.132812 195.039062 51.851562 195.039062 51.46875 L 195.039062 45.851562 C 195.039062 45.472656 194.945312 45.195312 194.765625 45.019531 C 194.59375 44.839844 194.320312 44.75 193.953125 44.75 Z M 191.203125 44.75 "/>
<g clip-path="url(#clip3)" clip-rule="nonzero">
<path style=" stroke:none;fill-rule:nonzero;fill:rgb(20.784314%,38.431373%,39.215686%);fill-opacity:1;" d="M 56.222656 19.574219 L 15.253906 19.574219 C 11.800781 19.574219 8.988281 22.375 8.988281 25.847656 L 8.988281 67.027344 C 8.988281 70.496094 11.800781 73.300781 15.253906 73.300781 L 49.925781 73.300781 L 48.300781 67.667969 L 52.214844 71.289062 L 55.914062 74.699219 L 62.488281 80.488281 L 62.488281 25.84375 C 62.488281 22.371094 59.675781 19.570312 56.222656 19.570312 Z M 44.421875 59.351562 C 44.421875 59.351562 43.320312 58.042969 42.402344 56.882812 C 46.40625 55.757812 47.9375 53.257812 47.9375 53.257812 C 46.683594 54.082031 45.492188 54.660156 44.421875 55.054688 C 42.890625 55.695312 41.425781 56.121094 39.988281 56.363281 C 37.050781 56.914062 34.363281 56.761719 32.070312 56.335938 C 30.328125 56 28.828125 55.511719 27.574219 55.027344 C 26.871094 54.753906 26.105469 54.417969 25.34375 53.988281 C 25.253906 53.929688 25.160156 53.898438 25.066406 53.839844 C 25.007812 53.808594 24.976562 53.777344 24.945312 53.746094 C 24.394531 53.441406 24.089844 53.230469 24.089844 53.230469 C 24.089844 53.230469 25.558594 55.667969 29.441406 56.824219 C 28.523438 57.980469 27.394531 59.351562 27.394531 59.351562 C 20.636719 59.136719 18.066406 54.722656 18.066406 54.722656 C 18.066406 44.914062 22.472656 36.964844 22.472656 36.964844 C 26.871094 33.675781 31.058594 33.765625 31.058594 33.765625 L 31.367188 34.128906 C 25.863281 35.714844 23.324219 38.121094 23.324219 38.121094 C 23.324219 38.121094 23.996094 37.753906 25.128906 37.238281 C 28.402344 35.808594 31 35.410156 32.070312 35.320312 C 32.253906 35.289062 32.402344 35.257812 32.589844 35.257812 C 34.457031 35.015625 36.5625 34.953125 38.761719 35.199219 C 41.667969 35.53125 44.785156 36.386719 47.964844 38.121094 C 47.964844 38.121094 45.550781 35.835938 40.355469 34.253906 L 40.785156 33.765625 C 40.785156 33.765625 44.972656 33.675781 49.371094 36.964844 C 49.371094 36.964844 53.777344 44.914062 53.777344 54.722656 C 53.777344 54.722656 51.175781 59.136719 44.421875 59.351562 Z M 30.203125 45.125 C 28.460938 45.125 27.085938 46.652344 27.085938 48.507812 C 27.085938 50.363281 28.492188 51.886719 30.203125 51.886719 C 31.949219 51.886719 33.324219 50.363281 33.324219 48.507812 C 33.355469 46.652344 31.949219 45.125 30.203125 45.125 M 41.363281 45.125 C 39.621094 45.125 38.246094 46.652344 38.246094 48.507812 C 38.246094 50.363281 39.652344 51.886719 41.363281 51.886719 C 43.105469 51.886719 44.480469 50.363281 44.480469 48.507812 C 44.480469 46.652344 43.105469 45.125 41.363281 45.125 "/>
</g>
</g>
</svg>
