<?xml version="1.0" encoding="UTF-8"?>
<svg xmlns="http://www.w3.org/2000/svg" xmlns:xlink="http://www.w3.org/1999/xlink" width="150px" height="50px" viewBox="0 0 150 50" version="1.1">
<defs>
<clipPath id="clip1">
  <path d="M 7.777344 7.023438 L 148.984375 7.023438 L 148.984375 42.613281 L 7.777344 42.613281 Z M 7.777344 7.023438 "/>
</clipPath>
<clipPath id="clip2">
  <path d="M 25.570312 7.023438 L 131.1875 7.023438 C 135.90625 7.023438 140.433594 8.898438 143.769531 12.234375 C 147.109375 15.570312 148.984375 20.097656 148.984375 24.816406 C 148.984375 29.539062 147.109375 34.0625 143.769531 37.402344 C 140.433594 40.738281 135.90625 42.613281 131.1875 42.613281 L 25.570312 42.613281 C 20.851562 42.613281 16.324219 40.738281 12.988281 37.402344 C 9.652344 34.0625 7.777344 29.539062 7.777344 24.816406 C 7.777344 20.097656 9.652344 15.570312 12.988281 12.234375 C 16.324219 8.898438 20.851562 7.023438 25.570312 7.023438 Z M 25.570312 7.023438 "/>
</clipPath>
<clipPath id="clip3">
  <path d="M 4.492188 9.765625 L 31.242188 9.765625 L 31.242188 40.265625 L 4.492188 40.265625 Z M 4.492188 9.765625 "/>
</clipPath>
</defs>
<g id="surface1">
<g clip-path="url(#clip1)" clip-rule="nonzero">
<g clip-path="url(#clip2)" clip-rule="nonzero">
<path style=" stroke:none;fill-rule:nonzero;fill:rgb(36.078431%,88.235294%,90.196078%);fill-opacity:1;" d="M 7.777344 7.023438 L 148.984375 7.023438 L 148.984375 42.613281 L 7.777344 42.613281 Z M 7.777344 7.023438 "/>
</g>
</g>
<path style=" stroke:none;fill-rule:nonzero;fill:rgb(5.098039%,25.882353%,26.666667%);fill-opacity:0.301961;" d="M 46.457031 29.5 L 42.570312 29.5 C 42.425781 29.5 42.320312 29.464844 42.253906 29.398438 C 42.1875 29.335938 42.15625 29.226562 42.15625 29.082031 L 42.15625 21.601562 C 42.15625 21.457031 42.1875 21.351562 42.253906 21.285156 C 42.320312 21.21875 42.425781 21.1875 42.570312 21.1875 L 46.457031 21.1875 C 47.417969 21.1875 48.132812 21.378906 48.597656 21.765625 C 49.066406 22.148438 49.300781 22.742188 49.300781 23.546875 L 49.300781 27.144531 C 49.300781 27.945312 49.066406 28.535156 48.597656 28.921875 C 48.132812 29.304688 47.417969 29.5 46.457031 29.5 Z M 44.773438 23.394531 L 44.773438 27.316406 L 46.148438 27.316406 C 46.332031 27.316406 46.46875 27.273438 46.554688 27.179688 C 46.644531 27.085938 46.691406 26.945312 46.691406 26.753906 L 46.691406 23.945312 C 46.691406 23.757812 46.644531 23.617188 46.554688 23.53125 C 46.46875 23.441406 46.332031 23.394531 46.148438 23.394531 Z M 44.773438 23.394531 "/>
<path style=" stroke:none;fill-rule:nonzero;fill:rgb(5.098039%,25.882353%,26.666667%);fill-opacity:0.301961;" d="M 51.730469 29.5 C 51.585938 29.5 51.480469 29.464844 51.414062 29.398438 C 51.347656 29.335938 51.316406 29.226562 51.316406 29.082031 L 51.316406 27.710938 C 51.316406 27.5625 51.347656 27.457031 51.414062 27.394531 C 51.480469 27.328125 51.585938 27.296875 51.730469 27.296875 L 52.878906 27.296875 L 52.878906 23.414062 L 51.730469 23.414062 C 51.585938 23.414062 51.480469 23.382812 51.414062 23.316406 C 51.347656 23.25 51.316406 23.144531 51.316406 23 L 51.316406 21.601562 C 51.316406 21.457031 51.347656 21.351562 51.414062 21.285156 C 51.480469 21.21875 51.585938 21.1875 51.730469 21.1875 L 56.648438 21.1875 C 56.792969 21.1875 56.898438 21.21875 56.964844 21.285156 C 57.03125 21.351562 57.066406 21.457031 57.066406 21.601562 L 57.066406 23 C 57.066406 23.144531 57.03125 23.25 56.964844 23.316406 C 56.898438 23.382812 56.792969 23.414062 56.648438 23.414062 L 55.527344 23.414062 L 55.527344 27.296875 L 56.648438 27.296875 C 56.792969 27.296875 56.898438 27.328125 56.964844 27.394531 C 57.03125 27.457031 57.066406 27.5625 57.066406 27.710938 L 57.066406 29.082031 C 57.066406 29.226562 57.03125 29.335938 56.964844 29.398438 C 56.898438 29.464844 56.792969 29.5 56.648438 29.5 Z M 51.730469 29.5 "/>
<path style=" stroke:none;fill-rule:nonzero;fill:rgb(5.098039%,25.882353%,26.666667%);fill-opacity:0.301961;" d="M 63.078125 29.5 L 59.429688 29.5 C 59.285156 29.5 59.179688 29.464844 59.113281 29.398438 C 59.046875 29.335938 59.015625 29.226562 59.015625 29.082031 L 59.015625 27.734375 C 59.015625 27.585938 59.046875 27.480469 59.113281 27.414062 C 59.179688 27.351562 59.285156 27.316406 59.429688 27.316406 L 62.535156 27.316406 C 62.636719 27.316406 62.710938 27.285156 62.757812 27.222656 C 62.8125 27.15625 62.835938 27.078125 62.835938 26.984375 C 62.835938 26.851562 62.8125 26.757812 62.757812 26.695312 C 62.710938 26.632812 62.636719 26.601562 62.535156 26.59375 L 60.800781 26.347656 C 60.261719 26.273438 59.828125 26.09375 59.503906 25.816406 C 59.175781 25.539062 59.015625 25.078125 59.015625 24.429688 L 59.015625 23.21875 C 59.015625 22.566406 59.226562 22.0625 59.648438 21.710938 C 60.074219 21.363281 60.65625 21.1875 61.40625 21.1875 L 64.632812 21.1875 C 64.78125 21.1875 64.886719 21.21875 64.953125 21.285156 C 65.015625 21.351562 65.050781 21.457031 65.050781 21.601562 L 65.050781 22.976562 C 65.050781 23.125 65.015625 23.230469 64.953125 23.296875 C 64.886719 23.363281 64.78125 23.394531 64.632812 23.394531 L 61.945312 23.394531 C 61.84375 23.394531 61.765625 23.429688 61.710938 23.492188 C 61.660156 23.554688 61.632812 23.636719 61.632812 23.738281 C 61.632812 23.839844 61.660156 23.925781 61.710938 23.992188 C 61.765625 24.0625 61.84375 24.101562 61.945312 24.109375 L 63.664062 24.335938 C 64.203125 24.417969 64.636719 24.597656 64.96875 24.875 C 65.300781 25.148438 65.46875 25.609375 65.46875 26.253906 L 65.46875 27.46875 C 65.46875 28.121094 65.253906 28.621094 64.828125 28.972656 C 64.398438 29.324219 63.816406 29.5 63.078125 29.5 Z M 63.078125 29.5 "/>
<path style=" stroke:none;fill-rule:nonzero;fill:rgb(5.098039%,25.882353%,26.666667%);fill-opacity:0.301961;" d="M 72.988281 29.5 L 70.175781 29.5 C 69.210938 29.5 68.5 29.304688 68.035156 28.921875 C 67.566406 28.535156 67.335938 27.945312 67.335938 27.144531 L 67.335938 23.554688 C 67.335938 22.753906 67.566406 22.160156 68.035156 21.769531 C 68.5 21.382812 69.210938 21.1875 70.175781 21.1875 L 72.988281 21.1875 C 73.132812 21.1875 73.238281 21.21875 73.304688 21.285156 C 73.371094 21.351562 73.402344 21.457031 73.402344 21.601562 L 73.402344 23 C 73.402344 23.144531 73.371094 23.25 73.304688 23.316406 C 73.238281 23.382812 73.132812 23.414062 72.988281 23.414062 L 70.667969 23.414062 C 70.429688 23.414062 70.253906 23.464844 70.136719 23.5625 C 70.023438 23.660156 69.964844 23.804688 69.964844 23.992188 L 69.964844 26.738281 C 69.964844 26.933594 70.023438 27.074219 70.136719 27.164062 C 70.253906 27.253906 70.429688 27.296875 70.667969 27.296875 L 72.988281 27.296875 C 73.132812 27.296875 73.238281 27.328125 73.304688 27.394531 C 73.371094 27.457031 73.402344 27.5625 73.402344 27.710938 L 73.402344 29.082031 C 73.402344 29.226562 73.371094 29.335938 73.304688 29.398438 C 73.238281 29.464844 73.132812 29.5 72.988281 29.5 Z M 72.988281 29.5 "/>
<path style=" stroke:none;fill-rule:nonzero;fill:rgb(5.098039%,25.882353%,26.666667%);fill-opacity:0.301961;" d="M 82.488281 27.316406 C 82.488281 27.671875 82.4375 27.992188 82.332031 28.28125 C 82.226562 28.570312 82.042969 28.816406 81.773438 29.019531 C 81.511719 29.226562 81.144531 29.382812 80.679688 29.5 C 80.214844 29.613281 79.625 29.671875 78.910156 29.671875 C 78.195312 29.671875 77.601562 29.613281 77.128906 29.5 C 76.660156 29.382812 76.292969 29.226562 76.023438 29.019531 C 75.761719 28.816406 75.578125 28.570312 75.472656 28.28125 C 75.371094 27.992188 75.320312 27.671875 75.320312 27.316406 L 75.320312 23.382812 C 75.320312 23.03125 75.371094 22.710938 75.472656 22.421875 C 75.578125 22.128906 75.761719 21.882812 76.023438 21.675781 C 76.292969 21.46875 76.660156 21.304688 77.128906 21.191406 C 77.601562 21.074219 78.195312 21.015625 78.910156 21.015625 C 79.625 21.015625 80.214844 21.074219 80.679688 21.191406 C 81.144531 21.304688 81.511719 21.46875 81.773438 21.675781 C 82.042969 21.882812 82.226562 22.128906 82.332031 22.421875 C 82.4375 22.710938 82.488281 23.03125 82.488281 23.382812 Z M 77.941406 26.898438 C 77.941406 27.054688 78 27.1875 78.113281 27.289062 C 78.226562 27.394531 78.492188 27.445312 78.910156 27.445312 C 79.324219 27.445312 79.585938 27.394531 79.703125 27.289062 C 79.820312 27.1875 79.878906 27.054688 79.878906 26.898438 L 79.878906 23.796875 C 79.878906 23.648438 79.820312 23.523438 79.703125 23.421875 C 79.585938 23.316406 79.324219 23.265625 78.910156 23.265625 C 78.492188 23.265625 78.226562 23.316406 78.113281 23.421875 C 78 23.523438 77.941406 23.648438 77.941406 23.796875 Z M 77.941406 26.898438 "/>
<path style=" stroke:none;fill-rule:nonzero;fill:rgb(5.098039%,25.882353%,26.666667%);fill-opacity:0.301961;" d="M 87.300781 23.265625 L 87.300781 24.742188 L 88.164062 24.742188 C 88.363281 24.742188 88.5 24.691406 88.566406 24.585938 C 88.632812 24.484375 88.667969 24.355469 88.667969 24.203125 L 88.667969 23.8125 C 88.667969 23.65625 88.632812 23.523438 88.566406 23.421875 C 88.5 23.316406 88.363281 23.265625 88.164062 23.265625 Z M 86.882812 29.5 L 85.105469 29.5 C 84.960938 29.5 84.855469 29.464844 84.789062 29.398438 C 84.722656 29.335938 84.691406 29.226562 84.691406 29.082031 L 84.691406 21.601562 C 84.691406 21.457031 84.722656 21.351562 84.789062 21.285156 C 84.855469 21.21875 84.960938 21.1875 85.105469 21.1875 L 88.949219 21.1875 C 89.8125 21.1875 90.40625 21.367188 90.730469 21.726562 C 91.058594 22.085938 91.222656 22.550781 91.222656 23.117188 L 91.222656 23.644531 C 91.222656 23.972656 91.171875 24.246094 91.074219 24.472656 C 90.980469 24.699219 90.816406 24.863281 90.574219 24.960938 C 90.992188 25.007812 91.328125 25.179688 91.585938 25.472656 C 91.84375 25.765625 91.972656 26.152344 91.972656 26.632812 L 91.972656 29.082031 C 91.972656 29.226562 91.9375 29.335938 91.871094 29.398438 C 91.808594 29.464844 91.703125 29.5 91.554688 29.5 L 89.769531 29.5 C 89.621094 29.5 89.515625 29.464844 89.449219 29.398438 C 89.382812 29.335938 89.351562 29.226562 89.351562 29.082031 L 89.351562 27.316406 C 89.351562 27.148438 89.316406 27.023438 89.253906 26.941406 C 89.1875 26.863281 89.074219 26.820312 88.914062 26.820312 L 87.300781 26.820312 L 87.300781 29.082031 C 87.300781 29.226562 87.265625 29.335938 87.199219 29.398438 C 87.132812 29.464844 87.027344 29.5 86.882812 29.5 Z M 86.882812 29.5 "/>
<path style=" stroke:none;fill-rule:nonzero;fill:rgb(5.098039%,25.882353%,26.666667%);fill-opacity:0.301961;" d="M 98.304688 29.5 L 94.417969 29.5 C 94.273438 29.5 94.167969 29.464844 94.101562 29.398438 C 94.035156 29.335938 94.003906 29.226562 94.003906 29.082031 L 94.003906 21.601562 C 94.003906 21.457031 94.035156 21.351562 94.101562 21.285156 C 94.167969 21.21875 94.273438 21.1875 94.417969 21.1875 L 98.304688 21.1875 C 99.265625 21.1875 99.980469 21.378906 100.445312 21.765625 C 100.914062 22.148438 101.148438 22.742188 101.148438 23.546875 L 101.148438 27.144531 C 101.148438 27.945312 100.914062 28.535156 100.445312 28.921875 C 99.980469 29.304688 99.265625 29.5 98.304688 29.5 Z M 96.621094 23.394531 L 96.621094 27.316406 L 97.996094 27.316406 C 98.179688 27.316406 98.316406 27.273438 98.402344 27.179688 C 98.492188 27.085938 98.539062 26.945312 98.539062 26.753906 L 98.539062 23.945312 C 98.539062 23.757812 98.492188 23.617188 98.402344 23.53125 C 98.316406 23.441406 98.179688 23.394531 97.996094 23.394531 Z M 96.621094 23.394531 "/>
<path style=" stroke:none;fill-rule:nonzero;fill:rgb(5.098039%,25.882353%,26.666667%);fill-opacity:0.501961;" d="M 45.949219 28.988281 L 42.0625 28.988281 C 41.917969 28.988281 41.808594 28.957031 41.746094 28.890625 C 41.679688 28.824219 41.644531 28.71875 41.644531 28.570312 L 41.644531 21.09375 C 41.644531 20.945312 41.679688 20.839844 41.746094 20.773438 C 41.808594 20.710938 41.917969 20.675781 42.0625 20.675781 L 45.949219 20.675781 C 46.910156 20.675781 47.621094 20.867188 48.089844 21.253906 C 48.558594 21.640625 48.792969 22.234375 48.792969 23.035156 L 48.792969 26.632812 C 48.792969 27.433594 48.558594 28.023438 48.089844 28.410156 C 47.621094 28.796875 46.910156 28.988281 45.949219 28.988281 Z M 44.265625 22.882812 L 44.265625 26.804688 L 45.640625 26.804688 C 45.824219 26.804688 45.960938 26.761719 46.046875 26.671875 C 46.136719 26.578125 46.183594 26.433594 46.183594 26.242188 L 46.183594 23.4375 C 46.183594 23.246094 46.136719 23.105469 46.046875 23.019531 C 45.960938 22.929688 45.824219 22.882812 45.640625 22.882812 Z M 44.265625 22.882812 "/>
<path style=" stroke:none;fill-rule:nonzero;fill:rgb(5.098039%,25.882353%,26.666667%);fill-opacity:0.501961;" d="M 51.222656 28.988281 C 51.074219 28.988281 50.96875 28.957031 50.902344 28.890625 C 50.835938 28.824219 50.804688 28.71875 50.804688 28.570312 L 50.804688 27.203125 C 50.804688 27.054688 50.835938 26.945312 50.902344 26.882812 C 50.96875 26.820312 51.074219 26.785156 51.222656 26.785156 L 52.367188 26.785156 L 52.367188 22.90625 L 51.222656 22.90625 C 51.074219 22.90625 50.96875 22.871094 50.902344 22.804688 C 50.835938 22.742188 50.804688 22.632812 50.804688 22.488281 L 50.804688 21.09375 C 50.804688 20.945312 50.835938 20.839844 50.902344 20.773438 C 50.96875 20.710938 51.074219 20.675781 51.222656 20.675781 L 56.136719 20.675781 C 56.285156 20.675781 56.390625 20.710938 56.457031 20.773438 C 56.519531 20.839844 56.554688 20.945312 56.554688 21.09375 L 56.554688 22.488281 C 56.554688 22.632812 56.519531 22.742188 56.457031 22.804688 C 56.390625 22.871094 56.285156 22.90625 56.136719 22.90625 L 55.019531 22.90625 L 55.019531 26.785156 L 56.136719 26.785156 C 56.285156 26.785156 56.390625 26.820312 56.457031 26.882812 C 56.519531 26.945312 56.554688 27.054688 56.554688 27.203125 L 56.554688 28.570312 C 56.554688 28.71875 56.519531 28.824219 56.457031 28.890625 C 56.390625 28.957031 56.285156 28.988281 56.136719 28.988281 Z M 51.222656 28.988281 "/>
<path style=" stroke:none;fill-rule:nonzero;fill:rgb(5.098039%,25.882353%,26.666667%);fill-opacity:0.501961;" d="M 62.566406 28.988281 L 58.921875 28.988281 C 58.773438 28.988281 58.667969 28.957031 58.601562 28.890625 C 58.535156 28.824219 58.503906 28.71875 58.503906 28.570312 L 58.503906 27.222656 C 58.503906 27.078125 58.535156 26.972656 58.601562 26.90625 C 58.667969 26.839844 58.773438 26.804688 58.921875 26.804688 L 62.023438 26.804688 C 62.125 26.804688 62.199219 26.773438 62.25 26.710938 C 62.300781 26.648438 62.328125 26.566406 62.328125 26.472656 C 62.328125 26.339844 62.300781 26.246094 62.25 26.1875 C 62.199219 26.125 62.125 26.089844 62.023438 26.082031 L 60.289062 25.835938 C 59.75 25.761719 59.320312 25.585938 58.992188 25.304688 C 58.667969 25.027344 58.503906 24.566406 58.503906 23.921875 L 58.503906 22.707031 C 58.503906 22.054688 58.714844 21.554688 59.140625 21.203125 C 59.5625 20.851562 60.148438 20.675781 60.894531 20.675781 L 64.125 20.675781 C 64.269531 20.675781 64.375 20.710938 64.441406 20.773438 C 64.507812 20.839844 64.539062 20.945312 64.539062 21.09375 L 64.539062 22.46875 C 64.539062 22.613281 64.507812 22.71875 64.441406 22.785156 C 64.375 22.851562 64.269531 22.882812 64.125 22.882812 L 61.4375 22.882812 C 61.335938 22.882812 61.257812 22.917969 61.203125 22.984375 C 61.148438 23.046875 61.125 23.128906 61.125 23.226562 C 61.125 23.328125 61.148438 23.414062 61.203125 23.484375 C 61.257812 23.554688 61.335938 23.589844 61.4375 23.597656 L 63.15625 23.828125 C 63.691406 23.90625 64.125 24.085938 64.457031 24.363281 C 64.789062 24.636719 64.957031 25.097656 64.957031 25.742188 L 64.957031 26.957031 C 64.957031 27.609375 64.742188 28.113281 64.316406 28.460938 C 63.890625 28.8125 63.304688 28.988281 62.566406 28.988281 Z M 62.566406 28.988281 "/>
<path style=" stroke:none;fill-rule:nonzero;fill:rgb(5.098039%,25.882353%,26.666667%);fill-opacity:0.501961;" d="M 72.476562 28.988281 L 69.664062 28.988281 C 68.703125 28.988281 67.988281 28.796875 67.523438 28.410156 C 67.058594 28.023438 66.828125 27.433594 66.828125 26.632812 L 66.828125 23.046875 C 66.828125 22.242188 67.058594 21.648438 67.523438 21.257812 C 67.988281 20.871094 68.703125 20.675781 69.664062 20.675781 L 72.476562 20.675781 C 72.625 20.675781 72.730469 20.710938 72.796875 20.773438 C 72.859375 20.839844 72.894531 20.945312 72.894531 21.09375 L 72.894531 22.488281 C 72.894531 22.632812 72.859375 22.742188 72.796875 22.804688 C 72.730469 22.871094 72.625 22.90625 72.476562 22.90625 L 70.160156 22.90625 C 69.921875 22.90625 69.742188 22.953125 69.628906 23.050781 C 69.515625 23.148438 69.457031 23.292969 69.457031 23.484375 L 69.457031 26.226562 C 69.457031 26.421875 69.515625 26.566406 69.628906 26.65625 C 69.742188 26.742188 69.921875 26.785156 70.160156 26.785156 L 72.476562 26.785156 C 72.625 26.785156 72.730469 26.820312 72.796875 26.882812 C 72.859375 26.945312 72.894531 27.054688 72.894531 27.203125 L 72.894531 28.570312 C 72.894531 28.71875 72.859375 28.824219 72.796875 28.890625 C 72.730469 28.957031 72.625 28.988281 72.476562 28.988281 Z M 72.476562 28.988281 "/>
<path style=" stroke:none;fill-rule:nonzero;fill:rgb(5.098039%,25.882353%,26.666667%);fill-opacity:0.501961;" d="M 81.976562 26.804688 C 81.976562 27.160156 81.925781 27.480469 81.820312 27.769531 C 81.71875 28.058594 81.53125 28.304688 81.265625 28.507812 C 81 28.714844 80.636719 28.875 80.171875 28.988281 C 79.703125 29.101562 79.113281 29.160156 78.398438 29.160156 C 77.683594 29.160156 77.089844 29.101562 76.617188 28.988281 C 76.148438 28.875 75.78125 28.714844 75.515625 28.507812 C 75.25 28.304688 75.066406 28.058594 74.960938 27.769531 C 74.859375 27.480469 74.8125 27.160156 74.8125 26.804688 L 74.8125 22.875 C 74.8125 22.519531 74.859375 22.199219 74.960938 21.910156 C 75.066406 21.617188 75.25 21.371094 75.515625 21.164062 C 75.78125 20.957031 76.148438 20.796875 76.617188 20.679688 C 77.089844 20.5625 77.683594 20.503906 78.398438 20.503906 C 79.113281 20.503906 79.703125 20.5625 80.171875 20.679688 C 80.636719 20.796875 81 20.957031 81.265625 21.164062 C 81.53125 21.371094 81.71875 21.617188 81.820312 21.910156 C 81.925781 22.199219 81.976562 22.519531 81.976562 22.875 Z M 77.429688 26.390625 C 77.429688 26.546875 77.488281 26.675781 77.601562 26.78125 C 77.71875 26.882812 77.984375 26.9375 78.398438 26.9375 C 78.8125 26.9375 79.078125 26.882812 79.191406 26.78125 C 79.308594 26.675781 79.367188 26.546875 79.367188 26.390625 L 79.367188 23.285156 C 79.367188 23.140625 79.308594 23.015625 79.191406 22.910156 C 79.078125 22.804688 78.8125 22.753906 78.398438 22.753906 C 77.984375 22.753906 77.71875 22.804688 77.601562 22.910156 C 77.488281 23.015625 77.429688 23.140625 77.429688 23.285156 Z M 77.429688 26.390625 "/>
<path style=" stroke:none;fill-rule:nonzero;fill:rgb(5.098039%,25.882353%,26.666667%);fill-opacity:0.501961;" d="M 86.789062 22.753906 L 86.789062 24.234375 L 87.652344 24.234375 C 87.855469 24.234375 87.988281 24.179688 88.054688 24.078125 C 88.125 23.972656 88.160156 23.84375 88.160156 23.691406 L 88.160156 23.300781 C 88.160156 23.144531 88.125 23.015625 88.054688 22.910156 C 87.988281 22.804688 87.855469 22.753906 87.652344 22.753906 Z M 86.371094 28.988281 L 84.597656 28.988281 C 84.449219 28.988281 84.34375 28.957031 84.277344 28.890625 C 84.210938 28.824219 84.179688 28.71875 84.179688 28.570312 L 84.179688 21.09375 C 84.179688 20.945312 84.210938 20.839844 84.277344 20.773438 C 84.34375 20.710938 84.449219 20.675781 84.597656 20.675781 L 88.441406 20.675781 C 89.300781 20.675781 89.894531 20.855469 90.222656 21.21875 C 90.546875 21.574219 90.710938 22.039062 90.710938 22.609375 L 90.710938 23.132812 C 90.710938 23.460938 90.660156 23.738281 90.566406 23.960938 C 90.472656 24.1875 90.304688 24.351562 90.066406 24.453125 C 90.480469 24.496094 90.816406 24.667969 91.074219 24.960938 C 91.332031 25.253906 91.460938 25.640625 91.460938 26.125 L 91.460938 28.570312 C 91.460938 28.71875 91.425781 28.824219 91.363281 28.890625 C 91.300781 28.957031 91.191406 28.988281 91.042969 28.988281 L 89.257812 28.988281 C 89.113281 28.988281 89.003906 28.957031 88.941406 28.890625 C 88.875 28.824219 88.839844 28.71875 88.839844 28.570312 L 88.839844 26.804688 C 88.839844 26.636719 88.808594 26.511719 88.742188 26.429688 C 88.675781 26.351562 88.5625 26.3125 88.402344 26.3125 L 86.789062 26.3125 L 86.789062 28.570312 C 86.789062 28.71875 86.753906 28.824219 86.691406 28.890625 C 86.625 28.957031 86.519531 28.988281 86.371094 28.988281 Z M 86.371094 28.988281 "/>
<path style=" stroke:none;fill-rule:nonzero;fill:rgb(5.098039%,25.882353%,26.666667%);fill-opacity:0.501961;" d="M 97.792969 28.988281 L 93.910156 28.988281 C 93.761719 28.988281 93.65625 28.957031 93.589844 28.890625 C 93.523438 28.824219 93.492188 28.71875 93.492188 28.570312 L 93.492188 21.09375 C 93.492188 20.945312 93.523438 20.839844 93.589844 20.773438 C 93.65625 20.710938 93.761719 20.675781 93.910156 20.675781 L 97.792969 20.675781 C 98.753906 20.675781 99.46875 20.867188 99.933594 21.253906 C 100.402344 21.640625 100.636719 22.234375 100.636719 23.035156 L 100.636719 26.632812 C 100.636719 27.433594 100.402344 28.023438 99.933594 28.410156 C 99.46875 28.796875 98.753906 28.988281 97.792969 28.988281 Z M 96.113281 22.882812 L 96.113281 26.804688 L 97.488281 26.804688 C 97.671875 26.804688 97.804688 26.761719 97.894531 26.671875 C 97.984375 26.578125 98.027344 26.433594 98.027344 26.242188 L 98.027344 23.4375 C 98.027344 23.246094 97.984375 23.105469 97.894531 23.019531 C 97.804688 22.929688 97.671875 22.882812 97.488281 22.882812 Z M 96.113281 22.882812 "/>
<path style=" stroke:none;fill-rule:nonzero;fill:rgb(100%,100%,100%);fill-opacity:1;" d="M 45.4375 28.476562 L 41.550781 28.476562 C 41.40625 28.476562 41.300781 28.445312 41.234375 28.378906 C 41.167969 28.3125 41.136719 28.207031 41.136719 28.0625 L 41.136719 20.582031 C 41.136719 20.4375 41.167969 20.332031 41.234375 20.265625 C 41.300781 20.199219 41.40625 20.164062 41.550781 20.164062 L 45.4375 20.164062 C 46.398438 20.164062 47.113281 20.359375 47.578125 20.742188 C 48.046875 21.128906 48.28125 21.722656 48.28125 22.523438 L 48.28125 26.125 C 48.28125 26.921875 48.046875 27.515625 47.578125 27.898438 C 47.113281 28.285156 46.398438 28.476562 45.4375 28.476562 Z M 43.753906 22.375 L 43.753906 26.296875 L 45.128906 26.296875 C 45.3125 26.296875 45.449219 26.25 45.535156 26.160156 C 45.625 26.066406 45.671875 25.925781 45.671875 25.734375 L 45.671875 22.925781 C 45.671875 22.734375 45.625 22.597656 45.535156 22.507812 C 45.449219 22.417969 45.3125 22.375 45.128906 22.375 Z M 43.753906 22.375 "/>
<path style=" stroke:none;fill-rule:nonzero;fill:rgb(100%,100%,100%);fill-opacity:1;" d="M 50.710938 28.476562 C 50.566406 28.476562 50.457031 28.445312 50.394531 28.378906 C 50.328125 28.3125 50.292969 28.207031 50.292969 28.0625 L 50.292969 26.691406 C 50.292969 26.542969 50.328125 26.4375 50.394531 26.375 C 50.457031 26.308594 50.566406 26.273438 50.710938 26.273438 L 51.855469 26.273438 L 51.855469 22.394531 L 50.710938 22.394531 C 50.566406 22.394531 50.457031 22.363281 50.394531 22.296875 C 50.328125 22.230469 50.292969 22.125 50.292969 21.976562 L 50.292969 20.582031 C 50.292969 20.4375 50.328125 20.332031 50.394531 20.265625 C 50.457031 20.199219 50.566406 20.164062 50.710938 20.164062 L 55.628906 20.164062 C 55.773438 20.164062 55.878906 20.199219 55.945312 20.265625 C 56.011719 20.332031 56.042969 20.4375 56.042969 20.582031 L 56.042969 21.976562 C 56.042969 22.125 56.011719 22.230469 55.945312 22.296875 C 55.878906 22.363281 55.773438 22.394531 55.628906 22.394531 L 54.507812 22.394531 L 54.507812 26.273438 L 55.628906 26.273438 C 55.773438 26.273438 55.878906 26.308594 55.945312 26.375 C 56.011719 26.4375 56.042969 26.542969 56.042969 26.691406 L 56.042969 28.0625 C 56.042969 28.207031 56.011719 28.3125 55.945312 28.378906 C 55.878906 28.445312 55.773438 28.476562 55.628906 28.476562 Z M 50.710938 28.476562 "/>
<path style=" stroke:none;fill-rule:nonzero;fill:rgb(100%,100%,100%);fill-opacity:1;" d="M 62.054688 28.476562 L 58.410156 28.476562 C 58.265625 28.476562 58.15625 28.445312 58.09375 28.378906 C 58.027344 28.3125 57.992188 28.207031 57.992188 28.0625 L 57.992188 26.710938 C 57.992188 26.566406 58.027344 26.460938 58.09375 26.394531 C 58.15625 26.328125 58.265625 26.296875 58.410156 26.296875 L 61.515625 26.296875 C 61.613281 26.296875 61.6875 26.265625 61.738281 26.203125 C 61.789062 26.136719 61.816406 26.054688 61.816406 25.960938 C 61.816406 25.832031 61.789062 25.734375 61.738281 25.675781 C 61.6875 25.613281 61.613281 25.578125 61.515625 25.570312 L 59.78125 25.328125 C 59.242188 25.25 58.808594 25.074219 58.484375 24.796875 C 58.15625 24.519531 57.992188 24.054688 57.992188 23.410156 L 57.992188 22.195312 C 57.992188 21.542969 58.203125 21.042969 58.628906 20.691406 C 59.050781 20.339844 59.636719 20.164062 60.382812 20.164062 L 63.613281 20.164062 C 63.757812 20.164062 63.863281 20.199219 63.929688 20.265625 C 63.996094 20.332031 64.03125 20.4375 64.03125 20.582031 L 64.03125 21.957031 C 64.03125 22.101562 63.996094 22.210938 63.929688 22.273438 C 63.863281 22.339844 63.757812 22.375 63.613281 22.375 L 60.925781 22.375 C 60.824219 22.375 60.746094 22.40625 60.691406 22.472656 C 60.640625 22.535156 60.613281 22.617188 60.613281 22.71875 C 60.613281 22.820312 60.640625 22.902344 60.691406 22.972656 C 60.746094 23.042969 60.824219 23.082031 60.925781 23.085938 L 62.644531 23.316406 C 63.183594 23.398438 63.617188 23.574219 63.945312 23.851562 C 64.28125 24.128906 64.445312 24.585938 64.445312 25.234375 L 64.445312 26.445312 C 64.445312 27.101562 64.234375 27.601562 63.804688 27.953125 C 63.378906 28.304688 62.796875 28.476562 62.054688 28.476562 Z M 62.054688 28.476562 "/>
<path style=" stroke:none;fill-rule:nonzero;fill:rgb(100%,100%,100%);fill-opacity:1;" d="M 71.96875 28.476562 L 69.15625 28.476562 C 68.191406 28.476562 67.480469 28.285156 67.015625 27.898438 C 66.546875 27.515625 66.316406 26.921875 66.316406 26.125 L 66.316406 22.535156 C 66.316406 21.734375 66.546875 21.136719 67.015625 20.75 C 67.480469 20.359375 68.191406 20.164062 69.15625 20.164062 L 71.96875 20.164062 C 72.113281 20.164062 72.21875 20.199219 72.285156 20.265625 C 72.351562 20.332031 72.382812 20.4375 72.382812 20.582031 L 72.382812 21.976562 C 72.382812 22.125 72.351562 22.230469 72.285156 22.296875 C 72.21875 22.363281 72.113281 22.394531 71.96875 22.394531 L 69.648438 22.394531 C 69.410156 22.394531 69.234375 22.445312 69.117188 22.539062 C 69.003906 22.636719 68.945312 22.78125 68.945312 22.972656 L 68.945312 25.71875 C 68.945312 25.914062 69.003906 26.054688 69.117188 26.144531 C 69.234375 26.230469 69.410156 26.273438 69.648438 26.273438 L 71.96875 26.273438 C 72.113281 26.273438 72.21875 26.308594 72.285156 26.375 C 72.351562 26.4375 72.382812 26.542969 72.382812 26.691406 L 72.382812 28.0625 C 72.382812 28.207031 72.351562 28.3125 72.285156 28.378906 C 72.21875 28.445312 72.113281 28.476562 71.96875 28.476562 Z M 71.96875 28.476562 "/>
<path style=" stroke:none;fill-rule:nonzero;fill:rgb(100%,100%,100%);fill-opacity:1;" d="M 81.46875 26.296875 C 81.46875 26.648438 81.417969 26.972656 81.3125 27.257812 C 81.207031 27.546875 81.023438 27.792969 80.753906 28 C 80.492188 28.203125 80.125 28.363281 79.660156 28.476562 C 79.195312 28.59375 78.605469 28.648438 77.890625 28.648438 C 77.175781 28.648438 76.582031 28.59375 76.109375 28.476562 C 75.640625 28.363281 75.273438 28.203125 75.003906 28 C 74.742188 27.792969 74.558594 27.546875 74.453125 27.257812 C 74.351562 26.972656 74.300781 26.648438 74.300781 26.296875 L 74.300781 22.363281 C 74.300781 22.007812 74.351562 21.6875 74.453125 21.398438 C 74.558594 21.109375 74.742188 20.859375 75.003906 20.65625 C 75.273438 20.445312 75.640625 20.285156 76.109375 20.171875 C 76.582031 20.054688 77.175781 19.992188 77.890625 19.992188 C 78.605469 19.992188 79.195312 20.054688 79.660156 20.171875 C 80.125 20.285156 80.492188 20.445312 80.753906 20.65625 C 81.023438 20.859375 81.207031 21.109375 81.3125 21.398438 C 81.417969 21.6875 81.46875 22.007812 81.46875 22.363281 Z M 76.921875 25.878906 C 76.921875 26.035156 76.980469 26.164062 77.09375 26.269531 C 77.207031 26.375 77.472656 26.425781 77.890625 26.425781 C 78.304688 26.425781 78.566406 26.375 78.683594 26.269531 C 78.800781 26.164062 78.859375 26.035156 78.859375 25.878906 L 78.859375 22.773438 C 78.859375 22.628906 78.800781 22.503906 78.683594 22.398438 C 78.566406 22.296875 78.304688 22.242188 77.890625 22.242188 C 77.472656 22.242188 77.207031 22.296875 77.09375 22.398438 C 76.980469 22.503906 76.921875 22.628906 76.921875 22.773438 Z M 76.921875 25.878906 "/>
<path style=" stroke:none;fill-rule:nonzero;fill:rgb(100%,100%,100%);fill-opacity:1;" d="M 86.28125 22.242188 L 86.28125 23.722656 L 87.144531 23.722656 C 87.34375 23.722656 87.480469 23.671875 87.546875 23.566406 C 87.613281 23.460938 87.648438 23.335938 87.648438 23.179688 L 87.648438 22.789062 C 87.648438 22.632812 87.613281 22.503906 87.546875 22.398438 C 87.480469 22.296875 87.34375 22.242188 87.144531 22.242188 Z M 85.863281 28.476562 L 84.085938 28.476562 C 83.941406 28.476562 83.835938 28.445312 83.769531 28.378906 C 83.703125 28.3125 83.671875 28.207031 83.671875 28.0625 L 83.671875 20.582031 C 83.671875 20.4375 83.703125 20.332031 83.769531 20.265625 C 83.835938 20.199219 83.941406 20.164062 84.085938 20.164062 L 87.929688 20.164062 C 88.792969 20.164062 89.386719 20.347656 89.710938 20.707031 C 90.039062 21.066406 90.203125 21.527344 90.203125 22.097656 L 90.203125 22.625 C 90.203125 22.949219 90.152344 23.226562 90.054688 23.453125 C 89.960938 23.679688 89.796875 23.839844 89.554688 23.941406 C 89.972656 23.988281 90.308594 24.15625 90.566406 24.453125 C 90.824219 24.742188 90.953125 25.132812 90.953125 25.613281 L 90.953125 28.0625 C 90.953125 28.207031 90.917969 28.3125 90.851562 28.378906 C 90.789062 28.445312 90.683594 28.476562 90.535156 28.476562 L 88.75 28.476562 C 88.601562 28.476562 88.496094 28.445312 88.429688 28.378906 C 88.363281 28.3125 88.332031 28.207031 88.332031 28.0625 L 88.332031 26.296875 C 88.332031 26.125 88.296875 26 88.234375 25.921875 C 88.167969 25.839844 88.054688 25.800781 87.894531 25.800781 L 86.28125 25.800781 L 86.28125 28.0625 C 86.28125 28.207031 86.246094 28.3125 86.179688 28.378906 C 86.113281 28.445312 86.007812 28.476562 85.863281 28.476562 Z M 85.863281 28.476562 "/>
<path style=" stroke:none;fill-rule:nonzero;fill:rgb(100%,100%,100%);fill-opacity:1;" d="M 97.285156 28.476562 L 93.398438 28.476562 C 93.253906 28.476562 93.144531 28.445312 93.082031 28.378906 C 93.015625 28.3125 92.980469 28.207031 92.980469 28.0625 L 92.980469 20.582031 C 92.980469 20.4375 93.015625 20.332031 93.082031 20.265625 C 93.144531 20.199219 93.253906 20.164062 93.398438 20.164062 L 97.285156 20.164062 C 98.246094 20.164062 98.957031 20.359375 99.425781 20.742188 C 99.894531 21.128906 100.128906 21.722656 100.128906 22.523438 L 100.128906 26.125 C 100.128906 26.921875 99.894531 27.515625 99.425781 27.898438 C 98.957031 28.285156 98.246094 28.476562 97.285156 28.476562 Z M 95.601562 22.375 L 95.601562 26.296875 L 96.976562 26.296875 C 97.160156 26.296875 97.296875 26.25 97.382812 26.160156 C 97.472656 26.066406 97.519531 25.925781 97.519531 25.734375 L 97.519531 22.925781 C 97.519531 22.734375 97.472656 22.597656 97.382812 22.507812 C 97.296875 22.417969 97.160156 22.375 96.976562 22.375 Z M 95.601562 22.375 "/>
<g clip-path="url(#clip3)" clip-rule="nonzero">
<path style=" stroke:none;fill-rule:nonzero;fill:rgb(20.784314%,38.431373%,39.215686%);fill-opacity:1;" d="M 28.109375 9.785156 L 7.628906 9.785156 C 5.898438 9.785156 4.492188 11.1875 4.492188 12.921875 L 4.492188 33.511719 C 4.492188 35.25 5.898438 36.648438 7.628906 36.648438 L 24.960938 36.648438 L 24.152344 33.832031 L 26.109375 35.644531 L 27.957031 37.351562 L 31.242188 40.242188 L 31.242188 12.921875 C 31.242188 11.1875 29.835938 9.785156 28.109375 9.785156 Z M 22.210938 29.675781 C 22.210938 29.675781 21.660156 29.019531 21.203125 28.441406 C 23.203125 27.878906 23.96875 26.628906 23.96875 26.628906 C 23.339844 27.039062 22.746094 27.328125 22.210938 27.527344 C 21.445312 27.847656 20.710938 28.0625 19.992188 28.183594 C 18.527344 28.457031 17.179688 28.378906 16.035156 28.167969 C 15.164062 28 14.414062 27.757812 13.789062 27.511719 C 13.4375 27.375 13.054688 27.207031 12.671875 26.996094 C 12.625 26.964844 12.582031 26.949219 12.535156 26.917969 C 12.503906 26.902344 12.488281 26.886719 12.472656 26.871094 C 12.199219 26.722656 12.046875 26.613281 12.046875 26.613281 C 12.046875 26.613281 12.777344 27.832031 14.71875 28.410156 C 14.261719 28.992188 13.695312 29.675781 13.695312 29.675781 C 10.316406 29.570312 9.035156 27.359375 9.035156 27.359375 C 9.035156 22.457031 11.234375 18.480469 11.234375 18.480469 C 13.4375 16.835938 15.53125 16.882812 15.53125 16.882812 L 15.683594 17.066406 C 12.933594 17.859375 11.664062 19.0625 11.664062 19.0625 C 11.664062 19.0625 12 18.878906 12.566406 18.617188 C 14.199219 17.902344 15.5 17.707031 16.035156 17.660156 C 16.125 17.644531 16.203125 17.628906 16.292969 17.628906 C 17.226562 17.507812 18.28125 17.476562 19.382812 17.597656 C 20.835938 17.765625 22.394531 18.191406 23.984375 19.0625 C 23.984375 19.0625 22.777344 17.917969 20.175781 17.125 L 20.390625 16.882812 C 20.390625 16.882812 22.484375 16.835938 24.6875 18.480469 C 24.6875 18.480469 26.886719 22.457031 26.886719 27.359375 C 26.886719 27.359375 25.585938 29.570312 22.210938 29.675781 Z M 15.101562 22.5625 C 14.230469 22.5625 13.542969 23.324219 13.542969 24.253906 C 13.542969 25.183594 14.246094 25.945312 15.101562 25.945312 C 15.972656 25.945312 16.660156 25.183594 16.660156 24.253906 C 16.675781 23.324219 15.972656 22.5625 15.101562 22.5625 M 20.683594 22.5625 C 19.808594 22.5625 19.121094 23.324219 19.121094 24.253906 C 19.121094 25.183594 19.824219 25.945312 20.683594 25.945312 C 21.550781 25.945312 22.242188 25.183594 22.242188 24.253906 C 22.242188 23.324219 21.550781 22.5625 20.683594 22.5625 "/>
</g>
</g>
</svg>
