<svg xmlns="http://www.w3.org/2000/svg" xmlns:xlink="http://www.w3.org/1999/xlink" width="600" zoomAndPan="magnify" viewBox="0 0 450 149.999998" height="200" preserveAspectRatio="xMidYMid meet" version="1.0"><defs><g/><clipPath id="065d0ccf57"><path d="M 23.332031 21.070312 L 446.949219 21.070312 L 446.949219 127.839844 L 23.332031 127.839844 Z M 23.332031 21.070312 " clip-rule="nonzero"/></clipPath><clipPath id="f2f9490e58"><path d="M 76.714844 21.070312 L 393.5625 21.070312 C 407.722656 21.070312 421.300781 26.695312 431.3125 36.703125 C 441.324219 46.714844 446.949219 60.296875 446.949219 74.453125 C 446.949219 88.613281 441.324219 102.191406 431.3125 112.203125 C 421.300781 122.214844 407.722656 127.839844 393.5625 127.839844 L 76.714844 127.839844 C 62.558594 127.839844 48.976562 122.214844 38.964844 112.203125 C 28.953125 102.191406 23.332031 88.613281 23.332031 74.453125 C 23.332031 60.296875 28.953125 46.714844 38.964844 36.703125 C 48.976562 26.695312 62.558594 21.070312 76.714844 21.070312 Z M 76.714844 21.070312 " clip-rule="nonzero"/></clipPath><clipPath id="741aa9d150"><path d="M 13.480469 29.300781 L 93.730469 29.300781 L 93.730469 120.800781 L 13.480469 120.800781 Z M 13.480469 29.300781 " clip-rule="nonzero"/></clipPath></defs><g clip-path="url(#065d0ccf57)"><g clip-path="url(#f2f9490e58)"><path fill="#5ce1e6" d="M 23.332031 21.070312 L 446.949219 21.070312 L 446.949219 127.839844 L 23.332031 127.839844 Z M 23.332031 21.070312 " fill-opacity="1" fill-rule="nonzero"/></g></g><g fill="#0d4244" fill-opacity="0.302"><g transform="translate(124.075617, 88.495451)"><g><path d="M 15.296875 0 L 3.640625 0 C 3.203125 0 2.882812 -0.0976562 2.6875 -0.296875 C 2.488281 -0.492188 2.390625 -0.8125 2.390625 -1.25 L 2.390625 -23.6875 C 2.390625 -24.125 2.488281 -24.441406 2.6875 -24.640625 C 2.882812 -24.835938 3.203125 -24.9375 3.640625 -24.9375 L 15.296875 -24.9375 C 18.179688 -24.9375 20.320312 -24.359375 21.71875 -23.203125 C 23.125 -22.046875 23.828125 -20.265625 23.828125 -17.859375 L 23.828125 -7.0625 C 23.828125 -4.664062 23.125 -2.890625 21.71875 -1.734375 C 20.320312 -0.578125 18.179688 0 15.296875 0 Z M 10.25 -18.3125 L 10.25 -6.546875 L 14.375 -6.546875 C 14.925781 -6.546875 15.332031 -6.679688 15.59375 -6.953125 C 15.863281 -7.234375 16 -7.660156 16 -8.234375 L 16 -16.65625 C 16 -17.226562 15.863281 -17.644531 15.59375 -17.90625 C 15.332031 -18.175781 14.925781 -18.3125 14.375 -18.3125 Z M 10.25 -18.3125 "/></g></g></g><g fill="#0d4244" fill-opacity="0.302"><g transform="translate(152.116565, 88.495451)"><g><path d="M 3.078125 0 C 2.640625 0 2.320312 -0.0976562 2.125 -0.296875 C 1.925781 -0.492188 1.828125 -0.8125 1.828125 -1.25 L 1.828125 -5.359375 C 1.828125 -5.804688 1.925781 -6.125 2.125 -6.3125 C 2.320312 -6.507812 2.640625 -6.609375 3.078125 -6.609375 L 6.515625 -6.609375 L 6.515625 -18.25 L 3.078125 -18.25 C 2.640625 -18.25 2.320312 -18.347656 2.125 -18.546875 C 1.925781 -18.742188 1.828125 -19.0625 1.828125 -19.5 L 1.828125 -23.6875 C 1.828125 -24.125 1.925781 -24.441406 2.125 -24.640625 C 2.320312 -24.835938 2.640625 -24.9375 3.078125 -24.9375 L 17.828125 -24.9375 C 18.265625 -24.9375 18.582031 -24.835938 18.78125 -24.640625 C 18.976562 -24.441406 19.078125 -24.125 19.078125 -23.6875 L 19.078125 -19.5 C 19.078125 -19.0625 18.976562 -18.742188 18.78125 -18.546875 C 18.582031 -18.347656 18.265625 -18.25 17.828125 -18.25 L 14.46875 -18.25 L 14.46875 -6.609375 L 17.828125 -6.609375 C 18.265625 -6.609375 18.582031 -6.507812 18.78125 -6.3125 C 18.976562 -6.125 19.078125 -5.804688 19.078125 -5.359375 L 19.078125 -1.25 C 19.078125 -0.8125 18.976562 -0.492188 18.78125 -0.296875 C 18.582031 -0.0976562 18.265625 0 17.828125 0 Z M 3.078125 0 "/></g></g></g><g fill="#0d4244" fill-opacity="0.302"><g transform="translate(175.276325, 88.495451)"><g><path d="M 13.953125 0 L 3.015625 0 C 2.578125 0 2.257812 -0.0976562 2.0625 -0.296875 C 1.863281 -0.492188 1.765625 -0.8125 1.765625 -1.25 L 1.765625 -5.296875 C 1.765625 -5.734375 1.863281 -6.050781 2.0625 -6.25 C 2.257812 -6.445312 2.578125 -6.546875 3.015625 -6.546875 L 12.328125 -6.546875 C 12.628906 -6.546875 12.851562 -6.640625 13 -6.828125 C 13.15625 -7.023438 13.234375 -7.265625 13.234375 -7.546875 C 13.234375 -7.941406 13.15625 -8.226562 13 -8.40625 C 12.851562 -8.59375 12.628906 -8.695312 12.328125 -8.71875 L 7.125 -9.453125 C 5.507812 -9.679688 4.210938 -10.210938 3.234375 -11.046875 C 2.253906 -11.878906 1.765625 -13.265625 1.765625 -15.203125 L 1.765625 -18.84375 C 1.765625 -20.800781 2.398438 -22.304688 3.671875 -23.359375 C 4.941406 -24.410156 6.695312 -24.9375 8.9375 -24.9375 L 18.625 -24.9375 C 19.0625 -24.9375 19.378906 -24.835938 19.578125 -24.640625 C 19.773438 -24.441406 19.875 -24.125 19.875 -23.6875 L 19.875 -19.5625 C 19.875 -19.125 19.773438 -18.804688 19.578125 -18.609375 C 19.378906 -18.410156 19.0625 -18.3125 18.625 -18.3125 L 10.5625 -18.3125 C 10.257812 -18.3125 10.023438 -18.210938 9.859375 -18.015625 C 9.703125 -17.828125 9.625 -17.582031 9.625 -17.28125 C 9.625 -16.976562 9.703125 -16.722656 9.859375 -16.515625 C 10.023438 -16.304688 10.257812 -16.191406 10.5625 -16.171875 L 15.71875 -15.484375 C 17.332031 -15.242188 18.632812 -14.707031 19.625 -13.875 C 20.625 -13.050781 21.125 -11.671875 21.125 -9.734375 L 21.125 -6.09375 C 21.125 -4.132812 20.484375 -2.628906 19.203125 -1.578125 C 17.921875 -0.523438 16.171875 0 13.953125 0 Z M 13.953125 0 "/></g></g></g><g fill="#0d4244" fill-opacity="0.302"><g transform="translate(199.993913, 88.495451)"><g><path d="M 18.96875 0 L 10.53125 0 C 7.644531 0 5.503906 -0.578125 4.109375 -1.734375 C 2.710938 -2.890625 2.015625 -4.664062 2.015625 -7.0625 L 2.015625 -17.828125 C 2.015625 -20.234375 2.710938 -22.019531 4.109375 -23.1875 C 5.503906 -24.351562 7.644531 -24.9375 10.53125 -24.9375 L 18.96875 -24.9375 C 19.40625 -24.9375 19.722656 -24.835938 19.921875 -24.640625 C 20.117188 -24.441406 20.21875 -24.125 20.21875 -23.6875 L 20.21875 -19.5 C 20.21875 -19.0625 20.117188 -18.742188 19.921875 -18.546875 C 19.722656 -18.347656 19.40625 -18.25 18.96875 -18.25 L 12.015625 -18.25 C 11.296875 -18.25 10.765625 -18.101562 10.421875 -17.8125 C 10.078125 -17.519531 9.90625 -17.085938 9.90625 -16.515625 L 9.90625 -8.28125 C 9.90625 -7.695312 10.078125 -7.269531 10.421875 -7 C 10.765625 -6.738281 11.296875 -6.609375 12.015625 -6.609375 L 18.96875 -6.609375 C 19.40625 -6.609375 19.722656 -6.507812 19.921875 -6.3125 C 20.117188 -6.125 20.21875 -5.804688 20.21875 -5.359375 L 20.21875 -1.25 C 20.21875 -0.8125 20.117188 -0.492188 19.921875 -0.296875 C 19.722656 -0.0976562 19.40625 0 18.96875 0 Z M 18.96875 0 "/></g></g></g><g fill="#0d4244" fill-opacity="0.302"><g transform="translate(223.949899, 88.495451)"><g><path d="M 23.515625 -6.546875 C 23.515625 -5.484375 23.359375 -4.519531 23.046875 -3.65625 C 22.734375 -2.789062 22.175781 -2.050781 21.375 -1.4375 C 20.582031 -0.820312 19.488281 -0.34375 18.09375 0 C 16.695312 0.34375 14.925781 0.515625 12.78125 0.515625 C 10.632812 0.515625 8.851562 0.34375 7.4375 0 C 6.03125 -0.34375 4.925781 -0.820312 4.125 -1.4375 C 3.332031 -2.050781 2.78125 -2.789062 2.46875 -3.65625 C 2.164062 -4.519531 2.015625 -5.484375 2.015625 -6.546875 L 2.015625 -18.34375 C 2.015625 -19.40625 2.164062 -20.367188 2.46875 -21.234375 C 2.78125 -22.109375 3.332031 -22.851562 4.125 -23.46875 C 4.925781 -24.09375 6.03125 -24.578125 7.4375 -24.921875 C 8.851562 -25.273438 10.632812 -25.453125 12.78125 -25.453125 C 14.925781 -25.453125 16.695312 -25.273438 18.09375 -24.921875 C 19.488281 -24.578125 20.582031 -24.09375 21.375 -23.46875 C 22.175781 -22.851562 22.734375 -22.109375 23.046875 -21.234375 C 23.359375 -20.367188 23.515625 -19.40625 23.515625 -18.34375 Z M 9.875 -7.796875 C 9.875 -7.328125 10.046875 -6.9375 10.390625 -6.625 C 10.734375 -6.3125 11.53125 -6.15625 12.78125 -6.15625 C 14.019531 -6.15625 14.8125 -6.3125 15.15625 -6.625 C 15.507812 -6.9375 15.6875 -7.328125 15.6875 -7.796875 L 15.6875 -17.109375 C 15.6875 -17.546875 15.507812 -17.921875 15.15625 -18.234375 C 14.8125 -18.546875 14.019531 -18.703125 12.78125 -18.703125 C 11.53125 -18.703125 10.734375 -18.546875 10.390625 -18.234375 C 10.046875 -17.921875 9.875 -17.546875 9.875 -17.109375 Z M 9.875 -7.796875 "/></g></g></g><g fill="#0d4244" fill-opacity="0.302"><g transform="translate(251.679286, 88.495451)"><g><path d="M 10.21875 -18.703125 L 10.21875 -14.265625 L 12.8125 -14.265625 C 13.414062 -14.265625 13.816406 -14.421875 14.015625 -14.734375 C 14.222656 -15.046875 14.328125 -15.429688 14.328125 -15.890625 L 14.328125 -17.0625 C 14.328125 -17.53125 14.222656 -17.921875 14.015625 -18.234375 C 13.816406 -18.546875 13.414062 -18.703125 12.8125 -18.703125 Z M 8.96875 0 L 3.640625 0 C 3.203125 0 2.882812 -0.0976562 2.6875 -0.296875 C 2.488281 -0.492188 2.390625 -0.8125 2.390625 -1.25 L 2.390625 -23.6875 C 2.390625 -24.125 2.488281 -24.441406 2.6875 -24.640625 C 2.882812 -24.835938 3.203125 -24.9375 3.640625 -24.9375 L 15.171875 -24.9375 C 17.753906 -24.9375 19.535156 -24.394531 20.515625 -23.3125 C 21.492188 -22.238281 21.984375 -20.847656 21.984375 -19.140625 L 21.984375 -17.5625 C 21.984375 -16.582031 21.835938 -15.753906 21.546875 -15.078125 C 21.265625 -14.398438 20.765625 -13.910156 20.046875 -13.609375 C 21.296875 -13.472656 22.304688 -12.960938 23.078125 -12.078125 C 23.847656 -11.203125 24.234375 -10.039062 24.234375 -8.59375 L 24.234375 -1.25 C 24.234375 -0.8125 24.132812 -0.492188 23.9375 -0.296875 C 23.75 -0.0976562 23.429688 0 22.984375 0 L 17.625 0 C 17.1875 0 16.867188 -0.0976562 16.671875 -0.296875 C 16.472656 -0.492188 16.375 -0.8125 16.375 -1.25 L 16.375 -6.546875 C 16.375 -7.054688 16.273438 -7.429688 16.078125 -7.671875 C 15.878906 -7.910156 15.539062 -8.03125 15.0625 -8.03125 L 10.21875 -8.03125 L 10.21875 -1.25 C 10.21875 -0.8125 10.117188 -0.492188 9.921875 -0.296875 C 9.722656 -0.0976562 9.40625 0 8.96875 0 Z M 8.96875 0 "/></g></g></g><g fill="#0d4244" fill-opacity="0.302"><g transform="translate(279.616373, 88.495451)"><g><path d="M 15.296875 0 L 3.640625 0 C 3.203125 0 2.882812 -0.0976562 2.6875 -0.296875 C 2.488281 -0.492188 2.390625 -0.8125 2.390625 -1.25 L 2.390625 -23.6875 C 2.390625 -24.125 2.488281 -24.441406 2.6875 -24.640625 C 2.882812 -24.835938 3.203125 -24.9375 3.640625 -24.9375 L 15.296875 -24.9375 C 18.179688 -24.9375 20.320312 -24.359375 21.71875 -23.203125 C 23.125 -22.046875 23.828125 -20.265625 23.828125 -17.859375 L 23.828125 -7.0625 C 23.828125 -4.664062 23.125 -2.890625 21.71875 -1.734375 C 20.320312 -0.578125 18.179688 0 15.296875 0 Z M 10.25 -18.3125 L 10.25 -6.546875 L 14.375 -6.546875 C 14.925781 -6.546875 15.332031 -6.679688 15.59375 -6.953125 C 15.863281 -7.234375 16 -7.660156 16 -8.234375 L 16 -16.65625 C 16 -17.226562 15.863281 -17.644531 15.59375 -17.90625 C 15.332031 -18.175781 14.925781 -18.3125 14.375 -18.3125 Z M 10.25 -18.3125 "/></g></g></g><g fill="#0d4244" fill-opacity="0.502"><g transform="translate(122.545631, 86.965466)"><g><path d="M 15.296875 0 L 3.640625 0 C 3.203125 0 2.882812 -0.0976562 2.6875 -0.296875 C 2.488281 -0.492188 2.390625 -0.8125 2.390625 -1.25 L 2.390625 -23.6875 C 2.390625 -24.125 2.488281 -24.441406 2.6875 -24.640625 C 2.882812 -24.835938 3.203125 -24.9375 3.640625 -24.9375 L 15.296875 -24.9375 C 18.179688 -24.9375 20.320312 -24.359375 21.71875 -23.203125 C 23.125 -22.046875 23.828125 -20.265625 23.828125 -17.859375 L 23.828125 -7.0625 C 23.828125 -4.664062 23.125 -2.890625 21.71875 -1.734375 C 20.320312 -0.578125 18.179688 0 15.296875 0 Z M 10.25 -18.3125 L 10.25 -6.546875 L 14.375 -6.546875 C 14.925781 -6.546875 15.332031 -6.679688 15.59375 -6.953125 C 15.863281 -7.234375 16 -7.660156 16 -8.234375 L 16 -16.65625 C 16 -17.226562 15.863281 -17.644531 15.59375 -17.90625 C 15.332031 -18.175781 14.925781 -18.3125 14.375 -18.3125 Z M 10.25 -18.3125 "/></g></g></g><g fill="#0d4244" fill-opacity="0.502"><g transform="translate(150.586579, 86.965466)"><g><path d="M 3.078125 0 C 2.640625 0 2.320312 -0.0976562 2.125 -0.296875 C 1.925781 -0.492188 1.828125 -0.8125 1.828125 -1.25 L 1.828125 -5.359375 C 1.828125 -5.804688 1.925781 -6.125 2.125 -6.3125 C 2.320312 -6.507812 2.640625 -6.609375 3.078125 -6.609375 L 6.515625 -6.609375 L 6.515625 -18.25 L 3.078125 -18.25 C 2.640625 -18.25 2.320312 -18.347656 2.125 -18.546875 C 1.925781 -18.742188 1.828125 -19.0625 1.828125 -19.5 L 1.828125 -23.6875 C 1.828125 -24.125 1.925781 -24.441406 2.125 -24.640625 C 2.320312 -24.835938 2.640625 -24.9375 3.078125 -24.9375 L 17.828125 -24.9375 C 18.265625 -24.9375 18.582031 -24.835938 18.78125 -24.640625 C 18.976562 -24.441406 19.078125 -24.125 19.078125 -23.6875 L 19.078125 -19.5 C 19.078125 -19.0625 18.976562 -18.742188 18.78125 -18.546875 C 18.582031 -18.347656 18.265625 -18.25 17.828125 -18.25 L 14.46875 -18.25 L 14.46875 -6.609375 L 17.828125 -6.609375 C 18.265625 -6.609375 18.582031 -6.507812 18.78125 -6.3125 C 18.976562 -6.125 19.078125 -5.804688 19.078125 -5.359375 L 19.078125 -1.25 C 19.078125 -0.8125 18.976562 -0.492188 18.78125 -0.296875 C 18.582031 -0.0976562 18.265625 0 17.828125 0 Z M 3.078125 0 "/></g></g></g><g fill="#0d4244" fill-opacity="0.502"><g transform="translate(173.74634, 86.965466)"><g><path d="M 13.953125 0 L 3.015625 0 C 2.578125 0 2.257812 -0.0976562 2.0625 -0.296875 C 1.863281 -0.492188 1.765625 -0.8125 1.765625 -1.25 L 1.765625 -5.296875 C 1.765625 -5.734375 1.863281 -6.050781 2.0625 -6.25 C 2.257812 -6.445312 2.578125 -6.546875 3.015625 -6.546875 L 12.328125 -6.546875 C 12.628906 -6.546875 12.851562 -6.640625 13 -6.828125 C 13.15625 -7.023438 13.234375 -7.265625 13.234375 -7.546875 C 13.234375 -7.941406 13.15625 -8.226562 13 -8.40625 C 12.851562 -8.59375 12.628906 -8.695312 12.328125 -8.71875 L 7.125 -9.453125 C 5.507812 -9.679688 4.210938 -10.210938 3.234375 -11.046875 C 2.253906 -11.878906 1.765625 -13.265625 1.765625 -15.203125 L 1.765625 -18.84375 C 1.765625 -20.800781 2.398438 -22.304688 3.671875 -23.359375 C 4.941406 -24.410156 6.695312 -24.9375 8.9375 -24.9375 L 18.625 -24.9375 C 19.0625 -24.9375 19.378906 -24.835938 19.578125 -24.640625 C 19.773438 -24.441406 19.875 -24.125 19.875 -23.6875 L 19.875 -19.5625 C 19.875 -19.125 19.773438 -18.804688 19.578125 -18.609375 C 19.378906 -18.410156 19.0625 -18.3125 18.625 -18.3125 L 10.5625 -18.3125 C 10.257812 -18.3125 10.023438 -18.210938 9.859375 -18.015625 C 9.703125 -17.828125 9.625 -17.582031 9.625 -17.28125 C 9.625 -16.976562 9.703125 -16.722656 9.859375 -16.515625 C 10.023438 -16.304688 10.257812 -16.191406 10.5625 -16.171875 L 15.71875 -15.484375 C 17.332031 -15.242188 18.632812 -14.707031 19.625 -13.875 C 20.625 -13.050781 21.125 -11.671875 21.125 -9.734375 L 21.125 -6.09375 C 21.125 -4.132812 20.484375 -2.628906 19.203125 -1.578125 C 17.921875 -0.523438 16.171875 0 13.953125 0 Z M 13.953125 0 "/></g></g></g><g fill="#0d4244" fill-opacity="0.502"><g transform="translate(198.463927, 86.965466)"><g><path d="M 18.96875 0 L 10.53125 0 C 7.644531 0 5.503906 -0.578125 4.109375 -1.734375 C 2.710938 -2.890625 2.015625 -4.664062 2.015625 -7.0625 L 2.015625 -17.828125 C 2.015625 -20.234375 2.710938 -22.019531 4.109375 -23.1875 C 5.503906 -24.351562 7.644531 -24.9375 10.53125 -24.9375 L 18.96875 -24.9375 C 19.40625 -24.9375 19.722656 -24.835938 19.921875 -24.640625 C 20.117188 -24.441406 20.21875 -24.125 20.21875 -23.6875 L 20.21875 -19.5 C 20.21875 -19.0625 20.117188 -18.742188 19.921875 -18.546875 C 19.722656 -18.347656 19.40625 -18.25 18.96875 -18.25 L 12.015625 -18.25 C 11.296875 -18.25 10.765625 -18.101562 10.421875 -17.8125 C 10.078125 -17.519531 9.90625 -17.085938 9.90625 -16.515625 L 9.90625 -8.28125 C 9.90625 -7.695312 10.078125 -7.269531 10.421875 -7 C 10.765625 -6.738281 11.296875 -6.609375 12.015625 -6.609375 L 18.96875 -6.609375 C 19.40625 -6.609375 19.722656 -6.507812 19.921875 -6.3125 C 20.117188 -6.125 20.21875 -5.804688 20.21875 -5.359375 L 20.21875 -1.25 C 20.21875 -0.8125 20.117188 -0.492188 19.921875 -0.296875 C 19.722656 -0.0976562 19.40625 0 18.96875 0 Z M 18.96875 0 "/></g></g></g><g fill="#0d4244" fill-opacity="0.502"><g transform="translate(222.419913, 86.965466)"><g><path d="M 23.515625 -6.546875 C 23.515625 -5.484375 23.359375 -4.519531 23.046875 -3.65625 C 22.734375 -2.789062 22.175781 -2.050781 21.375 -1.4375 C 20.582031 -0.820312 19.488281 -0.34375 18.09375 0 C 16.695312 0.34375 14.925781 0.515625 12.78125 0.515625 C 10.632812 0.515625 8.851562 0.34375 7.4375 0 C 6.03125 -0.34375 4.925781 -0.820312 4.125 -1.4375 C 3.332031 -2.050781 2.78125 -2.789062 2.46875 -3.65625 C 2.164062 -4.519531 2.015625 -5.484375 2.015625 -6.546875 L 2.015625 -18.34375 C 2.015625 -19.40625 2.164062 -20.367188 2.46875 -21.234375 C 2.78125 -22.109375 3.332031 -22.851562 4.125 -23.46875 C 4.925781 -24.09375 6.03125 -24.578125 7.4375 -24.921875 C 8.851562 -25.273438 10.632812 -25.453125 12.78125 -25.453125 C 14.925781 -25.453125 16.695312 -25.273438 18.09375 -24.921875 C 19.488281 -24.578125 20.582031 -24.09375 21.375 -23.46875 C 22.175781 -22.851562 22.734375 -22.109375 23.046875 -21.234375 C 23.359375 -20.367188 23.515625 -19.40625 23.515625 -18.34375 Z M 9.875 -7.796875 C 9.875 -7.328125 10.046875 -6.9375 10.390625 -6.625 C 10.734375 -6.3125 11.53125 -6.15625 12.78125 -6.15625 C 14.019531 -6.15625 14.8125 -6.3125 15.15625 -6.625 C 15.507812 -6.9375 15.6875 -7.328125 15.6875 -7.796875 L 15.6875 -17.109375 C 15.6875 -17.546875 15.507812 -17.921875 15.15625 -18.234375 C 14.8125 -18.546875 14.019531 -18.703125 12.78125 -18.703125 C 11.53125 -18.703125 10.734375 -18.546875 10.390625 -18.234375 C 10.046875 -17.921875 9.875 -17.546875 9.875 -17.109375 Z M 9.875 -7.796875 "/></g></g></g><g fill="#0d4244" fill-opacity="0.502"><g transform="translate(250.149301, 86.965466)"><g><path d="M 10.21875 -18.703125 L 10.21875 -14.265625 L 12.8125 -14.265625 C 13.414062 -14.265625 13.816406 -14.421875 14.015625 -14.734375 C 14.222656 -15.046875 14.328125 -15.429688 14.328125 -15.890625 L 14.328125 -17.0625 C 14.328125 -17.53125 14.222656 -17.921875 14.015625 -18.234375 C 13.816406 -18.546875 13.414062 -18.703125 12.8125 -18.703125 Z M 8.96875 0 L 3.640625 0 C 3.203125 0 2.882812 -0.0976562 2.6875 -0.296875 C 2.488281 -0.492188 2.390625 -0.8125 2.390625 -1.25 L 2.390625 -23.6875 C 2.390625 -24.125 2.488281 -24.441406 2.6875 -24.640625 C 2.882812 -24.835938 3.203125 -24.9375 3.640625 -24.9375 L 15.171875 -24.9375 C 17.753906 -24.9375 19.535156 -24.394531 20.515625 -23.3125 C 21.492188 -22.238281 21.984375 -20.847656 21.984375 -19.140625 L 21.984375 -17.5625 C 21.984375 -16.582031 21.835938 -15.753906 21.546875 -15.078125 C 21.265625 -14.398438 20.765625 -13.910156 20.046875 -13.609375 C 21.296875 -13.472656 22.304688 -12.960938 23.078125 -12.078125 C 23.847656 -11.203125 24.234375 -10.039062 24.234375 -8.59375 L 24.234375 -1.25 C 24.234375 -0.8125 24.132812 -0.492188 23.9375 -0.296875 C 23.75 -0.0976562 23.429688 0 22.984375 0 L 17.625 0 C 17.1875 0 16.867188 -0.0976562 16.671875 -0.296875 C 16.472656 -0.492188 16.375 -0.8125 16.375 -1.25 L 16.375 -6.546875 C 16.375 -7.054688 16.273438 -7.429688 16.078125 -7.671875 C 15.878906 -7.910156 15.539062 -8.03125 15.0625 -8.03125 L 10.21875 -8.03125 L 10.21875 -1.25 C 10.21875 -0.8125 10.117188 -0.492188 9.921875 -0.296875 C 9.722656 -0.0976562 9.40625 0 8.96875 0 Z M 8.96875 0 "/></g></g></g><g fill="#0d4244" fill-opacity="0.502"><g transform="translate(278.086387, 86.965466)"><g><path d="M 15.296875 0 L 3.640625 0 C 3.203125 0 2.882812 -0.0976562 2.6875 -0.296875 C 2.488281 -0.492188 2.390625 -0.8125 2.390625 -1.25 L 2.390625 -23.6875 C 2.390625 -24.125 2.488281 -24.441406 2.6875 -24.640625 C 2.882812 -24.835938 3.203125 -24.9375 3.640625 -24.9375 L 15.296875 -24.9375 C 18.179688 -24.9375 20.320312 -24.359375 21.71875 -23.203125 C 23.125 -22.046875 23.828125 -20.265625 23.828125 -17.859375 L 23.828125 -7.0625 C 23.828125 -4.664062 23.125 -2.890625 21.71875 -1.734375 C 20.320312 -0.578125 18.179688 0 15.296875 0 Z M 10.25 -18.3125 L 10.25 -6.546875 L 14.375 -6.546875 C 14.925781 -6.546875 15.332031 -6.679688 15.59375 -6.953125 C 15.863281 -7.234375 16 -7.660156 16 -8.234375 L 16 -16.65625 C 16 -17.226562 15.863281 -17.644531 15.59375 -17.90625 C 15.332031 -18.175781 14.925781 -18.3125 14.375 -18.3125 Z M 10.25 -18.3125 "/></g></g></g><g fill="#ffffff" fill-opacity="1"><g transform="translate(121.015645, 85.43548)"><g><path d="M 15.296875 0 L 3.640625 0 C 3.203125 0 2.882812 -0.0976562 2.6875 -0.296875 C 2.488281 -0.492188 2.390625 -0.8125 2.390625 -1.25 L 2.390625 -23.6875 C 2.390625 -24.125 2.488281 -24.441406 2.6875 -24.640625 C 2.882812 -24.835938 3.203125 -24.9375 3.640625 -24.9375 L 15.296875 -24.9375 C 18.179688 -24.9375 20.320312 -24.359375 21.71875 -23.203125 C 23.125 -22.046875 23.828125 -20.265625 23.828125 -17.859375 L 23.828125 -7.0625 C 23.828125 -4.664062 23.125 -2.890625 21.71875 -1.734375 C 20.320312 -0.578125 18.179688 0 15.296875 0 Z M 10.25 -18.3125 L 10.25 -6.546875 L 14.375 -6.546875 C 14.925781 -6.546875 15.332031 -6.679688 15.59375 -6.953125 C 15.863281 -7.234375 16 -7.660156 16 -8.234375 L 16 -16.65625 C 16 -17.226562 15.863281 -17.644531 15.59375 -17.90625 C 15.332031 -18.175781 14.925781 -18.3125 14.375 -18.3125 Z M 10.25 -18.3125 "/></g></g></g><g fill="#ffffff" fill-opacity="1"><g transform="translate(149.056594, 85.43548)"><g><path d="M 3.078125 0 C 2.640625 0 2.320312 -0.0976562 2.125 -0.296875 C 1.925781 -0.492188 1.828125 -0.8125 1.828125 -1.25 L 1.828125 -5.359375 C 1.828125 -5.804688 1.925781 -6.125 2.125 -6.3125 C 2.320312 -6.507812 2.640625 -6.609375 3.078125 -6.609375 L 6.515625 -6.609375 L 6.515625 -18.25 L 3.078125 -18.25 C 2.640625 -18.25 2.320312 -18.347656 2.125 -18.546875 C 1.925781 -18.742188 1.828125 -19.0625 1.828125 -19.5 L 1.828125 -23.6875 C 1.828125 -24.125 1.925781 -24.441406 2.125 -24.640625 C 2.320312 -24.835938 2.640625 -24.9375 3.078125 -24.9375 L 17.828125 -24.9375 C 18.265625 -24.9375 18.582031 -24.835938 18.78125 -24.640625 C 18.976562 -24.441406 19.078125 -24.125 19.078125 -23.6875 L 19.078125 -19.5 C 19.078125 -19.0625 18.976562 -18.742188 18.78125 -18.546875 C 18.582031 -18.347656 18.265625 -18.25 17.828125 -18.25 L 14.46875 -18.25 L 14.46875 -6.609375 L 17.828125 -6.609375 C 18.265625 -6.609375 18.582031 -6.507812 18.78125 -6.3125 C 18.976562 -6.125 19.078125 -5.804688 19.078125 -5.359375 L 19.078125 -1.25 C 19.078125 -0.8125 18.976562 -0.492188 18.78125 -0.296875 C 18.582031 -0.0976562 18.265625 0 17.828125 0 Z M 3.078125 0 "/></g></g></g><g fill="#ffffff" fill-opacity="1"><g transform="translate(172.216354, 85.43548)"><g><path d="M 13.953125 0 L 3.015625 0 C 2.578125 0 2.257812 -0.0976562 2.0625 -0.296875 C 1.863281 -0.492188 1.765625 -0.8125 1.765625 -1.25 L 1.765625 -5.296875 C 1.765625 -5.734375 1.863281 -6.050781 2.0625 -6.25 C 2.257812 -6.445312 2.578125 -6.546875 3.015625 -6.546875 L 12.328125 -6.546875 C 12.628906 -6.546875 12.851562 -6.640625 13 -6.828125 C 13.15625 -7.023438 13.234375 -7.265625 13.234375 -7.546875 C 13.234375 -7.941406 13.15625 -8.226562 13 -8.40625 C 12.851562 -8.59375 12.628906 -8.695312 12.328125 -8.71875 L 7.125 -9.453125 C 5.507812 -9.679688 4.210938 -10.210938 3.234375 -11.046875 C 2.253906 -11.878906 1.765625 -13.265625 1.765625 -15.203125 L 1.765625 -18.84375 C 1.765625 -20.800781 2.398438 -22.304688 3.671875 -23.359375 C 4.941406 -24.410156 6.695312 -24.9375 8.9375 -24.9375 L 18.625 -24.9375 C 19.0625 -24.9375 19.378906 -24.835938 19.578125 -24.640625 C 19.773438 -24.441406 19.875 -24.125 19.875 -23.6875 L 19.875 -19.5625 C 19.875 -19.125 19.773438 -18.804688 19.578125 -18.609375 C 19.378906 -18.410156 19.0625 -18.3125 18.625 -18.3125 L 10.5625 -18.3125 C 10.257812 -18.3125 10.023438 -18.210938 9.859375 -18.015625 C 9.703125 -17.828125 9.625 -17.582031 9.625 -17.28125 C 9.625 -16.976562 9.703125 -16.722656 9.859375 -16.515625 C 10.023438 -16.304688 10.257812 -16.191406 10.5625 -16.171875 L 15.71875 -15.484375 C 17.332031 -15.242188 18.632812 -14.707031 19.625 -13.875 C 20.625 -13.050781 21.125 -11.671875 21.125 -9.734375 L 21.125 -6.09375 C 21.125 -4.132812 20.484375 -2.628906 19.203125 -1.578125 C 17.921875 -0.523438 16.171875 0 13.953125 0 Z M 13.953125 0 "/></g></g></g><g fill="#ffffff" fill-opacity="1"><g transform="translate(196.933942, 85.43548)"><g><path d="M 18.96875 0 L 10.53125 0 C 7.644531 0 5.503906 -0.578125 4.109375 -1.734375 C 2.710938 -2.890625 2.015625 -4.664062 2.015625 -7.0625 L 2.015625 -17.828125 C 2.015625 -20.234375 2.710938 -22.019531 4.109375 -23.1875 C 5.503906 -24.351562 7.644531 -24.9375 10.53125 -24.9375 L 18.96875 -24.9375 C 19.40625 -24.9375 19.722656 -24.835938 19.921875 -24.640625 C 20.117188 -24.441406 20.21875 -24.125 20.21875 -23.6875 L 20.21875 -19.5 C 20.21875 -19.0625 20.117188 -18.742188 19.921875 -18.546875 C 19.722656 -18.347656 19.40625 -18.25 18.96875 -18.25 L 12.015625 -18.25 C 11.296875 -18.25 10.765625 -18.101562 10.421875 -17.8125 C 10.078125 -17.519531 9.90625 -17.085938 9.90625 -16.515625 L 9.90625 -8.28125 C 9.90625 -7.695312 10.078125 -7.269531 10.421875 -7 C 10.765625 -6.738281 11.296875 -6.609375 12.015625 -6.609375 L 18.96875 -6.609375 C 19.40625 -6.609375 19.722656 -6.507812 19.921875 -6.3125 C 20.117188 -6.125 20.21875 -5.804688 20.21875 -5.359375 L 20.21875 -1.25 C 20.21875 -0.8125 20.117188 -0.492188 19.921875 -0.296875 C 19.722656 -0.0976562 19.40625 0 18.96875 0 Z M 18.96875 0 "/></g></g></g><g fill="#ffffff" fill-opacity="1"><g transform="translate(220.889928, 85.43548)"><g><path d="M 23.515625 -6.546875 C 23.515625 -5.484375 23.359375 -4.519531 23.046875 -3.65625 C 22.734375 -2.789062 22.175781 -2.050781 21.375 -1.4375 C 20.582031 -0.820312 19.488281 -0.34375 18.09375 0 C 16.695312 0.34375 14.925781 0.515625 12.78125 0.515625 C 10.632812 0.515625 8.851562 0.34375 7.4375 0 C 6.03125 -0.34375 4.925781 -0.820312 4.125 -1.4375 C 3.332031 -2.050781 2.78125 -2.789062 2.46875 -3.65625 C 2.164062 -4.519531 2.015625 -5.484375 2.015625 -6.546875 L 2.015625 -18.34375 C 2.015625 -19.40625 2.164062 -20.367188 2.46875 -21.234375 C 2.78125 -22.109375 3.332031 -22.851562 4.125 -23.46875 C 4.925781 -24.09375 6.03125 -24.578125 7.4375 -24.921875 C 8.851562 -25.273438 10.632812 -25.453125 12.78125 -25.453125 C 14.925781 -25.453125 16.695312 -25.273438 18.09375 -24.921875 C 19.488281 -24.578125 20.582031 -24.09375 21.375 -23.46875 C 22.175781 -22.851562 22.734375 -22.109375 23.046875 -21.234375 C 23.359375 -20.367188 23.515625 -19.40625 23.515625 -18.34375 Z M 9.875 -7.796875 C 9.875 -7.328125 10.046875 -6.9375 10.390625 -6.625 C 10.734375 -6.3125 11.53125 -6.15625 12.78125 -6.15625 C 14.019531 -6.15625 14.8125 -6.3125 15.15625 -6.625 C 15.507812 -6.9375 15.6875 -7.328125 15.6875 -7.796875 L 15.6875 -17.109375 C 15.6875 -17.546875 15.507812 -17.921875 15.15625 -18.234375 C 14.8125 -18.546875 14.019531 -18.703125 12.78125 -18.703125 C 11.53125 -18.703125 10.734375 -18.546875 10.390625 -18.234375 C 10.046875 -17.921875 9.875 -17.546875 9.875 -17.109375 Z M 9.875 -7.796875 "/></g></g></g><g fill="#ffffff" fill-opacity="1"><g transform="translate(248.619315, 85.43548)"><g><path d="M 10.21875 -18.703125 L 10.21875 -14.265625 L 12.8125 -14.265625 C 13.414062 -14.265625 13.816406 -14.421875 14.015625 -14.734375 C 14.222656 -15.046875 14.328125 -15.429688 14.328125 -15.890625 L 14.328125 -17.0625 C 14.328125 -17.53125 14.222656 -17.921875 14.015625 -18.234375 C 13.816406 -18.546875 13.414062 -18.703125 12.8125 -18.703125 Z M 8.96875 0 L 3.640625 0 C 3.203125 0 2.882812 -0.0976562 2.6875 -0.296875 C 2.488281 -0.492188 2.390625 -0.8125 2.390625 -1.25 L 2.390625 -23.6875 C 2.390625 -24.125 2.488281 -24.441406 2.6875 -24.640625 C 2.882812 -24.835938 3.203125 -24.9375 3.640625 -24.9375 L 15.171875 -24.9375 C 17.753906 -24.9375 19.535156 -24.394531 20.515625 -23.3125 C 21.492188 -22.238281 21.984375 -20.847656 21.984375 -19.140625 L 21.984375 -17.5625 C 21.984375 -16.582031 21.835938 -15.753906 21.546875 -15.078125 C 21.265625 -14.398438 20.765625 -13.910156 20.046875 -13.609375 C 21.296875 -13.472656 22.304688 -12.960938 23.078125 -12.078125 C 23.847656 -11.203125 24.234375 -10.039062 24.234375 -8.59375 L 24.234375 -1.25 C 24.234375 -0.8125 24.132812 -0.492188 23.9375 -0.296875 C 23.75 -0.0976562 23.429688 0 22.984375 0 L 17.625 0 C 17.1875 0 16.867188 -0.0976562 16.671875 -0.296875 C 16.472656 -0.492188 16.375 -0.8125 16.375 -1.25 L 16.375 -6.546875 C 16.375 -7.054688 16.273438 -7.429688 16.078125 -7.671875 C 15.878906 -7.910156 15.539062 -8.03125 15.0625 -8.03125 L 10.21875 -8.03125 L 10.21875 -1.25 C 10.21875 -0.8125 10.117188 -0.492188 9.921875 -0.296875 C 9.722656 -0.0976562 9.40625 0 8.96875 0 Z M 8.96875 0 "/></g></g></g><g fill="#ffffff" fill-opacity="1"><g transform="translate(276.556401, 85.43548)"><g><path d="M 15.296875 0 L 3.640625 0 C 3.203125 0 2.882812 -0.0976562 2.6875 -0.296875 C 2.488281 -0.492188 2.390625 -0.8125 2.390625 -1.25 L 2.390625 -23.6875 C 2.390625 -24.125 2.488281 -24.441406 2.6875 -24.640625 C 2.882812 -24.835938 3.203125 -24.9375 3.640625 -24.9375 L 15.296875 -24.9375 C 18.179688 -24.9375 20.320312 -24.359375 21.71875 -23.203125 C 23.125 -22.046875 23.828125 -20.265625 23.828125 -17.859375 L 23.828125 -7.0625 C 23.828125 -4.664062 23.125 -2.890625 21.71875 -1.734375 C 20.320312 -0.578125 18.179688 0 15.296875 0 Z M 10.25 -18.3125 L 10.25 -6.546875 L 14.375 -6.546875 C 14.925781 -6.546875 15.332031 -6.679688 15.59375 -6.953125 C 15.863281 -7.234375 16 -7.660156 16 -8.234375 L 16 -16.65625 C 16 -17.226562 15.863281 -17.644531 15.59375 -17.90625 C 15.332031 -18.175781 14.925781 -18.3125 14.375 -18.3125 Z M 10.25 -18.3125 "/></g></g></g><g clip-path="url(#741aa9d150)"><path fill="#356264" d="M 84.332031 29.359375 L 22.882812 29.359375 C 17.699219 29.359375 13.480469 33.5625 13.480469 38.769531 L 13.480469 100.539062 C 13.480469 105.746094 17.699219 109.949219 22.882812 109.949219 L 74.886719 109.949219 L 72.453125 101.5 L 78.324219 106.933594 L 83.871094 112.050781 L 93.730469 120.730469 L 93.730469 38.765625 C 93.730469 33.558594 89.511719 29.355469 84.332031 29.355469 Z M 66.632812 89.027344 C 66.632812 89.027344 64.980469 87.0625 63.605469 85.324219 C 69.609375 83.636719 71.90625 79.886719 71.90625 79.886719 C 70.023438 81.121094 68.238281 81.988281 66.632812 82.582031 C 64.335938 83.542969 62.136719 84.183594 59.980469 84.546875 C 55.578125 85.371094 51.542969 85.140625 48.105469 84.503906 C 45.492188 84 43.242188 83.269531 41.363281 82.539062 C 40.308594 82.128906 39.160156 81.625 38.015625 80.984375 C 37.878906 80.894531 37.742188 80.847656 37.601562 80.757812 C 37.511719 80.710938 37.464844 80.664062 37.417969 80.617188 C 36.59375 80.164062 36.136719 79.84375 36.136719 79.84375 C 36.136719 79.84375 38.335938 83.5 44.160156 85.234375 C 42.785156 86.972656 41.089844 89.027344 41.089844 89.027344 C 30.953125 88.707031 27.101562 82.082031 27.101562 82.082031 C 27.101562 67.371094 33.707031 55.445312 33.707031 55.445312 C 40.308594 50.511719 46.589844 50.648438 46.589844 50.648438 L 47.050781 51.195312 C 38.796875 53.574219 34.988281 57.183594 34.988281 57.183594 C 34.988281 57.183594 35.996094 56.632812 37.695312 55.855469 C 42.601562 53.710938 46.5 53.117188 48.105469 52.980469 C 48.378906 52.933594 48.605469 52.886719 48.882812 52.886719 C 51.683594 52.523438 54.84375 52.429688 58.144531 52.796875 C 62.503906 53.296875 67.179688 54.578125 71.949219 57.183594 C 71.949219 57.183594 68.328125 53.753906 60.53125 51.378906 L 61.175781 50.648438 C 61.175781 50.648438 67.457031 50.511719 74.058594 55.445312 C 74.058594 55.445312 80.664062 67.371094 80.664062 82.082031 C 80.664062 82.082031 76.761719 88.707031 66.632812 89.027344 Z M 45.304688 67.6875 C 42.691406 67.6875 40.628906 69.976562 40.628906 72.761719 C 40.628906 75.546875 42.738281 77.832031 45.304688 77.832031 C 47.921875 77.832031 49.984375 75.546875 49.984375 72.761719 C 50.03125 69.976562 47.921875 67.6875 45.304688 67.6875 M 62.046875 67.6875 C 59.429688 67.6875 57.367188 69.976562 57.367188 72.761719 C 57.367188 75.546875 59.476562 77.832031 62.046875 77.832031 C 64.65625 77.832031 66.722656 75.546875 66.722656 72.761719 C 66.722656 69.976562 64.65625 67.6875 62.046875 67.6875 " fill-opacity="1" fill-rule="nonzero"/></g></svg>