<?xml version="1.0" encoding="UTF-8"?>
<svg xmlns="http://www.w3.org/2000/svg" xmlns:xlink="http://www.w3.org/1999/xlink" width="260px" height="87px" viewBox="0 0 261 87" version="1.1">
<defs>
<clipPath id="clip1">
  <path d="M 13.53125 12.222656 L 259.230469 12.222656 L 259.230469 74.148438 L 13.53125 74.148438 Z M 13.53125 12.222656 "/>
</clipPath>
<clipPath id="clip2">
  <path d="M 44.496094 12.222656 L 228.265625 12.222656 C 236.480469 12.222656 244.355469 15.484375 250.160156 21.289062 C 255.96875 27.09375 259.230469 34.972656 259.230469 43.183594 C 259.230469 51.394531 255.96875 59.269531 250.160156 65.078125 C 244.355469 70.882812 236.480469 74.148438 228.265625 74.148438 L 44.496094 74.148438 C 36.285156 74.148438 28.40625 70.882812 22.601562 65.078125 C 16.792969 59.269531 13.53125 51.394531 13.53125 43.183594 C 13.53125 34.972656 16.792969 27.09375 22.601562 21.289062 C 28.40625 15.484375 36.285156 12.222656 44.496094 12.222656 Z M 44.496094 12.222656 "/>
</clipPath>
<clipPath id="clip3">
  <path d="M 7.820312 17 L 54.363281 17 L 54.363281 70.066406 L 7.820312 70.066406 Z M 7.820312 17 "/>
</clipPath>
</defs>
<g id="surface1">
<g clip-path="url(#clip1)" clip-rule="nonzero">
<g clip-path="url(#clip2)" clip-rule="nonzero">
<path style=" stroke:none;fill-rule:nonzero;fill:rgb(36.078431%,88.235294%,90.196078%);fill-opacity:1;" d="M 13.53125 12.222656 L 259.230469 12.222656 L 259.230469 74.148438 L 13.53125 74.148438 Z M 13.53125 12.222656 "/>
</g>
</g>
<path style=" stroke:none;fill-rule:nonzero;fill:rgb(5.098039%,25.882353%,26.666667%);fill-opacity:0.301961;" d="M 80.835938 51.328125 L 74.074219 51.328125 C 73.820312 51.328125 73.636719 51.269531 73.523438 51.15625 C 73.40625 51.042969 73.351562 50.855469 73.351562 50.601562 L 73.351562 37.589844 C 73.351562 37.335938 73.40625 37.152344 73.523438 37.035156 C 73.636719 36.921875 73.820312 36.863281 74.074219 36.863281 L 80.835938 36.863281 C 82.507812 36.863281 83.75 37.199219 84.5625 37.871094 C 85.375 38.539062 85.785156 39.574219 85.785156 40.96875 L 85.785156 47.230469 C 85.785156 48.621094 85.375 49.652344 84.5625 50.320312 C 83.75 50.992188 82.507812 51.328125 80.835938 51.328125 Z M 77.910156 40.707031 L 77.910156 47.53125 L 80.300781 47.53125 C 80.621094 47.53125 80.855469 47.453125 81.007812 47.292969 C 81.164062 47.132812 81.242188 46.882812 81.242188 46.550781 L 81.242188 41.667969 C 81.242188 41.335938 81.164062 41.09375 81.007812 40.941406 C 80.855469 40.785156 80.621094 40.707031 80.300781 40.707031 Z M 77.910156 40.707031 "/>
<path style=" stroke:none;fill-rule:nonzero;fill:rgb(5.098039%,25.882353%,26.666667%);fill-opacity:0.301961;" d="M 90.011719 51.328125 C 89.757812 51.328125 89.574219 51.269531 89.460938 51.15625 C 89.34375 51.042969 89.289062 50.855469 89.289062 50.601562 L 89.289062 48.21875 C 89.289062 47.960938 89.34375 47.773438 89.460938 47.667969 C 89.574219 47.554688 89.757812 47.492188 90.011719 47.492188 L 92.007812 47.492188 L 92.007812 40.742188 L 90.011719 40.742188 C 89.757812 40.742188 89.574219 40.6875 89.460938 40.570312 C 89.34375 40.457031 89.289062 40.269531 89.289062 40.015625 L 89.289062 37.589844 C 89.289062 37.335938 89.34375 37.152344 89.460938 37.035156 C 89.574219 36.921875 89.757812 36.863281 90.011719 36.863281 L 98.566406 36.863281 C 98.820312 36.863281 99.003906 36.921875 99.121094 37.035156 C 99.234375 37.152344 99.292969 37.335938 99.292969 37.589844 L 99.292969 40.015625 C 99.292969 40.269531 99.234375 40.457031 99.121094 40.570312 C 99.003906 40.6875 98.820312 40.742188 98.566406 40.742188 L 96.621094 40.742188 L 96.621094 47.492188 L 98.566406 47.492188 C 98.820312 47.492188 99.003906 47.554688 99.121094 47.667969 C 99.234375 47.773438 99.292969 47.960938 99.292969 48.21875 L 99.292969 50.601562 C 99.292969 50.855469 99.234375 51.042969 99.121094 51.15625 C 99.003906 51.269531 98.820312 51.328125 98.566406 51.328125 Z M 90.011719 51.328125 "/>
<path style=" stroke:none;fill-rule:nonzero;fill:rgb(5.098039%,25.882353%,26.666667%);fill-opacity:0.301961;" d="M 109.753906 51.328125 L 103.410156 51.328125 C 103.15625 51.328125 102.96875 51.269531 102.855469 51.15625 C 102.742188 51.042969 102.683594 50.855469 102.683594 50.601562 L 102.683594 48.253906 C 102.683594 48 102.742188 47.816406 102.855469 47.703125 C 102.96875 47.589844 103.15625 47.53125 103.410156 47.53125 L 108.8125 47.53125 C 108.984375 47.53125 109.113281 47.476562 109.199219 47.367188 C 109.289062 47.253906 109.335938 47.113281 109.335938 46.949219 C 109.335938 46.722656 109.289062 46.554688 109.199219 46.453125 C 109.113281 46.34375 108.984375 46.285156 108.8125 46.269531 L 105.792969 45.84375 C 104.855469 45.714844 104.101562 45.40625 103.535156 44.921875 C 102.96875 44.4375 102.683594 43.632812 102.683594 42.507812 L 102.683594 40.398438 C 102.683594 39.261719 103.050781 38.390625 103.789062 37.777344 C 104.527344 37.167969 105.542969 36.863281 106.84375 36.863281 L 112.460938 36.863281 C 112.714844 36.863281 112.898438 36.921875 113.015625 37.035156 C 113.128906 37.152344 113.1875 37.335938 113.1875 37.589844 L 113.1875 39.980469 C 113.1875 40.234375 113.128906 40.421875 113.015625 40.535156 C 112.898438 40.648438 112.714844 40.707031 112.460938 40.707031 L 107.785156 40.707031 C 107.609375 40.707031 107.472656 40.765625 107.378906 40.878906 C 107.289062 40.988281 107.242188 41.128906 107.242188 41.304688 C 107.242188 41.480469 107.289062 41.628906 107.378906 41.75 C 107.472656 41.871094 107.609375 41.9375 107.785156 41.949219 L 110.777344 42.347656 C 111.710938 42.488281 112.46875 42.796875 113.042969 43.28125 C 113.621094 43.757812 113.914062 44.558594 113.914062 45.679688 L 113.914062 47.792969 C 113.914062 48.929688 113.542969 49.800781 112.796875 50.410156 C 112.054688 51.023438 111.039062 51.328125 109.753906 51.328125 Z M 109.753906 51.328125 "/>
<path style=" stroke:none;fill-rule:nonzero;fill:rgb(5.098039%,25.882353%,26.666667%);fill-opacity:0.301961;" d="M 127 51.328125 L 122.105469 51.328125 C 120.429688 51.328125 119.1875 50.992188 118.378906 50.320312 C 117.570312 49.652344 117.164062 48.621094 117.164062 47.230469 L 117.164062 40.988281 C 117.164062 39.589844 117.570312 38.554688 118.378906 37.878906 C 119.1875 37.203125 120.429688 36.863281 122.105469 36.863281 L 127 36.863281 C 127.253906 36.863281 127.4375 36.921875 127.550781 37.035156 C 127.664062 37.152344 127.722656 37.335938 127.722656 37.589844 L 127.722656 40.015625 C 127.722656 40.269531 127.664062 40.457031 127.550781 40.570312 C 127.4375 40.6875 127.253906 40.742188 127 40.742188 L 122.964844 40.742188 C 122.546875 40.742188 122.242188 40.828125 122.042969 40.996094 C 121.839844 41.167969 121.742188 41.417969 121.742188 41.75 L 121.742188 46.523438 C 121.742188 46.863281 121.839844 47.109375 122.042969 47.265625 C 122.242188 47.417969 122.546875 47.492188 122.964844 47.492188 L 127 47.492188 C 127.253906 47.492188 127.4375 47.554688 127.550781 47.667969 C 127.664062 47.773438 127.722656 47.960938 127.722656 48.21875 L 127.722656 50.601562 C 127.722656 50.855469 127.664062 51.042969 127.550781 51.15625 C 127.4375 51.269531 127.253906 51.328125 127 51.328125 Z M 127 51.328125 "/>
<path style=" stroke:none;fill-rule:nonzero;fill:rgb(5.098039%,25.882353%,26.666667%);fill-opacity:0.301961;" d="M 143.53125 47.53125 C 143.53125 48.144531 143.4375 48.707031 143.257812 49.207031 C 143.078125 49.710938 142.753906 50.136719 142.289062 50.492188 C 141.828125 50.851562 141.195312 51.128906 140.386719 51.328125 C 139.574219 51.527344 138.546875 51.625 137.304688 51.625 C 136.058594 51.625 135.023438 51.527344 134.203125 51.328125 C 133.390625 51.128906 132.746094 50.851562 132.285156 50.492188 C 131.824219 50.136719 131.503906 49.710938 131.324219 49.207031 C 131.144531 48.707031 131.058594 48.144531 131.058594 47.53125 L 131.058594 40.6875 C 131.058594 40.070312 131.144531 39.515625 131.324219 39.011719 C 131.503906 38.503906 131.824219 38.074219 132.285156 37.714844 C 132.746094 37.351562 133.390625 37.070312 134.203125 36.871094 C 135.023438 36.667969 136.058594 36.566406 137.304688 36.566406 C 138.546875 36.566406 139.574219 36.667969 140.386719 36.871094 C 141.195312 37.070312 141.828125 37.351562 142.289062 37.714844 C 142.753906 38.074219 143.078125 38.503906 143.257812 39.011719 C 143.4375 39.515625 143.53125 40.070312 143.53125 40.6875 Z M 135.617188 46.804688 C 135.617188 47.078125 135.71875 47.304688 135.917969 47.484375 C 136.117188 47.667969 136.578125 47.757812 137.304688 47.757812 C 138.023438 47.757812 138.480469 47.667969 138.679688 47.484375 C 138.886719 47.304688 138.988281 47.078125 138.988281 46.804688 L 138.988281 41.402344 C 138.988281 41.148438 138.886719 40.933594 138.679688 40.75 C 138.480469 40.570312 138.023438 40.480469 137.304688 40.480469 C 136.578125 40.480469 136.117188 40.570312 135.917969 40.75 C 135.71875 40.933594 135.617188 41.148438 135.617188 41.402344 Z M 135.617188 46.804688 "/>
<path style=" stroke:none;fill-rule:nonzero;fill:rgb(5.098039%,25.882353%,26.666667%);fill-opacity:0.301961;" d="M 151.902344 40.480469 L 151.902344 43.054688 L 153.40625 43.054688 C 153.753906 43.054688 153.988281 42.960938 154.101562 42.78125 C 154.222656 42.601562 154.285156 42.378906 154.285156 42.109375 L 154.285156 41.429688 C 154.285156 41.160156 154.222656 40.933594 154.101562 40.75 C 153.988281 40.570312 153.753906 40.480469 153.40625 40.480469 Z M 151.175781 51.328125 L 148.085938 51.328125 C 147.832031 51.328125 147.644531 51.269531 147.53125 51.15625 C 147.417969 51.042969 147.359375 50.855469 147.359375 50.601562 L 147.359375 37.589844 C 147.359375 37.335938 147.417969 37.152344 147.53125 37.035156 C 147.644531 36.921875 147.832031 36.863281 148.085938 36.863281 L 154.773438 36.863281 C 156.269531 36.863281 157.304688 37.179688 157.875 37.804688 C 158.441406 38.429688 158.726562 39.234375 158.726562 40.226562 L 158.726562 41.140625 C 158.726562 41.710938 158.640625 42.191406 158.472656 42.582031 C 158.308594 42.976562 158.019531 43.257812 157.601562 43.433594 C 158.328125 43.511719 158.910156 43.808594 159.359375 44.320312 C 159.804688 44.828125 160.03125 45.503906 160.03125 46.34375 L 160.03125 50.601562 C 160.03125 50.855469 159.972656 51.042969 159.859375 51.15625 C 159.75 51.269531 159.5625 51.328125 159.304688 51.328125 L 156.195312 51.328125 C 155.941406 51.328125 155.757812 51.269531 155.644531 51.15625 C 155.527344 51.042969 155.472656 50.855469 155.472656 50.601562 L 155.472656 47.53125 C 155.472656 47.234375 155.414062 47.019531 155.300781 46.878906 C 155.183594 46.738281 154.988281 46.667969 154.710938 46.667969 L 151.902344 46.667969 L 151.902344 50.601562 C 151.902344 50.855469 151.84375 51.042969 151.730469 51.15625 C 151.613281 51.269531 151.429688 51.328125 151.175781 51.328125 Z M 151.175781 51.328125 "/>
<path style=" stroke:none;fill-rule:nonzero;fill:rgb(5.098039%,25.882353%,26.666667%);fill-opacity:0.301961;" d="M 171.050781 51.328125 L 164.289062 51.328125 C 164.035156 51.328125 163.847656 51.269531 163.734375 51.15625 C 163.621094 51.042969 163.5625 50.855469 163.5625 50.601562 L 163.5625 37.589844 C 163.5625 37.335938 163.621094 37.152344 163.734375 37.035156 C 163.847656 36.921875 164.035156 36.863281 164.289062 36.863281 L 171.050781 36.863281 C 172.722656 36.863281 173.964844 37.199219 174.773438 37.871094 C 175.589844 38.539062 175.996094 39.574219 175.996094 40.96875 L 175.996094 47.230469 C 175.996094 48.621094 175.589844 49.652344 174.773438 50.320312 C 173.964844 50.992188 172.722656 51.328125 171.050781 51.328125 Z M 168.121094 40.707031 L 168.121094 47.53125 L 170.515625 47.53125 C 170.835938 47.53125 171.070312 47.453125 171.222656 47.292969 C 171.378906 47.132812 171.457031 46.882812 171.457031 46.550781 L 171.457031 41.667969 C 171.457031 41.335938 171.378906 41.09375 171.222656 40.941406 C 171.070312 40.785156 170.835938 40.707031 170.515625 40.707031 Z M 168.121094 40.707031 "/>
<path style=" stroke:none;fill-rule:nonzero;fill:rgb(5.098039%,25.882353%,26.666667%);fill-opacity:0.501961;" d="M 79.949219 50.441406 L 73.1875 50.441406 C 72.933594 50.441406 72.75 50.382812 72.636719 50.269531 C 72.519531 50.15625 72.464844 49.96875 72.464844 49.714844 L 72.464844 36.703125 C 72.464844 36.449219 72.519531 36.265625 72.636719 36.148438 C 72.75 36.035156 72.933594 35.976562 73.1875 35.976562 L 79.949219 35.976562 C 81.621094 35.976562 82.863281 36.3125 83.671875 36.980469 C 84.488281 37.652344 84.898438 38.6875 84.898438 40.082031 L 84.898438 46.34375 C 84.898438 47.734375 84.488281 48.761719 83.671875 49.433594 C 82.863281 50.105469 81.621094 50.441406 79.949219 50.441406 Z M 77.019531 39.820312 L 77.019531 46.644531 L 79.414062 46.644531 C 79.734375 46.644531 79.96875 46.566406 80.121094 46.40625 C 80.277344 46.242188 80.355469 45.996094 80.355469 45.664062 L 80.355469 40.78125 C 80.355469 40.449219 80.277344 40.207031 80.121094 40.054688 C 79.96875 39.898438 79.734375 39.820312 79.414062 39.820312 Z M 77.019531 39.820312 "/>
<path style=" stroke:none;fill-rule:nonzero;fill:rgb(5.098039%,25.882353%,26.666667%);fill-opacity:0.501961;" d="M 89.125 50.441406 C 88.871094 50.441406 88.6875 50.382812 88.574219 50.269531 C 88.457031 50.15625 88.402344 49.96875 88.402344 49.714844 L 88.402344 47.332031 C 88.402344 47.074219 88.457031 46.886719 88.574219 46.777344 C 88.6875 46.664062 88.871094 46.605469 89.125 46.605469 L 91.121094 46.605469 L 91.121094 39.855469 L 89.125 39.855469 C 88.871094 39.855469 88.6875 39.796875 88.574219 39.683594 C 88.457031 39.570312 88.402344 39.382812 88.402344 39.128906 L 88.402344 36.703125 C 88.402344 36.449219 88.457031 36.265625 88.574219 36.148438 C 88.6875 36.035156 88.871094 35.976562 89.125 35.976562 L 97.679688 35.976562 C 97.933594 35.976562 98.117188 36.035156 98.234375 36.148438 C 98.347656 36.265625 98.40625 36.449219 98.40625 36.703125 L 98.40625 39.128906 C 98.40625 39.382812 98.347656 39.570312 98.234375 39.683594 C 98.117188 39.796875 97.933594 39.855469 97.679688 39.855469 L 95.730469 39.855469 L 95.730469 46.605469 L 97.679688 46.605469 C 97.933594 46.605469 98.117188 46.664062 98.234375 46.777344 C 98.347656 46.886719 98.40625 47.074219 98.40625 47.332031 L 98.40625 49.714844 C 98.40625 49.96875 98.347656 50.15625 98.234375 50.269531 C 98.117188 50.382812 97.933594 50.441406 97.679688 50.441406 Z M 89.125 50.441406 "/>
<path style=" stroke:none;fill-rule:nonzero;fill:rgb(5.098039%,25.882353%,26.666667%);fill-opacity:0.501961;" d="M 108.867188 50.441406 L 102.523438 50.441406 C 102.269531 50.441406 102.082031 50.382812 101.96875 50.269531 C 101.855469 50.15625 101.796875 49.96875 101.796875 49.714844 L 101.796875 47.367188 C 101.796875 47.113281 101.855469 46.929688 101.96875 46.816406 C 102.082031 46.703125 102.269531 46.644531 102.523438 46.644531 L 107.921875 46.644531 C 108.097656 46.644531 108.226562 46.589844 108.3125 46.480469 C 108.402344 46.367188 108.449219 46.226562 108.449219 46.0625 C 108.449219 45.832031 108.402344 45.667969 108.3125 45.5625 C 108.226562 45.457031 108.097656 45.398438 107.921875 45.382812 L 104.90625 44.957031 C 103.96875 44.824219 103.214844 44.519531 102.648438 44.03125 C 102.082031 43.550781 101.796875 42.746094 101.796875 41.621094 L 101.796875 39.511719 C 101.796875 38.375 102.164062 37.503906 102.902344 36.890625 C 103.640625 36.28125 104.65625 35.976562 105.957031 35.976562 L 111.574219 35.976562 C 111.828125 35.976562 112.011719 36.035156 112.128906 36.148438 C 112.242188 36.265625 112.300781 36.449219 112.300781 36.703125 L 112.300781 39.09375 C 112.300781 39.347656 112.242188 39.535156 112.128906 39.648438 C 112.011719 39.761719 111.828125 39.820312 111.574219 39.820312 L 106.898438 39.820312 C 106.722656 39.820312 106.585938 39.878906 106.492188 39.992188 C 106.402344 40.101562 106.355469 40.242188 106.355469 40.417969 C 106.355469 40.59375 106.402344 40.742188 106.492188 40.859375 C 106.585938 40.984375 106.722656 41.050781 106.898438 41.058594 L 109.890625 41.460938 C 110.824219 41.597656 111.578125 41.910156 112.15625 42.390625 C 112.734375 42.871094 113.023438 43.671875 113.023438 44.792969 L 113.023438 46.90625 C 113.023438 48.042969 112.652344 48.914062 111.910156 49.523438 C 111.167969 50.136719 110.152344 50.441406 108.867188 50.441406 Z M 108.867188 50.441406 "/>
<path style=" stroke:none;fill-rule:nonzero;fill:rgb(5.098039%,25.882353%,26.666667%);fill-opacity:0.501961;" d="M 126.109375 50.441406 L 121.21875 50.441406 C 119.542969 50.441406 118.300781 50.105469 117.492188 49.433594 C 116.679688 48.761719 116.277344 47.734375 116.277344 46.34375 L 116.277344 40.101562 C 116.277344 38.703125 116.679688 37.667969 117.492188 36.992188 C 118.300781 36.316406 119.542969 35.976562 121.21875 35.976562 L 126.109375 35.976562 C 126.363281 35.976562 126.546875 36.035156 126.664062 36.148438 C 126.777344 36.265625 126.835938 36.449219 126.835938 36.703125 L 126.835938 39.128906 C 126.835938 39.382812 126.777344 39.570312 126.664062 39.683594 C 126.546875 39.796875 126.363281 39.855469 126.109375 39.855469 L 122.078125 39.855469 C 121.660156 39.855469 121.351562 39.941406 121.152344 40.109375 C 120.953125 40.277344 120.855469 40.53125 120.855469 40.859375 L 120.855469 45.636719 C 120.855469 45.976562 120.953125 46.222656 121.152344 46.378906 C 121.351562 46.53125 121.660156 46.605469 122.078125 46.605469 L 126.109375 46.605469 C 126.363281 46.605469 126.546875 46.664062 126.664062 46.777344 C 126.777344 46.886719 126.835938 47.074219 126.835938 47.332031 L 126.835938 49.714844 C 126.835938 49.96875 126.777344 50.15625 126.664062 50.269531 C 126.546875 50.382812 126.363281 50.441406 126.109375 50.441406 Z M 126.109375 50.441406 "/>
<path style=" stroke:none;fill-rule:nonzero;fill:rgb(5.098039%,25.882353%,26.666667%);fill-opacity:0.501961;" d="M 142.644531 46.644531 C 142.644531 47.257812 142.550781 47.820312 142.371094 48.320312 C 142.191406 48.824219 141.867188 49.25 141.402344 49.605469 C 140.941406 49.964844 140.308594 50.242188 139.496094 50.441406 C 138.6875 50.640625 137.660156 50.738281 136.417969 50.738281 C 135.171875 50.738281 134.136719 50.640625 133.316406 50.441406 C 132.5 50.242188 131.859375 49.964844 131.394531 49.605469 C 130.9375 49.25 130.617188 48.824219 130.433594 48.320312 C 130.257812 47.820312 130.171875 47.257812 130.171875 46.644531 L 130.171875 39.800781 C 130.171875 39.183594 130.257812 38.628906 130.433594 38.125 C 130.617188 37.617188 130.9375 37.1875 131.394531 36.828125 C 131.859375 36.464844 132.5 36.183594 133.316406 35.984375 C 134.136719 35.78125 135.171875 35.675781 136.417969 35.675781 C 137.660156 35.675781 138.6875 35.78125 139.496094 35.984375 C 140.308594 36.183594 140.941406 36.464844 141.402344 36.828125 C 141.867188 37.1875 142.191406 37.617188 142.371094 38.125 C 142.550781 38.628906 142.644531 39.183594 142.644531 39.800781 Z M 134.730469 45.917969 C 134.730469 46.191406 134.832031 46.417969 135.03125 46.597656 C 135.230469 46.777344 135.691406 46.871094 136.417969 46.871094 C 137.136719 46.871094 137.59375 46.777344 137.792969 46.597656 C 138 46.417969 138.101562 46.191406 138.101562 45.917969 L 138.101562 40.515625 C 138.101562 40.261719 138 40.046875 137.792969 39.863281 C 137.59375 39.683594 137.136719 39.59375 136.417969 39.59375 C 135.691406 39.59375 135.230469 39.683594 135.03125 39.863281 C 134.832031 40.046875 134.730469 40.261719 134.730469 40.515625 Z M 134.730469 45.917969 "/>
<path style=" stroke:none;fill-rule:nonzero;fill:rgb(5.098039%,25.882353%,26.666667%);fill-opacity:0.501961;" d="M 151.011719 39.59375 L 151.011719 42.164062 L 152.519531 42.164062 C 152.867188 42.164062 153.101562 42.074219 153.214844 41.894531 C 153.335938 41.710938 153.398438 41.492188 153.398438 41.222656 L 153.398438 40.542969 C 153.398438 40.273438 153.335938 40.046875 153.214844 39.863281 C 153.101562 39.683594 152.867188 39.59375 152.519531 39.59375 Z M 150.289062 50.441406 L 147.199219 50.441406 C 146.945312 50.441406 146.757812 50.382812 146.644531 50.269531 C 146.53125 50.15625 146.472656 49.96875 146.472656 49.714844 L 146.472656 36.703125 C 146.472656 36.449219 146.53125 36.265625 146.644531 36.148438 C 146.757812 36.035156 146.945312 35.976562 147.199219 35.976562 L 153.886719 35.976562 C 155.382812 35.976562 156.417969 36.292969 156.984375 36.917969 C 157.550781 37.542969 157.835938 38.347656 157.835938 39.339844 L 157.835938 40.253906 C 157.835938 40.824219 157.75 41.300781 157.582031 41.695312 C 157.421875 42.089844 157.128906 42.371094 156.714844 42.546875 C 157.4375 42.625 158.023438 42.921875 158.472656 43.433594 C 158.917969 43.941406 159.140625 44.617188 159.140625 45.457031 L 159.140625 49.714844 C 159.140625 49.96875 159.082031 50.15625 158.96875 50.269531 C 158.863281 50.382812 158.675781 50.441406 158.417969 50.441406 L 155.308594 50.441406 C 155.054688 50.441406 154.871094 50.382812 154.757812 50.269531 C 154.640625 50.15625 154.585938 49.96875 154.585938 49.714844 L 154.585938 46.644531 C 154.585938 46.347656 154.523438 46.128906 154.410156 45.992188 C 154.296875 45.851562 154.097656 45.78125 153.824219 45.78125 L 151.011719 45.78125 L 151.011719 49.714844 C 151.011719 49.96875 150.953125 50.15625 150.839844 50.269531 C 150.726562 50.382812 150.542969 50.441406 150.289062 50.441406 Z M 150.289062 50.441406 "/>
<path style=" stroke:none;fill-rule:nonzero;fill:rgb(5.098039%,25.882353%,26.666667%);fill-opacity:0.501961;" d="M 170.164062 50.441406 L 163.402344 50.441406 C 163.148438 50.441406 162.960938 50.382812 162.847656 50.269531 C 162.734375 50.15625 162.675781 49.96875 162.675781 49.714844 L 162.675781 36.703125 C 162.675781 36.449219 162.734375 36.265625 162.847656 36.148438 C 162.960938 36.035156 163.148438 35.976562 163.402344 35.976562 L 170.164062 35.976562 C 171.835938 35.976562 173.074219 36.3125 173.886719 36.980469 C 174.703125 37.652344 175.109375 38.6875 175.109375 40.082031 L 175.109375 46.34375 C 175.109375 47.734375 174.703125 48.761719 173.886719 49.433594 C 173.074219 50.105469 171.835938 50.441406 170.164062 50.441406 Z M 167.234375 39.820312 L 167.234375 46.644531 L 169.628906 46.644531 C 169.945312 46.644531 170.183594 46.566406 170.335938 46.40625 C 170.492188 46.242188 170.570312 45.996094 170.570312 45.664062 L 170.570312 40.78125 C 170.570312 40.449219 170.492188 40.207031 170.335938 40.054688 C 170.183594 39.898438 169.945312 39.820312 169.628906 39.820312 Z M 167.234375 39.820312 "/>
<path style=" stroke:none;fill-rule:nonzero;fill:rgb(100%,100%,100%);fill-opacity:1;" d="M 79.0625 49.550781 L 72.300781 49.550781 C 72.046875 49.550781 71.859375 49.496094 71.746094 49.378906 C 71.632812 49.265625 71.574219 49.082031 71.574219 48.828125 L 71.574219 35.8125 C 71.574219 35.558594 71.632812 35.375 71.746094 35.261719 C 71.859375 35.148438 72.046875 35.089844 72.300781 35.089844 L 79.0625 35.089844 C 80.734375 35.089844 81.976562 35.425781 82.785156 36.09375 C 83.601562 36.765625 84.007812 37.796875 84.007812 39.195312 L 84.007812 45.457031 C 84.007812 46.847656 83.601562 47.875 82.785156 48.546875 C 81.976562 49.21875 80.734375 49.550781 79.0625 49.550781 Z M 76.132812 38.929688 L 76.132812 45.753906 L 78.527344 45.753906 C 78.847656 45.753906 79.082031 45.679688 79.234375 45.519531 C 79.390625 45.355469 79.46875 45.109375 79.46875 44.777344 L 79.46875 39.890625 C 79.46875 39.5625 79.390625 39.320312 79.234375 39.167969 C 79.082031 39.011719 78.847656 38.929688 78.527344 38.929688 Z M 76.132812 38.929688 "/>
<path style=" stroke:none;fill-rule:nonzero;fill:rgb(100%,100%,100%);fill-opacity:1;" d="M 88.238281 49.550781 C 87.984375 49.550781 87.796875 49.496094 87.683594 49.378906 C 87.570312 49.265625 87.511719 49.082031 87.511719 48.828125 L 87.511719 46.445312 C 87.511719 46.1875 87.570312 46 87.683594 45.890625 C 87.796875 45.777344 87.984375 45.71875 88.238281 45.71875 L 90.230469 45.71875 L 90.230469 38.96875 L 88.238281 38.96875 C 87.984375 38.96875 87.796875 38.910156 87.683594 38.796875 C 87.570312 38.683594 87.511719 38.496094 87.511719 38.242188 L 87.511719 35.8125 C 87.511719 35.558594 87.570312 35.375 87.683594 35.261719 C 87.796875 35.148438 87.984375 35.089844 88.238281 35.089844 L 96.792969 35.089844 C 97.046875 35.089844 97.230469 35.148438 97.347656 35.261719 C 97.460938 35.375 97.519531 35.558594 97.519531 35.8125 L 97.519531 38.242188 C 97.519531 38.496094 97.460938 38.683594 97.347656 38.796875 C 97.230469 38.910156 97.046875 38.96875 96.792969 38.96875 L 94.84375 38.96875 L 94.84375 45.71875 L 96.792969 45.71875 C 97.046875 45.71875 97.230469 45.777344 97.347656 45.890625 C 97.460938 46 97.519531 46.1875 97.519531 46.445312 L 97.519531 48.828125 C 97.519531 49.082031 97.460938 49.265625 97.347656 49.378906 C 97.230469 49.496094 97.046875 49.550781 96.792969 49.550781 Z M 88.238281 49.550781 "/>
<path style=" stroke:none;fill-rule:nonzero;fill:rgb(100%,100%,100%);fill-opacity:1;" d="M 107.976562 49.550781 L 101.632812 49.550781 C 101.378906 49.550781 101.195312 49.496094 101.082031 49.378906 C 100.964844 49.265625 100.910156 49.082031 100.910156 48.828125 L 100.910156 46.480469 C 100.910156 46.226562 100.964844 46.042969 101.082031 45.925781 C 101.195312 45.8125 101.378906 45.753906 101.632812 45.753906 L 107.035156 45.753906 C 107.210938 45.753906 107.339844 45.699219 107.425781 45.59375 C 107.515625 45.480469 107.5625 45.339844 107.5625 45.175781 C 107.5625 44.945312 107.515625 44.78125 107.425781 44.675781 C 107.339844 44.566406 107.210938 44.507812 107.035156 44.496094 L 104.019531 44.070312 C 103.078125 43.9375 102.328125 43.628906 101.761719 43.144531 C 101.191406 42.664062 100.910156 41.859375 100.910156 40.734375 L 100.910156 38.625 C 100.910156 37.488281 101.277344 36.617188 102.015625 36.003906 C 102.75 35.394531 103.769531 35.089844 105.070312 35.089844 L 110.6875 35.089844 C 110.941406 35.089844 111.125 35.148438 111.242188 35.261719 C 111.355469 35.375 111.414062 35.558594 111.414062 35.8125 L 111.414062 38.207031 C 111.414062 38.460938 111.355469 38.644531 111.242188 38.757812 C 111.125 38.875 110.941406 38.929688 110.6875 38.929688 L 106.011719 38.929688 C 105.835938 38.929688 105.699219 38.992188 105.605469 39.105469 C 105.511719 39.210938 105.46875 39.355469 105.46875 39.53125 C 105.46875 39.707031 105.511719 39.851562 105.605469 39.972656 C 105.699219 40.097656 105.835938 40.160156 106.011719 40.171875 L 109.003906 40.570312 C 109.9375 40.710938 110.691406 41.023438 111.269531 41.503906 C 111.847656 41.984375 112.136719 42.78125 112.136719 43.90625 L 112.136719 46.019531 C 112.136719 47.15625 111.765625 48.027344 111.023438 48.636719 C 110.28125 49.25 109.265625 49.550781 107.976562 49.550781 Z M 107.976562 49.550781 "/>
<path style=" stroke:none;fill-rule:nonzero;fill:rgb(100%,100%,100%);fill-opacity:1;" d="M 125.222656 49.550781 L 120.328125 49.550781 C 118.65625 49.550781 117.414062 49.21875 116.605469 48.546875 C 115.792969 47.875 115.390625 46.847656 115.390625 45.457031 L 115.390625 39.210938 C 115.390625 37.816406 115.792969 36.78125 116.605469 36.105469 C 117.414062 35.429688 118.65625 35.089844 120.328125 35.089844 L 125.222656 35.089844 C 125.476562 35.089844 125.660156 35.148438 125.777344 35.261719 C 125.890625 35.375 125.949219 35.558594 125.949219 35.8125 L 125.949219 38.242188 C 125.949219 38.496094 125.890625 38.683594 125.777344 38.796875 C 125.660156 38.910156 125.476562 38.96875 125.222656 38.96875 L 121.191406 38.96875 C 120.773438 38.96875 120.464844 39.054688 120.265625 39.222656 C 120.066406 39.390625 119.96875 39.644531 119.96875 39.972656 L 119.96875 44.75 C 119.96875 45.089844 120.066406 45.335938 120.265625 45.492188 C 120.464844 45.644531 120.773438 45.71875 121.191406 45.71875 L 125.222656 45.71875 C 125.476562 45.71875 125.660156 45.777344 125.777344 45.890625 C 125.890625 46 125.949219 46.1875 125.949219 46.445312 L 125.949219 48.828125 C 125.949219 49.082031 125.890625 49.265625 125.777344 49.378906 C 125.660156 49.496094 125.476562 49.550781 125.222656 49.550781 Z M 125.222656 49.550781 "/>
<path style=" stroke:none;fill-rule:nonzero;fill:rgb(100%,100%,100%);fill-opacity:1;" d="M 141.753906 45.753906 C 141.753906 46.371094 141.664062 46.929688 141.484375 47.433594 C 141.300781 47.933594 140.976562 48.363281 140.511719 48.71875 C 140.054688 49.078125 139.417969 49.351562 138.609375 49.550781 C 137.800781 49.753906 136.773438 49.851562 135.527344 49.851562 C 134.28125 49.851562 133.25 49.753906 132.429688 49.550781 C 131.613281 49.351562 130.972656 49.078125 130.507812 48.71875 C 130.046875 48.363281 129.730469 47.933594 129.546875 47.433594 C 129.371094 46.929688 129.285156 46.371094 129.285156 45.753906 L 129.285156 38.914062 C 129.285156 38.296875 129.371094 37.738281 129.546875 37.238281 C 129.730469 36.730469 130.046875 36.296875 130.507812 35.941406 C 130.972656 35.578125 131.613281 35.296875 132.429688 35.097656 C 133.25 34.894531 134.28125 34.789062 135.527344 34.789062 C 136.773438 34.789062 137.800781 34.894531 138.609375 35.097656 C 139.417969 35.296875 140.054688 35.578125 140.511719 35.941406 C 140.976562 36.296875 141.300781 36.730469 141.484375 37.238281 C 141.664062 37.738281 141.753906 38.296875 141.753906 38.914062 Z M 133.84375 45.03125 C 133.84375 45.300781 133.941406 45.527344 134.144531 45.710938 C 134.34375 45.890625 134.804688 45.980469 135.527344 45.980469 C 136.246094 45.980469 136.707031 45.890625 136.90625 45.710938 C 137.109375 45.527344 137.214844 45.300781 137.214844 45.03125 L 137.214844 39.628906 C 137.214844 39.375 137.109375 39.15625 136.90625 38.976562 C 136.707031 38.796875 136.246094 38.703125 135.527344 38.703125 C 134.804688 38.703125 134.34375 38.796875 134.144531 38.976562 C 133.941406 39.15625 133.84375 39.375 133.84375 39.628906 Z M 133.84375 45.03125 "/>
<path style=" stroke:none;fill-rule:nonzero;fill:rgb(100%,100%,100%);fill-opacity:1;" d="M 150.125 38.703125 L 150.125 41.277344 L 151.628906 41.277344 C 151.980469 41.277344 152.210938 41.1875 152.328125 41.007812 C 152.449219 40.824219 152.507812 40.601562 152.507812 40.335938 L 152.507812 39.65625 C 152.507812 39.382812 152.449219 39.15625 152.328125 38.976562 C 152.210938 38.796875 151.980469 38.703125 151.628906 38.703125 Z M 149.402344 49.550781 L 146.3125 49.550781 C 146.058594 49.550781 145.871094 49.496094 145.757812 49.378906 C 145.640625 49.265625 145.585938 49.082031 145.585938 48.828125 L 145.585938 35.8125 C 145.585938 35.558594 145.640625 35.375 145.757812 35.261719 C 145.871094 35.148438 146.058594 35.089844 146.3125 35.089844 L 153 35.089844 C 154.496094 35.089844 155.53125 35.402344 156.097656 36.03125 C 156.664062 36.65625 156.949219 37.460938 156.949219 38.449219 L 156.949219 39.367188 C 156.949219 39.933594 156.863281 40.414062 156.695312 40.808594 C 156.535156 41.203125 156.242188 41.484375 155.828125 41.660156 C 156.550781 41.738281 157.136719 42.035156 157.585938 42.546875 C 158.03125 43.054688 158.253906 43.730469 158.253906 44.566406 L 158.253906 48.828125 C 158.253906 49.082031 158.195312 49.265625 158.082031 49.378906 C 157.972656 49.496094 157.789062 49.550781 157.53125 49.550781 L 154.421875 49.550781 C 154.167969 49.550781 153.980469 49.496094 153.867188 49.378906 C 153.753906 49.265625 153.695312 49.082031 153.695312 48.828125 L 153.695312 45.753906 C 153.695312 45.460938 153.636719 45.242188 153.523438 45.101562 C 153.410156 44.964844 153.210938 44.894531 152.933594 44.894531 L 150.125 44.894531 L 150.125 48.828125 C 150.125 49.082031 150.066406 49.265625 149.953125 49.378906 C 149.839844 49.496094 149.65625 49.550781 149.402344 49.550781 Z M 149.402344 49.550781 "/>
<path style=" stroke:none;fill-rule:nonzero;fill:rgb(100%,100%,100%);fill-opacity:1;" d="M 169.273438 49.550781 L 162.515625 49.550781 C 162.261719 49.550781 162.074219 49.496094 161.960938 49.378906 C 161.847656 49.265625 161.789062 49.082031 161.789062 48.828125 L 161.789062 35.8125 C 161.789062 35.558594 161.847656 35.375 161.960938 35.261719 C 162.074219 35.148438 162.261719 35.089844 162.515625 35.089844 L 169.273438 35.089844 C 170.945312 35.089844 172.1875 35.425781 173 36.09375 C 173.816406 36.765625 174.222656 37.796875 174.222656 39.195312 L 174.222656 45.457031 C 174.222656 46.847656 173.816406 47.875 173 48.546875 C 172.1875 49.21875 170.945312 49.550781 169.273438 49.550781 Z M 166.347656 38.929688 L 166.347656 45.753906 L 168.738281 45.753906 C 169.058594 45.753906 169.296875 45.679688 169.445312 45.519531 C 169.601562 45.355469 169.683594 45.109375 169.683594 44.777344 L 169.683594 39.890625 C 169.683594 39.5625 169.601562 39.320312 169.445312 39.167969 C 169.296875 39.011719 169.058594 38.929688 168.738281 38.929688 Z M 166.347656 38.929688 "/>
<g clip-path="url(#clip3)" clip-rule="nonzero">
<path style=" stroke:none;fill-rule:nonzero;fill:rgb(20.784314%,38.431373%,39.215686%);fill-opacity:1;" d="M 48.914062 17.027344 L 13.273438 17.027344 C 10.265625 17.027344 7.820312 19.464844 7.820312 22.488281 L 7.820312 58.3125 C 7.820312 61.332031 10.265625 63.769531 13.273438 63.769531 L 43.433594 63.769531 L 42.023438 58.871094 L 45.429688 62.023438 L 48.644531 64.988281 L 54.363281 70.023438 L 54.363281 22.484375 C 54.363281 19.464844 51.917969 17.027344 48.914062 17.027344 Z M 38.648438 51.636719 C 38.648438 51.636719 37.6875 50.496094 36.890625 49.488281 C 40.375 48.507812 41.707031 46.335938 41.707031 46.335938 C 40.613281 47.050781 39.578125 47.554688 38.648438 47.898438 C 37.316406 48.453125 36.039062 48.828125 34.789062 49.039062 C 32.234375 49.515625 29.894531 49.382812 27.902344 49.011719 C 26.386719 48.71875 25.082031 48.296875 23.992188 47.871094 C 23.378906 47.636719 22.710938 47.34375 22.050781 46.972656 C 21.96875 46.917969 21.890625 46.890625 21.808594 46.839844 C 21.757812 46.8125 21.730469 46.785156 21.703125 46.757812 C 21.222656 46.496094 20.960938 46.308594 20.960938 46.308594 C 20.960938 46.308594 22.234375 48.429688 25.613281 49.4375 C 24.816406 50.445312 23.832031 51.636719 23.832031 51.636719 C 17.953125 51.449219 15.71875 47.609375 15.71875 47.609375 C 15.71875 39.074219 19.550781 32.160156 19.550781 32.160156 C 23.378906 29.296875 27.023438 29.375 27.023438 29.375 L 27.289062 29.691406 C 22.503906 31.074219 20.292969 33.167969 20.292969 33.167969 C 20.292969 33.167969 20.878906 32.847656 21.863281 32.394531 C 24.707031 31.152344 26.96875 30.808594 27.902344 30.730469 C 28.058594 30.703125 28.191406 30.675781 28.351562 30.675781 C 29.976562 30.464844 31.808594 30.410156 33.722656 30.621094 C 36.253906 30.914062 38.964844 31.65625 41.730469 33.167969 C 41.730469 33.167969 39.628906 31.175781 35.109375 29.800781 L 35.480469 29.375 C 35.480469 29.375 39.125 29.296875 42.953125 32.160156 C 42.953125 32.160156 46.785156 39.074219 46.785156 47.609375 C 46.785156 47.609375 44.523438 51.449219 38.648438 51.636719 Z M 26.277344 39.257812 C 24.761719 39.257812 23.566406 40.585938 23.566406 42.203125 C 23.566406 43.816406 24.789062 45.144531 26.277344 45.144531 C 27.792969 45.144531 28.992188 43.816406 28.992188 42.203125 C 29.019531 40.585938 27.792969 39.257812 26.277344 39.257812 M 35.988281 39.257812 C 34.46875 39.257812 33.273438 40.585938 33.273438 42.203125 C 33.273438 43.816406 34.496094 45.144531 35.988281 45.144531 C 37.5 45.144531 38.699219 43.816406 38.699219 42.203125 C 38.699219 40.585938 37.5 39.257812 35.988281 39.257812 "/>
</g>
</g>
</svg>
