<svg xmlns="http://www.w3.org/2000/svg" xmlns:xlink="http://www.w3.org/1999/xlink" width="600" zoomAndPan="magnify" viewBox="0 0 450 149.999998" height="200" preserveAspectRatio="xMidYMid meet" version="1.0"><defs><g/><clipPath id="6c21bdaf57"><path d="M 0 12.464844 L 450 12.464844 L 450 148.152344 L 0 148.152344 Z M 0 12.464844 " clip-rule="nonzero"/></clipPath><clipPath id="029d21b144"><path d="M 23.332031 21.070312 L 446.949219 21.070312 L 446.949219 127.839844 L 23.332031 127.839844 Z M 23.332031 21.070312 " clip-rule="nonzero"/></clipPath><clipPath id="9e6a04bb21"><path d="M 76.714844 21.070312 L 393.5625 21.070312 C 407.722656 21.070312 421.300781 26.695312 431.3125 36.703125 C 441.324219 46.714844 446.949219 60.296875 446.949219 74.453125 C 446.949219 88.613281 441.324219 102.191406 431.3125 112.203125 C 421.300781 122.214844 407.722656 127.839844 393.5625 127.839844 L 76.714844 127.839844 C 62.558594 127.839844 48.976562 122.214844 38.964844 112.203125 C 28.953125 102.191406 23.332031 88.613281 23.332031 74.453125 C 23.332031 60.296875 28.953125 46.714844 38.964844 36.703125 C 48.976562 26.695312 62.558594 21.070312 76.714844 21.070312 Z M 76.714844 21.070312 " clip-rule="nonzero"/></clipPath><clipPath id="2008653a7a"><path d="M 13.480469 29.300781 L 93.285156 29.300781 L 93.285156 120.640625 L 13.480469 120.640625 Z M 13.480469 29.300781 " clip-rule="nonzero"/></clipPath></defs><g clip-path="url(#6c21bdaf57)"><path fill="#ffffff" d="M -53.300781 12.464844 L 523.578125 12.464844 L 523.578125 148.152344 L -53.300781 148.152344 Z M -53.300781 12.464844 " fill-opacity="1" fill-rule="nonzero"/></g><g clip-path="url(#029d21b144)"><g clip-path="url(#9e6a04bb21)"><path fill="#5ce1e6" d="M 23.332031 21.070312 L 446.949219 21.070312 L 446.949219 127.839844 L 23.332031 127.839844 Z M 23.332031 21.070312 " fill-opacity="1" fill-rule="nonzero"/></g></g><g fill="#0d4244" fill-opacity="0.302"><g transform="translate(124.075602, 88.495451)"><g><path d="M 15.296875 0 L 3.640625 0 C 3.203125 0 2.882812 -0.0976562 2.6875 -0.296875 C 2.488281 -0.492188 2.390625 -0.8125 2.390625 -1.25 L 2.390625 -23.6875 C 2.390625 -24.125 2.488281 -24.441406 2.6875 -24.640625 C 2.882812 -24.835938 3.203125 -24.9375 3.640625 -24.9375 L 15.296875 -24.9375 C 18.179688 -24.9375 20.320312 -24.359375 21.71875 -23.203125 C 23.125 -22.046875 23.828125 -20.265625 23.828125 -17.859375 L 23.828125 -7.0625 C 23.828125 -4.664062 23.125 -2.890625 21.71875 -1.734375 C 20.320312 -0.578125 18.179688 0 15.296875 0 Z M 10.25 -18.3125 L 10.25 -6.546875 L 14.375 -6.546875 C 14.925781 -6.546875 15.332031 -6.679688 15.59375 -6.953125 C 15.863281 -7.234375 16 -7.660156 16 -8.234375 L 16 -16.65625 C 16 -17.226562 15.863281 -17.644531 15.59375 -17.90625 C 15.332031 -18.175781 14.925781 -18.3125 14.375 -18.3125 Z M 10.25 -18.3125 "/></g></g></g><g fill="#0d4244" fill-opacity="0.302"><g transform="translate(152.11655, 88.495451)"><g><path d="M 3.078125 0 C 2.640625 0 2.320312 -0.0976562 2.125 -0.296875 C 1.925781 -0.492188 1.828125 -0.8125 1.828125 -1.25 L 1.828125 -5.359375 C 1.828125 -5.804688 1.925781 -6.125 2.125 -6.3125 C 2.320312 -6.507812 2.640625 -6.609375 3.078125 -6.609375 L 6.515625 -6.609375 L 6.515625 -18.25 L 3.078125 -18.25 C 2.640625 -18.25 2.320312 -18.347656 2.125 -18.546875 C 1.925781 -18.742188 1.828125 -19.0625 1.828125 -19.5 L 1.828125 -23.6875 C 1.828125 -24.125 1.925781 -24.441406 2.125 -24.640625 C 2.320312 -24.835938 2.640625 -24.9375 3.078125 -24.9375 L 17.828125 -24.9375 C 18.265625 -24.9375 18.582031 -24.835938 18.78125 -24.640625 C 18.976562 -24.441406 19.078125 -24.125 19.078125 -23.6875 L 19.078125 -19.5 C 19.078125 -19.0625 18.976562 -18.742188 18.78125 -18.546875 C 18.582031 -18.347656 18.265625 -18.25 17.828125 -18.25 L 14.46875 -18.25 L 14.46875 -6.609375 L 17.828125 -6.609375 C 18.265625 -6.609375 18.582031 -6.507812 18.78125 -6.3125 C 18.976562 -6.125 19.078125 -5.804688 19.078125 -5.359375 L 19.078125 -1.25 C 19.078125 -0.8125 18.976562 -0.492188 18.78125 -0.296875 C 18.582031 -0.0976562 18.265625 0 17.828125 0 Z M 3.078125 0 "/></g></g></g><g fill="#0d4244" fill-opacity="0.302"><g transform="translate(175.276311, 88.495451)"><g><path d="M 13.953125 0 L 3.015625 0 C 2.578125 0 2.257812 -0.0976562 2.0625 -0.296875 C 1.863281 -0.492188 1.765625 -0.8125 1.765625 -1.25 L 1.765625 -5.296875 C 1.765625 -5.734375 1.863281 -6.050781 2.0625 -6.25 C 2.257812 -6.445312 2.578125 -6.546875 3.015625 -6.546875 L 12.328125 -6.546875 C 12.628906 -6.546875 12.851562 -6.640625 13 -6.828125 C 13.15625 -7.023438 13.234375 -7.265625 13.234375 -7.546875 C 13.234375 -7.941406 13.15625 -8.226562 13 -8.40625 C 12.851562 -8.59375 12.628906 -8.695312 12.328125 -8.71875 L 7.125 -9.453125 C 5.507812 -9.679688 4.210938 -10.210938 3.234375 -11.046875 C 2.253906 -11.878906 1.765625 -13.265625 1.765625 -15.203125 L 1.765625 -18.84375 C 1.765625 -20.800781 2.398438 -22.304688 3.671875 -23.359375 C 4.941406 -24.410156 6.695312 -24.9375 8.9375 -24.9375 L 18.625 -24.9375 C 19.0625 -24.9375 19.378906 -24.835938 19.578125 -24.640625 C 19.773438 -24.441406 19.875 -24.125 19.875 -23.6875 L 19.875 -19.5625 C 19.875 -19.125 19.773438 -18.804688 19.578125 -18.609375 C 19.378906 -18.410156 19.0625 -18.3125 18.625 -18.3125 L 10.5625 -18.3125 C 10.257812 -18.3125 10.023438 -18.210938 9.859375 -18.015625 C 9.703125 -17.828125 9.625 -17.582031 9.625 -17.28125 C 9.625 -16.976562 9.703125 -16.722656 9.859375 -16.515625 C 10.023438 -16.304688 10.257812 -16.191406 10.5625 -16.171875 L 15.71875 -15.484375 C 17.332031 -15.242188 18.632812 -14.707031 19.625 -13.875 C 20.625 -13.050781 21.125 -11.671875 21.125 -9.734375 L 21.125 -6.09375 C 21.125 -4.132812 20.484375 -2.628906 19.203125 -1.578125 C 17.921875 -0.523438 16.171875 0 13.953125 0 Z M 13.953125 0 "/></g></g></g><g fill="#0d4244" fill-opacity="0.302"><g transform="translate(199.993898, 88.495451)"><g><path d="M 18.96875 0 L 10.53125 0 C 7.644531 0 5.503906 -0.578125 4.109375 -1.734375 C 2.710938 -2.890625 2.015625 -4.664062 2.015625 -7.0625 L 2.015625 -17.828125 C 2.015625 -20.234375 2.710938 -22.019531 4.109375 -23.1875 C 5.503906 -24.351562 7.644531 -24.9375 10.53125 -24.9375 L 18.96875 -24.9375 C 19.40625 -24.9375 19.722656 -24.835938 19.921875 -24.640625 C 20.117188 -24.441406 20.21875 -24.125 20.21875 -23.6875 L 20.21875 -19.5 C 20.21875 -19.0625 20.117188 -18.742188 19.921875 -18.546875 C 19.722656 -18.347656 19.40625 -18.25 18.96875 -18.25 L 12.015625 -18.25 C 11.296875 -18.25 10.765625 -18.101562 10.421875 -17.8125 C 10.078125 -17.519531 9.90625 -17.085938 9.90625 -16.515625 L 9.90625 -8.28125 C 9.90625 -7.695312 10.078125 -7.269531 10.421875 -7 C 10.765625 -6.738281 11.296875 -6.609375 12.015625 -6.609375 L 18.96875 -6.609375 C 19.40625 -6.609375 19.722656 -6.507812 19.921875 -6.3125 C 20.117188 -6.125 20.21875 -5.804688 20.21875 -5.359375 L 20.21875 -1.25 C 20.21875 -0.8125 20.117188 -0.492188 19.921875 -0.296875 C 19.722656 -0.0976562 19.40625 0 18.96875 0 Z M 18.96875 0 "/></g></g></g><g fill="#0d4244" fill-opacity="0.302"><g transform="translate(223.949884, 88.495451)"><g><path d="M 23.515625 -6.546875 C 23.515625 -5.484375 23.359375 -4.519531 23.046875 -3.65625 C 22.734375 -2.789062 22.175781 -2.050781 21.375 -1.4375 C 20.582031 -0.820312 19.488281 -0.34375 18.09375 0 C 16.695312 0.34375 14.925781 0.515625 12.78125 0.515625 C 10.632812 0.515625 8.851562 0.34375 7.4375 0 C 6.03125 -0.34375 4.925781 -0.820312 4.125 -1.4375 C 3.332031 -2.050781 2.78125 -2.789062 2.46875 -3.65625 C 2.164062 -4.519531 2.015625 -5.484375 2.015625 -6.546875 L 2.015625 -18.34375 C 2.015625 -19.40625 2.164062 -20.367188 2.46875 -21.234375 C 2.78125 -22.109375 3.332031 -22.851562 4.125 -23.46875 C 4.925781 -24.09375 6.03125 -24.578125 7.4375 -24.921875 C 8.851562 -25.273438 10.632812 -25.453125 12.78125 -25.453125 C 14.925781 -25.453125 16.695312 -25.273438 18.09375 -24.921875 C 19.488281 -24.578125 20.582031 -24.09375 21.375 -23.46875 C 22.175781 -22.851562 22.734375 -22.109375 23.046875 -21.234375 C 23.359375 -20.367188 23.515625 -19.40625 23.515625 -18.34375 Z M 9.875 -7.796875 C 9.875 -7.328125 10.046875 -6.9375 10.390625 -6.625 C 10.734375 -6.3125 11.53125 -6.15625 12.78125 -6.15625 C 14.019531 -6.15625 14.8125 -6.3125 15.15625 -6.625 C 15.507812 -6.9375 15.6875 -7.328125 15.6875 -7.796875 L 15.6875 -17.109375 C 15.6875 -17.546875 15.507812 -17.921875 15.15625 -18.234375 C 14.8125 -18.546875 14.019531 -18.703125 12.78125 -18.703125 C 11.53125 -18.703125 10.734375 -18.546875 10.390625 -18.234375 C 10.046875 -17.921875 9.875 -17.546875 9.875 -17.109375 Z M 9.875 -7.796875 "/></g></g></g><g fill="#0d4244" fill-opacity="0.302"><g transform="translate(251.679272, 88.495451)"><g><path d="M 10.21875 -18.703125 L 10.21875 -14.265625 L 12.8125 -14.265625 C 13.414062 -14.265625 13.816406 -14.421875 14.015625 -14.734375 C 14.222656 -15.046875 14.328125 -15.429688 14.328125 -15.890625 L 14.328125 -17.0625 C 14.328125 -17.53125 14.222656 -17.921875 14.015625 -18.234375 C 13.816406 -18.546875 13.414062 -18.703125 12.8125 -18.703125 Z M 8.96875 0 L 3.640625 0 C 3.203125 0 2.882812 -0.0976562 2.6875 -0.296875 C 2.488281 -0.492188 2.390625 -0.8125 2.390625 -1.25 L 2.390625 -23.6875 C 2.390625 -24.125 2.488281 -24.441406 2.6875 -24.640625 C 2.882812 -24.835938 3.203125 -24.9375 3.640625 -24.9375 L 15.171875 -24.9375 C 17.753906 -24.9375 19.535156 -24.394531 20.515625 -23.3125 C 21.492188 -22.238281 21.984375 -20.847656 21.984375 -19.140625 L 21.984375 -17.5625 C 21.984375 -16.582031 21.835938 -15.753906 21.546875 -15.078125 C 21.265625 -14.398438 20.765625 -13.910156 20.046875 -13.609375 C 21.296875 -13.472656 22.304688 -12.960938 23.078125 -12.078125 C 23.847656 -11.203125 24.234375 -10.039062 24.234375 -8.59375 L 24.234375 -1.25 C 24.234375 -0.8125 24.132812 -0.492188 23.9375 -0.296875 C 23.75 -0.0976562 23.429688 0 22.984375 0 L 17.625 0 C 17.1875 0 16.867188 -0.0976562 16.671875 -0.296875 C 16.472656 -0.492188 16.375 -0.8125 16.375 -1.25 L 16.375 -6.546875 C 16.375 -7.054688 16.273438 -7.429688 16.078125 -7.671875 C 15.878906 -7.910156 15.539062 -8.03125 15.0625 -8.03125 L 10.21875 -8.03125 L 10.21875 -1.25 C 10.21875 -0.8125 10.117188 -0.492188 9.921875 -0.296875 C 9.722656 -0.0976562 9.40625 0 8.96875 0 Z M 8.96875 0 "/></g></g></g><g fill="#0d4244" fill-opacity="0.302"><g transform="translate(279.616358, 88.495451)"><g><path d="M 15.296875 0 L 3.640625 0 C 3.203125 0 2.882812 -0.0976562 2.6875 -0.296875 C 2.488281 -0.492188 2.390625 -0.8125 2.390625 -1.25 L 2.390625 -23.6875 C 2.390625 -24.125 2.488281 -24.441406 2.6875 -24.640625 C 2.882812 -24.835938 3.203125 -24.9375 3.640625 -24.9375 L 15.296875 -24.9375 C 18.179688 -24.9375 20.320312 -24.359375 21.71875 -23.203125 C 23.125 -22.046875 23.828125 -20.265625 23.828125 -17.859375 L 23.828125 -7.0625 C 23.828125 -4.664062 23.125 -2.890625 21.71875 -1.734375 C 20.320312 -0.578125 18.179688 0 15.296875 0 Z M 10.25 -18.3125 L 10.25 -6.546875 L 14.375 -6.546875 C 14.925781 -6.546875 15.332031 -6.679688 15.59375 -6.953125 C 15.863281 -7.234375 16 -7.660156 16 -8.234375 L 16 -16.65625 C 16 -17.226562 15.863281 -17.644531 15.59375 -17.90625 C 15.332031 -18.175781 14.925781 -18.3125 14.375 -18.3125 Z M 10.25 -18.3125 "/></g></g></g><g fill="#0d4244" fill-opacity="0.502"><g transform="translate(122.545624, 86.965466)"><g><path d="M 15.296875 0 L 3.640625 0 C 3.203125 0 2.882812 -0.0976562 2.6875 -0.296875 C 2.488281 -0.492188 2.390625 -0.8125 2.390625 -1.25 L 2.390625 -23.6875 C 2.390625 -24.125 2.488281 -24.441406 2.6875 -24.640625 C 2.882812 -24.835938 3.203125 -24.9375 3.640625 -24.9375 L 15.296875 -24.9375 C 18.179688 -24.9375 20.320312 -24.359375 21.71875 -23.203125 C 23.125 -22.046875 23.828125 -20.265625 23.828125 -17.859375 L 23.828125 -7.0625 C 23.828125 -4.664062 23.125 -2.890625 21.71875 -1.734375 C 20.320312 -0.578125 18.179688 0 15.296875 0 Z M 10.25 -18.3125 L 10.25 -6.546875 L 14.375 -6.546875 C 14.925781 -6.546875 15.332031 -6.679688 15.59375 -6.953125 C 15.863281 -7.234375 16 -7.660156 16 -8.234375 L 16 -16.65625 C 16 -17.226562 15.863281 -17.644531 15.59375 -17.90625 C 15.332031 -18.175781 14.925781 -18.3125 14.375 -18.3125 Z M 10.25 -18.3125 "/></g></g></g><g fill="#0d4244" fill-opacity="0.502"><g transform="translate(150.586572, 86.965466)"><g><path d="M 3.078125 0 C 2.640625 0 2.320312 -0.0976562 2.125 -0.296875 C 1.925781 -0.492188 1.828125 -0.8125 1.828125 -1.25 L 1.828125 -5.359375 C 1.828125 -5.804688 1.925781 -6.125 2.125 -6.3125 C 2.320312 -6.507812 2.640625 -6.609375 3.078125 -6.609375 L 6.515625 -6.609375 L 6.515625 -18.25 L 3.078125 -18.25 C 2.640625 -18.25 2.320312 -18.347656 2.125 -18.546875 C 1.925781 -18.742188 1.828125 -19.0625 1.828125 -19.5 L 1.828125 -23.6875 C 1.828125 -24.125 1.925781 -24.441406 2.125 -24.640625 C 2.320312 -24.835938 2.640625 -24.9375 3.078125 -24.9375 L 17.828125 -24.9375 C 18.265625 -24.9375 18.582031 -24.835938 18.78125 -24.640625 C 18.976562 -24.441406 19.078125 -24.125 19.078125 -23.6875 L 19.078125 -19.5 C 19.078125 -19.0625 18.976562 -18.742188 18.78125 -18.546875 C 18.582031 -18.347656 18.265625 -18.25 17.828125 -18.25 L 14.46875 -18.25 L 14.46875 -6.609375 L 17.828125 -6.609375 C 18.265625 -6.609375 18.582031 -6.507812 18.78125 -6.3125 C 18.976562 -6.125 19.078125 -5.804688 19.078125 -5.359375 L 19.078125 -1.25 C 19.078125 -0.8125 18.976562 -0.492188 18.78125 -0.296875 C 18.582031 -0.0976562 18.265625 0 17.828125 0 Z M 3.078125 0 "/></g></g></g><g fill="#0d4244" fill-opacity="0.502"><g transform="translate(173.746333, 86.965466)"><g><path d="M 13.953125 0 L 3.015625 0 C 2.578125 0 2.257812 -0.0976562 2.0625 -0.296875 C 1.863281 -0.492188 1.765625 -0.8125 1.765625 -1.25 L 1.765625 -5.296875 C 1.765625 -5.734375 1.863281 -6.050781 2.0625 -6.25 C 2.257812 -6.445312 2.578125 -6.546875 3.015625 -6.546875 L 12.328125 -6.546875 C 12.628906 -6.546875 12.851562 -6.640625 13 -6.828125 C 13.15625 -7.023438 13.234375 -7.265625 13.234375 -7.546875 C 13.234375 -7.941406 13.15625 -8.226562 13 -8.40625 C 12.851562 -8.59375 12.628906 -8.695312 12.328125 -8.71875 L 7.125 -9.453125 C 5.507812 -9.679688 4.210938 -10.210938 3.234375 -11.046875 C 2.253906 -11.878906 1.765625 -13.265625 1.765625 -15.203125 L 1.765625 -18.84375 C 1.765625 -20.800781 2.398438 -22.304688 3.671875 -23.359375 C 4.941406 -24.410156 6.695312 -24.9375 8.9375 -24.9375 L 18.625 -24.9375 C 19.0625 -24.9375 19.378906 -24.835938 19.578125 -24.640625 C 19.773438 -24.441406 19.875 -24.125 19.875 -23.6875 L 19.875 -19.5625 C 19.875 -19.125 19.773438 -18.804688 19.578125 -18.609375 C 19.378906 -18.410156 19.0625 -18.3125 18.625 -18.3125 L 10.5625 -18.3125 C 10.257812 -18.3125 10.023438 -18.210938 9.859375 -18.015625 C 9.703125 -17.828125 9.625 -17.582031 9.625 -17.28125 C 9.625 -16.976562 9.703125 -16.722656 9.859375 -16.515625 C 10.023438 -16.304688 10.257812 -16.191406 10.5625 -16.171875 L 15.71875 -15.484375 C 17.332031 -15.242188 18.632812 -14.707031 19.625 -13.875 C 20.625 -13.050781 21.125 -11.671875 21.125 -9.734375 L 21.125 -6.09375 C 21.125 -4.132812 20.484375 -2.628906 19.203125 -1.578125 C 17.921875 -0.523438 16.171875 0 13.953125 0 Z M 13.953125 0 "/></g></g></g><g fill="#0d4244" fill-opacity="0.502"><g transform="translate(198.46392, 86.965466)"><g><path d="M 18.96875 0 L 10.53125 0 C 7.644531 0 5.503906 -0.578125 4.109375 -1.734375 C 2.710938 -2.890625 2.015625 -4.664062 2.015625 -7.0625 L 2.015625 -17.828125 C 2.015625 -20.234375 2.710938 -22.019531 4.109375 -23.1875 C 5.503906 -24.351562 7.644531 -24.9375 10.53125 -24.9375 L 18.96875 -24.9375 C 19.40625 -24.9375 19.722656 -24.835938 19.921875 -24.640625 C 20.117188 -24.441406 20.21875 -24.125 20.21875 -23.6875 L 20.21875 -19.5 C 20.21875 -19.0625 20.117188 -18.742188 19.921875 -18.546875 C 19.722656 -18.347656 19.40625 -18.25 18.96875 -18.25 L 12.015625 -18.25 C 11.296875 -18.25 10.765625 -18.101562 10.421875 -17.8125 C 10.078125 -17.519531 9.90625 -17.085938 9.90625 -16.515625 L 9.90625 -8.28125 C 9.90625 -7.695312 10.078125 -7.269531 10.421875 -7 C 10.765625 -6.738281 11.296875 -6.609375 12.015625 -6.609375 L 18.96875 -6.609375 C 19.40625 -6.609375 19.722656 -6.507812 19.921875 -6.3125 C 20.117188 -6.125 20.21875 -5.804688 20.21875 -5.359375 L 20.21875 -1.25 C 20.21875 -0.8125 20.117188 -0.492188 19.921875 -0.296875 C 19.722656 -0.0976562 19.40625 0 18.96875 0 Z M 18.96875 0 "/></g></g></g><g fill="#0d4244" fill-opacity="0.502"><g transform="translate(222.419906, 86.965466)"><g><path d="M 23.515625 -6.546875 C 23.515625 -5.484375 23.359375 -4.519531 23.046875 -3.65625 C 22.734375 -2.789062 22.175781 -2.050781 21.375 -1.4375 C 20.582031 -0.820312 19.488281 -0.34375 18.09375 0 C 16.695312 0.34375 14.925781 0.515625 12.78125 0.515625 C 10.632812 0.515625 8.851562 0.34375 7.4375 0 C 6.03125 -0.34375 4.925781 -0.820312 4.125 -1.4375 C 3.332031 -2.050781 2.78125 -2.789062 2.46875 -3.65625 C 2.164062 -4.519531 2.015625 -5.484375 2.015625 -6.546875 L 2.015625 -18.34375 C 2.015625 -19.40625 2.164062 -20.367188 2.46875 -21.234375 C 2.78125 -22.109375 3.332031 -22.851562 4.125 -23.46875 C 4.925781 -24.09375 6.03125 -24.578125 7.4375 -24.921875 C 8.851562 -25.273438 10.632812 -25.453125 12.78125 -25.453125 C 14.925781 -25.453125 16.695312 -25.273438 18.09375 -24.921875 C 19.488281 -24.578125 20.582031 -24.09375 21.375 -23.46875 C 22.175781 -22.851562 22.734375 -22.109375 23.046875 -21.234375 C 23.359375 -20.367188 23.515625 -19.40625 23.515625 -18.34375 Z M 9.875 -7.796875 C 9.875 -7.328125 10.046875 -6.9375 10.390625 -6.625 C 10.734375 -6.3125 11.53125 -6.15625 12.78125 -6.15625 C 14.019531 -6.15625 14.8125 -6.3125 15.15625 -6.625 C 15.507812 -6.9375 15.6875 -7.328125 15.6875 -7.796875 L 15.6875 -17.109375 C 15.6875 -17.546875 15.507812 -17.921875 15.15625 -18.234375 C 14.8125 -18.546875 14.019531 -18.703125 12.78125 -18.703125 C 11.53125 -18.703125 10.734375 -18.546875 10.390625 -18.234375 C 10.046875 -17.921875 9.875 -17.546875 9.875 -17.109375 Z M 9.875 -7.796875 "/></g></g></g><g fill="#0d4244" fill-opacity="0.502"><g transform="translate(250.149293, 86.965466)"><g><path d="M 10.21875 -18.703125 L 10.21875 -14.265625 L 12.8125 -14.265625 C 13.414062 -14.265625 13.816406 -14.421875 14.015625 -14.734375 C 14.222656 -15.046875 14.328125 -15.429688 14.328125 -15.890625 L 14.328125 -17.0625 C 14.328125 -17.53125 14.222656 -17.921875 14.015625 -18.234375 C 13.816406 -18.546875 13.414062 -18.703125 12.8125 -18.703125 Z M 8.96875 0 L 3.640625 0 C 3.203125 0 2.882812 -0.0976562 2.6875 -0.296875 C 2.488281 -0.492188 2.390625 -0.8125 2.390625 -1.25 L 2.390625 -23.6875 C 2.390625 -24.125 2.488281 -24.441406 2.6875 -24.640625 C 2.882812 -24.835938 3.203125 -24.9375 3.640625 -24.9375 L 15.171875 -24.9375 C 17.753906 -24.9375 19.535156 -24.394531 20.515625 -23.3125 C 21.492188 -22.238281 21.984375 -20.847656 21.984375 -19.140625 L 21.984375 -17.5625 C 21.984375 -16.582031 21.835938 -15.753906 21.546875 -15.078125 C 21.265625 -14.398438 20.765625 -13.910156 20.046875 -13.609375 C 21.296875 -13.472656 22.304688 -12.960938 23.078125 -12.078125 C 23.847656 -11.203125 24.234375 -10.039062 24.234375 -8.59375 L 24.234375 -1.25 C 24.234375 -0.8125 24.132812 -0.492188 23.9375 -0.296875 C 23.75 -0.0976562 23.429688 0 22.984375 0 L 17.625 0 C 17.1875 0 16.867188 -0.0976562 16.671875 -0.296875 C 16.472656 -0.492188 16.375 -0.8125 16.375 -1.25 L 16.375 -6.546875 C 16.375 -7.054688 16.273438 -7.429688 16.078125 -7.671875 C 15.878906 -7.910156 15.539062 -8.03125 15.0625 -8.03125 L 10.21875 -8.03125 L 10.21875 -1.25 C 10.21875 -0.8125 10.117188 -0.492188 9.921875 -0.296875 C 9.722656 -0.0976562 9.40625 0 8.96875 0 Z M 8.96875 0 "/></g></g></g><g fill="#0d4244" fill-opacity="0.502"><g transform="translate(278.08638, 86.965466)"><g><path d="M 15.296875 0 L 3.640625 0 C 3.203125 0 2.882812 -0.0976562 2.6875 -0.296875 C 2.488281 -0.492188 2.390625 -0.8125 2.390625 -1.25 L 2.390625 -23.6875 C 2.390625 -24.125 2.488281 -24.441406 2.6875 -24.640625 C 2.882812 -24.835938 3.203125 -24.9375 3.640625 -24.9375 L 15.296875 -24.9375 C 18.179688 -24.9375 20.320312 -24.359375 21.71875 -23.203125 C 23.125 -22.046875 23.828125 -20.265625 23.828125 -17.859375 L 23.828125 -7.0625 C 23.828125 -4.664062 23.125 -2.890625 21.71875 -1.734375 C 20.320312 -0.578125 18.179688 0 15.296875 0 Z M 10.25 -18.3125 L 10.25 -6.546875 L 14.375 -6.546875 C 14.925781 -6.546875 15.332031 -6.679688 15.59375 -6.953125 C 15.863281 -7.234375 16 -7.660156 16 -8.234375 L 16 -16.65625 C 16 -17.226562 15.863281 -17.644531 15.59375 -17.90625 C 15.332031 -18.175781 14.925781 -18.3125 14.375 -18.3125 Z M 10.25 -18.3125 "/></g></g></g><g fill="#ffffff" fill-opacity="1"><g transform="translate(121.015638, 85.43548)"><g><path d="M 15.296875 0 L 3.640625 0 C 3.203125 0 2.882812 -0.0976562 2.6875 -0.296875 C 2.488281 -0.492188 2.390625 -0.8125 2.390625 -1.25 L 2.390625 -23.6875 C 2.390625 -24.125 2.488281 -24.441406 2.6875 -24.640625 C 2.882812 -24.835938 3.203125 -24.9375 3.640625 -24.9375 L 15.296875 -24.9375 C 18.179688 -24.9375 20.320312 -24.359375 21.71875 -23.203125 C 23.125 -22.046875 23.828125 -20.265625 23.828125 -17.859375 L 23.828125 -7.0625 C 23.828125 -4.664062 23.125 -2.890625 21.71875 -1.734375 C 20.320312 -0.578125 18.179688 0 15.296875 0 Z M 10.25 -18.3125 L 10.25 -6.546875 L 14.375 -6.546875 C 14.925781 -6.546875 15.332031 -6.679688 15.59375 -6.953125 C 15.863281 -7.234375 16 -7.660156 16 -8.234375 L 16 -16.65625 C 16 -17.226562 15.863281 -17.644531 15.59375 -17.90625 C 15.332031 -18.175781 14.925781 -18.3125 14.375 -18.3125 Z M 10.25 -18.3125 "/></g></g></g><g fill="#ffffff" fill-opacity="1"><g transform="translate(149.056586, 85.43548)"><g><path d="M 3.078125 0 C 2.640625 0 2.320312 -0.0976562 2.125 -0.296875 C 1.925781 -0.492188 1.828125 -0.8125 1.828125 -1.25 L 1.828125 -5.359375 C 1.828125 -5.804688 1.925781 -6.125 2.125 -6.3125 C 2.320312 -6.507812 2.640625 -6.609375 3.078125 -6.609375 L 6.515625 -6.609375 L 6.515625 -18.25 L 3.078125 -18.25 C 2.640625 -18.25 2.320312 -18.347656 2.125 -18.546875 C 1.925781 -18.742188 1.828125 -19.0625 1.828125 -19.5 L 1.828125 -23.6875 C 1.828125 -24.125 1.925781 -24.441406 2.125 -24.640625 C 2.320312 -24.835938 2.640625 -24.9375 3.078125 -24.9375 L 17.828125 -24.9375 C 18.265625 -24.9375 18.582031 -24.835938 18.78125 -24.640625 C 18.976562 -24.441406 19.078125 -24.125 19.078125 -23.6875 L 19.078125 -19.5 C 19.078125 -19.0625 18.976562 -18.742188 18.78125 -18.546875 C 18.582031 -18.347656 18.265625 -18.25 17.828125 -18.25 L 14.46875 -18.25 L 14.46875 -6.609375 L 17.828125 -6.609375 C 18.265625 -6.609375 18.582031 -6.507812 18.78125 -6.3125 C 18.976562 -6.125 19.078125 -5.804688 19.078125 -5.359375 L 19.078125 -1.25 C 19.078125 -0.8125 18.976562 -0.492188 18.78125 -0.296875 C 18.582031 -0.0976562 18.265625 0 17.828125 0 Z M 3.078125 0 "/></g></g></g><g fill="#ffffff" fill-opacity="1"><g transform="translate(172.216347, 85.43548)"><g><path d="M 13.953125 0 L 3.015625 0 C 2.578125 0 2.257812 -0.0976562 2.0625 -0.296875 C 1.863281 -0.492188 1.765625 -0.8125 1.765625 -1.25 L 1.765625 -5.296875 C 1.765625 -5.734375 1.863281 -6.050781 2.0625 -6.25 C 2.257812 -6.445312 2.578125 -6.546875 3.015625 -6.546875 L 12.328125 -6.546875 C 12.628906 -6.546875 12.851562 -6.640625 13 -6.828125 C 13.15625 -7.023438 13.234375 -7.265625 13.234375 -7.546875 C 13.234375 -7.941406 13.15625 -8.226562 13 -8.40625 C 12.851562 -8.59375 12.628906 -8.695312 12.328125 -8.71875 L 7.125 -9.453125 C 5.507812 -9.679688 4.210938 -10.210938 3.234375 -11.046875 C 2.253906 -11.878906 1.765625 -13.265625 1.765625 -15.203125 L 1.765625 -18.84375 C 1.765625 -20.800781 2.398438 -22.304688 3.671875 -23.359375 C 4.941406 -24.410156 6.695312 -24.9375 8.9375 -24.9375 L 18.625 -24.9375 C 19.0625 -24.9375 19.378906 -24.835938 19.578125 -24.640625 C 19.773438 -24.441406 19.875 -24.125 19.875 -23.6875 L 19.875 -19.5625 C 19.875 -19.125 19.773438 -18.804688 19.578125 -18.609375 C 19.378906 -18.410156 19.0625 -18.3125 18.625 -18.3125 L 10.5625 -18.3125 C 10.257812 -18.3125 10.023438 -18.210938 9.859375 -18.015625 C 9.703125 -17.828125 9.625 -17.582031 9.625 -17.28125 C 9.625 -16.976562 9.703125 -16.722656 9.859375 -16.515625 C 10.023438 -16.304688 10.257812 -16.191406 10.5625 -16.171875 L 15.71875 -15.484375 C 17.332031 -15.242188 18.632812 -14.707031 19.625 -13.875 C 20.625 -13.050781 21.125 -11.671875 21.125 -9.734375 L 21.125 -6.09375 C 21.125 -4.132812 20.484375 -2.628906 19.203125 -1.578125 C 17.921875 -0.523438 16.171875 0 13.953125 0 Z M 13.953125 0 "/></g></g></g><g fill="#ffffff" fill-opacity="1"><g transform="translate(196.933935, 85.43548)"><g><path d="M 18.96875 0 L 10.53125 0 C 7.644531 0 5.503906 -0.578125 4.109375 -1.734375 C 2.710938 -2.890625 2.015625 -4.664062 2.015625 -7.0625 L 2.015625 -17.828125 C 2.015625 -20.234375 2.710938 -22.019531 4.109375 -23.1875 C 5.503906 -24.351562 7.644531 -24.9375 10.53125 -24.9375 L 18.96875 -24.9375 C 19.40625 -24.9375 19.722656 -24.835938 19.921875 -24.640625 C 20.117188 -24.441406 20.21875 -24.125 20.21875 -23.6875 L 20.21875 -19.5 C 20.21875 -19.0625 20.117188 -18.742188 19.921875 -18.546875 C 19.722656 -18.347656 19.40625 -18.25 18.96875 -18.25 L 12.015625 -18.25 C 11.296875 -18.25 10.765625 -18.101562 10.421875 -17.8125 C 10.078125 -17.519531 9.90625 -17.085938 9.90625 -16.515625 L 9.90625 -8.28125 C 9.90625 -7.695312 10.078125 -7.269531 10.421875 -7 C 10.765625 -6.738281 11.296875 -6.609375 12.015625 -6.609375 L 18.96875 -6.609375 C 19.40625 -6.609375 19.722656 -6.507812 19.921875 -6.3125 C 20.117188 -6.125 20.21875 -5.804688 20.21875 -5.359375 L 20.21875 -1.25 C 20.21875 -0.8125 20.117188 -0.492188 19.921875 -0.296875 C 19.722656 -0.0976562 19.40625 0 18.96875 0 Z M 18.96875 0 "/></g></g></g><g fill="#ffffff" fill-opacity="1"><g transform="translate(220.88992, 85.43548)"><g><path d="M 23.515625 -6.546875 C 23.515625 -5.484375 23.359375 -4.519531 23.046875 -3.65625 C 22.734375 -2.789062 22.175781 -2.050781 21.375 -1.4375 C 20.582031 -0.820312 19.488281 -0.34375 18.09375 0 C 16.695312 0.34375 14.925781 0.515625 12.78125 0.515625 C 10.632812 0.515625 8.851562 0.34375 7.4375 0 C 6.03125 -0.34375 4.925781 -0.820312 4.125 -1.4375 C 3.332031 -2.050781 2.78125 -2.789062 2.46875 -3.65625 C 2.164062 -4.519531 2.015625 -5.484375 2.015625 -6.546875 L 2.015625 -18.34375 C 2.015625 -19.40625 2.164062 -20.367188 2.46875 -21.234375 C 2.78125 -22.109375 3.332031 -22.851562 4.125 -23.46875 C 4.925781 -24.09375 6.03125 -24.578125 7.4375 -24.921875 C 8.851562 -25.273438 10.632812 -25.453125 12.78125 -25.453125 C 14.925781 -25.453125 16.695312 -25.273438 18.09375 -24.921875 C 19.488281 -24.578125 20.582031 -24.09375 21.375 -23.46875 C 22.175781 -22.851562 22.734375 -22.109375 23.046875 -21.234375 C 23.359375 -20.367188 23.515625 -19.40625 23.515625 -18.34375 Z M 9.875 -7.796875 C 9.875 -7.328125 10.046875 -6.9375 10.390625 -6.625 C 10.734375 -6.3125 11.53125 -6.15625 12.78125 -6.15625 C 14.019531 -6.15625 14.8125 -6.3125 15.15625 -6.625 C 15.507812 -6.9375 15.6875 -7.328125 15.6875 -7.796875 L 15.6875 -17.109375 C 15.6875 -17.546875 15.507812 -17.921875 15.15625 -18.234375 C 14.8125 -18.546875 14.019531 -18.703125 12.78125 -18.703125 C 11.53125 -18.703125 10.734375 -18.546875 10.390625 -18.234375 C 10.046875 -17.921875 9.875 -17.546875 9.875 -17.109375 Z M 9.875 -7.796875 "/></g></g></g><g fill="#ffffff" fill-opacity="1"><g transform="translate(248.619308, 85.43548)"><g><path d="M 10.21875 -18.703125 L 10.21875 -14.265625 L 12.8125 -14.265625 C 13.414062 -14.265625 13.816406 -14.421875 14.015625 -14.734375 C 14.222656 -15.046875 14.328125 -15.429688 14.328125 -15.890625 L 14.328125 -17.0625 C 14.328125 -17.53125 14.222656 -17.921875 14.015625 -18.234375 C 13.816406 -18.546875 13.414062 -18.703125 12.8125 -18.703125 Z M 8.96875 0 L 3.640625 0 C 3.203125 0 2.882812 -0.0976562 2.6875 -0.296875 C 2.488281 -0.492188 2.390625 -0.8125 2.390625 -1.25 L 2.390625 -23.6875 C 2.390625 -24.125 2.488281 -24.441406 2.6875 -24.640625 C 2.882812 -24.835938 3.203125 -24.9375 3.640625 -24.9375 L 15.171875 -24.9375 C 17.753906 -24.9375 19.535156 -24.394531 20.515625 -23.3125 C 21.492188 -22.238281 21.984375 -20.847656 21.984375 -19.140625 L 21.984375 -17.5625 C 21.984375 -16.582031 21.835938 -15.753906 21.546875 -15.078125 C 21.265625 -14.398438 20.765625 -13.910156 20.046875 -13.609375 C 21.296875 -13.472656 22.304688 -12.960938 23.078125 -12.078125 C 23.847656 -11.203125 24.234375 -10.039062 24.234375 -8.59375 L 24.234375 -1.25 C 24.234375 -0.8125 24.132812 -0.492188 23.9375 -0.296875 C 23.75 -0.0976562 23.429688 0 22.984375 0 L 17.625 0 C 17.1875 0 16.867188 -0.0976562 16.671875 -0.296875 C 16.472656 -0.492188 16.375 -0.8125 16.375 -1.25 L 16.375 -6.546875 C 16.375 -7.054688 16.273438 -7.429688 16.078125 -7.671875 C 15.878906 -7.910156 15.539062 -8.03125 15.0625 -8.03125 L 10.21875 -8.03125 L 10.21875 -1.25 C 10.21875 -0.8125 10.117188 -0.492188 9.921875 -0.296875 C 9.722656 -0.0976562 9.40625 0 8.96875 0 Z M 8.96875 0 "/></g></g></g><g fill="#ffffff" fill-opacity="1"><g transform="translate(276.556394, 85.43548)"><g><path d="M 15.296875 0 L 3.640625 0 C 3.203125 0 2.882812 -0.0976562 2.6875 -0.296875 C 2.488281 -0.492188 2.390625 -0.8125 2.390625 -1.25 L 2.390625 -23.6875 C 2.390625 -24.125 2.488281 -24.441406 2.6875 -24.640625 C 2.882812 -24.835938 3.203125 -24.9375 3.640625 -24.9375 L 15.296875 -24.9375 C 18.179688 -24.9375 20.320312 -24.359375 21.71875 -23.203125 C 23.125 -22.046875 23.828125 -20.265625 23.828125 -17.859375 L 23.828125 -7.0625 C 23.828125 -4.664062 23.125 -2.890625 21.71875 -1.734375 C 20.320312 -0.578125 18.179688 0 15.296875 0 Z M 10.25 -18.3125 L 10.25 -6.546875 L 14.375 -6.546875 C 14.925781 -6.546875 15.332031 -6.679688 15.59375 -6.953125 C 15.863281 -7.234375 16 -7.660156 16 -8.234375 L 16 -16.65625 C 16 -17.226562 15.863281 -17.644531 15.59375 -17.90625 C 15.332031 -18.175781 14.925781 -18.3125 14.375 -18.3125 Z M 10.25 -18.3125 "/></g></g></g><g clip-path="url(#2008653a7a)"><path fill="#356264" d="M 83.933594 29.359375 L 22.832031 29.359375 C 17.675781 29.359375 13.480469 33.554688 13.480469 38.753906 L 13.480469 100.414062 C 13.480469 105.609375 17.675781 109.808594 22.832031 109.808594 L 74.542969 109.808594 L 72.125 101.371094 L 77.960938 106.796875 L 83.480469 111.90625 L 93.285156 120.570312 L 93.285156 38.75 C 93.285156 33.554688 89.085938 29.355469 83.933594 29.355469 Z M 66.335938 88.921875 C 66.335938 88.921875 64.691406 86.960938 63.324219 85.226562 C 69.296875 83.539062 71.578125 79.796875 71.578125 79.796875 C 69.707031 81.03125 67.929688 81.898438 66.335938 82.488281 C 64.054688 83.445312 61.863281 84.085938 59.71875 84.449219 C 55.34375 85.273438 51.332031 85.042969 47.910156 84.40625 C 45.3125 83.90625 43.078125 83.175781 41.207031 82.445312 C 40.160156 82.035156 39.019531 81.53125 37.878906 80.894531 C 37.742188 80.800781 37.605469 80.757812 37.46875 80.664062 C 37.378906 80.621094 37.332031 80.574219 37.285156 80.527344 C 36.464844 80.074219 36.007812 79.753906 36.007812 79.753906 C 36.007812 79.753906 38.199219 83.402344 43.988281 85.136719 C 42.621094 86.871094 40.933594 88.921875 40.933594 88.921875 C 30.855469 88.601562 27.027344 81.988281 27.027344 81.988281 C 27.027344 67.304688 33.59375 55.398438 33.59375 55.398438 C 40.160156 50.472656 46.40625 50.609375 46.40625 50.609375 L 46.863281 51.160156 C 38.652344 53.53125 34.867188 57.132812 34.867188 57.132812 C 34.867188 57.132812 35.871094 56.585938 37.558594 55.808594 C 42.4375 53.667969 46.316406 53.074219 47.910156 52.9375 C 48.183594 52.890625 48.410156 52.847656 48.683594 52.847656 C 51.46875 52.480469 54.613281 52.390625 57.898438 52.753906 C 62.230469 53.257812 66.878906 54.535156 71.621094 57.132812 C 71.621094 57.132812 68.019531 53.710938 60.269531 51.339844 L 60.90625 50.609375 C 60.90625 50.609375 67.15625 50.472656 73.71875 55.398438 C 73.71875 55.398438 80.289062 67.304688 80.289062 81.988281 C 80.289062 81.988281 76.410156 88.601562 66.335938 88.921875 Z M 45.128906 67.621094 C 42.53125 67.621094 40.476562 69.902344 40.476562 72.683594 C 40.476562 75.464844 42.574219 77.746094 45.128906 77.746094 C 47.726562 77.746094 49.78125 75.464844 49.78125 72.683594 C 49.824219 69.902344 47.726562 67.621094 45.128906 67.621094 M 61.773438 67.621094 C 59.175781 67.621094 57.125 69.902344 57.125 72.683594 C 57.125 75.464844 59.21875 77.746094 61.773438 77.746094 C 64.371094 77.746094 66.425781 75.464844 66.425781 72.683594 C 66.425781 69.902344 64.371094 67.621094 61.773438 67.621094 " fill-opacity="1" fill-rule="nonzero"/></g></svg>