<svg xmlns="http://www.w3.org/2000/svg" xmlns:xlink="http://www.w3.org/1999/xlink" width="600" zoomAndPan="magnify" viewBox="0 0 450 149.999998" height="200" preserveAspectRatio="xMidYMid meet" version="1.0"><defs><g/><clipPath id="3bf596cc99"><path d="M 0 25 L 450 25 L 450 130.847656 L 0 130.847656 Z M 0 25 " clip-rule="nonzero"/></clipPath><clipPath id="4c54bdb032"><path d="M 3.277344 28.746094 L 447.191406 28.746094 L 447.191406 121.253906 L 3.277344 121.253906 Z M 3.277344 28.746094 " clip-rule="nonzero"/></clipPath><clipPath id="16235acde6"><path d="M 20.527344 28.746094 L 429.941406 28.746094 C 434.515625 28.746094 438.902344 30.5625 442.136719 33.796875 C 445.371094 37.035156 447.191406 41.421875 447.191406 45.996094 L 447.191406 104.003906 C 447.191406 108.578125 445.371094 112.964844 442.136719 116.203125 C 438.902344 119.4375 434.515625 121.253906 429.941406 121.253906 L 20.527344 121.253906 C 15.953125 121.253906 11.566406 119.4375 8.332031 116.203125 C 5.09375 112.964844 3.277344 108.578125 3.277344 104.003906 L 3.277344 45.996094 C 3.277344 41.421875 5.09375 37.035156 8.332031 33.796875 C 11.566406 30.5625 15.953125 28.746094 20.527344 28.746094 Z M 20.527344 28.746094 " clip-rule="nonzero"/></clipPath><clipPath id="ca9618d918"><path d="M 60 46.058594 L 103.863281 46.058594 L 103.863281 93 L 60 93 Z M 60 46.058594 " clip-rule="nonzero"/></clipPath><clipPath id="1b505ed204"><path d="M 13.113281 46.058594 L 57 46.058594 L 57 93 L 13.113281 93 Z M 13.113281 46.058594 " clip-rule="nonzero"/></clipPath><clipPath id="88dfc123b0"><path d="M 35 52 L 82 52 L 82 101.558594 L 35 101.558594 Z M 35 52 " clip-rule="nonzero"/></clipPath></defs><g clip-path="url(#3bf596cc99)"><path fill="#ffffff" d="M 0 25 L 450 25 L 450 130.847656 L 0 130.847656 Z M 0 25 " fill-opacity="1" fill-rule="nonzero"/></g><g clip-path="url(#4c54bdb032)"><g clip-path="url(#16235acde6)"><path fill="#5ce1e6" d="M 3.277344 28.746094 L 447.191406 28.746094 L 447.191406 121.253906 L 3.277344 121.253906 Z M 3.277344 28.746094 " fill-opacity="1" fill-rule="nonzero"/></g></g><g clip-path="url(#ca9618d918)"><path fill="#287777" d="M 103.824219 86.261719 C 103.675781 82.214844 101.421875 78.539062 97.726562 75.828125 C 96.015625 74.578125 94 73.53125 91.738281 72.753906 C 95.046875 69.984375 97.152344 65.832031 97.152344 61.183594 C 97.152344 52.851562 90.390625 46.097656 82.046875 46.097656 C 73.703125 46.097656 66.9375 52.851562 66.9375 61.183594 C 66.9375 65.832031 69.042969 69.984375 72.351562 72.753906 C 70.089844 73.53125 68.074219 74.578125 66.367188 75.828125 C 62.671875 78.539062 60.421875 82.214844 60.265625 86.261719 C 60.210938 87.679688 60.367188 88.878906 60.699219 89.894531 C 66.351562 91.289062 73.835938 92.140625 82.046875 92.140625 C 90.277344 92.140625 97.777344 91.285156 103.433594 89.886719 C 103.738281 88.867188 103.878906 87.675781 103.824219 86.261719 " fill-opacity="1" fill-rule="nonzero"/></g><g clip-path="url(#1b505ed204)"><path fill="#287777" d="M 56.734375 86.261719 C 56.585938 82.214844 54.332031 78.539062 50.632812 75.828125 C 48.925781 74.578125 46.910156 73.53125 44.648438 72.753906 C 47.957031 69.984375 50.0625 65.832031 50.0625 61.183594 C 50.0625 52.851562 43.300781 46.097656 34.957031 46.097656 C 26.609375 46.097656 19.847656 52.851562 19.847656 61.183594 C 19.847656 65.832031 21.953125 69.984375 25.261719 72.753906 C 23 73.53125 20.984375 74.578125 19.277344 75.828125 C 15.582031 78.539062 13.332031 82.214844 13.175781 86.261719 C 13.121094 87.679688 13.277344 88.878906 13.609375 89.894531 C 19.261719 91.289062 26.746094 92.140625 34.957031 92.140625 C 43.1875 92.140625 50.6875 91.285156 56.34375 89.886719 C 56.644531 88.867188 56.789062 87.675781 56.734375 86.261719 " fill-opacity="1" fill-rule="nonzero"/></g><g clip-path="url(#88dfc123b0)"><path fill="#40bfbc" d="M 81.652344 95.292969 C 81.492188 90.992188 79.101562 87.085938 75.167969 84.207031 C 73.351562 82.875 71.210938 81.765625 68.804688 80.933594 C 72.324219 77.992188 74.558594 73.578125 74.558594 68.636719 C 74.558594 59.78125 67.371094 52.601562 58.5 52.601562 C 49.628906 52.601562 42.441406 59.78125 42.441406 68.636719 C 42.441406 73.578125 44.679688 77.992188 48.195312 80.933594 C 45.792969 81.765625 43.648438 82.875 41.835938 84.207031 C 37.90625 87.085938 35.511719 90.992188 35.347656 95.292969 C 35.289062 96.804688 35.457031 98.078125 35.808594 99.15625 C 41.816406 100.640625 49.773438 101.542969 58.5 101.542969 C 67.25 101.542969 75.222656 100.636719 81.234375 99.148438 C 81.558594 98.066406 81.707031 96.796875 81.652344 95.292969 " fill-opacity="1" fill-rule="nonzero"/></g><g fill="#0d4244" fill-opacity="0.302"><g transform="translate(138.363305, 85.953279)"><g><path d="M 7.015625 0 L 2.828125 0 C 2.492188 0 2.25 -0.0703125 2.09375 -0.21875 C 1.9375 -0.375 1.859375 -0.625 1.859375 -0.96875 L 1.859375 -18.46875 C 1.859375 -18.8125 1.9375 -19.054688 2.09375 -19.203125 C 2.25 -19.359375 2.492188 -19.4375 2.828125 -19.4375 L 11.09375 -19.4375 C 13.539062 -19.4375 15.210938 -18.953125 16.109375 -17.984375 C 17.015625 -17.015625 17.46875 -15.742188 17.46875 -14.171875 L 17.46875 -10.71875 C 17.46875 -9.15625 17.015625 -7.882812 16.109375 -6.90625 C 15.210938 -5.9375 13.539062 -5.453125 11.09375 -5.453125 L 7.984375 -5.453125 L 7.984375 -0.96875 C 7.984375 -0.625 7.90625 -0.375 7.75 -0.21875 C 7.601562 -0.0703125 7.359375 0 7.015625 0 Z M 7.9375 -14.390625 L 7.9375 -10.3125 L 10.375 -10.3125 C 10.894531 -10.3125 11.234375 -10.445312 11.390625 -10.71875 C 11.554688 -10.988281 11.640625 -11.296875 11.640625 -11.640625 L 11.640625 -13.0625 C 11.640625 -13.40625 11.554688 -13.710938 11.390625 -13.984375 C 11.234375 -14.253906 10.894531 -14.390625 10.375 -14.390625 Z M 7.9375 -14.390625 "/></g></g></g><g fill="#0d4244" fill-opacity="0.302"><g transform="translate(158.508655, 85.953279)"><g><path d="M 15.359375 0 L 2.828125 0 C 2.492188 0 2.25 -0.0703125 2.09375 -0.21875 C 1.9375 -0.375 1.859375 -0.625 1.859375 -0.96875 L 1.859375 -18.46875 C 1.859375 -18.8125 1.9375 -19.054688 2.09375 -19.203125 C 2.25 -19.359375 2.492188 -19.4375 2.828125 -19.4375 L 15.359375 -19.4375 C 15.703125 -19.4375 15.945312 -19.359375 16.09375 -19.203125 C 16.25 -19.054688 16.328125 -18.8125 16.328125 -18.46875 L 16.328125 -15.3125 C 16.328125 -14.96875 16.25 -14.71875 16.09375 -14.5625 C 15.945312 -14.414062 15.703125 -14.34375 15.359375 -14.34375 L 7.90625 -14.34375 L 7.90625 -12.265625 L 13.171875 -12.265625 C 13.515625 -12.265625 13.757812 -12.1875 13.90625 -12.03125 C 14.0625 -11.875 14.140625 -11.625 14.140625 -11.28125 L 14.140625 -8.390625 C 14.140625 -8.054688 14.0625 -7.8125 13.90625 -7.65625 C 13.757812 -7.5 13.515625 -7.421875 13.171875 -7.421875 L 7.90625 -7.421875 L 7.90625 -5.109375 L 15.359375 -5.109375 C 15.703125 -5.109375 15.945312 -5.03125 16.09375 -4.875 C 16.25 -4.71875 16.328125 -4.46875 16.328125 -4.125 L 16.328125 -0.96875 C 16.328125 -0.625 16.25 -0.375 16.09375 -0.21875 C 15.945312 -0.0703125 15.703125 0 15.359375 0 Z M 15.359375 0 "/></g></g></g><g fill="#0d4244" fill-opacity="0.302"><g transform="translate(177.897883, 85.953279)"><g><path d="M 7.96875 -14.578125 L 7.96875 -11.125 L 9.984375 -11.125 C 10.453125 -11.125 10.765625 -11.242188 10.921875 -11.484375 C 11.085938 -11.734375 11.171875 -12.035156 11.171875 -12.390625 L 11.171875 -13.3125 C 11.171875 -13.664062 11.085938 -13.960938 10.921875 -14.203125 C 10.765625 -14.453125 10.453125 -14.578125 9.984375 -14.578125 Z M 7 0 L 2.828125 0 C 2.492188 0 2.25 -0.0703125 2.09375 -0.21875 C 1.9375 -0.375 1.859375 -0.625 1.859375 -0.96875 L 1.859375 -18.46875 C 1.859375 -18.8125 1.9375 -19.054688 2.09375 -19.203125 C 2.25 -19.359375 2.492188 -19.4375 2.828125 -19.4375 L 11.828125 -19.4375 C 13.835938 -19.4375 15.222656 -19.015625 15.984375 -18.171875 C 16.753906 -17.335938 17.140625 -16.257812 17.140625 -14.9375 L 17.140625 -13.6875 C 17.140625 -12.9375 17.023438 -12.296875 16.796875 -11.765625 C 16.578125 -11.234375 16.191406 -10.847656 15.640625 -10.609375 C 16.609375 -10.503906 17.394531 -10.109375 18 -9.421875 C 18.601562 -8.734375 18.90625 -7.828125 18.90625 -6.703125 L 18.90625 -0.96875 C 18.90625 -0.625 18.828125 -0.375 18.671875 -0.21875 C 18.515625 -0.0703125 18.265625 0 17.921875 0 L 13.75 0 C 13.40625 0 13.15625 -0.0703125 13 -0.21875 C 12.84375 -0.375 12.765625 -0.625 12.765625 -0.96875 L 12.765625 -5.109375 C 12.765625 -5.503906 12.6875 -5.796875 12.53125 -5.984375 C 12.382812 -6.171875 12.125 -6.265625 11.75 -6.265625 L 7.96875 -6.265625 L 7.96875 -0.96875 C 7.96875 -0.625 7.890625 -0.375 7.734375 -0.21875 C 7.578125 -0.0703125 7.332031 0 7 0 Z M 7 0 "/></g></g></g><g fill="#0d4244" fill-opacity="0.302"><g transform="translate(199.690503, 85.953279)"><g><path d="M 6.859375 0 L 2.828125 0 C 2.492188 0 2.25 -0.0703125 2.09375 -0.21875 C 1.9375 -0.375 1.859375 -0.625 1.859375 -0.96875 L 1.859375 -18.46875 C 1.859375 -18.8125 1.9375 -19.054688 2.09375 -19.203125 C 2.25 -19.359375 2.492188 -19.4375 2.828125 -19.4375 L 7.1875 -19.4375 C 7.46875 -19.4375 7.703125 -19.375 7.890625 -19.25 C 8.085938 -19.125 8.265625 -18.914062 8.421875 -18.625 L 10.859375 -14.234375 C 10.941406 -14.066406 11.015625 -13.945312 11.078125 -13.875 C 11.140625 -13.800781 11.226562 -13.765625 11.34375 -13.765625 L 11.578125 -13.765625 C 11.691406 -13.765625 11.78125 -13.800781 11.84375 -13.875 C 11.90625 -13.945312 11.976562 -14.066406 12.0625 -14.234375 L 14.46875 -18.625 C 14.632812 -18.914062 14.8125 -19.125 15 -19.25 C 15.1875 -19.375 15.425781 -19.4375 15.71875 -19.4375 L 20.09375 -19.4375 C 20.425781 -19.4375 20.671875 -19.359375 20.828125 -19.203125 C 20.984375 -19.054688 21.0625 -18.8125 21.0625 -18.46875 L 21.0625 -0.96875 C 21.0625 -0.625 20.984375 -0.375 20.828125 -0.21875 C 20.671875 -0.0703125 20.425781 0 20.09375 0 L 15.9375 0 C 15.59375 0 15.34375 -0.0703125 15.1875 -0.21875 C 15.03125 -0.375 14.953125 -0.625 14.953125 -0.96875 L 14.953125 -10.46875 L 13.359375 -7.53125 C 13.203125 -7.226562 13.007812 -7.007812 12.78125 -6.875 C 12.5625 -6.738281 12.28125 -6.671875 11.9375 -6.671875 L 10.859375 -6.671875 C 10.515625 -6.671875 10.226562 -6.738281 10 -6.875 C 9.78125 -7.007812 9.585938 -7.226562 9.421875 -7.53125 L 7.828125 -10.46875 L 7.828125 -0.96875 C 7.828125 -0.625 7.75 -0.375 7.59375 -0.21875 C 7.445312 -0.0703125 7.203125 0 6.859375 0 Z M 6.859375 0 "/></g></g></g><g fill="#0d4244" fill-opacity="0.302"><g transform="translate(224.34559, 85.953279)"><g><path d="M 2.40625 0 C 2.0625 0 1.8125 -0.0703125 1.65625 -0.21875 C 1.507812 -0.375 1.4375 -0.625 1.4375 -0.96875 L 1.4375 -4.1875 C 1.4375 -4.53125 1.507812 -4.773438 1.65625 -4.921875 C 1.8125 -5.078125 2.0625 -5.15625 2.40625 -5.15625 L 5.078125 -5.15625 L 5.078125 -14.234375 L 2.40625 -14.234375 C 2.0625 -14.234375 1.8125 -14.304688 1.65625 -14.453125 C 1.507812 -14.609375 1.4375 -14.859375 1.4375 -15.203125 L 1.4375 -18.46875 C 1.4375 -18.8125 1.507812 -19.054688 1.65625 -19.203125 C 1.8125 -19.359375 2.0625 -19.4375 2.40625 -19.4375 L 13.90625 -19.4375 C 14.25 -19.4375 14.492188 -19.359375 14.640625 -19.203125 C 14.796875 -19.054688 14.875 -18.8125 14.875 -18.46875 L 14.875 -15.203125 C 14.875 -14.859375 14.796875 -14.609375 14.640625 -14.453125 C 14.492188 -14.304688 14.25 -14.234375 13.90625 -14.234375 L 11.28125 -14.234375 L 11.28125 -5.15625 L 13.90625 -5.15625 C 14.25 -5.15625 14.492188 -5.078125 14.640625 -4.921875 C 14.796875 -4.773438 14.875 -4.53125 14.875 -4.1875 L 14.875 -0.96875 C 14.875 -0.625 14.796875 -0.375 14.640625 -0.21875 C 14.492188 -0.0703125 14.25 0 13.90625 0 Z M 2.40625 0 "/></g></g></g><g fill="#0d4244" fill-opacity="0.302"><g transform="translate(242.411607, 85.953279)"><g><path d="M 10.875 0 L 2.34375 0 C 2.007812 0 1.765625 -0.0703125 1.609375 -0.21875 C 1.453125 -0.375 1.375 -0.625 1.375 -0.96875 L 1.375 -4.125 C 1.375 -4.46875 1.453125 -4.71875 1.609375 -4.875 C 1.765625 -5.03125 2.007812 -5.109375 2.34375 -5.109375 L 9.609375 -5.109375 C 9.847656 -5.109375 10.023438 -5.179688 10.140625 -5.328125 C 10.253906 -5.484375 10.3125 -5.671875 10.3125 -5.890625 C 10.3125 -6.191406 10.253906 -6.414062 10.140625 -6.5625 C 10.023438 -6.707031 9.847656 -6.785156 9.609375 -6.796875 L 5.5625 -7.375 C 4.300781 -7.550781 3.285156 -7.960938 2.515625 -8.609375 C 1.753906 -9.253906 1.375 -10.335938 1.375 -11.859375 L 1.375 -14.6875 C 1.375 -16.21875 1.867188 -17.390625 2.859375 -18.203125 C 3.847656 -19.023438 5.21875 -19.4375 6.96875 -19.4375 L 14.53125 -19.4375 C 14.863281 -19.4375 15.109375 -19.359375 15.265625 -19.203125 C 15.421875 -19.054688 15.5 -18.8125 15.5 -18.46875 L 15.5 -15.25 C 15.5 -14.90625 15.421875 -14.65625 15.265625 -14.5 C 15.109375 -14.351562 14.863281 -14.28125 14.53125 -14.28125 L 8.234375 -14.28125 C 8.003906 -14.28125 7.820312 -14.203125 7.6875 -14.046875 C 7.5625 -13.898438 7.5 -13.707031 7.5 -13.46875 C 7.5 -13.238281 7.5625 -13.039062 7.6875 -12.875 C 7.820312 -12.71875 8.003906 -12.628906 8.234375 -12.609375 L 12.265625 -12.0625 C 13.515625 -11.882812 14.523438 -11.472656 15.296875 -10.828125 C 16.078125 -10.179688 16.46875 -9.101562 16.46875 -7.59375 L 16.46875 -4.75 C 16.46875 -3.21875 15.96875 -2.039062 14.96875 -1.21875 C 13.96875 -0.40625 12.601562 0 10.875 0 Z M 10.875 0 "/></g></g></g><g fill="#0d4244" fill-opacity="0.302"><g transform="translate(261.692821, 85.953279)"><g><path d="M 10.875 0 L 2.34375 0 C 2.007812 0 1.765625 -0.0703125 1.609375 -0.21875 C 1.453125 -0.375 1.375 -0.625 1.375 -0.96875 L 1.375 -4.125 C 1.375 -4.46875 1.453125 -4.71875 1.609375 -4.875 C 1.765625 -5.03125 2.007812 -5.109375 2.34375 -5.109375 L 9.609375 -5.109375 C 9.847656 -5.109375 10.023438 -5.179688 10.140625 -5.328125 C 10.253906 -5.484375 10.3125 -5.671875 10.3125 -5.890625 C 10.3125 -6.191406 10.253906 -6.414062 10.140625 -6.5625 C 10.023438 -6.707031 9.847656 -6.785156 9.609375 -6.796875 L 5.5625 -7.375 C 4.300781 -7.550781 3.285156 -7.960938 2.515625 -8.609375 C 1.753906 -9.253906 1.375 -10.335938 1.375 -11.859375 L 1.375 -14.6875 C 1.375 -16.21875 1.867188 -17.390625 2.859375 -18.203125 C 3.847656 -19.023438 5.21875 -19.4375 6.96875 -19.4375 L 14.53125 -19.4375 C 14.863281 -19.4375 15.109375 -19.359375 15.265625 -19.203125 C 15.421875 -19.054688 15.5 -18.8125 15.5 -18.46875 L 15.5 -15.25 C 15.5 -14.90625 15.421875 -14.65625 15.265625 -14.5 C 15.109375 -14.351562 14.863281 -14.28125 14.53125 -14.28125 L 8.234375 -14.28125 C 8.003906 -14.28125 7.820312 -14.203125 7.6875 -14.046875 C 7.5625 -13.898438 7.5 -13.707031 7.5 -13.46875 C 7.5 -13.238281 7.5625 -13.039062 7.6875 -12.875 C 7.820312 -12.71875 8.003906 -12.628906 8.234375 -12.609375 L 12.265625 -12.0625 C 13.515625 -11.882812 14.523438 -11.472656 15.296875 -10.828125 C 16.078125 -10.179688 16.46875 -9.101562 16.46875 -7.59375 L 16.46875 -4.75 C 16.46875 -3.21875 15.96875 -2.039062 14.96875 -1.21875 C 13.96875 -0.40625 12.601562 0 10.875 0 Z M 10.875 0 "/></g></g></g><g fill="#0d4244" fill-opacity="0.302"><g transform="translate(280.974034, 85.953279)"><g><path d="M 2.40625 0 C 2.0625 0 1.8125 -0.0703125 1.65625 -0.21875 C 1.507812 -0.375 1.4375 -0.625 1.4375 -0.96875 L 1.4375 -4.1875 C 1.4375 -4.53125 1.507812 -4.773438 1.65625 -4.921875 C 1.8125 -5.078125 2.0625 -5.15625 2.40625 -5.15625 L 5.078125 -5.15625 L 5.078125 -14.234375 L 2.40625 -14.234375 C 2.0625 -14.234375 1.8125 -14.304688 1.65625 -14.453125 C 1.507812 -14.609375 1.4375 -14.859375 1.4375 -15.203125 L 1.4375 -18.46875 C 1.4375 -18.8125 1.507812 -19.054688 1.65625 -19.203125 C 1.8125 -19.359375 2.0625 -19.4375 2.40625 -19.4375 L 13.90625 -19.4375 C 14.25 -19.4375 14.492188 -19.359375 14.640625 -19.203125 C 14.796875 -19.054688 14.875 -18.8125 14.875 -18.46875 L 14.875 -15.203125 C 14.875 -14.859375 14.796875 -14.609375 14.640625 -14.453125 C 14.492188 -14.304688 14.25 -14.234375 13.90625 -14.234375 L 11.28125 -14.234375 L 11.28125 -5.15625 L 13.90625 -5.15625 C 14.25 -5.15625 14.492188 -5.078125 14.640625 -4.921875 C 14.796875 -4.773438 14.875 -4.53125 14.875 -4.1875 L 14.875 -0.96875 C 14.875 -0.625 14.796875 -0.375 14.640625 -0.21875 C 14.492188 -0.0703125 14.25 0 13.90625 0 Z M 2.40625 0 "/></g></g></g><g fill="#0d4244" fill-opacity="0.302"><g transform="translate(299.040052, 85.953279)"><g><path d="M 18.328125 -5.109375 C 18.328125 -4.273438 18.207031 -3.519531 17.96875 -2.84375 C 17.726562 -2.175781 17.296875 -1.601562 16.671875 -1.125 C 16.046875 -0.644531 15.1875 -0.269531 14.09375 0 C 13.007812 0.269531 11.632812 0.40625 9.96875 0.40625 C 8.289062 0.40625 6.898438 0.269531 5.796875 0 C 4.703125 -0.269531 3.84375 -0.644531 3.21875 -1.125 C 2.601562 -1.601562 2.171875 -2.175781 1.921875 -2.84375 C 1.679688 -3.519531 1.5625 -4.273438 1.5625 -5.109375 L 1.5625 -14.3125 C 1.5625 -15.132812 1.679688 -15.882812 1.921875 -16.5625 C 2.171875 -17.238281 2.601562 -17.816406 3.21875 -18.296875 C 3.84375 -18.785156 4.703125 -19.164062 5.796875 -19.4375 C 6.898438 -19.707031 8.289062 -19.84375 9.96875 -19.84375 C 11.632812 -19.84375 13.007812 -19.707031 14.09375 -19.4375 C 15.1875 -19.164062 16.046875 -18.785156 16.671875 -18.296875 C 17.296875 -17.816406 17.726562 -17.238281 17.96875 -16.5625 C 18.207031 -15.882812 18.328125 -15.132812 18.328125 -14.3125 Z M 7.6875 -6.078125 C 7.6875 -5.710938 7.820312 -5.410156 8.09375 -5.171875 C 8.363281 -4.929688 8.988281 -4.8125 9.96875 -4.8125 C 10.9375 -4.8125 11.554688 -4.929688 11.828125 -5.171875 C 12.097656 -5.410156 12.234375 -5.710938 12.234375 -6.078125 L 12.234375 -13.34375 C 12.234375 -13.675781 12.097656 -13.960938 11.828125 -14.203125 C 11.554688 -14.453125 10.9375 -14.578125 9.96875 -14.578125 C 8.988281 -14.578125 8.363281 -14.453125 8.09375 -14.203125 C 7.820312 -13.960938 7.6875 -13.675781 7.6875 -13.34375 Z M 7.6875 -6.078125 "/></g></g></g><g fill="#0d4244" fill-opacity="0.302"><g transform="translate(320.670648, 85.953279)"><g><path d="M 6.890625 0 L 2.828125 0 C 2.492188 0 2.25 -0.0703125 2.09375 -0.21875 C 1.9375 -0.375 1.859375 -0.625 1.859375 -0.96875 L 1.859375 -18.46875 C 1.859375 -18.8125 1.9375 -19.054688 2.09375 -19.203125 C 2.25 -19.359375 2.492188 -19.4375 2.828125 -19.4375 L 5.640625 -19.4375 C 5.984375 -19.4375 6.273438 -19.378906 6.515625 -19.265625 C 6.765625 -19.160156 7.003906 -18.976562 7.234375 -18.71875 L 12.46875 -12.71875 L 12.46875 -18.46875 C 12.46875 -18.8125 12.546875 -19.054688 12.703125 -19.203125 C 12.859375 -19.359375 13.109375 -19.4375 13.453125 -19.4375 L 17.5 -19.4375 C 17.84375 -19.4375 18.085938 -19.359375 18.234375 -19.203125 C 18.390625 -19.054688 18.46875 -18.8125 18.46875 -18.46875 L 18.46875 -0.96875 C 18.46875 -0.625 18.390625 -0.375 18.234375 -0.21875 C 18.085938 -0.0703125 17.84375 0 17.5 0 L 13.453125 0 C 13.109375 0 12.859375 -0.0703125 12.703125 -0.21875 C 12.546875 -0.375 12.46875 -0.625 12.46875 -0.96875 L 12.46875 -4.296875 L 7.859375 -9.875 L 7.859375 -0.96875 C 7.859375 -0.625 7.78125 -0.375 7.625 -0.21875 C 7.46875 -0.0703125 7.222656 0 6.890625 0 Z M 6.890625 0 "/></g></g></g><g fill="#0d4244" fill-opacity="0.302"><g transform="translate(342.733313, 85.953279)"><g><path d="M 10.875 0 L 2.34375 0 C 2.007812 0 1.765625 -0.0703125 1.609375 -0.21875 C 1.453125 -0.375 1.375 -0.625 1.375 -0.96875 L 1.375 -4.125 C 1.375 -4.46875 1.453125 -4.71875 1.609375 -4.875 C 1.765625 -5.03125 2.007812 -5.109375 2.34375 -5.109375 L 9.609375 -5.109375 C 9.847656 -5.109375 10.023438 -5.179688 10.140625 -5.328125 C 10.253906 -5.484375 10.3125 -5.671875 10.3125 -5.890625 C 10.3125 -6.191406 10.253906 -6.414062 10.140625 -6.5625 C 10.023438 -6.707031 9.847656 -6.785156 9.609375 -6.796875 L 5.5625 -7.375 C 4.300781 -7.550781 3.285156 -7.960938 2.515625 -8.609375 C 1.753906 -9.253906 1.375 -10.335938 1.375 -11.859375 L 1.375 -14.6875 C 1.375 -16.21875 1.867188 -17.390625 2.859375 -18.203125 C 3.847656 -19.023438 5.21875 -19.4375 6.96875 -19.4375 L 14.53125 -19.4375 C 14.863281 -19.4375 15.109375 -19.359375 15.265625 -19.203125 C 15.421875 -19.054688 15.5 -18.8125 15.5 -18.46875 L 15.5 -15.25 C 15.5 -14.90625 15.421875 -14.65625 15.265625 -14.5 C 15.109375 -14.351562 14.863281 -14.28125 14.53125 -14.28125 L 8.234375 -14.28125 C 8.003906 -14.28125 7.820312 -14.203125 7.6875 -14.046875 C 7.5625 -13.898438 7.5 -13.707031 7.5 -13.46875 C 7.5 -13.238281 7.5625 -13.039062 7.6875 -12.875 C 7.820312 -12.71875 8.003906 -12.628906 8.234375 -12.609375 L 12.265625 -12.0625 C 13.515625 -11.882812 14.523438 -11.472656 15.296875 -10.828125 C 16.078125 -10.179688 16.46875 -9.101562 16.46875 -7.59375 L 16.46875 -4.75 C 16.46875 -3.21875 15.96875 -2.039062 14.96875 -1.21875 C 13.96875 -0.40625 12.601562 0 10.875 0 Z M 10.875 0 "/></g></g></g><g fill="#0d4244" fill-opacity="0.502"><g transform="translate(137.169824, 84.759798)"><g><path d="M 7.015625 0 L 2.828125 0 C 2.492188 0 2.25 -0.0703125 2.09375 -0.21875 C 1.9375 -0.375 1.859375 -0.625 1.859375 -0.96875 L 1.859375 -18.46875 C 1.859375 -18.8125 1.9375 -19.054688 2.09375 -19.203125 C 2.25 -19.359375 2.492188 -19.4375 2.828125 -19.4375 L 11.09375 -19.4375 C 13.539062 -19.4375 15.210938 -18.953125 16.109375 -17.984375 C 17.015625 -17.015625 17.46875 -15.742188 17.46875 -14.171875 L 17.46875 -10.71875 C 17.46875 -9.15625 17.015625 -7.882812 16.109375 -6.90625 C 15.210938 -5.9375 13.539062 -5.453125 11.09375 -5.453125 L 7.984375 -5.453125 L 7.984375 -0.96875 C 7.984375 -0.625 7.90625 -0.375 7.75 -0.21875 C 7.601562 -0.0703125 7.359375 0 7.015625 0 Z M 7.9375 -14.390625 L 7.9375 -10.3125 L 10.375 -10.3125 C 10.894531 -10.3125 11.234375 -10.445312 11.390625 -10.71875 C 11.554688 -10.988281 11.640625 -11.296875 11.640625 -11.640625 L 11.640625 -13.0625 C 11.640625 -13.40625 11.554688 -13.710938 11.390625 -13.984375 C 11.234375 -14.253906 10.894531 -14.390625 10.375 -14.390625 Z M 7.9375 -14.390625 "/></g></g></g><g fill="#0d4244" fill-opacity="0.502"><g transform="translate(157.315174, 84.759798)"><g><path d="M 15.359375 0 L 2.828125 0 C 2.492188 0 2.25 -0.0703125 2.09375 -0.21875 C 1.9375 -0.375 1.859375 -0.625 1.859375 -0.96875 L 1.859375 -18.46875 C 1.859375 -18.8125 1.9375 -19.054688 2.09375 -19.203125 C 2.25 -19.359375 2.492188 -19.4375 2.828125 -19.4375 L 15.359375 -19.4375 C 15.703125 -19.4375 15.945312 -19.359375 16.09375 -19.203125 C 16.25 -19.054688 16.328125 -18.8125 16.328125 -18.46875 L 16.328125 -15.3125 C 16.328125 -14.96875 16.25 -14.71875 16.09375 -14.5625 C 15.945312 -14.414062 15.703125 -14.34375 15.359375 -14.34375 L 7.90625 -14.34375 L 7.90625 -12.265625 L 13.171875 -12.265625 C 13.515625 -12.265625 13.757812 -12.1875 13.90625 -12.03125 C 14.0625 -11.875 14.140625 -11.625 14.140625 -11.28125 L 14.140625 -8.390625 C 14.140625 -8.054688 14.0625 -7.8125 13.90625 -7.65625 C 13.757812 -7.5 13.515625 -7.421875 13.171875 -7.421875 L 7.90625 -7.421875 L 7.90625 -5.109375 L 15.359375 -5.109375 C 15.703125 -5.109375 15.945312 -5.03125 16.09375 -4.875 C 16.25 -4.71875 16.328125 -4.46875 16.328125 -4.125 L 16.328125 -0.96875 C 16.328125 -0.625 16.25 -0.375 16.09375 -0.21875 C 15.945312 -0.0703125 15.703125 0 15.359375 0 Z M 15.359375 0 "/></g></g></g><g fill="#0d4244" fill-opacity="0.502"><g transform="translate(176.704401, 84.759798)"><g><path d="M 7.96875 -14.578125 L 7.96875 -11.125 L 9.984375 -11.125 C 10.453125 -11.125 10.765625 -11.242188 10.921875 -11.484375 C 11.085938 -11.734375 11.171875 -12.035156 11.171875 -12.390625 L 11.171875 -13.3125 C 11.171875 -13.664062 11.085938 -13.960938 10.921875 -14.203125 C 10.765625 -14.453125 10.453125 -14.578125 9.984375 -14.578125 Z M 7 0 L 2.828125 0 C 2.492188 0 2.25 -0.0703125 2.09375 -0.21875 C 1.9375 -0.375 1.859375 -0.625 1.859375 -0.96875 L 1.859375 -18.46875 C 1.859375 -18.8125 1.9375 -19.054688 2.09375 -19.203125 C 2.25 -19.359375 2.492188 -19.4375 2.828125 -19.4375 L 11.828125 -19.4375 C 13.835938 -19.4375 15.222656 -19.015625 15.984375 -18.171875 C 16.753906 -17.335938 17.140625 -16.257812 17.140625 -14.9375 L 17.140625 -13.6875 C 17.140625 -12.9375 17.023438 -12.296875 16.796875 -11.765625 C 16.578125 -11.234375 16.191406 -10.847656 15.640625 -10.609375 C 16.609375 -10.503906 17.394531 -10.109375 18 -9.421875 C 18.601562 -8.734375 18.90625 -7.828125 18.90625 -6.703125 L 18.90625 -0.96875 C 18.90625 -0.625 18.828125 -0.375 18.671875 -0.21875 C 18.515625 -0.0703125 18.265625 0 17.921875 0 L 13.75 0 C 13.40625 0 13.15625 -0.0703125 13 -0.21875 C 12.84375 -0.375 12.765625 -0.625 12.765625 -0.96875 L 12.765625 -5.109375 C 12.765625 -5.503906 12.6875 -5.796875 12.53125 -5.984375 C 12.382812 -6.171875 12.125 -6.265625 11.75 -6.265625 L 7.96875 -6.265625 L 7.96875 -0.96875 C 7.96875 -0.625 7.890625 -0.375 7.734375 -0.21875 C 7.578125 -0.0703125 7.332031 0 7 0 Z M 7 0 "/></g></g></g><g fill="#0d4244" fill-opacity="0.502"><g transform="translate(198.497022, 84.759798)"><g><path d="M 6.859375 0 L 2.828125 0 C 2.492188 0 2.25 -0.0703125 2.09375 -0.21875 C 1.9375 -0.375 1.859375 -0.625 1.859375 -0.96875 L 1.859375 -18.46875 C 1.859375 -18.8125 1.9375 -19.054688 2.09375 -19.203125 C 2.25 -19.359375 2.492188 -19.4375 2.828125 -19.4375 L 7.1875 -19.4375 C 7.46875 -19.4375 7.703125 -19.375 7.890625 -19.25 C 8.085938 -19.125 8.265625 -18.914062 8.421875 -18.625 L 10.859375 -14.234375 C 10.941406 -14.066406 11.015625 -13.945312 11.078125 -13.875 C 11.140625 -13.800781 11.226562 -13.765625 11.34375 -13.765625 L 11.578125 -13.765625 C 11.691406 -13.765625 11.78125 -13.800781 11.84375 -13.875 C 11.90625 -13.945312 11.976562 -14.066406 12.0625 -14.234375 L 14.46875 -18.625 C 14.632812 -18.914062 14.8125 -19.125 15 -19.25 C 15.1875 -19.375 15.425781 -19.4375 15.71875 -19.4375 L 20.09375 -19.4375 C 20.425781 -19.4375 20.671875 -19.359375 20.828125 -19.203125 C 20.984375 -19.054688 21.0625 -18.8125 21.0625 -18.46875 L 21.0625 -0.96875 C 21.0625 -0.625 20.984375 -0.375 20.828125 -0.21875 C 20.671875 -0.0703125 20.425781 0 20.09375 0 L 15.9375 0 C 15.59375 0 15.34375 -0.0703125 15.1875 -0.21875 C 15.03125 -0.375 14.953125 -0.625 14.953125 -0.96875 L 14.953125 -10.46875 L 13.359375 -7.53125 C 13.203125 -7.226562 13.007812 -7.007812 12.78125 -6.875 C 12.5625 -6.738281 12.28125 -6.671875 11.9375 -6.671875 L 10.859375 -6.671875 C 10.515625 -6.671875 10.226562 -6.738281 10 -6.875 C 9.78125 -7.007812 9.585938 -7.226562 9.421875 -7.53125 L 7.828125 -10.46875 L 7.828125 -0.96875 C 7.828125 -0.625 7.75 -0.375 7.59375 -0.21875 C 7.445312 -0.0703125 7.203125 0 6.859375 0 Z M 6.859375 0 "/></g></g></g><g fill="#0d4244" fill-opacity="0.502"><g transform="translate(223.152108, 84.759798)"><g><path d="M 2.40625 0 C 2.0625 0 1.8125 -0.0703125 1.65625 -0.21875 C 1.507812 -0.375 1.4375 -0.625 1.4375 -0.96875 L 1.4375 -4.1875 C 1.4375 -4.53125 1.507812 -4.773438 1.65625 -4.921875 C 1.8125 -5.078125 2.0625 -5.15625 2.40625 -5.15625 L 5.078125 -5.15625 L 5.078125 -14.234375 L 2.40625 -14.234375 C 2.0625 -14.234375 1.8125 -14.304688 1.65625 -14.453125 C 1.507812 -14.609375 1.4375 -14.859375 1.4375 -15.203125 L 1.4375 -18.46875 C 1.4375 -18.8125 1.507812 -19.054688 1.65625 -19.203125 C 1.8125 -19.359375 2.0625 -19.4375 2.40625 -19.4375 L 13.90625 -19.4375 C 14.25 -19.4375 14.492188 -19.359375 14.640625 -19.203125 C 14.796875 -19.054688 14.875 -18.8125 14.875 -18.46875 L 14.875 -15.203125 C 14.875 -14.859375 14.796875 -14.609375 14.640625 -14.453125 C 14.492188 -14.304688 14.25 -14.234375 13.90625 -14.234375 L 11.28125 -14.234375 L 11.28125 -5.15625 L 13.90625 -5.15625 C 14.25 -5.15625 14.492188 -5.078125 14.640625 -4.921875 C 14.796875 -4.773438 14.875 -4.53125 14.875 -4.1875 L 14.875 -0.96875 C 14.875 -0.625 14.796875 -0.375 14.640625 -0.21875 C 14.492188 -0.0703125 14.25 0 13.90625 0 Z M 2.40625 0 "/></g></g></g><g fill="#0d4244" fill-opacity="0.502"><g transform="translate(241.218126, 84.759798)"><g><path d="M 10.875 0 L 2.34375 0 C 2.007812 0 1.765625 -0.0703125 1.609375 -0.21875 C 1.453125 -0.375 1.375 -0.625 1.375 -0.96875 L 1.375 -4.125 C 1.375 -4.46875 1.453125 -4.71875 1.609375 -4.875 C 1.765625 -5.03125 2.007812 -5.109375 2.34375 -5.109375 L 9.609375 -5.109375 C 9.847656 -5.109375 10.023438 -5.179688 10.140625 -5.328125 C 10.253906 -5.484375 10.3125 -5.671875 10.3125 -5.890625 C 10.3125 -6.191406 10.253906 -6.414062 10.140625 -6.5625 C 10.023438 -6.707031 9.847656 -6.785156 9.609375 -6.796875 L 5.5625 -7.375 C 4.300781 -7.550781 3.285156 -7.960938 2.515625 -8.609375 C 1.753906 -9.253906 1.375 -10.335938 1.375 -11.859375 L 1.375 -14.6875 C 1.375 -16.21875 1.867188 -17.390625 2.859375 -18.203125 C 3.847656 -19.023438 5.21875 -19.4375 6.96875 -19.4375 L 14.53125 -19.4375 C 14.863281 -19.4375 15.109375 -19.359375 15.265625 -19.203125 C 15.421875 -19.054688 15.5 -18.8125 15.5 -18.46875 L 15.5 -15.25 C 15.5 -14.90625 15.421875 -14.65625 15.265625 -14.5 C 15.109375 -14.351562 14.863281 -14.28125 14.53125 -14.28125 L 8.234375 -14.28125 C 8.003906 -14.28125 7.820312 -14.203125 7.6875 -14.046875 C 7.5625 -13.898438 7.5 -13.707031 7.5 -13.46875 C 7.5 -13.238281 7.5625 -13.039062 7.6875 -12.875 C 7.820312 -12.71875 8.003906 -12.628906 8.234375 -12.609375 L 12.265625 -12.0625 C 13.515625 -11.882812 14.523438 -11.472656 15.296875 -10.828125 C 16.078125 -10.179688 16.46875 -9.101562 16.46875 -7.59375 L 16.46875 -4.75 C 16.46875 -3.21875 15.96875 -2.039062 14.96875 -1.21875 C 13.96875 -0.40625 12.601562 0 10.875 0 Z M 10.875 0 "/></g></g></g><g fill="#0d4244" fill-opacity="0.502"><g transform="translate(260.499339, 84.759798)"><g><path d="M 10.875 0 L 2.34375 0 C 2.007812 0 1.765625 -0.0703125 1.609375 -0.21875 C 1.453125 -0.375 1.375 -0.625 1.375 -0.96875 L 1.375 -4.125 C 1.375 -4.46875 1.453125 -4.71875 1.609375 -4.875 C 1.765625 -5.03125 2.007812 -5.109375 2.34375 -5.109375 L 9.609375 -5.109375 C 9.847656 -5.109375 10.023438 -5.179688 10.140625 -5.328125 C 10.253906 -5.484375 10.3125 -5.671875 10.3125 -5.890625 C 10.3125 -6.191406 10.253906 -6.414062 10.140625 -6.5625 C 10.023438 -6.707031 9.847656 -6.785156 9.609375 -6.796875 L 5.5625 -7.375 C 4.300781 -7.550781 3.285156 -7.960938 2.515625 -8.609375 C 1.753906 -9.253906 1.375 -10.335938 1.375 -11.859375 L 1.375 -14.6875 C 1.375 -16.21875 1.867188 -17.390625 2.859375 -18.203125 C 3.847656 -19.023438 5.21875 -19.4375 6.96875 -19.4375 L 14.53125 -19.4375 C 14.863281 -19.4375 15.109375 -19.359375 15.265625 -19.203125 C 15.421875 -19.054688 15.5 -18.8125 15.5 -18.46875 L 15.5 -15.25 C 15.5 -14.90625 15.421875 -14.65625 15.265625 -14.5 C 15.109375 -14.351562 14.863281 -14.28125 14.53125 -14.28125 L 8.234375 -14.28125 C 8.003906 -14.28125 7.820312 -14.203125 7.6875 -14.046875 C 7.5625 -13.898438 7.5 -13.707031 7.5 -13.46875 C 7.5 -13.238281 7.5625 -13.039062 7.6875 -12.875 C 7.820312 -12.71875 8.003906 -12.628906 8.234375 -12.609375 L 12.265625 -12.0625 C 13.515625 -11.882812 14.523438 -11.472656 15.296875 -10.828125 C 16.078125 -10.179688 16.46875 -9.101562 16.46875 -7.59375 L 16.46875 -4.75 C 16.46875 -3.21875 15.96875 -2.039062 14.96875 -1.21875 C 13.96875 -0.40625 12.601562 0 10.875 0 Z M 10.875 0 "/></g></g></g><g fill="#0d4244" fill-opacity="0.502"><g transform="translate(279.780553, 84.759798)"><g><path d="M 2.40625 0 C 2.0625 0 1.8125 -0.0703125 1.65625 -0.21875 C 1.507812 -0.375 1.4375 -0.625 1.4375 -0.96875 L 1.4375 -4.1875 C 1.4375 -4.53125 1.507812 -4.773438 1.65625 -4.921875 C 1.8125 -5.078125 2.0625 -5.15625 2.40625 -5.15625 L 5.078125 -5.15625 L 5.078125 -14.234375 L 2.40625 -14.234375 C 2.0625 -14.234375 1.8125 -14.304688 1.65625 -14.453125 C 1.507812 -14.609375 1.4375 -14.859375 1.4375 -15.203125 L 1.4375 -18.46875 C 1.4375 -18.8125 1.507812 -19.054688 1.65625 -19.203125 C 1.8125 -19.359375 2.0625 -19.4375 2.40625 -19.4375 L 13.90625 -19.4375 C 14.25 -19.4375 14.492188 -19.359375 14.640625 -19.203125 C 14.796875 -19.054688 14.875 -18.8125 14.875 -18.46875 L 14.875 -15.203125 C 14.875 -14.859375 14.796875 -14.609375 14.640625 -14.453125 C 14.492188 -14.304688 14.25 -14.234375 13.90625 -14.234375 L 11.28125 -14.234375 L 11.28125 -5.15625 L 13.90625 -5.15625 C 14.25 -5.15625 14.492188 -5.078125 14.640625 -4.921875 C 14.796875 -4.773438 14.875 -4.53125 14.875 -4.1875 L 14.875 -0.96875 C 14.875 -0.625 14.796875 -0.375 14.640625 -0.21875 C 14.492188 -0.0703125 14.25 0 13.90625 0 Z M 2.40625 0 "/></g></g></g><g fill="#0d4244" fill-opacity="0.502"><g transform="translate(297.846571, 84.759798)"><g><path d="M 18.328125 -5.109375 C 18.328125 -4.273438 18.207031 -3.519531 17.96875 -2.84375 C 17.726562 -2.175781 17.296875 -1.601562 16.671875 -1.125 C 16.046875 -0.644531 15.1875 -0.269531 14.09375 0 C 13.007812 0.269531 11.632812 0.40625 9.96875 0.40625 C 8.289062 0.40625 6.898438 0.269531 5.796875 0 C 4.703125 -0.269531 3.84375 -0.644531 3.21875 -1.125 C 2.601562 -1.601562 2.171875 -2.175781 1.921875 -2.84375 C 1.679688 -3.519531 1.5625 -4.273438 1.5625 -5.109375 L 1.5625 -14.3125 C 1.5625 -15.132812 1.679688 -15.882812 1.921875 -16.5625 C 2.171875 -17.238281 2.601562 -17.816406 3.21875 -18.296875 C 3.84375 -18.785156 4.703125 -19.164062 5.796875 -19.4375 C 6.898438 -19.707031 8.289062 -19.84375 9.96875 -19.84375 C 11.632812 -19.84375 13.007812 -19.707031 14.09375 -19.4375 C 15.1875 -19.164062 16.046875 -18.785156 16.671875 -18.296875 C 17.296875 -17.816406 17.726562 -17.238281 17.96875 -16.5625 C 18.207031 -15.882812 18.328125 -15.132812 18.328125 -14.3125 Z M 7.6875 -6.078125 C 7.6875 -5.710938 7.820312 -5.410156 8.09375 -5.171875 C 8.363281 -4.929688 8.988281 -4.8125 9.96875 -4.8125 C 10.9375 -4.8125 11.554688 -4.929688 11.828125 -5.171875 C 12.097656 -5.410156 12.234375 -5.710938 12.234375 -6.078125 L 12.234375 -13.34375 C 12.234375 -13.675781 12.097656 -13.960938 11.828125 -14.203125 C 11.554688 -14.453125 10.9375 -14.578125 9.96875 -14.578125 C 8.988281 -14.578125 8.363281 -14.453125 8.09375 -14.203125 C 7.820312 -13.960938 7.6875 -13.675781 7.6875 -13.34375 Z M 7.6875 -6.078125 "/></g></g></g><g fill="#0d4244" fill-opacity="0.502"><g transform="translate(319.477167, 84.759798)"><g><path d="M 6.890625 0 L 2.828125 0 C 2.492188 0 2.25 -0.0703125 2.09375 -0.21875 C 1.9375 -0.375 1.859375 -0.625 1.859375 -0.96875 L 1.859375 -18.46875 C 1.859375 -18.8125 1.9375 -19.054688 2.09375 -19.203125 C 2.25 -19.359375 2.492188 -19.4375 2.828125 -19.4375 L 5.640625 -19.4375 C 5.984375 -19.4375 6.273438 -19.378906 6.515625 -19.265625 C 6.765625 -19.160156 7.003906 -18.976562 7.234375 -18.71875 L 12.46875 -12.71875 L 12.46875 -18.46875 C 12.46875 -18.8125 12.546875 -19.054688 12.703125 -19.203125 C 12.859375 -19.359375 13.109375 -19.4375 13.453125 -19.4375 L 17.5 -19.4375 C 17.84375 -19.4375 18.085938 -19.359375 18.234375 -19.203125 C 18.390625 -19.054688 18.46875 -18.8125 18.46875 -18.46875 L 18.46875 -0.96875 C 18.46875 -0.625 18.390625 -0.375 18.234375 -0.21875 C 18.085938 -0.0703125 17.84375 0 17.5 0 L 13.453125 0 C 13.109375 0 12.859375 -0.0703125 12.703125 -0.21875 C 12.546875 -0.375 12.46875 -0.625 12.46875 -0.96875 L 12.46875 -4.296875 L 7.859375 -9.875 L 7.859375 -0.96875 C 7.859375 -0.625 7.78125 -0.375 7.625 -0.21875 C 7.46875 -0.0703125 7.222656 0 6.890625 0 Z M 6.890625 0 "/></g></g></g><g fill="#0d4244" fill-opacity="0.502"><g transform="translate(341.539831, 84.759798)"><g><path d="M 10.875 0 L 2.34375 0 C 2.007812 0 1.765625 -0.0703125 1.609375 -0.21875 C 1.453125 -0.375 1.375 -0.625 1.375 -0.96875 L 1.375 -4.125 C 1.375 -4.46875 1.453125 -4.71875 1.609375 -4.875 C 1.765625 -5.03125 2.007812 -5.109375 2.34375 -5.109375 L 9.609375 -5.109375 C 9.847656 -5.109375 10.023438 -5.179688 10.140625 -5.328125 C 10.253906 -5.484375 10.3125 -5.671875 10.3125 -5.890625 C 10.3125 -6.191406 10.253906 -6.414062 10.140625 -6.5625 C 10.023438 -6.707031 9.847656 -6.785156 9.609375 -6.796875 L 5.5625 -7.375 C 4.300781 -7.550781 3.285156 -7.960938 2.515625 -8.609375 C 1.753906 -9.253906 1.375 -10.335938 1.375 -11.859375 L 1.375 -14.6875 C 1.375 -16.21875 1.867188 -17.390625 2.859375 -18.203125 C 3.847656 -19.023438 5.21875 -19.4375 6.96875 -19.4375 L 14.53125 -19.4375 C 14.863281 -19.4375 15.109375 -19.359375 15.265625 -19.203125 C 15.421875 -19.054688 15.5 -18.8125 15.5 -18.46875 L 15.5 -15.25 C 15.5 -14.90625 15.421875 -14.65625 15.265625 -14.5 C 15.109375 -14.351562 14.863281 -14.28125 14.53125 -14.28125 L 8.234375 -14.28125 C 8.003906 -14.28125 7.820312 -14.203125 7.6875 -14.046875 C 7.5625 -13.898438 7.5 -13.707031 7.5 -13.46875 C 7.5 -13.238281 7.5625 -13.039062 7.6875 -12.875 C 7.820312 -12.71875 8.003906 -12.628906 8.234375 -12.609375 L 12.265625 -12.0625 C 13.515625 -11.882812 14.523438 -11.472656 15.296875 -10.828125 C 16.078125 -10.179688 16.46875 -9.101562 16.46875 -7.59375 L 16.46875 -4.75 C 16.46875 -3.21875 15.96875 -2.039062 14.96875 -1.21875 C 13.96875 -0.40625 12.601562 0 10.875 0 Z M 10.875 0 "/></g></g></g><g fill="#ffffff" fill-opacity="1"><g transform="translate(135.976345, 83.566316)"><g><path d="M 7.015625 0 L 2.828125 0 C 2.492188 0 2.25 -0.0703125 2.09375 -0.21875 C 1.9375 -0.375 1.859375 -0.625 1.859375 -0.96875 L 1.859375 -18.46875 C 1.859375 -18.8125 1.9375 -19.054688 2.09375 -19.203125 C 2.25 -19.359375 2.492188 -19.4375 2.828125 -19.4375 L 11.09375 -19.4375 C 13.539062 -19.4375 15.210938 -18.953125 16.109375 -17.984375 C 17.015625 -17.015625 17.46875 -15.742188 17.46875 -14.171875 L 17.46875 -10.71875 C 17.46875 -9.15625 17.015625 -7.882812 16.109375 -6.90625 C 15.210938 -5.9375 13.539062 -5.453125 11.09375 -5.453125 L 7.984375 -5.453125 L 7.984375 -0.96875 C 7.984375 -0.625 7.90625 -0.375 7.75 -0.21875 C 7.601562 -0.0703125 7.359375 0 7.015625 0 Z M 7.9375 -14.390625 L 7.9375 -10.3125 L 10.375 -10.3125 C 10.894531 -10.3125 11.234375 -10.445312 11.390625 -10.71875 C 11.554688 -10.988281 11.640625 -11.296875 11.640625 -11.640625 L 11.640625 -13.0625 C 11.640625 -13.40625 11.554688 -13.710938 11.390625 -13.984375 C 11.234375 -14.253906 10.894531 -14.390625 10.375 -14.390625 Z M 7.9375 -14.390625 "/></g></g></g><g fill="#ffffff" fill-opacity="1"><g transform="translate(156.121695, 83.566316)"><g><path d="M 15.359375 0 L 2.828125 0 C 2.492188 0 2.25 -0.0703125 2.09375 -0.21875 C 1.9375 -0.375 1.859375 -0.625 1.859375 -0.96875 L 1.859375 -18.46875 C 1.859375 -18.8125 1.9375 -19.054688 2.09375 -19.203125 C 2.25 -19.359375 2.492188 -19.4375 2.828125 -19.4375 L 15.359375 -19.4375 C 15.703125 -19.4375 15.945312 -19.359375 16.09375 -19.203125 C 16.25 -19.054688 16.328125 -18.8125 16.328125 -18.46875 L 16.328125 -15.3125 C 16.328125 -14.96875 16.25 -14.71875 16.09375 -14.5625 C 15.945312 -14.414062 15.703125 -14.34375 15.359375 -14.34375 L 7.90625 -14.34375 L 7.90625 -12.265625 L 13.171875 -12.265625 C 13.515625 -12.265625 13.757812 -12.1875 13.90625 -12.03125 C 14.0625 -11.875 14.140625 -11.625 14.140625 -11.28125 L 14.140625 -8.390625 C 14.140625 -8.054688 14.0625 -7.8125 13.90625 -7.65625 C 13.757812 -7.5 13.515625 -7.421875 13.171875 -7.421875 L 7.90625 -7.421875 L 7.90625 -5.109375 L 15.359375 -5.109375 C 15.703125 -5.109375 15.945312 -5.03125 16.09375 -4.875 C 16.25 -4.71875 16.328125 -4.46875 16.328125 -4.125 L 16.328125 -0.96875 C 16.328125 -0.625 16.25 -0.375 16.09375 -0.21875 C 15.945312 -0.0703125 15.703125 0 15.359375 0 Z M 15.359375 0 "/></g></g></g><g fill="#ffffff" fill-opacity="1"><g transform="translate(175.510922, 83.566316)"><g><path d="M 7.96875 -14.578125 L 7.96875 -11.125 L 9.984375 -11.125 C 10.453125 -11.125 10.765625 -11.242188 10.921875 -11.484375 C 11.085938 -11.734375 11.171875 -12.035156 11.171875 -12.390625 L 11.171875 -13.3125 C 11.171875 -13.664062 11.085938 -13.960938 10.921875 -14.203125 C 10.765625 -14.453125 10.453125 -14.578125 9.984375 -14.578125 Z M 7 0 L 2.828125 0 C 2.492188 0 2.25 -0.0703125 2.09375 -0.21875 C 1.9375 -0.375 1.859375 -0.625 1.859375 -0.96875 L 1.859375 -18.46875 C 1.859375 -18.8125 1.9375 -19.054688 2.09375 -19.203125 C 2.25 -19.359375 2.492188 -19.4375 2.828125 -19.4375 L 11.828125 -19.4375 C 13.835938 -19.4375 15.222656 -19.015625 15.984375 -18.171875 C 16.753906 -17.335938 17.140625 -16.257812 17.140625 -14.9375 L 17.140625 -13.6875 C 17.140625 -12.9375 17.023438 -12.296875 16.796875 -11.765625 C 16.578125 -11.234375 16.191406 -10.847656 15.640625 -10.609375 C 16.609375 -10.503906 17.394531 -10.109375 18 -9.421875 C 18.601562 -8.734375 18.90625 -7.828125 18.90625 -6.703125 L 18.90625 -0.96875 C 18.90625 -0.625 18.828125 -0.375 18.671875 -0.21875 C 18.515625 -0.0703125 18.265625 0 17.921875 0 L 13.75 0 C 13.40625 0 13.15625 -0.0703125 13 -0.21875 C 12.84375 -0.375 12.765625 -0.625 12.765625 -0.96875 L 12.765625 -5.109375 C 12.765625 -5.503906 12.6875 -5.796875 12.53125 -5.984375 C 12.382812 -6.171875 12.125 -6.265625 11.75 -6.265625 L 7.96875 -6.265625 L 7.96875 -0.96875 C 7.96875 -0.625 7.890625 -0.375 7.734375 -0.21875 C 7.578125 -0.0703125 7.332031 0 7 0 Z M 7 0 "/></g></g></g><g fill="#ffffff" fill-opacity="1"><g transform="translate(197.303543, 83.566316)"><g><path d="M 6.859375 0 L 2.828125 0 C 2.492188 0 2.25 -0.0703125 2.09375 -0.21875 C 1.9375 -0.375 1.859375 -0.625 1.859375 -0.96875 L 1.859375 -18.46875 C 1.859375 -18.8125 1.9375 -19.054688 2.09375 -19.203125 C 2.25 -19.359375 2.492188 -19.4375 2.828125 -19.4375 L 7.1875 -19.4375 C 7.46875 -19.4375 7.703125 -19.375 7.890625 -19.25 C 8.085938 -19.125 8.265625 -18.914062 8.421875 -18.625 L 10.859375 -14.234375 C 10.941406 -14.066406 11.015625 -13.945312 11.078125 -13.875 C 11.140625 -13.800781 11.226562 -13.765625 11.34375 -13.765625 L 11.578125 -13.765625 C 11.691406 -13.765625 11.78125 -13.800781 11.84375 -13.875 C 11.90625 -13.945312 11.976562 -14.066406 12.0625 -14.234375 L 14.46875 -18.625 C 14.632812 -18.914062 14.8125 -19.125 15 -19.25 C 15.1875 -19.375 15.425781 -19.4375 15.71875 -19.4375 L 20.09375 -19.4375 C 20.425781 -19.4375 20.671875 -19.359375 20.828125 -19.203125 C 20.984375 -19.054688 21.0625 -18.8125 21.0625 -18.46875 L 21.0625 -0.96875 C 21.0625 -0.625 20.984375 -0.375 20.828125 -0.21875 C 20.671875 -0.0703125 20.425781 0 20.09375 0 L 15.9375 0 C 15.59375 0 15.34375 -0.0703125 15.1875 -0.21875 C 15.03125 -0.375 14.953125 -0.625 14.953125 -0.96875 L 14.953125 -10.46875 L 13.359375 -7.53125 C 13.203125 -7.226562 13.007812 -7.007812 12.78125 -6.875 C 12.5625 -6.738281 12.28125 -6.671875 11.9375 -6.671875 L 10.859375 -6.671875 C 10.515625 -6.671875 10.226562 -6.738281 10 -6.875 C 9.78125 -7.007812 9.585938 -7.226562 9.421875 -7.53125 L 7.828125 -10.46875 L 7.828125 -0.96875 C 7.828125 -0.625 7.75 -0.375 7.59375 -0.21875 C 7.445312 -0.0703125 7.203125 0 6.859375 0 Z M 6.859375 0 "/></g></g></g><g fill="#ffffff" fill-opacity="1"><g transform="translate(221.958629, 83.566316)"><g><path d="M 2.40625 0 C 2.0625 0 1.8125 -0.0703125 1.65625 -0.21875 C 1.507812 -0.375 1.4375 -0.625 1.4375 -0.96875 L 1.4375 -4.1875 C 1.4375 -4.53125 1.507812 -4.773438 1.65625 -4.921875 C 1.8125 -5.078125 2.0625 -5.15625 2.40625 -5.15625 L 5.078125 -5.15625 L 5.078125 -14.234375 L 2.40625 -14.234375 C 2.0625 -14.234375 1.8125 -14.304688 1.65625 -14.453125 C 1.507812 -14.609375 1.4375 -14.859375 1.4375 -15.203125 L 1.4375 -18.46875 C 1.4375 -18.8125 1.507812 -19.054688 1.65625 -19.203125 C 1.8125 -19.359375 2.0625 -19.4375 2.40625 -19.4375 L 13.90625 -19.4375 C 14.25 -19.4375 14.492188 -19.359375 14.640625 -19.203125 C 14.796875 -19.054688 14.875 -18.8125 14.875 -18.46875 L 14.875 -15.203125 C 14.875 -14.859375 14.796875 -14.609375 14.640625 -14.453125 C 14.492188 -14.304688 14.25 -14.234375 13.90625 -14.234375 L 11.28125 -14.234375 L 11.28125 -5.15625 L 13.90625 -5.15625 C 14.25 -5.15625 14.492188 -5.078125 14.640625 -4.921875 C 14.796875 -4.773438 14.875 -4.53125 14.875 -4.1875 L 14.875 -0.96875 C 14.875 -0.625 14.796875 -0.375 14.640625 -0.21875 C 14.492188 -0.0703125 14.25 0 13.90625 0 Z M 2.40625 0 "/></g></g></g><g fill="#ffffff" fill-opacity="1"><g transform="translate(240.024647, 83.566316)"><g><path d="M 10.875 0 L 2.34375 0 C 2.007812 0 1.765625 -0.0703125 1.609375 -0.21875 C 1.453125 -0.375 1.375 -0.625 1.375 -0.96875 L 1.375 -4.125 C 1.375 -4.46875 1.453125 -4.71875 1.609375 -4.875 C 1.765625 -5.03125 2.007812 -5.109375 2.34375 -5.109375 L 9.609375 -5.109375 C 9.847656 -5.109375 10.023438 -5.179688 10.140625 -5.328125 C 10.253906 -5.484375 10.3125 -5.671875 10.3125 -5.890625 C 10.3125 -6.191406 10.253906 -6.414062 10.140625 -6.5625 C 10.023438 -6.707031 9.847656 -6.785156 9.609375 -6.796875 L 5.5625 -7.375 C 4.300781 -7.550781 3.285156 -7.960938 2.515625 -8.609375 C 1.753906 -9.253906 1.375 -10.335938 1.375 -11.859375 L 1.375 -14.6875 C 1.375 -16.21875 1.867188 -17.390625 2.859375 -18.203125 C 3.847656 -19.023438 5.21875 -19.4375 6.96875 -19.4375 L 14.53125 -19.4375 C 14.863281 -19.4375 15.109375 -19.359375 15.265625 -19.203125 C 15.421875 -19.054688 15.5 -18.8125 15.5 -18.46875 L 15.5 -15.25 C 15.5 -14.90625 15.421875 -14.65625 15.265625 -14.5 C 15.109375 -14.351562 14.863281 -14.28125 14.53125 -14.28125 L 8.234375 -14.28125 C 8.003906 -14.28125 7.820312 -14.203125 7.6875 -14.046875 C 7.5625 -13.898438 7.5 -13.707031 7.5 -13.46875 C 7.5 -13.238281 7.5625 -13.039062 7.6875 -12.875 C 7.820312 -12.71875 8.003906 -12.628906 8.234375 -12.609375 L 12.265625 -12.0625 C 13.515625 -11.882812 14.523438 -11.472656 15.296875 -10.828125 C 16.078125 -10.179688 16.46875 -9.101562 16.46875 -7.59375 L 16.46875 -4.75 C 16.46875 -3.21875 15.96875 -2.039062 14.96875 -1.21875 C 13.96875 -0.40625 12.601562 0 10.875 0 Z M 10.875 0 "/></g></g></g><g fill="#ffffff" fill-opacity="1"><g transform="translate(259.30586, 83.566316)"><g><path d="M 10.875 0 L 2.34375 0 C 2.007812 0 1.765625 -0.0703125 1.609375 -0.21875 C 1.453125 -0.375 1.375 -0.625 1.375 -0.96875 L 1.375 -4.125 C 1.375 -4.46875 1.453125 -4.71875 1.609375 -4.875 C 1.765625 -5.03125 2.007812 -5.109375 2.34375 -5.109375 L 9.609375 -5.109375 C 9.847656 -5.109375 10.023438 -5.179688 10.140625 -5.328125 C 10.253906 -5.484375 10.3125 -5.671875 10.3125 -5.890625 C 10.3125 -6.191406 10.253906 -6.414062 10.140625 -6.5625 C 10.023438 -6.707031 9.847656 -6.785156 9.609375 -6.796875 L 5.5625 -7.375 C 4.300781 -7.550781 3.285156 -7.960938 2.515625 -8.609375 C 1.753906 -9.253906 1.375 -10.335938 1.375 -11.859375 L 1.375 -14.6875 C 1.375 -16.21875 1.867188 -17.390625 2.859375 -18.203125 C 3.847656 -19.023438 5.21875 -19.4375 6.96875 -19.4375 L 14.53125 -19.4375 C 14.863281 -19.4375 15.109375 -19.359375 15.265625 -19.203125 C 15.421875 -19.054688 15.5 -18.8125 15.5 -18.46875 L 15.5 -15.25 C 15.5 -14.90625 15.421875 -14.65625 15.265625 -14.5 C 15.109375 -14.351562 14.863281 -14.28125 14.53125 -14.28125 L 8.234375 -14.28125 C 8.003906 -14.28125 7.820312 -14.203125 7.6875 -14.046875 C 7.5625 -13.898438 7.5 -13.707031 7.5 -13.46875 C 7.5 -13.238281 7.5625 -13.039062 7.6875 -12.875 C 7.820312 -12.71875 8.003906 -12.628906 8.234375 -12.609375 L 12.265625 -12.0625 C 13.515625 -11.882812 14.523438 -11.472656 15.296875 -10.828125 C 16.078125 -10.179688 16.46875 -9.101562 16.46875 -7.59375 L 16.46875 -4.75 C 16.46875 -3.21875 15.96875 -2.039062 14.96875 -1.21875 C 13.96875 -0.40625 12.601562 0 10.875 0 Z M 10.875 0 "/></g></g></g><g fill="#ffffff" fill-opacity="1"><g transform="translate(278.587074, 83.566316)"><g><path d="M 2.40625 0 C 2.0625 0 1.8125 -0.0703125 1.65625 -0.21875 C 1.507812 -0.375 1.4375 -0.625 1.4375 -0.96875 L 1.4375 -4.1875 C 1.4375 -4.53125 1.507812 -4.773438 1.65625 -4.921875 C 1.8125 -5.078125 2.0625 -5.15625 2.40625 -5.15625 L 5.078125 -5.15625 L 5.078125 -14.234375 L 2.40625 -14.234375 C 2.0625 -14.234375 1.8125 -14.304688 1.65625 -14.453125 C 1.507812 -14.609375 1.4375 -14.859375 1.4375 -15.203125 L 1.4375 -18.46875 C 1.4375 -18.8125 1.507812 -19.054688 1.65625 -19.203125 C 1.8125 -19.359375 2.0625 -19.4375 2.40625 -19.4375 L 13.90625 -19.4375 C 14.25 -19.4375 14.492188 -19.359375 14.640625 -19.203125 C 14.796875 -19.054688 14.875 -18.8125 14.875 -18.46875 L 14.875 -15.203125 C 14.875 -14.859375 14.796875 -14.609375 14.640625 -14.453125 C 14.492188 -14.304688 14.25 -14.234375 13.90625 -14.234375 L 11.28125 -14.234375 L 11.28125 -5.15625 L 13.90625 -5.15625 C 14.25 -5.15625 14.492188 -5.078125 14.640625 -4.921875 C 14.796875 -4.773438 14.875 -4.53125 14.875 -4.1875 L 14.875 -0.96875 C 14.875 -0.625 14.796875 -0.375 14.640625 -0.21875 C 14.492188 -0.0703125 14.25 0 13.90625 0 Z M 2.40625 0 "/></g></g></g><g fill="#ffffff" fill-opacity="1"><g transform="translate(296.653091, 83.566316)"><g><path d="M 18.328125 -5.109375 C 18.328125 -4.273438 18.207031 -3.519531 17.96875 -2.84375 C 17.726562 -2.175781 17.296875 -1.601562 16.671875 -1.125 C 16.046875 -0.644531 15.1875 -0.269531 14.09375 0 C 13.007812 0.269531 11.632812 0.40625 9.96875 0.40625 C 8.289062 0.40625 6.898438 0.269531 5.796875 0 C 4.703125 -0.269531 3.84375 -0.644531 3.21875 -1.125 C 2.601562 -1.601562 2.171875 -2.175781 1.921875 -2.84375 C 1.679688 -3.519531 1.5625 -4.273438 1.5625 -5.109375 L 1.5625 -14.3125 C 1.5625 -15.132812 1.679688 -15.882812 1.921875 -16.5625 C 2.171875 -17.238281 2.601562 -17.816406 3.21875 -18.296875 C 3.84375 -18.785156 4.703125 -19.164062 5.796875 -19.4375 C 6.898438 -19.707031 8.289062 -19.84375 9.96875 -19.84375 C 11.632812 -19.84375 13.007812 -19.707031 14.09375 -19.4375 C 15.1875 -19.164062 16.046875 -18.785156 16.671875 -18.296875 C 17.296875 -17.816406 17.726562 -17.238281 17.96875 -16.5625 C 18.207031 -15.882812 18.328125 -15.132812 18.328125 -14.3125 Z M 7.6875 -6.078125 C 7.6875 -5.710938 7.820312 -5.410156 8.09375 -5.171875 C 8.363281 -4.929688 8.988281 -4.8125 9.96875 -4.8125 C 10.9375 -4.8125 11.554688 -4.929688 11.828125 -5.171875 C 12.097656 -5.410156 12.234375 -5.710938 12.234375 -6.078125 L 12.234375 -13.34375 C 12.234375 -13.675781 12.097656 -13.960938 11.828125 -14.203125 C 11.554688 -14.453125 10.9375 -14.578125 9.96875 -14.578125 C 8.988281 -14.578125 8.363281 -14.453125 8.09375 -14.203125 C 7.820312 -13.960938 7.6875 -13.675781 7.6875 -13.34375 Z M 7.6875 -6.078125 "/></g></g></g><g fill="#ffffff" fill-opacity="1"><g transform="translate(318.283688, 83.566316)"><g><path d="M 6.890625 0 L 2.828125 0 C 2.492188 0 2.25 -0.0703125 2.09375 -0.21875 C 1.9375 -0.375 1.859375 -0.625 1.859375 -0.96875 L 1.859375 -18.46875 C 1.859375 -18.8125 1.9375 -19.054688 2.09375 -19.203125 C 2.25 -19.359375 2.492188 -19.4375 2.828125 -19.4375 L 5.640625 -19.4375 C 5.984375 -19.4375 6.273438 -19.378906 6.515625 -19.265625 C 6.765625 -19.160156 7.003906 -18.976562 7.234375 -18.71875 L 12.46875 -12.71875 L 12.46875 -18.46875 C 12.46875 -18.8125 12.546875 -19.054688 12.703125 -19.203125 C 12.859375 -19.359375 13.109375 -19.4375 13.453125 -19.4375 L 17.5 -19.4375 C 17.84375 -19.4375 18.085938 -19.359375 18.234375 -19.203125 C 18.390625 -19.054688 18.46875 -18.8125 18.46875 -18.46875 L 18.46875 -0.96875 C 18.46875 -0.625 18.390625 -0.375 18.234375 -0.21875 C 18.085938 -0.0703125 17.84375 0 17.5 0 L 13.453125 0 C 13.109375 0 12.859375 -0.0703125 12.703125 -0.21875 C 12.546875 -0.375 12.46875 -0.625 12.46875 -0.96875 L 12.46875 -4.296875 L 7.859375 -9.875 L 7.859375 -0.96875 C 7.859375 -0.625 7.78125 -0.375 7.625 -0.21875 C 7.46875 -0.0703125 7.222656 0 6.890625 0 Z M 6.890625 0 "/></g></g></g><g fill="#ffffff" fill-opacity="1"><g transform="translate(340.346352, 83.566316)"><g><path d="M 10.875 0 L 2.34375 0 C 2.007812 0 1.765625 -0.0703125 1.609375 -0.21875 C 1.453125 -0.375 1.375 -0.625 1.375 -0.96875 L 1.375 -4.125 C 1.375 -4.46875 1.453125 -4.71875 1.609375 -4.875 C 1.765625 -5.03125 2.007812 -5.109375 2.34375 -5.109375 L 9.609375 -5.109375 C 9.847656 -5.109375 10.023438 -5.179688 10.140625 -5.328125 C 10.253906 -5.484375 10.3125 -5.671875 10.3125 -5.890625 C 10.3125 -6.191406 10.253906 -6.414062 10.140625 -6.5625 C 10.023438 -6.707031 9.847656 -6.785156 9.609375 -6.796875 L 5.5625 -7.375 C 4.300781 -7.550781 3.285156 -7.960938 2.515625 -8.609375 C 1.753906 -9.253906 1.375 -10.335938 1.375 -11.859375 L 1.375 -14.6875 C 1.375 -16.21875 1.867188 -17.390625 2.859375 -18.203125 C 3.847656 -19.023438 5.21875 -19.4375 6.96875 -19.4375 L 14.53125 -19.4375 C 14.863281 -19.4375 15.109375 -19.359375 15.265625 -19.203125 C 15.421875 -19.054688 15.5 -18.8125 15.5 -18.46875 L 15.5 -15.25 C 15.5 -14.90625 15.421875 -14.65625 15.265625 -14.5 C 15.109375 -14.351562 14.863281 -14.28125 14.53125 -14.28125 L 8.234375 -14.28125 C 8.003906 -14.28125 7.820312 -14.203125 7.6875 -14.046875 C 7.5625 -13.898438 7.5 -13.707031 7.5 -13.46875 C 7.5 -13.238281 7.5625 -13.039062 7.6875 -12.875 C 7.820312 -12.71875 8.003906 -12.628906 8.234375 -12.609375 L 12.265625 -12.0625 C 13.515625 -11.882812 14.523438 -11.472656 15.296875 -10.828125 C 16.078125 -10.179688 16.46875 -9.101562 16.46875 -7.59375 L 16.46875 -4.75 C 16.46875 -3.21875 15.96875 -2.039062 14.96875 -1.21875 C 13.96875 -0.40625 12.601562 0 10.875 0 Z M 10.875 0 "/></g></g></g></svg>