<svg xmlns="http://www.w3.org/2000/svg" xmlns:xlink="http://www.w3.org/1999/xlink" width="600" zoomAndPan="magnify" viewBox="0 0 450 149.999998" height="200" preserveAspectRatio="xMidYMid meet" version="1.0"><defs><g/><clipPath id="0f747523e0"><path d="M 0 17.4375 L 450 17.4375 L 450 147.636719 L 0 147.636719 Z M 0 17.4375 " clip-rule="nonzero"/></clipPath><clipPath id="36dd4ba698"><path d="M 41.375 25.695312 L 447.855469 25.695312 L 447.855469 128.144531 L 41.375 128.144531 Z M 41.375 25.695312 " clip-rule="nonzero"/></clipPath><clipPath id="ff236e0879"><path d="M 92.597656 25.695312 L 396.632812 25.695312 C 410.21875 25.695312 423.246094 31.089844 432.855469 40.699219 C 442.460938 50.304688 447.855469 63.332031 447.855469 76.917969 C 447.855469 90.503906 442.460938 103.535156 432.855469 113.140625 C 423.246094 122.75 410.21875 128.144531 396.632812 128.144531 L 92.597656 128.144531 C 79.011719 128.144531 65.984375 122.75 56.378906 113.140625 C 46.769531 103.535156 41.375 90.503906 41.375 76.917969 C 41.375 63.332031 46.769531 50.304688 56.378906 40.699219 C 65.984375 31.089844 79.011719 25.695312 92.597656 25.695312 Z M 92.597656 25.695312 " clip-rule="nonzero"/></clipPath><clipPath id="5ff5bbc096"><path d="M 0 46.003906 L 0.328125 46.003906 L 0.328125 135.253906 L 0 135.253906 Z M 0 46.003906 " clip-rule="nonzero"/></clipPath></defs><g clip-path="url(#0f747523e0)"><path fill="#ffffff" d="M -32.15625 17.4375 L 521.386719 17.4375 L 521.386719 147.636719 L -32.15625 147.636719 Z M -32.15625 17.4375 " fill-opacity="1" fill-rule="nonzero"/></g><g clip-path="url(#36dd4ba698)"><g clip-path="url(#ff236e0879)"><path fill="#5ce1e6" d="M 41.375 25.695312 L 447.855469 25.695312 L 447.855469 128.144531 L 41.375 128.144531 Z M 41.375 25.695312 " fill-opacity="1" fill-rule="nonzero"/></g></g><g fill="#0d4244" fill-opacity="0.302"><g transform="translate(127.674884, 89.005505)"><g><path d="M 13.390625 0 L 2.890625 0 C 2.472656 0 2.164062 -0.09375 1.96875 -0.28125 C 1.78125 -0.46875 1.6875 -0.773438 1.6875 -1.203125 L 1.6875 -5.078125 C 1.6875 -5.503906 1.78125 -5.8125 1.96875 -6 C 2.164062 -6.1875 2.472656 -6.28125 2.890625 -6.28125 L 11.828125 -6.28125 C 12.109375 -6.28125 12.320312 -6.375 12.46875 -6.5625 C 12.613281 -6.75 12.6875 -6.972656 12.6875 -7.234375 C 12.6875 -7.617188 12.613281 -7.898438 12.46875 -8.078125 C 12.320312 -8.253906 12.109375 -8.351562 11.828125 -8.375 L 6.84375 -9.0625 C 5.289062 -9.289062 4.039062 -9.800781 3.09375 -10.59375 C 2.15625 -11.394531 1.6875 -12.722656 1.6875 -14.578125 L 1.6875 -18.078125 C 1.6875 -19.953125 2.296875 -21.394531 3.515625 -22.40625 C 4.734375 -23.414062 6.421875 -23.921875 8.578125 -23.921875 L 17.875 -23.921875 C 18.289062 -23.921875 18.59375 -23.828125 18.78125 -23.640625 C 18.96875 -23.453125 19.0625 -23.144531 19.0625 -22.71875 L 19.0625 -18.765625 C 19.0625 -18.347656 18.96875 -18.046875 18.78125 -17.859375 C 18.59375 -17.671875 18.289062 -17.578125 17.875 -17.578125 L 10.125 -17.578125 C 9.84375 -17.578125 9.625 -17.484375 9.46875 -17.296875 C 9.3125 -17.109375 9.234375 -16.867188 9.234375 -16.578125 C 9.234375 -16.285156 9.3125 -16.039062 9.46875 -15.84375 C 9.625 -15.644531 9.84375 -15.535156 10.125 -15.515625 L 15.078125 -14.84375 C 16.628906 -14.625 17.878906 -14.113281 18.828125 -13.3125 C 19.785156 -12.519531 20.265625 -11.191406 20.265625 -9.328125 L 20.265625 -5.84375 C 20.265625 -3.957031 19.648438 -2.507812 18.421875 -1.5 C 17.191406 -0.5 15.515625 0 13.390625 0 Z M 13.390625 0 "/></g></g></g><g fill="#0d4244" fill-opacity="0.302"><g transform="translate(151.392691, 89.005505)"><g><path d="M 8.640625 0 L 3.484375 0 C 3.066406 0 2.765625 -0.09375 2.578125 -0.28125 C 2.390625 -0.46875 2.296875 -0.773438 2.296875 -1.203125 L 2.296875 -22.71875 C 2.296875 -23.144531 2.390625 -23.453125 2.578125 -23.640625 C 2.765625 -23.828125 3.066406 -23.921875 3.484375 -23.921875 L 13.65625 -23.921875 C 16.664062 -23.921875 18.722656 -23.320312 19.828125 -22.125 C 20.941406 -20.925781 21.5 -19.363281 21.5 -17.4375 L 21.5 -13.1875 C 21.5 -11.257812 20.941406 -9.695312 19.828125 -8.5 C 18.722656 -7.300781 16.664062 -6.703125 13.65625 -6.703125 L 9.828125 -6.703125 L 9.828125 -1.203125 C 9.828125 -0.773438 9.734375 -0.46875 9.546875 -0.28125 C 9.359375 -0.09375 9.054688 0 8.640625 0 Z M 9.765625 -17.703125 L 9.765625 -12.6875 L 12.75 -12.6875 C 13.394531 -12.6875 13.816406 -12.851562 14.015625 -13.1875 C 14.210938 -13.519531 14.3125 -13.894531 14.3125 -14.3125 L 14.3125 -16.078125 C 14.3125 -16.492188 14.210938 -16.867188 14.015625 -17.203125 C 13.816406 -17.535156 13.394531 -17.703125 12.75 -17.703125 Z M 9.765625 -17.703125 "/></g></g></g><g fill="#0d4244" fill-opacity="0.302"><g transform="translate(176.173475, 89.005505)"><g><path d="M 22.5625 -6.28125 C 22.5625 -5.257812 22.410156 -4.332031 22.109375 -3.5 C 21.804688 -2.675781 21.269531 -1.96875 20.5 -1.375 C 19.738281 -0.789062 18.6875 -0.332031 17.34375 0 C 16.007812 0.332031 14.3125 0.5 12.25 0.5 C 10.195312 0.5 8.492188 0.332031 7.140625 0 C 5.785156 -0.332031 4.726562 -0.789062 3.96875 -1.375 C 3.207031 -1.96875 2.675781 -2.675781 2.375 -3.5 C 2.070312 -4.332031 1.921875 -5.257812 1.921875 -6.28125 L 1.921875 -17.609375 C 1.921875 -18.628906 2.070312 -19.550781 2.375 -20.375 C 2.675781 -21.207031 3.207031 -21.921875 3.96875 -22.515625 C 4.726562 -23.117188 5.785156 -23.585938 7.140625 -23.921875 C 8.492188 -24.253906 10.195312 -24.421875 12.25 -24.421875 C 14.3125 -24.421875 16.007812 -24.253906 17.34375 -23.921875 C 18.6875 -23.585938 19.738281 -23.117188 20.5 -22.515625 C 21.269531 -21.921875 21.804688 -21.207031 22.109375 -20.375 C 22.410156 -19.550781 22.5625 -18.628906 22.5625 -17.609375 Z M 9.46875 -7.46875 C 9.46875 -7.03125 9.632812 -6.660156 9.96875 -6.359375 C 10.300781 -6.054688 11.0625 -5.90625 12.25 -5.90625 C 13.445312 -5.90625 14.210938 -6.054688 14.546875 -6.359375 C 14.878906 -6.660156 15.046875 -7.03125 15.046875 -7.46875 L 15.046875 -16.40625 C 15.046875 -16.832031 14.878906 -17.191406 14.546875 -17.484375 C 14.210938 -17.785156 13.445312 -17.9375 12.25 -17.9375 C 11.0625 -17.9375 10.300781 -17.785156 9.96875 -17.484375 C 9.632812 -17.191406 9.46875 -16.832031 9.46875 -16.40625 Z M 9.46875 -7.46875 "/></g></g></g><g fill="#0d4244" fill-opacity="0.302"><g transform="translate(202.781256, 89.005505)"><g><path d="M 8.46875 0 L 3.484375 0 C 3.066406 0 2.765625 -0.09375 2.578125 -0.28125 C 2.390625 -0.46875 2.296875 -0.773438 2.296875 -1.203125 L 2.296875 -22.71875 C 2.296875 -23.144531 2.390625 -23.453125 2.578125 -23.640625 C 2.765625 -23.828125 3.066406 -23.921875 3.484375 -23.921875 L 6.9375 -23.921875 C 7.363281 -23.921875 7.722656 -23.851562 8.015625 -23.71875 C 8.316406 -23.582031 8.613281 -23.347656 8.90625 -23.015625 L 15.34375 -15.640625 L 15.34375 -22.71875 C 15.34375 -23.144531 15.4375 -23.453125 15.625 -23.640625 C 15.8125 -23.828125 16.117188 -23.921875 16.546875 -23.921875 L 21.53125 -23.921875 C 21.945312 -23.921875 22.25 -23.828125 22.4375 -23.640625 C 22.625 -23.453125 22.71875 -23.144531 22.71875 -22.71875 L 22.71875 -1.203125 C 22.71875 -0.773438 22.625 -0.46875 22.4375 -0.28125 C 22.25 -0.09375 21.945312 0 21.53125 0 L 16.546875 0 C 16.117188 0 15.8125 -0.09375 15.625 -0.28125 C 15.4375 -0.46875 15.34375 -0.773438 15.34375 -1.203125 L 15.34375 -5.28125 L 9.671875 -12.15625 L 9.671875 -1.203125 C 9.671875 -0.773438 9.578125 -0.46875 9.390625 -0.28125 C 9.203125 -0.09375 8.894531 0 8.46875 0 Z M 8.46875 0 "/></g></g></g><g fill="#0d4244" fill-opacity="0.302"><g transform="translate(229.920527, 89.005505)"><g><path d="M 13.390625 0 L 2.890625 0 C 2.472656 0 2.164062 -0.09375 1.96875 -0.28125 C 1.78125 -0.46875 1.6875 -0.773438 1.6875 -1.203125 L 1.6875 -5.078125 C 1.6875 -5.503906 1.78125 -5.8125 1.96875 -6 C 2.164062 -6.1875 2.472656 -6.28125 2.890625 -6.28125 L 11.828125 -6.28125 C 12.109375 -6.28125 12.320312 -6.375 12.46875 -6.5625 C 12.613281 -6.75 12.6875 -6.972656 12.6875 -7.234375 C 12.6875 -7.617188 12.613281 -7.898438 12.46875 -8.078125 C 12.320312 -8.253906 12.109375 -8.351562 11.828125 -8.375 L 6.84375 -9.0625 C 5.289062 -9.289062 4.039062 -9.800781 3.09375 -10.59375 C 2.15625 -11.394531 1.6875 -12.722656 1.6875 -14.578125 L 1.6875 -18.078125 C 1.6875 -19.953125 2.296875 -21.394531 3.515625 -22.40625 C 4.734375 -23.414062 6.421875 -23.921875 8.578125 -23.921875 L 17.875 -23.921875 C 18.289062 -23.921875 18.59375 -23.828125 18.78125 -23.640625 C 18.96875 -23.453125 19.0625 -23.144531 19.0625 -22.71875 L 19.0625 -18.765625 C 19.0625 -18.347656 18.96875 -18.046875 18.78125 -17.859375 C 18.59375 -17.671875 18.289062 -17.578125 17.875 -17.578125 L 10.125 -17.578125 C 9.84375 -17.578125 9.625 -17.484375 9.46875 -17.296875 C 9.3125 -17.109375 9.234375 -16.867188 9.234375 -16.578125 C 9.234375 -16.285156 9.3125 -16.039062 9.46875 -15.84375 C 9.625 -15.644531 9.84375 -15.535156 10.125 -15.515625 L 15.078125 -14.84375 C 16.628906 -14.625 17.878906 -14.113281 18.828125 -13.3125 C 19.785156 -12.519531 20.265625 -11.191406 20.265625 -9.328125 L 20.265625 -5.84375 C 20.265625 -3.957031 19.648438 -2.507812 18.421875 -1.5 C 17.191406 -0.5 15.515625 0 13.390625 0 Z M 13.390625 0 "/></g></g></g><g fill="#0d4244" fill-opacity="0.302"><g transform="translate(253.63833, 89.005505)"><g><path d="M 22.5625 -6.28125 C 22.5625 -5.257812 22.410156 -4.332031 22.109375 -3.5 C 21.804688 -2.675781 21.269531 -1.96875 20.5 -1.375 C 19.738281 -0.789062 18.6875 -0.332031 17.34375 0 C 16.007812 0.332031 14.3125 0.5 12.25 0.5 C 10.195312 0.5 8.492188 0.332031 7.140625 0 C 5.785156 -0.332031 4.726562 -0.789062 3.96875 -1.375 C 3.207031 -1.96875 2.675781 -2.675781 2.375 -3.5 C 2.070312 -4.332031 1.921875 -5.257812 1.921875 -6.28125 L 1.921875 -17.609375 C 1.921875 -18.628906 2.070312 -19.550781 2.375 -20.375 C 2.675781 -21.207031 3.207031 -21.921875 3.96875 -22.515625 C 4.726562 -23.117188 5.785156 -23.585938 7.140625 -23.921875 C 8.492188 -24.253906 10.195312 -24.421875 12.25 -24.421875 C 14.3125 -24.421875 16.007812 -24.253906 17.34375 -23.921875 C 18.6875 -23.585938 19.738281 -23.117188 20.5 -22.515625 C 21.269531 -21.921875 21.804688 -21.207031 22.109375 -20.375 C 22.410156 -19.550781 22.5625 -18.628906 22.5625 -17.609375 Z M 9.46875 -7.46875 C 9.46875 -7.03125 9.632812 -6.660156 9.96875 -6.359375 C 10.300781 -6.054688 11.0625 -5.90625 12.25 -5.90625 C 13.445312 -5.90625 14.210938 -6.054688 14.546875 -6.359375 C 14.878906 -6.660156 15.046875 -7.03125 15.046875 -7.46875 L 15.046875 -16.40625 C 15.046875 -16.832031 14.878906 -17.191406 14.546875 -17.484375 C 14.210938 -17.785156 13.445312 -17.9375 12.25 -17.9375 C 11.0625 -17.9375 10.300781 -17.785156 9.96875 -17.484375 C 9.632812 -17.191406 9.46875 -16.832031 9.46875 -16.40625 Z M 9.46875 -7.46875 "/></g></g></g><g fill="#0d4244" fill-opacity="0.302"><g transform="translate(280.246114, 89.005505)"><g><path d="M 9.796875 -17.9375 L 9.796875 -13.6875 L 12.296875 -13.6875 C 12.867188 -13.6875 13.253906 -13.832031 13.453125 -14.125 C 13.648438 -14.425781 13.75 -14.800781 13.75 -15.25 L 13.75 -16.375 C 13.75 -16.820312 13.648438 -17.191406 13.453125 -17.484375 C 13.253906 -17.785156 12.867188 -17.9375 12.296875 -17.9375 Z M 8.609375 0 L 3.484375 0 C 3.066406 0 2.765625 -0.09375 2.578125 -0.28125 C 2.390625 -0.46875 2.296875 -0.773438 2.296875 -1.203125 L 2.296875 -22.71875 C 2.296875 -23.144531 2.390625 -23.453125 2.578125 -23.640625 C 2.765625 -23.828125 3.066406 -23.921875 3.484375 -23.921875 L 14.546875 -23.921875 C 17.023438 -23.921875 18.734375 -23.40625 19.671875 -22.375 C 20.617188 -21.34375 21.09375 -20.007812 21.09375 -18.375 L 21.09375 -16.84375 C 21.09375 -15.914062 20.953125 -15.125 20.671875 -14.46875 C 20.398438 -13.8125 19.921875 -13.34375 19.234375 -13.0625 C 20.429688 -12.925781 21.398438 -12.4375 22.140625 -11.59375 C 22.878906 -10.75 23.25 -9.628906 23.25 -8.234375 L 23.25 -1.203125 C 23.25 -0.773438 23.15625 -0.46875 22.96875 -0.28125 C 22.78125 -0.09375 22.476562 0 22.0625 0 L 16.90625 0 C 16.488281 0 16.1875 -0.09375 16 -0.28125 C 15.8125 -0.46875 15.71875 -0.773438 15.71875 -1.203125 L 15.71875 -6.28125 C 15.71875 -6.769531 15.617188 -7.128906 15.421875 -7.359375 C 15.234375 -7.585938 14.910156 -7.703125 14.453125 -7.703125 L 9.796875 -7.703125 L 9.796875 -1.203125 C 9.796875 -0.773438 9.703125 -0.46875 9.515625 -0.28125 C 9.328125 -0.09375 9.023438 0 8.609375 0 Z M 8.609375 0 "/></g></g></g><g fill="#0d4244" fill-opacity="0.302"><g transform="translate(307.053197, 89.005505)"><g/></g></g><g fill="#0d4244" fill-opacity="0.302"><g transform="translate(316.653309, 89.005505)"><g><path d="M 8.4375 0 L 3.484375 0 C 3.066406 0 2.765625 -0.09375 2.578125 -0.28125 C 2.390625 -0.46875 2.296875 -0.773438 2.296875 -1.203125 L 2.296875 -22.71875 C 2.296875 -23.144531 2.390625 -23.453125 2.578125 -23.640625 C 2.765625 -23.828125 3.066406 -23.921875 3.484375 -23.921875 L 8.84375 -23.921875 C 9.195312 -23.921875 9.488281 -23.84375 9.71875 -23.6875 C 9.945312 -23.53125 10.160156 -23.273438 10.359375 -22.921875 L 13.359375 -17.5 C 13.460938 -17.300781 13.550781 -17.15625 13.625 -17.0625 C 13.707031 -16.976562 13.816406 -16.9375 13.953125 -16.9375 L 14.25 -16.9375 C 14.382812 -16.9375 14.488281 -16.976562 14.5625 -17.0625 C 14.644531 -17.15625 14.738281 -17.300781 14.84375 -17.5 L 17.8125 -22.921875 C 18.007812 -23.273438 18.222656 -23.53125 18.453125 -23.6875 C 18.679688 -23.84375 18.972656 -23.921875 19.328125 -23.921875 L 24.71875 -23.921875 C 25.132812 -23.921875 25.4375 -23.828125 25.625 -23.640625 C 25.8125 -23.453125 25.90625 -23.144531 25.90625 -22.71875 L 25.90625 -1.203125 C 25.90625 -0.773438 25.8125 -0.46875 25.625 -0.28125 C 25.4375 -0.09375 25.132812 0 24.71875 0 L 19.59375 0 C 19.175781 0 18.875 -0.09375 18.6875 -0.28125 C 18.5 -0.46875 18.40625 -0.773438 18.40625 -1.203125 L 18.40625 -12.890625 L 16.4375 -9.265625 C 16.238281 -8.890625 16 -8.617188 15.71875 -8.453125 C 15.445312 -8.285156 15.101562 -8.203125 14.6875 -8.203125 L 13.359375 -8.203125 C 12.929688 -8.203125 12.578125 -8.285156 12.296875 -8.453125 C 12.023438 -8.617188 11.789062 -8.890625 11.59375 -9.265625 L 9.640625 -12.890625 L 9.640625 -1.203125 C 9.640625 -0.773438 9.539062 -0.46875 9.34375 -0.28125 C 9.15625 -0.09375 8.851562 0 8.4375 0 Z M 8.4375 0 "/></g></g></g><g fill="#0d4244" fill-opacity="0.302"><g transform="translate(346.981518, 89.005505)"><g><path d="M 18.90625 0 L 3.484375 0 C 3.066406 0 2.765625 -0.09375 2.578125 -0.28125 C 2.390625 -0.46875 2.296875 -0.773438 2.296875 -1.203125 L 2.296875 -22.71875 C 2.296875 -23.144531 2.390625 -23.453125 2.578125 -23.640625 C 2.765625 -23.828125 3.066406 -23.921875 3.484375 -23.921875 L 18.90625 -23.921875 C 19.320312 -23.921875 19.625 -23.828125 19.8125 -23.640625 C 20 -23.453125 20.09375 -23.144531 20.09375 -22.71875 L 20.09375 -18.828125 C 20.09375 -18.410156 20 -18.109375 19.8125 -17.921875 C 19.625 -17.734375 19.320312 -17.640625 18.90625 -17.640625 L 9.734375 -17.640625 L 9.734375 -15.078125 L 16.203125 -15.078125 C 16.628906 -15.078125 16.9375 -14.984375 17.125 -14.796875 C 17.3125 -14.609375 17.40625 -14.304688 17.40625 -13.890625 L 17.40625 -10.328125 C 17.40625 -9.910156 17.3125 -9.609375 17.125 -9.421875 C 16.9375 -9.234375 16.628906 -9.140625 16.203125 -9.140625 L 9.734375 -9.140625 L 9.734375 -6.28125 L 18.90625 -6.28125 C 19.320312 -6.28125 19.625 -6.1875 19.8125 -6 C 20 -5.8125 20.09375 -5.503906 20.09375 -5.078125 L 20.09375 -1.203125 C 20.09375 -0.773438 20 -0.46875 19.8125 -0.28125 C 19.625 -0.09375 19.320312 0 18.90625 0 Z M 18.90625 0 "/></g></g></g><g fill="#0d4244" fill-opacity="0.502"><g transform="translate(126.206773, 87.537404)"><g><path d="M 13.390625 0 L 2.890625 0 C 2.472656 0 2.164062 -0.09375 1.96875 -0.28125 C 1.78125 -0.46875 1.6875 -0.773438 1.6875 -1.203125 L 1.6875 -5.078125 C 1.6875 -5.503906 1.78125 -5.8125 1.96875 -6 C 2.164062 -6.1875 2.472656 -6.28125 2.890625 -6.28125 L 11.828125 -6.28125 C 12.109375 -6.28125 12.320312 -6.375 12.46875 -6.5625 C 12.613281 -6.75 12.6875 -6.972656 12.6875 -7.234375 C 12.6875 -7.617188 12.613281 -7.898438 12.46875 -8.078125 C 12.320312 -8.253906 12.109375 -8.351562 11.828125 -8.375 L 6.84375 -9.0625 C 5.289062 -9.289062 4.039062 -9.800781 3.09375 -10.59375 C 2.15625 -11.394531 1.6875 -12.722656 1.6875 -14.578125 L 1.6875 -18.078125 C 1.6875 -19.953125 2.296875 -21.394531 3.515625 -22.40625 C 4.734375 -23.414062 6.421875 -23.921875 8.578125 -23.921875 L 17.875 -23.921875 C 18.289062 -23.921875 18.59375 -23.828125 18.78125 -23.640625 C 18.96875 -23.453125 19.0625 -23.144531 19.0625 -22.71875 L 19.0625 -18.765625 C 19.0625 -18.347656 18.96875 -18.046875 18.78125 -17.859375 C 18.59375 -17.671875 18.289062 -17.578125 17.875 -17.578125 L 10.125 -17.578125 C 9.84375 -17.578125 9.625 -17.484375 9.46875 -17.296875 C 9.3125 -17.109375 9.234375 -16.867188 9.234375 -16.578125 C 9.234375 -16.285156 9.3125 -16.039062 9.46875 -15.84375 C 9.625 -15.644531 9.84375 -15.535156 10.125 -15.515625 L 15.078125 -14.84375 C 16.628906 -14.625 17.878906 -14.113281 18.828125 -13.3125 C 19.785156 -12.519531 20.265625 -11.191406 20.265625 -9.328125 L 20.265625 -5.84375 C 20.265625 -3.957031 19.648438 -2.507812 18.421875 -1.5 C 17.191406 -0.5 15.515625 0 13.390625 0 Z M 13.390625 0 "/></g></g></g><g fill="#0d4244" fill-opacity="0.502"><g transform="translate(149.92458, 87.537404)"><g><path d="M 8.640625 0 L 3.484375 0 C 3.066406 0 2.765625 -0.09375 2.578125 -0.28125 C 2.390625 -0.46875 2.296875 -0.773438 2.296875 -1.203125 L 2.296875 -22.71875 C 2.296875 -23.144531 2.390625 -23.453125 2.578125 -23.640625 C 2.765625 -23.828125 3.066406 -23.921875 3.484375 -23.921875 L 13.65625 -23.921875 C 16.664062 -23.921875 18.722656 -23.320312 19.828125 -22.125 C 20.941406 -20.925781 21.5 -19.363281 21.5 -17.4375 L 21.5 -13.1875 C 21.5 -11.257812 20.941406 -9.695312 19.828125 -8.5 C 18.722656 -7.300781 16.664062 -6.703125 13.65625 -6.703125 L 9.828125 -6.703125 L 9.828125 -1.203125 C 9.828125 -0.773438 9.734375 -0.46875 9.546875 -0.28125 C 9.359375 -0.09375 9.054688 0 8.640625 0 Z M 9.765625 -17.703125 L 9.765625 -12.6875 L 12.75 -12.6875 C 13.394531 -12.6875 13.816406 -12.851562 14.015625 -13.1875 C 14.210938 -13.519531 14.3125 -13.894531 14.3125 -14.3125 L 14.3125 -16.078125 C 14.3125 -16.492188 14.210938 -16.867188 14.015625 -17.203125 C 13.816406 -17.535156 13.394531 -17.703125 12.75 -17.703125 Z M 9.765625 -17.703125 "/></g></g></g><g fill="#0d4244" fill-opacity="0.502"><g transform="translate(174.705364, 87.537404)"><g><path d="M 22.5625 -6.28125 C 22.5625 -5.257812 22.410156 -4.332031 22.109375 -3.5 C 21.804688 -2.675781 21.269531 -1.96875 20.5 -1.375 C 19.738281 -0.789062 18.6875 -0.332031 17.34375 0 C 16.007812 0.332031 14.3125 0.5 12.25 0.5 C 10.195312 0.5 8.492188 0.332031 7.140625 0 C 5.785156 -0.332031 4.726562 -0.789062 3.96875 -1.375 C 3.207031 -1.96875 2.675781 -2.675781 2.375 -3.5 C 2.070312 -4.332031 1.921875 -5.257812 1.921875 -6.28125 L 1.921875 -17.609375 C 1.921875 -18.628906 2.070312 -19.550781 2.375 -20.375 C 2.675781 -21.207031 3.207031 -21.921875 3.96875 -22.515625 C 4.726562 -23.117188 5.785156 -23.585938 7.140625 -23.921875 C 8.492188 -24.253906 10.195312 -24.421875 12.25 -24.421875 C 14.3125 -24.421875 16.007812 -24.253906 17.34375 -23.921875 C 18.6875 -23.585938 19.738281 -23.117188 20.5 -22.515625 C 21.269531 -21.921875 21.804688 -21.207031 22.109375 -20.375 C 22.410156 -19.550781 22.5625 -18.628906 22.5625 -17.609375 Z M 9.46875 -7.46875 C 9.46875 -7.03125 9.632812 -6.660156 9.96875 -6.359375 C 10.300781 -6.054688 11.0625 -5.90625 12.25 -5.90625 C 13.445312 -5.90625 14.210938 -6.054688 14.546875 -6.359375 C 14.878906 -6.660156 15.046875 -7.03125 15.046875 -7.46875 L 15.046875 -16.40625 C 15.046875 -16.832031 14.878906 -17.191406 14.546875 -17.484375 C 14.210938 -17.785156 13.445312 -17.9375 12.25 -17.9375 C 11.0625 -17.9375 10.300781 -17.785156 9.96875 -17.484375 C 9.632812 -17.191406 9.46875 -16.832031 9.46875 -16.40625 Z M 9.46875 -7.46875 "/></g></g></g><g fill="#0d4244" fill-opacity="0.502"><g transform="translate(201.313144, 87.537404)"><g><path d="M 8.46875 0 L 3.484375 0 C 3.066406 0 2.765625 -0.09375 2.578125 -0.28125 C 2.390625 -0.46875 2.296875 -0.773438 2.296875 -1.203125 L 2.296875 -22.71875 C 2.296875 -23.144531 2.390625 -23.453125 2.578125 -23.640625 C 2.765625 -23.828125 3.066406 -23.921875 3.484375 -23.921875 L 6.9375 -23.921875 C 7.363281 -23.921875 7.722656 -23.851562 8.015625 -23.71875 C 8.316406 -23.582031 8.613281 -23.347656 8.90625 -23.015625 L 15.34375 -15.640625 L 15.34375 -22.71875 C 15.34375 -23.144531 15.4375 -23.453125 15.625 -23.640625 C 15.8125 -23.828125 16.117188 -23.921875 16.546875 -23.921875 L 21.53125 -23.921875 C 21.945312 -23.921875 22.25 -23.828125 22.4375 -23.640625 C 22.625 -23.453125 22.71875 -23.144531 22.71875 -22.71875 L 22.71875 -1.203125 C 22.71875 -0.773438 22.625 -0.46875 22.4375 -0.28125 C 22.25 -0.09375 21.945312 0 21.53125 0 L 16.546875 0 C 16.117188 0 15.8125 -0.09375 15.625 -0.28125 C 15.4375 -0.46875 15.34375 -0.773438 15.34375 -1.203125 L 15.34375 -5.28125 L 9.671875 -12.15625 L 9.671875 -1.203125 C 9.671875 -0.773438 9.578125 -0.46875 9.390625 -0.28125 C 9.203125 -0.09375 8.894531 0 8.46875 0 Z M 8.46875 0 "/></g></g></g><g fill="#0d4244" fill-opacity="0.502"><g transform="translate(228.452416, 87.537404)"><g><path d="M 13.390625 0 L 2.890625 0 C 2.472656 0 2.164062 -0.09375 1.96875 -0.28125 C 1.78125 -0.46875 1.6875 -0.773438 1.6875 -1.203125 L 1.6875 -5.078125 C 1.6875 -5.503906 1.78125 -5.8125 1.96875 -6 C 2.164062 -6.1875 2.472656 -6.28125 2.890625 -6.28125 L 11.828125 -6.28125 C 12.109375 -6.28125 12.320312 -6.375 12.46875 -6.5625 C 12.613281 -6.75 12.6875 -6.972656 12.6875 -7.234375 C 12.6875 -7.617188 12.613281 -7.898438 12.46875 -8.078125 C 12.320312 -8.253906 12.109375 -8.351562 11.828125 -8.375 L 6.84375 -9.0625 C 5.289062 -9.289062 4.039062 -9.800781 3.09375 -10.59375 C 2.15625 -11.394531 1.6875 -12.722656 1.6875 -14.578125 L 1.6875 -18.078125 C 1.6875 -19.953125 2.296875 -21.394531 3.515625 -22.40625 C 4.734375 -23.414062 6.421875 -23.921875 8.578125 -23.921875 L 17.875 -23.921875 C 18.289062 -23.921875 18.59375 -23.828125 18.78125 -23.640625 C 18.96875 -23.453125 19.0625 -23.144531 19.0625 -22.71875 L 19.0625 -18.765625 C 19.0625 -18.347656 18.96875 -18.046875 18.78125 -17.859375 C 18.59375 -17.671875 18.289062 -17.578125 17.875 -17.578125 L 10.125 -17.578125 C 9.84375 -17.578125 9.625 -17.484375 9.46875 -17.296875 C 9.3125 -17.109375 9.234375 -16.867188 9.234375 -16.578125 C 9.234375 -16.285156 9.3125 -16.039062 9.46875 -15.84375 C 9.625 -15.644531 9.84375 -15.535156 10.125 -15.515625 L 15.078125 -14.84375 C 16.628906 -14.625 17.878906 -14.113281 18.828125 -13.3125 C 19.785156 -12.519531 20.265625 -11.191406 20.265625 -9.328125 L 20.265625 -5.84375 C 20.265625 -3.957031 19.648438 -2.507812 18.421875 -1.5 C 17.191406 -0.5 15.515625 0 13.390625 0 Z M 13.390625 0 "/></g></g></g><g fill="#0d4244" fill-opacity="0.502"><g transform="translate(252.170219, 87.537404)"><g><path d="M 22.5625 -6.28125 C 22.5625 -5.257812 22.410156 -4.332031 22.109375 -3.5 C 21.804688 -2.675781 21.269531 -1.96875 20.5 -1.375 C 19.738281 -0.789062 18.6875 -0.332031 17.34375 0 C 16.007812 0.332031 14.3125 0.5 12.25 0.5 C 10.195312 0.5 8.492188 0.332031 7.140625 0 C 5.785156 -0.332031 4.726562 -0.789062 3.96875 -1.375 C 3.207031 -1.96875 2.675781 -2.675781 2.375 -3.5 C 2.070312 -4.332031 1.921875 -5.257812 1.921875 -6.28125 L 1.921875 -17.609375 C 1.921875 -18.628906 2.070312 -19.550781 2.375 -20.375 C 2.675781 -21.207031 3.207031 -21.921875 3.96875 -22.515625 C 4.726562 -23.117188 5.785156 -23.585938 7.140625 -23.921875 C 8.492188 -24.253906 10.195312 -24.421875 12.25 -24.421875 C 14.3125 -24.421875 16.007812 -24.253906 17.34375 -23.921875 C 18.6875 -23.585938 19.738281 -23.117188 20.5 -22.515625 C 21.269531 -21.921875 21.804688 -21.207031 22.109375 -20.375 C 22.410156 -19.550781 22.5625 -18.628906 22.5625 -17.609375 Z M 9.46875 -7.46875 C 9.46875 -7.03125 9.632812 -6.660156 9.96875 -6.359375 C 10.300781 -6.054688 11.0625 -5.90625 12.25 -5.90625 C 13.445312 -5.90625 14.210938 -6.054688 14.546875 -6.359375 C 14.878906 -6.660156 15.046875 -7.03125 15.046875 -7.46875 L 15.046875 -16.40625 C 15.046875 -16.832031 14.878906 -17.191406 14.546875 -17.484375 C 14.210938 -17.785156 13.445312 -17.9375 12.25 -17.9375 C 11.0625 -17.9375 10.300781 -17.785156 9.96875 -17.484375 C 9.632812 -17.191406 9.46875 -16.832031 9.46875 -16.40625 Z M 9.46875 -7.46875 "/></g></g></g><g fill="#0d4244" fill-opacity="0.502"><g transform="translate(278.778003, 87.537404)"><g><path d="M 9.796875 -17.9375 L 9.796875 -13.6875 L 12.296875 -13.6875 C 12.867188 -13.6875 13.253906 -13.832031 13.453125 -14.125 C 13.648438 -14.425781 13.75 -14.800781 13.75 -15.25 L 13.75 -16.375 C 13.75 -16.820312 13.648438 -17.191406 13.453125 -17.484375 C 13.253906 -17.785156 12.867188 -17.9375 12.296875 -17.9375 Z M 8.609375 0 L 3.484375 0 C 3.066406 0 2.765625 -0.09375 2.578125 -0.28125 C 2.390625 -0.46875 2.296875 -0.773438 2.296875 -1.203125 L 2.296875 -22.71875 C 2.296875 -23.144531 2.390625 -23.453125 2.578125 -23.640625 C 2.765625 -23.828125 3.066406 -23.921875 3.484375 -23.921875 L 14.546875 -23.921875 C 17.023438 -23.921875 18.734375 -23.40625 19.671875 -22.375 C 20.617188 -21.34375 21.09375 -20.007812 21.09375 -18.375 L 21.09375 -16.84375 C 21.09375 -15.914062 20.953125 -15.125 20.671875 -14.46875 C 20.398438 -13.8125 19.921875 -13.34375 19.234375 -13.0625 C 20.429688 -12.925781 21.398438 -12.4375 22.140625 -11.59375 C 22.878906 -10.75 23.25 -9.628906 23.25 -8.234375 L 23.25 -1.203125 C 23.25 -0.773438 23.15625 -0.46875 22.96875 -0.28125 C 22.78125 -0.09375 22.476562 0 22.0625 0 L 16.90625 0 C 16.488281 0 16.1875 -0.09375 16 -0.28125 C 15.8125 -0.46875 15.71875 -0.773438 15.71875 -1.203125 L 15.71875 -6.28125 C 15.71875 -6.769531 15.617188 -7.128906 15.421875 -7.359375 C 15.234375 -7.585938 14.910156 -7.703125 14.453125 -7.703125 L 9.796875 -7.703125 L 9.796875 -1.203125 C 9.796875 -0.773438 9.703125 -0.46875 9.515625 -0.28125 C 9.328125 -0.09375 9.023438 0 8.609375 0 Z M 8.609375 0 "/></g></g></g><g fill="#0d4244" fill-opacity="0.502"><g transform="translate(305.585086, 87.537404)"><g/></g></g><g fill="#0d4244" fill-opacity="0.502"><g transform="translate(315.185198, 87.537404)"><g><path d="M 8.4375 0 L 3.484375 0 C 3.066406 0 2.765625 -0.09375 2.578125 -0.28125 C 2.390625 -0.46875 2.296875 -0.773438 2.296875 -1.203125 L 2.296875 -22.71875 C 2.296875 -23.144531 2.390625 -23.453125 2.578125 -23.640625 C 2.765625 -23.828125 3.066406 -23.921875 3.484375 -23.921875 L 8.84375 -23.921875 C 9.195312 -23.921875 9.488281 -23.84375 9.71875 -23.6875 C 9.945312 -23.53125 10.160156 -23.273438 10.359375 -22.921875 L 13.359375 -17.5 C 13.460938 -17.300781 13.550781 -17.15625 13.625 -17.0625 C 13.707031 -16.976562 13.816406 -16.9375 13.953125 -16.9375 L 14.25 -16.9375 C 14.382812 -16.9375 14.488281 -16.976562 14.5625 -17.0625 C 14.644531 -17.15625 14.738281 -17.300781 14.84375 -17.5 L 17.8125 -22.921875 C 18.007812 -23.273438 18.222656 -23.53125 18.453125 -23.6875 C 18.679688 -23.84375 18.972656 -23.921875 19.328125 -23.921875 L 24.71875 -23.921875 C 25.132812 -23.921875 25.4375 -23.828125 25.625 -23.640625 C 25.8125 -23.453125 25.90625 -23.144531 25.90625 -22.71875 L 25.90625 -1.203125 C 25.90625 -0.773438 25.8125 -0.46875 25.625 -0.28125 C 25.4375 -0.09375 25.132812 0 24.71875 0 L 19.59375 0 C 19.175781 0 18.875 -0.09375 18.6875 -0.28125 C 18.5 -0.46875 18.40625 -0.773438 18.40625 -1.203125 L 18.40625 -12.890625 L 16.4375 -9.265625 C 16.238281 -8.890625 16 -8.617188 15.71875 -8.453125 C 15.445312 -8.285156 15.101562 -8.203125 14.6875 -8.203125 L 13.359375 -8.203125 C 12.929688 -8.203125 12.578125 -8.285156 12.296875 -8.453125 C 12.023438 -8.617188 11.789062 -8.890625 11.59375 -9.265625 L 9.640625 -12.890625 L 9.640625 -1.203125 C 9.640625 -0.773438 9.539062 -0.46875 9.34375 -0.28125 C 9.15625 -0.09375 8.851562 0 8.4375 0 Z M 8.4375 0 "/></g></g></g><g fill="#0d4244" fill-opacity="0.502"><g transform="translate(345.513406, 87.537404)"><g><path d="M 18.90625 0 L 3.484375 0 C 3.066406 0 2.765625 -0.09375 2.578125 -0.28125 C 2.390625 -0.46875 2.296875 -0.773438 2.296875 -1.203125 L 2.296875 -22.71875 C 2.296875 -23.144531 2.390625 -23.453125 2.578125 -23.640625 C 2.765625 -23.828125 3.066406 -23.921875 3.484375 -23.921875 L 18.90625 -23.921875 C 19.320312 -23.921875 19.625 -23.828125 19.8125 -23.640625 C 20 -23.453125 20.09375 -23.144531 20.09375 -22.71875 L 20.09375 -18.828125 C 20.09375 -18.410156 20 -18.109375 19.8125 -17.921875 C 19.625 -17.734375 19.320312 -17.640625 18.90625 -17.640625 L 9.734375 -17.640625 L 9.734375 -15.078125 L 16.203125 -15.078125 C 16.628906 -15.078125 16.9375 -14.984375 17.125 -14.796875 C 17.3125 -14.609375 17.40625 -14.304688 17.40625 -13.890625 L 17.40625 -10.328125 C 17.40625 -9.910156 17.3125 -9.609375 17.125 -9.421875 C 16.9375 -9.234375 16.628906 -9.140625 16.203125 -9.140625 L 9.734375 -9.140625 L 9.734375 -6.28125 L 18.90625 -6.28125 C 19.320312 -6.28125 19.625 -6.1875 19.8125 -6 C 20 -5.8125 20.09375 -5.503906 20.09375 -5.078125 L 20.09375 -1.203125 C 20.09375 -0.773438 20 -0.46875 19.8125 -0.28125 C 19.625 -0.09375 19.320312 0 18.90625 0 Z M 18.90625 0 "/></g></g></g><g fill="#ffffff" fill-opacity="1"><g transform="translate(124.738679, 86.069305)"><g><path d="M 13.390625 0 L 2.890625 0 C 2.472656 0 2.164062 -0.09375 1.96875 -0.28125 C 1.78125 -0.46875 1.6875 -0.773438 1.6875 -1.203125 L 1.6875 -5.078125 C 1.6875 -5.503906 1.78125 -5.8125 1.96875 -6 C 2.164062 -6.1875 2.472656 -6.28125 2.890625 -6.28125 L 11.828125 -6.28125 C 12.109375 -6.28125 12.320312 -6.375 12.46875 -6.5625 C 12.613281 -6.75 12.6875 -6.972656 12.6875 -7.234375 C 12.6875 -7.617188 12.613281 -7.898438 12.46875 -8.078125 C 12.320312 -8.253906 12.109375 -8.351562 11.828125 -8.375 L 6.84375 -9.0625 C 5.289062 -9.289062 4.039062 -9.800781 3.09375 -10.59375 C 2.15625 -11.394531 1.6875 -12.722656 1.6875 -14.578125 L 1.6875 -18.078125 C 1.6875 -19.953125 2.296875 -21.394531 3.515625 -22.40625 C 4.734375 -23.414062 6.421875 -23.921875 8.578125 -23.921875 L 17.875 -23.921875 C 18.289062 -23.921875 18.59375 -23.828125 18.78125 -23.640625 C 18.96875 -23.453125 19.0625 -23.144531 19.0625 -22.71875 L 19.0625 -18.765625 C 19.0625 -18.347656 18.96875 -18.046875 18.78125 -17.859375 C 18.59375 -17.671875 18.289062 -17.578125 17.875 -17.578125 L 10.125 -17.578125 C 9.84375 -17.578125 9.625 -17.484375 9.46875 -17.296875 C 9.3125 -17.109375 9.234375 -16.867188 9.234375 -16.578125 C 9.234375 -16.285156 9.3125 -16.039062 9.46875 -15.84375 C 9.625 -15.644531 9.84375 -15.535156 10.125 -15.515625 L 15.078125 -14.84375 C 16.628906 -14.625 17.878906 -14.113281 18.828125 -13.3125 C 19.785156 -12.519531 20.265625 -11.191406 20.265625 -9.328125 L 20.265625 -5.84375 C 20.265625 -3.957031 19.648438 -2.507812 18.421875 -1.5 C 17.191406 -0.5 15.515625 0 13.390625 0 Z M 13.390625 0 "/></g></g></g><g fill="#ffffff" fill-opacity="1"><g transform="translate(148.456485, 86.069305)"><g><path d="M 8.640625 0 L 3.484375 0 C 3.066406 0 2.765625 -0.09375 2.578125 -0.28125 C 2.390625 -0.46875 2.296875 -0.773438 2.296875 -1.203125 L 2.296875 -22.71875 C 2.296875 -23.144531 2.390625 -23.453125 2.578125 -23.640625 C 2.765625 -23.828125 3.066406 -23.921875 3.484375 -23.921875 L 13.65625 -23.921875 C 16.664062 -23.921875 18.722656 -23.320312 19.828125 -22.125 C 20.941406 -20.925781 21.5 -19.363281 21.5 -17.4375 L 21.5 -13.1875 C 21.5 -11.257812 20.941406 -9.695312 19.828125 -8.5 C 18.722656 -7.300781 16.664062 -6.703125 13.65625 -6.703125 L 9.828125 -6.703125 L 9.828125 -1.203125 C 9.828125 -0.773438 9.734375 -0.46875 9.546875 -0.28125 C 9.359375 -0.09375 9.054688 0 8.640625 0 Z M 9.765625 -17.703125 L 9.765625 -12.6875 L 12.75 -12.6875 C 13.394531 -12.6875 13.816406 -12.851562 14.015625 -13.1875 C 14.210938 -13.519531 14.3125 -13.894531 14.3125 -14.3125 L 14.3125 -16.078125 C 14.3125 -16.492188 14.210938 -16.867188 14.015625 -17.203125 C 13.816406 -17.535156 13.394531 -17.703125 12.75 -17.703125 Z M 9.765625 -17.703125 "/></g></g></g><g fill="#ffffff" fill-opacity="1"><g transform="translate(173.237269, 86.069305)"><g><path d="M 22.5625 -6.28125 C 22.5625 -5.257812 22.410156 -4.332031 22.109375 -3.5 C 21.804688 -2.675781 21.269531 -1.96875 20.5 -1.375 C 19.738281 -0.789062 18.6875 -0.332031 17.34375 0 C 16.007812 0.332031 14.3125 0.5 12.25 0.5 C 10.195312 0.5 8.492188 0.332031 7.140625 0 C 5.785156 -0.332031 4.726562 -0.789062 3.96875 -1.375 C 3.207031 -1.96875 2.675781 -2.675781 2.375 -3.5 C 2.070312 -4.332031 1.921875 -5.257812 1.921875 -6.28125 L 1.921875 -17.609375 C 1.921875 -18.628906 2.070312 -19.550781 2.375 -20.375 C 2.675781 -21.207031 3.207031 -21.921875 3.96875 -22.515625 C 4.726562 -23.117188 5.785156 -23.585938 7.140625 -23.921875 C 8.492188 -24.253906 10.195312 -24.421875 12.25 -24.421875 C 14.3125 -24.421875 16.007812 -24.253906 17.34375 -23.921875 C 18.6875 -23.585938 19.738281 -23.117188 20.5 -22.515625 C 21.269531 -21.921875 21.804688 -21.207031 22.109375 -20.375 C 22.410156 -19.550781 22.5625 -18.628906 22.5625 -17.609375 Z M 9.46875 -7.46875 C 9.46875 -7.03125 9.632812 -6.660156 9.96875 -6.359375 C 10.300781 -6.054688 11.0625 -5.90625 12.25 -5.90625 C 13.445312 -5.90625 14.210938 -6.054688 14.546875 -6.359375 C 14.878906 -6.660156 15.046875 -7.03125 15.046875 -7.46875 L 15.046875 -16.40625 C 15.046875 -16.832031 14.878906 -17.191406 14.546875 -17.484375 C 14.210938 -17.785156 13.445312 -17.9375 12.25 -17.9375 C 11.0625 -17.9375 10.300781 -17.785156 9.96875 -17.484375 C 9.632812 -17.191406 9.46875 -16.832031 9.46875 -16.40625 Z M 9.46875 -7.46875 "/></g></g></g><g fill="#ffffff" fill-opacity="1"><g transform="translate(199.84505, 86.069305)"><g><path d="M 8.46875 0 L 3.484375 0 C 3.066406 0 2.765625 -0.09375 2.578125 -0.28125 C 2.390625 -0.46875 2.296875 -0.773438 2.296875 -1.203125 L 2.296875 -22.71875 C 2.296875 -23.144531 2.390625 -23.453125 2.578125 -23.640625 C 2.765625 -23.828125 3.066406 -23.921875 3.484375 -23.921875 L 6.9375 -23.921875 C 7.363281 -23.921875 7.722656 -23.851562 8.015625 -23.71875 C 8.316406 -23.582031 8.613281 -23.347656 8.90625 -23.015625 L 15.34375 -15.640625 L 15.34375 -22.71875 C 15.34375 -23.144531 15.4375 -23.453125 15.625 -23.640625 C 15.8125 -23.828125 16.117188 -23.921875 16.546875 -23.921875 L 21.53125 -23.921875 C 21.945312 -23.921875 22.25 -23.828125 22.4375 -23.640625 C 22.625 -23.453125 22.71875 -23.144531 22.71875 -22.71875 L 22.71875 -1.203125 C 22.71875 -0.773438 22.625 -0.46875 22.4375 -0.28125 C 22.25 -0.09375 21.945312 0 21.53125 0 L 16.546875 0 C 16.117188 0 15.8125 -0.09375 15.625 -0.28125 C 15.4375 -0.46875 15.34375 -0.773438 15.34375 -1.203125 L 15.34375 -5.28125 L 9.671875 -12.15625 L 9.671875 -1.203125 C 9.671875 -0.773438 9.578125 -0.46875 9.390625 -0.28125 C 9.203125 -0.09375 8.894531 0 8.46875 0 Z M 8.46875 0 "/></g></g></g><g fill="#ffffff" fill-opacity="1"><g transform="translate(226.984322, 86.069305)"><g><path d="M 13.390625 0 L 2.890625 0 C 2.472656 0 2.164062 -0.09375 1.96875 -0.28125 C 1.78125 -0.46875 1.6875 -0.773438 1.6875 -1.203125 L 1.6875 -5.078125 C 1.6875 -5.503906 1.78125 -5.8125 1.96875 -6 C 2.164062 -6.1875 2.472656 -6.28125 2.890625 -6.28125 L 11.828125 -6.28125 C 12.109375 -6.28125 12.320312 -6.375 12.46875 -6.5625 C 12.613281 -6.75 12.6875 -6.972656 12.6875 -7.234375 C 12.6875 -7.617188 12.613281 -7.898438 12.46875 -8.078125 C 12.320312 -8.253906 12.109375 -8.351562 11.828125 -8.375 L 6.84375 -9.0625 C 5.289062 -9.289062 4.039062 -9.800781 3.09375 -10.59375 C 2.15625 -11.394531 1.6875 -12.722656 1.6875 -14.578125 L 1.6875 -18.078125 C 1.6875 -19.953125 2.296875 -21.394531 3.515625 -22.40625 C 4.734375 -23.414062 6.421875 -23.921875 8.578125 -23.921875 L 17.875 -23.921875 C 18.289062 -23.921875 18.59375 -23.828125 18.78125 -23.640625 C 18.96875 -23.453125 19.0625 -23.144531 19.0625 -22.71875 L 19.0625 -18.765625 C 19.0625 -18.347656 18.96875 -18.046875 18.78125 -17.859375 C 18.59375 -17.671875 18.289062 -17.578125 17.875 -17.578125 L 10.125 -17.578125 C 9.84375 -17.578125 9.625 -17.484375 9.46875 -17.296875 C 9.3125 -17.109375 9.234375 -16.867188 9.234375 -16.578125 C 9.234375 -16.285156 9.3125 -16.039062 9.46875 -15.84375 C 9.625 -15.644531 9.84375 -15.535156 10.125 -15.515625 L 15.078125 -14.84375 C 16.628906 -14.625 17.878906 -14.113281 18.828125 -13.3125 C 19.785156 -12.519531 20.265625 -11.191406 20.265625 -9.328125 L 20.265625 -5.84375 C 20.265625 -3.957031 19.648438 -2.507812 18.421875 -1.5 C 17.191406 -0.5 15.515625 0 13.390625 0 Z M 13.390625 0 "/></g></g></g><g fill="#ffffff" fill-opacity="1"><g transform="translate(250.702124, 86.069305)"><g><path d="M 22.5625 -6.28125 C 22.5625 -5.257812 22.410156 -4.332031 22.109375 -3.5 C 21.804688 -2.675781 21.269531 -1.96875 20.5 -1.375 C 19.738281 -0.789062 18.6875 -0.332031 17.34375 0 C 16.007812 0.332031 14.3125 0.5 12.25 0.5 C 10.195312 0.5 8.492188 0.332031 7.140625 0 C 5.785156 -0.332031 4.726562 -0.789062 3.96875 -1.375 C 3.207031 -1.96875 2.675781 -2.675781 2.375 -3.5 C 2.070312 -4.332031 1.921875 -5.257812 1.921875 -6.28125 L 1.921875 -17.609375 C 1.921875 -18.628906 2.070312 -19.550781 2.375 -20.375 C 2.675781 -21.207031 3.207031 -21.921875 3.96875 -22.515625 C 4.726562 -23.117188 5.785156 -23.585938 7.140625 -23.921875 C 8.492188 -24.253906 10.195312 -24.421875 12.25 -24.421875 C 14.3125 -24.421875 16.007812 -24.253906 17.34375 -23.921875 C 18.6875 -23.585938 19.738281 -23.117188 20.5 -22.515625 C 21.269531 -21.921875 21.804688 -21.207031 22.109375 -20.375 C 22.410156 -19.550781 22.5625 -18.628906 22.5625 -17.609375 Z M 9.46875 -7.46875 C 9.46875 -7.03125 9.632812 -6.660156 9.96875 -6.359375 C 10.300781 -6.054688 11.0625 -5.90625 12.25 -5.90625 C 13.445312 -5.90625 14.210938 -6.054688 14.546875 -6.359375 C 14.878906 -6.660156 15.046875 -7.03125 15.046875 -7.46875 L 15.046875 -16.40625 C 15.046875 -16.832031 14.878906 -17.191406 14.546875 -17.484375 C 14.210938 -17.785156 13.445312 -17.9375 12.25 -17.9375 C 11.0625 -17.9375 10.300781 -17.785156 9.96875 -17.484375 C 9.632812 -17.191406 9.46875 -16.832031 9.46875 -16.40625 Z M 9.46875 -7.46875 "/></g></g></g><g fill="#ffffff" fill-opacity="1"><g transform="translate(277.309909, 86.069305)"><g><path d="M 9.796875 -17.9375 L 9.796875 -13.6875 L 12.296875 -13.6875 C 12.867188 -13.6875 13.253906 -13.832031 13.453125 -14.125 C 13.648438 -14.425781 13.75 -14.800781 13.75 -15.25 L 13.75 -16.375 C 13.75 -16.820312 13.648438 -17.191406 13.453125 -17.484375 C 13.253906 -17.785156 12.867188 -17.9375 12.296875 -17.9375 Z M 8.609375 0 L 3.484375 0 C 3.066406 0 2.765625 -0.09375 2.578125 -0.28125 C 2.390625 -0.46875 2.296875 -0.773438 2.296875 -1.203125 L 2.296875 -22.71875 C 2.296875 -23.144531 2.390625 -23.453125 2.578125 -23.640625 C 2.765625 -23.828125 3.066406 -23.921875 3.484375 -23.921875 L 14.546875 -23.921875 C 17.023438 -23.921875 18.734375 -23.40625 19.671875 -22.375 C 20.617188 -21.34375 21.09375 -20.007812 21.09375 -18.375 L 21.09375 -16.84375 C 21.09375 -15.914062 20.953125 -15.125 20.671875 -14.46875 C 20.398438 -13.8125 19.921875 -13.34375 19.234375 -13.0625 C 20.429688 -12.925781 21.398438 -12.4375 22.140625 -11.59375 C 22.878906 -10.75 23.25 -9.628906 23.25 -8.234375 L 23.25 -1.203125 C 23.25 -0.773438 23.15625 -0.46875 22.96875 -0.28125 C 22.78125 -0.09375 22.476562 0 22.0625 0 L 16.90625 0 C 16.488281 0 16.1875 -0.09375 16 -0.28125 C 15.8125 -0.46875 15.71875 -0.773438 15.71875 -1.203125 L 15.71875 -6.28125 C 15.71875 -6.769531 15.617188 -7.128906 15.421875 -7.359375 C 15.234375 -7.585938 14.910156 -7.703125 14.453125 -7.703125 L 9.796875 -7.703125 L 9.796875 -1.203125 C 9.796875 -0.773438 9.703125 -0.46875 9.515625 -0.28125 C 9.328125 -0.09375 9.023438 0 8.609375 0 Z M 8.609375 0 "/></g></g></g><g fill="#ffffff" fill-opacity="1"><g transform="translate(304.116991, 86.069305)"><g/></g></g><g fill="#ffffff" fill-opacity="1"><g transform="translate(313.717104, 86.069305)"><g><path d="M 8.4375 0 L 3.484375 0 C 3.066406 0 2.765625 -0.09375 2.578125 -0.28125 C 2.390625 -0.46875 2.296875 -0.773438 2.296875 -1.203125 L 2.296875 -22.71875 C 2.296875 -23.144531 2.390625 -23.453125 2.578125 -23.640625 C 2.765625 -23.828125 3.066406 -23.921875 3.484375 -23.921875 L 8.84375 -23.921875 C 9.195312 -23.921875 9.488281 -23.84375 9.71875 -23.6875 C 9.945312 -23.53125 10.160156 -23.273438 10.359375 -22.921875 L 13.359375 -17.5 C 13.460938 -17.300781 13.550781 -17.15625 13.625 -17.0625 C 13.707031 -16.976562 13.816406 -16.9375 13.953125 -16.9375 L 14.25 -16.9375 C 14.382812 -16.9375 14.488281 -16.976562 14.5625 -17.0625 C 14.644531 -17.15625 14.738281 -17.300781 14.84375 -17.5 L 17.8125 -22.921875 C 18.007812 -23.273438 18.222656 -23.53125 18.453125 -23.6875 C 18.679688 -23.84375 18.972656 -23.921875 19.328125 -23.921875 L 24.71875 -23.921875 C 25.132812 -23.921875 25.4375 -23.828125 25.625 -23.640625 C 25.8125 -23.453125 25.90625 -23.144531 25.90625 -22.71875 L 25.90625 -1.203125 C 25.90625 -0.773438 25.8125 -0.46875 25.625 -0.28125 C 25.4375 -0.09375 25.132812 0 24.71875 0 L 19.59375 0 C 19.175781 0 18.875 -0.09375 18.6875 -0.28125 C 18.5 -0.46875 18.40625 -0.773438 18.40625 -1.203125 L 18.40625 -12.890625 L 16.4375 -9.265625 C 16.238281 -8.890625 16 -8.617188 15.71875 -8.453125 C 15.445312 -8.285156 15.101562 -8.203125 14.6875 -8.203125 L 13.359375 -8.203125 C 12.929688 -8.203125 12.578125 -8.285156 12.296875 -8.453125 C 12.023438 -8.617188 11.789062 -8.890625 11.59375 -9.265625 L 9.640625 -12.890625 L 9.640625 -1.203125 C 9.640625 -0.773438 9.539062 -0.46875 9.34375 -0.28125 C 9.15625 -0.09375 8.851562 0 8.4375 0 Z M 8.4375 0 "/></g></g></g><g fill="#ffffff" fill-opacity="1"><g transform="translate(344.045312, 86.069305)"><g><path d="M 18.90625 0 L 3.484375 0 C 3.066406 0 2.765625 -0.09375 2.578125 -0.28125 C 2.390625 -0.46875 2.296875 -0.773438 2.296875 -1.203125 L 2.296875 -22.71875 C 2.296875 -23.144531 2.390625 -23.453125 2.578125 -23.640625 C 2.765625 -23.828125 3.066406 -23.921875 3.484375 -23.921875 L 18.90625 -23.921875 C 19.320312 -23.921875 19.625 -23.828125 19.8125 -23.640625 C 20 -23.453125 20.09375 -23.144531 20.09375 -22.71875 L 20.09375 -18.828125 C 20.09375 -18.410156 20 -18.109375 19.8125 -17.921875 C 19.625 -17.734375 19.320312 -17.640625 18.90625 -17.640625 L 9.734375 -17.640625 L 9.734375 -15.078125 L 16.203125 -15.078125 C 16.628906 -15.078125 16.9375 -14.984375 17.125 -14.796875 C 17.3125 -14.609375 17.40625 -14.304688 17.40625 -13.890625 L 17.40625 -10.328125 C 17.40625 -9.910156 17.3125 -9.609375 17.125 -9.421875 C 16.9375 -9.234375 16.628906 -9.140625 16.203125 -9.140625 L 9.734375 -9.140625 L 9.734375 -6.28125 L 18.90625 -6.28125 C 19.320312 -6.28125 19.625 -6.1875 19.8125 -6 C 20 -5.8125 20.09375 -5.503906 20.09375 -5.078125 L 20.09375 -1.203125 C 20.09375 -0.773438 20 -0.46875 19.8125 -0.28125 C 19.625 -0.09375 19.320312 0 18.90625 0 Z M 18.90625 0 "/></g></g></g><path fill="#356264" d="M 106.53125 52.023438 L 95.03125 63.523438 L 81.605469 50.128906 C 80.691406 49.261719 79.90625 48.289062 79.253906 47.210938 C 78.601562 46.132812 78.105469 44.988281 77.761719 43.777344 C 77.414062 42.566406 77.238281 41.328125 77.222656 40.070312 C 77.210938 38.8125 77.367188 37.570312 77.6875 36.355469 C 78.113281 34.769531 78.832031 33.324219 79.835938 32.027344 C 76.96875 31.257812 74.054688 30.785156 71.09375 30.613281 C 68.128906 30.441406 65.179688 30.570312 62.242188 31 C 59.308594 31.425781 56.445312 32.148438 53.65625 33.164062 C 50.867188 34.175781 48.210938 35.460938 45.683594 37.015625 C 46.476562 37.339844 47.222656 37.753906 47.917969 38.25 C 48.617188 38.746094 49.246094 39.320312 49.8125 39.960938 C 50.375 40.605469 50.859375 41.308594 51.261719 42.0625 C 51.664062 42.820312 51.972656 43.613281 52.191406 44.441406 C 52.480469 45.539062 52.617188 46.652344 52.605469 47.785156 C 52.589844 48.917969 52.429688 50.027344 52.117188 51.117188 C 51.808594 52.207031 51.359375 53.238281 50.769531 54.203125 C 50.179688 55.171875 49.476562 56.046875 48.652344 56.824219 L 37.027344 68.453125 L 27.550781 58.972656 C 25.503906 64.042969 24.453125 69.308594 24.390625 74.769531 C 24.394531 76.734375 24.527344 78.691406 24.792969 80.636719 C 25.054688 82.582031 25.449219 84.503906 25.96875 86.394531 C 26.488281 88.289062 27.128906 90.140625 27.898438 91.949219 C 28.664062 93.757812 29.546875 95.507812 30.546875 97.199219 C 31.546875 98.890625 32.652344 100.507812 33.867188 102.050781 C 35.082031 103.59375 36.394531 105.046875 37.804688 106.417969 C 39.214844 107.785156 40.707031 109.054688 42.285156 110.222656 C 43.863281 111.394531 45.511719 112.453125 47.230469 113.402344 C 48.949219 114.351562 50.722656 115.183594 52.554688 115.898438 C 54.382812 116.609375 56.253906 117.199219 58.160156 117.664062 C 60.070312 118.128906 62 118.464844 63.953125 118.671875 C 65.90625 118.878906 67.867188 118.957031 69.828125 118.902344 C 71.792969 118.847656 73.742188 118.664062 75.683594 118.351562 C 77.621094 118.039062 79.53125 117.597656 81.410156 117.027344 C 83.289062 116.460938 85.125 115.769531 86.914062 114.957031 C 88.703125 114.144531 90.429688 113.21875 92.09375 112.175781 L 89.28125 109.523438 C 88.476562 108.757812 87.785156 107.902344 87.210938 106.953125 C 86.640625 106.003906 86.203125 104.996094 85.902344 103.925781 C 85.601562 102.859375 85.449219 101.769531 85.441406 100.660156 C 85.4375 99.550781 85.578125 98.460938 85.867188 97.390625 C 86.113281 96.460938 86.476562 95.582031 86.957031 94.753906 C 87.4375 93.921875 88.015625 93.167969 88.695312 92.488281 C 89.375 91.8125 90.132812 91.234375 90.964844 90.757812 C 91.800781 90.285156 92.679688 89.925781 93.609375 89.683594 C 94.796875 89.386719 96.003906 89.296875 97.222656 89.414062 C 98.445312 89.535156 99.609375 89.855469 100.71875 90.378906 C 102.171875 89.710938 103.699219 89.371094 105.296875 89.367188 C 106.171875 89.375 107.035156 89.480469 107.890625 89.683594 C 108.617188 89.875 109.308594 90.148438 109.972656 90.503906 C 110.574219 88.945312 111.085938 87.359375 111.507812 85.746094 C 111.925781 84.128906 112.25 82.496094 112.484375 80.839844 C 112.71875 79.1875 112.855469 77.527344 112.894531 75.859375 C 112.9375 74.191406 112.886719 72.523438 112.734375 70.863281 C 112.585938 69.199219 112.34375 67.550781 112.007812 65.917969 C 111.667969 64.28125 111.238281 62.671875 110.714844 61.085938 C 110.195312 59.5 109.582031 57.949219 108.882812 56.433594 C 108.183594 54.917969 107.398438 53.449219 106.53125 52.023438 Z M 49.664062 74.136719 C 49.394531 74.667969 49.007812 75.089844 48.503906 75.40625 C 47.996094 75.71875 47.445312 75.875 46.851562 75.875 C 46.347656 75.886719 45.875 75.769531 45.429688 75.527344 C 45.082031 75.355469 44.777344 75.125 44.515625 74.835938 C 44.253906 74.550781 44.050781 74.226562 43.910156 73.867188 C 43.765625 73.503906 43.691406 73.128906 43.6875 72.742188 C 43.683594 72.351562 43.75 71.976562 43.882812 71.609375 C 44.289062 70.792969 44.792969 70.039062 45.394531 69.351562 C 45.996094 68.664062 46.671875 68.0625 47.429688 67.546875 C 48.183594 67.03125 48.992188 66.621094 49.851562 66.316406 C 50.710938 66.007812 51.597656 65.816406 52.507812 65.734375 C 53.410156 65.664062 54.308594 65.703125 55.203125 65.859375 C 56.097656 66.011719 56.957031 66.273438 57.785156 66.644531 C 58.613281 67.011719 59.382812 67.480469 60.09375 68.042969 C 60.804688 68.605469 61.433594 69.246094 61.984375 69.96875 L 62.839844 71.136719 C 62.976562 71.464844 63.058594 71.804688 63.082031 72.160156 C 63.101562 72.515625 63.066406 72.863281 62.972656 73.207031 C 62.878906 73.550781 62.730469 73.867188 62.527344 74.160156 C 62.324219 74.453125 62.082031 74.703125 61.792969 74.914062 C 61.507812 75.125 61.195312 75.28125 60.855469 75.386719 C 60.515625 75.492188 60.167969 75.535156 59.8125 75.523438 C 59.457031 75.511719 59.113281 75.4375 58.78125 75.308594 C 58.449219 75.179688 58.148438 75 57.878906 74.769531 L 57.023438 73.601562 C 56.5625 72.988281 55.980469 72.527344 55.277344 72.21875 C 54.574219 71.910156 53.839844 71.789062 53.074219 71.863281 C 52.335938 71.949219 51.664062 72.207031 51.054688 72.640625 C 50.449219 73.070312 49.984375 73.625 49.664062 74.296875 Z M 85.078125 87.40625 C 84.25 88.859375 83.246094 90.175781 82.070312 91.363281 C 80.890625 92.546875 79.582031 93.5625 78.136719 94.398438 C 76.691406 95.238281 75.160156 95.875 73.546875 96.308594 C 71.933594 96.742188 70.289062 96.960938 68.621094 96.960938 C 66.949219 96.960938 65.304688 96.742188 63.691406 96.308594 C 62.078125 95.875 60.550781 95.238281 59.105469 94.398438 C 57.660156 93.5625 56.347656 92.546875 55.167969 91.363281 C 53.992188 90.175781 52.988281 88.859375 52.160156 87.40625 C 51.949219 87.039062 51.820312 86.648438 51.765625 86.230469 C 51.714844 85.8125 51.742188 85.398438 51.851562 84.992188 C 51.964844 84.582031 52.148438 84.210938 52.40625 83.878906 C 52.667969 83.546875 52.980469 83.273438 53.34375 83.0625 C 53.710938 82.855469 54.105469 82.722656 54.523438 82.671875 C 54.941406 82.617188 55.355469 82.644531 55.761719 82.757812 C 56.167969 82.867188 56.539062 83.050781 56.875 83.3125 C 57.207031 83.570312 57.480469 83.882812 57.6875 84.25 C 57.964844 84.726562 58.269531 85.179688 58.609375 85.617188 C 58.945312 86.054688 59.308594 86.46875 59.699219 86.855469 C 60.085938 87.246094 60.5 87.609375 60.9375 87.941406 C 61.378906 88.277344 61.835938 88.582031 62.3125 88.859375 C 62.789062 89.132812 63.28125 89.375 63.792969 89.585938 C 64.300781 89.796875 64.824219 89.972656 65.355469 90.113281 C 65.886719 90.257812 66.425781 90.363281 66.972656 90.4375 C 67.519531 90.507812 68.070312 90.542969 68.621094 90.542969 C 69.171875 90.542969 69.71875 90.507812 70.265625 90.4375 C 70.8125 90.363281 71.351562 90.257812 71.882812 90.113281 C 72.417969 89.972656 72.9375 89.796875 73.445312 89.585938 C 73.957031 89.375 74.449219 89.132812 74.925781 88.859375 C 75.40625 88.582031 75.863281 88.277344 76.300781 87.941406 C 76.738281 87.609375 77.152344 87.246094 77.542969 86.855469 C 77.933594 86.46875 78.296875 86.054688 78.632812 85.617188 C 78.96875 85.179688 79.273438 84.726562 79.550781 84.25 C 79.761719 83.882812 80.03125 83.570312 80.367188 83.308594 C 80.699219 83.050781 81.070312 82.867188 81.476562 82.757812 C 81.882812 82.644531 82.296875 82.617188 82.714844 82.667969 C 83.136719 82.722656 83.527344 82.855469 83.894531 83.0625 C 84.261719 83.273438 84.574219 83.542969 84.832031 83.878906 C 85.089844 84.210938 85.277344 84.582031 85.386719 84.988281 C 85.496094 85.398438 85.527344 85.808594 85.472656 86.230469 C 85.421875 86.648438 85.289062 87.039062 85.078125 87.40625 Z M 91.933594 75.84375 C 91.492188 76.085938 91.015625 76.199219 90.511719 76.191406 C 89.917969 76.191406 89.367188 76.03125 88.863281 75.71875 C 88.355469 75.40625 87.96875 74.984375 87.703125 74.453125 C 87.535156 74.117188 87.324219 73.808594 87.078125 73.523438 C 86.832031 73.238281 86.550781 72.992188 86.242188 72.777344 C 85.929688 72.566406 85.597656 72.394531 85.246094 72.265625 C 84.890625 72.136719 84.527344 72.058594 84.152344 72.023438 C 83.777344 71.988281 83.402344 72 83.03125 72.0625 C 82.660156 72.121094 82.300781 72.226562 81.957031 72.378906 C 81.613281 72.53125 81.292969 72.722656 80.996094 72.957031 C 80.703125 73.191406 80.441406 73.457031 80.214844 73.757812 L 79.359375 74.769531 C 79.109375 75.105469 78.804688 75.378906 78.441406 75.59375 C 78.082031 75.808594 77.695312 75.941406 77.28125 76.003906 C 76.867188 76.0625 76.457031 76.039062 76.050781 75.933594 C 75.644531 75.832031 75.273438 75.652344 74.9375 75.402344 C 74.601562 75.152344 74.328125 74.84375 74.113281 74.484375 C 73.902344 74.125 73.765625 73.734375 73.707031 73.320312 C 73.648438 72.90625 73.667969 72.496094 73.773438 72.089844 C 73.878906 71.683594 74.054688 71.3125 74.304688 70.980469 L 75.160156 69.808594 C 75.433594 69.449219 75.730469 69.105469 76.050781 68.777344 C 76.367188 68.453125 76.703125 68.148438 77.0625 67.867188 C 77.417969 67.585938 77.792969 67.328125 78.179688 67.09375 C 78.570312 66.859375 78.972656 66.648438 79.390625 66.464844 C 79.804688 66.28125 80.234375 66.125 80.667969 65.992188 C 81.105469 65.863281 81.546875 65.761719 81.996094 65.6875 C 82.445312 65.613281 82.898438 65.570312 83.351562 65.550781 C 83.804688 65.535156 84.261719 65.546875 84.714844 65.589844 C 85.167969 65.628906 85.613281 65.699219 86.058594 65.796875 C 86.503906 65.894531 86.941406 66.019531 87.367188 66.171875 C 87.796875 66.324219 88.214844 66.503906 88.621094 66.710938 C 89.027344 66.917969 89.417969 67.148438 89.792969 67.402344 C 90.167969 67.660156 90.527344 67.9375 90.871094 68.238281 C 91.210938 68.539062 91.53125 68.859375 91.832031 69.203125 C 92.132812 69.542969 92.410156 69.902344 92.664062 70.277344 C 92.921875 70.65625 93.152344 71.046875 93.355469 71.453125 C 93.542969 71.828125 93.648438 72.222656 93.679688 72.640625 C 93.707031 73.058594 93.65625 73.46875 93.523438 73.863281 C 93.386719 74.261719 93.183594 74.617188 92.910156 74.933594 C 92.632812 75.25 92.308594 75.5 91.933594 75.6875 Z M 93.894531 104.878906 C 93.492188 104.507812 93.148438 104.089844 92.859375 103.628906 C 92.566406 103.167969 92.34375 102.675781 92.1875 102.152344 C 92.027344 101.632812 91.941406 101.097656 91.925781 100.550781 C 91.910156 100.007812 91.964844 99.46875 92.09375 98.9375 C 92.316406 98.175781 92.707031 97.515625 93.265625 96.953125 C 93.828125 96.394531 94.488281 96 95.253906 95.78125 C 95.589844 95.746094 95.925781 95.746094 96.261719 95.78125 C 97.308594 95.804688 98.257812 96.117188 99.105469 96.726562 L 100.84375 97.832031 L 102.550781 96.726562 C 103.410156 96.117188 104.371094 95.800781 105.425781 95.78125 C 105.773438 95.75 106.121094 95.75 106.46875 95.78125 C 107.234375 95.992188 107.898438 96.382812 108.460938 96.945312 C 109.023438 97.507812 109.414062 98.171875 109.625 98.9375 C 109.757812 99.46875 109.8125 100.007812 109.796875 100.554688 C 109.777344 101.101562 109.691406 101.636719 109.527344 102.160156 C 109.367188 102.683594 109.140625 103.175781 108.84375 103.636719 C 108.550781 104.097656 108.199219 104.511719 107.792969 104.878906 L 100.84375 111.859375 Z M 86.058594 45.671875 C 85.546875 45.195312 85.105469 44.65625 84.738281 44.0625 C 84.371094 43.464844 84.085938 42.832031 83.886719 42.160156 C 83.683594 41.488281 83.578125 40.800781 83.558594 40.101562 C 83.542969 39.398438 83.617188 38.710938 83.785156 38.027344 C 83.910156 37.53125 84.09375 37.058594 84.34375 36.613281 C 84.59375 36.164062 84.898438 35.757812 85.257812 35.390625 C 85.617188 35.023438 86.015625 34.710938 86.457031 34.453125 C 86.898438 34.191406 87.367188 33.992188 87.859375 33.859375 C 88.28125 33.808594 88.703125 33.808594 89.121094 33.859375 C 90.621094 33.902344 91.96875 34.378906 93.167969 35.28125 L 94.96875 36.605469 L 96.800781 35.28125 C 97.988281 34.3125 99.347656 33.785156 100.875 33.699219 C 101.503906 33.699219 102.117188 33.808594 102.710938 34.019531 C 103.304688 34.230469 103.84375 34.53125 104.332031 34.929688 C 104.820312 35.324219 105.230469 35.792969 105.558594 36.332031 C 105.886719 36.867188 106.117188 37.445312 106.246094 38.058594 C 106.40625 38.738281 106.476562 39.425781 106.453125 40.125 C 106.429688 40.820312 106.3125 41.503906 106.109375 42.167969 C 105.902344 42.835938 105.613281 43.464844 105.238281 44.050781 C 104.867188 44.640625 104.421875 45.171875 103.910156 45.640625 L 94.96875 54.582031 Z M 29.632812 52.339844 C 29.203125 51.949219 28.832031 51.507812 28.523438 51.015625 C 28.214844 50.523438 27.976562 50 27.8125 49.441406 C 27.648438 48.886719 27.5625 48.316406 27.554688 47.734375 C 27.546875 47.152344 27.621094 46.582031 27.769531 46.019531 C 27.988281 45.210938 28.394531 44.511719 28.988281 43.917969 C 29.578125 43.328125 30.277344 42.921875 31.085938 42.703125 C 31.433594 42.65625 31.78125 42.65625 32.128906 42.703125 C 33.289062 42.714844 34.339844 43.054688 35.289062 43.714844 L 37.027344 44.726562 L 38.765625 43.589844 C 39.714844 42.925781 40.765625 42.589844 41.925781 42.578125 C 42.28125 42.53125 42.640625 42.53125 42.996094 42.578125 C 43.796875 42.851562 44.472656 43.300781 45.03125 43.933594 C 45.589844 44.5625 45.953125 45.292969 46.125 46.117188 C 46.273438 46.679688 46.339844 47.253906 46.328125 47.835938 C 46.316406 48.417969 46.222656 48.988281 46.054688 49.546875 C 45.882812 50.105469 45.640625 50.628906 45.324219 51.117188 C 45.011719 51.609375 44.636719 52.046875 44.199219 52.433594 L 37.027344 59.636719 Z M 29.632812 52.339844 " fill-opacity="1" fill-rule="nonzero"/><g clip-path="url(#5ff5bbc096)"><path fill="#356264" d="M -44.3125 46.011719 C -46.179688 46.015625 -48.035156 46.132812 -49.882812 46.367188 C -51.730469 46.601562 -53.558594 46.953125 -55.363281 47.414062 C -57.167969 47.878906 -58.9375 48.453125 -60.667969 49.136719 C -62.402344 49.824219 -64.085938 50.613281 -65.71875 51.507812 C -67.355469 52.40625 -68.925781 53.398438 -70.433594 54.492188 C -71.945312 55.582031 -73.378906 56.765625 -74.742188 58.039062 C -76.101562 59.308594 -77.378906 60.664062 -78.570312 62.09375 C -79.761719 63.527344 -80.859375 65.027344 -81.863281 66.597656 C -80.914062 66.859375 -79.984375 67.230469 -79.082031 67.710938 C -78.175781 68.195312 -77.308594 68.78125 -76.476562 69.472656 C -75.644531 70.160156 -74.863281 70.945312 -74.128906 71.824219 C -73.394531 72.699219 -72.71875 73.65625 -72.101562 74.695312 C -71.488281 75.734375 -70.941406 76.839844 -70.460938 78.007812 C -69.984375 79.175781 -69.582031 80.394531 -69.253906 81.660156 C -68.929688 82.925781 -68.679688 84.21875 -68.515625 85.542969 C -68.347656 86.867188 -68.265625 88.199219 -68.265625 89.546875 C -68.277344 93.933594 -69.113281 97.992188 -70.773438 101.730469 C -67.28125 104.148438 -65 108.175781 -65 112.765625 L -65 126.1875 C -65 127.445312 -65.183594 128.65625 -65.507812 129.808594 C -62.253906 131.582031 -58.835938 132.929688 -55.25 133.851562 C -51.664062 134.773438 -48.015625 135.242188 -44.3125 135.253906 C -42.851562 135.253906 -41.394531 135.183594 -39.9375 135.039062 C -38.484375 134.898438 -37.039062 134.683594 -35.605469 134.398438 C -34.171875 134.113281 -32.753906 133.757812 -31.355469 133.332031 C -29.957031 132.910156 -28.582031 132.417969 -27.234375 131.859375 C -25.882812 131.300781 -24.5625 130.675781 -23.273438 129.984375 C -21.984375 129.296875 -20.730469 128.546875 -19.515625 127.734375 C -18.300781 126.921875 -17.125 126.054688 -15.996094 125.125 C -14.867188 124.199219 -13.785156 123.21875 -12.75 122.1875 C -11.71875 121.152344 -10.738281 120.070312 -9.808594 118.941406 C -8.882812 117.8125 -8.011719 116.640625 -7.199219 115.425781 C -6.386719 114.207031 -5.636719 112.957031 -4.949219 111.667969 C -4.257812 110.378906 -3.632812 109.058594 -3.074219 107.710938 C -2.515625 106.359375 -2.023438 104.984375 -1.597656 103.585938 C -1.175781 102.1875 -0.820312 100.773438 -0.535156 99.339844 C -0.25 97.90625 -0.0351562 96.460938 0.109375 95.007812 C 0.25 93.554688 0.324219 92.09375 0.324219 90.632812 C 0.324219 89.171875 0.25 87.714844 0.109375 86.261719 C -0.0351562 84.804688 -0.25 83.363281 -0.535156 81.929688 C -0.820312 80.496094 -1.175781 79.078125 -1.597656 77.679688 C -2.023438 76.28125 -2.515625 74.90625 -3.074219 73.558594 C -3.632812 72.207031 -4.257812 70.886719 -4.949219 69.597656 C -5.636719 68.3125 -6.386719 67.058594 -7.199219 65.84375 C -8.011719 64.628906 -8.882812 63.457031 -9.808594 62.328125 C -10.738281 61.195312 -11.71875 60.113281 -12.75 59.082031 C -13.785156 58.046875 -14.867188 57.066406 -15.996094 56.140625 C -17.125 55.214844 -18.300781 54.34375 -19.515625 53.53125 C -20.730469 52.71875 -21.984375 51.96875 -23.273438 51.28125 C -24.5625 50.59375 -25.882812 49.96875 -27.234375 49.410156 C -28.582031 48.851562 -29.957031 48.359375 -31.355469 47.933594 C -32.753906 47.507812 -34.171875 47.15625 -35.605469 46.871094 C -37.039062 46.585938 -38.484375 46.371094 -39.9375 46.226562 C -41.394531 46.085938 -42.851562 46.011719 -44.3125 46.011719 M -85.140625 69.957031 C -85.550781 69.957031 -85.960938 69.988281 -86.367188 70.050781 C -86.777344 70.113281 -87.179688 70.207031 -87.582031 70.332031 C -87.984375 70.457031 -88.382812 70.613281 -88.773438 70.800781 C -89.167969 70.984375 -89.554688 71.203125 -89.933594 71.445312 C -90.3125 71.691406 -90.679688 71.964844 -91.042969 72.269531 C -91.40625 72.570312 -91.753906 72.902344 -92.097656 73.257812 C -92.4375 73.613281 -92.765625 73.996094 -93.082031 74.402344 C -93.402344 74.808594 -93.703125 75.238281 -93.992188 75.695312 C -94.285156 76.148438 -94.558594 76.621094 -94.820312 77.117188 C -95.078125 77.613281 -95.324219 78.128906 -95.550781 78.660156 C -95.777344 79.195312 -95.988281 79.746094 -96.183594 80.3125 C -96.375 80.875 -96.550781 81.457031 -96.707031 82.046875 C -96.863281 82.640625 -97.003906 83.246094 -97.121094 83.859375 C -97.242188 84.472656 -97.339844 85.09375 -97.421875 85.722656 C -97.5 86.351562 -97.5625 86.988281 -97.601562 87.625 C -97.640625 88.265625 -97.660156 88.902344 -97.660156 89.546875 C -97.65625 93.289062 -97.015625 96.746094 -95.746094 99.914062 C -94.515625 99.542969 -93.207031 99.339844 -91.855469 99.339844 L -78.425781 99.339844 C -77.066406 99.339844 -75.761719 99.546875 -74.527344 99.917969 C -73.257812 96.746094 -72.625 93.289062 -72.621094 89.546875 C -72.621094 88.902344 -72.640625 88.265625 -72.679688 87.625 C -72.722656 86.988281 -72.78125 86.351562 -72.863281 85.722656 C -72.941406 85.09375 -73.042969 84.472656 -73.160156 83.859375 C -73.277344 83.246094 -73.417969 82.640625 -73.574219 82.046875 C -73.730469 81.457031 -73.90625 80.875 -74.097656 80.3125 C -74.292969 79.746094 -74.503906 79.195312 -74.730469 78.660156 C -74.957031 78.128906 -75.203125 77.613281 -75.464844 77.117188 C -75.722656 76.621094 -76 76.148438 -76.289062 75.695312 C -76.578125 75.238281 -76.882812 74.808594 -77.199219 74.402344 C -77.515625 73.996094 -77.84375 73.613281 -78.183594 73.257812 C -78.527344 72.902344 -78.878906 72.570312 -79.238281 72.269531 C -79.601562 71.964844 -79.972656 71.691406 -80.351562 71.445312 C -80.730469 71.203125 -81.113281 70.984375 -81.507812 70.800781 C -81.898438 70.613281 -82.296875 70.457031 -82.699219 70.332031 C -83.101562 70.207031 -83.507812 70.113281 -83.914062 70.050781 C -84.320312 69.988281 -84.730469 69.957031 -85.140625 69.957031 M -59.894531 77.574219 L -47.789062 82.90625 C -47.398438 83.078125 -47.089844 83.335938 -46.855469 83.691406 C -46.621094 84.042969 -46.496094 84.429688 -46.488281 84.851562 C -46.480469 85.273438 -46.585938 85.667969 -46.804688 86.027344 C -47.023438 86.390625 -47.324219 86.664062 -47.703125 86.851562 L -59.8125 92.808594 L -61.734375 88.90625 L -53.820312 85.007812 L -61.648438 81.558594 L -59.894531 77.574219 M -27.980469 78.664062 C -27.550781 78.664062 -27.125 78.707031 -26.703125 78.789062 C -26.285156 78.871094 -25.875 78.996094 -25.480469 79.160156 C -25.082031 79.324219 -24.707031 79.527344 -24.351562 79.765625 C -23.992188 80.003906 -23.664062 80.273438 -23.359375 80.574219 C -23.054688 80.878906 -22.785156 81.207031 -22.546875 81.566406 C -22.308594 81.921875 -22.109375 82.296875 -21.945312 82.695312 C -21.78125 83.089844 -21.65625 83.5 -21.570312 83.917969 C -21.488281 84.339844 -21.445312 84.765625 -21.445312 85.191406 C -21.445312 85.621094 -21.488281 86.046875 -21.570312 86.46875 C -21.65625 86.886719 -21.78125 87.296875 -21.945312 87.691406 C -22.109375 88.089844 -22.308594 88.464844 -22.546875 88.820312 C -22.785156 89.175781 -23.054688 89.507812 -23.359375 89.8125 C -23.664062 90.113281 -23.992188 90.382812 -24.351562 90.621094 C -24.707031 90.859375 -25.082031 91.0625 -25.480469 91.226562 C -25.875 91.390625 -26.285156 91.515625 -26.703125 91.597656 C -27.125 91.679688 -27.550781 91.722656 -27.980469 91.722656 C -28.40625 91.722656 -28.832031 91.679688 -29.253906 91.597656 C -29.675781 91.515625 -30.082031 91.390625 -30.480469 91.226562 C -30.875 91.0625 -31.25 90.859375 -31.609375 90.621094 C -31.964844 90.382812 -32.292969 90.113281 -32.597656 89.8125 C -32.902344 89.507812 -33.171875 89.175781 -33.410156 88.820312 C -33.648438 88.464844 -33.851562 88.089844 -34.015625 87.691406 C -34.179688 87.296875 -34.300781 86.886719 -34.386719 86.46875 C -34.46875 86.046875 -34.511719 85.621094 -34.511719 85.191406 C -34.511719 84.765625 -34.46875 84.339844 -34.386719 83.917969 C -34.300781 83.5 -34.179688 83.089844 -34.015625 82.695312 C -33.851562 82.296875 -33.648438 81.921875 -33.410156 81.566406 C -33.171875 81.210938 -32.902344 80.878906 -32.597656 80.574219 C -32.292969 80.273438 -31.964844 80.003906 -31.609375 79.765625 C -31.25 79.527344 -30.875 79.324219 -30.480469 79.160156 C -30.082031 78.996094 -29.675781 78.871094 -29.253906 78.789062 C -28.832031 78.707031 -28.40625 78.664062 -27.980469 78.664062 M -90.394531 103.695312 C -96.222656 103.695312 -100.921875 108.390625 -100.921875 114.21875 L -100.921875 124.738281 C -100.921875 130.566406 -96.222656 135.257812 -90.394531 135.257812 L -79.871094 135.257812 C -75.886719 135.257812 -72.433594 133.070312 -70.644531 129.816406 L -86.765625 129.816406 L -86.765625 126.550781 L -69.511719 126.550781 C -69.410156 125.960938 -69.347656 125.355469 -69.347656 124.738281 L -69.347656 121.109375 L -86.765625 121.109375 L -86.765625 117.84375 L -69.347656 117.84375 L -69.347656 114.21875 C -69.347656 113.597656 -69.410156 112.992188 -69.511719 112.402344 L -86.765625 112.402344 L -86.765625 109.136719 L -70.644531 109.136719 C -72.433594 105.890625 -75.886719 103.695312 -79.871094 103.695312 L -90.394531 103.695312 M -56.917969 103.695312 C -56.917969 103.695312 -51.265625 112.402344 -42.089844 112.402344 C -32.914062 112.402344 -27.261719 103.695312 -27.261719 103.695312 L -23.582031 106.019531 C -23.582031 106.019531 -30.230469 116.753906 -42.089844 116.753906 C -53.949219 116.753906 -60.597656 106.019531 -60.597656 106.019531 L -56.917969 103.695312 " fill-opacity="1" fill-rule="nonzero"/></g></svg>